<?xml version="1.0" encoding="UTF-8" standalone="no"?>
<svg
   xmlns:dc="http://purl.org/dc/elements/1.1/"
   xmlns:cc="http://creativecommons.org/ns#"
   xmlns:rdf="http://www.w3.org/1999/02/22-rdf-syntax-ns#"
   xmlns:svg="http://www.w3.org/2000/svg"
   xmlns="http://www.w3.org/2000/svg"
   viewBox="0 0 529.1333 479.05334"
   height="479.05334"
   width="529.1333"
   xml:space="preserve"
   id="svg2"
   version="1.1"><metadata
     id="metadata8"><rdf:RDF><cc:Work
         rdf:about=""><dc:format>image/svg+xml</dc:format><dc:type
           rdf:resource="http://purl.org/dc/dcmitype/StillImage" /></cc:Work></rdf:RDF></metadata><defs
     id="defs6" /><g
     transform="matrix(1.3333333,0,0,-1.3333333,0,479.05333)"
     id="g10"><g
       transform="scale(0.1)"
       id="g12"><path
         id="path14"
         style="fill:#e5d4b1;fill-opacity:1;fill-rule:nonzero;stroke:none"
         d="m 3826.98,1014.5 c -172.21,23.48 -446.19,180.04 -485.33,203.52 -39.13,23.48 -219.17,219.18 -313.11,367.91 -93.93,148.73 -180.04,328.77 -211.35,430.53 -31.31,101.76 -62.62,203.52 -70.45,258.31 -7.83,54.8 7.83,183.96 31.31,238.75 -54.79,39.14 -164.38,46.97 -211.35,-54.79 -46.97,-101.77 -86.11,-258.32 -86.11,-360.08 0,-101.76 172.22,-430.53 62.63,-477.5 -109.59,-46.97 -133.08,-109.59 -696.68,31.31 -563.6,140.9 -798.43,156.56 -853.227,46.97 -54.793,-109.59 266.147,-156.55 438.357,-187.87 172.21,-31.31 563.77,-177.17 508.81,-250.49 -34.05,-45.41 -73.39,-35.13 -162.1,-66.44 -153.51,-54.18 -151.15,-78.01 -342.79,-143.6 -191.26,-65.448 -178.81,-252.26 -118.73,-283.592 60.09,-31.344 109.72,-49.653 363.11,94.027 112.32,41.801 248.77,69.547 368.8,79.984 120.03,10.434 193.1,-438.359 323.56,-506.203 130.46,-67.844 281.79,-62.621 375.72,-62.621 93.94,0 146.11,-15.664 198.31,10.434 52.19,26.097 198.31,-10.426 276.59,-52.18 0,0 302.67,-146.121 328.76,-177.434" /><path
         id="path16"
         style="fill:none;stroke:#000000;stroke-width:23.4834;stroke-linecap:butt;stroke-linejoin:miter;stroke-miterlimit:4;stroke-dasharray:none;stroke-opacity:1"
         d="m 3826.98,1014.5 c -172.21,23.48 -446.19,180.04 -485.33,203.52 -39.13,23.48 -219.17,219.18 -313.11,367.91 -93.93,148.73 -180.04,328.77 -211.35,430.53 -31.31,101.76 -62.62,203.52 -70.45,258.31 -7.83,54.8 7.83,183.96 31.31,238.75 -54.79,39.14 -164.38,46.97 -211.35,-54.79 -46.97,-101.77 -86.11,-258.32 -86.11,-360.08 0,-101.76 172.22,-430.53 62.63,-477.5 -109.59,-46.97 -133.08,-109.59 -696.68,31.31 -563.6,140.9 -798.43,156.56 -853.227,46.97 -54.793,-109.59 266.147,-156.55 438.357,-187.87 172.21,-31.31 563.77,-177.17 508.81,-250.49 -34.05,-45.41 -73.39,-35.13 -162.1,-66.44 -153.51,-54.18 -151.15,-78.01 -342.79,-143.6 -191.26,-65.448 -178.81,-252.26 -118.73,-283.592 60.09,-31.344 109.72,-49.653 363.11,94.027 112.32,41.801 248.77,69.547 368.8,79.984 120.03,10.434 193.1,-438.359 323.56,-506.203 130.46,-67.844 281.79,-62.621 375.72,-62.621 93.94,0 146.11,-15.664 198.31,10.434 52.19,26.097 198.31,-10.426 276.59,-52.18 0,0 302.67,-146.121 328.76,-177.434" /><path
         id="path18"
         style="fill:none;stroke:#897f6a;stroke-width:15.6556;stroke-linecap:butt;stroke-linejoin:miter;stroke-miterlimit:4;stroke-dasharray:none;stroke-opacity:1"
         d="m 2007.03,1272.82 c 266.13,15.65 360.06,-240.05 422.68,-375.738" /><path
         id="path20"
         style="fill:none;stroke:#897f6a;stroke-width:15.6556;stroke-linecap:butt;stroke-linejoin:miter;stroke-miterlimit:4;stroke-dasharray:none;stroke-opacity:1"
         d="m 2568.01,1471.13 c 2.62,-198.31 86.12,-365.31 198.3,-427.91" /><path
         id="path22"
         style="fill:none;stroke:#897f6a;stroke-width:15.6556;stroke-linecap:butt;stroke-linejoin:miter;stroke-miterlimit:4;stroke-dasharray:none;stroke-opacity:1"
         d="m 2048.77,1585.93 c -62.62,-10.43 -135.68,-156.55 -104.36,-198.3" /><path
         id="path24"
         style="fill:none;stroke:#897f6a;stroke-width:15.6556;stroke-linecap:butt;stroke-linejoin:miter;stroke-miterlimit:4;stroke-dasharray:none;stroke-opacity:1"
         d="m 1714.78,1669.43 c -41.74,-31.31 -125.24,-104.36 -104.37,-146.12" /><path
         id="path26"
         style="fill:none;stroke:#897f6a;stroke-width:15.6556;stroke-linecap:butt;stroke-linejoin:miter;stroke-miterlimit:4;stroke-dasharray:none;stroke-opacity:1"
         d="m 1339.05,1732.05 c -52.19,-31.3 -69.15,-121.33 -79.59,-142.2" /><path
         id="path28"
         style="fill:none;stroke:#897f6a;stroke-width:15.6556;stroke-linecap:butt;stroke-linejoin:miter;stroke-miterlimit:4;stroke-dasharray:none;stroke-opacity:1"
         d="m 1913.09,1199.76 c 62.62,-31.31 93.93,-135.67 73.06,-208.737" /><path
         id="path30"
         style="fill:none;stroke:#897f6a;stroke-width:15.6556;stroke-linecap:butt;stroke-linejoin:miter;stroke-miterlimit:4;stroke-dasharray:none;stroke-opacity:1"
         d="m 1747.24,1142.84 c 52.19,-31.31 56.74,-187.817 35.86,-219.125" /><path
         id="path32"
         style="fill:none;stroke:#897f6a;stroke-width:15.6556;stroke-linecap:butt;stroke-linejoin:miter;stroke-miterlimit:4;stroke-dasharray:none;stroke-opacity:1"
         d="m 1548.04,1055.19 c 67.7,-50.76 75.08,-121.6 39.84,-207.17" /><path
         id="path34"
         style="fill:none;stroke:#897f6a;stroke-width:15.6556;stroke-linecap:butt;stroke-linejoin:miter;stroke-miterlimit:4;stroke-dasharray:none;stroke-opacity:1"
         d="m 2472.77,1542.88 c -31.31,-78.29 -54.8,-140.91 -46.97,-187.87" /><path
         id="path36"
         style="fill:none;stroke:#897f6a;stroke-width:15.6556;stroke-linecap:butt;stroke-linejoin:miter;stroke-miterlimit:4;stroke-dasharray:none;stroke-opacity:1"
         d="m 2480.59,2098.65 c 93.52,-13.36 20.97,-25.46 195.7,7.83" /><path
         id="path38"
         style="fill:none;stroke:#897f6a;stroke-width:15.6556;stroke-linecap:butt;stroke-linejoin:miter;stroke-miterlimit:4;stroke-dasharray:none;stroke-opacity:1"
         d="m 3295.99,1147.57 c -31.31,-93.93 -62.62,-125.24 -114.81,-156.55" /><path
         id="path40"
         style="fill:#e5d4b1;fill-opacity:1;fill-rule:nonzero;stroke:none"
         d="m 2518.44,461.328 c 124.5,24.91 213.97,41.746 281.8,62.625 67.83,20.875 166.98,78.285 193.08,130.465 26.09,52.18 5.22,62.613 -10.44,99.148 -15.65,36.532 -187.85,15.657 -229.61,0 -41.75,-15.656 -78.28,-31.312 -250.49,-57.402 -172.21,-26.09 -219.18,-39.141 -307.9,-28.695 -72.74,8.562 10.46,-174.821 46.98,-195.696 36.53,-20.878 41.75,-57.41 276.58,-10.445" /><path
         id="path42"
         style="fill:none;stroke:#000000;stroke-width:23.4834;stroke-linecap:butt;stroke-linejoin:miter;stroke-miterlimit:4;stroke-dasharray:none;stroke-opacity:1"
         d="m 2518.44,461.328 c 124.5,24.91 213.97,41.746 281.8,62.625 67.83,20.875 166.98,78.285 193.08,130.465 26.09,52.18 5.22,62.613 -10.44,99.148 -15.65,36.532 -187.85,15.657 -229.61,0 -41.75,-15.656 -78.28,-31.312 -250.49,-57.402 -172.21,-26.09 -219.18,-39.141 -307.9,-28.695 -72.74,8.562 10.46,-174.821 46.98,-195.696 36.53,-20.878 41.75,-57.41 276.58,-10.445 z" /><path
         id="path44"
         style="fill:#e5d4b1;fill-opacity:1;fill-rule:nonzero;stroke:none"
         d="m 2651.26,951.875 c 147.92,10.434 221.9,20.867 261.72,-20.879 39.82,-41.742 22.75,-83.496 11.38,-93.933 -11.38,-10.434 -142.24,-67.833 -210.51,-88.711 -68.3,-20.875 -79.67,-5.223 -216.2,-36.532 -136.55,-31.312 -147.92,-41.746 -187.76,-57.402 -39.83,-15.656 -119.47,-10.434 -193.43,46.969 -73.97,57.398 -62.59,156.554 -56.9,187.867 5.69,31.309 11.39,99.152 153.62,109.586 142.23,10.44 96.7,-36.524 278.77,-41.742 182.07,-5.223 159.31,-5.223 159.31,-5.223" /><path
         id="path46"
         style="fill:none;stroke:#000000;stroke-width:23.4834;stroke-linecap:butt;stroke-linejoin:miter;stroke-miterlimit:4;stroke-dasharray:none;stroke-opacity:1"
         d="m 2651.26,951.875 c 147.92,10.434 221.9,20.867 261.72,-20.879 39.82,-41.742 22.75,-83.496 11.38,-93.933 -11.38,-10.434 -142.24,-67.833 -210.51,-88.711 -68.3,-20.875 -79.67,-5.223 -216.2,-36.532 -136.55,-31.312 -147.92,-41.746 -187.76,-57.402 -39.83,-15.656 -119.47,-10.434 -193.43,46.969 -73.97,57.398 -62.59,156.554 -56.9,187.867 5.69,31.309 11.39,99.152 153.62,109.586 142.23,10.44 96.7,-36.524 278.77,-41.742 182.07,-5.223 159.31,-5.223 159.31,-5.223 z" /><path
         id="path48"
         style="fill:none;stroke:#897f6a;stroke-width:15.6556;stroke-linecap:butt;stroke-linejoin:miter;stroke-miterlimit:4;stroke-dasharray:none;stroke-opacity:1"
         d="m 2095.73,899.688 c -15.06,-135.461 8.68,-142.2 83.5,-198.301" /><path
         id="path50"
         style="fill:none;stroke:#897f6a;stroke-width:15.6556;stroke-linecap:butt;stroke-linejoin:miter;stroke-miterlimit:4;stroke-dasharray:none;stroke-opacity:1"
         d="m 2325.35,897.086 c 0,-41.742 10.43,-135.676 10.43,-135.676" /><path
         id="path52"
         style="fill:none;stroke:#897f6a;stroke-width:15.6556;stroke-linecap:butt;stroke-linejoin:miter;stroke-miterlimit:4;stroke-dasharray:none;stroke-opacity:1"
         d="m 2583.66,910.137 c 0,-20.875 10.45,-104.367 10.45,-135.68" /><path
         id="path54"
         style="fill:none;stroke:#897f6a;stroke-width:15.6556;stroke-linecap:butt;stroke-linejoin:miter;stroke-miterlimit:4;stroke-dasharray:none;stroke-opacity:1"
         d="m 2635.84,675.289 c 0,-31.312 52.19,-135.68 52.19,-135.68" /><path
         id="path56"
         style="fill:none;stroke:#897f6a;stroke-width:15.6556;stroke-linecap:butt;stroke-linejoin:miter;stroke-miterlimit:4;stroke-dasharray:none;stroke-opacity:1"
         d="m 2382.75,615.277 c 10.43,-20.875 20.88,-114.8 52.19,-125.242" /><path
         id="path58"
         style="fill:none;stroke:#897f6a;stroke-width:15.6556;stroke-linecap:butt;stroke-linejoin:miter;stroke-miterlimit:4;stroke-dasharray:none;stroke-opacity:1"
         d="M 3348.17,897.078 C 3296,803.145 3264.68,563.082 3212.5,510.902" /><path
         id="path60"
         style="fill:none;stroke:#ff0000;stroke-width:39.851;stroke-linecap:round;stroke-linejoin:miter;stroke-miterlimit:10;stroke-dasharray:none;stroke-opacity:1"
         d="M 910.77,1758.89 243.098,1926.35" /><path
         id="path62"
         style="fill:none;stroke:#ff0000;stroke-width:39.8502;stroke-linecap:butt;stroke-linejoin:miter;stroke-miterlimit:10;stroke-dasharray:none;stroke-opacity:1"
         d="m 292.551,1816.38 -68.778,114.82 114.825,68.78" /><path
         id="path64"
         style="fill:none;stroke:#00ff00;stroke-width:39.851;stroke-linecap:round;stroke-linejoin:miter;stroke-miterlimit:10;stroke-dasharray:none;stroke-opacity:1"
         d="M 1188.58,788.316 757.375,626.094" /><path
         id="path66"
         style="fill:none;stroke:#00ff00;stroke-width:39.8488;stroke-linecap:butt;stroke-linejoin:miter;stroke-miterlimit:10;stroke-dasharray:none;stroke-opacity:1"
         d="m 860.633,563.82 -121.906,55.258 55.257,121.906" /><path
         id="path68"
         style="fill:none;stroke:#0000ff;stroke-width:39.851;stroke-linecap:round;stroke-linejoin:miter;stroke-miterlimit:10;stroke-dasharray:none;stroke-opacity:1"
         d="m 2696.63,2656.93 v 670.78" /><path
         id="path70"
         style="fill:none;stroke:#0000ff;stroke-width:39.851;stroke-linecap:butt;stroke-linejoin:miter;stroke-miterlimit:10;stroke-dasharray:none;stroke-opacity:1"
         d="m 2601.98,3252.98 94.65,94.65 94.65,-94.65" /><path
         id="path72"
         style="fill:#000000;fill-opacity:1;fill-rule:nonzero;stroke:none"
         d="m 569.547,2098.84 -21.234,-23.48 2.062,-2.06 19.172,18.64 19.172,-18.64 2.062,2.06 -21.234,23.48" /><path
         id="path74"
         style="fill:#000000;fill-opacity:1;fill-rule:nonzero;stroke:none"
         d="m 598.859,2049.45 c -5.531,-1.03 -7.593,-5.17 -7.593,-8.45 0,-4.14 3.281,-5.53 5.687,-5.53 5.188,0 8.813,4.48 8.813,9.16 0,7.25 -8.297,10.53 -15.547,10.53 -10.531,0 -16.406,-10.36 -17.953,-13.64 -3.969,12.95 -14.688,13.64 -17.797,13.64 -17.61,0 -26.938,-22.63 -26.938,-26.43 0,-0.68 0.688,-1.54 1.907,-1.54 1.375,0 1.718,1.03 2.062,1.72 5.875,19.17 17.453,22.79 22.453,22.79 7.781,0 9.328,-7.25 9.328,-11.39 0,-3.81 -1.031,-7.78 -3.109,-16.06 l -5.875,-23.66 c -2.578,-10.37 -7.594,-19.86 -16.75,-19.86 -0.859,0 -5.172,0 -8.797,2.24 6.203,1.22 7.594,6.39 7.594,8.47 0,3.45 -2.594,5.51 -5.875,5.51 -4.141,0 -8.641,-3.62 -8.641,-9.14 0,-7.26 8.125,-10.54 15.547,-10.54 8.297,0 14.156,6.56 17.797,13.65 2.75,-10.19 11.391,-13.65 17.781,-13.65 17.61,0 26.938,22.62 26.938,26.42 0,0.87 -0.688,1.56 -1.719,1.56 -1.563,0 -1.734,-0.86 -2.25,-2.25 -4.656,-15.19 -14.688,-22.27 -22.453,-22.27 -6.047,0 -9.328,4.49 -9.328,11.57 0,3.79 0.703,6.56 3.453,17.95 l 6.047,23.5 c 2.593,10.36 8.468,17.95 16.406,17.95 0.344,0 5.187,0 8.812,-2.25" /><path
         id="path76"
         style="fill:#000000;fill-opacity:1;fill-rule:nonzero;stroke:none"
         d="m 1027.55,528.844 -21.24,-23.485 2.07,-2.062 19.17,18.641 19.17,-18.641 2.06,2.062 -21.23,23.485" /><path
         id="path78"
         style="fill:#000000;fill-opacity:1;fill-rule:nonzero;stroke:none"
         d="m 1019.42,389.656 c -4.67,-6.562 -11.4,-12.437 -19.857,-12.437 -2.079,0 -10.36,0.344 -12.954,8.297 0.516,-0.172 1.375,-0.172 1.719,-0.172 5.188,0 8.641,4.484 8.641,8.453 0,3.984 -3.281,5.359 -5.875,5.359 -2.766,0 -8.797,-2.078 -8.797,-10.531 0,-8.812 7.422,-14.859 17.266,-14.859 17.267,0 34.707,15.89 39.547,35.062 l 16.92,67.344 c 0.17,0.875 0.52,1.906 0.52,2.937 0,2.594 -2.08,4.329 -4.66,4.329 -1.56,0 -5.19,-0.704 -6.56,-5.875 l -12.78,-50.782 c -0.86,-3.109 -0.86,-3.453 -2.25,-5.343 -3.46,-4.844 -9.16,-10.704 -17.44,-10.704 -9.67,0 -10.53,9.485 -10.53,14.157 0,9.843 4.65,23.14 9.31,35.578 1.91,5 2.94,7.422 2.94,10.875 0,7.25 -5.17,13.812 -13.64,13.812 -15.893,0 -22.284,-25.031 -22.284,-26.422 0,-0.687 0.703,-1.546 1.907,-1.546 1.546,0 1.734,0.687 2.421,3.109 4.141,14.5 10.704,21.406 17.436,21.406 1.55,0 4.49,0 4.49,-5.703 0,-4.484 -1.89,-9.5 -4.49,-16.062 -8.467,-22.61 -8.467,-28.313 -8.467,-32.454 0,-16.406 11.747,-20.218 20.387,-20.218 5,0 11.22,1.562 17.27,7.953 l 0.17,-0.172 c -2.59,-10.188 -4.31,-16.922 -10.36,-25.391" /><path
         id="path80"
         style="fill:#000000;fill-opacity:1;fill-rule:nonzero;stroke:none"
         d="m 2501.55,3119.84 -21.24,-23.48 2.07,-2.06 19.17,18.64 19.17,-18.64 2.06,2.06 -21.23,23.48" /><path
         id="path82"
         style="fill:#000000;fill-opacity:1;fill-rule:nonzero;stroke:none"
         d="m 2471.94,3013.98 c 7.42,8.47 13.47,13.82 22.09,21.6 10.38,8.98 14.86,13.3 17.28,15.89 12.08,11.91 18.13,21.92 18.13,23.31 0,1.38 -1.38,1.38 -1.72,1.38 -1.22,0 -1.56,-0.69 -2.42,-1.89 -4.32,-7.44 -8.47,-11.07 -12.96,-11.07 -3.62,0 -5.53,1.57 -8.81,5.71 -3.62,4.31 -6.56,7.25 -11.56,7.25 -12.61,0 -20.2,-15.72 -20.2,-19.35 0,-0.51 0.17,-1.54 1.71,-1.54 1.4,0 1.57,0.68 2.08,1.89 2.94,6.9 11.22,8.12 14.5,8.12 3.63,0 7.08,-1.22 10.71,-2.76 6.56,-2.77 9.32,-2.77 11.06,-2.77 1.2,0 1.89,0 2.76,0.17 -5.7,-6.73 -15.03,-15.01 -22.79,-22.11 l -17.46,-16.04 c -10.53,-10.72 -16.92,-20.91 -16.92,-22.11 0,-1.03 0.88,-1.39 1.91,-1.39 1.03,0 1.2,0.18 2.42,2.25 2.75,4.31 8.28,10.7 14.67,10.7 3.63,0 5.36,-1.2 8.81,-5.52 3.29,-3.79 6.22,-7.43 11.74,-7.43 16.92,0 26.59,21.93 26.59,25.9 0,0.71 -0.17,1.74 -1.89,1.74 -1.39,0 -1.56,-0.69 -2.08,-2.43 -3.79,-10.18 -13.98,-14.32 -20.71,-14.32 -3.63,0 -7.08,1.2 -10.71,2.76 -6.92,2.75 -8.81,2.75 -11.06,2.75 -1.72,0 -3.63,0 -5.17,-0.69" /></g></g></svg>
