<?xml version="1.0" encoding="UTF-8" standalone="no"?>
<svg
   xmlns:dc="http://purl.org/dc/elements/1.1/"
   xmlns:cc="http://creativecommons.org/ns#"
   xmlns:rdf="http://www.w3.org/1999/02/22-rdf-syntax-ns#"
   xmlns:svg="http://www.w3.org/2000/svg"
   xmlns="http://www.w3.org/2000/svg"
   id="svg181"
   version="1.2"
   viewBox="0 0 477.21 378.47"
   height="378.47pt"
   width="477.21pt">
  <metadata
     id="metadata185">
    <rdf:RDF>
      <cc:Work
         rdf:about="">
        <dc:format>image/svg+xml</dc:format>
        <dc:type
           rdf:resource="http://purl.org/dc/dcmitype/StillImage" />
      </cc:Work>
    </rdf:RDF>
  </metadata>
  <defs
     id="defs8">
    <clipPath
       id="clip1">
      <path
         id="path2"
         d="M 61.671875 150 L 458.527344 150 L 458.527344 314 L 61.671875 314 Z M 61.671875 150 " />
    </clipPath>
    <clipPath
       id="clip2">
      <path
         id="path5"
         d="M 61.671875 36 L 458.527344 36 L 458.527344 297 L 61.671875 297 Z M 61.671875 36 " />
    </clipPath>
  </defs>
  <g
     id="surface1">
    <path
       id="path10"
       transform="matrix(0.1,0,0,-0.1,0,378.47)"
       d="M 1013.59375 1021.575 L 1013.59375 1064.114062 M 1410.46875 1021.575 L 1410.46875 1064.114062 M 1807.304688 1021.575 L 1807.304688 1064.114062 M 2204.140625 1021.575 L 2204.140625 1064.114062 M 2601.015625 1021.575 L 2601.015625 1064.114062 M 2997.851563 1021.575 L 2997.851563 1064.114062 M 3394.726563 1021.575 L 3394.726563 1064.114062 M 3791.5625 1021.575 L 3791.5625 1064.114062 M 4188.4375 1021.575 L 4188.4375 1064.114062 M 4585.273438 1021.575 L 4585.273438 1064.114062 "
       style="fill:none;stroke-width:1.9925;stroke-linecap:butt;stroke-linejoin:miter;stroke:rgb(50%,50%,50%);stroke-opacity:1;stroke-miterlimit:10;" />
    <path
       id="path12"
       transform="matrix(0.1,0,0,-0.1,0,378.47)"
       d="M 595.46875 672.317187 L 638.007813 672.317187 M 595.46875 1413.410937 L 638.007813 1413.410937 M 595.46875 1783.957812 L 638.007813 1783.957812 M 595.46875 2154.504687 L 638.007813 2154.504687 M 595.46875 2525.051562 L 638.007813 2525.051562 M 595.46875 2895.598437 L 638.007813 2895.598437 M 595.46875 3266.145312 L 638.007813 3266.145312 "
       style="fill:none;stroke-width:1.9925;stroke-linecap:butt;stroke-linejoin:miter;stroke:rgb(50%,50%,50%);stroke-opacity:1;stroke-miterlimit:10;" />
    <path
       id="path14"
       transform="matrix(0.1,0,0,-0.1,0,378.47)"
       d="M 616.71875 1042.864062 L 4547.421875 1042.864062 "
       style="fill:none;stroke-width:15.9404;stroke-linecap:butt;stroke-linejoin:miter;stroke:rgb(0%,0%,0%);stroke-opacity:1;stroke-miterlimit:10;" />
    <path
       id="path16"
       d="M 458.527344 274.183594 L 452.472656 271.15625 L 454.742188 274.183594 L 452.472656 277.214844 "
       style=" stroke:none;fill-rule:nonzero;fill:rgb(0%,0%,0%);fill-opacity:1;" />
    <path
       id="path18"
       transform="matrix(0.1,0,0,-0.1,0,378.47)"
       d="M 616.71875 616.73125 L 616.71875 3413.528125 "
       style="fill:none;stroke-width:15.9404;stroke-linecap:butt;stroke-linejoin:miter;stroke:rgb(0%,0%,0%);stroke-opacity:1;stroke-miterlimit:10;" />
    <path
       id="path20"
       d="M 61.671875 33.328125 L 58.644531 39.386719 L 61.671875 37.117188 L 64.703125 39.386719 "
       style=" stroke:none;fill-rule:nonzero;fill:rgb(0%,0%,0%);fill-opacity:1;" />
    <path
       id="path22"
       d="M 101.992188 282.9375 C 101.992188 282.570313 101.976563 282.554688 101.734375 282.554688 C 101.0625 283.367188 100.042969 283.625 99.074219 283.660156 C 99.023438 283.660156 98.9375 283.660156 98.921875 283.695313 C 98.902344 283.730469 98.902344 283.765625 98.902344 284.125 C 99.4375 284.125 100.335938 284.023438 101.027344 283.609375 L 101.027344 292.710938 C 101.027344 293.3125 100.992188 293.523438 99.507813 293.523438 L 98.988281 293.523438 L 98.988281 293.96875 C 99.816406 293.953125 100.679688 293.9375 101.507813 293.9375 C 102.339844 293.9375 103.203125 293.953125 104.03125 293.96875 L 104.03125 293.523438 L 103.515625 293.523438 C 102.027344 293.523438 101.992188 293.332031 101.992188 292.710938 L 101.992188 282.9375 "
       style=" stroke:none;fill-rule:nonzero;fill:rgb(0%,0%,0%);fill-opacity:1;" />
    <path
       id="path24"
       d="M 144.300781 291.292969 L 143.992188 291.292969 C 143.816406 292.519531 143.679688 292.726563 143.609375 292.832031 C 143.523438 292.96875 142.28125 292.96875 142.039063 292.96875 L 138.722656 292.96875 C 139.34375 292.296875 140.554688 291.070313 142.023438 289.652344 C 143.074219 288.652344 144.300781 287.476563 144.300781 285.765625 C 144.300781 283.730469 142.679688 282.554688 140.863281 282.554688 C 138.964844 282.554688 137.808594 284.230469 137.808594 285.785156 C 137.808594 286.457031 138.308594 286.542969 138.515625 286.542969 C 138.6875 286.542969 139.207031 286.441406 139.207031 285.835938 C 139.207031 285.300781 138.757813 285.144531 138.515625 285.144531 C 138.414063 285.144531 138.308594 285.164063 138.238281 285.195313 C 138.566406 283.730469 139.570313 283.003906 140.621094 283.003906 C 142.125 283.003906 143.109375 284.195313 143.109375 285.765625 C 143.109375 287.269531 142.230469 288.566406 141.246094 289.6875 L 137.808594 293.574219 L 137.808594 293.96875 L 143.886719 293.96875 L 144.300781 291.292969 "
       style=" stroke:none;fill-rule:nonzero;fill:rgb(0%,0%,0%);fill-opacity:1;" />
    <path
       id="path26"
       d="M 180.617188 288.097656 C 182.152344 288.097656 182.828125 289.429688 182.828125 290.964844 C 182.828125 293.039063 181.722656 293.832031 180.71875 293.832031 C 179.804688 293.832031 178.320313 293.382813 177.851563 292.054688 C 177.9375 292.085938 178.027344 292.085938 178.113281 292.085938 C 178.527344 292.085938 178.839844 291.8125 178.839844 291.363281 C 178.839844 290.863281 178.457031 290.636719 178.113281 290.636719 C 177.820313 290.636719 177.371094 290.773438 177.371094 291.414063 C 177.371094 293.003906 178.921875 294.246094 180.753906 294.246094 C 182.671875 294.246094 184.140625 292.742188 184.140625 290.984375 C 184.140625 289.308594 182.757813 288.097656 181.117188 287.910156 C 182.429688 287.632813 183.691406 286.457031 183.691406 284.886719 C 183.691406 283.539063 182.328125 282.554688 180.773438 282.554688 C 179.199219 282.554688 177.820313 283.523438 177.820313 284.902344 C 177.820313 285.507813 178.265625 285.613281 178.492188 285.613281 C 178.855469 285.613281 179.164063 285.386719 179.164063 284.9375 C 179.164063 284.488281 178.855469 284.265625 178.492188 284.265625 C 178.421875 284.265625 178.339844 284.265625 178.265625 284.300781 C 178.769531 283.160156 180.132813 282.953125 180.738281 282.953125 C 181.34375 282.953125 182.480469 283.246094 182.480469 284.902344 C 182.480469 285.386719 182.414063 286.25 181.824219 287.011719 C 181.308594 287.683594 180.71875 287.71875 180.148438 287.769531 C 180.0625 287.769531 179.667969 287.804688 179.597656 287.804688 C 179.476563 287.820313 179.40625 287.839844 179.40625 287.960938 C 179.40625 288.082031 179.425781 288.097656 179.769531 288.097656 L 180.617188 288.097656 "
       style=" stroke:none;fill-rule:nonzero;fill:rgb(0%,0%,0%);fill-opacity:1;" />
    <path
       id="path28"
       d="M 222.304688 282.796875 C 222.304688 282.433594 222.285156 282.417969 221.976563 282.417969 L 216.84375 290.585938 L 216.84375 291.035156 L 221.300781 291.035156 L 221.300781 292.726563 C 221.300781 293.347656 221.265625 293.523438 220.058594 293.523438 L 219.730469 293.523438 L 219.730469 293.96875 C 220.28125 293.9375 221.214844 293.9375 221.800781 293.9375 C 222.390625 293.9375 223.320313 293.9375 223.871094 293.96875 L 223.871094 293.523438 L 223.546875 293.523438 C 222.339844 293.523438 222.304688 293.347656 222.304688 292.726563 L 222.304688 291.035156 L 224.0625 291.035156 L 224.0625 290.585938 L 222.304688 290.585938 Z M 221.351563 283.9375 L 221.351563 290.585938 L 217.191406 290.585938 Z M 221.351563 283.9375 "
       style=" stroke:none;fill-rule:nonzero;fill:rgb(0%,0%,0%);fill-opacity:1;" />
    <path
       id="path30"
       d="M 258.167969 283.867188 C 258.339844 283.9375 259.050781 284.160156 259.773438 284.160156 C 261.382813 284.160156 262.261719 283.296875 262.761719 282.796875 C 262.761719 282.660156 262.761719 282.570313 262.660156 282.570313 C 262.640625 282.570313 262.605469 282.570313 262.46875 282.640625 C 261.863281 282.898438 261.15625 283.109375 260.292969 283.109375 C 259.773438 283.109375 258.996094 283.039063 258.152344 282.660156 C 257.960938 282.570313 257.925781 282.570313 257.910156 282.570313 C 257.824219 282.570313 257.804688 282.589844 257.804688 282.9375 L 257.804688 287.945313 C 257.804688 288.253906 257.804688 288.339844 257.976563 288.339844 C 258.066406 288.339844 258.101563 288.304688 258.1875 288.183594 C 258.738281 287.40625 259.496094 287.078125 260.363281 287.078125 C 260.964844 287.078125 262.261719 287.460938 262.261719 290.414063 C 262.261719 290.964844 262.261719 291.96875 261.742188 292.761719 C 261.3125 293.46875 260.636719 293.832031 259.894531 293.832031 C 258.757813 293.832031 257.597656 293.039063 257.289063 291.707031 C 257.359375 291.726563 257.496094 291.757813 257.5625 291.757813 C 257.789063 291.757813 258.21875 291.640625 258.21875 291.101563 C 258.21875 290.636719 257.890625 290.445313 257.5625 290.445313 C 257.167969 290.445313 256.90625 290.6875 256.90625 291.171875 C 256.90625 292.675781 258.101563 294.246094 259.929688 294.246094 C 261.710938 294.246094 263.402344 292.710938 263.402344 290.480469 C 263.402344 288.410156 262.054688 286.804688 260.378906 286.804688 C 259.496094 286.804688 258.757813 287.132813 258.167969 287.753906 L 258.167969 283.867188 "
       style=" stroke:none;fill-rule:nonzero;fill:rgb(0%,0%,0%);fill-opacity:1;" />
    <path
       id="path32"
       d="M 297.632813 288.011719 C 297.632813 283.882813 299.5625 282.953125 300.6875 282.953125 C 301.050781 282.953125 301.929688 283.023438 302.277344 283.695313 C 302 283.695313 301.480469 283.695313 301.480469 284.300781 C 301.480469 284.765625 301.859375 284.921875 302.101563 284.921875 C 302.257813 284.921875 302.726563 284.851563 302.726563 284.265625 C 302.726563 283.175781 301.859375 282.554688 300.671875 282.554688 C 298.617188 282.554688 296.457031 284.695313 296.457031 288.511719 C 296.457031 293.210938 298.40625 294.246094 299.789063 294.246094 C 301.464844 294.246094 303.054688 292.742188 303.054688 290.429688 C 303.054688 288.273438 301.65625 286.699219 299.890625 286.699219 C 298.839844 286.699219 298.0625 287.390625 297.632813 288.601563 Z M 299.789063 293.832031 C 297.664063 293.832031 297.664063 290.65625 297.664063 290.015625 C 297.664063 288.773438 298.253906 286.976563 299.859375 286.976563 C 300.152344 286.976563 300.996094 286.976563 301.570313 288.167969 C 301.878906 288.839844 301.878906 289.550781 301.878906 290.414063 C 301.878906 291.34375 301.878906 292.035156 301.515625 292.726563 C 301.136719 293.433594 300.585938 293.832031 299.789063 293.832031 "
       style=" stroke:none;fill-rule:nonzero;fill:rgb(0%,0%,0%);fill-opacity:1;" />
    <path
       id="path34"
       d="M 343.289063 283.210938 L 343.289063 282.832031 L 339.230469 282.832031 C 337.210938 282.832031 337.175781 282.609375 337.105469 282.28125 L 336.796875 282.28125 L 336.292969 285.507813 L 336.605469 285.507813 C 336.65625 285.179688 336.777344 284.300781 336.984375 283.972656 C 337.089844 283.832031 338.367188 283.832031 338.660156 283.832031 L 342.460938 283.832031 L 340.542969 286.683594 C 339.265625 288.601563 338.382813 291.191406 338.382813 293.453125 C 338.382813 293.660156 338.382813 294.246094 339.007813 294.246094 C 339.628906 294.246094 339.628906 293.660156 339.628906 293.433594 L 339.628906 292.640625 C 339.628906 289.808594 340.109375 287.945313 340.90625 286.75 L 343.289063 283.210938 "
       style=" stroke:none;fill-rule:nonzero;fill:rgb(0%,0%,0%);fill-opacity:1;" />
    <path
       id="path36"
       d="M 379.898438 287.753906 C 380.984375 287.199219 382.089844 286.371094 382.089844 285.042969 C 382.089844 283.46875 380.570313 282.554688 379.171875 282.554688 C 377.601563 282.554688 376.21875 283.695313 376.21875 285.265625 C 376.21875 285.699219 376.320313 286.441406 376.996094 287.097656 C 377.167969 287.269531 377.894531 287.789063 378.359375 288.117188 C 377.582031 288.511719 375.769531 289.460938 375.769531 291.363281 C 375.769531 293.140625 377.464844 294.246094 379.136719 294.246094 C 380.984375 294.246094 382.539063 292.917969 382.539063 291.15625 C 382.539063 289.585938 381.484375 288.859375 380.796875 288.390625 Z M 377.632813 286.234375 C 377.496094 286.148438 376.804688 285.613281 376.804688 284.800781 C 376.804688 283.746094 377.894531 282.953125 379.136719 282.953125 C 380.503906 282.953125 381.503906 283.921875 381.503906 285.042969 C 381.503906 286.648438 379.707031 287.5625 379.621094 287.5625 C 379.601563 287.5625 379.585938 287.5625 379.449219 287.460938 Z M 380.8125 289.773438 C 381.070313 289.964844 381.898438 290.535156 381.898438 291.585938 C 381.898438 292.867188 380.621094 293.832031 379.171875 293.832031 C 377.601563 293.832031 376.410156 292.710938 376.410156 291.34375 C 376.410156 289.980469 377.464844 288.839844 378.652344 288.304688 L 380.8125 289.773438 "
       style=" stroke:none;fill-rule:nonzero;fill:rgb(0%,0%,0%);fill-opacity:1;" />
    <path
       id="path38"
       d="M 420.976563 288.859375 C 420.976563 292.65625 419.40625 293.832031 418.113281 293.832031 C 417.714844 293.832031 416.746094 293.78125 416.351563 293.105469 C 416.800781 293.175781 417.128906 292.933594 417.128906 292.503906 C 417.128906 292.035156 416.746094 291.882813 416.507813 291.882813 C 416.351563 291.882813 415.882813 291.949219 415.882813 292.539063 C 415.882813 293.710938 416.902344 294.246094 418.148438 294.246094 C 420.132813 294.246094 422.152344 292.070313 422.152344 288.273438 C 422.152344 283.539063 420.21875 282.554688 418.90625 282.554688 C 417.195313 282.554688 415.554688 284.058594 415.554688 286.371094 C 415.554688 288.511719 416.953125 290.101563 418.71875 290.101563 C 420.167969 290.101563 420.804688 288.753906 420.976563 288.183594 Z M 418.753906 289.824219 C 418.285156 289.824219 417.628906 289.738281 417.09375 288.703125 C 416.730469 288.03125 416.730469 287.234375 416.730469 286.390625 C 416.730469 285.371094 416.730469 284.664063 417.214844 283.902344 C 417.457031 283.539063 417.90625 282.953125 418.90625 282.953125 C 420.945313 282.953125 420.945313 286.078125 420.945313 286.769531 C 420.945313 287.996094 420.390625 289.824219 418.753906 289.824219 "
       style=" stroke:none;fill-rule:nonzero;fill:rgb(0%,0%,0%);fill-opacity:1;" />
    <path
       id="path40"
       d="M 455.195313 282.9375 C 455.195313 282.570313 455.175781 282.554688 454.933594 282.554688 C 454.261719 283.367188 453.242188 283.625 452.273438 283.660156 C 452.222656 283.660156 452.136719 283.660156 452.121094 283.695313 C 452.101563 283.730469 452.101563 283.765625 452.101563 284.125 C 452.636719 284.125 453.535156 284.023438 454.226563 283.609375 L 454.226563 292.710938 C 454.226563 293.3125 454.191406 293.523438 452.707031 293.523438 L 452.1875 293.523438 L 452.1875 293.96875 C 453.015625 293.953125 453.882813 293.9375 454.710938 293.9375 C 455.539063 293.9375 456.402344 293.953125 457.230469 293.96875 L 457.230469 293.523438 L 456.714844 293.523438 C 455.226563 293.523438 455.195313 293.332031 455.195313 292.710938 L 455.195313 282.9375 "
       style=" stroke:none;fill-rule:nonzero;fill:rgb(0%,0%,0%);fill-opacity:1;" />
    <path
       id="path42"
       d="M 465.753906 288.425781 C 465.753906 287.375 465.734375 285.578125 465.011719 284.195313 C 464.371094 282.988281 463.351563 282.554688 462.453125 282.554688 C 461.625 282.554688 460.570313 282.9375 459.914063 284.179688 C 459.226563 285.472656 459.15625 287.078125 459.15625 288.425781 C 459.15625 289.410156 459.171875 290.914063 459.710938 292.226563 C 460.453125 294.003906 461.78125 294.246094 462.453125 294.246094 C 463.246094 294.246094 464.457031 293.917969 465.164063 292.277344 C 465.683594 291.085938 465.753906 289.6875 465.753906 288.425781 Z M 462.453125 293.96875 C 461.351563 293.96875 460.695313 293.019531 460.453125 291.707031 C 460.261719 290.6875 460.261719 289.203125 460.261719 288.238281 C 460.261719 286.90625 460.261719 285.800781 460.484375 284.75 C 460.8125 283.28125 461.78125 282.832031 462.453125 282.832031 C 463.164063 282.832031 464.078125 283.296875 464.40625 284.714844 C 464.632813 285.699219 464.648438 286.855469 464.648438 288.238281 C 464.648438 289.359375 464.648438 290.742188 464.441406 291.757813 C 464.078125 293.640625 463.058594 293.96875 462.453125 293.96875 "
       style=" stroke:none;fill-rule:nonzero;fill:rgb(0%,0%,0%);fill-opacity:1;" />
    <path
       id="path44"
       d="M 30.480469 312.097656 C 30.773438 312.097656 31.085938 312.097656 31.085938 311.753906 C 31.085938 311.40625 30.773438 311.40625 30.480469 311.40625 L 21.136719 311.40625 C 20.84375 311.40625 20.53125 311.40625 20.53125 311.753906 C 20.53125 312.097656 20.84375 312.097656 21.136719 312.097656 L 30.480469 312.097656 "
       style=" stroke:none;fill-rule:nonzero;fill:rgb(0%,0%,0%);fill-opacity:1;" />
    <path
       id="path46"
       d="M 39.753906 310.527344 C 39.753906 309.472656 39.734375 307.679688 39.011719 306.296875 C 38.371094 305.085938 37.351563 304.65625 36.453125 304.65625 C 35.625 304.65625 34.570313 305.035156 33.914063 306.277344 C 33.226563 307.574219 33.15625 309.179688 33.15625 310.527344 C 33.15625 311.511719 33.171875 313.015625 33.710938 314.328125 C 34.453125 316.105469 35.78125 316.347656 36.453125 316.347656 C 37.25 316.347656 38.457031 316.019531 39.164063 314.378906 C 39.683594 313.1875 39.753906 311.789063 39.753906 310.527344 Z M 36.453125 316.070313 C 35.351563 316.070313 34.695313 315.121094 34.453125 313.808594 C 34.261719 312.789063 34.261719 311.304688 34.261719 310.335938 C 34.261719 309.007813 34.261719 307.902344 34.484375 306.847656 C 34.8125 305.382813 35.78125 304.929688 36.453125 304.929688 C 37.164063 304.929688 38.078125 305.398438 38.40625 306.8125 C 38.632813 307.796875 38.648438 308.953125 38.648438 310.335938 C 38.648438 311.460938 38.648438 312.839844 38.441406 313.859375 C 38.078125 315.742188 37.058594 316.070313 36.453125 316.070313 "
       style=" stroke:none;fill-rule:nonzero;fill:rgb(0%,0%,0%);fill-opacity:1;" />
    <path
       id="path48"
       d="M 43.578125 315.242188 C 43.578125 314.742188 43.164063 314.394531 42.75 314.394531 C 42.25 314.394531 41.902344 314.808594 41.902344 315.222656 C 41.902344 315.726563 42.316406 316.070313 42.730469 316.070313 C 43.234375 316.070313 43.578125 315.65625 43.578125 315.242188 "
       style=" stroke:none;fill-rule:nonzero;fill:rgb(0%,0%,0%);fill-opacity:1;" />
    <path
       id="path50"
       d="M 52.203125 313.394531 L 51.890625 313.394531 C 51.71875 314.621094 51.578125 314.828125 51.511719 314.929688 C 51.421875 315.070313 50.179688 315.070313 49.9375 315.070313 L 46.625 315.070313 C 47.246094 314.394531 48.453125 313.167969 49.921875 311.753906 C 50.976563 310.75 52.203125 309.578125 52.203125 307.867188 C 52.203125 305.828125 50.578125 304.65625 48.765625 304.65625 C 46.867188 304.65625 45.707031 306.328125 45.707031 307.882813 C 45.707031 308.558594 46.210938 308.644531 46.414063 308.644531 C 46.589844 308.644531 47.105469 308.539063 47.105469 307.9375 C 47.105469 307.402344 46.65625 307.246094 46.414063 307.246094 C 46.3125 307.246094 46.210938 307.261719 46.140625 307.296875 C 46.46875 305.828125 47.46875 305.105469 48.523438 305.105469 C 50.023438 305.105469 51.007813 306.296875 51.007813 307.867188 C 51.007813 309.371094 50.128906 310.664063 49.144531 311.789063 L 45.707031 315.671875 L 45.707031 316.070313 L 51.789063 316.070313 L 52.203125 313.394531 "
       style=" stroke:none;fill-rule:nonzero;fill:rgb(0%,0%,0%);fill-opacity:1;" />
    <path
       id="path52"
       d="M 39.753906 237.125 C 39.753906 236.074219 39.734375 234.277344 39.011719 232.894531 C 38.371094 231.6875 37.351563 231.253906 36.453125 231.253906 C 35.625 231.253906 34.570313 231.636719 33.914063 232.878906 C 33.226563 234.171875 33.15625 235.777344 33.15625 237.125 C 33.15625 238.109375 33.171875 239.613281 33.710938 240.925781 C 34.453125 242.703125 35.78125 242.945313 36.453125 242.945313 C 37.25 242.945313 38.457031 242.617188 39.164063 240.976563 C 39.683594 239.785156 39.753906 238.386719 39.753906 237.125 Z M 36.453125 242.671875 C 35.351563 242.671875 34.695313 241.71875 34.453125 240.40625 C 34.261719 239.390625 34.261719 237.902344 34.261719 236.9375 C 34.261719 235.605469 34.261719 234.5 34.484375 233.449219 C 34.8125 231.980469 35.78125 231.53125 36.453125 231.53125 C 37.164063 231.53125 38.078125 231.996094 38.40625 233.414063 C 38.632813 234.398438 38.648438 235.554688 38.648438 236.9375 C 38.648438 238.058594 38.648438 239.441406 38.441406 240.460938 C 38.078125 242.34375 37.058594 242.671875 36.453125 242.671875 "
       style=" stroke:none;fill-rule:nonzero;fill:rgb(0%,0%,0%);fill-opacity:1;" />
    <path
       id="path54"
       d="M 43.578125 241.839844 C 43.578125 241.339844 43.164063 240.996094 42.75 240.996094 C 42.25 240.996094 41.902344 241.410156 41.902344 241.824219 C 41.902344 242.324219 42.316406 242.671875 42.730469 242.671875 C 43.234375 242.671875 43.578125 242.257813 43.578125 241.839844 "
       style=" stroke:none;fill-rule:nonzero;fill:rgb(0%,0%,0%);fill-opacity:1;" />
    <path
       id="path56"
       d="M 52.203125 239.992188 L 51.890625 239.992188 C 51.71875 241.21875 51.578125 241.425781 51.511719 241.53125 C 51.421875 241.667969 50.179688 241.667969 49.9375 241.667969 L 46.625 241.667969 C 47.246094 240.996094 48.453125 239.769531 49.921875 238.351563 C 50.976563 237.351563 52.203125 236.175781 52.203125 234.46875 C 52.203125 232.429688 50.578125 231.253906 48.765625 231.253906 C 46.867188 231.253906 45.707031 232.929688 45.707031 234.484375 C 45.707031 235.15625 46.210938 235.242188 46.414063 235.242188 C 46.589844 235.242188 47.105469 235.140625 47.105469 234.535156 C 47.105469 234 46.65625 233.84375 46.414063 233.84375 C 46.3125 233.84375 46.210938 233.863281 46.140625 233.898438 C 46.46875 232.429688 47.46875 231.703125 48.523438 231.703125 C 50.023438 231.703125 51.007813 232.894531 51.007813 234.46875 C 51.007813 235.96875 50.128906 237.265625 49.144531 238.386719 L 45.707031 242.273438 L 45.707031 242.671875 L 51.789063 242.671875 L 52.203125 239.992188 "
       style=" stroke:none;fill-rule:nonzero;fill:rgb(0%,0%,0%);fill-opacity:1;" />
    <path
       id="path58"
       d="M 39.753906 200.125 C 39.753906 199.074219 39.734375 197.277344 39.011719 195.894531 C 38.371094 194.6875 37.351563 194.253906 36.453125 194.253906 C 35.625 194.253906 34.570313 194.636719 33.914063 195.878906 C 33.226563 197.171875 33.15625 198.777344 33.15625 200.125 C 33.15625 201.109375 33.171875 202.613281 33.710938 203.925781 C 34.453125 205.703125 35.78125 205.945313 36.453125 205.945313 C 37.25 205.945313 38.457031 205.617188 39.164063 203.976563 C 39.683594 202.785156 39.753906 201.386719 39.753906 200.125 Z M 36.453125 205.671875 C 35.351563 205.671875 34.695313 204.71875 34.453125 203.40625 C 34.261719 202.390625 34.261719 200.902344 34.261719 199.9375 C 34.261719 198.605469 34.261719 197.5 34.484375 196.449219 C 34.8125 194.980469 35.78125 194.53125 36.453125 194.53125 C 37.164063 194.53125 38.078125 194.996094 38.40625 196.414063 C 38.632813 197.398438 38.648438 198.554688 38.648438 199.9375 C 38.648438 201.058594 38.648438 202.441406 38.441406 203.460938 C 38.078125 205.34375 37.058594 205.671875 36.453125 205.671875 "
       style=" stroke:none;fill-rule:nonzero;fill:rgb(0%,0%,0%);fill-opacity:1;" />
    <path
       id="path60"
       d="M 43.578125 204.839844 C 43.578125 204.339844 43.164063 203.996094 42.75 203.996094 C 42.25 203.996094 41.902344 204.410156 41.902344 204.824219 C 41.902344 205.324219 42.316406 205.671875 42.730469 205.671875 C 43.234375 205.671875 43.578125 205.257813 43.578125 204.839844 "
       style=" stroke:none;fill-rule:nonzero;fill:rgb(0%,0%,0%);fill-opacity:1;" />
    <path
       id="path62"
       d="M 50.804688 194.496094 C 50.804688 194.132813 50.785156 194.117188 50.476563 194.117188 L 45.34375 202.285156 L 45.34375 202.734375 L 49.800781 202.734375 L 49.800781 204.425781 C 49.800781 205.046875 49.765625 205.222656 48.558594 205.222656 L 48.230469 205.222656 L 48.230469 205.671875 C 48.78125 205.636719 49.714844 205.636719 50.300781 205.636719 C 50.890625 205.636719 51.820313 205.636719 52.375 205.671875 L 52.375 205.222656 L 52.046875 205.222656 C 50.835938 205.222656 50.804688 205.046875 50.804688 204.425781 L 50.804688 202.734375 L 52.5625 202.734375 L 52.5625 202.285156 L 50.804688 202.285156 Z M 49.851563 195.636719 L 49.851563 202.285156 L 45.691406 202.285156 Z M 49.851563 195.636719 "
       style=" stroke:none;fill-rule:nonzero;fill:rgb(0%,0%,0%);fill-opacity:1;" />
    <path
       id="path64"
       d="M 39.753906 163.027344 C 39.753906 161.972656 39.734375 160.179688 39.011719 158.796875 C 38.371094 157.585938 37.351563 157.152344 36.453125 157.152344 C 35.625 157.152344 34.570313 157.535156 33.914063 158.777344 C 33.226563 160.074219 33.15625 161.679688 33.15625 163.027344 C 33.15625 164.011719 33.171875 165.515625 33.710938 166.824219 C 34.453125 168.605469 35.78125 168.847656 36.453125 168.847656 C 37.25 168.847656 38.457031 168.519531 39.164063 166.878906 C 39.683594 165.6875 39.753906 164.285156 39.753906 163.027344 Z M 36.453125 168.570313 C 35.351563 168.570313 34.695313 167.621094 34.453125 166.308594 C 34.261719 165.289063 34.261719 163.804688 34.261719 162.835938 C 34.261719 161.507813 34.261719 160.402344 34.484375 159.347656 C 34.8125 157.882813 35.78125 157.429688 36.453125 157.429688 C 37.164063 157.429688 38.078125 157.898438 38.40625 159.3125 C 38.632813 160.296875 38.648438 161.453125 38.648438 162.835938 C 38.648438 163.960938 38.648438 165.339844 38.441406 166.359375 C 38.078125 168.242188 37.058594 168.570313 36.453125 168.570313 "
       style=" stroke:none;fill-rule:nonzero;fill:rgb(0%,0%,0%);fill-opacity:1;" />
    <path
       id="path66"
       d="M 43.578125 167.738281 C 43.578125 167.238281 43.164063 166.894531 42.75 166.894531 C 42.25 166.894531 41.902344 167.308594 41.902344 167.722656 C 41.902344 168.226563 42.316406 168.570313 42.730469 168.570313 C 43.234375 168.570313 43.578125 168.15625 43.578125 167.738281 "
       style=" stroke:none;fill-rule:nonzero;fill:rgb(0%,0%,0%);fill-opacity:1;" />
    <path
       id="path68"
       d="M 46.832031 162.613281 C 46.832031 158.484375 48.765625 157.554688 49.886719 157.554688 C 50.25 157.554688 51.132813 157.621094 51.476563 158.296875 C 51.199219 158.296875 50.679688 158.296875 50.679688 158.898438 C 50.679688 159.363281 51.0625 159.523438 51.304688 159.523438 C 51.460938 159.523438 51.925781 159.449219 51.925781 158.863281 C 51.925781 157.777344 51.0625 157.152344 49.871094 157.152344 C 47.816406 157.152344 45.65625 159.296875 45.65625 163.113281 C 45.65625 167.8125 47.609375 168.847656 48.988281 168.847656 C 50.664063 168.847656 52.253906 167.34375 52.253906 165.027344 C 52.253906 162.871094 50.855469 161.300781 49.09375 161.300781 C 48.039063 161.300781 47.261719 161.988281 46.832031 163.199219 Z M 48.988281 168.433594 C 46.867188 168.433594 46.867188 165.253906 46.867188 164.613281 C 46.867188 163.371094 47.453125 161.574219 49.058594 161.574219 C 49.351563 161.574219 50.199219 161.574219 50.769531 162.765625 C 51.078125 163.441406 51.078125 164.148438 51.078125 165.011719 C 51.078125 165.945313 51.078125 166.636719 50.714844 167.324219 C 50.335938 168.035156 49.785156 168.433594 48.988281 168.433594 "
       style=" stroke:none;fill-rule:nonzero;fill:rgb(0%,0%,0%);fill-opacity:1;" />
    <path
       id="path70"
       d="M 39.753906 125.925781 C 39.753906 124.871094 39.734375 123.078125 39.011719 121.695313 C 38.371094 120.488281 37.351563 120.054688 36.453125 120.054688 C 35.625 120.054688 34.570313 120.4375 33.914063 121.679688 C 33.226563 122.972656 33.15625 124.578125 33.15625 125.925781 C 33.15625 126.910156 33.171875 128.414063 33.710938 129.726563 C 34.453125 131.503906 35.78125 131.746094 36.453125 131.746094 C 37.25 131.746094 38.457031 131.417969 39.164063 129.777344 C 39.683594 128.585938 39.753906 127.1875 39.753906 125.925781 Z M 36.453125 131.46875 C 35.351563 131.46875 34.695313 130.519531 34.453125 129.207031 C 34.261719 128.1875 34.261719 126.703125 34.261719 125.738281 C 34.261719 124.40625 34.261719 123.300781 34.484375 122.246094 C 34.8125 120.78125 35.78125 120.332031 36.453125 120.332031 C 37.164063 120.332031 38.078125 120.796875 38.40625 122.214844 C 38.632813 123.199219 38.648438 124.355469 38.648438 125.738281 C 38.648438 126.859375 38.648438 128.238281 38.441406 129.257813 C 38.078125 131.140625 37.058594 131.46875 36.453125 131.46875 "
       style=" stroke:none;fill-rule:nonzero;fill:rgb(0%,0%,0%);fill-opacity:1;" />
    <path
       id="path72"
       d="M 43.578125 130.640625 C 43.578125 130.140625 43.164063 129.796875 42.75 129.796875 C 42.25 129.796875 41.902344 130.210938 41.902344 130.621094 C 41.902344 131.125 42.316406 131.46875 42.730469 131.46875 C 43.234375 131.46875 43.578125 131.054688 43.578125 130.640625 "
       style=" stroke:none;fill-rule:nonzero;fill:rgb(0%,0%,0%);fill-opacity:1;" />
    <path
       id="path74"
       d="M 49.695313 125.253906 C 50.785156 124.699219 51.890625 123.871094 51.890625 122.542969 C 51.890625 120.96875 50.371094 120.054688 48.972656 120.054688 C 47.398438 120.054688 46.019531 121.195313 46.019531 122.765625 C 46.019531 123.199219 46.121094 123.941406 46.796875 124.597656 C 46.96875 124.769531 47.695313 125.285156 48.160156 125.613281 C 47.382813 126.011719 45.570313 126.960938 45.570313 128.863281 C 45.570313 130.640625 47.261719 131.746094 48.9375 131.746094 C 50.785156 131.746094 52.339844 130.417969 52.339844 128.652344 C 52.339844 127.085938 51.285156 126.355469 50.59375 125.890625 Z M 47.433594 123.734375 C 47.296875 123.648438 46.605469 123.113281 46.605469 122.300781 C 46.605469 121.246094 47.695313 120.453125 48.9375 120.453125 C 50.300781 120.453125 51.304688 121.421875 51.304688 122.542969 C 51.304688 124.148438 49.507813 125.0625 49.421875 125.0625 C 49.402344 125.0625 49.386719 125.0625 49.25 124.960938 Z M 50.613281 127.273438 C 50.871094 127.464844 51.699219 128.035156 51.699219 129.085938 C 51.699219 130.363281 50.421875 131.332031 48.972656 131.332031 C 47.398438 131.332031 46.210938 130.210938 46.210938 128.84375 C 46.210938 127.480469 47.261719 126.339844 48.453125 125.804688 L 50.613281 127.273438 "
       style=" stroke:none;fill-rule:nonzero;fill:rgb(0%,0%,0%);fill-opacity:1;" />
    <path
       id="path76"
       d="M 49.59375 83.4375 C 49.59375 83.070313 49.578125 83.054688 49.335938 83.054688 C 48.660156 83.867188 47.640625 84.125 46.675781 84.160156 C 46.625 84.160156 46.539063 84.160156 46.519531 84.195313 C 46.503906 84.230469 46.503906 84.265625 46.503906 84.625 C 47.039063 84.625 47.9375 84.523438 48.625 84.109375 L 48.625 93.210938 C 48.625 93.8125 48.59375 94.023438 47.105469 94.023438 L 46.589844 94.023438 L 46.589844 94.46875 C 47.417969 94.453125 48.28125 94.4375 49.109375 94.4375 C 49.9375 94.4375 50.804688 94.453125 51.632813 94.46875 L 51.632813 94.023438 L 51.113281 94.023438 C 49.628906 94.023438 49.59375 93.832031 49.59375 93.210938 L 49.59375 83.4375 "
       style=" stroke:none;fill-rule:nonzero;fill:rgb(0%,0%,0%);fill-opacity:1;" />
    <path
       id="path78"
       d="M 37.09375 46.335938 C 37.09375 45.972656 37.078125 45.953125 36.835938 45.953125 C 36.160156 46.765625 35.140625 47.027344 34.175781 47.0625 C 34.125 47.0625 34.039063 47.0625 34.019531 47.09375 C 34.003906 47.128906 34.003906 47.164063 34.003906 47.527344 C 34.539063 47.527344 35.4375 47.421875 36.125 47.007813 L 36.125 56.109375 C 36.125 56.714844 36.09375 56.921875 34.605469 56.921875 L 34.089844 56.921875 L 34.089844 57.371094 C 34.917969 57.351563 35.78125 57.335938 36.609375 57.335938 C 37.4375 57.335938 38.304688 57.351563 39.132813 57.371094 L 39.132813 56.921875 L 38.613281 56.921875 C 37.128906 56.921875 37.09375 56.730469 37.09375 56.109375 L 37.09375 46.335938 "
       style=" stroke:none;fill-rule:nonzero;fill:rgb(0%,0%,0%);fill-opacity:1;" />
    <path
       id="path80"
       d="M 43.578125 56.539063 C 43.578125 56.039063 43.164063 55.695313 42.75 55.695313 C 42.25 55.695313 41.902344 56.109375 41.902344 56.523438 C 41.902344 57.023438 42.316406 57.371094 42.730469 57.371094 C 43.234375 57.371094 43.578125 56.957031 43.578125 56.539063 "
       style=" stroke:none;fill-rule:nonzero;fill:rgb(0%,0%,0%);fill-opacity:1;" />
    <path
       id="path82"
       d="M 52.203125 54.691406 L 51.890625 54.691406 C 51.71875 55.921875 51.578125 56.125 51.511719 56.230469 C 51.421875 56.367188 50.179688 56.367188 49.9375 56.367188 L 46.625 56.367188 C 47.246094 55.695313 48.453125 54.46875 49.921875 53.054688 C 50.976563 52.050781 52.203125 50.875 52.203125 49.167969 C 52.203125 47.128906 50.578125 45.953125 48.765625 45.953125 C 46.867188 45.953125 45.707031 47.628906 45.707031 49.183594 C 45.707031 49.855469 46.210938 49.941406 46.414063 49.941406 C 46.589844 49.941406 47.105469 49.839844 47.105469 49.234375 C 47.105469 48.699219 46.65625 48.546875 46.414063 48.546875 C 46.3125 48.546875 46.210938 48.5625 46.140625 48.597656 C 46.46875 47.128906 47.46875 46.402344 48.523438 46.402344 C 50.023438 46.402344 51.007813 47.59375 51.007813 49.167969 C 51.007813 50.671875 50.128906 51.964844 49.144531 53.085938 L 45.707031 56.972656 L 45.707031 57.371094 L 51.789063 57.371094 L 52.203125 54.691406 "
       style=" stroke:none;fill-rule:nonzero;fill:rgb(0%,0%,0%);fill-opacity:1;" />
    <g
       id="g86"
       clip-rule="nonzero"
       clip-path="url(#clip1)">
      <path
         id="path84"
         transform="matrix(0.1,0,0,-0.1,0,378.47)"
         d="M 616.71875 1042.864062 C 616.71875 1042.864062 616.796875 1043.059375 616.796875 1043.1375 C 616.835938 1043.215625 616.835938 1043.332812 616.875 1043.45 C 616.875 1043.567187 616.953125 1043.7625 616.992188 1044.035937 C 617.03125 1044.23125 617.148438 1044.7 617.226563 1045.16875 C 617.34375 1045.6375 617.539063 1046.535937 617.734375 1047.473437 C 617.929688 1048.45 618.4375 1050.79375 618.710938 1052.082812 C 618.984375 1053.371875 619.453125 1055.403125 619.726563 1056.692187 C 620 1057.942187 620.3125 1059.3875 620.703125 1061.2625 C 621.132813 1063.176562 622.148438 1067.864062 622.695313 1070.403125 C 623.242188 1072.942187 624.140625 1077.004687 624.6875 1079.504687 C 625.234375 1082.04375 625.820313 1084.817187 626.640625 1088.567187 C 627.5 1092.317187 629.53125 1101.575 630.625 1106.535937 C 631.71875 1111.496875 632.929688 1117.004687 634.609375 1124.348437 C 636.25 1131.653125 640.3125 1149.739062 642.539063 1159.348437 C 644.726563 1168.957812 648.28125 1184.23125 650.46875 1193.645312 C 652.695313 1203.059375 656.210938 1217.942187 658.398438 1227.160937 C 660.625 1236.379687 663.046875 1246.614062 666.367188 1259.973437 C 669.648438 1273.332812 677.8125 1306.184375 682.226563 1323.371875 C 686.640625 1340.559375 693.671875 1367.473437 698.085938 1383.840625 C 702.5 1400.246875 709.570313 1425.832812 713.984375 1441.41875 C 718.359375 1457.004687 725.429688 1481.301562 729.84375 1496.10625 C 734.257813 1510.871875 741.328125 1533.957812 745.703125 1547.942187 C 750.117188 1561.926562 755 1577.707812 761.601563 1596.926562 C 768.203125 1616.184375 785.078125 1664.504687 793.359375 1686.614062 C 801.601563 1708.723437 813.4375 1738.059375 821.171875 1756.2625 C 828.867188 1774.465625 841.25 1801.848437 848.984375 1817.825 C 856.71875 1833.801562 869.101563 1857.707812 876.796875 1871.535937 C 884.53125 1885.403125 896.914063 1905.871875 904.648438 1917.66875 C 912.34375 1929.465625 924.726563 1946.73125 932.460938 1956.535937 C 940.195313 1966.379687 952.578125 1980.520312 960.273438 1988.45 C 968.007813 1996.379687 976.523438 2005.754687 988.085938 2013.684375 C 999.6875 2021.614062 1028.28125 2039.895312 1043.75 2045.598437 C 1059.179688 2051.301562 1083.945313 2055.090625 1099.375 2054.973437 C 1114.84375 2054.817187 1139.609375 2049.817187 1155.039063 2044.54375 C 1170.46875 2039.309375 1195.234375 2026.73125 1210.664063 2017.160937 C 1226.132813 2007.590625 1250.898438 1988.684375 1266.328125 1975.520312 C 1281.757813 1962.35625 1306.523438 1938.29375 1321.992188 1922.239062 C 1337.421875 1906.184375 1362.1875 1878.098437 1377.617188 1859.817187 C 1393.046875 1841.535937 1417.8125 1810.442187 1433.28125 1790.598437 C 1448.710938 1770.754687 1473.476563 1737.590625 1488.90625 1716.73125 C 1504.335938 1695.871875 1529.101563 1661.575 1544.570313 1640.207812 C 1560 1618.840625 1584.765625 1584.192187 1600.195313 1562.746875 C 1615.625 1541.340625 1640.390625 1506.965625 1655.859375 1485.910937 C 1671.289063 1464.85625 1696.054688 1431.340625 1711.484375 1410.989062 C 1726.953125 1390.6375 1751.71875 1358.528125 1767.148438 1339.153125 C 1782.578125 1319.739062 1807.34375 1289.465625 1822.773438 1271.2625 C 1838.242188 1253.098437 1863.007813 1224.895312 1878.4375 1208.098437 C 1893.867188 1191.2625 1918.632813 1165.442187 1934.0625 1150.129687 C 1949.53125 1134.85625 1974.296875 1111.535937 1989.726563 1097.825 C 2005.15625 1084.114062 2029.921875 1063.410937 2045.351563 1051.340625 C 2060.820313 1039.270312 2085.585938 1021.223437 2101.015625 1010.79375 C 2116.445313 1000.364062 2141.210938 984.934375 2156.640625 976.10625 C 2172.109375 967.317187 2196.875 954.465625 2212.304688 947.2 C 2227.734375 939.973437 2252.5 929.621875 2267.96875 923.840625 C 2283.398438 918.098437 2308.164063 910.051562 2323.59375 905.715625 C 2339.023438 901.340625 2363.789063 895.520312 2379.257813 892.434375 C 2394.6875 889.3875 2419.453125 885.559375 2434.882813 883.684375 C 2450.3125 881.809375 2475.078125 879.817187 2490.546875 878.996875 C 2505.976563 878.215625 2530.742188 877.785937 2546.171875 877.942187 C 2561.601563 878.059375 2586.367188 879.035937 2601.835938 880.0125 C 2617.265625 880.95 2642.03125 883.1375 2657.460938 884.778125 C 2672.890625 886.41875 2697.695313 889.621875 2713.125 891.848437 C 2728.554688 894.035937 2753.320313 898.059375 2768.75 900.754687 C 2784.21875 903.410937 2808.984375 908.059375 2824.414063 911.067187 C 2839.84375 914.075 2864.609375 919.192187 2880.039063 922.473437 C 2895.507813 925.715625 2920.273438 931.184375 2935.703125 934.582812 C 2951.132813 937.98125 2968.164063 941.8875 2991.328125 947.082812 C 3014.492188 952.317187 3073.28125 965.754687 3102.65625 972.2 C 3131.992188 978.684375 3175 988.020312 3202.8125 993.723437 C 3230.585938 999.426562 3275.15625 1008.176562 3302.96875 1013.176562 C 3330.742188 1018.215625 3375.3125 1025.754687 3403.125 1029.973437 C 3430.9375 1034.192187 3475.507813 1040.364062 3503.28125 1043.723437 C 3531.09375 1047.121875 3575.664063 1051.848437 3603.4375 1054.3875 C 3631.25 1056.926562 3675.820313 1060.285937 3703.59375 1062.004687 C 3731.40625 1063.7625 3775.976563 1065.871875 3803.789063 1066.8875 C 3831.5625 1067.864062 3876.132813 1068.91875 3903.945313 1069.309375 C 3931.71875 1069.7 3976.289063 1069.817187 4004.101563 1069.7 C 4031.875 1069.582812 4076.445313 1068.996875 4104.257813 1068.528125 C 4132.03125 1068.020312 4176.640625 1066.926562 4204.414063 1066.145312 C 4232.226563 1065.403125 4276.796875 1063.957812 4304.609375 1063.020312 C 4332.382813 1062.082812 4376.953125 1060.48125 4404.765625 1059.465625 C 4432.539063 1058.45 4479.84375 1056.692187 4504.921875 1055.754687 C 4529.960938 1054.85625 4585.273438 1052.864062 4585.273438 1052.864062 "
         style="fill:none;stroke-width:15.9404;stroke-linecap:butt;stroke-linejoin:miter;stroke:rgb(0%,61.131287%,50.976563%);stroke-opacity:1;stroke-miterlimit:10;" />
    </g>
    <g
       id="g90"
       clip-rule="nonzero"
       clip-path="url(#clip2)">
      <path
         id="path88"
         transform="matrix(0.1,0,0,-0.1,0,378.47)"
         d="M 616.71875 1042.864062 C 616.71875 1042.864062 616.796875 1042.864062 616.796875 1042.864062 C 616.835938 1042.864062 616.835938 1042.864062 616.875 1042.864062 C 616.875 1042.864062 616.953125 1042.864062 616.992188 1042.864062 C 617.03125 1042.864062 617.148438 1042.864062 617.226563 1042.864062 C 617.34375 1042.864062 617.539063 1042.864062 617.734375 1042.864062 C 617.929688 1042.864062 618.4375 1042.864062 618.710938 1042.903125 C 618.984375 1042.903125 619.453125 1042.903125 619.726563 1042.903125 C 620 1042.942187 620.3125 1042.942187 620.703125 1042.98125 C 621.132813 1042.98125 622.148438 1043.059375 622.695313 1043.098437 C 623.242188 1043.1375 624.140625 1043.215625 624.6875 1043.254687 C 625.234375 1043.29375 625.820313 1043.332812 626.640625 1043.45 C 627.5 1043.567187 629.53125 1043.801562 630.625 1043.996875 C 631.71875 1044.192187 632.929688 1044.348437 634.609375 1044.739062 C 636.25 1045.090625 640.3125 1046.067187 642.539063 1046.692187 C 644.726563 1047.35625 648.28125 1048.528125 650.46875 1049.3875 C 652.695313 1050.207812 656.210938 1051.692187 658.398438 1052.707812 C 660.625 1053.723437 663.046875 1054.778125 666.367188 1056.73125 C 669.648438 1058.684375 677.8125 1063.567187 682.226563 1066.692187 C 686.640625 1069.817187 693.671875 1075.364062 698.085938 1079.114062 C 702.5 1082.903125 709.570313 1089.504687 713.984375 1093.91875 C 718.359375 1098.332812 725.429688 1105.95 729.84375 1110.989062 C 734.257813 1115.989062 741.328125 1124.54375 745.703125 1130.16875 C 750.117188 1135.754687 755 1141.73125 761.601563 1151.340625 C 768.203125 1160.95 785.078125 1186.067187 793.359375 1199.348437 C 801.601563 1212.590625 813.4375 1233.098437 821.171875 1246.965625 C 828.867188 1260.79375 841.25 1284.114062 848.984375 1299.153125 C 856.71875 1314.23125 869.101563 1339.348437 876.796875 1355.442187 C 884.53125 1371.535937 896.914063 1398.215625 904.648438 1415.207812 C 912.34375 1432.2 924.726563 1460.16875 932.460938 1477.942187 C 940.195313 1495.676562 952.578125 1524.778125 960.273438 1543.1375 C 968.007813 1561.535937 976.523438 1581.809375 988.085938 1610.364062 C 999.6875 1638.91875 1028.28125 1710.129687 1043.75 1748.996875 C 1059.179688 1787.864062 1083.945313 1851.2625 1099.375 1890.520312 C 1114.84375 1929.778125 1139.609375 1993.059375 1155.039063 2031.926562 C 1170.46875 2070.754687 1195.234375 2132.825 1210.664063 2170.6375 C 1226.132813 2208.45 1250.898438 2268.254687 1266.328125 2304.465625 C 1281.757813 2340.676562 1306.523438 2397.473437 1321.992188 2431.653125 C 1337.421875 2465.79375 1362.1875 2518.91875 1377.617188 2550.676562 C 1393.046875 2582.395312 1417.8125 2631.379687 1433.28125 2660.442187 C 1448.710938 2689.504687 1473.476563 2733.957812 1488.90625 2760.129687 C 1504.335938 2786.340625 1529.101563 2826.067187 1544.570313 2849.309375 C 1560 2872.5125 1584.765625 2907.395312 1600.195313 2927.629687 C 1615.625 2947.864062 1640.390625 2977.864062 1655.859375 2995.129687 C 1671.289063 3012.395312 1696.054688 3037.629687 1711.484375 3051.965625 C 1726.953125 3066.301562 1751.71875 3086.926562 1767.148438 3098.489062 C 1782.578125 3110.051562 1807.34375 3126.301562 1822.773438 3135.246875 C 1838.242188 3144.153125 1863.007813 3156.301562 1878.4375 3162.785937 C 1893.867188 3169.23125 1918.632813 3177.590625 1934.0625 3181.809375 C 1949.53125 3186.028125 1974.296875 3190.95 1989.726563 3193.098437 C 2005.15625 3195.285937 2029.921875 3197.121875 2045.351563 3197.5125 C 2060.820313 3197.864062 2085.585938 3197.004687 2101.015625 3195.79375 C 2116.445313 3194.582812 2141.210938 3191.340625 2156.640625 3188.801562 C 2172.109375 3186.223437 2196.875 3181.028125 2212.304688 3177.317187 C 2227.734375 3173.645312 2252.5 3166.809375 2267.96875 3162.2 C 2283.398438 3157.629687 2308.164063 3149.504687 2323.59375 3144.23125 C 2339.023438 3138.91875 2363.789063 3129.85625 2379.257813 3124.035937 C 2394.6875 3118.176562 2419.453125 3108.410937 2434.882813 3102.239062 C 2450.3125 3096.067187 2475.078125 3085.871875 2490.546875 3079.54375 C 2505.976563 3073.176562 2530.742188 3062.825 2546.171875 3056.457812 C 2561.601563 3050.051562 2586.367188 3039.778125 2601.835938 3033.45 C 2617.265625 3027.121875 2642.03125 3017.04375 2657.460938 3010.910937 C 2672.890625 3004.778125 2697.695313 2995.090625 2713.125 2989.23125 C 2728.554688 2983.371875 2753.320313 2974.192187 2768.75 2968.645312 C 2784.21875 2963.1375 2808.984375 2954.54375 2824.414063 2949.426562 C 2839.84375 2944.309375 2864.609375 2936.41875 2880.039063 2931.73125 C 2895.507813 2927.082812 2920.273438 2919.934375 2935.703125 2915.715625 C 2951.132813 2911.496875 2968.164063 2906.614062 2991.328125 2901.41875 C 3014.492188 2896.184375 3073.28125 2883.410937 3102.65625 2878.098437 C 3131.992188 2872.746875 3175 2866.457812 3202.8125 2862.98125 C 3230.585938 2859.54375 3275.15625 2855.207812 3302.96875 2853.098437 C 3330.742188 2850.989062 3375.3125 2848.723437 3403.125 2847.785937 C 3430.9375 2846.848437 3475.507813 2846.301562 3503.28125 2846.340625 C 3531.09375 2846.340625 3575.664063 2847.2 3603.4375 2847.98125 C 3631.25 2848.723437 3675.820313 2850.598437 3703.59375 2851.8875 C 3731.40625 2853.215625 3775.976563 2855.754687 3803.789063 2857.395312 C 3831.5625 2859.035937 3876.132813 2861.965625 3903.945313 2863.801562 C 3931.71875 2865.6375 3976.289063 2868.723437 4004.101563 2870.559375 C 4031.875 2872.434375 4076.445313 2875.442187 4104.257813 2877.239062 C 4132.03125 2878.996875 4176.640625 2881.809375 4204.414063 2883.410937 C 4232.226563 2885.051562 4276.796875 2887.5125 4304.609375 2888.91875 C 4332.382813 2890.325 4376.953125 2892.395312 4404.765625 2893.567187 C 4432.539063 2894.739062 4479.84375 2896.457812 4504.921875 2897.278125 C 4529.960938 2898.1375 4585.273438 2899.582812 4585.273438 2899.582812 "
         style="fill:none;stroke-width:15.9404;stroke-linecap:butt;stroke-linejoin:miter;stroke:rgb(85.9375%,2.397156%,31.809998%);stroke-opacity:1;stroke-miterlimit:10;" />
    </g>
    <path
       id="path92"
       d="M 449.273438 260.628906 L 450.859375 260.628906 C 451.1875 260.628906 451.359375 260.628906 451.359375 260.316406 C 451.359375 260.125 451.257813 260.125 450.914063 260.125 L 449.390625 260.125 L 450.03125 257.605469 C 450.101563 257.363281 450.101563 257.328125 450.101563 257.210938 C 450.101563 256.933594 449.875 256.777344 449.652344 256.777344 C 449.511719 256.777344 449.117188 256.828125 448.976563 257.382813 L 448.304688 260.125 L 446.679688 260.125 C 446.335938 260.125 446.179688 260.125 446.179688 260.453125 C 446.179688 260.628906 446.300781 260.628906 446.628906 260.628906 L 448.164063 260.628906 L 447.027344 265.1875 C 446.886719 265.792969 446.835938 265.964844 446.835938 266.1875 C 446.835938 267 447.40625 267.742188 448.371094 267.742188 C 450.117188 267.742188 451.050781 265.222656 451.050781 265.101563 C 451.050781 264.996094 450.980469 264.945313 450.878906 264.945313 C 450.84375 264.945313 450.773438 264.945313 450.738281 265.015625 C 450.722656 265.03125 450.703125 265.046875 450.585938 265.324219 C 450.21875 266.1875 449.425781 267.398438 448.425781 267.398438 C 447.90625 267.398438 447.871094 266.964844 447.871094 266.585938 C 447.871094 266.566406 447.871094 266.238281 447.921875 266.03125 L 449.273438 260.628906 "
       style=" stroke:none;fill-rule:nonzero;fill:rgb(0%,0%,0%);fill-opacity:1;" />
    <path
       id="path94"
       d="M 164.96875 360.574219 L 355.234375 360.574219 L 355.234375 317.59375 L 164.96875 317.59375 Z M 164.96875 360.574219 "
       style=" stroke:none;fill-rule:nonzero;fill:rgb(100%,100%,100%);fill-opacity:1;" />
    <path
       id="path96"
       transform="matrix(0.1,0,0,-0.1,0,378.47)"
       d="M 1687.539063 491.340625 C 1687.539063 491.340625 1748.984375 491.340625 1772.578125 491.340625 C 1796.171875 491.340625 1857.617188 491.340625 1857.617188 491.340625 "
       style="fill:none;stroke-width:15.9404;stroke-linecap:butt;stroke-linejoin:miter;stroke:rgb(0%,61.131287%,50.976563%);stroke-opacity:1;stroke-miterlimit:10;" />
    <path
       id="path98"
       d="M 193.496094 334.46875 L 193.496094 334.015625 C 192.242188 334.015625 192.03125 334.015625 192.03125 333.234375 L 192.03125 323.808594 C 192.03125 323.023438 192.242188 323.023438 193.496094 323.023438 L 193.496094 322.570313 C 192.9375 322.605469 192.050781 322.605469 191.457031 322.605469 C 190.867188 322.605469 189.976563 322.605469 189.417969 322.570313 L 189.417969 323.023438 C 190.671875 323.023438 190.882813 323.023438 190.882813 323.808594 L 190.882813 333.234375 C 190.882813 334.015625 190.671875 334.015625 189.417969 334.015625 L 189.417969 334.46875 C 189.976563 334.4375 190.867188 334.4375 191.457031 334.4375 C 192.050781 334.4375 192.9375 334.4375 193.496094 334.46875 "
       style=" stroke:none;fill-rule:nonzero;fill:rgb(0%,0%,0%);fill-opacity:1;" />
    <path
       id="path100"
       d="M 202.714844 334.46875 L 202.714844 334.015625 C 201.601563 334.015625 201.53125 333.945313 201.53125 333.269531 L 201.53125 329.171875 C 201.53125 328.285156 201.355469 326.839844 199.300781 326.839844 C 197.921875 326.839844 197.210938 327.902344 196.949219 328.597656 L 196.929688 328.597656 L 196.929688 326.839844 L 194.875 327.03125 L 194.875 327.484375 C 195.902344 327.484375 196.058594 327.589844 196.058594 328.425781 L 196.058594 333.269531 C 196.058594 333.929688 195.992188 334.015625 194.875 334.015625 L 194.875 334.46875 C 195.292969 334.4375 196.058594 334.4375 196.511719 334.4375 C 196.964844 334.4375 197.75 334.4375 198.167969 334.46875 L 198.167969 334.015625 C 197.054688 334.015625 196.984375 333.945313 196.984375 333.269531 L 196.984375 329.921875 C 196.984375 328.320313 197.960938 327.117188 199.179688 327.117188 C 200.46875 327.117188 200.605469 328.269531 200.605469 329.105469 L 200.605469 333.269531 C 200.605469 333.929688 200.539063 334.015625 199.421875 334.015625 L 199.421875 334.46875 C 199.839844 334.4375 200.605469 334.4375 201.058594 334.4375 C 201.511719 334.4375 202.296875 334.4375 202.714844 334.46875 "
       style=" stroke:none;fill-rule:nonzero;fill:rgb(0%,0%,0%);fill-opacity:1;" />
    <path
       id="path102"
       d="M 211.546875 334.46875 L 211.546875 334.015625 C 210.515625 334.015625 210.359375 333.914063 210.359375 333.078125 L 210.359375 322.378906 L 208.289063 322.570313 L 208.289063 323.023438 C 209.316406 323.023438 209.472656 323.128906 209.472656 323.964844 L 209.472656 328.042969 C 209.402344 327.953125 208.6875 326.839844 207.277344 326.839844 C 205.5 326.839844 203.773438 328.425781 203.773438 330.726563 C 203.773438 333.007813 205.394531 334.609375 207.101563 334.609375 C 208.582031 334.609375 209.351563 333.460938 209.4375 333.335938 L 209.4375 334.609375 Z M 209.4375 332.378906 C 209.4375 332.902344 209.121094 333.375 208.722656 333.722656 C 208.132813 334.242188 207.539063 334.332031 207.207031 334.332031 C 206.703125 334.332031 204.890625 334.070313 204.890625 330.742188 C 204.890625 327.328125 206.910156 327.117188 207.363281 327.117188 C 208.164063 327.117188 208.808594 327.570313 209.210938 328.199219 C 209.4375 328.5625 209.4375 328.617188 209.4375 328.929688 L 209.4375 332.378906 "
       style=" stroke:none;fill-rule:nonzero;fill:rgb(0%,0%,0%);fill-opacity:1;" />
    <path
       id="path104"
       d="M 220.515625 334.46875 L 220.515625 334.015625 C 219.488281 334.015625 219.328125 333.914063 219.328125 333.078125 L 219.328125 326.839844 L 217.222656 327.03125 L 217.222656 327.484375 C 218.25 327.484375 218.40625 327.589844 218.40625 328.425781 L 218.40625 331.59375 C 218.40625 333.058594 217.621094 334.332031 216.335938 334.332031 C 214.90625 334.332031 214.78125 333.476563 214.78125 332.570313 L 214.78125 326.839844 L 212.675781 327.03125 L 212.675781 327.484375 C 213.371094 327.484375 213.84375 327.484375 213.859375 328.179688 L 213.859375 331.527344 C 213.859375 332.695313 213.859375 333.441406 214.3125 333.929688 C 214.539063 334.15625 214.976563 334.609375 216.230469 334.609375 C 217.710938 334.609375 218.285156 333.355469 218.425781 332.988281 L 218.441406 332.988281 L 218.441406 334.609375 L 220.515625 334.46875 "
       style=" stroke:none;fill-rule:nonzero;fill:rgb(0%,0%,0%);fill-opacity:1;" />
    <path
       id="path106"
       d="M 227.691406 332.414063 C 227.691406 332.34375 227.671875 332.292969 227.550781 332.292969 C 227.429688 332.292969 227.410156 332.308594 227.34375 332.535156 C 226.890625 333.945313 225.894531 334.296875 225.148438 334.296875 C 224.03125 334.296875 222.691406 333.269531 222.691406 330.6875 C 222.691406 328.042969 223.980469 327.082031 225.007813 327.082031 C 225.6875 327.082031 226.695313 327.414063 227.078125 328.371094 C 226.75 328.371094 226.261719 328.371094 226.261719 328.984375 C 226.261719 329.46875 226.664063 329.609375 226.890625 329.609375 C 227.011719 329.609375 227.515625 329.558594 227.515625 328.945313 C 227.515625 327.710938 226.332031 326.769531 224.988281 326.769531 C 223.140625 326.769531 221.574219 328.476563 221.574219 330.707031 C 221.574219 333.023438 223.214844 334.609375 224.988281 334.609375 C 227.148438 334.609375 227.691406 332.605469 227.691406 332.414063 "
       style=" stroke:none;fill-rule:nonzero;fill:rgb(0%,0%,0%);fill-opacity:1;" />
    <path
       id="path108"
       d="M 233.449219 332.308594 L 233.449219 331.316406 L 233.132813 331.316406 L 233.132813 332.292969 C 233.132813 333.496094 232.664063 334.296875 231.933594 334.296875 C 231.429688 334.296875 230.730469 333.945313 230.730469 332.363281 L 230.730469 327.429688 L 233.171875 327.429688 L 233.171875 326.976563 L 230.730469 326.976563 L 230.730469 323.757813 L 230.417969 323.757813 C 230.382813 325.550781 229.773438 327.117188 228.292969 327.152344 L 228.292969 327.429688 L 229.808594 327.429688 L 229.808594 332.328125 C 229.808594 332.65625 229.808594 334.609375 231.828125 334.609375 C 232.855469 334.609375 233.449219 333.597656 233.449219 332.308594 "
       style=" stroke:none;fill-rule:nonzero;fill:rgb(0%,0%,0%);fill-opacity:1;" />
    <path
       id="path110"
       d="M 241.710938 330.742188 C 241.710938 328.511719 240.089844 326.769531 238.1875 326.769531 C 236.289063 326.769531 234.671875 328.511719 234.671875 330.742188 C 234.671875 332.9375 236.289063 334.609375 238.1875 334.609375 C 240.089844 334.609375 241.710938 332.9375 241.710938 330.742188 Z M 240.59375 330.601563 C 240.59375 331.28125 240.558594 332.328125 240.089844 333.164063 C 239.601563 333.964844 238.851563 334.296875 238.1875 334.296875 C 237.371094 334.296875 236.671875 333.808594 236.273438 333.128906 C 235.839844 332.34375 235.785156 331.367188 235.785156 330.601563 C 235.785156 329.871094 235.820313 328.964844 236.273438 328.179688 C 236.621094 327.605469 237.300781 327.046875 238.1875 327.046875 C 238.972656 327.046875 239.636719 327.484375 240.054688 328.09375 C 240.59375 328.914063 240.59375 330.0625 240.59375 330.601563 "
       style=" stroke:none;fill-rule:nonzero;fill:rgb(0%,0%,0%);fill-opacity:1;" />
    <path
       id="path112"
       d="M 248.003906 327.746094 C 248.003906 327.1875 247.445313 326.839844 246.851563 326.839844 C 245.527344 326.839844 244.953125 328.128906 244.777344 328.738281 L 244.761719 328.738281 L 244.761719 326.839844 L 242.742188 327.03125 L 242.742188 327.484375 C 243.769531 327.484375 243.925781 327.589844 243.925781 328.425781 L 243.925781 333.269531 C 243.925781 333.929688 243.855469 334.015625 242.742188 334.015625 L 242.742188 334.46875 C 243.15625 334.4375 243.960938 334.4375 244.414063 334.4375 C 244.917969 334.4375 245.804688 334.4375 246.277344 334.46875 L 246.277344 334.015625 C 245.023438 334.015625 244.8125 334.015625 244.8125 333.234375 L 244.8125 330.359375 C 244.8125 328.6875 245.527344 327.117188 246.835938 327.117188 C 246.957031 327.117188 247.078125 327.136719 247.199219 327.1875 C 247.199219 327.1875 246.816406 327.308594 246.816406 327.761719 C 246.816406 328.179688 247.148438 328.355469 247.410156 328.355469 C 247.617188 328.355469 248.003906 328.234375 248.003906 327.746094 "
       style=" stroke:none;fill-rule:nonzero;fill:rgb(0%,0%,0%);fill-opacity:1;" />
    <path
       id="path114"
       d="M 261.957031 327.429688 L 261.957031 326.976563 L 260.859375 327.015625 C 260.496094 327.015625 259.921875 327.015625 259.570313 326.976563 L 259.570313 327.429688 C 260.007813 327.46875 260.25 327.675781 260.25 328.128906 C 260.25 328.285156 260.25 328.320313 260.148438 328.5625 L 258.230469 333.40625 L 256.15625 328.179688 C 256.050781 327.953125 256.050781 327.921875 256.050781 327.851563 C 256.050781 327.429688 256.628906 327.429688 256.886719 327.429688 L 256.886719 326.976563 C 256.46875 327.015625 255.703125 327.015625 255.269531 327.015625 C 254.796875 327.015625 254.257813 327.015625 253.875 326.976563 L 253.875 327.429688 C 254.535156 327.429688 254.902344 327.429688 255.109375 327.972656 L 257.636719 334.3125 C 257.742188 334.574219 257.757813 334.609375 257.914063 334.609375 C 258.074219 334.609375 258.089844 334.574219 258.195313 334.3125 L 260.511719 328.546875 C 260.667969 328.164063 260.945313 327.46875 261.957031 327.429688 "
       style=" stroke:none;fill-rule:nonzero;fill:rgb(0%,0%,0%);fill-opacity:1;" />
    <path
       id="path116"
       d="M 269.210938 330.742188 C 269.210938 328.511719 267.589844 326.769531 265.6875 326.769531 C 263.789063 326.769531 262.171875 328.511719 262.171875 330.742188 C 262.171875 332.9375 263.789063 334.609375 265.6875 334.609375 C 267.589844 334.609375 269.210938 332.9375 269.210938 330.742188 Z M 268.09375 330.601563 C 268.09375 331.28125 268.058594 332.328125 267.589844 333.164063 C 267.101563 333.964844 266.351563 334.296875 265.6875 334.296875 C 264.871094 334.296875 264.171875 333.808594 263.773438 333.128906 C 263.339844 332.34375 263.285156 331.367188 263.285156 330.601563 C 263.285156 329.871094 263.320313 328.964844 263.773438 328.179688 C 264.121094 327.605469 264.800781 327.046875 265.6875 327.046875 C 266.472656 327.046875 267.136719 327.484375 267.554688 328.09375 C 268.09375 328.914063 268.09375 330.0625 268.09375 330.601563 "
       style=" stroke:none;fill-rule:nonzero;fill:rgb(0%,0%,0%);fill-opacity:1;" />
    <path
       id="path118"
       d="M 273.550781 334.46875 L 273.550781 334.015625 C 272.4375 334.015625 272.367188 333.945313 272.367188 333.269531 L 272.367188 322.378906 L 270.292969 322.570313 L 270.292969 323.023438 C 271.320313 323.023438 271.476563 323.128906 271.476563 323.964844 L 271.476563 333.269531 C 271.476563 333.929688 271.40625 334.015625 270.292969 334.015625 L 270.292969 334.46875 C 270.710938 334.4375 271.476563 334.4375 271.914063 334.4375 C 272.367188 334.4375 273.132813 334.4375 273.550781 334.46875 "
       style=" stroke:none;fill-rule:nonzero;fill:rgb(0%,0%,0%);fill-opacity:1;" />
    <path
       id="path120"
       d="M 279.347656 332.308594 L 279.347656 331.316406 L 279.035156 331.316406 L 279.035156 332.292969 C 279.035156 333.496094 278.5625 334.296875 277.832031 334.296875 C 277.328125 334.296875 276.632813 333.945313 276.632813 332.363281 L 276.632813 327.429688 L 279.070313 327.429688 L 279.070313 326.976563 L 276.632813 326.976563 L 276.632813 323.757813 L 276.316406 323.757813 C 276.28125 325.550781 275.671875 327.117188 274.191406 327.152344 L 274.191406 327.429688 L 275.707031 327.429688 L 275.707031 332.328125 C 275.707031 332.65625 275.707031 334.609375 277.726563 334.609375 C 278.757813 334.609375 279.347656 333.597656 279.347656 332.308594 "
       style=" stroke:none;fill-rule:nonzero;fill:rgb(0%,0%,0%);fill-opacity:1;" />
    <path
       id="path122"
       d="M 288.023438 332.921875 L 288.023438 331.945313 L 287.710938 331.945313 L 287.710938 332.9375 C 287.710938 334 287.238281 334.140625 287.011719 334.140625 C 286.296875 334.140625 286.296875 333.234375 286.296875 332.46875 L 286.296875 329.957031 C 286.296875 328.808594 286.296875 328.199219 285.566406 327.519531 C 284.921875 326.945313 284.171875 326.769531 283.578125 326.769531 C 282.203125 326.769531 281.210938 327.851563 281.210938 329 C 281.210938 329.644531 281.734375 329.679688 281.839844 329.679688 C 282.0625 329.679688 282.464844 329.539063 282.464844 329.050781 C 282.464844 328.617188 282.132813 328.425781 281.839844 328.425781 C 281.769531 328.425781 281.679688 328.441406 281.628906 328.460938 C 281.992188 327.363281 282.9375 327.046875 283.546875 327.046875 C 284.414063 327.046875 285.375 327.816406 285.375 329.277344 L 285.375 330.046875 C 284.347656 330.078125 283.109375 330.21875 282.132813 330.742188 C 281.035156 331.351563 280.722656 332.222656 280.722656 332.882813 C 280.722656 334.226563 282.289063 334.609375 283.214844 334.609375 C 284.171875 334.609375 285.0625 334.070313 285.445313 333.078125 C 285.480469 333.84375 285.96875 334.539063 286.734375 334.539063 C 287.097656 334.539063 288.023438 334.296875 288.023438 332.921875 Z M 285.375 332.046875 C 285.375 333.5625 284.292969 334.332031 283.335938 334.332031 C 282.464844 334.332031 281.785156 333.6875 281.785156 332.882813 C 281.785156 332.363281 282.011719 331.4375 283.023438 330.882813 C 283.859375 330.410156 284.816406 330.339844 285.375 330.304688 L 285.375 332.046875 "
       style=" stroke:none;fill-rule:nonzero;fill:rgb(0%,0%,0%);fill-opacity:1;" />
    <path
       id="path124"
       d="M 296.058594 327.378906 C 296.058594 327.046875 295.796875 326.699219 295.238281 326.699219 C 294.542969 326.699219 293.929688 327.03125 293.445313 327.484375 C 292.921875 327.015625 292.292969 326.839844 291.734375 326.839844 C 290.359375 326.839844 289.175781 327.921875 289.175781 329.367188 C 289.175781 330.359375 289.75 330.984375 289.925781 331.160156 C 289.402344 331.769531 289.402344 332.484375 289.402344 332.570313 C 289.402344 333.023438 289.578125 333.6875 290.167969 334.050781 C 289.261719 334.277344 288.546875 334.976563 288.546875 335.847656 C 288.546875 337.101563 290.203125 338.023438 292.1875 338.023438 C 294.105469 338.023438 295.832031 337.136719 295.832031 335.828125 C 295.832031 333.460938 293.253906 333.460938 291.910156 333.460938 C 291.511719 333.460938 290.796875 333.460938 290.710938 333.441406 C 290.167969 333.355469 289.804688 332.867188 289.804688 332.257813 C 289.804688 332.101563 289.804688 331.71875 290.132813 331.335938 C 290.464844 331.59375 291.039063 331.890625 291.734375 331.890625 C 293.113281 331.890625 294.296875 330.8125 294.296875 329.367188 C 294.296875 328.914063 294.15625 328.214844 293.636719 327.675781 C 294.121094 327.152344 294.839844 326.976563 295.238281 326.976563 C 295.308594 326.976563 295.414063 326.976563 295.5 327.03125 C 295.429688 327.046875 295.273438 327.117188 295.273438 327.398438 C 295.273438 327.625 295.429688 327.78125 295.65625 327.78125 C 295.917969 327.78125 296.058594 327.605469 296.058594 327.378906 Z M 293.269531 329.367188 C 293.269531 329.714844 293.269531 331.59375 291.734375 331.59375 C 290.203125 331.59375 290.203125 329.714844 290.203125 329.367188 C 290.203125 329.015625 290.203125 327.136719 291.734375 327.136719 C 293.269531 327.136719 293.269531 329.015625 293.269531 329.367188 Z M 295.132813 335.847656 C 295.132813 336.804688 293.929688 337.726563 292.1875 337.726563 C 290.445313 337.726563 289.246094 336.804688 289.246094 335.847656 C 289.246094 335.304688 289.542969 334.800781 289.925781 334.523438 C 290.359375 334.226563 290.535156 334.226563 291.71875 334.226563 C 293.148438 334.226563 295.132813 334.226563 295.132813 335.847656 "
       style=" stroke:none;fill-rule:nonzero;fill:rgb(0%,0%,0%);fill-opacity:1;" />
    <path
       id="path126"
       d="M 302.90625 330.097656 C 302.90625 328.320313 301.96875 326.769531 299.980469 326.769531 C 298.132813 326.769531 296.671875 328.53125 296.671875 330.671875 C 296.671875 332.9375 298.324219 334.609375 300.171875 334.609375 C 302.121094 334.609375 302.890625 332.761719 302.890625 332.398438 C 302.890625 332.273438 302.75 332.273438 302.75 332.273438 C 302.628906 332.273438 302.609375 332.308594 302.542969 332.519531 C 302.15625 333.703125 301.199219 334.296875 300.292969 334.296875 C 299.546875 334.296875 298.796875 333.878906 298.324219 333.109375 C 297.785156 332.222656 297.785156 331.195313 297.785156 330.375 L 302.839844 330.375 C 302.90625 330.304688 302.90625 330.273438 302.90625 330.097656 Z M 301.96875 330.113281 L 297.804688 330.113281 C 297.925781 327.605469 299.265625 327.046875 299.964844 327.046875 C 301.148438 327.046875 301.949219 328.164063 301.96875 330.113281 "
       style=" stroke:none;fill-rule:nonzero;fill:rgb(0%,0%,0%);fill-opacity:1;" />
    <path
       id="path128"
       d="M 314.488281 333.46875 C 314.714844 334.4375 315.542969 334.644531 315.957031 334.644531 C 316.507813 334.644531 316.921875 334.28125 317.199219 333.695313 C 317.492188 333.070313 317.71875 332.054688 317.71875 332 C 317.71875 331.914063 317.648438 331.84375 317.546875 331.84375 C 317.390625 331.84375 317.371094 331.929688 317.304688 332.191406 C 316.992188 333.382813 316.683594 334.296875 315.992188 334.296875 C 315.472656 334.296875 315.472656 333.726563 315.472656 333.503906 C 315.472656 333.105469 315.523438 332.933594 315.699219 332.207031 C 315.820313 331.742188 315.9375 331.273438 316.042969 330.792969 L 316.753906 327.976563 C 316.871094 327.546875 316.871094 327.511719 316.871094 327.460938 C 316.871094 327.199219 316.664063 327.027344 316.40625 327.027344 C 315.90625 327.027344 315.785156 327.460938 315.679688 327.890625 C 315.507813 328.5625 314.574219 332.277344 314.453125 332.882813 C 314.4375 332.882813 313.765625 334.296875 312.503906 334.296875 C 311.605469 334.296875 311.433594 333.519531 311.433594 332.882813 C 311.433594 331.898438 311.914063 330.515625 312.363281 329.359375 C 312.570313 328.804688 312.65625 328.582031 312.65625 328.234375 C 312.65625 327.492188 312.121094 326.855469 311.292969 326.855469 C 309.703125 326.855469 309.066406 329.359375 309.066406 329.496094 C 309.066406 329.566406 309.136719 329.652344 309.257813 329.652344 C 309.410156 329.652344 309.429688 329.582031 309.496094 329.339844 C 309.914063 327.855469 310.585938 327.199219 311.242188 327.199219 C 311.414063 327.199219 311.691406 327.21875 311.691406 327.769531 C 311.691406 328.21875 311.503906 328.71875 311.242188 329.375 C 310.484375 331.429688 310.394531 332.085938 310.394531 332.605469 C 310.394531 334.367188 311.726563 334.644531 312.433594 334.644531 C 313.539063 334.644531 314.144531 333.882813 314.488281 333.46875 "
       style=" stroke:none;fill-rule:nonzero;fill:rgb(0%,0%,0%);fill-opacity:1;" />
    <path
       id="path130"
       d="M 322.574219 329.847656 C 322.683594 329.394531 322.71875 329.273438 323.765625 329.273438 C 324.089844 329.273438 324.171875 329.273438 324.171875 329.046875 C 324.171875 328.929688 324.039063 328.929688 323.992188 328.929688 C 323.753906 328.929688 323.480469 328.953125 323.242188 328.953125 L 321.644531 328.953125 C 321.417969 328.953125 321.15625 328.929688 320.929688 328.929688 C 320.835938 328.929688 320.703125 328.929688 320.703125 329.15625 C 320.703125 329.273438 320.8125 329.273438 320.988281 329.273438 C 321.71875 329.273438 321.71875 329.371094 321.71875 329.5 C 321.71875 329.523438 321.71875 329.597656 321.667969 329.773438 L 320.058594 336.1875 C 319.953125 336.605469 319.929688 336.726563 319.09375 336.726563 C 318.867188 336.726563 318.746094 336.726563 318.746094 336.9375 C 318.746094 337.070313 318.820313 337.070313 319.058594 337.070313 L 324.398438 337.070313 C 324.660156 337.070313 324.671875 337.058594 324.757813 336.84375 L 325.671875 334.304688 C 325.699219 334.246094 325.722656 334.171875 325.722656 334.136719 C 325.722656 334.066406 325.664063 334.019531 325.601563 334.019531 C 325.589844 334.019531 325.53125 334.019531 325.507813 334.066406 C 325.484375 334.078125 325.484375 334.101563 325.386719 334.328125 C 325.007813 335.378906 324.46875 336.726563 322.457031 336.726563 L 321.3125 336.726563 C 321.144531 336.726563 321.121094 336.726563 321.046875 336.710938 C 320.917969 336.699219 320.90625 336.675781 320.90625 336.582031 C 320.90625 336.5 320.929688 336.425781 320.953125 336.320313 L 322.574219 329.847656 "
       style=" stroke:none;fill-rule:nonzero;fill:rgb(0%,0%,0%);fill-opacity:1;" />
    <path
       id="path132"
       d="M 333.558594 338.769531 L 333.558594 338.164063 L 331.933594 338.164063 L 331.933594 322.140625 L 333.558594 322.140625 L 333.558594 321.535156 L 331.332031 321.535156 L 331.332031 338.769531 L 333.558594 338.769531 "
       style=" stroke:none;fill-rule:nonzero;fill:rgb(0%,0%,0%);fill-opacity:1;" />
    <path
       id="path134"
       d="M 343.988281 324.265625 C 344.144531 323.882813 344.421875 323.140625 345.578125 323.125 L 345.578125 322.675781 C 345.179688 322.710938 344.730469 322.710938 344.300781 322.710938 C 343.886719 322.710938 343.175781 322.710938 342.78125 322.675781 L 342.78125 323.125 C 343.644531 323.175781 343.679688 323.78125 343.679688 323.882813 C 343.679688 324.074219 343.628906 324.195313 343.574219 324.332031 L 340.171875 333.191406 L 336.617188 323.882813 C 336.5625 323.765625 336.527344 323.675781 336.527344 323.589844 C 336.527344 323.125 337.21875 323.125 337.582031 323.125 L 337.582031 322.675781 C 337.03125 322.710938 336.21875 322.710938 335.648438 322.710938 C 335.199219 322.710938 334.386719 322.710938 333.972656 322.675781 L 333.972656 323.125 C 334.976563 323.125 335.164063 323.195313 335.371094 323.746094 L 339.480469 334.46875 C 339.570313 334.710938 339.585938 334.746094 339.773438 334.746094 C 339.964844 334.746094 339.984375 334.710938 340.070313 334.46875 L 343.988281 324.265625 "
       style=" stroke:none;fill-rule:nonzero;fill:rgb(0%,0%,0%);fill-opacity:1;" />
    <path
       id="path136"
       d="M 348.367188 321.535156 L 346.140625 321.535156 L 346.140625 322.140625 L 347.765625 322.140625 L 347.765625 338.164063 L 346.140625 338.164063 L 346.140625 338.769531 L 348.367188 338.769531 L 348.367188 321.535156 "
       style=" stroke:none;fill-rule:nonzero;fill:rgb(0%,0%,0%);fill-opacity:1;" />
    <path
       id="path138"
       transform="matrix(0.1,0,0,-0.1,0,378.47)"
       d="M 1687.539063 296.379687 C 1687.539063 296.379687 1748.984375 296.379687 1772.578125 296.379687 C 1796.171875 296.379687 1857.617188 296.379687 1857.617188 296.379687 "
       style="fill:none;stroke-width:15.9404;stroke-linecap:butt;stroke-linejoin:miter;stroke:rgb(85.9375%,2.397156%,31.809998%);stroke-opacity:1;stroke-miterlimit:10;" />
    <path
       id="path140"
       d="M 193.496094 353.96875 L 193.496094 353.515625 C 192.242188 353.515625 192.03125 353.515625 192.03125 352.734375 L 192.03125 343.308594 C 192.03125 342.523438 192.242188 342.523438 193.496094 342.523438 L 193.496094 342.070313 C 192.9375 342.105469 192.050781 342.105469 191.457031 342.105469 C 190.867188 342.105469 189.976563 342.105469 189.417969 342.070313 L 189.417969 342.523438 C 190.671875 342.523438 190.882813 342.523438 190.882813 343.308594 L 190.882813 352.734375 C 190.882813 353.515625 190.671875 353.515625 189.417969 353.515625 L 189.417969 353.96875 C 189.976563 353.9375 190.867188 353.9375 191.457031 353.9375 C 192.050781 353.9375 192.9375 353.9375 193.496094 353.96875 "
       style=" stroke:none;fill-rule:nonzero;fill:rgb(0%,0%,0%);fill-opacity:1;" />
    <path
       id="path142"
       d="M 202.714844 353.96875 L 202.714844 353.515625 C 201.601563 353.515625 201.53125 353.445313 201.53125 352.769531 L 201.53125 348.671875 C 201.53125 347.785156 201.355469 346.339844 199.300781 346.339844 C 197.921875 346.339844 197.210938 347.402344 196.949219 348.097656 L 196.929688 348.097656 L 196.929688 346.339844 L 194.875 346.53125 L 194.875 346.984375 C 195.902344 346.984375 196.058594 347.089844 196.058594 347.925781 L 196.058594 352.769531 C 196.058594 353.429688 195.992188 353.515625 194.875 353.515625 L 194.875 353.96875 C 195.292969 353.9375 196.058594 353.9375 196.511719 353.9375 C 196.964844 353.9375 197.75 353.9375 198.167969 353.96875 L 198.167969 353.515625 C 197.054688 353.515625 196.984375 353.445313 196.984375 352.769531 L 196.984375 349.421875 C 196.984375 347.820313 197.960938 346.617188 199.179688 346.617188 C 200.46875 346.617188 200.605469 347.769531 200.605469 348.605469 L 200.605469 352.769531 C 200.605469 353.429688 200.539063 353.515625 199.421875 353.515625 L 199.421875 353.96875 C 199.839844 353.9375 200.605469 353.9375 201.058594 353.9375 C 201.511719 353.9375 202.296875 353.9375 202.714844 353.96875 "
       style=" stroke:none;fill-rule:nonzero;fill:rgb(0%,0%,0%);fill-opacity:1;" />
    <path
       id="path144"
       d="M 211.546875 353.96875 L 211.546875 353.515625 C 210.515625 353.515625 210.359375 353.414063 210.359375 352.578125 L 210.359375 341.878906 L 208.289063 342.070313 L 208.289063 342.523438 C 209.316406 342.523438 209.472656 342.628906 209.472656 343.464844 L 209.472656 347.542969 C 209.402344 347.453125 208.6875 346.339844 207.277344 346.339844 C 205.5 346.339844 203.773438 347.925781 203.773438 350.226563 C 203.773438 352.507813 205.394531 354.109375 207.101563 354.109375 C 208.582031 354.109375 209.351563 352.960938 209.4375 352.835938 L 209.4375 354.109375 Z M 209.4375 351.878906 C 209.4375 352.402344 209.121094 352.875 208.722656 353.222656 C 208.132813 353.742188 207.539063 353.832031 207.207031 353.832031 C 206.703125 353.832031 204.890625 353.570313 204.890625 350.242188 C 204.890625 346.828125 206.910156 346.617188 207.363281 346.617188 C 208.164063 346.617188 208.808594 347.070313 209.210938 347.699219 C 209.4375 348.0625 209.4375 348.117188 209.4375 348.429688 L 209.4375 351.878906 "
       style=" stroke:none;fill-rule:nonzero;fill:rgb(0%,0%,0%);fill-opacity:1;" />
    <path
       id="path146"
       d="M 220.515625 353.96875 L 220.515625 353.515625 C 219.488281 353.515625 219.328125 353.414063 219.328125 352.578125 L 219.328125 346.339844 L 217.222656 346.53125 L 217.222656 346.984375 C 218.25 346.984375 218.40625 347.089844 218.40625 347.925781 L 218.40625 351.09375 C 218.40625 352.558594 217.621094 353.832031 216.335938 353.832031 C 214.90625 353.832031 214.78125 352.976563 214.78125 352.070313 L 214.78125 346.339844 L 212.675781 346.53125 L 212.675781 346.984375 C 213.371094 346.984375 213.84375 346.984375 213.859375 347.679688 L 213.859375 351.027344 C 213.859375 352.195313 213.859375 352.941406 214.3125 353.429688 C 214.539063 353.65625 214.976563 354.109375 216.230469 354.109375 C 217.710938 354.109375 218.285156 352.855469 218.425781 352.488281 L 218.441406 352.488281 L 218.441406 354.109375 L 220.515625 353.96875 "
       style=" stroke:none;fill-rule:nonzero;fill:rgb(0%,0%,0%);fill-opacity:1;" />
    <path
       id="path148"
       d="M 227.691406 351.914063 C 227.691406 351.84375 227.671875 351.792969 227.550781 351.792969 C 227.429688 351.792969 227.410156 351.808594 227.34375 352.035156 C 226.890625 353.445313 225.894531 353.796875 225.148438 353.796875 C 224.03125 353.796875 222.691406 352.769531 222.691406 350.1875 C 222.691406 347.542969 223.980469 346.582031 225.007813 346.582031 C 225.6875 346.582031 226.695313 346.914063 227.078125 347.871094 C 226.75 347.871094 226.261719 347.871094 226.261719 348.484375 C 226.261719 348.96875 226.664063 349.109375 226.890625 349.109375 C 227.011719 349.109375 227.515625 349.058594 227.515625 348.445313 C 227.515625 347.210938 226.332031 346.269531 224.988281 346.269531 C 223.140625 346.269531 221.574219 347.976563 221.574219 350.207031 C 221.574219 352.523438 223.214844 354.109375 224.988281 354.109375 C 227.148438 354.109375 227.691406 352.105469 227.691406 351.914063 "
       style=" stroke:none;fill-rule:nonzero;fill:rgb(0%,0%,0%);fill-opacity:1;" />
    <path
       id="path150"
       d="M 233.449219 351.808594 L 233.449219 350.816406 L 233.132813 350.816406 L 233.132813 351.792969 C 233.132813 352.996094 232.664063 353.796875 231.933594 353.796875 C 231.429688 353.796875 230.730469 353.445313 230.730469 351.863281 L 230.730469 346.929688 L 233.171875 346.929688 L 233.171875 346.476563 L 230.730469 346.476563 L 230.730469 343.257813 L 230.417969 343.257813 C 230.382813 345.050781 229.773438 346.617188 228.292969 346.652344 L 228.292969 346.929688 L 229.808594 346.929688 L 229.808594 351.828125 C 229.808594 352.15625 229.808594 354.109375 231.828125 354.109375 C 232.855469 354.109375 233.449219 353.097656 233.449219 351.808594 "
       style=" stroke:none;fill-rule:nonzero;fill:rgb(0%,0%,0%);fill-opacity:1;" />
    <path
       id="path152"
       d="M 241.710938 350.242188 C 241.710938 348.011719 240.089844 346.269531 238.1875 346.269531 C 236.289063 346.269531 234.671875 348.011719 234.671875 350.242188 C 234.671875 352.4375 236.289063 354.109375 238.1875 354.109375 C 240.089844 354.109375 241.710938 352.4375 241.710938 350.242188 Z M 240.59375 350.101563 C 240.59375 350.78125 240.558594 351.828125 240.089844 352.664063 C 239.601563 353.464844 238.851563 353.796875 238.1875 353.796875 C 237.371094 353.796875 236.671875 353.308594 236.273438 352.628906 C 235.839844 351.84375 235.785156 350.867188 235.785156 350.101563 C 235.785156 349.371094 235.820313 348.464844 236.273438 347.679688 C 236.621094 347.105469 237.300781 346.546875 238.1875 346.546875 C 238.972656 346.546875 239.636719 346.984375 240.054688 347.59375 C 240.59375 348.414063 240.59375 349.5625 240.59375 350.101563 "
       style=" stroke:none;fill-rule:nonzero;fill:rgb(0%,0%,0%);fill-opacity:1;" />
    <path
       id="path154"
       d="M 248.003906 347.246094 C 248.003906 346.6875 247.445313 346.339844 246.851563 346.339844 C 245.527344 346.339844 244.953125 347.628906 244.777344 348.238281 L 244.761719 348.238281 L 244.761719 346.339844 L 242.742188 346.53125 L 242.742188 346.984375 C 243.769531 346.984375 243.925781 347.089844 243.925781 347.925781 L 243.925781 352.769531 C 243.925781 353.429688 243.855469 353.515625 242.742188 353.515625 L 242.742188 353.96875 C 243.15625 353.9375 243.960938 353.9375 244.414063 353.9375 C 244.917969 353.9375 245.804688 353.9375 246.277344 353.96875 L 246.277344 353.515625 C 245.023438 353.515625 244.8125 353.515625 244.8125 352.734375 L 244.8125 349.859375 C 244.8125 348.1875 245.527344 346.617188 246.835938 346.617188 C 246.957031 346.617188 247.078125 346.636719 247.199219 346.6875 C 247.199219 346.6875 246.816406 346.808594 246.816406 347.261719 C 246.816406 347.679688 247.148438 347.855469 247.410156 347.855469 C 247.617188 347.855469 248.003906 347.734375 248.003906 347.246094 "
       style=" stroke:none;fill-rule:nonzero;fill:rgb(0%,0%,0%);fill-opacity:1;" />
    <path
       id="path156"
       d="M 260.390625 351.914063 C 260.390625 351.84375 260.371094 351.792969 260.25 351.792969 C 260.128906 351.792969 260.109375 351.808594 260.042969 352.035156 C 259.589844 353.445313 258.59375 353.796875 257.847656 353.796875 C 256.730469 353.796875 255.390625 352.769531 255.390625 350.1875 C 255.390625 347.542969 256.679688 346.582031 257.707031 346.582031 C 258.386719 346.582031 259.398438 346.914063 259.78125 347.871094 C 259.449219 347.871094 258.960938 347.871094 258.960938 348.484375 C 258.960938 348.96875 259.363281 349.109375 259.589844 349.109375 C 259.710938 349.109375 260.214844 349.058594 260.214844 348.445313 C 260.214844 347.210938 259.03125 346.269531 257.6875 346.269531 C 255.84375 346.269531 254.273438 347.976563 254.273438 350.207031 C 254.273438 352.523438 255.914063 354.109375 257.6875 354.109375 C 259.851563 354.109375 260.390625 352.105469 260.390625 351.914063 "
       style=" stroke:none;fill-rule:nonzero;fill:rgb(0%,0%,0%);fill-opacity:1;" />
    <path
       id="path158"
       d="M 269.117188 353.96875 L 269.117188 353.515625 C 268.089844 353.515625 267.929688 353.414063 267.929688 352.578125 L 267.929688 346.339844 L 265.820313 346.53125 L 265.820313 346.984375 C 266.851563 346.984375 267.007813 347.089844 267.007813 347.925781 L 267.007813 351.09375 C 267.007813 352.558594 266.222656 353.832031 264.933594 353.832031 C 263.503906 353.832031 263.382813 352.976563 263.382813 352.070313 L 263.382813 346.339844 L 261.273438 346.53125 L 261.273438 346.984375 C 261.972656 346.984375 262.441406 346.984375 262.460938 347.679688 L 262.460938 351.027344 C 262.460938 352.195313 262.460938 352.941406 262.914063 353.429688 C 263.140625 353.65625 263.574219 354.109375 264.828125 354.109375 C 266.308594 354.109375 266.882813 352.855469 267.023438 352.488281 L 267.042969 352.488281 L 267.042969 354.109375 L 269.117188 353.96875 "
       style=" stroke:none;fill-rule:nonzero;fill:rgb(0%,0%,0%);fill-opacity:1;" />
    <path
       id="path160"
       d="M 275.503906 347.246094 C 275.503906 346.6875 274.945313 346.339844 274.351563 346.339844 C 273.027344 346.339844 272.453125 347.628906 272.277344 348.238281 L 272.261719 348.238281 L 272.261719 346.339844 L 270.242188 346.53125 L 270.242188 346.984375 C 271.269531 346.984375 271.425781 347.089844 271.425781 347.925781 L 271.425781 352.769531 C 271.425781 353.429688 271.355469 353.515625 270.242188 353.515625 L 270.242188 353.96875 C 270.65625 353.9375 271.460938 353.9375 271.914063 353.9375 C 272.417969 353.9375 273.304688 353.9375 273.777344 353.96875 L 273.777344 353.515625 C 272.523438 353.515625 272.3125 353.515625 272.3125 352.734375 L 272.3125 349.859375 C 272.3125 348.1875 273.027344 346.617188 274.335938 346.617188 C 274.457031 346.617188 274.578125 346.636719 274.699219 346.6875 C 274.699219 346.6875 274.316406 346.808594 274.316406 347.261719 C 274.316406 347.679688 274.648438 347.855469 274.910156 347.855469 C 275.117188 347.855469 275.503906 347.734375 275.503906 347.246094 "
       style=" stroke:none;fill-rule:nonzero;fill:rgb(0%,0%,0%);fill-opacity:1;" />
    <path
       id="path162"
       d="M 281.601563 347.246094 C 281.601563 346.6875 281.042969 346.339844 280.453125 346.339844 C 279.128906 346.339844 278.554688 347.628906 278.378906 348.238281 L 278.359375 348.238281 L 278.359375 346.339844 L 276.339844 346.53125 L 276.339844 346.984375 C 277.367188 346.984375 277.523438 347.089844 277.523438 347.925781 L 277.523438 352.769531 C 277.523438 353.429688 277.453125 353.515625 276.339844 353.515625 L 276.339844 353.96875 C 276.757813 353.9375 277.558594 353.9375 278.011719 353.9375 C 278.515625 353.9375 279.40625 353.9375 279.878906 353.96875 L 279.878906 353.515625 C 278.621094 353.515625 278.414063 353.515625 278.414063 352.734375 L 278.414063 349.859375 C 278.414063 348.1875 279.128906 346.617188 280.433594 346.617188 C 280.554688 346.617188 280.679688 346.636719 280.800781 346.6875 C 280.800781 346.6875 280.417969 346.808594 280.417969 347.261719 C 280.417969 347.679688 280.746094 347.855469 281.007813 347.855469 C 281.21875 347.855469 281.601563 347.734375 281.601563 347.246094 "
       style=" stroke:none;fill-rule:nonzero;fill:rgb(0%,0%,0%);fill-opacity:1;" />
    <path
       id="path164"
       d="M 288.707031 349.597656 C 288.707031 347.820313 287.765625 346.269531 285.78125 346.269531 C 283.933594 346.269531 282.46875 348.03125 282.46875 350.171875 C 282.46875 352.4375 284.125 354.109375 285.972656 354.109375 C 287.921875 354.109375 288.691406 352.261719 288.691406 351.898438 C 288.691406 351.773438 288.550781 351.773438 288.550781 351.773438 C 288.429688 351.773438 288.410156 351.808594 288.34375 352.019531 C 287.957031 353.203125 287 353.796875 286.09375 353.796875 C 285.34375 353.796875 284.59375 353.378906 284.125 352.609375 C 283.585938 351.722656 283.585938 350.695313 283.585938 349.875 L 288.636719 349.875 C 288.707031 349.804688 288.707031 349.773438 288.707031 349.597656 Z M 287.765625 349.613281 L 283.601563 349.613281 C 283.726563 347.105469 285.066406 346.546875 285.761719 346.546875 C 286.949219 346.546875 287.75 347.664063 287.765625 349.613281 "
       style=" stroke:none;fill-rule:nonzero;fill:rgb(0%,0%,0%);fill-opacity:1;" />
    <path
       id="path166"
       d="M 297.515625 353.96875 L 297.515625 353.515625 C 296.398438 353.515625 296.328125 353.445313 296.328125 352.769531 L 296.328125 348.671875 C 296.328125 347.785156 296.15625 346.339844 294.101563 346.339844 C 292.722656 346.339844 292.007813 347.402344 291.746094 348.097656 L 291.730469 348.097656 L 291.730469 346.339844 L 289.675781 346.53125 L 289.675781 346.984375 C 290.703125 346.984375 290.859375 347.089844 290.859375 347.925781 L 290.859375 352.769531 C 290.859375 353.429688 290.789063 353.515625 289.675781 353.515625 L 289.675781 353.96875 C 290.09375 353.9375 290.859375 353.9375 291.3125 353.9375 C 291.765625 353.9375 292.550781 353.9375 292.96875 353.96875 L 292.96875 353.515625 C 291.851563 353.515625 291.78125 353.445313 291.78125 352.769531 L 291.78125 349.421875 C 291.78125 347.820313 292.757813 346.617188 293.976563 346.617188 C 295.265625 346.617188 295.40625 347.769531 295.40625 348.605469 L 295.40625 352.769531 C 295.40625 353.429688 295.339844 353.515625 294.222656 353.515625 L 294.222656 353.96875 C 294.640625 353.9375 295.40625 353.9375 295.859375 353.9375 C 296.3125 353.9375 297.097656 353.9375 297.515625 353.96875 "
       style=" stroke:none;fill-rule:nonzero;fill:rgb(0%,0%,0%);fill-opacity:1;" />
    <path
       id="path168"
       d="M 302.847656 351.808594 L 302.847656 350.816406 L 302.535156 350.816406 L 302.535156 351.792969 C 302.535156 352.996094 302.0625 353.796875 301.332031 353.796875 C 300.828125 353.796875 300.132813 353.445313 300.132813 351.863281 L 300.132813 346.929688 L 302.570313 346.929688 L 302.570313 346.476563 L 300.132813 346.476563 L 300.132813 343.257813 L 299.816406 343.257813 C 299.78125 345.050781 299.171875 346.617188 297.691406 346.652344 L 297.691406 346.929688 L 299.207031 346.929688 L 299.207031 351.828125 C 299.207031 352.15625 299.207031 354.109375 301.226563 354.109375 C 302.257813 354.109375 302.847656 353.097656 302.847656 351.808594 "
       style=" stroke:none;fill-rule:nonzero;fill:rgb(0%,0%,0%);fill-opacity:1;" />
    <path
       id="path170"
       d="M 313.886719 351.5 C 313.886719 351.414063 313.820313 351.34375 313.714844 351.34375 C 313.558594 351.34375 313.542969 351.398438 313.457031 351.691406 C 313.007813 353.261719 312.296875 353.796875 311.726563 353.796875 C 311.523438 353.796875 311.28125 353.746094 311.28125 353.226563 C 311.28125 352.761719 311.488281 352.242188 311.675781 351.726563 L 312.886719 348.511719 C 312.9375 348.375 313.058594 348.0625 313.058594 347.734375 C 313.058594 347.011719 312.539063 346.355469 311.695313 346.355469 C 310.105469 346.355469 309.464844 348.859375 309.464844 348.996094 C 309.464844 349.066406 309.535156 349.152344 309.65625 349.152344 C 309.8125 349.152344 309.828125 349.082031 309.898438 348.839844 C 310.3125 347.390625 310.96875 346.699219 311.640625 346.699219 C 311.796875 346.699219 312.089844 346.71875 312.089844 347.269531 C 312.089844 347.71875 311.867188 348.289063 311.726563 348.667969 L 310.519531 351.882813 C 310.414063 352.15625 310.3125 352.433594 310.3125 352.742188 C 310.3125 353.523438 310.847656 354.144531 311.675781 354.144531 C 313.265625 354.144531 313.886719 351.621094 313.886719 351.5 Z M 313.746094 343.195313 C 313.746094 342.9375 313.542969 342.625 313.164063 342.625 C 312.765625 342.625 312.316406 343.003906 312.316406 343.453125 C 312.316406 343.882813 312.679688 344.023438 312.886719 344.023438 C 313.351563 344.023438 313.746094 343.574219 313.746094 343.195313 "
       style=" stroke:none;fill-rule:nonzero;fill:rgb(0%,0%,0%);fill-opacity:1;" />
    <path
       id="path172"
       d="M 319.074219 349.347656 C 319.183594 348.894531 319.21875 348.773438 320.265625 348.773438 C 320.589844 348.773438 320.671875 348.773438 320.671875 348.546875 C 320.671875 348.429688 320.539063 348.429688 320.492188 348.429688 C 320.253906 348.429688 319.980469 348.453125 319.742188 348.453125 L 318.144531 348.453125 C 317.917969 348.453125 317.65625 348.429688 317.429688 348.429688 C 317.335938 348.429688 317.203125 348.429688 317.203125 348.65625 C 317.203125 348.773438 317.3125 348.773438 317.488281 348.773438 C 318.21875 348.773438 318.21875 348.871094 318.21875 349 C 318.21875 349.023438 318.21875 349.097656 318.167969 349.273438 L 316.558594 355.6875 C 316.453125 356.105469 316.429688 356.226563 315.59375 356.226563 C 315.367188 356.226563 315.246094 356.226563 315.246094 356.4375 C 315.246094 356.570313 315.320313 356.570313 315.558594 356.570313 L 320.898438 356.570313 C 321.160156 356.570313 321.171875 356.558594 321.257813 356.34375 L 322.171875 353.804688 C 322.199219 353.746094 322.222656 353.671875 322.222656 353.636719 C 322.222656 353.566406 322.164063 353.519531 322.101563 353.519531 C 322.089844 353.519531 322.03125 353.519531 322.007813 353.566406 C 321.984375 353.578125 321.984375 353.601563 321.886719 353.828125 C 321.507813 354.878906 320.96875 356.226563 318.957031 356.226563 L 317.8125 356.226563 C 317.644531 356.226563 317.621094 356.226563 317.546875 356.210938 C 317.417969 356.199219 317.40625 356.175781 317.40625 356.082031 C 317.40625 356 317.429688 355.925781 317.453125 355.820313 L 319.074219 349.347656 "
       style=" stroke:none;fill-rule:nonzero;fill:rgb(0%,0%,0%);fill-opacity:1;" />
    <path
       id="path174"
       d="M 330.15625 358.269531 L 330.15625 357.664063 L 328.535156 357.664063 L 328.535156 341.640625 L 330.15625 341.640625 L 330.15625 341.035156 L 327.929688 341.035156 L 327.929688 358.269531 L 330.15625 358.269531 "
       style=" stroke:none;fill-rule:nonzero;fill:rgb(0%,0%,0%);fill-opacity:1;" />
    <path
       id="path176"
       d="M 336.667969 342.039063 C 336.582031 341.8125 336.546875 341.761719 336.375 341.761719 C 336.203125 341.761719 336.167969 341.8125 336.082031 342.039063 L 332.421875 352.398438 C 332.09375 353.332031 331.402344 353.523438 330.796875 353.523438 L 330.796875 353.96875 C 331.109375 353.9375 331.796875 353.9375 332.128906 353.9375 C 332.558594 353.9375 333.25 353.9375 333.664063 353.96875 L 333.664063 353.523438 C 332.851563 353.488281 332.730469 352.933594 332.730469 352.726563 C 332.730469 352.570313 332.765625 352.484375 332.800781 352.382813 L 333.714844 349.808594 L 338.242188 349.808594 L 339.277344 352.742188 C 339.363281 352.953125 339.363281 352.984375 339.363281 353.054688 C 339.363281 353.523438 338.621094 353.523438 338.292969 353.523438 L 338.292969 353.96875 C 338.792969 353.9375 339.691406 353.9375 340.226563 353.9375 C 340.675781 353.9375 341.539063 353.9375 341.953125 353.96875 L 341.953125 353.523438 C 341.039063 353.523438 340.726563 353.523438 340.503906 352.882813 Z M 335.976563 343.417969 L 338.085938 349.359375 L 333.871094 349.359375 Z M 335.976563 343.417969 "
       style=" stroke:none;fill-rule:nonzero;fill:rgb(0%,0%,0%);fill-opacity:1;" />
    <path
       id="path178"
       d="M 344.769531 341.035156 L 342.542969 341.035156 L 342.542969 341.640625 L 344.164063 341.640625 L 344.164063 357.664063 L 342.542969 357.664063 L 342.542969 358.269531 L 344.769531 358.269531 L 344.769531 341.035156 "
       style=" stroke:none;fill-rule:nonzero;fill:rgb(0%,0%,0%);fill-opacity:1;" />
  </g>
</svg>
