<?xml version="1.0" encoding="UTF-8" standalone="no"?>
<svg
   xmlns:dc="http://purl.org/dc/elements/1.1/"
   xmlns:cc="http://creativecommons.org/ns#"
   xmlns:rdf="http://www.w3.org/1999/02/22-rdf-syntax-ns#"
   xmlns:svg="http://www.w3.org/2000/svg"
   xmlns="http://www.w3.org/2000/svg"
   id="svg191"
   version="1.2"
   viewBox="0 0 477.21 378.47"
   height="378.47pt"
   width="477.21pt">
  <metadata
     id="metadata195">
    <rdf:RDF>
      <cc:Work
         rdf:about="">
        <dc:format>image/svg+xml</dc:format>
        <dc:type
           rdf:resource="http://purl.org/dc/dcmitype/StillImage" />
      </cc:Work>
    </rdf:RDF>
  </metadata>
  <defs
     id="defs8">
    <clipPath
       id="clip1">
      <path
         id="path2"
         d="M 61.671875 34 L 458.527344 34 L 458.527344 284 L 61.671875 284 Z M 61.671875 34 " />
    </clipPath>
    <clipPath
       id="clip2">
      <path
         id="path5"
         d="M 61.671875 105 L 458.527344 105 L 458.527344 251 L 61.671875 251 Z M 61.671875 105 " />
    </clipPath>
  </defs>
  <g
     id="surface1">
    <path
       id="path10"
       transform="matrix(0.1,0,0,-0.1,0,378.47)"
       d="M 1013.59375 1619.114062 L 1013.59375 1661.614062 M 1410.46875 1619.114062 L 1410.46875 1661.614062 M 1807.304688 1619.114062 L 1807.304688 1661.614062 M 2204.140625 1619.114062 L 2204.140625 1661.614062 M 2601.015625 1619.114062 L 2601.015625 1661.614062 M 2997.851563 1619.114062 L 2997.851563 1661.614062 M 3394.726563 1619.114062 L 3394.726563 1661.614062 M 3791.5625 1619.114062 L 3791.5625 1661.614062 M 4188.4375 1619.114062 L 4188.4375 1661.614062 M 4585.273438 1619.114062 L 4585.273438 1661.614062 "
       style="fill:none;stroke-width:1.9925;stroke-linecap:butt;stroke-linejoin:miter;stroke:rgb(50%,50%,50%);stroke-opacity:1;stroke-miterlimit:10;" />
    <path
       id="path12"
       transform="matrix(0.1,0,0,-0.1,0,378.47)"
       d="M 595.46875 695.48125 L 638.007813 695.48125 M 595.46875 1010.442187 L 638.007813 1010.442187 M 595.46875 1325.403125 L 638.007813 1325.403125 M 595.46875 1955.325 L 638.007813 1955.325 M 595.46875 2270.285937 L 638.007813 2270.285937 M 595.46875 2585.246875 L 638.007813 2585.246875 M 595.46875 2900.207812 L 638.007813 2900.207812 M 595.46875 3215.16875 L 638.007813 3215.16875 "
       style="fill:none;stroke-width:1.9925;stroke-linecap:butt;stroke-linejoin:miter;stroke:rgb(50%,50%,50%);stroke-opacity:1;stroke-miterlimit:10;" />
    <path
       id="path14"
       transform="matrix(0.1,0,0,-0.1,0,378.47)"
       d="M 616.71875 1640.364062 L 4547.421875 1640.364062 "
       style="fill:none;stroke-width:15.9404;stroke-linecap:butt;stroke-linejoin:miter;stroke:rgb(0%,0%,0%);stroke-opacity:1;stroke-miterlimit:10;" />
    <path
       id="path16"
       d="M 458.527344 214.433594 L 452.472656 211.40625 L 454.742188 214.433594 L 452.472656 217.464844 "
       style=" stroke:none;fill-rule:nonzero;fill:rgb(0%,0%,0%);fill-opacity:1;" />
    <path
       id="path18"
       transform="matrix(0.1,0,0,-0.1,0,378.47)"
       d="M 616.71875 616.73125 L 616.71875 3413.567187 "
       style="fill:none;stroke-width:15.9404;stroke-linecap:butt;stroke-linejoin:miter;stroke:rgb(0%,0%,0%);stroke-opacity:1;stroke-miterlimit:10;" />
    <path
       id="path20"
       d="M 61.671875 33.328125 L 58.644531 39.386719 L 61.671875 37.113281 L 64.703125 39.386719 "
       style=" stroke:none;fill-rule:nonzero;fill:rgb(0%,0%,0%);fill-opacity:1;" />
    <path
       id="path22"
       d="M 101.992188 223.234375 C 101.992188 222.871094 101.976563 222.855469 101.734375 222.855469 C 101.0625 223.667969 100.042969 223.925781 99.074219 223.960938 C 99.023438 223.960938 98.9375 223.960938 98.921875 223.996094 C 98.902344 224.027344 98.902344 224.0625 98.902344 224.425781 C 99.4375 224.425781 100.335938 224.324219 101.027344 223.910156 L 101.027344 233.007813 C 101.027344 233.613281 100.992188 233.820313 99.507813 233.820313 L 98.988281 233.820313 L 98.988281 234.269531 C 99.816406 234.253906 100.679688 234.234375 101.507813 234.234375 C 102.339844 234.234375 103.203125 234.253906 104.03125 234.269531 L 104.03125 233.820313 L 103.515625 233.820313 C 102.027344 233.820313 101.992188 233.632813 101.992188 233.007813 L 101.992188 223.234375 "
       style=" stroke:none;fill-rule:nonzero;fill:rgb(0%,0%,0%);fill-opacity:1;" />
    <path
       id="path24"
       d="M 144.300781 231.59375 L 143.992188 231.59375 C 143.816406 232.820313 143.679688 233.027344 143.609375 233.132813 C 143.523438 233.269531 142.28125 233.269531 142.039063 233.269531 L 138.722656 233.269531 C 139.34375 232.59375 140.554688 231.367188 142.023438 229.953125 C 143.074219 228.949219 144.300781 227.777344 144.300781 226.066406 C 144.300781 224.027344 142.679688 222.855469 140.863281 222.855469 C 138.964844 222.855469 137.808594 224.527344 137.808594 226.085938 C 137.808594 226.757813 138.308594 226.84375 138.515625 226.84375 C 138.6875 226.84375 139.207031 226.738281 139.207031 226.136719 C 139.207031 225.601563 138.757813 225.445313 138.515625 225.445313 C 138.414063 225.445313 138.308594 225.460938 138.238281 225.496094 C 138.566406 224.027344 139.570313 223.304688 140.621094 223.304688 C 142.125 223.304688 143.109375 224.496094 143.109375 226.066406 C 143.109375 227.570313 142.230469 228.863281 141.246094 229.988281 L 137.808594 233.871094 L 137.808594 234.269531 L 143.886719 234.269531 L 144.300781 231.59375 "
       style=" stroke:none;fill-rule:nonzero;fill:rgb(0%,0%,0%);fill-opacity:1;" />
    <path
       id="path26"
       d="M 180.617188 228.398438 C 182.152344 228.398438 182.828125 229.726563 182.828125 231.265625 C 182.828125 233.335938 181.722656 234.132813 180.71875 234.132813 C 179.804688 234.132813 178.320313 233.683594 177.851563 232.351563 C 177.9375 232.386719 178.027344 232.386719 178.113281 232.386719 C 178.527344 232.386719 178.839844 232.109375 178.839844 231.660156 C 178.839844 231.160156 178.457031 230.9375 178.113281 230.9375 C 177.820313 230.9375 177.371094 231.074219 177.371094 231.714844 C 177.371094 233.304688 178.921875 234.546875 180.753906 234.546875 C 182.671875 234.546875 184.140625 233.042969 184.140625 231.28125 C 184.140625 229.605469 182.757813 228.398438 181.117188 228.210938 C 182.429688 227.933594 183.691406 226.757813 183.691406 225.1875 C 183.691406 223.839844 182.328125 222.855469 180.773438 222.855469 C 179.199219 222.855469 177.820313 223.820313 177.820313 225.203125 C 177.820313 225.808594 178.265625 225.910156 178.492188 225.910156 C 178.855469 225.910156 179.164063 225.6875 179.164063 225.238281 C 179.164063 224.789063 178.855469 224.566406 178.492188 224.566406 C 178.421875 224.566406 178.339844 224.566406 178.265625 224.601563 C 178.769531 223.460938 180.132813 223.253906 180.738281 223.253906 C 181.34375 223.253906 182.480469 223.546875 182.480469 225.203125 C 182.480469 225.6875 182.414063 226.550781 181.824219 227.3125 C 181.308594 227.984375 180.71875 228.019531 180.148438 228.070313 C 180.0625 228.070313 179.667969 228.105469 179.597656 228.105469 C 179.476563 228.121094 179.40625 228.140625 179.40625 228.261719 C 179.40625 228.382813 179.425781 228.398438 179.769531 228.398438 L 180.617188 228.398438 "
       style=" stroke:none;fill-rule:nonzero;fill:rgb(0%,0%,0%);fill-opacity:1;" />
    <path
       id="path28"
       d="M 222.304688 223.097656 C 222.304688 222.734375 222.285156 222.71875 221.976563 222.71875 L 216.84375 230.886719 L 216.84375 231.335938 L 221.300781 231.335938 L 221.300781 233.027344 C 221.300781 233.648438 221.265625 233.820313 220.058594 233.820313 L 219.730469 233.820313 L 219.730469 234.269531 C 220.28125 234.234375 221.214844 234.234375 221.800781 234.234375 C 222.390625 234.234375 223.320313 234.234375 223.871094 234.269531 L 223.871094 233.820313 L 223.546875 233.820313 C 222.339844 233.820313 222.304688 233.648438 222.304688 233.027344 L 222.304688 231.335938 L 224.0625 231.335938 L 224.0625 230.886719 L 222.304688 230.886719 Z M 221.351563 224.238281 L 221.351563 230.886719 L 217.191406 230.886719 Z M 221.351563 224.238281 "
       style=" stroke:none;fill-rule:nonzero;fill:rgb(0%,0%,0%);fill-opacity:1;" />
    <path
       id="path30"
       d="M 258.167969 224.167969 C 258.339844 224.238281 259.050781 224.460938 259.773438 224.460938 C 261.382813 224.460938 262.261719 223.597656 262.761719 223.097656 C 262.761719 222.960938 262.761719 222.871094 262.660156 222.871094 C 262.640625 222.871094 262.605469 222.871094 262.46875 222.941406 C 261.863281 223.199219 261.15625 223.40625 260.292969 223.40625 C 259.773438 223.40625 258.996094 223.339844 258.152344 222.960938 C 257.960938 222.871094 257.925781 222.871094 257.910156 222.871094 C 257.824219 222.871094 257.804688 222.890625 257.804688 223.234375 L 257.804688 228.242188 C 257.804688 228.554688 257.804688 228.640625 257.976563 228.640625 C 258.066406 228.640625 258.101563 228.605469 258.1875 228.484375 C 258.738281 227.707031 259.496094 227.378906 260.363281 227.378906 C 260.964844 227.378906 262.261719 227.757813 262.261719 230.710938 C 262.261719 231.265625 262.261719 232.265625 261.742188 233.0625 C 261.3125 233.769531 260.636719 234.132813 259.894531 234.132813 C 258.757813 234.132813 257.597656 233.335938 257.289063 232.007813 C 257.359375 232.023438 257.496094 232.058594 257.5625 232.058594 C 257.789063 232.058594 258.21875 231.9375 258.21875 231.402344 C 258.21875 230.9375 257.890625 230.746094 257.5625 230.746094 C 257.167969 230.746094 256.90625 230.988281 256.90625 231.472656 C 256.90625 232.976563 258.101563 234.546875 259.929688 234.546875 C 261.710938 234.546875 263.402344 233.007813 263.402344 230.78125 C 263.402344 228.710938 262.054688 227.101563 260.378906 227.101563 C 259.496094 227.101563 258.757813 227.429688 258.167969 228.054688 L 258.167969 224.167969 "
       style=" stroke:none;fill-rule:nonzero;fill:rgb(0%,0%,0%);fill-opacity:1;" />
    <path
       id="path32"
       d="M 297.632813 228.3125 C 297.632813 224.183594 299.5625 223.253906 300.6875 223.253906 C 301.050781 223.253906 301.929688 223.320313 302.277344 223.996094 C 302 223.996094 301.480469 223.996094 301.480469 224.601563 C 301.480469 225.066406 301.859375 225.222656 302.101563 225.222656 C 302.257813 225.222656 302.726563 225.152344 302.726563 224.566406 C 302.726563 223.476563 301.859375 222.855469 300.671875 222.855469 C 298.617188 222.855469 296.457031 224.996094 296.457031 228.8125 C 296.457031 233.511719 298.40625 234.546875 299.789063 234.546875 C 301.464844 234.546875 303.054688 233.042969 303.054688 230.730469 C 303.054688 228.570313 301.65625 227 299.890625 227 C 298.839844 227 298.0625 227.691406 297.632813 228.898438 Z M 299.789063 234.132813 C 297.664063 234.132813 297.664063 230.953125 297.664063 230.316406 C 297.664063 229.070313 298.253906 227.277344 299.859375 227.277344 C 300.152344 227.277344 300.996094 227.277344 301.570313 228.46875 C 301.878906 229.140625 301.878906 229.851563 301.878906 230.710938 C 301.878906 231.644531 301.878906 232.335938 301.515625 233.027344 C 301.136719 233.734375 300.585938 234.132813 299.789063 234.132813 "
       style=" stroke:none;fill-rule:nonzero;fill:rgb(0%,0%,0%);fill-opacity:1;" />
    <path
       id="path34"
       d="M 343.289063 223.511719 L 343.289063 223.132813 L 339.230469 223.132813 C 337.210938 223.132813 337.175781 222.90625 337.105469 222.578125 L 336.796875 222.578125 L 336.292969 225.808594 L 336.605469 225.808594 C 336.65625 225.480469 336.777344 224.601563 336.984375 224.273438 C 337.089844 224.132813 338.367188 224.132813 338.660156 224.132813 L 342.460938 224.132813 L 340.542969 226.980469 C 339.265625 228.898438 338.382813 231.488281 338.382813 233.75 C 338.382813 233.960938 338.382813 234.546875 339.007813 234.546875 C 339.628906 234.546875 339.628906 233.960938 339.628906 233.734375 L 339.628906 232.941406 C 339.628906 230.105469 340.109375 228.242188 340.90625 227.050781 L 343.289063 223.511719 "
       style=" stroke:none;fill-rule:nonzero;fill:rgb(0%,0%,0%);fill-opacity:1;" />
    <path
       id="path36"
       d="M 379.898438 228.054688 C 380.984375 227.5 382.089844 226.671875 382.089844 225.34375 C 382.089844 223.769531 380.570313 222.855469 379.171875 222.855469 C 377.601563 222.855469 376.21875 223.996094 376.21875 225.566406 C 376.21875 225.996094 376.320313 226.738281 376.996094 227.398438 C 377.167969 227.570313 377.894531 228.085938 378.359375 228.414063 C 377.582031 228.8125 375.769531 229.761719 375.769531 231.660156 C 375.769531 233.441406 377.464844 234.546875 379.136719 234.546875 C 380.984375 234.546875 382.539063 233.21875 382.539063 231.453125 C 382.539063 229.882813 381.484375 229.15625 380.796875 228.691406 Z M 377.632813 226.535156 C 377.496094 226.445313 376.804688 225.910156 376.804688 225.101563 C 376.804688 224.046875 377.894531 223.253906 379.136719 223.253906 C 380.503906 223.253906 381.503906 224.21875 381.503906 225.34375 C 381.503906 226.949219 379.707031 227.863281 379.621094 227.863281 C 379.601563 227.863281 379.585938 227.863281 379.449219 227.757813 Z M 380.8125 230.074219 C 381.070313 230.265625 381.898438 230.835938 381.898438 231.886719 C 381.898438 233.164063 380.621094 234.132813 379.171875 234.132813 C 377.601563 234.132813 376.410156 233.007813 376.410156 231.644531 C 376.410156 230.28125 377.464844 229.140625 378.652344 228.605469 L 380.8125 230.074219 "
       style=" stroke:none;fill-rule:nonzero;fill:rgb(0%,0%,0%);fill-opacity:1;" />
    <path
       id="path38"
       d="M 420.976563 229.15625 C 420.976563 232.957031 419.40625 234.132813 418.113281 234.132813 C 417.714844 234.132813 416.746094 234.078125 416.351563 233.40625 C 416.800781 233.476563 417.128906 233.234375 417.128906 232.804688 C 417.128906 232.335938 416.746094 232.179688 416.507813 232.179688 C 416.351563 232.179688 415.882813 232.25 415.882813 232.835938 C 415.882813 234.011719 416.902344 234.546875 418.148438 234.546875 C 420.132813 234.546875 422.152344 232.371094 422.152344 228.570313 C 422.152344 223.839844 420.21875 222.855469 418.90625 222.855469 C 417.195313 222.855469 415.554688 224.355469 415.554688 226.671875 C 415.554688 228.8125 416.953125 230.402344 418.71875 230.402344 C 420.167969 230.402344 420.804688 229.054688 420.976563 228.484375 Z M 418.753906 230.125 C 418.285156 230.125 417.628906 230.039063 417.09375 229.003906 C 416.730469 228.328125 416.730469 227.535156 416.730469 226.6875 C 416.730469 225.671875 416.730469 224.960938 417.214844 224.199219 C 417.457031 223.839844 417.90625 223.253906 418.90625 223.253906 C 420.945313 223.253906 420.945313 226.378906 420.945313 227.066406 C 420.945313 228.296875 420.390625 230.125 418.753906 230.125 "
       style=" stroke:none;fill-rule:nonzero;fill:rgb(0%,0%,0%);fill-opacity:1;" />
    <path
       id="path40"
       d="M 455.195313 223.234375 C 455.195313 222.871094 455.175781 222.855469 454.933594 222.855469 C 454.261719 223.667969 453.242188 223.925781 452.273438 223.960938 C 452.222656 223.960938 452.136719 223.960938 452.121094 223.996094 C 452.101563 224.027344 452.101563 224.0625 452.101563 224.425781 C 452.636719 224.425781 453.535156 224.324219 454.226563 223.910156 L 454.226563 233.007813 C 454.226563 233.613281 454.191406 233.820313 452.707031 233.820313 L 452.1875 233.820313 L 452.1875 234.269531 C 453.015625 234.253906 453.882813 234.234375 454.710938 234.234375 C 455.539063 234.234375 456.402344 234.253906 457.230469 234.269531 L 457.230469 233.820313 L 456.714844 233.820313 C 455.226563 233.820313 455.195313 233.632813 455.195313 233.007813 L 455.195313 223.234375 "
       style=" stroke:none;fill-rule:nonzero;fill:rgb(0%,0%,0%);fill-opacity:1;" />
    <path
       id="path42"
       d="M 465.753906 228.726563 C 465.753906 227.671875 465.734375 225.878906 465.011719 224.496094 C 464.371094 223.285156 463.351563 222.855469 462.453125 222.855469 C 461.625 222.855469 460.570313 223.234375 459.914063 224.476563 C 459.226563 225.773438 459.15625 227.378906 459.15625 228.726563 C 459.15625 229.710938 459.171875 231.214844 459.710938 232.527344 C 460.453125 234.304688 461.78125 234.546875 462.453125 234.546875 C 463.246094 234.546875 464.457031 234.21875 465.164063 232.578125 C 465.683594 231.386719 465.753906 229.988281 465.753906 228.726563 Z M 462.453125 234.269531 C 461.351563 234.269531 460.695313 233.320313 460.453125 232.007813 C 460.261719 230.988281 460.261719 229.503906 460.261719 228.535156 C 460.261719 227.207031 460.261719 226.101563 460.484375 225.046875 C 460.8125 223.582031 461.78125 223.132813 462.453125 223.132813 C 463.164063 223.132813 464.078125 223.597656 464.40625 225.015625 C 464.632813 225.996094 464.648438 227.152344 464.648438 228.535156 C 464.648438 229.660156 464.648438 231.039063 464.441406 232.058594 C 464.078125 233.941406 463.058594 234.269531 462.453125 234.269531 "
       style=" stroke:none;fill-rule:nonzero;fill:rgb(0%,0%,0%);fill-opacity:1;" />
    <path
       id="path44"
       d="M 30.480469 309.796875 C 30.773438 309.796875 31.085938 309.796875 31.085938 309.453125 C 31.085938 309.109375 30.773438 309.109375 30.480469 309.109375 L 21.136719 309.109375 C 20.84375 309.109375 20.53125 309.109375 20.53125 309.453125 C 20.53125 309.796875 20.84375 309.796875 21.136719 309.796875 L 30.480469 309.796875 "
       style=" stroke:none;fill-rule:nonzero;fill:rgb(0%,0%,0%);fill-opacity:1;" />
    <path
       id="path46"
       d="M 39.753906 308.226563 C 39.753906 307.171875 39.734375 305.378906 39.011719 303.996094 C 38.371094 302.789063 37.351563 302.355469 36.453125 302.355469 C 35.625 302.355469 34.570313 302.734375 33.914063 303.976563 C 33.226563 305.273438 33.15625 306.878906 33.15625 308.226563 C 33.15625 309.210938 33.171875 310.714844 33.710938 312.027344 C 34.453125 313.804688 35.78125 314.046875 36.453125 314.046875 C 37.25 314.046875 38.457031 313.71875 39.164063 312.078125 C 39.683594 310.886719 39.753906 309.488281 39.753906 308.226563 Z M 36.453125 313.769531 C 35.351563 313.769531 34.695313 312.820313 34.453125 311.507813 C 34.261719 310.488281 34.261719 309.003906 34.261719 308.039063 C 34.261719 306.707031 34.261719 305.601563 34.484375 304.546875 C 34.8125 303.082031 35.78125 302.632813 36.453125 302.632813 C 37.164063 302.632813 38.078125 303.097656 38.40625 304.515625 C 38.632813 305.5 38.648438 306.65625 38.648438 308.039063 C 38.648438 309.160156 38.648438 310.539063 38.441406 311.558594 C 38.078125 313.441406 37.058594 313.769531 36.453125 313.769531 "
       style=" stroke:none;fill-rule:nonzero;fill:rgb(0%,0%,0%);fill-opacity:1;" />
    <path
       id="path48"
       d="M 43.578125 312.941406 C 43.578125 312.441406 43.164063 312.09375 42.75 312.09375 C 42.25 312.09375 41.902344 312.507813 41.902344 312.921875 C 41.902344 313.425781 42.316406 313.769531 42.730469 313.769531 C 43.234375 313.769531 43.578125 313.355469 43.578125 312.941406 "
       style=" stroke:none;fill-rule:nonzero;fill:rgb(0%,0%,0%);fill-opacity:1;" />
    <path
       id="path50"
       d="M 46.832031 307.8125 C 46.832031 303.683594 48.765625 302.753906 49.886719 302.753906 C 50.25 302.753906 51.132813 302.820313 51.476563 303.496094 C 51.199219 303.496094 50.679688 303.496094 50.679688 304.101563 C 50.679688 304.566406 51.0625 304.722656 51.304688 304.722656 C 51.460938 304.722656 51.925781 304.652344 51.925781 304.066406 C 51.925781 302.976563 51.0625 302.355469 49.871094 302.355469 C 47.816406 302.355469 45.65625 304.496094 45.65625 308.3125 C 45.65625 313.011719 47.609375 314.046875 48.988281 314.046875 C 50.664063 314.046875 52.253906 312.542969 52.253906 310.230469 C 52.253906 308.070313 50.855469 306.5 49.09375 306.5 C 48.039063 306.5 47.261719 307.191406 46.832031 308.398438 Z M 48.988281 313.632813 C 46.867188 313.632813 46.867188 310.453125 46.867188 309.816406 C 46.867188 308.570313 47.453125 306.777344 49.058594 306.777344 C 49.351563 306.777344 50.199219 306.777344 50.769531 307.96875 C 51.078125 308.640625 51.078125 309.351563 51.078125 310.210938 C 51.078125 311.144531 51.078125 311.835938 50.714844 312.527344 C 50.335938 313.234375 49.785156 313.632813 48.988281 313.632813 "
       style=" stroke:none;fill-rule:nonzero;fill:rgb(0%,0%,0%);fill-opacity:1;" />
    <path
       id="path52"
       d="M 30.480469 278.296875 C 30.773438 278.296875 31.085938 278.296875 31.085938 277.953125 C 31.085938 277.605469 30.773438 277.605469 30.480469 277.605469 L 21.136719 277.605469 C 20.84375 277.605469 20.53125 277.605469 20.53125 277.953125 C 20.53125 278.296875 20.84375 278.296875 21.136719 278.296875 L 30.480469 278.296875 "
       style=" stroke:none;fill-rule:nonzero;fill:rgb(0%,0%,0%);fill-opacity:1;" />
    <path
       id="path54"
       d="M 39.753906 276.726563 C 39.753906 275.671875 39.734375 273.878906 39.011719 272.496094 C 38.371094 271.285156 37.351563 270.855469 36.453125 270.855469 C 35.625 270.855469 34.570313 271.234375 33.914063 272.476563 C 33.226563 273.773438 33.15625 275.378906 33.15625 276.726563 C 33.15625 277.710938 33.171875 279.214844 33.710938 280.527344 C 34.453125 282.304688 35.78125 282.546875 36.453125 282.546875 C 37.25 282.546875 38.457031 282.21875 39.164063 280.578125 C 39.683594 279.386719 39.753906 277.988281 39.753906 276.726563 Z M 36.453125 282.269531 C 35.351563 282.269531 34.695313 281.320313 34.453125 280.007813 C 34.261719 278.988281 34.261719 277.503906 34.261719 276.535156 C 34.261719 275.207031 34.261719 274.101563 34.484375 273.046875 C 34.8125 271.582031 35.78125 271.132813 36.453125 271.132813 C 37.164063 271.132813 38.078125 271.597656 38.40625 273.015625 C 38.632813 273.996094 38.648438 275.152344 38.648438 276.535156 C 38.648438 277.660156 38.648438 279.039063 38.441406 280.058594 C 38.078125 281.941406 37.058594 282.269531 36.453125 282.269531 "
       style=" stroke:none;fill-rule:nonzero;fill:rgb(0%,0%,0%);fill-opacity:1;" />
    <path
       id="path56"
       d="M 43.578125 281.441406 C 43.578125 280.941406 43.164063 280.59375 42.75 280.59375 C 42.25 280.59375 41.902344 281.007813 41.902344 281.421875 C 41.902344 281.925781 42.316406 282.269531 42.730469 282.269531 C 43.234375 282.269531 43.578125 281.855469 43.578125 281.441406 "
       style=" stroke:none;fill-rule:nonzero;fill:rgb(0%,0%,0%);fill-opacity:1;" />
    <path
       id="path58"
       d="M 50.804688 271.097656 C 50.804688 270.734375 50.785156 270.71875 50.476563 270.71875 L 45.34375 278.886719 L 45.34375 279.335938 L 49.800781 279.335938 L 49.800781 281.027344 C 49.800781 281.648438 49.765625 281.820313 48.558594 281.820313 L 48.230469 281.820313 L 48.230469 282.269531 C 48.78125 282.234375 49.714844 282.234375 50.300781 282.234375 C 50.890625 282.234375 51.820313 282.234375 52.375 282.269531 L 52.375 281.820313 L 52.046875 281.820313 C 50.835938 281.820313 50.804688 281.648438 50.804688 281.027344 L 50.804688 279.335938 L 52.5625 279.335938 L 52.5625 278.886719 L 50.804688 278.886719 Z M 49.851563 272.238281 L 49.851563 278.886719 L 45.691406 278.886719 Z M 49.851563 272.238281 "
       style=" stroke:none;fill-rule:nonzero;fill:rgb(0%,0%,0%);fill-opacity:1;" />
    <path
       id="path60"
       d="M 30.480469 246.796875 C 30.773438 246.796875 31.085938 246.796875 31.085938 246.453125 C 31.085938 246.105469 30.773438 246.105469 30.480469 246.105469 L 21.136719 246.105469 C 20.84375 246.105469 20.53125 246.105469 20.53125 246.453125 C 20.53125 246.796875 20.84375 246.796875 21.136719 246.796875 L 30.480469 246.796875 "
       style=" stroke:none;fill-rule:nonzero;fill:rgb(0%,0%,0%);fill-opacity:1;" />
    <path
       id="path62"
       d="M 39.753906 245.226563 C 39.753906 244.171875 39.734375 242.378906 39.011719 240.996094 C 38.371094 239.785156 37.351563 239.355469 36.453125 239.355469 C 35.625 239.355469 34.570313 239.734375 33.914063 240.976563 C 33.226563 242.273438 33.15625 243.878906 33.15625 245.226563 C 33.15625 246.210938 33.171875 247.714844 33.710938 249.027344 C 34.453125 250.804688 35.78125 251.046875 36.453125 251.046875 C 37.25 251.046875 38.457031 250.71875 39.164063 249.078125 C 39.683594 247.886719 39.753906 246.488281 39.753906 245.226563 Z M 36.453125 250.769531 C 35.351563 250.769531 34.695313 249.820313 34.453125 248.507813 C 34.261719 247.488281 34.261719 246.003906 34.261719 245.035156 C 34.261719 243.707031 34.261719 242.601563 34.484375 241.546875 C 34.8125 240.082031 35.78125 239.632813 36.453125 239.632813 C 37.164063 239.632813 38.078125 240.097656 38.40625 241.515625 C 38.632813 242.496094 38.648438 243.652344 38.648438 245.035156 C 38.648438 246.160156 38.648438 247.539063 38.441406 248.558594 C 38.078125 250.441406 37.058594 250.769531 36.453125 250.769531 "
       style=" stroke:none;fill-rule:nonzero;fill:rgb(0%,0%,0%);fill-opacity:1;" />
    <path
       id="path64"
       d="M 43.578125 249.941406 C 43.578125 249.441406 43.164063 249.09375 42.75 249.09375 C 42.25 249.09375 41.902344 249.507813 41.902344 249.921875 C 41.902344 250.425781 42.316406 250.769531 42.730469 250.769531 C 43.234375 250.769531 43.578125 250.355469 43.578125 249.941406 "
       style=" stroke:none;fill-rule:nonzero;fill:rgb(0%,0%,0%);fill-opacity:1;" />
    <path
       id="path66"
       d="M 52.203125 248.09375 L 51.890625 248.09375 C 51.71875 249.320313 51.578125 249.527344 51.511719 249.632813 C 51.421875 249.769531 50.179688 249.769531 49.9375 249.769531 L 46.625 249.769531 C 47.246094 249.09375 48.453125 247.867188 49.921875 246.453125 C 50.976563 245.449219 52.203125 244.277344 52.203125 242.566406 C 52.203125 240.527344 50.578125 239.355469 48.765625 239.355469 C 46.867188 239.355469 45.707031 241.027344 45.707031 242.585938 C 45.707031 243.257813 46.210938 243.34375 46.414063 243.34375 C 46.589844 243.34375 47.105469 243.238281 47.105469 242.636719 C 47.105469 242.101563 46.65625 241.945313 46.414063 241.945313 C 46.3125 241.945313 46.210938 241.960938 46.140625 241.996094 C 46.46875 240.527344 47.46875 239.804688 48.523438 239.804688 C 50.023438 239.804688 51.007813 240.996094 51.007813 242.566406 C 51.007813 244.070313 50.128906 245.363281 49.144531 246.488281 L 45.707031 250.371094 L 45.707031 250.769531 L 51.789063 250.769531 L 52.203125 248.09375 "
       style=" stroke:none;fill-rule:nonzero;fill:rgb(0%,0%,0%);fill-opacity:1;" />
    <path
       id="path68"
       d="M 39.753906 182.925781 C 39.753906 181.871094 39.734375 180.078125 39.011719 178.695313 C 38.371094 177.488281 37.351563 177.054688 36.453125 177.054688 C 35.625 177.054688 34.570313 177.4375 33.914063 178.679688 C 33.226563 179.972656 33.15625 181.578125 33.15625 182.925781 C 33.15625 183.910156 33.171875 185.414063 33.710938 186.726563 C 34.453125 188.503906 35.78125 188.746094 36.453125 188.746094 C 37.25 188.746094 38.457031 188.417969 39.164063 186.777344 C 39.683594 185.585938 39.753906 184.1875 39.753906 182.925781 Z M 36.453125 188.46875 C 35.351563 188.46875 34.695313 187.519531 34.453125 186.207031 C 34.261719 185.1875 34.261719 183.703125 34.261719 182.738281 C 34.261719 181.40625 34.261719 180.300781 34.484375 179.246094 C 34.8125 177.78125 35.78125 177.332031 36.453125 177.332031 C 37.164063 177.332031 38.078125 177.796875 38.40625 179.214844 C 38.632813 180.199219 38.648438 181.355469 38.648438 182.738281 C 38.648438 183.859375 38.648438 185.238281 38.441406 186.257813 C 38.078125 188.140625 37.058594 188.46875 36.453125 188.46875 "
       style=" stroke:none;fill-rule:nonzero;fill:rgb(0%,0%,0%);fill-opacity:1;" />
    <path
       id="path70"
       d="M 43.578125 187.640625 C 43.578125 187.140625 43.164063 186.796875 42.75 186.796875 C 42.25 186.796875 41.902344 187.210938 41.902344 187.621094 C 41.902344 188.125 42.316406 188.46875 42.730469 188.46875 C 43.234375 188.46875 43.578125 188.054688 43.578125 187.640625 "
       style=" stroke:none;fill-rule:nonzero;fill:rgb(0%,0%,0%);fill-opacity:1;" />
    <path
       id="path72"
       d="M 52.203125 185.792969 L 51.890625 185.792969 C 51.71875 187.019531 51.578125 187.226563 51.511719 187.332031 C 51.421875 187.46875 50.179688 187.46875 49.9375 187.46875 L 46.625 187.46875 C 47.246094 186.796875 48.453125 185.566406 49.921875 184.152344 C 50.976563 183.152344 52.203125 181.976563 52.203125 180.265625 C 52.203125 178.230469 50.578125 177.054688 48.765625 177.054688 C 46.867188 177.054688 45.707031 178.730469 45.707031 180.285156 C 45.707031 180.957031 46.210938 181.042969 46.414063 181.042969 C 46.589844 181.042969 47.105469 180.941406 47.105469 180.335938 C 47.105469 179.800781 46.65625 179.644531 46.414063 179.644531 C 46.3125 179.644531 46.210938 179.660156 46.140625 179.695313 C 46.46875 178.230469 47.46875 177.503906 48.523438 177.503906 C 50.023438 177.503906 51.007813 178.695313 51.007813 180.265625 C 51.007813 181.769531 50.128906 183.066406 49.144531 184.1875 L 45.707031 188.074219 L 45.707031 188.46875 L 51.789063 188.46875 L 52.203125 185.792969 "
       style=" stroke:none;fill-rule:nonzero;fill:rgb(0%,0%,0%);fill-opacity:1;" />
    <path
       id="path74"
       d="M 39.753906 151.425781 C 39.753906 150.371094 39.734375 148.578125 39.011719 147.195313 C 38.371094 145.988281 37.351563 145.554688 36.453125 145.554688 C 35.625 145.554688 34.570313 145.9375 33.914063 147.179688 C 33.226563 148.472656 33.15625 150.078125 33.15625 151.425781 C 33.15625 152.410156 33.171875 153.914063 33.710938 155.226563 C 34.453125 157.003906 35.78125 157.246094 36.453125 157.246094 C 37.25 157.246094 38.457031 156.917969 39.164063 155.277344 C 39.683594 154.085938 39.753906 152.6875 39.753906 151.425781 Z M 36.453125 156.96875 C 35.351563 156.96875 34.695313 156.019531 34.453125 154.707031 C 34.261719 153.6875 34.261719 152.203125 34.261719 151.238281 C 34.261719 149.90625 34.261719 148.800781 34.484375 147.746094 C 34.8125 146.28125 35.78125 145.832031 36.453125 145.832031 C 37.164063 145.832031 38.078125 146.296875 38.40625 147.714844 C 38.632813 148.699219 38.648438 149.855469 38.648438 151.238281 C 38.648438 152.359375 38.648438 153.738281 38.441406 154.757813 C 38.078125 156.640625 37.058594 156.96875 36.453125 156.96875 "
       style=" stroke:none;fill-rule:nonzero;fill:rgb(0%,0%,0%);fill-opacity:1;" />
    <path
       id="path76"
       d="M 43.578125 156.140625 C 43.578125 155.640625 43.164063 155.296875 42.75 155.296875 C 42.25 155.296875 41.902344 155.710938 41.902344 156.121094 C 41.902344 156.625 42.316406 156.96875 42.730469 156.96875 C 43.234375 156.96875 43.578125 156.554688 43.578125 156.140625 "
       style=" stroke:none;fill-rule:nonzero;fill:rgb(0%,0%,0%);fill-opacity:1;" />
    <path
       id="path78"
       d="M 50.804688 145.796875 C 50.804688 145.433594 50.785156 145.417969 50.476563 145.417969 L 45.34375 153.585938 L 45.34375 154.035156 L 49.800781 154.035156 L 49.800781 155.726563 C 49.800781 156.347656 49.765625 156.523438 48.558594 156.523438 L 48.230469 156.523438 L 48.230469 156.96875 C 48.78125 156.9375 49.714844 156.9375 50.300781 156.9375 C 50.890625 156.9375 51.820313 156.9375 52.375 156.96875 L 52.375 156.523438 L 52.046875 156.523438 C 50.835938 156.523438 50.804688 156.347656 50.804688 155.726563 L 50.804688 154.035156 L 52.5625 154.035156 L 52.5625 153.585938 L 50.804688 153.585938 Z M 49.851563 146.9375 L 49.851563 153.585938 L 45.691406 153.585938 Z M 49.851563 146.9375 "
       style=" stroke:none;fill-rule:nonzero;fill:rgb(0%,0%,0%);fill-opacity:1;" />
    <path
       id="path80"
       d="M 39.753906 119.925781 C 39.753906 118.871094 39.734375 117.078125 39.011719 115.695313 C 38.371094 114.488281 37.351563 114.054688 36.453125 114.054688 C 35.625 114.054688 34.570313 114.4375 33.914063 115.679688 C 33.226563 116.972656 33.15625 118.578125 33.15625 119.925781 C 33.15625 120.910156 33.171875 122.414063 33.710938 123.726563 C 34.453125 125.503906 35.78125 125.746094 36.453125 125.746094 C 37.25 125.746094 38.457031 125.417969 39.164063 123.777344 C 39.683594 122.585938 39.753906 121.1875 39.753906 119.925781 Z M 36.453125 125.46875 C 35.351563 125.46875 34.695313 124.519531 34.453125 123.207031 C 34.261719 122.1875 34.261719 120.703125 34.261719 119.738281 C 34.261719 118.40625 34.261719 117.300781 34.484375 116.246094 C 34.8125 114.78125 35.78125 114.332031 36.453125 114.332031 C 37.164063 114.332031 38.078125 114.796875 38.40625 116.214844 C 38.632813 117.199219 38.648438 118.355469 38.648438 119.738281 C 38.648438 120.859375 38.648438 122.238281 38.441406 123.257813 C 38.078125 125.140625 37.058594 125.46875 36.453125 125.46875 "
       style=" stroke:none;fill-rule:nonzero;fill:rgb(0%,0%,0%);fill-opacity:1;" />
    <path
       id="path82"
       d="M 43.578125 124.640625 C 43.578125 124.140625 43.164063 123.796875 42.75 123.796875 C 42.25 123.796875 41.902344 124.210938 41.902344 124.621094 C 41.902344 125.125 42.316406 125.46875 42.730469 125.46875 C 43.234375 125.46875 43.578125 125.054688 43.578125 124.640625 "
       style=" stroke:none;fill-rule:nonzero;fill:rgb(0%,0%,0%);fill-opacity:1;" />
    <path
       id="path84"
       d="M 46.832031 119.511719 C 46.832031 115.382813 48.765625 114.453125 49.886719 114.453125 C 50.25 114.453125 51.132813 114.523438 51.476563 115.195313 C 51.199219 115.195313 50.679688 115.195313 50.679688 115.800781 C 50.679688 116.265625 51.0625 116.421875 51.304688 116.421875 C 51.460938 116.421875 51.925781 116.351563 51.925781 115.765625 C 51.925781 114.675781 51.0625 114.054688 49.871094 114.054688 C 47.816406 114.054688 45.65625 116.195313 45.65625 120.011719 C 45.65625 124.710938 47.609375 125.746094 48.988281 125.746094 C 50.664063 125.746094 52.253906 124.242188 52.253906 121.929688 C 52.253906 119.773438 50.855469 118.199219 49.09375 118.199219 C 48.039063 118.199219 47.261719 118.890625 46.832031 120.101563 Z M 48.988281 125.332031 C 46.867188 125.332031 46.867188 122.152344 46.867188 121.515625 C 46.867188 120.273438 47.453125 118.476563 49.058594 118.476563 C 49.351563 118.476563 50.199219 118.476563 50.769531 119.667969 C 51.078125 120.339844 51.078125 121.050781 51.078125 121.910156 C 51.078125 122.84375 51.078125 123.535156 50.714844 124.226563 C 50.335938 124.933594 49.785156 125.332031 48.988281 125.332031 "
       style=" stroke:none;fill-rule:nonzero;fill:rgb(0%,0%,0%);fill-opacity:1;" />
    <path
       id="path86"
       d="M 39.753906 88.425781 C 39.753906 87.371094 39.734375 85.578125 39.011719 84.195313 C 38.371094 82.988281 37.351563 82.554688 36.453125 82.554688 C 35.625 82.554688 34.570313 82.9375 33.914063 84.179688 C 33.226563 85.472656 33.15625 87.078125 33.15625 88.425781 C 33.15625 89.410156 33.171875 90.914063 33.710938 92.226563 C 34.453125 94.003906 35.78125 94.246094 36.453125 94.246094 C 37.25 94.246094 38.457031 93.917969 39.164063 92.277344 C 39.683594 91.085938 39.753906 89.6875 39.753906 88.425781 Z M 36.453125 93.96875 C 35.351563 93.96875 34.695313 93.019531 34.453125 91.707031 C 34.261719 90.6875 34.261719 89.203125 34.261719 88.238281 C 34.261719 86.90625 34.261719 85.800781 34.484375 84.746094 C 34.8125 83.28125 35.78125 82.832031 36.453125 82.832031 C 37.164063 82.832031 38.078125 83.296875 38.40625 84.714844 C 38.632813 85.699219 38.648438 86.855469 38.648438 88.238281 C 38.648438 89.359375 38.648438 90.738281 38.441406 91.757813 C 38.078125 93.640625 37.058594 93.96875 36.453125 93.96875 "
       style=" stroke:none;fill-rule:nonzero;fill:rgb(0%,0%,0%);fill-opacity:1;" />
    <path
       id="path88"
       d="M 43.578125 93.140625 C 43.578125 92.640625 43.164063 92.296875 42.75 92.296875 C 42.25 92.296875 41.902344 92.710938 41.902344 93.121094 C 41.902344 93.625 42.316406 93.96875 42.730469 93.96875 C 43.234375 93.96875 43.578125 93.554688 43.578125 93.140625 "
       style=" stroke:none;fill-rule:nonzero;fill:rgb(0%,0%,0%);fill-opacity:1;" />
    <path
       id="path90"
       d="M 49.695313 87.753906 C 50.785156 87.199219 51.890625 86.371094 51.890625 85.042969 C 51.890625 83.46875 50.371094 82.554688 48.972656 82.554688 C 47.398438 82.554688 46.019531 83.695313 46.019531 85.265625 C 46.019531 85.699219 46.121094 86.441406 46.796875 87.097656 C 46.96875 87.269531 47.695313 87.785156 48.160156 88.113281 C 47.382813 88.511719 45.570313 89.460938 45.570313 91.363281 C 45.570313 93.140625 47.261719 94.246094 48.9375 94.246094 C 50.785156 94.246094 52.339844 92.917969 52.339844 91.152344 C 52.339844 89.585938 51.285156 88.855469 50.59375 88.390625 Z M 47.433594 86.234375 C 47.296875 86.148438 46.605469 85.613281 46.605469 84.800781 C 46.605469 83.746094 47.695313 82.953125 48.9375 82.953125 C 50.300781 82.953125 51.304688 83.921875 51.304688 85.042969 C 51.304688 86.648438 49.507813 87.5625 49.421875 87.5625 C 49.402344 87.5625 49.386719 87.5625 49.25 87.460938 Z M 50.613281 89.773438 C 50.871094 89.964844 51.699219 90.535156 51.699219 91.585938 C 51.699219 92.863281 50.421875 93.832031 48.972656 93.832031 C 47.398438 93.832031 46.210938 92.710938 46.210938 91.34375 C 46.210938 89.980469 47.261719 88.839844 48.453125 88.304688 L 50.613281 89.773438 "
       style=" stroke:none;fill-rule:nonzero;fill:rgb(0%,0%,0%);fill-opacity:1;" />
    <path
       id="path92"
       d="M 49.59375 51.4375 C 49.59375 51.070313 49.578125 51.054688 49.335938 51.054688 C 48.660156 51.867188 47.640625 52.125 46.675781 52.160156 C 46.625 52.160156 46.539063 52.160156 46.519531 52.195313 C 46.503906 52.230469 46.503906 52.265625 46.503906 52.625 C 47.039063 52.625 47.9375 52.523438 48.625 52.109375 L 48.625 61.210938 C 48.625 61.8125 48.59375 62.023438 47.105469 62.023438 L 46.589844 62.023438 L 46.589844 62.46875 C 47.417969 62.453125 48.28125 62.4375 49.109375 62.4375 C 49.9375 62.4375 50.804688 62.453125 51.632813 62.46875 L 51.632813 62.023438 L 51.113281 62.023438 C 49.628906 62.023438 49.59375 61.832031 49.59375 61.210938 L 49.59375 51.4375 "
       style=" stroke:none;fill-rule:nonzero;fill:rgb(0%,0%,0%);fill-opacity:1;" />
    <g
       id="g96"
       clip-rule="nonzero"
       clip-path="url(#clip1)">
      <path
         id="path94"
         transform="matrix(0.1,0,0,-0.1,0,378.47)"
         d="M 616.71875 3215.16875 C 616.71875 3215.16875 616.796875 3215.0125 616.796875 3214.934375 C 616.835938 3214.85625 616.835938 3214.778125 616.875 3214.7 C 616.875 3214.582812 616.953125 3214.3875 616.992188 3214.192187 C 617.03125 3213.996875 617.148438 3213.60625 617.226563 3213.215625 C 617.34375 3212.785937 617.539063 3212.04375 617.734375 3211.223437 C 617.929688 3210.442187 618.4375 3208.410937 618.710938 3207.317187 C 618.984375 3206.223437 619.453125 3204.465625 619.726563 3203.371875 C 620 3202.278125 620.3125 3201.067187 620.703125 3199.426562 C 621.132813 3197.785937 622.148438 3193.7625 622.695313 3191.575 C 623.242188 3189.3875 624.140625 3185.871875 624.6875 3183.684375 C 625.234375 3181.496875 625.820313 3179.075 626.640625 3175.832812 C 627.5 3172.551562 629.53125 3164.426562 630.625 3160.051562 C 631.71875 3155.715625 632.929688 3150.871875 634.609375 3144.348437 C 636.25 3137.785937 640.3125 3121.614062 642.539063 3112.903125 C 644.726563 3104.153125 648.28125 3090.207812 650.46875 3081.496875 C 652.695313 3072.785937 656.210938 3058.801562 658.398438 3050.129687 C 660.625 3041.457812 663.046875 3031.848437 666.367188 3018.840625 C 669.648438 3005.832812 677.8125 2973.723437 682.226563 2956.496875 C 686.640625 2939.23125 693.671875 2911.653125 698.085938 2894.504687 C 702.5 2877.35625 709.570313 2849.973437 713.984375 2832.98125 C 718.359375 2815.989062 725.429688 2788.840625 729.84375 2772.004687 C 734.257813 2755.16875 741.328125 2728.332812 745.703125 2711.653125 C 750.117188 2695.0125 755 2676.496875 761.601563 2652.004687 C 768.203125 2627.473437 785 2565.285937 793.359375 2534.973437 C 801.679688 2504.660937 813.789063 2461.2625 821.640625 2433.567187 C 829.53125 2405.832812 842.109375 2362.04375 849.960938 2335.207812 C 857.8125 2308.371875 870.429688 2266.10625 878.28125 2240.246875 C 886.132813 2214.3875 898.75 2173.684375 906.601563 2148.840625 C 914.453125 2123.996875 927.070313 2085.0125 934.921875 2061.2625 C 942.773438 2037.5125 955.390625 2000.285937 963.242188 1977.629687 C 971.09375 1954.973437 979.765625 1929.426562 991.5625 1898.098437 C 1003.359375 1866.770312 1032.460938 1789.973437 1048.203125 1751.770312 C 1063.90625 1713.567187 1089.101563 1656.145312 1104.804688 1622.785937 C 1120.546875 1589.426562 1145.742188 1539.817187 1161.445313 1511.301562 C 1177.1875 1482.746875 1202.382813 1440.871875 1218.085938 1417.04375 C 1233.789063 1393.254687 1258.984375 1358.879687 1274.726563 1339.582812 C 1290.429688 1320.325 1315.625 1293.098437 1331.367188 1278.1375 C 1347.070313 1263.176562 1372.265625 1242.66875 1387.96875 1231.692187 C 1403.710938 1220.754687 1428.90625 1206.457812 1444.609375 1199.192187 C 1460.3125 1191.965625 1485.546875 1183.29375 1501.25 1179.3875 C 1516.953125 1175.442187 1542.148438 1171.8875 1557.890625 1170.910937 C 1573.59375 1169.973437 1598.789063 1170.832812 1614.492188 1172.473437 C 1630.234375 1174.114062 1655.429688 1178.840625 1671.132813 1182.707812 C 1686.875 1186.575 1712.070313 1194.54375 1727.773438 1200.246875 C 1743.476563 1205.95 1768.710938 1216.614062 1784.414063 1223.801562 C 1800.117188 1230.989062 1825.3125 1243.723437 1841.054688 1252.082812 C 1856.757813 1260.442187 1881.953125 1274.778125 1897.695313 1283.996875 C 1913.398438 1293.176562 1938.59375 1308.645312 1954.296875 1318.371875 C 1970.039063 1328.1375 1995.234375 1344.270312 2010.9375 1354.309375 C 2026.640625 1364.3875 2051.875 1380.754687 2067.578125 1390.871875 C 2083.28125 1401.028125 2108.476563 1417.317187 2124.21875 1427.317187 C 2139.921875 1437.317187 2165.117188 1453.254687 2180.859375 1462.942187 C 2196.5625 1472.629687 2221.757813 1487.942187 2237.460938 1497.2 C 2253.203125 1506.457812 2278.398438 1520.910937 2294.101563 1529.621875 C 2309.804688 1538.29375 2335.039063 1551.770312 2350.742188 1559.778125 C 2366.445313 1567.825 2391.640625 1580.16875 2407.382813 1587.473437 C 2423.085938 1594.817187 2448.28125 1605.989062 2463.984375 1612.5125 C 2479.726563 1619.075 2504.921875 1628.996875 2520.625 1634.778125 C 2536.367188 1640.559375 2561.5625 1649.153125 2577.265625 1654.153125 C 2592.96875 1659.114062 2618.164063 1666.457812 2633.90625 1670.676562 C 2649.609375 1674.85625 2674.804688 1680.989062 2690.546875 1684.426562 C 2706.25 1687.864062 2731.445313 1692.785937 2747.148438 1695.520312 C 2762.890625 1698.254687 2788.085938 1702.04375 2803.789063 1704.114062 C 2819.492188 1706.145312 2844.726563 1708.879687 2860.429688 1710.325 C 2876.132813 1711.73125 2893.476563 1713.489062 2917.070313 1714.3875 C 2940.625 1715.325 3000.46875 1716.965625 3030.3125 1716.926562 C 3060.195313 1716.8875 3103.984375 1715.325 3132.265625 1714.035937 C 3160.546875 1712.707812 3205.898438 1709.660937 3234.21875 1707.5125 C 3262.5 1705.364062 3307.851563 1701.2625 3336.132813 1698.60625 C 3364.414063 1695.910937 3409.804688 1691.223437 3438.085938 1688.332812 C 3466.367188 1685.403125 3511.71875 1680.559375 3540.039063 1677.590625 C 3568.28125 1674.660937 3613.671875 1669.934375 3641.953125 1667.160937 C 3670.234375 1664.3875 3715.625 1660.051562 3743.90625 1657.5125 C 3772.1875 1655.0125 3817.539063 1651.223437 3845.859375 1649.075 C 3874.101563 1646.926562 3919.492188 1643.801562 3947.773438 1642.04375 C 3976.054688 1640.285937 4021.445313 1637.825 4049.726563 1636.496875 C 4078.007813 1635.16875 4123.359375 1633.371875 4151.640625 1632.434375 C 4179.921875 1631.496875 4225.3125 1630.325 4253.59375 1629.778125 C 4281.875 1629.192187 4327.226563 1628.567187 4355.546875 1628.29375 C 4383.828125 1628.020312 4429.179688 1627.864062 4457.460938 1627.864062 C 4485.742188 1627.864062 4541.679688 1628.176562 4559.414063 1628.254687 C 4577.148438 1628.332812 4585.273438 1628.45 4585.273438 1628.45 "
         style="fill:none;stroke-width:15.9404;stroke-linecap:butt;stroke-linejoin:miter;stroke:rgb(0%,61.131287%,50.976563%);stroke-opacity:1;stroke-miterlimit:10;" />
    </g>
    <g
       id="g100"
       clip-rule="nonzero"
       clip-path="url(#clip2)">
      <path
         id="path98"
         transform="matrix(0.1,0,0,-0.1,0,378.47)"
         d="M 616.71875 1640.364062 C 616.71875 1640.364062 616.796875 1640.559375 616.796875 1640.598437 C 616.835938 1640.676562 616.835938 1640.754687 616.875 1640.871875 C 616.875 1640.95 616.953125 1641.145312 616.992188 1641.340625 C 617.03125 1641.535937 617.148438 1641.926562 617.226563 1642.317187 C 617.34375 1642.746875 617.539063 1643.489062 617.734375 1644.309375 C 617.929688 1645.090625 618.4375 1647.121875 618.710938 1648.215625 C 618.984375 1649.309375 619.453125 1651.028125 619.726563 1652.121875 C 620 1653.215625 620.3125 1654.3875 620.703125 1656.028125 C 621.132813 1657.629687 622.148438 1661.653125 622.695313 1663.801562 C 623.242188 1665.95 624.140625 1669.3875 624.6875 1671.535937 C 625.234375 1673.645312 625.820313 1676.028125 626.640625 1679.23125 C 627.5 1682.395312 629.53125 1690.285937 630.625 1694.504687 C 631.71875 1698.723437 632.929688 1703.371875 634.609375 1709.621875 C 636.25 1715.832812 640.3125 1731.223437 642.539063 1739.3875 C 644.726563 1747.551562 648.28125 1760.520312 650.46875 1768.528125 C 652.695313 1776.535937 656.210938 1789.192187 658.398438 1797.04375 C 660.625 1804.85625 663.046875 1813.567187 666.367188 1824.895312 C 669.648438 1836.2625 677.8125 1864.192187 682.226563 1878.801562 C 686.640625 1893.410937 693.671875 1916.301562 698.085938 1930.207812 C 702.5 1944.114062 709.570313 1965.910937 713.984375 1979.153125 C 718.359375 1992.395312 725.429688 2013.059375 729.84375 2025.6375 C 734.257813 2038.176562 741.328125 2057.785937 745.703125 2069.660937 C 750.117188 2081.575 755 2094.973437 761.601563 2111.340625 C 768.203125 2127.707812 785 2168.645312 793.359375 2187.551562 C 801.679688 2206.496875 813.789063 2232.04375 821.640625 2247.746875 C 829.53125 2263.489062 842.109375 2287.04375 849.960938 2300.832812 C 857.8125 2314.582812 870.429688 2335.090625 878.28125 2347.004687 C 886.132813 2358.879687 898.75 2376.41875 906.601563 2386.496875 C 914.453125 2396.575 927.070313 2411.301562 934.921875 2419.621875 C 942.773438 2427.98125 955.390625 2439.973437 963.242188 2446.653125 C 971.09375 2453.371875 979.765625 2461.301562 991.5625 2467.864062 C 1003.359375 2474.426562 1032.460938 2489.465625 1048.203125 2493.996875 C 1063.90625 2498.528125 1089.101563 2501.067187 1104.804688 2500.48125 C 1120.546875 2499.895312 1145.742188 2494.817187 1161.445313 2489.817187 C 1177.1875 2484.817187 1202.382813 2473.215625 1218.085938 2464.465625 C 1233.789063 2455.715625 1258.984375 2438.684375 1274.726563 2426.8875 C 1290.429688 2415.051562 1315.625 2393.645312 1331.367188 2379.3875 C 1347.070313 2365.129687 1372.265625 2340.285937 1387.96875 2324.192187 C 1403.710938 2308.098437 1428.90625 2280.79375 1444.609375 2263.410937 C 1460.3125 2246.028125 1485.546875 2217.04375 1501.25 2198.879687 C 1516.953125 2180.715625 1542.148438 2150.910937 1557.890625 2132.395312 C 1573.59375 2113.840625 1598.789063 2083.840625 1614.492188 2065.403125 C 1630.234375 2046.926562 1655.429688 2017.317187 1671.132813 1999.23125 C 1686.875 1981.145312 1712.070313 1952.473437 1727.773438 1935.090625 C 1743.476563 1917.707812 1768.710938 1890.364062 1784.414063 1873.879687 C 1800.117188 1857.434375 1825.3125 1831.770312 1841.054688 1816.41875 C 1856.757813 1801.067187 1881.953125 1777.35625 1897.695313 1763.254687 C 1913.398438 1749.153125 1938.59375 1727.551562 1954.296875 1714.817187 C 1970.039063 1702.082812 1995.234375 1682.746875 2010.9375 1671.41875 C 2026.640625 1660.090625 2051.875 1643.098437 2067.578125 1633.215625 C 2083.28125 1623.332812 2108.476563 1608.645312 2124.21875 1600.207812 C 2139.921875 1591.770312 2165.117188 1579.3875 2180.859375 1572.35625 C 2196.5625 1565.325 2221.757813 1555.207812 2237.460938 1549.504687 C 2253.203125 1543.840625 2278.398438 1535.832812 2294.101563 1531.41875 C 2309.804688 1527.004687 2335.039063 1520.989062 2350.742188 1517.785937 C 2366.445313 1514.582812 2391.640625 1510.403125 2407.382813 1508.29375 C 2423.085938 1506.184375 2448.28125 1503.684375 2463.984375 1502.551562 C 2479.726563 1501.457812 2504.921875 1500.442187 2520.625 1500.207812 C 2536.367188 1499.973437 2561.5625 1500.285937 2577.265625 1500.832812 C 2592.96875 1501.340625 2618.164063 1502.825 2633.90625 1503.996875 C 2649.609375 1505.207812 2674.804688 1507.629687 2690.546875 1509.348437 C 2706.25 1511.067187 2731.445313 1514.309375 2747.148438 1516.457812 C 2762.890625 1518.645312 2788.085938 1522.473437 2803.789063 1524.973437 C 2819.492188 1527.473437 2844.726563 1531.809375 2860.429688 1534.54375 C 2876.132813 1537.317187 2893.476563 1540.403125 2917.070313 1544.85625 C 2940.625 1549.270312 3000.46875 1560.79375 3030.3125 1566.496875 C 3060.195313 1572.2 3103.984375 1580.676562 3132.265625 1585.871875 C 3160.546875 1591.067187 3205.898438 1599.270312 3234.21875 1603.996875 C 3262.5 1608.7625 3307.851563 1616.028125 3336.132813 1620.16875 C 3364.414063 1624.270312 3409.804688 1630.403125 3438.085938 1633.801562 C 3466.367188 1637.2 3511.71875 1642.082812 3540.039063 1644.739062 C 3568.28125 1647.395312 3613.671875 1651.028125 3641.953125 1652.942187 C 3670.234375 1654.85625 3715.625 1657.35625 3743.90625 1658.567187 C 3772.1875 1659.817187 3817.539063 1661.223437 3845.859375 1661.8875 C 3874.101563 1662.5125 3919.492188 1663.059375 3947.773438 1663.176562 C 3976.054688 1663.332812 4021.445313 1663.1375 4049.726563 1662.864062 C 4078.007813 1662.590625 4123.359375 1661.8875 4151.640625 1661.340625 C 4179.921875 1660.79375 4225.3125 1659.660937 4253.59375 1658.91875 C 4281.875 1658.176562 4327.226563 1656.848437 4355.546875 1655.989062 C 4383.828125 1655.129687 4429.179688 1653.684375 4457.460938 1652.825 C 4485.742188 1651.926562 4541.679688 1650.207812 4559.414063 1649.621875 C 4577.148438 1649.075 4585.273438 1648.840625 4585.273438 1648.840625 "
         style="fill:none;stroke-width:15.9404;stroke-linecap:butt;stroke-linejoin:miter;stroke:rgb(85.9375%,2.397156%,31.809998%);stroke-opacity:1;stroke-miterlimit:10;" />
    </g>
    <path
       id="path102"
       d="M 449.273438 200.929688 L 450.859375 200.929688 C 451.1875 200.929688 451.359375 200.929688 451.359375 200.617188 C 451.359375 200.425781 451.257813 200.425781 450.914063 200.425781 L 449.390625 200.425781 L 450.03125 197.90625 C 450.101563 197.664063 450.101563 197.628906 450.101563 197.507813 C 450.101563 197.230469 449.875 197.074219 449.652344 197.074219 C 449.511719 197.074219 449.117188 197.128906 448.976563 197.679688 L 448.304688 200.425781 L 446.679688 200.425781 C 446.335938 200.425781 446.179688 200.425781 446.179688 200.753906 C 446.179688 200.929688 446.300781 200.929688 446.628906 200.929688 L 448.164063 200.929688 L 447.027344 205.488281 C 446.886719 206.09375 446.835938 206.265625 446.835938 206.488281 C 446.835938 207.300781 447.40625 208.042969 448.371094 208.042969 C 450.117188 208.042969 451.050781 205.523438 451.050781 205.402344 C 451.050781 205.296875 450.980469 205.246094 450.878906 205.246094 C 450.84375 205.246094 450.773438 205.246094 450.738281 205.3125 C 450.722656 205.332031 450.703125 205.347656 450.585938 205.625 C 450.21875 206.488281 449.425781 207.695313 448.425781 207.695313 C 447.90625 207.695313 447.871094 207.265625 447.871094 206.886719 C 447.871094 206.867188 447.871094 206.539063 447.921875 206.332031 L 449.273438 200.929688 "
       style=" stroke:none;fill-rule:nonzero;fill:rgb(0%,0%,0%);fill-opacity:1;" />
    <path
       id="path104"
       d="M 164.96875 360.574219 L 355.234375 360.574219 L 355.234375 317.59375 L 164.96875 317.59375 Z M 164.96875 360.574219 "
       style=" stroke:none;fill-rule:nonzero;fill:rgb(100%,100%,100%);fill-opacity:1;" />
    <path
       id="path106"
       transform="matrix(0.1,0,0,-0.1,0,378.47)"
       d="M 1687.539063 491.340625 C 1687.539063 491.340625 1748.984375 491.340625 1772.578125 491.340625 C 1796.171875 491.340625 1857.617188 491.340625 1857.617188 491.340625 "
       style="fill:none;stroke-width:15.9404;stroke-linecap:butt;stroke-linejoin:miter;stroke:rgb(0%,61.131287%,50.976563%);stroke-opacity:1;stroke-miterlimit:10;" />
    <path
       id="path108"
       d="M 193.496094 334.46875 L 193.496094 334.015625 C 192.242188 334.015625 192.03125 334.015625 192.03125 333.234375 L 192.03125 323.808594 C 192.03125 323.023438 192.242188 323.023438 193.496094 323.023438 L 193.496094 322.570313 C 192.9375 322.605469 192.050781 322.605469 191.457031 322.605469 C 190.867188 322.605469 189.976563 322.605469 189.417969 322.570313 L 189.417969 323.023438 C 190.671875 323.023438 190.882813 323.023438 190.882813 323.808594 L 190.882813 333.234375 C 190.882813 334.015625 190.671875 334.015625 189.417969 334.015625 L 189.417969 334.46875 C 189.976563 334.4375 190.867188 334.4375 191.457031 334.4375 C 192.050781 334.4375 192.9375 334.4375 193.496094 334.46875 "
       style=" stroke:none;fill-rule:nonzero;fill:rgb(0%,0%,0%);fill-opacity:1;" />
    <path
       id="path110"
       d="M 202.714844 334.46875 L 202.714844 334.015625 C 201.601563 334.015625 201.53125 333.945313 201.53125 333.269531 L 201.53125 329.171875 C 201.53125 328.285156 201.355469 326.839844 199.300781 326.839844 C 197.921875 326.839844 197.210938 327.902344 196.949219 328.597656 L 196.929688 328.597656 L 196.929688 326.839844 L 194.875 327.03125 L 194.875 327.484375 C 195.902344 327.484375 196.058594 327.589844 196.058594 328.425781 L 196.058594 333.269531 C 196.058594 333.929688 195.992188 334.015625 194.875 334.015625 L 194.875 334.46875 C 195.292969 334.4375 196.058594 334.4375 196.511719 334.4375 C 196.964844 334.4375 197.75 334.4375 198.167969 334.46875 L 198.167969 334.015625 C 197.054688 334.015625 196.984375 333.945313 196.984375 333.269531 L 196.984375 329.921875 C 196.984375 328.320313 197.960938 327.117188 199.179688 327.117188 C 200.46875 327.117188 200.605469 328.269531 200.605469 329.105469 L 200.605469 333.269531 C 200.605469 333.929688 200.539063 334.015625 199.421875 334.015625 L 199.421875 334.46875 C 199.839844 334.4375 200.605469 334.4375 201.058594 334.4375 C 201.511719 334.4375 202.296875 334.4375 202.714844 334.46875 "
       style=" stroke:none;fill-rule:nonzero;fill:rgb(0%,0%,0%);fill-opacity:1;" />
    <path
       id="path112"
       d="M 211.546875 334.46875 L 211.546875 334.015625 C 210.515625 334.015625 210.359375 333.914063 210.359375 333.078125 L 210.359375 322.378906 L 208.289063 322.570313 L 208.289063 323.023438 C 209.316406 323.023438 209.472656 323.128906 209.472656 323.964844 L 209.472656 328.042969 C 209.402344 327.953125 208.6875 326.839844 207.277344 326.839844 C 205.5 326.839844 203.773438 328.425781 203.773438 330.726563 C 203.773438 333.007813 205.394531 334.609375 207.101563 334.609375 C 208.582031 334.609375 209.351563 333.460938 209.4375 333.335938 L 209.4375 334.609375 Z M 209.4375 332.378906 C 209.4375 332.902344 209.121094 333.375 208.722656 333.722656 C 208.132813 334.242188 207.539063 334.332031 207.207031 334.332031 C 206.703125 334.332031 204.890625 334.070313 204.890625 330.742188 C 204.890625 327.328125 206.910156 327.117188 207.363281 327.117188 C 208.164063 327.117188 208.808594 327.570313 209.210938 328.199219 C 209.4375 328.5625 209.4375 328.617188 209.4375 328.929688 L 209.4375 332.378906 "
       style=" stroke:none;fill-rule:nonzero;fill:rgb(0%,0%,0%);fill-opacity:1;" />
    <path
       id="path114"
       d="M 220.515625 334.46875 L 220.515625 334.015625 C 219.488281 334.015625 219.328125 333.914063 219.328125 333.078125 L 219.328125 326.839844 L 217.222656 327.03125 L 217.222656 327.484375 C 218.25 327.484375 218.40625 327.589844 218.40625 328.425781 L 218.40625 331.59375 C 218.40625 333.058594 217.621094 334.332031 216.335938 334.332031 C 214.90625 334.332031 214.78125 333.476563 214.78125 332.570313 L 214.78125 326.839844 L 212.675781 327.03125 L 212.675781 327.484375 C 213.371094 327.484375 213.84375 327.484375 213.859375 328.179688 L 213.859375 331.527344 C 213.859375 332.695313 213.859375 333.441406 214.3125 333.929688 C 214.539063 334.15625 214.976563 334.609375 216.230469 334.609375 C 217.710938 334.609375 218.285156 333.355469 218.425781 332.988281 L 218.441406 332.988281 L 218.441406 334.609375 L 220.515625 334.46875 "
       style=" stroke:none;fill-rule:nonzero;fill:rgb(0%,0%,0%);fill-opacity:1;" />
    <path
       id="path116"
       d="M 227.691406 332.414063 C 227.691406 332.34375 227.671875 332.292969 227.550781 332.292969 C 227.429688 332.292969 227.410156 332.308594 227.34375 332.535156 C 226.890625 333.945313 225.894531 334.296875 225.148438 334.296875 C 224.03125 334.296875 222.691406 333.269531 222.691406 330.6875 C 222.691406 328.042969 223.980469 327.082031 225.007813 327.082031 C 225.6875 327.082031 226.695313 327.414063 227.078125 328.371094 C 226.75 328.371094 226.261719 328.371094 226.261719 328.984375 C 226.261719 329.46875 226.664063 329.609375 226.890625 329.609375 C 227.011719 329.609375 227.515625 329.558594 227.515625 328.945313 C 227.515625 327.710938 226.332031 326.769531 224.988281 326.769531 C 223.140625 326.769531 221.574219 328.476563 221.574219 330.707031 C 221.574219 333.023438 223.214844 334.609375 224.988281 334.609375 C 227.148438 334.609375 227.691406 332.605469 227.691406 332.414063 "
       style=" stroke:none;fill-rule:nonzero;fill:rgb(0%,0%,0%);fill-opacity:1;" />
    <path
       id="path118"
       d="M 233.449219 332.308594 L 233.449219 331.316406 L 233.132813 331.316406 L 233.132813 332.292969 C 233.132813 333.496094 232.664063 334.296875 231.933594 334.296875 C 231.429688 334.296875 230.730469 333.945313 230.730469 332.363281 L 230.730469 327.429688 L 233.171875 327.429688 L 233.171875 326.976563 L 230.730469 326.976563 L 230.730469 323.757813 L 230.417969 323.757813 C 230.382813 325.550781 229.773438 327.117188 228.292969 327.152344 L 228.292969 327.429688 L 229.808594 327.429688 L 229.808594 332.328125 C 229.808594 332.65625 229.808594 334.609375 231.828125 334.609375 C 232.855469 334.609375 233.449219 333.597656 233.449219 332.308594 "
       style=" stroke:none;fill-rule:nonzero;fill:rgb(0%,0%,0%);fill-opacity:1;" />
    <path
       id="path120"
       d="M 241.710938 330.742188 C 241.710938 328.511719 240.089844 326.769531 238.1875 326.769531 C 236.289063 326.769531 234.671875 328.511719 234.671875 330.742188 C 234.671875 332.9375 236.289063 334.609375 238.1875 334.609375 C 240.089844 334.609375 241.710938 332.9375 241.710938 330.742188 Z M 240.59375 330.601563 C 240.59375 331.28125 240.558594 332.328125 240.089844 333.164063 C 239.601563 333.964844 238.851563 334.296875 238.1875 334.296875 C 237.371094 334.296875 236.671875 333.808594 236.273438 333.128906 C 235.839844 332.34375 235.785156 331.367188 235.785156 330.601563 C 235.785156 329.871094 235.820313 328.964844 236.273438 328.179688 C 236.621094 327.605469 237.300781 327.046875 238.1875 327.046875 C 238.972656 327.046875 239.636719 327.484375 240.054688 328.09375 C 240.59375 328.914063 240.59375 330.0625 240.59375 330.601563 "
       style=" stroke:none;fill-rule:nonzero;fill:rgb(0%,0%,0%);fill-opacity:1;" />
    <path
       id="path122"
       d="M 248.003906 327.746094 C 248.003906 327.1875 247.445313 326.839844 246.851563 326.839844 C 245.527344 326.839844 244.953125 328.128906 244.777344 328.738281 L 244.761719 328.738281 L 244.761719 326.839844 L 242.742188 327.03125 L 242.742188 327.484375 C 243.769531 327.484375 243.925781 327.589844 243.925781 328.425781 L 243.925781 333.269531 C 243.925781 333.929688 243.855469 334.015625 242.742188 334.015625 L 242.742188 334.46875 C 243.15625 334.4375 243.960938 334.4375 244.414063 334.4375 C 244.917969 334.4375 245.804688 334.4375 246.277344 334.46875 L 246.277344 334.015625 C 245.023438 334.015625 244.8125 334.015625 244.8125 333.234375 L 244.8125 330.359375 C 244.8125 328.6875 245.527344 327.117188 246.835938 327.117188 C 246.957031 327.117188 247.078125 327.136719 247.199219 327.1875 C 247.199219 327.1875 246.816406 327.308594 246.816406 327.761719 C 246.816406 328.179688 247.148438 328.355469 247.410156 328.355469 C 247.617188 328.355469 248.003906 328.234375 248.003906 327.746094 "
       style=" stroke:none;fill-rule:nonzero;fill:rgb(0%,0%,0%);fill-opacity:1;" />
    <path
       id="path124"
       d="M 261.957031 327.429688 L 261.957031 326.976563 L 260.859375 327.015625 C 260.496094 327.015625 259.921875 327.015625 259.570313 326.976563 L 259.570313 327.429688 C 260.007813 327.46875 260.25 327.675781 260.25 328.128906 C 260.25 328.285156 260.25 328.320313 260.148438 328.5625 L 258.230469 333.40625 L 256.15625 328.179688 C 256.050781 327.953125 256.050781 327.921875 256.050781 327.851563 C 256.050781 327.429688 256.628906 327.429688 256.886719 327.429688 L 256.886719 326.976563 C 256.46875 327.015625 255.703125 327.015625 255.269531 327.015625 C 254.796875 327.015625 254.257813 327.015625 253.875 326.976563 L 253.875 327.429688 C 254.535156 327.429688 254.902344 327.429688 255.109375 327.972656 L 257.636719 334.3125 C 257.742188 334.574219 257.757813 334.609375 257.914063 334.609375 C 258.074219 334.609375 258.089844 334.574219 258.195313 334.3125 L 260.511719 328.546875 C 260.667969 328.164063 260.945313 327.46875 261.957031 327.429688 "
       style=" stroke:none;fill-rule:nonzero;fill:rgb(0%,0%,0%);fill-opacity:1;" />
    <path
       id="path126"
       d="M 269.210938 330.742188 C 269.210938 328.511719 267.589844 326.769531 265.6875 326.769531 C 263.789063 326.769531 262.171875 328.511719 262.171875 330.742188 C 262.171875 332.9375 263.789063 334.609375 265.6875 334.609375 C 267.589844 334.609375 269.210938 332.9375 269.210938 330.742188 Z M 268.09375 330.601563 C 268.09375 331.28125 268.058594 332.328125 267.589844 333.164063 C 267.101563 333.964844 266.351563 334.296875 265.6875 334.296875 C 264.871094 334.296875 264.171875 333.808594 263.773438 333.128906 C 263.339844 332.34375 263.285156 331.367188 263.285156 330.601563 C 263.285156 329.871094 263.320313 328.964844 263.773438 328.179688 C 264.121094 327.605469 264.800781 327.046875 265.6875 327.046875 C 266.472656 327.046875 267.136719 327.484375 267.554688 328.09375 C 268.09375 328.914063 268.09375 330.0625 268.09375 330.601563 "
       style=" stroke:none;fill-rule:nonzero;fill:rgb(0%,0%,0%);fill-opacity:1;" />
    <path
       id="path128"
       d="M 273.550781 334.46875 L 273.550781 334.015625 C 272.4375 334.015625 272.367188 333.945313 272.367188 333.269531 L 272.367188 322.378906 L 270.292969 322.570313 L 270.292969 323.023438 C 271.320313 323.023438 271.476563 323.128906 271.476563 323.964844 L 271.476563 333.269531 C 271.476563 333.929688 271.40625 334.015625 270.292969 334.015625 L 270.292969 334.46875 C 270.710938 334.4375 271.476563 334.4375 271.914063 334.4375 C 272.367188 334.4375 273.132813 334.4375 273.550781 334.46875 "
       style=" stroke:none;fill-rule:nonzero;fill:rgb(0%,0%,0%);fill-opacity:1;" />
    <path
       id="path130"
       d="M 279.347656 332.308594 L 279.347656 331.316406 L 279.035156 331.316406 L 279.035156 332.292969 C 279.035156 333.496094 278.5625 334.296875 277.832031 334.296875 C 277.328125 334.296875 276.632813 333.945313 276.632813 332.363281 L 276.632813 327.429688 L 279.070313 327.429688 L 279.070313 326.976563 L 276.632813 326.976563 L 276.632813 323.757813 L 276.316406 323.757813 C 276.28125 325.550781 275.671875 327.117188 274.191406 327.152344 L 274.191406 327.429688 L 275.707031 327.429688 L 275.707031 332.328125 C 275.707031 332.65625 275.707031 334.609375 277.726563 334.609375 C 278.757813 334.609375 279.347656 333.597656 279.347656 332.308594 "
       style=" stroke:none;fill-rule:nonzero;fill:rgb(0%,0%,0%);fill-opacity:1;" />
    <path
       id="path132"
       d="M 288.023438 332.921875 L 288.023438 331.945313 L 287.710938 331.945313 L 287.710938 332.9375 C 287.710938 334 287.238281 334.140625 287.011719 334.140625 C 286.296875 334.140625 286.296875 333.234375 286.296875 332.46875 L 286.296875 329.957031 C 286.296875 328.808594 286.296875 328.199219 285.566406 327.519531 C 284.921875 326.945313 284.171875 326.769531 283.578125 326.769531 C 282.203125 326.769531 281.210938 327.851563 281.210938 329 C 281.210938 329.644531 281.734375 329.679688 281.839844 329.679688 C 282.0625 329.679688 282.464844 329.539063 282.464844 329.050781 C 282.464844 328.617188 282.132813 328.425781 281.839844 328.425781 C 281.769531 328.425781 281.679688 328.441406 281.628906 328.460938 C 281.992188 327.363281 282.9375 327.046875 283.546875 327.046875 C 284.414063 327.046875 285.375 327.816406 285.375 329.277344 L 285.375 330.046875 C 284.347656 330.078125 283.109375 330.21875 282.132813 330.742188 C 281.035156 331.351563 280.722656 332.222656 280.722656 332.882813 C 280.722656 334.226563 282.289063 334.609375 283.214844 334.609375 C 284.171875 334.609375 285.0625 334.070313 285.445313 333.078125 C 285.480469 333.84375 285.96875 334.539063 286.734375 334.539063 C 287.097656 334.539063 288.023438 334.296875 288.023438 332.921875 Z M 285.375 332.046875 C 285.375 333.5625 284.292969 334.332031 283.335938 334.332031 C 282.464844 334.332031 281.785156 333.6875 281.785156 332.882813 C 281.785156 332.363281 282.011719 331.4375 283.023438 330.882813 C 283.859375 330.410156 284.816406 330.339844 285.375 330.304688 L 285.375 332.046875 "
       style=" stroke:none;fill-rule:nonzero;fill:rgb(0%,0%,0%);fill-opacity:1;" />
    <path
       id="path134"
       d="M 296.058594 327.378906 C 296.058594 327.046875 295.796875 326.699219 295.238281 326.699219 C 294.542969 326.699219 293.929688 327.03125 293.445313 327.484375 C 292.921875 327.015625 292.292969 326.839844 291.734375 326.839844 C 290.359375 326.839844 289.175781 327.921875 289.175781 329.367188 C 289.175781 330.359375 289.75 330.984375 289.925781 331.160156 C 289.402344 331.769531 289.402344 332.484375 289.402344 332.570313 C 289.402344 333.023438 289.578125 333.6875 290.167969 334.050781 C 289.261719 334.277344 288.546875 334.976563 288.546875 335.847656 C 288.546875 337.101563 290.203125 338.023438 292.1875 338.023438 C 294.105469 338.023438 295.832031 337.136719 295.832031 335.828125 C 295.832031 333.460938 293.253906 333.460938 291.910156 333.460938 C 291.511719 333.460938 290.796875 333.460938 290.710938 333.441406 C 290.167969 333.355469 289.804688 332.867188 289.804688 332.257813 C 289.804688 332.101563 289.804688 331.71875 290.132813 331.335938 C 290.464844 331.59375 291.039063 331.890625 291.734375 331.890625 C 293.113281 331.890625 294.296875 330.8125 294.296875 329.367188 C 294.296875 328.914063 294.15625 328.214844 293.636719 327.675781 C 294.121094 327.152344 294.839844 326.976563 295.238281 326.976563 C 295.308594 326.976563 295.414063 326.976563 295.5 327.03125 C 295.429688 327.046875 295.273438 327.117188 295.273438 327.398438 C 295.273438 327.625 295.429688 327.78125 295.65625 327.78125 C 295.917969 327.78125 296.058594 327.605469 296.058594 327.378906 Z M 293.269531 329.367188 C 293.269531 329.714844 293.269531 331.59375 291.734375 331.59375 C 290.203125 331.59375 290.203125 329.714844 290.203125 329.367188 C 290.203125 329.015625 290.203125 327.136719 291.734375 327.136719 C 293.269531 327.136719 293.269531 329.015625 293.269531 329.367188 Z M 295.132813 335.847656 C 295.132813 336.804688 293.929688 337.726563 292.1875 337.726563 C 290.445313 337.726563 289.246094 336.804688 289.246094 335.847656 C 289.246094 335.304688 289.542969 334.800781 289.925781 334.523438 C 290.359375 334.226563 290.535156 334.226563 291.71875 334.226563 C 293.148438 334.226563 295.132813 334.226563 295.132813 335.847656 "
       style=" stroke:none;fill-rule:nonzero;fill:rgb(0%,0%,0%);fill-opacity:1;" />
    <path
       id="path136"
       d="M 302.90625 330.097656 C 302.90625 328.320313 301.96875 326.769531 299.980469 326.769531 C 298.132813 326.769531 296.671875 328.53125 296.671875 330.671875 C 296.671875 332.9375 298.324219 334.609375 300.171875 334.609375 C 302.121094 334.609375 302.890625 332.761719 302.890625 332.398438 C 302.890625 332.273438 302.75 332.273438 302.75 332.273438 C 302.628906 332.273438 302.609375 332.308594 302.542969 332.519531 C 302.15625 333.703125 301.199219 334.296875 300.292969 334.296875 C 299.546875 334.296875 298.796875 333.878906 298.324219 333.109375 C 297.785156 332.222656 297.785156 331.195313 297.785156 330.375 L 302.839844 330.375 C 302.90625 330.304688 302.90625 330.273438 302.90625 330.097656 Z M 301.96875 330.113281 L 297.804688 330.113281 C 297.925781 327.605469 299.265625 327.046875 299.964844 327.046875 C 301.148438 327.046875 301.949219 328.164063 301.96875 330.113281 "
       style=" stroke:none;fill-rule:nonzero;fill:rgb(0%,0%,0%);fill-opacity:1;" />
    <path
       id="path138"
       d="M 314.488281 333.46875 C 314.714844 334.4375 315.542969 334.644531 315.957031 334.644531 C 316.507813 334.644531 316.921875 334.28125 317.199219 333.695313 C 317.492188 333.070313 317.71875 332.054688 317.71875 332 C 317.71875 331.914063 317.648438 331.84375 317.546875 331.84375 C 317.390625 331.84375 317.371094 331.929688 317.304688 332.191406 C 316.992188 333.382813 316.683594 334.296875 315.992188 334.296875 C 315.472656 334.296875 315.472656 333.726563 315.472656 333.503906 C 315.472656 333.105469 315.523438 332.933594 315.699219 332.207031 C 315.820313 331.742188 315.9375 331.273438 316.042969 330.792969 L 316.753906 327.976563 C 316.871094 327.546875 316.871094 327.511719 316.871094 327.460938 C 316.871094 327.199219 316.664063 327.027344 316.40625 327.027344 C 315.90625 327.027344 315.785156 327.460938 315.679688 327.890625 C 315.507813 328.5625 314.574219 332.277344 314.453125 332.882813 C 314.4375 332.882813 313.765625 334.296875 312.503906 334.296875 C 311.605469 334.296875 311.433594 333.519531 311.433594 332.882813 C 311.433594 331.898438 311.914063 330.515625 312.363281 329.359375 C 312.570313 328.804688 312.65625 328.582031 312.65625 328.234375 C 312.65625 327.492188 312.121094 326.855469 311.292969 326.855469 C 309.703125 326.855469 309.066406 329.359375 309.066406 329.496094 C 309.066406 329.566406 309.136719 329.652344 309.257813 329.652344 C 309.410156 329.652344 309.429688 329.582031 309.496094 329.339844 C 309.914063 327.855469 310.585938 327.199219 311.242188 327.199219 C 311.414063 327.199219 311.691406 327.21875 311.691406 327.769531 C 311.691406 328.21875 311.503906 328.71875 311.242188 329.375 C 310.484375 331.429688 310.394531 332.085938 310.394531 332.605469 C 310.394531 334.367188 311.726563 334.644531 312.433594 334.644531 C 313.539063 334.644531 314.144531 333.882813 314.488281 333.46875 "
       style=" stroke:none;fill-rule:nonzero;fill:rgb(0%,0%,0%);fill-opacity:1;" />
    <path
       id="path140"
       d="M 322.574219 329.847656 C 322.683594 329.394531 322.71875 329.273438 323.765625 329.273438 C 324.089844 329.273438 324.171875 329.273438 324.171875 329.046875 C 324.171875 328.929688 324.039063 328.929688 323.992188 328.929688 C 323.753906 328.929688 323.480469 328.953125 323.242188 328.953125 L 321.644531 328.953125 C 321.417969 328.953125 321.15625 328.929688 320.929688 328.929688 C 320.835938 328.929688 320.703125 328.929688 320.703125 329.15625 C 320.703125 329.273438 320.8125 329.273438 320.988281 329.273438 C 321.71875 329.273438 321.71875 329.371094 321.71875 329.5 C 321.71875 329.523438 321.71875 329.597656 321.667969 329.773438 L 320.058594 336.1875 C 319.953125 336.605469 319.929688 336.726563 319.09375 336.726563 C 318.867188 336.726563 318.746094 336.726563 318.746094 336.9375 C 318.746094 337.070313 318.820313 337.070313 319.058594 337.070313 L 324.398438 337.070313 C 324.660156 337.070313 324.671875 337.058594 324.757813 336.84375 L 325.671875 334.304688 C 325.699219 334.246094 325.722656 334.171875 325.722656 334.136719 C 325.722656 334.066406 325.664063 334.019531 325.601563 334.019531 C 325.589844 334.019531 325.53125 334.019531 325.507813 334.066406 C 325.484375 334.078125 325.484375 334.101563 325.386719 334.328125 C 325.007813 335.378906 324.46875 336.726563 322.457031 336.726563 L 321.3125 336.726563 C 321.144531 336.726563 321.121094 336.726563 321.046875 336.710938 C 320.917969 336.699219 320.90625 336.675781 320.90625 336.582031 C 320.90625 336.5 320.929688 336.425781 320.953125 336.320313 L 322.574219 329.847656 "
       style=" stroke:none;fill-rule:nonzero;fill:rgb(0%,0%,0%);fill-opacity:1;" />
    <path
       id="path142"
       d="M 333.558594 338.769531 L 333.558594 338.164063 L 331.933594 338.164063 L 331.933594 322.140625 L 333.558594 322.140625 L 333.558594 321.535156 L 331.332031 321.535156 L 331.332031 338.769531 L 333.558594 338.769531 "
       style=" stroke:none;fill-rule:nonzero;fill:rgb(0%,0%,0%);fill-opacity:1;" />
    <path
       id="path144"
       d="M 343.988281 324.265625 C 344.144531 323.882813 344.421875 323.140625 345.578125 323.125 L 345.578125 322.675781 C 345.179688 322.710938 344.730469 322.710938 344.300781 322.710938 C 343.886719 322.710938 343.175781 322.710938 342.78125 322.675781 L 342.78125 323.125 C 343.644531 323.175781 343.679688 323.78125 343.679688 323.882813 C 343.679688 324.074219 343.628906 324.195313 343.574219 324.332031 L 340.171875 333.191406 L 336.617188 323.882813 C 336.5625 323.765625 336.527344 323.675781 336.527344 323.589844 C 336.527344 323.125 337.21875 323.125 337.582031 323.125 L 337.582031 322.675781 C 337.03125 322.710938 336.21875 322.710938 335.648438 322.710938 C 335.199219 322.710938 334.386719 322.710938 333.972656 322.675781 L 333.972656 323.125 C 334.976563 323.125 335.164063 323.195313 335.371094 323.746094 L 339.480469 334.46875 C 339.570313 334.710938 339.585938 334.746094 339.773438 334.746094 C 339.964844 334.746094 339.984375 334.710938 340.070313 334.46875 L 343.988281 324.265625 "
       style=" stroke:none;fill-rule:nonzero;fill:rgb(0%,0%,0%);fill-opacity:1;" />
    <path
       id="path146"
       d="M 348.367188 321.535156 L 346.140625 321.535156 L 346.140625 322.140625 L 347.765625 322.140625 L 347.765625 338.164063 L 346.140625 338.164063 L 346.140625 338.769531 L 348.367188 338.769531 L 348.367188 321.535156 "
       style=" stroke:none;fill-rule:nonzero;fill:rgb(0%,0%,0%);fill-opacity:1;" />
    <path
       id="path148"
       transform="matrix(0.1,0,0,-0.1,0,378.47)"
       d="M 1687.539063 296.379687 C 1687.539063 296.379687 1748.984375 296.379687 1772.578125 296.379687 C 1796.171875 296.379687 1857.617188 296.379687 1857.617188 296.379687 "
       style="fill:none;stroke-width:15.9404;stroke-linecap:butt;stroke-linejoin:miter;stroke:rgb(85.9375%,2.397156%,31.809998%);stroke-opacity:1;stroke-miterlimit:10;" />
    <path
       id="path150"
       d="M 193.496094 353.96875 L 193.496094 353.515625 C 192.242188 353.515625 192.03125 353.515625 192.03125 352.734375 L 192.03125 343.308594 C 192.03125 342.523438 192.242188 342.523438 193.496094 342.523438 L 193.496094 342.070313 C 192.9375 342.105469 192.050781 342.105469 191.457031 342.105469 C 190.867188 342.105469 189.976563 342.105469 189.417969 342.070313 L 189.417969 342.523438 C 190.671875 342.523438 190.882813 342.523438 190.882813 343.308594 L 190.882813 352.734375 C 190.882813 353.515625 190.671875 353.515625 189.417969 353.515625 L 189.417969 353.96875 C 189.976563 353.9375 190.867188 353.9375 191.457031 353.9375 C 192.050781 353.9375 192.9375 353.9375 193.496094 353.96875 "
       style=" stroke:none;fill-rule:nonzero;fill:rgb(0%,0%,0%);fill-opacity:1;" />
    <path
       id="path152"
       d="M 202.714844 353.96875 L 202.714844 353.515625 C 201.601563 353.515625 201.53125 353.445313 201.53125 352.769531 L 201.53125 348.671875 C 201.53125 347.785156 201.355469 346.339844 199.300781 346.339844 C 197.921875 346.339844 197.210938 347.402344 196.949219 348.097656 L 196.929688 348.097656 L 196.929688 346.339844 L 194.875 346.53125 L 194.875 346.984375 C 195.902344 346.984375 196.058594 347.089844 196.058594 347.925781 L 196.058594 352.769531 C 196.058594 353.429688 195.992188 353.515625 194.875 353.515625 L 194.875 353.96875 C 195.292969 353.9375 196.058594 353.9375 196.511719 353.9375 C 196.964844 353.9375 197.75 353.9375 198.167969 353.96875 L 198.167969 353.515625 C 197.054688 353.515625 196.984375 353.445313 196.984375 352.769531 L 196.984375 349.421875 C 196.984375 347.820313 197.960938 346.617188 199.179688 346.617188 C 200.46875 346.617188 200.605469 347.769531 200.605469 348.605469 L 200.605469 352.769531 C 200.605469 353.429688 200.539063 353.515625 199.421875 353.515625 L 199.421875 353.96875 C 199.839844 353.9375 200.605469 353.9375 201.058594 353.9375 C 201.511719 353.9375 202.296875 353.9375 202.714844 353.96875 "
       style=" stroke:none;fill-rule:nonzero;fill:rgb(0%,0%,0%);fill-opacity:1;" />
    <path
       id="path154"
       d="M 211.546875 353.96875 L 211.546875 353.515625 C 210.515625 353.515625 210.359375 353.414063 210.359375 352.578125 L 210.359375 341.878906 L 208.289063 342.070313 L 208.289063 342.523438 C 209.316406 342.523438 209.472656 342.628906 209.472656 343.464844 L 209.472656 347.542969 C 209.402344 347.453125 208.6875 346.339844 207.277344 346.339844 C 205.5 346.339844 203.773438 347.925781 203.773438 350.226563 C 203.773438 352.507813 205.394531 354.109375 207.101563 354.109375 C 208.582031 354.109375 209.351563 352.960938 209.4375 352.835938 L 209.4375 354.109375 Z M 209.4375 351.878906 C 209.4375 352.402344 209.121094 352.875 208.722656 353.222656 C 208.132813 353.742188 207.539063 353.832031 207.207031 353.832031 C 206.703125 353.832031 204.890625 353.570313 204.890625 350.242188 C 204.890625 346.828125 206.910156 346.617188 207.363281 346.617188 C 208.164063 346.617188 208.808594 347.070313 209.210938 347.699219 C 209.4375 348.0625 209.4375 348.117188 209.4375 348.429688 L 209.4375 351.878906 "
       style=" stroke:none;fill-rule:nonzero;fill:rgb(0%,0%,0%);fill-opacity:1;" />
    <path
       id="path156"
       d="M 220.515625 353.96875 L 220.515625 353.515625 C 219.488281 353.515625 219.328125 353.414063 219.328125 352.578125 L 219.328125 346.339844 L 217.222656 346.53125 L 217.222656 346.984375 C 218.25 346.984375 218.40625 347.089844 218.40625 347.925781 L 218.40625 351.09375 C 218.40625 352.558594 217.621094 353.832031 216.335938 353.832031 C 214.90625 353.832031 214.78125 352.976563 214.78125 352.070313 L 214.78125 346.339844 L 212.675781 346.53125 L 212.675781 346.984375 C 213.371094 346.984375 213.84375 346.984375 213.859375 347.679688 L 213.859375 351.027344 C 213.859375 352.195313 213.859375 352.941406 214.3125 353.429688 C 214.539063 353.65625 214.976563 354.109375 216.230469 354.109375 C 217.710938 354.109375 218.285156 352.855469 218.425781 352.488281 L 218.441406 352.488281 L 218.441406 354.109375 L 220.515625 353.96875 "
       style=" stroke:none;fill-rule:nonzero;fill:rgb(0%,0%,0%);fill-opacity:1;" />
    <path
       id="path158"
       d="M 227.691406 351.914063 C 227.691406 351.84375 227.671875 351.792969 227.550781 351.792969 C 227.429688 351.792969 227.410156 351.808594 227.34375 352.035156 C 226.890625 353.445313 225.894531 353.796875 225.148438 353.796875 C 224.03125 353.796875 222.691406 352.769531 222.691406 350.1875 C 222.691406 347.542969 223.980469 346.582031 225.007813 346.582031 C 225.6875 346.582031 226.695313 346.914063 227.078125 347.871094 C 226.75 347.871094 226.261719 347.871094 226.261719 348.484375 C 226.261719 348.96875 226.664063 349.109375 226.890625 349.109375 C 227.011719 349.109375 227.515625 349.058594 227.515625 348.445313 C 227.515625 347.210938 226.332031 346.269531 224.988281 346.269531 C 223.140625 346.269531 221.574219 347.976563 221.574219 350.207031 C 221.574219 352.523438 223.214844 354.109375 224.988281 354.109375 C 227.148438 354.109375 227.691406 352.105469 227.691406 351.914063 "
       style=" stroke:none;fill-rule:nonzero;fill:rgb(0%,0%,0%);fill-opacity:1;" />
    <path
       id="path160"
       d="M 233.449219 351.808594 L 233.449219 350.816406 L 233.132813 350.816406 L 233.132813 351.792969 C 233.132813 352.996094 232.664063 353.796875 231.933594 353.796875 C 231.429688 353.796875 230.730469 353.445313 230.730469 351.863281 L 230.730469 346.929688 L 233.171875 346.929688 L 233.171875 346.476563 L 230.730469 346.476563 L 230.730469 343.257813 L 230.417969 343.257813 C 230.382813 345.050781 229.773438 346.617188 228.292969 346.652344 L 228.292969 346.929688 L 229.808594 346.929688 L 229.808594 351.828125 C 229.808594 352.15625 229.808594 354.109375 231.828125 354.109375 C 232.855469 354.109375 233.449219 353.097656 233.449219 351.808594 "
       style=" stroke:none;fill-rule:nonzero;fill:rgb(0%,0%,0%);fill-opacity:1;" />
    <path
       id="path162"
       d="M 241.710938 350.242188 C 241.710938 348.011719 240.089844 346.269531 238.1875 346.269531 C 236.289063 346.269531 234.671875 348.011719 234.671875 350.242188 C 234.671875 352.4375 236.289063 354.109375 238.1875 354.109375 C 240.089844 354.109375 241.710938 352.4375 241.710938 350.242188 Z M 240.59375 350.101563 C 240.59375 350.78125 240.558594 351.828125 240.089844 352.664063 C 239.601563 353.464844 238.851563 353.796875 238.1875 353.796875 C 237.371094 353.796875 236.671875 353.308594 236.273438 352.628906 C 235.839844 351.84375 235.785156 350.867188 235.785156 350.101563 C 235.785156 349.371094 235.820313 348.464844 236.273438 347.679688 C 236.621094 347.105469 237.300781 346.546875 238.1875 346.546875 C 238.972656 346.546875 239.636719 346.984375 240.054688 347.59375 C 240.59375 348.414063 240.59375 349.5625 240.59375 350.101563 "
       style=" stroke:none;fill-rule:nonzero;fill:rgb(0%,0%,0%);fill-opacity:1;" />
    <path
       id="path164"
       d="M 248.003906 347.246094 C 248.003906 346.6875 247.445313 346.339844 246.851563 346.339844 C 245.527344 346.339844 244.953125 347.628906 244.777344 348.238281 L 244.761719 348.238281 L 244.761719 346.339844 L 242.742188 346.53125 L 242.742188 346.984375 C 243.769531 346.984375 243.925781 347.089844 243.925781 347.925781 L 243.925781 352.769531 C 243.925781 353.429688 243.855469 353.515625 242.742188 353.515625 L 242.742188 353.96875 C 243.15625 353.9375 243.960938 353.9375 244.414063 353.9375 C 244.917969 353.9375 245.804688 353.9375 246.277344 353.96875 L 246.277344 353.515625 C 245.023438 353.515625 244.8125 353.515625 244.8125 352.734375 L 244.8125 349.859375 C 244.8125 348.1875 245.527344 346.617188 246.835938 346.617188 C 246.957031 346.617188 247.078125 346.636719 247.199219 346.6875 C 247.199219 346.6875 246.816406 346.808594 246.816406 347.261719 C 246.816406 347.679688 247.148438 347.855469 247.410156 347.855469 C 247.617188 347.855469 248.003906 347.734375 248.003906 347.246094 "
       style=" stroke:none;fill-rule:nonzero;fill:rgb(0%,0%,0%);fill-opacity:1;" />
    <path
       id="path166"
       d="M 260.390625 351.914063 C 260.390625 351.84375 260.371094 351.792969 260.25 351.792969 C 260.128906 351.792969 260.109375 351.808594 260.042969 352.035156 C 259.589844 353.445313 258.59375 353.796875 257.847656 353.796875 C 256.730469 353.796875 255.390625 352.769531 255.390625 350.1875 C 255.390625 347.542969 256.679688 346.582031 257.707031 346.582031 C 258.386719 346.582031 259.398438 346.914063 259.78125 347.871094 C 259.449219 347.871094 258.960938 347.871094 258.960938 348.484375 C 258.960938 348.96875 259.363281 349.109375 259.589844 349.109375 C 259.710938 349.109375 260.214844 349.058594 260.214844 348.445313 C 260.214844 347.210938 259.03125 346.269531 257.6875 346.269531 C 255.84375 346.269531 254.273438 347.976563 254.273438 350.207031 C 254.273438 352.523438 255.914063 354.109375 257.6875 354.109375 C 259.851563 354.109375 260.390625 352.105469 260.390625 351.914063 "
       style=" stroke:none;fill-rule:nonzero;fill:rgb(0%,0%,0%);fill-opacity:1;" />
    <path
       id="path168"
       d="M 269.117188 353.96875 L 269.117188 353.515625 C 268.089844 353.515625 267.929688 353.414063 267.929688 352.578125 L 267.929688 346.339844 L 265.820313 346.53125 L 265.820313 346.984375 C 266.851563 346.984375 267.007813 347.089844 267.007813 347.925781 L 267.007813 351.09375 C 267.007813 352.558594 266.222656 353.832031 264.933594 353.832031 C 263.503906 353.832031 263.382813 352.976563 263.382813 352.070313 L 263.382813 346.339844 L 261.273438 346.53125 L 261.273438 346.984375 C 261.972656 346.984375 262.441406 346.984375 262.460938 347.679688 L 262.460938 351.027344 C 262.460938 352.195313 262.460938 352.941406 262.914063 353.429688 C 263.140625 353.65625 263.574219 354.109375 264.828125 354.109375 C 266.308594 354.109375 266.882813 352.855469 267.023438 352.488281 L 267.042969 352.488281 L 267.042969 354.109375 L 269.117188 353.96875 "
       style=" stroke:none;fill-rule:nonzero;fill:rgb(0%,0%,0%);fill-opacity:1;" />
    <path
       id="path170"
       d="M 275.503906 347.246094 C 275.503906 346.6875 274.945313 346.339844 274.351563 346.339844 C 273.027344 346.339844 272.453125 347.628906 272.277344 348.238281 L 272.261719 348.238281 L 272.261719 346.339844 L 270.242188 346.53125 L 270.242188 346.984375 C 271.269531 346.984375 271.425781 347.089844 271.425781 347.925781 L 271.425781 352.769531 C 271.425781 353.429688 271.355469 353.515625 270.242188 353.515625 L 270.242188 353.96875 C 270.65625 353.9375 271.460938 353.9375 271.914063 353.9375 C 272.417969 353.9375 273.304688 353.9375 273.777344 353.96875 L 273.777344 353.515625 C 272.523438 353.515625 272.3125 353.515625 272.3125 352.734375 L 272.3125 349.859375 C 272.3125 348.1875 273.027344 346.617188 274.335938 346.617188 C 274.457031 346.617188 274.578125 346.636719 274.699219 346.6875 C 274.699219 346.6875 274.316406 346.808594 274.316406 347.261719 C 274.316406 347.679688 274.648438 347.855469 274.910156 347.855469 C 275.117188 347.855469 275.503906 347.734375 275.503906 347.246094 "
       style=" stroke:none;fill-rule:nonzero;fill:rgb(0%,0%,0%);fill-opacity:1;" />
    <path
       id="path172"
       d="M 281.601563 347.246094 C 281.601563 346.6875 281.042969 346.339844 280.453125 346.339844 C 279.128906 346.339844 278.554688 347.628906 278.378906 348.238281 L 278.359375 348.238281 L 278.359375 346.339844 L 276.339844 346.53125 L 276.339844 346.984375 C 277.367188 346.984375 277.523438 347.089844 277.523438 347.925781 L 277.523438 352.769531 C 277.523438 353.429688 277.453125 353.515625 276.339844 353.515625 L 276.339844 353.96875 C 276.757813 353.9375 277.558594 353.9375 278.011719 353.9375 C 278.515625 353.9375 279.40625 353.9375 279.878906 353.96875 L 279.878906 353.515625 C 278.621094 353.515625 278.414063 353.515625 278.414063 352.734375 L 278.414063 349.859375 C 278.414063 348.1875 279.128906 346.617188 280.433594 346.617188 C 280.554688 346.617188 280.679688 346.636719 280.800781 346.6875 C 280.800781 346.6875 280.417969 346.808594 280.417969 347.261719 C 280.417969 347.679688 280.746094 347.855469 281.007813 347.855469 C 281.21875 347.855469 281.601563 347.734375 281.601563 347.246094 "
       style=" stroke:none;fill-rule:nonzero;fill:rgb(0%,0%,0%);fill-opacity:1;" />
    <path
       id="path174"
       d="M 288.707031 349.597656 C 288.707031 347.820313 287.765625 346.269531 285.78125 346.269531 C 283.933594 346.269531 282.46875 348.03125 282.46875 350.171875 C 282.46875 352.4375 284.125 354.109375 285.972656 354.109375 C 287.921875 354.109375 288.691406 352.261719 288.691406 351.898438 C 288.691406 351.773438 288.550781 351.773438 288.550781 351.773438 C 288.429688 351.773438 288.410156 351.808594 288.34375 352.019531 C 287.957031 353.203125 287 353.796875 286.09375 353.796875 C 285.34375 353.796875 284.59375 353.378906 284.125 352.609375 C 283.585938 351.722656 283.585938 350.695313 283.585938 349.875 L 288.636719 349.875 C 288.707031 349.804688 288.707031 349.773438 288.707031 349.597656 Z M 287.765625 349.613281 L 283.601563 349.613281 C 283.726563 347.105469 285.066406 346.546875 285.761719 346.546875 C 286.949219 346.546875 287.75 347.664063 287.765625 349.613281 "
       style=" stroke:none;fill-rule:nonzero;fill:rgb(0%,0%,0%);fill-opacity:1;" />
    <path
       id="path176"
       d="M 297.515625 353.96875 L 297.515625 353.515625 C 296.398438 353.515625 296.328125 353.445313 296.328125 352.769531 L 296.328125 348.671875 C 296.328125 347.785156 296.15625 346.339844 294.101563 346.339844 C 292.722656 346.339844 292.007813 347.402344 291.746094 348.097656 L 291.730469 348.097656 L 291.730469 346.339844 L 289.675781 346.53125 L 289.675781 346.984375 C 290.703125 346.984375 290.859375 347.089844 290.859375 347.925781 L 290.859375 352.769531 C 290.859375 353.429688 290.789063 353.515625 289.675781 353.515625 L 289.675781 353.96875 C 290.09375 353.9375 290.859375 353.9375 291.3125 353.9375 C 291.765625 353.9375 292.550781 353.9375 292.96875 353.96875 L 292.96875 353.515625 C 291.851563 353.515625 291.78125 353.445313 291.78125 352.769531 L 291.78125 349.421875 C 291.78125 347.820313 292.757813 346.617188 293.976563 346.617188 C 295.265625 346.617188 295.40625 347.769531 295.40625 348.605469 L 295.40625 352.769531 C 295.40625 353.429688 295.339844 353.515625 294.222656 353.515625 L 294.222656 353.96875 C 294.640625 353.9375 295.40625 353.9375 295.859375 353.9375 C 296.3125 353.9375 297.097656 353.9375 297.515625 353.96875 "
       style=" stroke:none;fill-rule:nonzero;fill:rgb(0%,0%,0%);fill-opacity:1;" />
    <path
       id="path178"
       d="M 302.847656 351.808594 L 302.847656 350.816406 L 302.535156 350.816406 L 302.535156 351.792969 C 302.535156 352.996094 302.0625 353.796875 301.332031 353.796875 C 300.828125 353.796875 300.132813 353.445313 300.132813 351.863281 L 300.132813 346.929688 L 302.570313 346.929688 L 302.570313 346.476563 L 300.132813 346.476563 L 300.132813 343.257813 L 299.816406 343.257813 C 299.78125 345.050781 299.171875 346.617188 297.691406 346.652344 L 297.691406 346.929688 L 299.207031 346.929688 L 299.207031 351.828125 C 299.207031 352.15625 299.207031 354.109375 301.226563 354.109375 C 302.257813 354.109375 302.847656 353.097656 302.847656 351.808594 "
       style=" stroke:none;fill-rule:nonzero;fill:rgb(0%,0%,0%);fill-opacity:1;" />
    <path
       id="path180"
       d="M 313.886719 351.5 C 313.886719 351.414063 313.820313 351.34375 313.714844 351.34375 C 313.558594 351.34375 313.542969 351.398438 313.457031 351.691406 C 313.007813 353.261719 312.296875 353.796875 311.726563 353.796875 C 311.523438 353.796875 311.28125 353.746094 311.28125 353.226563 C 311.28125 352.761719 311.488281 352.242188 311.675781 351.726563 L 312.886719 348.511719 C 312.9375 348.375 313.058594 348.0625 313.058594 347.734375 C 313.058594 347.011719 312.539063 346.355469 311.695313 346.355469 C 310.105469 346.355469 309.464844 348.859375 309.464844 348.996094 C 309.464844 349.066406 309.535156 349.152344 309.65625 349.152344 C 309.8125 349.152344 309.828125 349.082031 309.898438 348.839844 C 310.3125 347.390625 310.96875 346.699219 311.640625 346.699219 C 311.796875 346.699219 312.089844 346.71875 312.089844 347.269531 C 312.089844 347.71875 311.867188 348.289063 311.726563 348.667969 L 310.519531 351.882813 C 310.414063 352.15625 310.3125 352.433594 310.3125 352.742188 C 310.3125 353.523438 310.847656 354.144531 311.675781 354.144531 C 313.265625 354.144531 313.886719 351.621094 313.886719 351.5 Z M 313.746094 343.195313 C 313.746094 342.9375 313.542969 342.625 313.164063 342.625 C 312.765625 342.625 312.316406 343.003906 312.316406 343.453125 C 312.316406 343.882813 312.679688 344.023438 312.886719 344.023438 C 313.351563 344.023438 313.746094 343.574219 313.746094 343.195313 "
       style=" stroke:none;fill-rule:nonzero;fill:rgb(0%,0%,0%);fill-opacity:1;" />
    <path
       id="path182"
       d="M 319.074219 349.347656 C 319.183594 348.894531 319.21875 348.773438 320.265625 348.773438 C 320.589844 348.773438 320.671875 348.773438 320.671875 348.546875 C 320.671875 348.429688 320.539063 348.429688 320.492188 348.429688 C 320.253906 348.429688 319.980469 348.453125 319.742188 348.453125 L 318.144531 348.453125 C 317.917969 348.453125 317.65625 348.429688 317.429688 348.429688 C 317.335938 348.429688 317.203125 348.429688 317.203125 348.65625 C 317.203125 348.773438 317.3125 348.773438 317.488281 348.773438 C 318.21875 348.773438 318.21875 348.871094 318.21875 349 C 318.21875 349.023438 318.21875 349.097656 318.167969 349.273438 L 316.558594 355.6875 C 316.453125 356.105469 316.429688 356.226563 315.59375 356.226563 C 315.367188 356.226563 315.246094 356.226563 315.246094 356.4375 C 315.246094 356.570313 315.320313 356.570313 315.558594 356.570313 L 320.898438 356.570313 C 321.160156 356.570313 321.171875 356.558594 321.257813 356.34375 L 322.171875 353.804688 C 322.199219 353.746094 322.222656 353.671875 322.222656 353.636719 C 322.222656 353.566406 322.164063 353.519531 322.101563 353.519531 C 322.089844 353.519531 322.03125 353.519531 322.007813 353.566406 C 321.984375 353.578125 321.984375 353.601563 321.886719 353.828125 C 321.507813 354.878906 320.96875 356.226563 318.957031 356.226563 L 317.8125 356.226563 C 317.644531 356.226563 317.621094 356.226563 317.546875 356.210938 C 317.417969 356.199219 317.40625 356.175781 317.40625 356.082031 C 317.40625 356 317.429688 355.925781 317.453125 355.820313 L 319.074219 349.347656 "
       style=" stroke:none;fill-rule:nonzero;fill:rgb(0%,0%,0%);fill-opacity:1;" />
    <path
       id="path184"
       d="M 330.15625 358.269531 L 330.15625 357.664063 L 328.535156 357.664063 L 328.535156 341.640625 L 330.15625 341.640625 L 330.15625 341.035156 L 327.929688 341.035156 L 327.929688 358.269531 L 330.15625 358.269531 "
       style=" stroke:none;fill-rule:nonzero;fill:rgb(0%,0%,0%);fill-opacity:1;" />
    <path
       id="path186"
       d="M 336.667969 342.039063 C 336.582031 341.8125 336.546875 341.761719 336.375 341.761719 C 336.203125 341.761719 336.167969 341.8125 336.082031 342.039063 L 332.421875 352.398438 C 332.09375 353.332031 331.402344 353.523438 330.796875 353.523438 L 330.796875 353.96875 C 331.109375 353.9375 331.796875 353.9375 332.128906 353.9375 C 332.558594 353.9375 333.25 353.9375 333.664063 353.96875 L 333.664063 353.523438 C 332.851563 353.488281 332.730469 352.933594 332.730469 352.726563 C 332.730469 352.570313 332.765625 352.484375 332.800781 352.382813 L 333.714844 349.808594 L 338.242188 349.808594 L 339.277344 352.742188 C 339.363281 352.953125 339.363281 352.984375 339.363281 353.054688 C 339.363281 353.523438 338.621094 353.523438 338.292969 353.523438 L 338.292969 353.96875 C 338.792969 353.9375 339.691406 353.9375 340.226563 353.9375 C 340.675781 353.9375 341.539063 353.9375 341.953125 353.96875 L 341.953125 353.523438 C 341.039063 353.523438 340.726563 353.523438 340.503906 352.882813 Z M 335.976563 343.417969 L 338.085938 349.359375 L 333.871094 349.359375 Z M 335.976563 343.417969 "
       style=" stroke:none;fill-rule:nonzero;fill:rgb(0%,0%,0%);fill-opacity:1;" />
    <path
       id="path188"
       d="M 344.769531 341.035156 L 342.542969 341.035156 L 342.542969 341.640625 L 344.164063 341.640625 L 344.164063 357.664063 L 342.542969 357.664063 L 342.542969 358.269531 L 344.769531 358.269531 L 344.769531 341.035156 "
       style=" stroke:none;fill-rule:nonzero;fill:rgb(0%,0%,0%);fill-opacity:1;" />
  </g>
</svg>
