<?xml version="1.0" encoding="UTF-8" standalone="no"?>
<svg
   xmlns:dc="http://purl.org/dc/elements/1.1/"
   xmlns:cc="http://creativecommons.org/ns#"
   xmlns:rdf="http://www.w3.org/1999/02/22-rdf-syntax-ns#"
   xmlns:svg="http://www.w3.org/2000/svg"
   xmlns="http://www.w3.org/2000/svg"
   viewBox="0 0 636.28003 540.79999"
   height="540.79999"
   width="636.28003"
   xml:space="preserve"
   id="svg2"
   version="1.1"><metadata
     id="metadata8"><rdf:RDF><cc:Work
         rdf:about=""><dc:format>image/svg+xml</dc:format><dc:type
           rdf:resource="http://purl.org/dc/dcmitype/StillImage" /></cc:Work></rdf:RDF></metadata><defs
     id="defs6"><clipPath
       id="clipPath72"
       clipPathUnits="userSpaceOnUse"><path
         id="path70"
         d="m 616.738,888.051 h 3968.55 v 2834.68 H 616.738 Z" /></clipPath></defs><g
     transform="matrix(1.3333333,0,0,-1.3333333,0,540.8)"
     id="g10"><g
       transform="scale(0.1)"
       id="g12"><path
         id="path14"
         style="fill:none;stroke:#808080;stroke-width:1.9925;stroke-linecap:butt;stroke-linejoin:miter;stroke-miterlimit:10;stroke-dasharray:none;stroke-opacity:1"
         d="m 1013.59,2284.13 v 42.52 m 396.86,-42.52 v 42.52 m 396.85,-42.52 v 42.52 m 396.86,-42.52 v 42.52 m 396.86,-42.52 v 42.52 m 396.85,-42.52 v 42.52 m 396.86,-42.52 v 42.52 m 396.85,-42.52 v 42.52 m 396.86,-42.52 v 42.52 m 396.85,-42.52 v 42.52" /><path
         id="path16"
         style="fill:none;stroke:#808080;stroke-width:1.9925;stroke-linecap:butt;stroke-linejoin:miter;stroke-miterlimit:10;stroke-dasharray:none;stroke-opacity:1"
         d="M 595.48,922.621 H 638 M 595.48,1383.54 H 638 m -42.52,460.93 H 638 m -42.52,921.85 H 638 m -42.52,460.92 H 638 m -42.52,460.92 H 638" /><path
         id="path18"
         style="fill:none;stroke:#000000;stroke-width:15.9404;stroke-linecap:butt;stroke-linejoin:miter;stroke-miterlimit:10;stroke-dasharray:none;stroke-opacity:1"
         d="M 616.738,2305.39 H 4547.43" /><path
         id="path20"
         style="fill:#000000;fill-opacity:1;fill-rule:nonzero;stroke:none"
         d="m 4585.29,2305.39 -60.57,30.29 22.71,-30.29 -22.71,-30.28" /><path
         id="path22"
         style="fill:none;stroke:#000000;stroke-width:15.9404;stroke-linecap:butt;stroke-linejoin:miter;stroke-miterlimit:10;stroke-dasharray:none;stroke-opacity:1"
         d="M 616.738,888.051 V 3684.88" /><path
         id="path24"
         style="fill:#000000;fill-opacity:1;fill-rule:nonzero;stroke:none"
         d="m 616.738,3722.73 -30.285,-60.57 30.285,22.72 30.289,-22.72" /><path
         id="path26"
         style="fill:#000000;fill-opacity:1;fill-rule:nonzero;stroke:none"
         d="m 1019.94,2217.34 c 0,3.64 -0.17,3.82 -2.6,3.82 -6.73,-8.13 -16.92,-10.72 -26.59,-11.07 -0.516,0 -1.375,0 -1.547,-0.34 -0.172,-0.34 -0.172,-0.69 -0.172,-4.31 5.344,0 14.329,1.03 21.239,5.17 v -91 c 0,-6.05 -0.35,-8.13 -15.207,-8.13 h -5.172 V 2107 c 8.281,0.17 16.919,0.34 25.199,0.34 8.3,0 16.94,-0.17 25.22,-0.34 v 4.48 h -5.17 c -14.86,0 -15.2,1.91 -15.2,8.13 v 97.73" /><path
         id="path28"
         style="fill:#000000;fill-opacity:1;fill-rule:nonzero;stroke:none"
         d="m 1443.02,2133.77 h -3.11 c -1.74,-12.27 -3.11,-14.33 -3.8,-15.38 -0.88,-1.37 -13.3,-1.37 -15.72,-1.37 h -33.16 c 6.22,6.73 18.3,19 32.99,33.15 10.53,10.02 22.8,21.77 22.8,38.86 0,20.38 -16.24,32.13 -34.38,32.13 -18.98,0 -30.56,-16.75 -30.56,-32.3 0,-6.73 5.01,-7.59 7.08,-7.59 1.73,0 6.9,1.03 6.9,7.07 0,5.35 -4.48,6.91 -6.9,6.91 -1.03,0 -2.07,-0.17 -2.77,-0.52 3.28,14.68 13.3,21.93 23.84,21.93 15.02,0 24.86,-11.91 24.86,-27.63 0,-15.03 -8.79,-27.98 -18.64,-39.2 l -34.37,-38.86 V 2107 h 60.8 l 4.14,26.77" /><path
         id="path30"
         style="fill:#000000;fill-opacity:1;fill-rule:nonzero;stroke:none"
         d="m 1806.17,2165.72 c 15.36,0 22.1,-13.3 22.1,-28.67 0,-20.72 -11.05,-28.67 -21.07,-28.67 -9.15,0 -24,4.5 -28.67,17.79 0.86,-0.34 1.74,-0.34 2.6,-0.34 4.14,0 7.25,2.76 7.25,7.25 0,5 -3.8,7.25 -7.25,7.25 -2.94,0 -7.43,-1.38 -7.43,-7.77 0,-15.89 15.53,-28.33 33.85,-28.33 19.17,0 33.84,15.04 33.84,32.65 0,16.75 -13.81,28.84 -30.22,30.73 13.13,2.77 25.74,14.52 25.74,30.23 0,13.47 -13.64,23.32 -29.19,23.32 -15.72,0 -29.53,-9.68 -29.53,-23.49 0,-6.04 4.48,-7.09 6.73,-7.09 3.63,0 6.74,2.25 6.74,6.73 0,4.5 -3.11,6.74 -6.74,6.74 -0.69,0 -1.54,0 -2.25,-0.35 5.02,11.41 18.66,13.47 24.71,13.47 6.04,0 17.43,-2.92 17.43,-19.5 0,-4.84 -0.68,-13.48 -6.56,-21.08 -5.17,-6.73 -11.05,-7.07 -16.75,-7.59 -0.86,0 -4.83,-0.34 -5.53,-0.34 -1.2,-0.18 -1.89,-0.35 -1.89,-1.57 0,-1.2 0.17,-1.37 3.62,-1.37 h 8.47" /><path
         id="path32"
         style="fill:#000000;fill-opacity:1;fill-rule:nonzero;stroke:none"
         d="m 2223.03,2218.73 c 0,3.63 -0.17,3.8 -3.28,3.8 l -51.3,-81.69 v -4.48 h 44.57 v -16.92 c 0,-6.22 -0.36,-7.96 -12.44,-7.96 h -3.28 V 2107 c 5.51,0.34 14.84,0.34 20.72,0.34 5.87,0 15.2,0 20.71,-0.34 v 4.48 h -3.28 c -12.07,0 -12.42,1.74 -12.42,7.96 v 16.92 h 17.61 v 4.48 h -17.61 z m -9.5,-11.4 v -66.49 h -41.62 z" /><path
         id="path34"
         style="fill:#000000;fill-opacity:1;fill-rule:nonzero;stroke:none"
         d="m 2581.69,2208.03 c 1.72,-0.7 8.81,-2.94 16.06,-2.94 16.06,0 24.86,8.63 29.88,13.64 0,1.38 0,2.25 -1.04,2.25 -0.17,0 -0.53,0 -1.9,-0.7 -6.05,-2.58 -13.13,-4.65 -21.77,-4.65 -5.17,0 -12.95,0.68 -21.4,4.48 -1.91,0.87 -2.25,0.87 -2.43,0.87 -0.86,0 -1.03,-0.17 -1.03,-3.64 v -50.07 c 0,-3.11 0,-3.97 1.72,-3.97 0.88,0 1.22,0.34 2.08,1.56 5.53,7.77 13.12,11.05 21.77,11.05 6.03,0 18.98,-3.8 18.98,-33.33 0,-5.53 0,-15.55 -5.17,-23.49 -4.31,-7.07 -11.06,-10.71 -18.49,-10.71 -11.39,0 -22.97,7.95 -26.07,21.25 0.7,-0.18 2.07,-0.52 2.76,-0.52 2.25,0 6.56,1.2 6.56,6.56 0,4.66 -3.28,6.56 -6.56,6.56 -3.97,0 -6.56,-2.42 -6.56,-7.26 0,-15.02 11.92,-30.74 30.22,-30.74 17.79,0 34.72,15.38 34.72,37.66 0,20.72 -13.47,36.78 -30.22,36.78 -8.82,0 -16.24,-3.28 -22.11,-9.5 v 38.86" /><path
         id="path36"
         style="fill:#000000;fill-opacity:1;fill-rule:nonzero;stroke:none"
         d="m 2976.31,2166.58 c 0,41.28 19.33,50.59 30.57,50.59 3.62,0 12.43,-0.69 15.89,-7.42 -2.77,0 -7.96,0 -7.96,-6.05 0,-4.65 3.8,-6.22 6.22,-6.22 1.56,0 6.22,0.71 6.22,6.57 0,10.89 -8.64,17.11 -20.55,17.11 -20.54,0 -42.14,-21.43 -42.14,-59.58 0,-46.99 19.52,-57.35 33.33,-57.35 16.75,0 32.64,15.04 32.64,38.18 0,21.57 -13.98,37.29 -31.61,37.29 -10.53,0 -18.29,-6.9 -22.61,-19 z m 21.58,-58.2 c -21.23,0 -21.23,31.78 -21.23,38.17 0,12.43 5.86,30.39 21.92,30.39 2.94,0 11.4,0 17.11,-11.91 3.09,-6.73 3.09,-13.83 3.09,-22.45 0,-9.33 0,-16.24 -3.62,-23.14 -3.8,-7.08 -9.32,-11.06 -17.27,-11.06" /><path
         id="path38"
         style="fill:#000000;fill-opacity:1;fill-rule:nonzero;stroke:none"
         d="m 3432.89,2214.59 v 3.8 h -40.59 c -20.21,0 -20.55,2.24 -21.24,5.52 h -3.11 l -5.01,-32.28 h 3.11 c 0.53,3.28 1.73,12.07 3.81,15.35 1.03,1.4 13.81,1.4 16.75,1.4 h 37.98 l -19.17,-28.5 c -12.78,-19.18 -21.58,-45.08 -21.58,-67.69 0,-2.08 0,-7.96 6.22,-7.96 6.22,0 6.22,5.88 6.22,8.13 v 7.94 c 0,28.33 4.83,46.97 12.77,58.89 l 23.84,35.4" /><path
         id="path40"
         style="fill:#000000;fill-opacity:1;fill-rule:nonzero;stroke:none"
         d="m 3798.97,2169.17 c 10.89,5.53 21.94,13.81 21.94,27.11 0,15.72 -15.21,24.88 -29.19,24.88 -15.72,0 -29.53,-11.41 -29.53,-27.13 0,-4.31 1.03,-11.73 7.76,-18.3 1.74,-1.73 8.99,-6.9 13.66,-10.18 -7.78,-3.97 -25.91,-13.47 -25.91,-32.47 0,-17.78 16.93,-28.85 33.68,-28.85 18.48,0 34.01,13.3 34.01,30.93 0,15.7 -10.53,22.97 -17.44,27.62 z m -22.63,15.19 c -1.37,0.87 -8.28,6.22 -8.28,14.34 0,10.53 10.88,18.47 23.32,18.47 13.64,0 23.65,-9.67 23.65,-20.89 0,-16.06 -17.95,-25.22 -18.83,-25.22 -0.17,0 -0.34,0 -1.72,1.05 z m 31.79,-35.39 c 2.59,-1.91 10.87,-7.61 10.87,-18.14 0,-12.78 -12.78,-22.45 -27.28,-22.45 -15.72,0 -27.63,11.23 -27.63,24.87 0,13.64 10.54,25.05 22.44,30.39 l 21.6,-14.67" /><path
         id="path42"
         style="fill:#000000;fill-opacity:1;fill-rule:nonzero;stroke:none"
         d="m 4209.78,2158.13 c 0,-38 -15.7,-49.75 -28.65,-49.75 -3.97,0 -13.65,0.53 -17.63,7.26 4.5,-0.7 7.78,1.72 7.78,6.03 0,4.67 -3.8,6.22 -6.22,6.22 -1.56,0 -6.22,-0.69 -6.22,-6.56 0,-11.74 10.19,-17.1 22.63,-17.1 19.86,0 40.06,21.77 40.06,59.75 0,47.33 -19.34,57.18 -32.47,57.18 -17.09,0 -33.5,-15.03 -33.5,-38.18 0,-21.4 13.99,-37.29 31.61,-37.29 14.5,0 20.89,13.47 22.61,19.17 z m -22.26,-9.68 c -4.68,0 -11.24,0.86 -16.58,11.22 -3.63,6.74 -3.63,14.67 -3.63,23.14 0,10.19 0,17.27 4.83,24.88 2.42,3.62 6.91,9.48 16.92,9.48 20.38,0 20.38,-31.25 20.38,-38.15 0,-12.27 -5.52,-30.57 -21.92,-30.57" /><path
         id="path44"
         style="fill:#000000;fill-opacity:1;fill-rule:nonzero;stroke:none"
         d="m 4551.94,2217.34 c 0,3.64 -0.17,3.82 -2.6,3.82 -6.73,-8.13 -16.92,-10.72 -26.59,-11.07 -0.52,0 -1.37,0 -1.55,-0.34 -0.17,-0.34 -0.17,-0.69 -0.17,-4.31 5.35,0 14.33,1.03 21.24,5.17 v -91 c 0,-6.05 -0.35,-8.13 -15.21,-8.13 h -5.17 V 2107 c 8.28,0.17 16.92,0.34 25.2,0.34 8.3,0 16.94,-0.17 25.22,-0.34 v 4.48 h -5.17 c -14.86,0 -15.2,1.91 -15.2,8.13 v 97.73" /><path
         id="path46"
         style="fill:#000000;fill-opacity:1;fill-rule:nonzero;stroke:none"
         d="m 4657.53,2162.44 c 0,10.53 -0.17,28.48 -7.42,42.31 -6.39,12.08 -16.58,16.41 -25.56,16.41 -8.3,0 -18.83,-3.82 -25.39,-16.24 -6.91,-12.95 -7.6,-29.01 -7.6,-42.48 0,-9.85 0.17,-24.88 5.53,-38 7.43,-17.78 20.72,-20.21 27.46,-20.21 7.93,0 20.03,3.29 27.11,19.69 5.18,11.92 5.87,25.91 5.87,38.52 z M 4624.55,2107 c -11.05,0 -17.61,9.5 -20.03,22.63 -1.91,10.18 -1.91,25.03 -1.91,34.7 0,13.3 0,24.36 2.25,34.89 3.28,14.67 12.95,19.17 19.69,19.17 7.08,0 16.23,-4.67 19.51,-18.83 2.25,-9.84 2.42,-21.4 2.42,-35.23 0,-11.22 0,-25.03 -2.07,-35.22 -3.63,-18.83 -13.82,-22.11 -19.86,-22.11" /><path
         id="path48"
         style="fill:#000000;fill-opacity:1;fill-rule:nonzero;stroke:none"
         d="m 430.813,913.719 c 2.921,0 6.031,0 6.031,3.453 0,3.453 -3.11,3.453 -6.031,3.453 h -93.438 c -2.937,0 -6.047,0 -6.047,-3.453 0,-3.453 3.11,-3.453 6.047,-3.453 h 93.438" /><path
         id="path50"
         style="fill:#000000;fill-opacity:1;fill-rule:nonzero;stroke:none"
         d="m 468.313,933.578 c 0,41.281 19.328,50.594 30.562,50.594 3.625,0 12.438,-0.688 15.891,-7.422 -2.766,0 -7.953,0 -7.953,-6.047 0,-4.656 3.796,-6.219 6.218,-6.219 1.563,0 6.219,0.704 6.219,6.563 0,10.891 -8.641,17.109 -20.547,17.109 -20.547,0 -42.14,-21.422 -42.14,-59.578 0,-46.984 19.515,-57.344 33.328,-57.344 16.75,0 32.64,15.032 32.64,38.172 0,21.578 -13.984,37.297 -31.609,37.297 -10.531,0 -18.297,-6.906 -22.609,-19 z m 21.578,-58.203 c -21.235,0 -21.235,31.781 -21.235,38.172 0,12.437 5.86,30.391 21.922,30.391 2.938,0 11.406,0 17.11,-11.907 3.093,-6.734 3.093,-13.828 3.093,-22.453 0,-9.328 0,-16.234 -3.625,-23.14 -3.797,-7.079 -9.312,-11.063 -17.265,-11.063" /><path
         id="path52"
         style="fill:#000000;fill-opacity:1;fill-rule:nonzero;stroke:none"
         d="m 430.813,1374.72 c 2.921,0 6.031,0 6.031,3.45 0,3.46 -3.11,3.46 -6.031,3.46 h -93.438 c -2.937,0 -6.047,0 -6.047,-3.46 0,-3.45 3.11,-3.45 6.047,-3.45 h 93.438" /><path
         id="path54"
         style="fill:#000000;fill-opacity:1;fill-rule:nonzero;stroke:none"
         d="m 508.031,1446.73 c 0,3.63 -0.172,3.8 -3.281,3.8 l -51.297,-81.69 v -4.48 h 44.563 v -16.92 c 0,-6.22 -0.36,-7.96 -12.438,-7.96 h -3.281 V 1335 c 5.516,0.34 14.844,0.34 20.719,0.34 5.875,0 15.203,0 20.718,-0.34 v 4.48 h -3.281 c -12.078,0 -12.422,1.74 -12.422,7.96 v 16.92 h 17.61 v 4.48 h -17.61 z m -9.5,-11.4 v -66.49 h -41.625 z" /><path
         id="path56"
         style="fill:#000000;fill-opacity:1;fill-rule:nonzero;stroke:none"
         d="m 430.813,1835.72 c 2.921,0 6.031,0 6.031,3.45 0,3.46 -3.11,3.46 -6.031,3.46 h -93.438 c -2.937,0 -6.047,0 -6.047,-3.46 0,-3.45 3.11,-3.45 6.047,-3.45 h 93.438" /><path
         id="path58"
         style="fill:#000000;fill-opacity:1;fill-rule:nonzero;stroke:none"
         d="m 522.016,1822.77 h -3.11 c -1.734,-12.27 -3.109,-14.33 -3.797,-15.38 -0.875,-1.37 -13.296,-1.37 -15.718,-1.37 h -33.157 c 6.219,6.73 18.297,19 32.985,33.15 10.531,10.02 22.797,21.77 22.797,38.86 0,20.38 -16.235,32.13 -34.375,32.13 -18.985,0 -30.563,-16.75 -30.563,-32.3 0,-6.73 5.016,-7.59 7.078,-7.59 1.735,0 6.907,1.03 6.907,7.07 0,5.35 -4.485,6.91 -6.907,6.91 -1.031,0 -2.062,-0.17 -2.765,-0.52 3.281,14.68 13.297,21.93 23.843,21.93 15.016,0 24.86,-11.91 24.86,-27.63 0,-15.03 -8.797,-27.98 -18.641,-39.2 l -34.375,-38.86 V 1796 h 60.797 l 4.141,26.77" /><path
         id="path60"
         style="fill:#000000;fill-opacity:1;fill-rule:nonzero;stroke:none"
         d="m 522.016,2737.77 h -3.11 c -1.734,-12.27 -3.109,-14.33 -3.797,-15.38 -0.875,-1.37 -13.296,-1.37 -15.718,-1.37 h -33.157 c 6.219,6.73 18.297,19 32.985,33.15 10.531,10.02 22.797,21.77 22.797,38.86 0,20.38 -16.235,32.13 -34.375,32.13 -18.985,0 -30.563,-16.75 -30.563,-32.3 0,-6.73 5.016,-7.59 7.078,-7.59 1.735,0 6.907,1.03 6.907,7.07 0,5.35 -4.485,6.91 -6.907,6.91 -1.031,0 -2.062,-0.17 -2.765,-0.52 3.281,14.68 13.297,21.93 23.843,21.93 15.016,0 24.86,-11.91 24.86,-27.63 0,-15.03 -8.797,-27.98 -18.641,-39.2 l -34.375,-38.86 V 2711 h 60.797 l 4.141,26.77" /><path
         id="path62"
         style="fill:#000000;fill-opacity:1;fill-rule:nonzero;stroke:none"
         d="m 508.031,3283.73 c 0,3.63 -0.172,3.8 -3.281,3.8 l -51.297,-81.69 v -4.48 h 44.563 v -16.92 c 0,-6.22 -0.36,-7.96 -12.438,-7.96 h -3.281 V 3172 c 5.516,0.34 14.844,0.34 20.719,0.34 5.875,0 15.203,0 20.718,-0.34 v 4.48 h -3.281 c -12.078,0 -12.422,1.74 -12.422,7.96 v 16.92 h 17.61 v 4.48 h -17.61 z m -9.5,-11.4 v -66.49 h -41.625 z" /><path
         id="path64"
         style="fill:#000000;fill-opacity:1;fill-rule:nonzero;stroke:none"
         d="m 468.313,3692.58 c 0,41.28 19.328,50.59 30.562,50.59 3.625,0 12.438,-0.69 15.891,-7.42 -2.766,0 -7.953,0 -7.953,-6.05 0,-4.65 3.796,-6.22 6.218,-6.22 1.563,0 6.219,0.71 6.219,6.57 0,10.89 -8.641,17.11 -20.547,17.11 -20.547,0 -42.14,-21.43 -42.14,-59.58 0,-46.99 19.515,-57.35 33.328,-57.35 16.75,0 32.64,15.04 32.64,38.18 0,21.57 -13.984,37.29 -31.609,37.29 -10.531,0 -18.297,-6.9 -22.609,-19 z m 21.578,-58.2 c -21.235,0 -21.235,31.78 -21.235,38.17 0,12.43 5.86,30.39 21.922,30.39 2.938,0 11.406,0 17.11,-11.91 3.093,-6.73 3.093,-13.83 3.093,-22.45 0,-9.33 0,-16.24 -3.625,-23.14 -3.797,-7.08 -9.312,-11.06 -17.265,-11.06" /><g
         id="g66"><g
           clip-path="url(#clipPath72)"
           id="g68"><path
             id="path74"
             style="fill:none;stroke:#009c82;stroke-width:15.9404;stroke-linecap:butt;stroke-linejoin:miter;stroke-miterlimit:10;stroke-dasharray:none;stroke-opacity:1"
             d="M 616.738,2305.39 H 1013.59 L 2204.16,3688.16 4585.29,922.621" /><path
             id="path76"
             style="fill:none;stroke:#db0651;stroke-width:15.9404;stroke-linecap:butt;stroke-linejoin:miter;stroke-miterlimit:10;stroke-dasharray:none;stroke-opacity:1"
             d="m 616.738,2305.39 h 396.852 v 230.46 h 1190.57 v -460.92 h 2381.13" /><path
             id="path78"
             style="fill:none;stroke:#009c82;stroke-width:15.9404;stroke-linecap:butt;stroke-linejoin:miter;stroke-miterlimit:10;stroke-dasharray:29.8883, 29.8883;stroke-dashoffset:0;stroke-opacity:1"
             d="m 616.738,2305.39 h 396.852 v 460.93 h 1190.57 v -921.85 h 2381.13" /><path
             id="path80"
             style="fill:none;stroke:#db0651;stroke-width:15.9404;stroke-linecap:butt;stroke-linejoin:miter;stroke-miterlimit:10;stroke-dasharray:29.8883, 29.8883;stroke-dashoffset:0;stroke-opacity:1"
             d="M 616.738,2305.39 H 1013.59 L 2204.16,2996.78 4585.29,1614" /></g></g><path
         id="path82"
         style="fill:#000000;fill-opacity:1;fill-rule:nonzero;stroke:none"
         d="m 4492.72,2440.42 h 15.87 c 3.29,0 5.02,0 5.02,3.11 0,1.91 -1.03,1.91 -4.48,1.91 h -15.21 l 6.39,25.2 c 0.69,2.42 0.69,2.77 0.69,3.97 0,2.77 -2.25,4.33 -4.48,4.33 -1.39,0 -5.36,-0.52 -6.74,-6.05 l -6.73,-27.45 h -16.24 c -3.45,0 -5.01,0 -5.01,-3.28 0,-1.74 1.22,-1.74 4.5,-1.74 h 15.36 l -11.39,-45.59 c -1.39,-6.05 -1.91,-7.77 -1.91,-10.02 0,-8.11 5.7,-15.54 15.37,-15.54 17.44,0 26.77,25.21 26.77,26.42 0,1.04 -0.69,1.56 -1.73,1.56 -0.35,0 -1.04,0 -1.38,-0.69 -0.17,-0.17 -0.34,-0.34 -1.55,-3.11 -3.64,-8.64 -11.57,-20.72 -21.59,-20.72 -5.19,0 -5.53,4.32 -5.53,8.11 0,0.18 0,3.46 0.51,5.54 l 13.49,54.04" /><path
         id="path84"
         style="fill:#ffffff;fill-opacity:1;fill-rule:nonzero;stroke:none"
         d="m 1197.86,49.7969 h 2806.32 v 830.281 H 1197.86 Z" /><path
         id="path86"
         style="fill:none;stroke:#009c82;stroke-width:15.9404;stroke-linecap:butt;stroke-linejoin:miter;stroke-miterlimit:10;stroke-dasharray:none;stroke-opacity:1"
         d="m 1235.71,762.66 h 170.08" /><path
         id="path88"
         style="fill:#000000;fill-opacity:1;fill-rule:nonzero;stroke:none"
         d="m 1542.19,751.766 c 0,1.75 0,2.437 -1.56,2.437 -1.4,0 -1.4,-0.515 -1.57,-2.094 -1.4,-24.39 -18.83,-39.359 -37.64,-39.359 -17.76,0 -46.17,12.531 -46.17,57.828 0,45.485 28.92,57.672 45.83,57.672 19.69,0 33.97,-17.078 37.28,-41.297 0.34,-2.078 0.34,-2.437 1.92,-2.437 1.91,0 1.91,0.359 1.91,3.484 v 41.297 c 0,3.141 -0.17,3.312 -1.22,3.312 -0.69,0 -0.88,-0.171 -2.09,-2.265 l -7.66,-14.641 c -8.55,10.813 -19,17.078 -32.41,17.078 -29.79,0 -56.79,-26.312 -56.79,-62.203 0,-36.234 27,-62.359 56.96,-62.359 26.66,0 43.21,23.515 43.21,43.547" /><path
         id="path90"
         style="fill:#000000;fill-opacity:1;fill-rule:nonzero;stroke:none"
         d="m 1634.16,711 v 4.531 c -10.28,0 -11.86,1.047 -11.86,9.407 v 62.375 l -21.08,-1.922 v -4.532 c 10.28,0 11.84,-1.046 11.84,-9.406 V 739.75 c 0,-14.641 -7.83,-27.359 -20.72,-27.359 -14.29,0 -15.51,8.547 -15.51,17.593 v 57.329 l -21.08,-1.922 v -4.532 c 6.97,0 11.67,0 11.84,-6.968 v -33.453 c 0,-11.672 0,-19.157 4.54,-24.032 2.26,-2.265 6.62,-6.797 19.17,-6.797 14.79,0 20.54,12.547 21.95,16.204 h 0.17 v -16.204 l 20.74,1.391" /><path
         id="path92"
         style="fill:#000000;fill-opacity:1;fill-rule:nonzero;stroke:none"
         d="m 1697.02,778.25 c 0,5.578 -5.58,9.063 -11.5,9.063 -13.24,0 -18.99,-12.891 -20.74,-19 h -0.17 v 19 l -20.2,-1.922 v -4.532 c 10.28,0 11.84,-1.046 11.84,-9.406 v -48.437 c 0,-6.61 -0.7,-7.485 -11.84,-7.485 V 711 c 4.17,0.344 12.18,0.344 16.72,0.344 5.04,0 13.93,0 18.64,-0.344 v 4.531 c -12.55,0 -14.63,0 -14.63,7.844 v 28.734 c 0,16.735 7.14,32.407 20.2,32.407 1.22,0 2.44,-0.172 3.66,-0.688 0,0 -3.83,-1.219 -3.83,-5.75 0,-4.187 3.31,-5.922 5.92,-5.922 2.1,0 5.93,1.219 5.93,6.094" /><path
         id="path94"
         style="fill:#000000;fill-opacity:1;fill-rule:nonzero;stroke:none"
         d="m 1759.02,778.25 c 0,5.578 -5.58,9.063 -11.5,9.063 -13.24,0 -18.99,-12.891 -20.74,-19 h -0.17 v 19 l -20.2,-1.922 v -4.532 c 10.28,0 11.84,-1.046 11.84,-9.406 v -48.437 c 0,-6.61 -0.7,-7.485 -11.84,-7.485 V 711 c 4.17,0.344 12.18,0.344 16.72,0.344 5.04,0 13.93,0 18.64,-0.344 v 4.531 c -12.55,0 -14.63,0 -14.63,7.844 v 28.734 c 0,16.735 7.14,32.407 20.2,32.407 1.22,0 2.44,-0.172 3.66,-0.688 0,0 -3.83,-1.219 -3.83,-5.75 0,-4.187 3.31,-5.922 5.92,-5.922 2.1,0 5.93,1.219 5.93,6.094" /><path
         id="path96"
         style="fill:#000000;fill-opacity:1;fill-rule:nonzero;stroke:none"
         d="m 1830.08,754.734 c 0,17.766 -9.41,33.266 -29.27,33.266 -18.47,0 -33.11,-17.594 -33.11,-39.016 0,-22.656 16.55,-39.375 35.02,-39.375 19.51,0 27.19,18.469 27.19,22.125 0,1.219 -1.41,1.219 -1.41,1.219 -1.22,0 -1.39,-0.344 -2.08,-2.437 -3.84,-11.844 -13.42,-17.766 -22.48,-17.766 -7.49,0 -14.99,4.172 -19.69,11.844 -5.39,8.875 -5.39,19.156 -5.39,27.344 h 50.52 c 0.7,0.703 0.7,1.046 0.7,2.796 z m -9.41,-0.171 h -41.64 c 1.22,25.078 14.63,30.656 21.6,30.656 11.85,0 19.87,-11.156 20.04,-30.656" /><path
         id="path98"
         style="fill:#000000;fill-opacity:1;fill-rule:nonzero;stroke:none"
         d="m 1917.16,711 v 4.531 c -11.16,0 -11.86,0.703 -11.86,7.485 v 40.953 c 0,8.875 -1.74,23.344 -22.3,23.344 -13.77,0 -20.91,-10.625 -23.52,-17.594 h -0.17 v 17.594 l -20.56,-1.922 v -4.532 c 10.28,0 11.84,-1.046 11.84,-9.406 v -48.437 c 0,-6.61 -0.68,-7.485 -11.84,-7.485 V 711 c 4.19,0.344 11.84,0.344 16.38,0.344 4.53,0 12.37,0 16.54,-0.344 v 4.531 c -11.14,0 -11.84,0.703 -11.84,7.485 v 33.453 c 0,16.031 9.76,28.047 21.95,28.047 12.89,0 14.28,-11.5 14.28,-19.86 v -41.64 c 0,-6.61 -0.68,-7.485 -11.84,-7.485 V 711 c 4.19,0.344 11.84,0.344 16.37,0.344 4.54,0 12.38,0 16.57,-0.344" /><path
         id="path100"
         style="fill:#000000;fill-opacity:1;fill-rule:nonzero;stroke:none"
         d="m 1971.48,732.609 v 9.922 h -3.14 v -9.75 c 0,-12.031 -4.7,-20.031 -12.01,-20.031 -5.05,0 -12.02,3.484 -12.02,19.328 v 49.313 h 24.39 v 4.531 h -24.39 v 32.219 h -3.14 c -0.34,-17.938 -6.45,-33.625 -21.25,-33.969 v -2.781 h 15.16 v -48.969 c 0,-3.297 0,-22.813 20.2,-22.813 10.28,0 16.2,10.11 16.2,23" /><path
         id="path102"
         style="fill:#000000;fill-opacity:1;fill-rule:nonzero;stroke:none"
         d="m 2090.02,732.609 c 0,8.875 -4.71,13.579 -6.97,15.672 -5.22,5.407 -11.33,6.625 -18.64,8.016 -9.58,2.094 -21.78,4.531 -21.78,15.156 0,4.531 2.43,14.11 20.03,14.11 18.65,0 19.68,-17.422 20.04,-23 0.18,-0.86 1.05,-1.032 1.57,-1.032 1.56,0 1.56,0.516 1.56,3.485 v 19.5 c 0,3.14 -0.17,3.312 -1.22,3.312 -0.69,0 -0.86,-0.172 -2.95,-2.781 -0.53,-0.703 -2.1,-2.438 -2.61,-3.141 -5.58,5.922 -13.42,6.094 -16.39,6.094 -19.33,0 -26.3,-10.094 -26.3,-20.203 0,-15.688 17.77,-19.344 22.81,-20.391 10.99,-2.265 14.81,-2.953 18.47,-6.093 2.27,-2.094 6.11,-5.922 6.11,-12.188 0,-7.328 -4.19,-16.734 -20.22,-16.734 -15.15,0 -20.56,11.5 -23.69,26.828 -0.53,2.437 -0.53,2.625 -1.92,2.625 -1.39,0 -1.56,-0.188 -1.56,-3.672 v -25.078 c 0,-3.141 0.17,-3.313 1.22,-3.313 0.87,0 1.05,0.172 1.9,1.563 l 4.72,7.5 c 3.49,-4.703 9.58,-9.235 19.33,-9.235 17.25,0 26.49,9.407 26.49,23" /><path
         id="path104"
         style="fill:#000000;fill-opacity:1;fill-rule:nonzero;stroke:none"
         d="m 2170.09,748.281 c 0,22.297 -16.2,39.719 -35.2,39.719 -18.98,0 -35.19,-17.422 -35.19,-39.719 0,-21.953 16.21,-38.672 35.19,-38.672 19,0 35.2,16.719 35.2,38.672 z m -11.15,1.391 c 0,-6.797 -0.35,-17.25 -5.05,-25.609 -4.87,-8.016 -12.37,-11.313 -19,-11.313 -8.19,0 -15.16,4.875 -19.16,11.672 -4.35,7.828 -4.87,17.594 -4.87,25.25 0,7.328 0.34,16.375 4.87,24.219 3.49,5.75 10.29,11.328 19.16,11.328 7.84,0 14.47,-4.36 18.64,-10.453 5.41,-8.188 5.41,-19.688 5.41,-25.094" /><path
         id="path106"
         style="fill:#000000;fill-opacity:1;fill-rule:nonzero;stroke:none"
         d="m 2259.16,711 v 4.531 c -10.28,0 -11.86,1.047 -11.86,9.407 v 62.375 l -21.08,-1.922 v -4.532 c 10.28,0 11.84,-1.046 11.84,-9.406 V 739.75 c 0,-14.641 -7.83,-27.359 -20.72,-27.359 -14.29,0 -15.51,8.547 -15.51,17.593 v 57.329 l -21.08,-1.922 v -4.532 c 6.97,0 11.67,0 11.84,-6.968 v -33.453 c 0,-11.672 0,-19.157 4.54,-24.032 2.26,-2.265 6.62,-6.797 19.17,-6.797 14.79,0 20.54,12.547 21.95,16.204 h 0.17 v -16.204 l 20.74,1.391" /><path
         id="path108"
         style="fill:#000000;fill-opacity:1;fill-rule:nonzero;stroke:none"
         d="m 2322.02,778.25 c 0,5.578 -5.58,9.063 -11.5,9.063 -13.24,0 -18.99,-12.891 -20.74,-19 h -0.17 v 19 l -20.2,-1.922 v -4.532 c 10.28,0 11.84,-1.046 11.84,-9.406 v -48.437 c 0,-6.61 -0.7,-7.485 -11.84,-7.485 V 711 c 4.17,0.344 12.18,0.344 16.72,0.344 5.04,0 13.93,0 18.64,-0.344 v 4.531 c -12.55,0 -14.63,0 -14.63,7.844 v 28.734 c 0,16.735 7.14,32.407 20.2,32.407 1.22,0 2.44,-0.172 3.66,-0.688 0,0 -3.83,-1.219 -3.83,-5.75 0,-4.187 3.31,-5.922 5.92,-5.922 2.1,0 5.93,1.219 5.93,6.094" /><path
         id="path110"
         style="fill:#000000;fill-opacity:1;fill-rule:nonzero;stroke:none"
         d="m 2392.91,731.563 c 0,0.687 -0.18,1.218 -1.41,1.218 -1.22,0 -1.39,-0.172 -2.08,-2.437 -4.53,-14.11 -14.47,-17.594 -21.95,-17.594 -11.16,0 -24.56,10.266 -24.56,36.063 0,26.468 12.89,36.062 23.17,36.062 6.78,0 16.89,-3.312 20.72,-12.891 -3.3,0 -8.19,0 -8.19,-6.109 0,-4.875 4.02,-6.266 6.28,-6.266 1.22,0 6.27,0.516 6.27,6.625 0,12.36 -11.85,21.766 -25.27,21.766 -18.47,0 -34.14,-17.062 -34.14,-39.375 0,-23.172 16.38,-39.016 34.14,-39.016 21.61,0 27.02,20.032 27.02,21.954" /><path
         id="path112"
         style="fill:#000000;fill-opacity:1;fill-rule:nonzero;stroke:none"
         d="m 2464.08,754.734 c 0,17.766 -9.41,33.266 -29.27,33.266 -18.47,0 -33.11,-17.594 -33.11,-39.016 0,-22.656 16.55,-39.375 35.02,-39.375 19.51,0 27.19,18.469 27.19,22.125 0,1.219 -1.41,1.219 -1.41,1.219 -1.22,0 -1.39,-0.344 -2.08,-2.437 -3.84,-11.844 -13.42,-17.766 -22.48,-17.766 -7.49,0 -14.99,4.172 -19.69,11.844 -5.39,8.875 -5.39,19.156 -5.39,27.344 h 50.52 c 0.7,0.703 0.7,1.046 0.7,2.796 z m -9.41,-0.171 h -41.64 c 1.22,25.078 14.63,30.656 21.6,30.656 11.85,0 19.87,-11.156 20.04,-30.656" /><path
         id="path114"
         style="fill:#000000;fill-opacity:1;fill-rule:nonzero;stroke:none"
         d="m 2602.58,781.391 v 4.531 l -10.97,-0.359 c -3.66,0 -9.41,0 -12.89,0.359 v -4.531 c 4.34,-0.36 6.78,-2.438 6.78,-6.969 0,-1.578 0,-1.922 -1.03,-4.359 l -19.17,-48.438 -20.74,52.266 c -1.04,2.265 -1.04,2.609 -1.04,3.312 0,4.188 5.75,4.188 8.36,4.188 v 4.531 c -4.18,-0.359 -11.85,-0.359 -16.19,-0.359 -4.72,0 -10.11,0 -13.94,0.359 v -4.531 c 6.61,0 10.27,0 12.36,-5.407 l 25.27,-63.421 c 1.04,-2.61 1.21,-2.954 2.78,-2.954 1.57,0 1.75,0.344 2.79,2.954 l 23.18,57.671 c 1.56,3.829 4.34,10.797 14.45,11.157" /><path
         id="path116"
         style="fill:#000000;fill-opacity:1;fill-rule:nonzero;stroke:none"
         d="m 2675.09,748.281 c 0,22.297 -16.2,39.719 -35.2,39.719 -18.98,0 -35.19,-17.422 -35.19,-39.719 0,-21.953 16.21,-38.672 35.19,-38.672 19,0 35.2,16.719 35.2,38.672 z m -11.15,1.391 c 0,-6.797 -0.35,-17.25 -5.05,-25.609 -4.87,-8.016 -12.37,-11.313 -19,-11.313 -8.19,0 -15.16,4.875 -19.16,11.672 -4.35,7.828 -4.87,17.594 -4.87,25.25 0,7.328 0.34,16.375 4.87,24.219 3.49,5.75 10.29,11.328 19.16,11.328 7.84,0 14.47,-4.36 18.64,-10.453 5.41,-8.188 5.41,-19.688 5.41,-25.094" /><path
         id="path118"
         style="fill:#000000;fill-opacity:1;fill-rule:nonzero;stroke:none"
         d="m 2718.5,711 v 4.531 c -11.14,0 -11.84,0.703 -11.84,7.485 v 108.89 L 2685.92,830 v -4.531 c 10.28,0 11.85,-1.047 11.85,-9.406 v -93.047 c 0,-6.61 -0.69,-7.485 -11.85,-7.485 V 711 c 4.19,0.344 11.85,0.344 16.21,0.344 4.53,0 12.2,0 16.37,-0.344" /><path
         id="path120"
         style="fill:#000000;fill-opacity:1;fill-rule:nonzero;stroke:none"
         d="m 2777.48,732.609 v 9.922 h -3.14 v -9.75 c 0,-12.031 -4.7,-20.031 -12.01,-20.031 -5.05,0 -12.02,3.484 -12.02,19.328 v 49.313 h 24.39 v 4.531 h -24.39 v 32.219 h -3.14 c -0.34,-17.938 -6.45,-33.625 -21.25,-33.969 v -2.781 h 15.16 v -48.969 c 0,-3.297 0,-22.813 20.2,-22.813 10.28,0 16.2,10.11 16.2,23" /><path
         id="path122"
         style="fill:#000000;fill-opacity:1;fill-rule:nonzero;stroke:none"
         d="m 2864.22,726.5 v 9.766 h -3.13 v -9.938 c 0,-10.625 -4.7,-12.015 -6.96,-12.015 -7.15,0 -7.15,9.062 -7.15,16.718 v 25.094 c 0,11.5 0,17.594 -7.32,24.391 -6.44,5.75 -13.94,7.484 -19.86,7.484 -13.77,0 -23.69,-10.797 -23.69,-22.297 0,-6.437 5.22,-6.797 6.27,-6.797 2.26,0 6.28,1.407 6.28,6.282 0,4.343 -3.32,6.265 -6.28,6.265 -0.69,0 -1.57,-0.172 -2.1,-0.344 3.66,10.969 13.08,14.11 19.17,14.11 8.71,0 18.3,-7.672 18.3,-22.297 v -7.672 c -10.28,-0.344 -22.66,-1.734 -32.41,-6.969 -10.98,-6.093 -14.11,-14.812 -14.11,-21.422 0,-13.421 15.68,-17.25 24.91,-17.25 9.58,0 18.47,5.391 22.3,15.329 0.36,-7.672 5.23,-14.641 12.89,-14.641 3.65,0 12.89,2.453 12.89,16.203 z m -26.47,8.719 c 0,-15.156 -10.81,-22.828 -20.39,-22.828 -8.7,0 -15.5,6.453 -15.5,14.468 0,5.219 2.27,14.454 12.36,20.032 8.37,4.703 17.95,5.406 23.53,5.75 v -17.422" /><path
         id="path124"
         style="fill:#000000;fill-opacity:1;fill-rule:nonzero;stroke:none"
         d="m 2944.58,781.906 c 0,3.313 -2.63,6.797 -8.19,6.797 -6.97,0 -13.08,-3.312 -17.95,-7.844 -5.22,4.704 -11.5,6.454 -17.08,6.454 -13.75,0 -25.61,-10.813 -25.61,-25.266 0,-9.938 5.75,-16.203 7.5,-17.938 -5.23,-6.109 -5.23,-13.25 -5.23,-14.125 0,-4.531 1.75,-11.14 7.67,-14.796 -9.06,-2.266 -16.21,-9.235 -16.21,-17.954 0,-12.546 16.55,-21.781 36.41,-21.781 19.17,0 36.42,8.891 36.42,21.953 0,23.703 -25.78,23.703 -39.2,23.703 -4,0 -11.16,0 -12.02,0.172 -5.4,0.875 -9.06,5.75 -9.06,11.844 0,1.563 0,5.406 3.31,9.234 3.32,-2.609 9.05,-5.578 16.02,-5.578 13.77,0 25.62,10.813 25.62,25.266 0,4.531 -1.4,11.5 -6.62,16.906 4.87,5.219 12.02,6.969 16.03,6.969 0.69,0 1.74,0 2.61,-0.531 -0.7,-0.172 -2.27,-0.875 -2.27,-3.657 0,-2.265 1.57,-3.828 3.83,-3.828 2.63,0 4.02,1.735 4.02,4 z m -27.88,-19.859 c 0,-3.484 0,-22.297 -15.34,-22.297 -15.33,0 -15.33,18.813 -15.33,22.297 0,3.484 0,22.297 15.33,22.297 15.34,0 15.34,-18.813 15.34,-22.297 z m 18.64,-64.813 c 0,-9.578 -12.03,-18.812 -29.45,-18.812 -17.42,0 -29.44,9.234 -29.44,18.812 0,5.407 2.97,10.454 6.8,13.25 4.36,2.954 6.09,2.954 17.94,2.954 14.29,0 34.15,0 34.15,-16.204" /><path
         id="path126"
         style="fill:#000000;fill-opacity:1;fill-rule:nonzero;stroke:none"
         d="m 3013.08,754.734 c 0,17.766 -9.41,33.266 -29.27,33.266 -18.47,0 -33.11,-17.594 -33.11,-39.016 0,-22.656 16.55,-39.375 35.02,-39.375 19.51,0 27.19,18.469 27.19,22.125 0,1.219 -1.41,1.219 -1.41,1.219 -1.22,0 -1.39,-0.344 -2.08,-2.437 -3.84,-11.844 -13.42,-17.766 -22.48,-17.766 -7.49,0 -14.99,4.172 -19.69,11.844 -5.39,8.875 -5.39,19.156 -5.39,27.344 h 50.52 c 0.7,0.703 0.7,1.046 0.7,2.796 z m -9.41,-0.171 h -41.64 c 1.22,25.078 14.63,30.656 21.6,30.656 11.85,0 19.87,-11.156 20.04,-30.656" /><path
         id="path128"
         style="fill:#000000;fill-opacity:1;fill-rule:nonzero;stroke:none"
         d="m 3099.91,751.063 c 4.67,0 16.4,0.343 24.7,3.453 13.12,5.015 14.33,15.031 14.33,18.14 0,7.594 -6.56,14.5 -17.96,14.5 -18.14,0 -44.21,-16.406 -44.21,-47.14 0,-18.141 10.37,-30.75 26.07,-30.75 23.49,0 38.35,18.312 38.35,20.562 0,1.031 -1.03,1.891 -1.74,1.891 -0.51,0 -0.68,-0.172 -2.23,-1.719 -11.06,-14.687 -27.47,-17.266 -34.03,-17.266 -9.85,0 -15.02,7.766 -15.02,20.547 0,2.407 0,6.735 2.6,17.782 z m -8.28,3.453 c 7.42,26.593 23.82,29.187 29.35,29.187 7.6,0 12.79,-4.484 12.79,-11.047 0,-18.14 -27.64,-18.14 -34.89,-18.14 h -7.25" /><path
         id="path130"
         style="fill:#000000;fill-opacity:1;fill-rule:nonzero;stroke:none"
         d="m 3181.33,761.406 c 0,2.75 0,2.86 -2.38,2.86 -2.87,-3.219 -8.82,-7.625 -21.11,-7.625 v -3.453 c 2.75,0 8.71,0 15.27,3.093 v -62.109 c 0,-4.281 -0.36,-5.719 -10.84,-5.719 h -3.71 V 685 c 3.22,0.234 14.78,0.234 18.72,0.234 3.94,0 15.38,0 18.6,-0.234 v 3.453 h -3.71 c -10.48,0 -10.84,1.438 -10.84,5.719 v 67.234" /><path
         id="path132"
         style="fill:#000000;fill-opacity:1;fill-rule:nonzero;stroke:none"
         d="m 3279.58,668 v 6.047 h -16.24 v 160.25 h 16.24 v 6.047 h -22.27 V 668 h 22.27" /><path
         id="path134"
         style="fill:#000000;fill-opacity:1;fill-rule:nonzero;stroke:none"
         d="m 3383.89,813.063 c 1.55,3.796 4.31,11.218 15.89,11.39 v 4.5 c -3.97,-0.344 -8.47,-0.344 -12.78,-0.344 -4.14,0 -11.23,0 -15.2,0.344 v -4.5 c 8.64,-0.515 8.98,-6.562 8.98,-7.594 0,-1.89 -0.51,-3.109 -1.03,-4.484 l -34.03,-88.594 -35.56,93.078 c -0.53,1.204 -0.88,2.079 -0.88,2.938 0,4.656 6.91,4.656 10.53,4.656 v 4.5 c -5.51,-0.344 -13.64,-0.344 -19.33,-0.344 -4.5,0 -12.6,0 -16.75,0.344 v -4.5 c 10.02,0 11.91,-0.687 13.99,-6.203 L 3338.81,711 c 0.88,-2.422 1.05,-2.766 2.94,-2.766 1.91,0 2.08,0.344 2.94,2.766 l 39.2,102.063" /><path
         id="path136"
         style="fill:#000000;fill-opacity:1;fill-rule:nonzero;stroke:none"
         d="m 3428.69,840.344 h -22.27 v -6.047 h 16.24 v -160.25 h -16.24 V 668 h 22.27 v 172.344" /><path
         id="path138"
         style="fill:none;stroke:#db0651;stroke-width:15.9404;stroke-linecap:butt;stroke-linejoin:miter;stroke-miterlimit:10;stroke-dasharray:none;stroke-opacity:1"
         d="m 1235.71,567.691 h 170.08" /><path
         id="path140"
         style="fill:#000000;fill-opacity:1;fill-rule:nonzero;stroke:none"
         d="m 1542.19,556.766 c 0,1.75 0,2.437 -1.56,2.437 -1.4,0 -1.4,-0.515 -1.57,-2.094 -1.4,-24.39 -18.83,-39.359 -37.64,-39.359 -17.76,0 -46.17,12.531 -46.17,57.828 0,45.485 28.92,57.672 45.83,57.672 19.69,0 33.97,-17.078 37.28,-41.297 0.34,-2.078 0.34,-2.437 1.92,-2.437 1.91,0 1.91,0.359 1.91,3.484 v 41.297 c 0,3.141 -0.17,3.312 -1.22,3.312 -0.69,0 -0.88,-0.171 -2.09,-2.265 l -7.66,-14.641 c -8.55,10.813 -19,17.078 -32.41,17.078 -29.79,0 -56.79,-26.312 -56.79,-62.203 0,-36.234 27,-62.359 56.96,-62.359 26.66,0 43.21,23.515 43.21,43.547" /><path
         id="path142"
         style="fill:#000000;fill-opacity:1;fill-rule:nonzero;stroke:none"
         d="m 1634.16,516 v 4.531 c -10.28,0 -11.86,1.047 -11.86,9.407 v 62.375 l -21.08,-1.922 v -4.532 c 10.28,0 11.84,-1.046 11.84,-9.406 V 544.75 c 0,-14.641 -7.83,-27.359 -20.72,-27.359 -14.29,0 -15.51,8.547 -15.51,17.593 v 57.329 l -21.08,-1.922 v -4.532 c 6.97,0 11.67,0 11.84,-6.968 v -33.453 c 0,-11.672 0,-19.157 4.54,-24.032 2.26,-2.265 6.62,-6.797 19.17,-6.797 14.79,0 20.54,12.547 21.95,16.204 h 0.17 v -16.204 l 20.74,1.391" /><path
         id="path144"
         style="fill:#000000;fill-opacity:1;fill-rule:nonzero;stroke:none"
         d="m 1697.02,583.25 c 0,5.578 -5.58,9.063 -11.5,9.063 -13.24,0 -18.99,-12.891 -20.74,-19 h -0.17 v 19 l -20.2,-1.922 v -4.532 c 10.28,0 11.84,-1.046 11.84,-9.406 v -48.437 c 0,-6.61 -0.7,-7.485 -11.84,-7.485 V 516 c 4.17,0.344 12.18,0.344 16.72,0.344 5.04,0 13.93,0 18.64,-0.344 v 4.531 c -12.55,0 -14.63,0 -14.63,7.844 v 28.734 c 0,16.735 7.14,32.407 20.2,32.407 1.22,0 2.44,-0.172 3.66,-0.688 0,0 -3.83,-1.219 -3.83,-5.75 0,-4.187 3.31,-5.922 5.92,-5.922 2.1,0 5.93,1.219 5.93,6.094" /><path
         id="path146"
         style="fill:#000000;fill-opacity:1;fill-rule:nonzero;stroke:none"
         d="m 1759.02,583.25 c 0,5.578 -5.58,9.063 -11.5,9.063 -13.24,0 -18.99,-12.891 -20.74,-19 h -0.17 v 19 l -20.2,-1.922 v -4.532 c 10.28,0 11.84,-1.046 11.84,-9.406 v -48.437 c 0,-6.61 -0.7,-7.485 -11.84,-7.485 V 516 c 4.17,0.344 12.18,0.344 16.72,0.344 5.04,0 13.93,0 18.64,-0.344 v 4.531 c -12.55,0 -14.63,0 -14.63,7.844 v 28.734 c 0,16.735 7.14,32.407 20.2,32.407 1.22,0 2.44,-0.172 3.66,-0.688 0,0 -3.83,-1.219 -3.83,-5.75 0,-4.187 3.31,-5.922 5.92,-5.922 2.1,0 5.93,1.219 5.93,6.094" /><path
         id="path148"
         style="fill:#000000;fill-opacity:1;fill-rule:nonzero;stroke:none"
         d="m 1830.08,559.734 c 0,17.766 -9.41,33.266 -29.27,33.266 -18.47,0 -33.11,-17.594 -33.11,-39.016 0,-22.656 16.55,-39.375 35.02,-39.375 19.51,0 27.19,18.469 27.19,22.125 0,1.219 -1.41,1.219 -1.41,1.219 -1.22,0 -1.39,-0.344 -2.08,-2.437 -3.84,-11.844 -13.42,-17.766 -22.48,-17.766 -7.49,0 -14.99,4.172 -19.69,11.844 -5.39,8.875 -5.39,19.156 -5.39,27.344 h 50.52 c 0.7,0.703 0.7,1.046 0.7,2.796 z m -9.41,-0.171 h -41.64 c 1.22,25.078 14.63,30.656 21.6,30.656 11.85,0 19.87,-11.156 20.04,-30.656" /><path
         id="path150"
         style="fill:#000000;fill-opacity:1;fill-rule:nonzero;stroke:none"
         d="m 1917.16,516 v 4.531 c -11.16,0 -11.86,0.703 -11.86,7.485 v 40.953 c 0,8.875 -1.74,23.344 -22.3,23.344 -13.77,0 -20.91,-10.625 -23.52,-17.594 h -0.17 v 17.594 l -20.56,-1.922 v -4.532 c 10.28,0 11.84,-1.046 11.84,-9.406 v -48.437 c 0,-6.61 -0.68,-7.485 -11.84,-7.485 V 516 c 4.19,0.344 11.84,0.344 16.38,0.344 4.53,0 12.37,0 16.54,-0.344 v 4.531 c -11.14,0 -11.84,0.703 -11.84,7.485 v 33.453 c 0,16.031 9.76,28.047 21.95,28.047 12.89,0 14.28,-11.5 14.28,-19.86 v -41.64 c 0,-6.61 -0.68,-7.485 -11.84,-7.485 V 516 c 4.19,0.344 11.84,0.344 16.37,0.344 4.54,0 12.38,0 16.57,-0.344" /><path
         id="path152"
         style="fill:#000000;fill-opacity:1;fill-rule:nonzero;stroke:none"
         d="m 1971.48,537.609 v 9.922 h -3.14 v -9.75 c 0,-12.031 -4.7,-20.031 -12.01,-20.031 -5.05,0 -12.02,3.484 -12.02,19.328 v 49.313 h 24.39 v 4.531 h -24.39 v 32.219 h -3.14 c -0.34,-17.938 -6.45,-33.625 -21.25,-33.969 v -2.781 h 15.16 v -48.969 c 0,-3.297 0,-22.813 20.2,-22.813 10.28,0 16.2,10.11 16.2,23" /><path
         id="path154"
         style="fill:#000000;fill-opacity:1;fill-rule:nonzero;stroke:none"
         d="m 2090.02,537.609 c 0,8.875 -4.71,13.579 -6.97,15.672 -5.22,5.407 -11.33,6.625 -18.64,8.016 -9.58,2.094 -21.78,4.531 -21.78,15.156 0,4.531 2.43,14.11 20.03,14.11 18.65,0 19.68,-17.422 20.04,-23 0.18,-0.86 1.05,-1.032 1.57,-1.032 1.56,0 1.56,0.516 1.56,3.485 v 19.5 c 0,3.14 -0.17,3.312 -1.22,3.312 -0.69,0 -0.86,-0.172 -2.95,-2.781 -0.53,-0.703 -2.1,-2.438 -2.61,-3.141 -5.58,5.922 -13.42,6.094 -16.39,6.094 -19.33,0 -26.3,-10.094 -26.3,-20.203 0,-15.688 17.77,-19.344 22.81,-20.391 10.99,-2.265 14.81,-2.953 18.47,-6.093 2.27,-2.094 6.11,-5.922 6.11,-12.188 0,-7.328 -4.19,-16.734 -20.22,-16.734 -15.15,0 -20.56,11.5 -23.69,26.828 -0.53,2.437 -0.53,2.625 -1.92,2.625 -1.39,0 -1.56,-0.188 -1.56,-3.672 v -25.078 c 0,-3.141 0.17,-3.313 1.22,-3.313 0.87,0 1.05,0.172 1.9,1.563 l 4.72,7.5 c 3.49,-4.703 9.58,-9.235 19.33,-9.235 17.25,0 26.49,9.407 26.49,23" /><path
         id="path156"
         style="fill:#000000;fill-opacity:1;fill-rule:nonzero;stroke:none"
         d="m 2170.09,553.281 c 0,22.297 -16.2,39.719 -35.2,39.719 -18.98,0 -35.19,-17.422 -35.19,-39.719 0,-21.953 16.21,-38.672 35.19,-38.672 19,0 35.2,16.719 35.2,38.672 z m -11.15,1.391 c 0,-6.797 -0.35,-17.25 -5.05,-25.609 -4.87,-8.016 -12.37,-11.313 -19,-11.313 -8.19,0 -15.16,4.875 -19.16,11.672 -4.35,7.828 -4.87,17.594 -4.87,25.25 0,7.328 0.34,16.375 4.87,24.219 3.49,5.75 10.29,11.328 19.16,11.328 7.84,0 14.47,-4.36 18.64,-10.453 5.41,-8.188 5.41,-19.688 5.41,-25.094" /><path
         id="path158"
         style="fill:#000000;fill-opacity:1;fill-rule:nonzero;stroke:none"
         d="m 2259.16,516 v 4.531 c -10.28,0 -11.86,1.047 -11.86,9.407 v 62.375 l -21.08,-1.922 v -4.532 c 10.28,0 11.84,-1.046 11.84,-9.406 V 544.75 c 0,-14.641 -7.83,-27.359 -20.72,-27.359 -14.29,0 -15.51,8.547 -15.51,17.593 v 57.329 l -21.08,-1.922 v -4.532 c 6.97,0 11.67,0 11.84,-6.968 v -33.453 c 0,-11.672 0,-19.157 4.54,-24.032 2.26,-2.265 6.62,-6.797 19.17,-6.797 14.79,0 20.54,12.547 21.95,16.204 h 0.17 v -16.204 l 20.74,1.391" /><path
         id="path160"
         style="fill:#000000;fill-opacity:1;fill-rule:nonzero;stroke:none"
         d="m 2322.02,583.25 c 0,5.578 -5.58,9.063 -11.5,9.063 -13.24,0 -18.99,-12.891 -20.74,-19 h -0.17 v 19 l -20.2,-1.922 v -4.532 c 10.28,0 11.84,-1.046 11.84,-9.406 v -48.437 c 0,-6.61 -0.7,-7.485 -11.84,-7.485 V 516 c 4.17,0.344 12.18,0.344 16.72,0.344 5.04,0 13.93,0 18.64,-0.344 v 4.531 c -12.55,0 -14.63,0 -14.63,7.844 v 28.734 c 0,16.735 7.14,32.407 20.2,32.407 1.22,0 2.44,-0.172 3.66,-0.688 0,0 -3.83,-1.219 -3.83,-5.75 0,-4.187 3.31,-5.922 5.92,-5.922 2.1,0 5.93,1.219 5.93,6.094" /><path
         id="path162"
         style="fill:#000000;fill-opacity:1;fill-rule:nonzero;stroke:none"
         d="m 2392.91,536.563 c 0,0.687 -0.18,1.218 -1.41,1.218 -1.22,0 -1.39,-0.172 -2.08,-2.437 -4.53,-14.11 -14.47,-17.594 -21.95,-17.594 -11.16,0 -24.56,10.266 -24.56,36.063 0,26.468 12.89,36.062 23.17,36.062 6.78,0 16.89,-3.312 20.72,-12.891 -3.3,0 -8.19,0 -8.19,-6.109 0,-4.875 4.02,-6.266 6.28,-6.266 1.22,0 6.27,0.516 6.27,6.625 0,12.36 -11.85,21.766 -25.27,21.766 -18.47,0 -34.14,-17.062 -34.14,-39.375 0,-23.172 16.38,-39.016 34.14,-39.016 21.61,0 27.02,20.032 27.02,21.954" /><path
         id="path164"
         style="fill:#000000;fill-opacity:1;fill-rule:nonzero;stroke:none"
         d="m 2464.08,559.734 c 0,17.766 -9.41,33.266 -29.27,33.266 -18.47,0 -33.11,-17.594 -33.11,-39.016 0,-22.656 16.55,-39.375 35.02,-39.375 19.51,0 27.19,18.469 27.19,22.125 0,1.219 -1.41,1.219 -1.41,1.219 -1.22,0 -1.39,-0.344 -2.08,-2.437 -3.84,-11.844 -13.42,-17.766 -22.48,-17.766 -7.49,0 -14.99,4.172 -19.69,11.844 -5.39,8.875 -5.39,19.156 -5.39,27.344 h 50.52 c 0.7,0.703 0.7,1.046 0.7,2.796 z m -9.41,-0.171 h -41.64 c 1.22,25.078 14.63,30.656 21.6,30.656 11.85,0 19.87,-11.156 20.04,-30.656" /><path
         id="path166"
         style="fill:#000000;fill-opacity:1;fill-rule:nonzero;stroke:none"
         d="m 2586.91,536.563 c 0,0.687 -0.18,1.218 -1.41,1.218 -1.22,0 -1.39,-0.172 -2.08,-2.437 -4.53,-14.11 -14.47,-17.594 -21.95,-17.594 -11.16,0 -24.56,10.266 -24.56,36.063 0,26.468 12.89,36.062 23.17,36.062 6.78,0 16.89,-3.312 20.72,-12.891 -3.3,0 -8.19,0 -8.19,-6.109 0,-4.875 4.02,-6.266 6.28,-6.266 1.22,0 6.27,0.516 6.27,6.625 0,12.36 -11.85,21.766 -25.27,21.766 -18.47,0 -34.14,-17.062 -34.14,-39.375 0,-23.172 16.38,-39.016 34.14,-39.016 21.61,0 27.02,20.032 27.02,21.954" /><path
         id="path168"
         style="fill:#000000;fill-opacity:1;fill-rule:nonzero;stroke:none"
         d="m 2675.16,516 v 4.531 c -10.28,0 -11.86,1.047 -11.86,9.407 v 62.375 l -21.08,-1.922 v -4.532 c 10.28,0 11.84,-1.046 11.84,-9.406 V 544.75 c 0,-14.641 -7.83,-27.359 -20.72,-27.359 -14.29,0 -15.51,8.547 -15.51,17.593 v 57.329 l -21.08,-1.922 v -4.532 c 6.97,0 11.67,0 11.84,-6.968 v -33.453 c 0,-11.672 0,-19.157 4.54,-24.032 2.26,-2.265 6.62,-6.797 19.17,-6.797 14.79,0 20.54,12.547 21.95,16.204 h 0.17 v -16.204 l 20.74,1.391" /><path
         id="path170"
         style="fill:#000000;fill-opacity:1;fill-rule:nonzero;stroke:none"
         d="m 2738.02,583.25 c 0,5.578 -5.58,9.063 -11.5,9.063 -13.24,0 -18.99,-12.891 -20.74,-19 h -0.17 v 19 l -20.2,-1.922 v -4.532 c 10.28,0 11.84,-1.046 11.84,-9.406 v -48.437 c 0,-6.61 -0.7,-7.485 -11.84,-7.485 V 516 c 4.17,0.344 12.18,0.344 16.72,0.344 5.04,0 13.93,0 18.64,-0.344 v 4.531 c -12.55,0 -14.63,0 -14.63,7.844 v 28.734 c 0,16.735 7.14,32.407 20.2,32.407 1.22,0 2.44,-0.172 3.66,-0.688 0,0 -3.83,-1.219 -3.83,-5.75 0,-4.187 3.31,-5.922 5.92,-5.922 2.1,0 5.93,1.219 5.93,6.094" /><path
         id="path172"
         style="fill:#000000;fill-opacity:1;fill-rule:nonzero;stroke:none"
         d="m 2800.02,583.25 c 0,5.578 -5.58,9.063 -11.5,9.063 -13.24,0 -18.99,-12.891 -20.74,-19 h -0.17 v 19 l -20.2,-1.922 v -4.532 c 10.28,0 11.84,-1.046 11.84,-9.406 v -48.437 c 0,-6.61 -0.7,-7.485 -11.84,-7.485 V 516 c 4.17,0.344 12.18,0.344 16.72,0.344 5.04,0 13.93,0 18.64,-0.344 v 4.531 c -12.55,0 -14.63,0 -14.63,7.844 v 28.734 c 0,16.735 7.14,32.407 20.2,32.407 1.22,0 2.44,-0.172 3.66,-0.688 0,0 -3.83,-1.219 -3.83,-5.75 0,-4.187 3.31,-5.922 5.92,-5.922 2.1,0 5.93,1.219 5.93,6.094" /><path
         id="path174"
         style="fill:#000000;fill-opacity:1;fill-rule:nonzero;stroke:none"
         d="m 2870.08,559.734 c 0,17.766 -9.41,33.266 -29.27,33.266 -18.47,0 -33.11,-17.594 -33.11,-39.016 0,-22.656 16.55,-39.375 35.02,-39.375 19.51,0 27.19,18.469 27.19,22.125 0,1.219 -1.41,1.219 -1.41,1.219 -1.22,0 -1.39,-0.344 -2.08,-2.437 -3.84,-11.844 -13.42,-17.766 -22.48,-17.766 -7.49,0 -14.99,4.172 -19.69,11.844 -5.39,8.875 -5.39,19.156 -5.39,27.344 h 50.52 c 0.7,0.703 0.7,1.046 0.7,2.796 z m -9.41,-0.171 h -41.64 c 1.22,25.078 14.63,30.656 21.6,30.656 11.85,0 19.87,-11.156 20.04,-30.656" /><path
         id="path176"
         style="fill:#000000;fill-opacity:1;fill-rule:nonzero;stroke:none"
         d="m 2958.16,516 v 4.531 c -11.16,0 -11.86,0.703 -11.86,7.485 v 40.953 c 0,8.875 -1.74,23.344 -22.3,23.344 -13.77,0 -20.91,-10.625 -23.52,-17.594 h -0.17 v 17.594 l -20.56,-1.922 v -4.532 c 10.28,0 11.84,-1.046 11.84,-9.406 v -48.437 c 0,-6.61 -0.68,-7.485 -11.84,-7.485 V 516 c 4.19,0.344 11.84,0.344 16.38,0.344 4.53,0 12.37,0 16.54,-0.344 v 4.531 c -11.14,0 -11.84,0.703 -11.84,7.485 v 33.453 c 0,16.031 9.76,28.047 21.95,28.047 12.89,0 14.28,-11.5 14.28,-19.86 v -41.64 c 0,-6.61 -0.68,-7.485 -11.84,-7.485 V 516 c 4.19,0.344 11.84,0.344 16.37,0.344 4.54,0 12.38,0 16.57,-0.344" /><path
         id="path178"
         style="fill:#000000;fill-opacity:1;fill-rule:nonzero;stroke:none"
         d="m 3012.48,537.609 v 9.922 h -3.14 v -9.75 c 0,-12.031 -4.7,-20.031 -12.01,-20.031 -5.05,0 -12.02,3.484 -12.02,19.328 v 49.313 h 24.39 v 4.531 h -24.39 v 32.219 h -3.14 c -0.34,-17.938 -6.45,-33.625 -21.25,-33.969 v -2.781 h 15.16 v -48.969 c 0,-3.297 0,-22.813 20.2,-22.813 10.28,0 16.2,10.11 16.2,23" /><path
         id="path180"
         style="fill:#000000;fill-opacity:1;fill-rule:nonzero;stroke:none"
         d="m 3150.02,585.422 c 3.45,0 4.84,0 4.84,3.281 0,1.735 -1.39,1.735 -4.5,1.735 h -13.98 c 3.28,17.781 5.7,30.046 7.07,35.562 1.05,4.156 4.68,8.125 9.16,8.125 3.62,0 7.25,-1.562 8.98,-3.109 -6.73,-0.688 -8.81,-5.703 -8.81,-8.641 0,-3.453 2.6,-5.516 5.88,-5.516 3.45,0 8.64,2.922 8.64,9.485 0,7.265 -7.27,11.234 -14.86,11.234 -7.42,0 -14.67,-5.531 -18.13,-12.265 -3.11,-6.047 -4.84,-12.266 -8.81,-34.875 h -11.58 c -3.28,0 -5,0 -5,-3.11 0,-1.906 1.03,-1.906 4.49,-1.906 h 11.06 c -3.11,-16.063 -10.19,-55.094 -14.17,-73.563 -2.94,-15.031 -5.52,-27.64 -14.16,-27.64 -0.51,0 -5.53,0 -8.64,3.281 8.81,0.703 8.81,8.297 8.81,8.469 0,3.453 -2.59,5.531 -5.87,5.531 -3.46,0 -8.63,-2.937 -8.63,-9.5 0,-7.437 7.6,-11.234 14.33,-11.234 17.61,0 24.88,31.609 26.77,40.25 3.11,13.297 11.57,59.218 12.43,64.406 h 14.68" /><path
         id="path182"
         style="fill:#000000;fill-opacity:1;fill-rule:nonzero;stroke:none"
         d="m 3190.33,566.406 c 0,2.75 0,2.86 -2.38,2.86 -2.87,-3.219 -8.82,-7.625 -21.11,-7.625 v -3.453 c 2.75,0 8.71,0 15.27,3.093 v -62.109 c 0,-4.281 -0.36,-5.719 -10.84,-5.719 h -3.71 V 490 c 3.22,0.234 14.78,0.234 18.72,0.234 3.94,0 15.38,0 18.6,-0.234 v 3.453 h -3.71 c -10.48,0 -10.84,1.438 -10.84,5.719 v 67.234" /><path
         id="path184"
         style="fill:#000000;fill-opacity:1;fill-rule:nonzero;stroke:none"
         d="m 3288.58,473 v 6.047 h -16.24 v 160.25 h 16.24 v 6.047 h -22.27 V 473 h 22.27" /><path
         id="path186"
         style="fill:#000000;fill-opacity:1;fill-rule:nonzero;stroke:none"
         d="m 3353.69,635.328 c -0.86,2.25 -1.21,2.766 -2.94,2.766 -1.72,0 -2.06,-0.516 -2.94,-2.766 L 3311.2,531.719 c -3.28,-9.328 -10.18,-11.235 -16.23,-11.235 V 516 c 3.11,0.344 10.01,0.344 13.3,0.344 4.32,0 11.23,0 15.37,-0.344 v 4.484 c -8.12,0.344 -9.33,5.875 -9.33,7.954 0,1.546 0.35,2.421 0.69,3.453 l 9.16,25.734 h 45.25 l 10.36,-29.359 c 0.86,-2.078 0.86,-2.422 0.86,-3.11 0,-4.672 -7.43,-4.672 -10.71,-4.672 V 516 c 5,0.344 13.99,0.344 19.35,0.344 4.48,0 13.12,0 17.26,-0.344 v 4.484 c -9.15,0 -12.26,0 -14.5,6.391 z m -6.91,-13.812 21.06,-59.407 h -42.12 z" /><path
         id="path188"
         style="fill:#000000;fill-opacity:1;fill-rule:nonzero;stroke:none"
         d="m 3435.69,645.344 h -22.27 v -6.047 h 16.24 v -160.25 h -16.24 V 473 h 22.27 v 172.344" /><path
         id="path190"
         style="fill:none;stroke:#009c82;stroke-width:15.9404;stroke-linecap:butt;stroke-linejoin:miter;stroke-miterlimit:10;stroke-dasharray:29.8883, 29.8883;stroke-dashoffset:0;stroke-opacity:1"
         d="m 1235.71,372.719 h 170.08" /><path
         id="path192"
         style="fill:#000000;fill-opacity:1;fill-rule:nonzero;stroke:none"
         d="m 1482.95,321 v 4.531 c -12.54,0 -14.62,0 -14.62,7.844 v 94.25 c 0,7.844 2.08,7.844 14.62,7.844 V 440 c -5.57,-0.359 -14.45,-0.359 -20.37,-0.359 -5.92,0 -14.81,0 -20.39,0.359 v -4.531 c 12.54,0 14.64,0 14.64,-7.844 v -94.25 c 0,-7.844 -2.1,-7.844 -14.64,-7.844 V 321 c 5.58,0.344 14.47,0.344 20.39,0.344 5.92,0 14.8,0 20.37,-0.344" /><path
         id="path194"
         style="fill:#000000;fill-opacity:1;fill-rule:nonzero;stroke:none"
         d="m 1575.16,321 v 4.531 c -11.16,0 -11.86,0.703 -11.86,7.485 v 40.953 c 0,8.875 -1.74,23.344 -22.3,23.344 -13.77,0 -20.91,-10.625 -23.52,-17.594 h -0.17 v 17.594 l -20.56,-1.922 v -4.532 c 10.28,0 11.84,-1.046 11.84,-9.406 v -48.437 c 0,-6.61 -0.68,-7.485 -11.84,-7.485 V 321 c 4.19,0.344 11.84,0.344 16.38,0.344 4.53,0 12.37,0 16.54,-0.344 v 4.531 c -11.14,0 -11.84,0.703 -11.84,7.485 v 33.453 c 0,16.031 9.76,28.047 21.95,28.047 12.89,0 14.28,-11.5 14.28,-19.86 v -41.64 c 0,-6.61 -0.68,-7.485 -11.84,-7.485 V 321 c 4.19,0.344 11.84,0.344 16.37,0.344 4.54,0 12.38,0 16.57,-0.344" /><path
         id="path196"
         style="fill:#000000;fill-opacity:1;fill-rule:nonzero;stroke:none"
         d="m 1647.08,364.734 c 0,17.766 -9.41,33.266 -29.27,33.266 -18.47,0 -33.11,-17.594 -33.11,-39.016 0,-22.656 16.55,-39.375 35.02,-39.375 19.51,0 27.19,18.469 27.19,22.125 0,1.219 -1.41,1.219 -1.41,1.219 -1.22,0 -1.39,-0.344 -2.08,-2.437 -3.84,-11.844 -13.42,-17.766 -22.48,-17.766 -7.49,0 -14.99,4.172 -19.69,11.844 -5.39,8.875 -5.39,19.156 -5.39,27.344 h 50.52 c 0.7,0.703 0.7,1.046 0.7,2.796 z m -9.41,-0.171 h -41.64 c 1.22,25.078 14.63,30.656 21.6,30.656 11.85,0 19.87,-11.156 20.04,-30.656" /><path
         id="path198"
         style="fill:#000000;fill-opacity:1;fill-rule:nonzero;stroke:none"
         d="m 1709.02,388.25 c 0,5.578 -5.58,9.063 -11.5,9.063 -13.24,0 -18.99,-12.891 -20.74,-19 h -0.17 v 19 l -20.2,-1.922 v -4.532 c 10.28,0 11.84,-1.046 11.84,-9.406 v -48.437 c 0,-6.61 -0.7,-7.485 -11.84,-7.485 V 321 c 4.17,0.344 12.18,0.344 16.72,0.344 5.04,0 13.93,0 18.64,-0.344 v 4.531 c -12.55,0 -14.63,0 -14.63,7.844 v 28.734 c 0,16.735 7.14,32.407 20.2,32.407 1.22,0 2.44,-0.172 3.66,-0.688 0,0 -3.83,-1.219 -3.83,-5.75 0,-4.187 3.31,-5.922 5.92,-5.922 2.1,0 5.93,1.219 5.93,6.094" /><path
         id="path200"
         style="fill:#000000;fill-opacity:1;fill-rule:nonzero;stroke:none"
         d="m 1765.48,342.609 v 9.922 h -3.14 v -9.75 c 0,-12.031 -4.7,-20.031 -12.01,-20.031 -5.05,0 -12.02,3.484 -12.02,19.328 v 49.313 h 24.39 v 4.531 h -24.39 v 32.219 h -3.14 c -0.34,-17.938 -6.45,-33.625 -21.25,-33.969 v -2.781 h 15.16 v -48.969 c 0,-3.297 0,-22.813 20.2,-22.813 10.28,0 16.2,10.11 16.2,23" /><path
         id="path202"
         style="fill:#000000;fill-opacity:1;fill-rule:nonzero;stroke:none"
         d="m 1811.28,321 v 4.531 c -10.28,0 -10.62,1.047 -10.62,7.313 v 64.469 l -20.03,-1.922 v -4.532 c 9.75,0 11.14,-1.046 11.14,-9.406 v -48.437 c 0,-6.61 -0.69,-7.485 -11.85,-7.485 V 321 c 4.19,0.344 11.67,0.344 16.03,0.344 4.19,0 11.33,0 15.33,-0.344 z m -8.53,105.234 c 0,4.172 -3.31,7.141 -6.97,7.141 -4.19,0 -7.14,-3.312 -7.14,-7.141 0,-4.187 3.3,-7.14 6.97,-7.14 4.17,0 7.14,3.297 7.14,7.14" /><path
         id="path204"
         style="fill:#000000;fill-opacity:1;fill-rule:nonzero;stroke:none"
         d="m 1896.22,336.5 v 9.766 h -3.13 v -9.938 c 0,-10.625 -4.7,-12.015 -6.96,-12.015 -7.15,0 -7.15,9.062 -7.15,16.718 v 25.094 c 0,11.5 0,17.594 -7.32,24.391 -6.44,5.75 -13.94,7.484 -19.86,7.484 -13.77,0 -23.69,-10.797 -23.69,-22.297 0,-6.437 5.22,-6.797 6.27,-6.797 2.26,0 6.28,1.407 6.28,6.282 0,4.343 -3.32,6.265 -6.28,6.265 -0.69,0 -1.57,-0.172 -2.1,-0.344 3.66,10.969 13.08,14.11 19.17,14.11 8.71,0 18.3,-7.672 18.3,-22.297 v -7.672 c -10.28,-0.344 -22.66,-1.734 -32.41,-6.969 -10.98,-6.093 -14.11,-14.812 -14.11,-21.422 0,-13.421 15.68,-17.25 24.91,-17.25 9.58,0 18.47,5.391 22.3,15.329 0.36,-7.672 5.23,-14.641 12.89,-14.641 3.65,0 12.89,2.453 12.89,16.203 z m -26.47,8.719 c 0,-15.156 -10.81,-22.828 -20.39,-22.828 -8.7,0 -15.5,6.453 -15.5,14.468 0,5.219 2.27,14.454 12.36,20.032 8.37,4.703 17.95,5.406 23.53,5.75 v -17.422" /><path
         id="path206"
         style="fill:#000000;fill-opacity:1;fill-rule:nonzero;stroke:none"
         d="m 2003.48,342.609 v 9.922 h -3.14 v -9.75 c 0,-12.031 -4.7,-20.031 -12.01,-20.031 -5.05,0 -12.02,3.484 -12.02,19.328 v 49.313 h 24.39 v 4.531 h -24.39 v 32.219 h -3.14 c -0.34,-17.938 -6.45,-33.625 -21.25,-33.969 v -2.781 h 15.16 v -48.969 c 0,-3.297 0,-22.813 20.2,-22.813 10.28,0 16.2,10.11 16.2,23" /><path
         id="path208"
         style="fill:#000000;fill-opacity:1;fill-rule:nonzero;stroke:none"
         d="m 2087.09,358.281 c 0,22.297 -16.2,39.719 -35.2,39.719 -18.98,0 -35.19,-17.422 -35.19,-39.719 0,-21.953 16.21,-38.672 35.19,-38.672 19,0 35.2,16.719 35.2,38.672 z m -11.15,1.391 c 0,-6.797 -0.35,-17.25 -5.05,-25.609 -4.87,-8.016 -12.37,-11.313 -19,-11.313 -8.19,0 -15.16,4.875 -19.16,11.672 -4.35,7.828 -4.87,17.594 -4.87,25.25 0,7.328 0.34,16.375 4.87,24.219 3.49,5.75 10.29,11.328 19.16,11.328 7.84,0 14.47,-4.36 18.64,-10.453 5.41,-8.188 5.41,-19.688 5.41,-25.094" /><path
         id="path210"
         style="fill:#000000;fill-opacity:1;fill-rule:nonzero;stroke:none"
         d="m 2150.02,388.25 c 0,5.578 -5.58,9.063 -11.5,9.063 -13.24,0 -18.99,-12.891 -20.74,-19 h -0.17 v 19 l -20.2,-1.922 v -4.532 c 10.28,0 11.84,-1.046 11.84,-9.406 v -48.437 c 0,-6.61 -0.7,-7.485 -11.84,-7.485 V 321 c 4.17,0.344 12.18,0.344 16.72,0.344 5.04,0 13.93,0 18.64,-0.344 v 4.531 c -12.55,0 -14.63,0 -14.63,7.844 v 28.734 c 0,16.735 7.14,32.407 20.2,32.407 1.22,0 2.44,-0.172 3.66,-0.688 0,0 -3.83,-1.219 -3.83,-5.75 0,-4.187 3.31,-5.922 5.92,-5.922 2.1,0 5.93,1.219 5.93,6.094" /><path
         id="path212"
         style="fill:#000000;fill-opacity:1;fill-rule:nonzero;stroke:none"
         d="m 2237.45,287.031 v 4.532 c -11.15,0 -11.84,0.687 -11.84,7.484 v 98.266 h -2.8 l -5.22,-17.25 c -4.01,9.234 -11.32,17.25 -23,17.25 -17.76,0 -34.84,-15.86 -34.84,-38.86 0,-22.812 16.03,-38.844 33.45,-38.844 13.41,0 20.91,10.282 23.18,14.11 v -34.672 c 0,-6.625 -0.71,-7.484 -11.85,-7.484 v -4.532 c 4.17,0.344 11.85,0.344 16.38,0.344 4.53,0 12.36,0 16.54,-0.344 z m -20.73,57.844 c 0,-7.5 -6.27,-14.469 -6.8,-14.984 -5.39,-6.11 -11.67,-7.5 -15.84,-7.5 -13.08,0 -23.17,16.547 -23.17,35.89 0,20.391 11.48,35.891 24.9,35.891 13.94,0 20.91,-15.859 20.91,-24.906 v -24.391" /><path
         id="path214"
         style="fill:#000000;fill-opacity:1;fill-rule:nonzero;stroke:none"
         d="m 2322.16,321 v 4.531 c -10.28,0 -11.86,1.047 -11.86,9.407 v 62.375 l -21.08,-1.922 v -4.532 c 10.28,0 11.84,-1.046 11.84,-9.406 V 349.75 c 0,-14.641 -7.83,-27.359 -20.72,-27.359 -14.29,0 -15.51,8.547 -15.51,17.593 v 57.329 l -21.08,-1.922 v -4.532 c 6.97,0 11.67,0 11.84,-6.968 v -33.453 c 0,-11.672 0,-19.157 4.54,-24.032 2.26,-2.265 6.62,-6.797 19.17,-6.797 14.79,0 20.54,12.547 21.95,16.204 h 0.17 v -16.204 l 20.74,1.391" /><path
         id="path216"
         style="fill:#000000;fill-opacity:1;fill-rule:nonzero;stroke:none"
         d="m 2395.08,364.734 c 0,17.766 -9.41,33.266 -29.27,33.266 -18.47,0 -33.11,-17.594 -33.11,-39.016 0,-22.656 16.55,-39.375 35.02,-39.375 19.51,0 27.19,18.469 27.19,22.125 0,1.219 -1.41,1.219 -1.41,1.219 -1.22,0 -1.39,-0.344 -2.08,-2.437 -3.84,-11.844 -13.42,-17.766 -22.48,-17.766 -7.49,0 -14.99,4.172 -19.69,11.844 -5.39,8.875 -5.39,19.156 -5.39,27.344 h 50.52 c 0.7,0.703 0.7,1.046 0.7,2.796 z m -9.41,-0.171 h -41.64 c 1.22,25.078 14.63,30.656 21.6,30.656 11.85,0 19.87,-11.156 20.04,-30.656" /><path
         id="path218"
         style="fill:#000000;fill-opacity:1;fill-rule:nonzero;stroke:none"
         d="m 2481.91,361.063 c 4.67,0 16.4,0.343 24.7,3.453 13.12,5.015 14.33,15.031 14.33,18.14 0,7.594 -6.56,14.5 -17.96,14.5 -18.14,0 -44.21,-16.406 -44.21,-47.14 0,-18.141 10.37,-30.75 26.07,-30.75 23.49,0 38.35,18.312 38.35,20.562 0,1.031 -1.03,1.891 -1.74,1.891 -0.51,0 -0.68,-0.172 -2.23,-1.719 -11.06,-14.687 -27.47,-17.266 -34.03,-17.266 -9.85,0 -15.02,7.766 -15.02,20.547 0,2.407 0,6.735 2.6,17.782 z m -8.28,3.453 c 7.42,26.593 23.82,29.187 29.35,29.187 7.6,0 12.79,-4.484 12.79,-11.047 0,-18.14 -27.64,-18.14 -34.89,-18.14 h -7.25" /><path
         id="path220"
         style="fill:#000000;fill-opacity:1;fill-rule:nonzero;stroke:none"
         d="m 2581.45,315.031 h -2.62 c -0.36,-2.031 -1.31,-8.593 -2.5,-10.5 -0.85,-1.062 -7.64,-1.062 -11.2,-1.062 h -22.07 c 3.22,2.734 10.5,10.359 13.6,13.219 18.12,16.703 24.79,22.89 24.79,34.703 0,13.703 -10.84,22.875 -24.67,22.875 -13.83,0 -21.94,-11.797 -21.94,-22.047 0,-6.078 5.25,-6.078 5.6,-6.078 2.51,0 5.61,1.781 5.61,5.593 0,3.344 -2.27,5.61 -5.61,5.61 -1.06,0 -1.31,0 -1.66,-0.125 2.27,8.109 8.7,13.594 16.44,13.594 10.14,0 16.34,-8.469 16.34,-19.422 0,-10.141 -5.84,-18.953 -12.64,-26.594 l -24.08,-26.938 V 295 h 43.5 l 3.11,20.031" /><path
         id="path222"
         style="fill:#000000;fill-opacity:1;fill-rule:nonzero;stroke:none"
         d="m 2661.58,278 v 6.047 h -16.24 v 160.25 h 16.24 v 6.047 h -22.27 V 278 h 22.27" /><path
         id="path224"
         style="fill:#000000;fill-opacity:1;fill-rule:nonzero;stroke:none"
         d="m 2699.41,436.875 c -1.22,1.906 -1.39,2.078 -4.68,2.078 h -21.92 v -4.5 h 3.28 c 6.91,0 10.02,-0.859 10.54,-1.031 v -95.5 c 0,-4.313 0,-12.438 -13.82,-12.438 V 321 c 3.97,0.344 11.22,0.344 15.53,0.344 4.33,0 11.58,0 15.55,-0.344 v 4.484 c -13.81,0 -13.81,8.125 -13.81,12.438 V 431 c 1.2,-1.031 1.2,-1.375 2.42,-3.109 l 64.06,-104.813 c 1.21,-2.078 1.74,-2.078 2.6,-2.078 1.72,0 1.72,0.516 1.72,3.797 v 97.234 c 0,4.313 0,12.422 13.82,12.422 v 4.5 c -3.98,-0.344 -11.23,-0.344 -15.54,-0.344 -4.32,0 -11.58,0 -15.55,0.344 v -4.5 c 13.81,0 13.81,-8.109 13.81,-12.422 v -79.968 l -58.01,94.812" /><path
         id="path226"
         style="fill:#000000;fill-opacity:1;fill-rule:nonzero;stroke:none"
         d="m 2855.16,364.172 c 0,5.016 -4.14,9.156 -9.16,9.156 -5,0 -9.14,-4.14 -9.14,-9.156 0,-5 4.14,-9.156 9.14,-9.156 5.02,0 9.16,4.156 9.16,9.156" /><path
         id="path228"
         style="fill:#000000;fill-opacity:1;fill-rule:nonzero;stroke:none"
         d="m 3024.73,373.5 c 0,8.641 -1.54,23.141 -22.09,23.141 -11.75,0 -19.86,-7.938 -22.97,-17.266 h -0.17 c -2.08,14.156 -12.27,17.266 -21.94,17.266 -13.64,0 -20.72,-10.532 -23.31,-17.438 h -0.17 v 17.438 l -20.38,-1.907 v -4.484 c 10.19,0 11.74,-1.031 11.74,-9.328 v -48 c 0,-6.563 -0.69,-7.438 -11.74,-7.438 V 321 c 4.14,0.344 11.74,0.344 16.24,0.344 4.48,0 12.25,0 16.4,-0.344 v 4.484 c -11.06,0 -11.75,0.704 -11.75,7.438 v 33.156 c 0,15.875 9.68,27.797 21.77,27.797 12.78,0 14.16,-11.391 14.16,-19.687 v -41.266 c 0,-6.563 -0.69,-7.438 -11.75,-7.438 V 321 c 4.15,0.344 11.75,0.344 16.23,0.344 4.5,0 12.27,0 16.41,-0.344 v 4.484 c -11.05,0 -11.74,0.704 -11.74,7.438 v 33.156 c 0,15.875 9.67,27.797 21.75,27.797 12.78,0 14.17,-11.391 14.17,-19.687 v -41.266 c 0,-6.563 -0.7,-7.438 -11.75,-7.438 V 321 c 4.14,0.344 11.75,0.344 16.24,0.344 4.48,0 12.26,0 16.4,-0.344 v 4.484 c -11.04,0 -11.75,0.704 -11.75,7.438 V 373.5" /><path
         id="path230"
         style="fill:#000000;fill-opacity:1;fill-rule:nonzero;stroke:none"
         d="m 3065.69,450.344 h -22.27 v -6.047 h 16.24 v -160.25 h -16.24 V 278 h 22.27 v 172.344" /><path
         id="path232"
         style="fill:none;stroke:#db0651;stroke-width:15.9404;stroke-linecap:butt;stroke-linejoin:miter;stroke-miterlimit:10;stroke-dasharray:29.8883, 29.8883;stroke-dashoffset:0;stroke-opacity:1"
         d="m 1235.71,172.48 h 170.08" /><path
         id="path234"
         style="fill:#000000;fill-opacity:1;fill-rule:nonzero;stroke:none"
         d="m 1482.95,116 v 4.531 c -12.54,0 -14.62,0 -14.62,7.844 v 94.25 c 0,7.844 2.08,7.844 14.62,7.844 V 235 c -5.57,-0.359 -14.45,-0.359 -20.37,-0.359 -5.92,0 -14.81,0 -20.39,0.359 v -4.531 c 12.54,0 14.64,0 14.64,-7.844 v -94.25 c 0,-7.844 -2.1,-7.844 -14.64,-7.844 V 116 c 5.58,0.344 14.47,0.344 20.39,0.344 5.92,0 14.8,0 20.37,-0.344" /><path
         id="path236"
         style="fill:#000000;fill-opacity:1;fill-rule:nonzero;stroke:none"
         d="m 1575.16,116 v 4.531 c -11.16,0 -11.86,0.703 -11.86,7.485 v 40.953 c 0,8.875 -1.74,23.344 -22.3,23.344 -13.77,0 -20.91,-10.625 -23.52,-17.594 h -0.17 v 17.594 l -20.56,-1.922 v -4.532 c 10.28,0 11.84,-1.046 11.84,-9.406 v -48.437 c 0,-6.61 -0.68,-7.485 -11.84,-7.485 V 116 c 4.19,0.344 11.84,0.344 16.38,0.344 4.53,0 12.37,0 16.54,-0.344 v 4.531 c -11.14,0 -11.84,0.703 -11.84,7.485 v 33.453 c 0,16.031 9.76,28.047 21.95,28.047 12.89,0 14.28,-11.5 14.28,-19.86 v -41.64 c 0,-6.61 -0.68,-7.485 -11.84,-7.485 V 116 c 4.19,0.344 11.84,0.344 16.37,0.344 4.54,0 12.38,0 16.57,-0.344" /><path
         id="path238"
         style="fill:#000000;fill-opacity:1;fill-rule:nonzero;stroke:none"
         d="m 1647.08,159.734 c 0,17.766 -9.41,33.266 -29.27,33.266 -18.47,0 -33.11,-17.594 -33.11,-39.016 0,-22.656 16.55,-39.375 35.02,-39.375 19.51,0 27.19,18.469 27.19,22.125 0,1.219 -1.41,1.219 -1.41,1.219 -1.22,0 -1.39,-0.344 -2.08,-2.437 -3.84,-11.844 -13.42,-17.766 -22.48,-17.766 -7.49,0 -14.99,4.172 -19.69,11.844 -5.39,8.875 -5.39,19.156 -5.39,27.344 h 50.52 c 0.7,0.703 0.7,1.046 0.7,2.796 z m -9.41,-0.171 h -41.64 c 1.22,25.078 14.63,30.656 21.6,30.656 11.85,0 19.87,-11.156 20.04,-30.656" /><path
         id="path240"
         style="fill:#000000;fill-opacity:1;fill-rule:nonzero;stroke:none"
         d="m 1709.02,183.25 c 0,5.578 -5.58,9.063 -11.5,9.063 -13.24,0 -18.99,-12.891 -20.74,-19 h -0.17 v 19 l -20.2,-1.922 v -4.532 c 10.28,0 11.84,-1.046 11.84,-9.406 v -48.437 c 0,-6.61 -0.7,-7.485 -11.84,-7.485 V 116 c 4.17,0.344 12.18,0.344 16.72,0.344 5.04,0 13.93,0 18.64,-0.344 v 4.531 c -12.55,0 -14.63,0 -14.63,7.844 v 28.734 c 0,16.735 7.14,32.407 20.2,32.407 1.22,0 2.44,-0.172 3.66,-0.688 0,0 -3.83,-1.219 -3.83,-5.75 0,-4.187 3.31,-5.922 5.92,-5.922 2.1,0 5.93,1.219 5.93,6.094" /><path
         id="path242"
         style="fill:#000000;fill-opacity:1;fill-rule:nonzero;stroke:none"
         d="m 1765.48,137.609 v 9.922 h -3.14 v -9.75 c 0,-12.031 -4.7,-20.031 -12.01,-20.031 -5.05,0 -12.02,3.484 -12.02,19.328 v 49.313 h 24.39 v 4.531 h -24.39 v 32.219 h -3.14 c -0.34,-17.938 -6.45,-33.625 -21.25,-33.969 v -2.781 h 15.16 v -48.969 c 0,-3.297 0,-22.813 20.2,-22.813 10.28,0 16.2,10.11 16.2,23" /><path
         id="path244"
         style="fill:#000000;fill-opacity:1;fill-rule:nonzero;stroke:none"
         d="m 1811.28,116 v 4.531 c -10.28,0 -10.62,1.047 -10.62,7.313 v 64.469 l -20.03,-1.922 v -4.532 c 9.75,0 11.14,-1.046 11.14,-9.406 v -48.437 c 0,-6.61 -0.69,-7.485 -11.85,-7.485 V 116 c 4.19,0.344 11.67,0.344 16.03,0.344 4.19,0 11.33,0 15.33,-0.344 z m -8.53,105.234 c 0,4.172 -3.31,7.141 -6.97,7.141 -4.19,0 -7.14,-3.312 -7.14,-7.141 0,-4.187 3.3,-7.14 6.97,-7.14 4.17,0 7.14,3.297 7.14,7.14" /><path
         id="path246"
         style="fill:#000000;fill-opacity:1;fill-rule:nonzero;stroke:none"
         d="m 1896.22,131.5 v 9.766 h -3.13 v -9.938 c 0,-10.625 -4.7,-12.015 -6.96,-12.015 -7.15,0 -7.15,9.062 -7.15,16.718 v 25.094 c 0,11.5 0,17.594 -7.32,24.391 -6.44,5.75 -13.94,7.484 -19.86,7.484 -13.77,0 -23.69,-10.797 -23.69,-22.297 0,-6.437 5.22,-6.797 6.27,-6.797 2.26,0 6.28,1.407 6.28,6.282 0,4.343 -3.32,6.265 -6.28,6.265 -0.69,0 -1.57,-0.172 -2.1,-0.344 3.66,10.969 13.08,14.11 19.17,14.11 8.71,0 18.3,-7.672 18.3,-22.297 v -7.672 c -10.28,-0.344 -22.66,-1.734 -32.41,-6.969 -10.98,-6.093 -14.11,-14.812 -14.11,-21.422 0,-13.421 15.68,-17.25 24.91,-17.25 9.58,0 18.47,5.391 22.3,15.329 0.36,-7.672 5.23,-14.641 12.89,-14.641 3.65,0 12.89,2.453 12.89,16.203 z m -26.47,8.719 c 0,-15.156 -10.81,-22.828 -20.39,-22.828 -8.7,0 -15.5,6.453 -15.5,14.468 0,5.219 2.27,14.454 12.36,20.032 8.37,4.703 17.95,5.406 23.53,5.75 v -17.422" /><path
         id="path248"
         style="fill:#000000;fill-opacity:1;fill-rule:nonzero;stroke:none"
         d="m 2028.22,131.5 v 9.766 h -3.13 v -9.938 c 0,-10.625 -4.7,-12.015 -6.96,-12.015 -7.15,0 -7.15,9.062 -7.15,16.718 v 25.094 c 0,11.5 0,17.594 -7.32,24.391 -6.44,5.75 -13.94,7.484 -19.86,7.484 -13.77,0 -23.69,-10.797 -23.69,-22.297 0,-6.437 5.22,-6.797 6.27,-6.797 2.26,0 6.28,1.407 6.28,6.282 0,4.343 -3.32,6.265 -6.28,6.265 -0.69,0 -1.57,-0.172 -2.1,-0.344 3.66,10.969 13.08,14.11 19.17,14.11 8.71,0 18.3,-7.672 18.3,-22.297 v -7.672 c -10.28,-0.344 -22.66,-1.734 -32.41,-6.969 -10.98,-6.093 -14.11,-14.812 -14.11,-21.422 0,-13.421 15.68,-17.25 24.91,-17.25 9.58,0 18.47,5.391 22.3,15.329 0.36,-7.672 5.23,-14.641 12.89,-14.641 3.65,0 12.89,2.453 12.89,16.203 z m -26.47,8.719 c 0,-15.156 -10.81,-22.828 -20.39,-22.828 -8.7,0 -15.5,6.453 -15.5,14.468 0,5.219 2.27,14.454 12.36,20.032 8.37,4.703 17.95,5.406 23.53,5.75 v -17.422" /><path
         id="path250"
         style="fill:#000000;fill-opacity:1;fill-rule:nonzero;stroke:none"
         d="m 2114.16,116 v 4.531 c -11.16,0 -11.86,0.703 -11.86,7.485 v 40.953 c 0,8.875 -1.74,23.344 -22.3,23.344 -13.77,0 -20.91,-10.625 -23.52,-17.594 h -0.17 v 17.594 l -20.56,-1.922 v -4.532 c 10.28,0 11.84,-1.046 11.84,-9.406 v -48.437 c 0,-6.61 -0.68,-7.485 -11.84,-7.485 V 116 c 4.19,0.344 11.84,0.344 16.38,0.344 4.53,0 12.37,0 16.54,-0.344 v 4.531 c -11.14,0 -11.84,0.703 -11.84,7.485 v 33.453 c 0,16.031 9.76,28.047 21.95,28.047 12.89,0 14.28,-11.5 14.28,-19.86 v -41.64 c 0,-6.61 -0.68,-7.485 -11.84,-7.485 V 116 c 4.19,0.344 11.84,0.344 16.37,0.344 4.54,0 12.38,0 16.57,-0.344" /><path
         id="path252"
         style="fill:#000000;fill-opacity:1;fill-rule:nonzero;stroke:none"
         d="m 2198.58,186.906 c 0,3.313 -2.63,6.797 -8.19,6.797 -6.97,0 -13.08,-3.312 -17.95,-7.844 -5.22,4.704 -11.5,6.454 -17.08,6.454 -13.75,0 -25.61,-10.813 -25.61,-25.266 0,-9.938 5.75,-16.203 7.5,-17.938 -5.23,-6.109 -5.23,-13.25 -5.23,-14.125 0,-4.531 1.75,-11.14 7.67,-14.796 -9.06,-2.266 -16.21,-9.235 -16.21,-17.954 0,-12.5465 16.55,-21.7809 36.41,-21.7809 19.17,0 36.42,8.8907 36.42,21.9529 0,23.703 -25.78,23.703 -39.2,23.703 -4,0 -11.16,0 -12.02,0.172 -5.4,0.875 -9.06,5.75 -9.06,11.844 0,1.563 0,5.406 3.31,9.234 3.32,-2.609 9.05,-5.578 16.02,-5.578 13.77,0 25.62,10.813 25.62,25.266 0,4.531 -1.4,11.5 -6.62,16.906 4.87,5.219 12.02,6.969 16.03,6.969 0.69,0 1.74,0 2.61,-0.531 -0.7,-0.172 -2.27,-0.875 -2.27,-3.657 0,-2.265 1.57,-3.828 3.83,-3.828 2.63,0 4.02,1.735 4.02,4 z m -27.88,-19.859 c 0,-3.484 0,-22.297 -15.34,-22.297 -15.33,0 -15.33,18.813 -15.33,22.297 0,3.484 0,22.297 15.33,22.297 15.34,0 15.34,-18.813 15.34,-22.297 z m 18.64,-64.813 c 0,-9.5777 -12.03,-18.8121 -29.45,-18.8121 -17.42,0 -29.44,9.2344 -29.44,18.8121 0,5.407 2.97,10.454 6.8,13.25 4.36,2.954 6.09,2.954 17.94,2.954 14.29,0 34.15,0 34.15,-16.204" /><path
         id="path254"
         style="fill:#000000;fill-opacity:1;fill-rule:nonzero;stroke:none"
         d="m 2284.16,116 v 4.531 c -10.28,0 -11.86,1.047 -11.86,9.407 v 62.375 l -21.08,-1.922 v -4.532 c 10.28,0 11.84,-1.046 11.84,-9.406 V 144.75 c 0,-14.641 -7.83,-27.359 -20.72,-27.359 -14.29,0 -15.51,8.547 -15.51,17.593 v 57.329 l -21.08,-1.922 v -4.532 c 6.97,0 11.67,0 11.84,-6.968 v -33.453 c 0,-11.672 0,-19.157 4.54,-24.032 2.26,-2.265 6.62,-6.797 19.17,-6.797 14.79,0 20.54,12.547 21.95,16.204 h 0.17 v -16.204 l 20.74,1.391" /><path
         id="path256"
         style="fill:#000000;fill-opacity:1;fill-rule:nonzero;stroke:none"
         d="m 2327.5,116 v 4.531 c -11.14,0 -11.84,0.703 -11.84,7.485 v 108.89 L 2294.92,235 v -4.531 c 10.28,0 11.85,-1.047 11.85,-9.406 v -93.047 c 0,-6.61 -0.69,-7.485 -11.85,-7.485 V 116 c 4.19,0.344 11.85,0.344 16.21,0.344 4.53,0 12.2,0 16.37,-0.344" /><path
         id="path258"
         style="fill:#000000;fill-opacity:1;fill-rule:nonzero;stroke:none"
         d="m 2410.22,131.5 v 9.766 h -3.13 v -9.938 c 0,-10.625 -4.7,-12.015 -6.96,-12.015 -7.15,0 -7.15,9.062 -7.15,16.718 v 25.094 c 0,11.5 0,17.594 -7.32,24.391 -6.44,5.75 -13.94,7.484 -19.86,7.484 -13.77,0 -23.69,-10.797 -23.69,-22.297 0,-6.437 5.22,-6.797 6.27,-6.797 2.26,0 6.28,1.407 6.28,6.282 0,4.343 -3.32,6.265 -6.28,6.265 -0.69,0 -1.57,-0.172 -2.1,-0.344 3.66,10.969 13.08,14.11 19.17,14.11 8.71,0 18.3,-7.672 18.3,-22.297 v -7.672 c -10.28,-0.344 -22.66,-1.734 -32.41,-6.969 -10.98,-6.093 -14.11,-14.812 -14.11,-21.422 0,-13.421 15.68,-17.25 24.91,-17.25 9.58,0 18.47,5.391 22.3,15.329 0.36,-7.672 5.23,-14.641 12.89,-14.641 3.65,0 12.89,2.453 12.89,16.203 z m -26.47,8.719 c 0,-15.156 -10.81,-22.828 -20.39,-22.828 -8.7,0 -15.5,6.453 -15.5,14.468 0,5.219 2.27,14.454 12.36,20.032 8.37,4.703 17.95,5.406 23.53,5.75 v -17.422" /><path
         id="path260"
         style="fill:#000000;fill-opacity:1;fill-rule:nonzero;stroke:none"
         d="m 2470.02,183.25 c 0,5.578 -5.58,9.063 -11.5,9.063 -13.24,0 -18.99,-12.891 -20.74,-19 h -0.17 v 19 l -20.2,-1.922 v -4.532 c 10.28,0 11.84,-1.046 11.84,-9.406 v -48.437 c 0,-6.61 -0.7,-7.485 -11.84,-7.485 V 116 c 4.17,0.344 12.18,0.344 16.72,0.344 5.04,0 13.93,0 18.64,-0.344 v 4.531 c -12.55,0 -14.63,0 -14.63,7.844 v 28.734 c 0,16.735 7.14,32.407 20.2,32.407 1.22,0 2.44,-0.172 3.66,-0.688 0,0 -3.83,-1.219 -3.83,-5.75 0,-4.187 3.31,-5.922 5.92,-5.922 2.1,0 5.93,1.219 5.93,6.094" /><path
         id="path262"
         style="fill:#000000;fill-opacity:1;fill-rule:nonzero;stroke:none"
         d="m 2609.58,186.391 v 4.531 l -10.97,-0.359 c -3.66,0 -9.41,0 -12.89,0.359 v -4.531 c 4.34,-0.36 6.78,-2.438 6.78,-6.969 0,-1.578 0,-1.922 -1.03,-4.359 l -19.17,-48.438 -20.74,52.266 c -1.04,2.265 -1.04,2.609 -1.04,3.312 0,4.188 5.75,4.188 8.36,4.188 v 4.531 c -4.18,-0.359 -11.85,-0.359 -16.19,-0.359 -4.72,0 -10.11,0 -13.94,0.359 v -4.531 c 6.61,0 10.27,0 12.36,-5.407 l 25.27,-63.421 c 1.04,-2.61 1.21,-2.954 2.78,-2.954 1.57,0 1.75,0.344 2.79,2.954 l 23.18,57.671 c 1.56,3.829 4.34,10.797 14.45,11.157" /><path
         id="path264"
         style="fill:#000000;fill-opacity:1;fill-rule:nonzero;stroke:none"
         d="m 2674.08,159.734 c 0,17.766 -9.41,33.266 -29.27,33.266 -18.47,0 -33.11,-17.594 -33.11,-39.016 0,-22.656 16.55,-39.375 35.02,-39.375 19.51,0 27.19,18.469 27.19,22.125 0,1.219 -1.41,1.219 -1.41,1.219 -1.22,0 -1.39,-0.344 -2.08,-2.437 -3.84,-11.844 -13.42,-17.766 -22.48,-17.766 -7.49,0 -14.99,4.172 -19.69,11.844 -5.39,8.875 -5.39,19.156 -5.39,27.344 h 50.52 c 0.7,0.703 0.7,1.046 0.7,2.796 z m -9.41,-0.171 h -41.64 c 1.22,25.078 14.63,30.656 21.6,30.656 11.85,0 19.87,-11.156 20.04,-30.656" /><path
         id="path266"
         style="fill:#000000;fill-opacity:1;fill-rule:nonzero;stroke:none"
         d="m 2716.5,116 v 4.531 c -11.14,0 -11.84,0.703 -11.84,7.485 v 108.89 L 2683.92,235 v -4.531 c 10.28,0 11.85,-1.047 11.85,-9.406 v -93.047 c 0,-6.61 -0.69,-7.485 -11.85,-7.485 V 116 c 4.19,0.344 11.85,0.344 16.21,0.344 4.53,0 12.2,0 16.37,-0.344" /><path
         id="path268"
         style="fill:#000000;fill-opacity:1;fill-rule:nonzero;stroke:none"
         d="m 2796.09,153.281 c 0,22.297 -16.2,39.719 -35.2,39.719 -18.98,0 -35.19,-17.422 -35.19,-39.719 0,-21.953 16.21,-38.672 35.19,-38.672 19,0 35.2,16.719 35.2,38.672 z m -11.15,1.391 c 0,-6.797 -0.35,-17.25 -5.05,-25.609 -4.87,-8.016 -12.37,-11.313 -19,-11.313 -8.19,0 -15.16,4.875 -19.16,11.672 -4.35,7.828 -4.87,17.594 -4.87,25.25 0,7.328 0.34,16.375 4.87,24.219 3.49,5.75 10.29,11.328 19.16,11.328 7.84,0 14.47,-4.36 18.64,-10.453 5.41,-8.188 5.41,-19.688 5.41,-25.094" /><path
         id="path270"
         style="fill:#000000;fill-opacity:1;fill-rule:nonzero;stroke:none"
         d="m 2872.91,136.563 c 0,0.687 -0.18,1.218 -1.41,1.218 -1.22,0 -1.39,-0.172 -2.08,-2.437 -4.53,-14.11 -14.47,-17.594 -21.95,-17.594 -11.16,0 -24.56,10.266 -24.56,36.063 0,26.468 12.89,36.062 23.17,36.062 6.78,0 16.89,-3.312 20.72,-12.891 -3.3,0 -8.19,0 -8.19,-6.109 0,-4.875 4.02,-6.266 6.28,-6.266 1.22,0 6.27,0.516 6.27,6.625 0,12.36 -11.85,21.766 -25.27,21.766 -18.47,0 -34.14,-17.062 -34.14,-39.375 0,-23.172 16.38,-39.016 34.14,-39.016 21.61,0 27.02,20.032 27.02,21.954" /><path
         id="path272"
         style="fill:#000000;fill-opacity:1;fill-rule:nonzero;stroke:none"
         d="m 2913.28,116 v 4.531 c -10.28,0 -10.62,1.047 -10.62,7.313 v 64.469 l -20.03,-1.922 v -4.532 c 9.75,0 11.14,-1.046 11.14,-9.406 v -48.437 c 0,-6.61 -0.69,-7.485 -11.85,-7.485 V 116 c 4.19,0.344 11.67,0.344 16.03,0.344 4.19,0 11.33,0 15.33,-0.344 z m -8.53,105.234 c 0,4.172 -3.31,7.141 -6.97,7.141 -4.19,0 -7.14,-3.312 -7.14,-7.141 0,-4.187 3.3,-7.14 6.97,-7.14 4.17,0 7.14,3.297 7.14,7.14" /><path
         id="path274"
         style="fill:#000000;fill-opacity:1;fill-rule:nonzero;stroke:none"
         d="m 2973.48,137.609 v 9.922 h -3.14 v -9.75 c 0,-12.031 -4.7,-20.031 -12.01,-20.031 -5.05,0 -12.02,3.484 -12.02,19.328 v 49.313 h 24.39 v 4.531 h -24.39 v 32.219 h -3.14 c -0.34,-17.938 -6.45,-33.625 -21.25,-33.969 v -2.781 h 15.16 v -48.969 c 0,-3.297 0,-22.813 20.2,-22.813 10.28,0 16.2,10.11 16.2,23" /><path
         id="path276"
         style="fill:#000000;fill-opacity:1;fill-rule:nonzero;stroke:none"
         d="m 3059.58,186.391 v 4.531 l -10.97,-0.359 c -3.66,0 -9.41,0 -12.89,0.359 v -4.531 c 6.61,-0.532 6.78,-5.407 6.78,-6.797 0,-1.75 -0.34,-2.61 -1.22,-4.703 l -18.98,-47.047 -20.74,50.875 c -0.87,2.094 -0.87,3.484 -0.87,3.484 0,3.828 4.01,4.188 8.19,4.188 v 4.531 c -4.18,-0.359 -11.68,-0.359 -16.02,-0.359 -4.7,0 -10.28,0 -14.11,0.359 v -4.531 c 9.41,0 10.45,-0.875 12.7,-6.453 L 3017.42,116 c -7.84,-20.5625 -12.37,-32.5781 -23.34,-32.5781 -1.92,0 -6.28,0.5156 -9.41,3.6562 4,0.3438 5.75,2.7813 5.75,5.75 0,2.9688 -2.09,5.5782 -5.58,5.5782 -3.84,0 -5.75,-2.6094 -5.75,-5.75 0,-6.9688 7.14,-12.0157 14.99,-12.0157 10.09,0 16.37,9.75 19.86,18.4532 l 31.01,76.4842 c 4.35,10.641 12.19,10.813 14.63,10.813" /><path
         id="path278"
         style="fill:#000000;fill-opacity:1;fill-rule:nonzero;stroke:none"
         d="m 3191.02,185.422 c 3.45,0 4.84,0 4.84,3.281 0,1.735 -1.39,1.735 -4.5,1.735 h -13.98 c 3.28,17.781 5.7,30.046 7.07,35.562 1.05,4.156 4.68,8.125 9.16,8.125 3.62,0 7.25,-1.562 8.98,-3.109 -6.73,-0.688 -8.81,-5.703 -8.81,-8.641 0,-3.453 2.6,-5.516 5.88,-5.516 3.45,0 8.64,2.922 8.64,9.485 0,7.265 -7.27,11.234 -14.86,11.234 -7.42,0 -14.67,-5.531 -18.13,-12.265 -3.11,-6.047 -4.84,-12.266 -8.81,-34.875 h -11.58 c -3.28,0 -5,0 -5,-3.11 0,-1.906 1.03,-1.906 4.49,-1.906 h 11.06 c -3.11,-16.063 -10.19,-55.094 -14.17,-73.563 -2.94,-15.0309 -5.52,-27.6402 -14.16,-27.6402 -0.51,0 -5.53,0 -8.64,3.2812 8.81,0.7031 8.81,8.2969 8.81,8.4688 0,3.4531 -2.59,5.5312 -5.87,5.5312 -3.46,0 -8.63,-2.9375 -8.63,-9.5 0,-7.4375 7.6,-11.2344 14.33,-11.2344 17.61,0 24.88,31.6094 26.77,40.2504 3.11,13.297 11.57,59.218 12.43,64.406 h 14.68" /><path
         id="path280"
         style="fill:#000000;fill-opacity:1;fill-rule:nonzero;stroke:none"
         d="m 3249.45,110.031 h -2.62 c -0.36,-2.031 -1.31,-8.593 -2.5,-10.4997 -0.85,-1.0625 -7.64,-1.0625 -11.2,-1.0625 h -22.07 c 3.22,2.7342 10.5,10.3592 13.6,13.2192 18.12,16.703 24.79,22.89 24.79,34.703 0,13.703 -10.84,22.875 -24.67,22.875 -13.83,0 -21.94,-11.797 -21.94,-22.047 0,-6.078 5.25,-6.078 5.6,-6.078 2.51,0 5.61,1.781 5.61,5.593 0,3.344 -2.27,5.61 -5.61,5.61 -1.06,0 -1.31,0 -1.66,-0.125 2.27,8.109 8.7,13.594 16.44,13.594 10.14,0 16.34,-8.469 16.34,-19.422 0,-10.141 -5.84,-18.953 -12.64,-26.594 L 3202.84,92.8594 V 90 h 43.5 l 3.11,20.031" /><path
         id="path282"
         style="fill:#000000;fill-opacity:1;fill-rule:nonzero;stroke:none"
         d="M 3312.45,70.2656 H 3335 v 4.6719 h -17.87 V 244.297 H 3335 v 4.672 h -22.55 V 70.2656" /><path
         id="path284"
         style="fill:#000000;fill-opacity:1;fill-rule:nonzero;stroke:none"
         d="m 3362.91,156.75 c 0,16.578 7.07,32.125 20.03,32.125 1.2,0 2.42,-0.172 3.62,-0.687 0,0 -3.79,-1.204 -3.79,-5.704 0,-4.14 3.28,-5.875 5.87,-5.875 2.06,0 5.86,1.219 5.86,6.047 0,5.532 -5.52,8.985 -11.39,8.985 -13.13,0 -18.83,-12.782 -20.55,-18.828 h -0.17 v 18.828 l -20.03,-1.907 v -4.484 c 10.19,0 11.73,-1.031 11.73,-9.328 v -48 c 0,-6.563 -0.68,-7.438 -11.73,-7.438 V 116 c 4.14,0.344 12.08,0.344 16.58,0.344 5,0 13.81,0 18.47,-0.344 v 4.484 c -12.44,0 -14.5,0 -14.5,7.782 v 28.484" /><path
         id="path286"
         style="fill:#000000;fill-opacity:1;fill-rule:nonzero;stroke:none"
         d="m 3460.17,160.734 c 0,11.391 0,17.438 -7.25,24.172 -6.39,5.703 -13.83,7.422 -19.69,7.422 -13.64,0 -23.48,-10.703 -23.48,-22.109 0,-6.375 5.17,-6.735 6.2,-6.735 2.25,0 6.22,1.391 6.22,6.219 0,4.328 -3.28,6.219 -6.22,6.219 -0.68,0 -1.54,-0.172 -2.06,-0.344 3.63,10.875 12.95,13.985 19,13.985 8.63,0 18.13,-7.594 18.13,-22.094 v -7.61 c -10.19,-0.343 -22.46,-1.718 -32.13,-6.906 -10.87,-6.047 -13.98,-14.672 -13.98,-21.234 0,-13.297 15.54,-17.094 24.7,-17.094 9.48,0 18.3,5.344 22.09,15.188 0.35,-7.594 5.19,-14.5 12.78,-14.5 3.63,0 12.79,2.421 12.79,16.062 v 9.672 h -3.11 v -9.844 c 0,-10.547 -4.66,-11.922 -6.91,-11.922 -7.08,0 -7.08,8.985 -7.08,16.578 z M 3451.02,140 c 0,-15.016 -10.71,-22.625 -20.21,-22.625 -8.64,0 -15.37,6.391 -15.37,14.344 0,5.172 2.25,14.328 12.26,19.859 8.3,4.656 17.78,5.344 23.32,5.703 V 140" /><path
         id="path288"
         style="fill:#000000;fill-opacity:1;fill-rule:nonzero;stroke:none"
         d="m 3527.42,233.953 v -4.5 c 10.19,0 11.75,-1.031 11.75,-9.312 v -40.422 c -0.69,0.875 -7.76,11.922 -21.76,11.922 -17.61,0 -34.71,-15.719 -34.71,-38.516 0,-22.625 16.07,-38.5 32.99,-38.5 14.67,0 22.26,11.391 23.14,12.594 v -12.594 l 20.89,1.375 v 4.484 c -10.19,0 -11.74,1.047 -11.74,9.329 v 106.031 z m 11.41,-97.234 c 0,-5.172 -3.11,-9.844 -7.08,-13.297 -5.87,-5.172 -11.75,-6.047 -15.03,-6.047 -5,0 -22.97,2.594 -22.97,35.578 0,33.844 20.03,35.922 24.53,35.922 7.94,0 14.33,-4.484 18.3,-10.703 2.25,-3.625 2.25,-4.141 2.25,-7.25 v -34.203" /><path
         id="path290"
         style="fill:#000000;fill-opacity:1;fill-rule:nonzero;stroke:none"
         d="m 3636.16,159.172 c 0,5.016 -4.14,9.156 -9.16,9.156 -5,0 -9.14,-4.14 -9.14,-9.156 0,-5 4.14,-9.156 9.14,-9.156 5.02,0 9.16,4.156 9.16,9.156" /><path
         id="path292"
         style="fill:#000000;fill-opacity:1;fill-rule:nonzero;stroke:none"
         d="m 3742.36,188.875 c 0,3.109 -0.17,3.281 -1.2,3.281 -0.69,0 -0.86,-0.172 -2.94,-2.765 -0.52,-0.688 -2.08,-2.407 -2.59,-3.11 -5.54,5.875 -13.3,6.047 -16.24,6.047 -19.17,0 -26.08,-10.015 -26.08,-20.031 0,-15.547 17.63,-19.172 22.63,-20.203 10.87,-2.25 14.69,-2.938 18.31,-6.047 2.23,-2.078 6.05,-5.875 6.05,-12.094 0,-7.25 -4.16,-16.578 -20.05,-16.578 -15.02,0 -20.37,11.406 -23.48,26.594 -0.52,2.422 -0.52,2.594 -1.89,2.594 -1.4,0 -1.57,-0.172 -1.57,-3.625 v -24.86 c 0,-3.109 0.17,-3.281 1.22,-3.281 0.86,0 1.03,0.172 1.89,1.547 1.05,1.562 3.63,5.703 4.67,7.422 3.46,-4.657 9.5,-9.141 19.16,-9.141 17.11,0 26.25,9.313 26.25,22.781 0,8.813 -4.66,13.485 -6.91,15.547 -5.17,5.36 -11.21,6.563 -18.46,7.953 -9.5,2.063 -21.6,4.485 -21.6,15.016 0,4.5 2.42,13.984 19.86,13.984 18.49,0 19.52,-17.265 19.86,-22.781 0.17,-0.875 1.05,-1.047 1.56,-1.047 1.55,0 1.55,0.516 1.55,3.453 v 19.344" /><path
         id="path294"
         style="fill:#000000;fill-opacity:1;fill-rule:nonzero;stroke:none"
         d="m 3829.56,205.422 c 2.02,0 4.17,0 4.17,2.375 0,2.391 -2.15,2.391 -4.17,2.391 h -64.5 c -2.01,0 -4.17,0 -4.17,-2.391 0,-2.375 2.16,-2.375 4.17,-2.375 h 64.5" /><path
         id="path296"
         style="fill:#000000;fill-opacity:1;fill-rule:nonzero;stroke:none"
         d="m 3878.33,254.406 c 0,2.75 0,2.86 -2.38,2.86 -2.87,-3.219 -8.82,-7.625 -21.11,-7.625 v -3.453 c 2.75,0 8.71,0 15.27,3.093 v -62.109 c 0,-4.281 -0.36,-5.719 -10.84,-5.719 h -3.71 V 178 c 3.22,0.234 14.78,0.234 18.72,0.234 3.94,0 15.38,0 18.6,-0.234 v 3.453 h -3.71 c -10.48,0 -10.84,1.438 -10.84,5.719 v 67.234" /><path
         id="path298"
         style="fill:#000000;fill-opacity:1;fill-rule:nonzero;stroke:none"
         d="m 3926.67,74.9375 h -17.89 v -4.6719 h 22.56 V 248.969 h -22.56 v -4.672 h 17.89 V 74.9375" /></g></g></svg>
