<?xml version="1.0" encoding="UTF-8" standalone="no"?>
<svg
   xmlns:dc="http://purl.org/dc/elements/1.1/"
   xmlns:cc="http://creativecommons.org/ns#"
   xmlns:rdf="http://www.w3.org/1999/02/22-rdf-syntax-ns#"
   xmlns:svg="http://www.w3.org/2000/svg"
   xmlns="http://www.w3.org/2000/svg"
   viewBox="0 0 636.29333 504.62668"
   height="504.62668"
   width="636.29333"
   xml:space="preserve"
   id="svg2"
   version="1.1"><metadata
     id="metadata8"><rdf:RDF><cc:Work
         rdf:about=""><dc:format>image/svg+xml</dc:format><dc:type
           rdf:resource="http://purl.org/dc/dcmitype/StillImage" /></cc:Work></rdf:RDF></metadata><defs
     id="defs6"><clipPath
       id="clipPath116"
       clipPathUnits="userSpaceOnUse"><path
         id="path114"
         d="m 616.738,616.73 h 3968.57 V 3451.41 H 616.738 Z" /></clipPath></defs><g
     transform="matrix(1.3333333,0,0,-1.3333333,0,504.62667)"
     id="g10"><g
       transform="scale(0.1)"
       id="g12"><path
         id="path14"
         style="fill:none;stroke:#808080;stroke-width:1.9925;stroke-linecap:butt;stroke-linejoin:miter;stroke-miterlimit:10;stroke-dasharray:none;stroke-opacity:1"
         d="m 1013.6,2012.81 v 42.52 m 396.86,-42.52 v 42.52 m 396.87,-42.52 v 42.52 m 396.86,-42.52 v 42.52 m 396.86,-42.52 v 42.52 m 396.87,-42.52 v 42.52 m 396.86,-42.52 v 42.52 m 396.86,-42.52 v 42.52 m 396.87,-42.52 v 42.52 m 396.86,-42.52 v 42.52" /><path
         id="path16"
         style="fill:none;stroke:#808080;stroke-width:1.9925;stroke-linecap:butt;stroke-linejoin:miter;stroke-miterlimit:10;stroke-dasharray:none;stroke-opacity:1"
         d="M 595.48,801.602 H 638 M 595.48,1048.09 H 638 m -42.52,246.5 H 638 m -42.52,246.49 H 638 m -42.52,246.5 H 638 m -42.52,492.99 H 638 m -42.52,246.49 H 638 m -42.52,246.49 H 638 m -42.52,246.5 H 638 m -42.52,246.49 H 638" /><path
         id="path18"
         style="fill:none;stroke:#000000;stroke-width:15.9404;stroke-linecap:butt;stroke-linejoin:miter;stroke-miterlimit:10;stroke-dasharray:none;stroke-opacity:1"
         d="M 616.738,2034.07 H 4547.45" /><path
         id="path20"
         style="fill:#000000;fill-opacity:1;fill-rule:nonzero;stroke:none"
         d="m 4585.3,2034.07 -60.57,30.29 22.72,-30.29 -22.72,-30.28" /><path
         id="path22"
         style="fill:none;stroke:#000000;stroke-width:15.9404;stroke-linecap:butt;stroke-linejoin:miter;stroke-miterlimit:10;stroke-dasharray:none;stroke-opacity:1"
         d="M 616.738,616.73 V 3413.55" /><path
         id="path24"
         style="fill:#000000;fill-opacity:1;fill-rule:nonzero;stroke:none"
         d="m 616.738,3451.41 -30.285,-60.57 30.285,22.71 30.289,-22.71" /><path
         id="path26"
         style="fill:#000000;fill-opacity:1;fill-rule:nonzero;stroke:none"
         d="m 1019.94,1946.34 c 0,3.64 -0.17,3.82 -2.6,3.82 -6.73,-8.13 -16.92,-10.72 -26.59,-11.07 -0.516,0 -1.375,0 -1.547,-0.34 -0.172,-0.34 -0.172,-0.69 -0.172,-4.31 5.344,0 14.329,1.03 21.239,5.17 v -91 c 0,-6.05 -0.35,-8.13 -15.207,-8.13 h -5.172 V 1836 c 8.281,0.17 16.919,0.34 25.199,0.34 8.3,0 16.94,-0.17 25.22,-0.34 v 4.48 h -5.17 c -14.86,0 -15.2,1.91 -15.2,8.13 v 97.73" /><path
         id="path28"
         style="fill:#000000;fill-opacity:1;fill-rule:nonzero;stroke:none"
         d="m 1443.02,1862.77 h -3.11 c -1.74,-12.27 -3.11,-14.33 -3.8,-15.38 -0.88,-1.37 -13.3,-1.37 -15.72,-1.37 h -33.16 c 6.22,6.73 18.3,19 32.99,33.15 10.53,10.02 22.8,21.77 22.8,38.86 0,20.38 -16.24,32.13 -34.38,32.13 -18.98,0 -30.56,-16.75 -30.56,-32.3 0,-6.73 5.01,-7.59 7.08,-7.59 1.73,0 6.9,1.03 6.9,7.07 0,5.35 -4.48,6.91 -6.9,6.91 -1.03,0 -2.07,-0.17 -2.77,-0.52 3.28,14.68 13.3,21.93 23.84,21.93 15.02,0 24.86,-11.91 24.86,-27.63 0,-15.03 -8.79,-27.98 -18.64,-39.2 l -34.37,-38.86 V 1836 h 60.8 l 4.14,26.77" /><path
         id="path30"
         style="fill:#000000;fill-opacity:1;fill-rule:nonzero;stroke:none"
         d="m 1806.17,1894.72 c 15.36,0 22.1,-13.3 22.1,-28.67 0,-20.72 -11.05,-28.67 -21.07,-28.67 -9.15,0 -24,4.5 -28.67,17.79 0.86,-0.34 1.74,-0.34 2.6,-0.34 4.14,0 7.25,2.76 7.25,7.25 0,5 -3.8,7.25 -7.25,7.25 -2.94,0 -7.43,-1.38 -7.43,-7.77 0,-15.89 15.53,-28.33 33.85,-28.33 19.17,0 33.84,15.04 33.84,32.65 0,16.75 -13.81,28.84 -30.22,30.73 13.13,2.77 25.74,14.52 25.74,30.23 0,13.47 -13.64,23.32 -29.19,23.32 -15.72,0 -29.53,-9.68 -29.53,-23.49 0,-6.04 4.48,-7.09 6.73,-7.09 3.63,0 6.74,2.25 6.74,6.73 0,4.5 -3.11,6.74 -6.74,6.74 -0.69,0 -1.54,0 -2.25,-0.35 5.02,11.41 18.66,13.47 24.71,13.47 6.04,0 17.43,-2.92 17.43,-19.5 0,-4.84 -0.68,-13.48 -6.56,-21.08 -5.17,-6.73 -11.05,-7.07 -16.75,-7.59 -0.86,0 -4.83,-0.34 -5.53,-0.34 -1.2,-0.18 -1.89,-0.35 -1.89,-1.57 0,-1.2 0.17,-1.37 3.62,-1.37 h 8.47" /><path
         id="path32"
         style="fill:#000000;fill-opacity:1;fill-rule:nonzero;stroke:none"
         d="m 2223.03,1947.73 c 0,3.63 -0.17,3.8 -3.28,3.8 l -51.3,-81.69 v -4.48 h 44.57 v -16.92 c 0,-6.22 -0.36,-7.96 -12.44,-7.96 h -3.28 V 1836 c 5.51,0.34 14.84,0.34 20.72,0.34 5.87,0 15.2,0 20.71,-0.34 v 4.48 h -3.28 c -12.07,0 -12.42,1.74 -12.42,7.96 v 16.92 h 17.61 v 4.48 h -17.61 z m -9.5,-11.4 v -66.49 h -41.62 z" /><path
         id="path34"
         style="fill:#000000;fill-opacity:1;fill-rule:nonzero;stroke:none"
         d="m 2581.69,1937.03 c 1.72,-0.7 8.81,-2.94 16.06,-2.94 16.06,0 24.86,8.63 29.88,13.64 0,1.38 0,2.25 -1.04,2.25 -0.17,0 -0.53,0 -1.9,-0.7 -6.05,-2.58 -13.13,-4.65 -21.77,-4.65 -5.17,0 -12.95,0.68 -21.4,4.48 -1.91,0.87 -2.25,0.87 -2.43,0.87 -0.86,0 -1.03,-0.17 -1.03,-3.64 v -50.07 c 0,-3.11 0,-3.97 1.72,-3.97 0.88,0 1.22,0.34 2.08,1.56 5.53,7.77 13.12,11.05 21.77,11.05 6.03,0 18.98,-3.8 18.98,-33.33 0,-5.53 0,-15.55 -5.17,-23.49 -4.31,-7.07 -11.06,-10.71 -18.49,-10.71 -11.39,0 -22.97,7.95 -26.07,21.25 0.7,-0.18 2.07,-0.52 2.76,-0.52 2.25,0 6.56,1.2 6.56,6.56 0,4.66 -3.28,6.56 -6.56,6.56 -3.97,0 -6.56,-2.42 -6.56,-7.26 0,-15.02 11.92,-30.74 30.22,-30.74 17.79,0 34.72,15.38 34.72,37.66 0,20.72 -13.47,36.78 -30.22,36.78 -8.82,0 -16.24,-3.28 -22.11,-9.5 v 38.86" /><path
         id="path36"
         style="fill:#000000;fill-opacity:1;fill-rule:nonzero;stroke:none"
         d="m 2976.31,1895.58 c 0,41.28 19.33,50.59 30.57,50.59 3.62,0 12.43,-0.69 15.89,-7.42 -2.77,0 -7.96,0 -7.96,-6.05 0,-4.65 3.8,-6.22 6.22,-6.22 1.56,0 6.22,0.71 6.22,6.57 0,10.89 -8.64,17.11 -20.55,17.11 -20.54,0 -42.14,-21.43 -42.14,-59.58 0,-46.99 19.52,-57.35 33.33,-57.35 16.75,0 32.64,15.04 32.64,38.18 0,21.57 -13.98,37.29 -31.61,37.29 -10.53,0 -18.29,-6.9 -22.61,-19 z m 21.58,-58.2 c -21.23,0 -21.23,31.78 -21.23,38.17 0,12.43 5.86,30.39 21.92,30.39 2.94,0 11.4,0 17.11,-11.91 3.09,-6.73 3.09,-13.83 3.09,-22.45 0,-9.33 0,-16.24 -3.62,-23.14 -3.8,-7.08 -9.32,-11.06 -17.27,-11.06" /><path
         id="path38"
         style="fill:#000000;fill-opacity:1;fill-rule:nonzero;stroke:none"
         d="m 3432.89,1943.59 v 3.8 h -40.59 c -20.21,0 -20.55,2.24 -21.24,5.52 h -3.11 l -5.01,-32.28 h 3.11 c 0.53,3.28 1.73,12.07 3.81,15.35 1.03,1.4 13.81,1.4 16.75,1.4 h 37.98 l -19.17,-28.5 c -12.78,-19.18 -21.58,-45.08 -21.58,-67.69 0,-2.08 0,-7.96 6.22,-7.96 6.22,0 6.22,5.88 6.22,8.13 v 7.94 c 0,28.33 4.83,46.97 12.77,58.89 l 23.84,35.4" /><path
         id="path40"
         style="fill:#000000;fill-opacity:1;fill-rule:nonzero;stroke:none"
         d="m 3798.97,1898.17 c 10.89,5.53 21.94,13.81 21.94,27.11 0,15.72 -15.21,24.88 -29.19,24.88 -15.72,0 -29.53,-11.41 -29.53,-27.13 0,-4.31 1.03,-11.73 7.76,-18.3 1.74,-1.73 8.99,-6.9 13.66,-10.18 -7.78,-3.97 -25.91,-13.47 -25.91,-32.47 0,-17.78 16.93,-28.85 33.68,-28.85 18.48,0 34.01,13.3 34.01,30.93 0,15.7 -10.53,22.97 -17.44,27.62 z m -22.63,15.19 c -1.37,0.87 -8.28,6.22 -8.28,14.34 0,10.53 10.88,18.47 23.32,18.47 13.64,0 23.65,-9.67 23.65,-20.89 0,-16.06 -17.95,-25.22 -18.83,-25.22 -0.17,0 -0.34,0 -1.72,1.05 z m 31.79,-35.39 c 2.59,-1.91 10.87,-7.61 10.87,-18.14 0,-12.78 -12.78,-22.45 -27.28,-22.45 -15.72,0 -27.63,11.23 -27.63,24.87 0,13.64 10.54,25.05 22.44,30.39 l 21.6,-14.67" /><path
         id="path42"
         style="fill:#000000;fill-opacity:1;fill-rule:nonzero;stroke:none"
         d="m 4209.78,1887.13 c 0,-38 -15.7,-49.75 -28.65,-49.75 -3.97,0 -13.65,0.53 -17.63,7.26 4.5,-0.7 7.78,1.72 7.78,6.03 0,4.67 -3.8,6.22 -6.22,6.22 -1.56,0 -6.22,-0.69 -6.22,-6.56 0,-11.74 10.19,-17.1 22.63,-17.1 19.86,0 40.06,21.77 40.06,59.75 0,47.33 -19.34,57.18 -32.47,57.18 -17.09,0 -33.5,-15.03 -33.5,-38.18 0,-21.4 13.99,-37.29 31.61,-37.29 14.5,0 20.89,13.47 22.61,19.17 z m -22.26,-9.68 c -4.68,0 -11.24,0.86 -16.58,11.22 -3.63,6.74 -3.63,14.67 -3.63,23.14 0,10.19 0,17.27 4.83,24.88 2.42,3.62 6.91,9.48 16.92,9.48 20.38,0 20.38,-31.25 20.38,-38.15 0,-12.27 -5.52,-30.57 -21.92,-30.57" /><path
         id="path44"
         style="fill:#000000;fill-opacity:1;fill-rule:nonzero;stroke:none"
         d="m 4551.94,1946.34 c 0,3.64 -0.17,3.82 -2.6,3.82 -6.73,-8.13 -16.92,-10.72 -26.59,-11.07 -0.52,0 -1.37,0 -1.55,-0.34 -0.17,-0.34 -0.17,-0.69 -0.17,-4.31 5.35,0 14.33,1.03 21.24,5.17 v -91 c 0,-6.05 -0.35,-8.13 -15.21,-8.13 h -5.17 V 1836 c 8.28,0.17 16.92,0.34 25.2,0.34 8.3,0 16.94,-0.17 25.22,-0.34 v 4.48 h -5.17 c -14.86,0 -15.2,1.91 -15.2,8.13 v 97.73" /><path
         id="path46"
         style="fill:#000000;fill-opacity:1;fill-rule:nonzero;stroke:none"
         d="m 4657.53,1891.44 c 0,10.53 -0.17,28.48 -7.42,42.31 -6.39,12.08 -16.58,16.41 -25.56,16.41 -8.3,0 -18.83,-3.82 -25.39,-16.24 -6.91,-12.95 -7.6,-29.01 -7.6,-42.48 0,-9.85 0.17,-24.88 5.53,-38 7.43,-17.78 20.72,-20.21 27.46,-20.21 7.93,0 20.03,3.29 27.11,19.69 5.18,11.92 5.87,25.91 5.87,38.52 z M 4624.55,1836 c -11.05,0 -17.61,9.5 -20.03,22.63 -1.91,10.18 -1.91,25.03 -1.91,34.7 0,13.3 0,24.36 2.25,34.89 3.28,14.67 12.95,19.17 19.69,19.17 7.08,0 16.23,-4.67 19.51,-18.83 2.25,-9.84 2.42,-21.4 2.42,-35.23 0,-11.22 0,-25.03 -2.07,-35.22 -3.63,-18.83 -13.82,-22.11 -19.86,-22.11" /><path
         id="path48"
         style="fill:#000000;fill-opacity:1;fill-rule:nonzero;stroke:none"
         d="m 430.813,792.719 c 2.921,0 6.031,0 6.031,3.453 0,3.453 -3.11,3.453 -6.031,3.453 h -93.438 c -2.937,0 -6.047,0 -6.047,-3.453 0,-3.453 3.11,-3.453 6.047,-3.453 h 93.438" /><path
         id="path50"
         style="fill:#000000;fill-opacity:1;fill-rule:nonzero;stroke:none"
         d="m 495.938,863.344 c 0,3.64 -0.172,3.812 -2.594,3.812 -6.735,-8.125 -16.922,-10.718 -26.594,-11.062 -0.516,0 -1.375,0 -1.547,-0.344 -0.172,-0.344 -0.172,-0.687 -0.172,-4.312 5.344,0 14.328,1.031 21.235,5.171 v -91 c 0,-6.046 -0.344,-8.125 -15.203,-8.125 h -5.172 V 753 c 8.281,0.172 16.922,0.344 25.203,0.344 8.297,0 16.937,-0.172 25.219,-0.344 v 4.484 h -5.172 c -14.86,0 -15.203,1.907 -15.203,8.125 v 97.735" /><path
         id="path52"
         style="fill:#000000;fill-opacity:1;fill-rule:nonzero;stroke:none"
         d="m 304.813,1039.72 c 2.921,0 6.031,0 6.031,3.45 0,3.46 -3.11,3.46 -6.031,3.46 h -93.438 c -2.937,0 -6.047,0 -6.047,-3.46 0,-3.45 3.11,-3.45 6.047,-3.45 h 93.438" /><path
         id="path54"
         style="fill:#000000;fill-opacity:1;fill-rule:nonzero;stroke:none"
         d="m 397.531,1055.44 c 0,10.53 -0.172,28.48 -7.422,42.31 -6.39,12.08 -16.578,16.41 -25.562,16.41 -8.297,0 -18.828,-3.82 -25.391,-16.24 -6.906,-12.95 -7.593,-29.01 -7.593,-42.48 0,-9.85 0.171,-24.88 5.531,-38 7.422,-17.784 20.719,-20.206 27.453,-20.206 7.937,0 20.031,3.286 27.109,19.686 5.188,11.92 5.875,25.91 5.875,38.52 z M 364.547,1000 c -11.047,0 -17.609,9.5 -20.031,22.63 -1.907,10.18 -1.907,25.03 -1.907,34.7 0,13.3 0,24.36 2.25,34.89 3.282,14.67 12.954,19.17 19.688,19.17 7.078,0 16.234,-4.67 19.516,-18.83 2.25,-9.84 2.421,-21.4 2.421,-35.23 0,-11.22 0,-25.03 -2.078,-35.22 -3.625,-18.83 -13.812,-22.11 -19.859,-22.11" /><path
         id="path56"
         style="fill:#000000;fill-opacity:1;fill-rule:nonzero;stroke:none"
         d="m 435.781,1008.3 c 0,5 -4.156,8.45 -8.297,8.45 -5,0 -8.453,-4.14 -8.453,-8.28 0,-5.02 4.141,-8.47 8.282,-8.47 5.015,0 8.468,4.14 8.468,8.3" /><path
         id="path58"
         style="fill:#000000;fill-opacity:1;fill-rule:nonzero;stroke:none"
         d="m 496.969,1062.17 c 10.89,5.53 21.937,13.81 21.937,27.11 0,15.72 -15.203,24.88 -29.187,24.88 -15.719,0 -29.531,-11.41 -29.531,-27.13 0,-4.31 1.031,-11.73 7.765,-18.3 1.735,-1.73 8.985,-6.9 13.656,-10.18 -7.781,-3.97 -25.906,-13.47 -25.906,-32.47 0,-17.78 16.922,-28.846 33.672,-28.846 18.484,0 34.016,13.296 34.016,30.926 0,15.7 -10.532,22.97 -17.438,27.62 z m -22.625,15.19 c -1.375,0.87 -8.281,6.22 -8.281,14.34 0,10.53 10.875,18.47 23.312,18.47 13.641,0 23.656,-9.67 23.656,-20.89 0,-16.06 -17.953,-25.22 -18.828,-25.22 -0.172,0 -0.344,0 -1.719,1.05 z m 31.781,-35.39 c 2.594,-1.91 10.875,-7.61 10.875,-18.14 0,-12.78 -12.781,-22.45 -27.281,-22.45 -15.719,0 -27.625,11.23 -27.625,24.87 0,13.64 10.531,25.05 22.437,30.39 l 21.594,-14.67" /><path
         id="path60"
         style="fill:#000000;fill-opacity:1;fill-rule:nonzero;stroke:none"
         d="m 304.813,1285.72 c 2.921,0 6.031,0 6.031,3.45 0,3.46 -3.11,3.46 -6.031,3.46 h -93.438 c -2.937,0 -6.047,0 -6.047,-3.46 0,-3.45 3.11,-3.45 6.047,-3.45 h 93.438" /><path
         id="path62"
         style="fill:#000000;fill-opacity:1;fill-rule:nonzero;stroke:none"
         d="m 397.531,1301.44 c 0,10.53 -0.172,28.48 -7.422,42.31 -6.39,12.08 -16.578,16.41 -25.562,16.41 -8.297,0 -18.828,-3.82 -25.391,-16.24 -6.906,-12.95 -7.593,-29.01 -7.593,-42.48 0,-9.85 0.171,-24.88 5.531,-38 7.422,-17.78 20.719,-20.21 27.453,-20.21 7.937,0 20.031,3.29 27.109,19.69 5.188,11.92 5.875,25.91 5.875,38.52 z M 364.547,1246 c -11.047,0 -17.609,9.5 -20.031,22.63 -1.907,10.18 -1.907,25.03 -1.907,34.7 0,13.3 0,24.36 2.25,34.89 3.282,14.67 12.954,19.17 19.688,19.17 7.078,0 16.234,-4.67 19.516,-18.83 2.25,-9.84 2.421,-21.4 2.421,-35.23 0,-11.22 0,-25.03 -2.078,-35.22 -3.625,-18.83 -13.812,-22.11 -19.859,-22.11" /><path
         id="path64"
         style="fill:#000000;fill-opacity:1;fill-rule:nonzero;stroke:none"
         d="m 435.781,1254.3 c 0,5 -4.156,8.45 -8.297,8.45 -5,0 -8.453,-4.14 -8.453,-8.28 0,-5.02 4.141,-8.47 8.282,-8.47 5.015,0 8.468,4.14 8.468,8.3" /><path
         id="path66"
         style="fill:#000000;fill-opacity:1;fill-rule:nonzero;stroke:none"
         d="m 468.313,1305.58 c 0,41.28 19.328,50.59 30.562,50.59 3.625,0 12.438,-0.69 15.891,-7.42 -2.766,0 -7.953,0 -7.953,-6.05 0,-4.65 3.796,-6.22 6.218,-6.22 1.563,0 6.219,0.71 6.219,6.57 0,10.89 -8.641,17.11 -20.547,17.11 -20.547,0 -42.14,-21.43 -42.14,-59.58 0,-46.99 19.515,-57.35 33.328,-57.35 16.75,0 32.64,15.04 32.64,38.18 0,21.57 -13.984,37.29 -31.609,37.29 -10.531,0 -18.297,-6.9 -22.609,-19 z m 21.578,-58.2 c -21.235,0 -21.235,31.78 -21.235,38.17 0,12.43 5.86,30.39 21.922,30.39 2.938,0 11.406,0 17.11,-11.91 3.093,-6.73 3.093,-13.83 3.093,-22.45 0,-9.33 0,-16.24 -3.625,-23.14 -3.797,-7.08 -9.312,-11.06 -17.265,-11.06" /><path
         id="path68"
         style="fill:#000000;fill-opacity:1;fill-rule:nonzero;stroke:none"
         d="m 304.813,1532.72 c 2.921,0 6.031,0 6.031,3.45 0,3.46 -3.11,3.46 -6.031,3.46 h -93.438 c -2.937,0 -6.047,0 -6.047,-3.46 0,-3.45 3.11,-3.45 6.047,-3.45 h 93.438" /><path
         id="path70"
         style="fill:#000000;fill-opacity:1;fill-rule:nonzero;stroke:none"
         d="m 397.531,1548.44 c 0,10.53 -0.172,28.48 -7.422,42.31 -6.39,12.08 -16.578,16.41 -25.562,16.41 -8.297,0 -18.828,-3.82 -25.391,-16.24 -6.906,-12.95 -7.593,-29.01 -7.593,-42.48 0,-9.85 0.171,-24.88 5.531,-38 7.422,-17.78 20.719,-20.21 27.453,-20.21 7.937,0 20.031,3.29 27.109,19.69 5.188,11.92 5.875,25.91 5.875,38.52 z M 364.547,1493 c -11.047,0 -17.609,9.5 -20.031,22.63 -1.907,10.18 -1.907,25.03 -1.907,34.7 0,13.3 0,24.36 2.25,34.89 3.282,14.67 12.954,19.17 19.688,19.17 7.078,0 16.234,-4.67 19.516,-18.83 2.25,-9.84 2.421,-21.4 2.421,-35.23 0,-11.22 0,-25.03 -2.078,-35.22 -3.625,-18.83 -13.812,-22.11 -19.859,-22.11" /><path
         id="path72"
         style="fill:#000000;fill-opacity:1;fill-rule:nonzero;stroke:none"
         d="m 435.781,1501.3 c 0,5 -4.156,8.45 -8.297,8.45 -5,0 -8.453,-4.14 -8.453,-8.28 0,-5.02 4.141,-8.47 8.282,-8.47 5.015,0 8.468,4.14 8.468,8.3" /><path
         id="path74"
         style="fill:#000000;fill-opacity:1;fill-rule:nonzero;stroke:none"
         d="m 508.031,1604.73 c 0,3.63 -0.172,3.8 -3.281,3.8 l -51.297,-81.69 v -4.48 h 44.563 v -16.92 c 0,-6.22 -0.36,-7.96 -12.438,-7.96 h -3.281 V 1493 c 5.516,0.34 14.844,0.34 20.719,0.34 5.875,0 15.203,0 20.718,-0.34 v 4.48 h -3.281 c -12.078,0 -12.422,1.74 -12.422,7.96 v 16.92 h 17.61 v 4.48 h -17.61 z m -9.5,-11.4 v -66.49 h -41.625 z" /><path
         id="path76"
         style="fill:#000000;fill-opacity:1;fill-rule:nonzero;stroke:none"
         d="m 304.813,1778.72 c 2.921,0 6.031,0 6.031,3.45 0,3.46 -3.11,3.46 -6.031,3.46 h -93.438 c -2.937,0 -6.047,0 -6.047,-3.46 0,-3.45 3.11,-3.45 6.047,-3.45 h 93.438" /><path
         id="path78"
         style="fill:#000000;fill-opacity:1;fill-rule:nonzero;stroke:none"
         d="m 397.531,1794.44 c 0,10.53 -0.172,28.48 -7.422,42.31 -6.39,12.08 -16.578,16.41 -25.562,16.41 -8.297,0 -18.828,-3.82 -25.391,-16.24 -6.906,-12.95 -7.593,-29.01 -7.593,-42.48 0,-9.85 0.171,-24.88 5.531,-38 7.422,-17.78 20.719,-20.21 27.453,-20.21 7.937,0 20.031,3.29 27.109,19.69 5.188,11.92 5.875,25.91 5.875,38.52 z M 364.547,1739 c -11.047,0 -17.609,9.5 -20.031,22.63 -1.907,10.18 -1.907,25.03 -1.907,34.7 0,13.3 0,24.36 2.25,34.89 3.282,14.67 12.954,19.17 19.688,19.17 7.078,0 16.234,-4.67 19.516,-18.83 2.25,-9.84 2.421,-21.4 2.421,-35.23 0,-11.22 0,-25.03 -2.078,-35.22 -3.625,-18.83 -13.812,-22.11 -19.859,-22.11" /><path
         id="path80"
         style="fill:#000000;fill-opacity:1;fill-rule:nonzero;stroke:none"
         d="m 435.781,1747.3 c 0,5 -4.156,8.45 -8.297,8.45 -5,0 -8.453,-4.14 -8.453,-8.28 0,-5.02 4.141,-8.47 8.282,-8.47 5.015,0 8.468,4.14 8.468,8.3" /><path
         id="path82"
         style="fill:#000000;fill-opacity:1;fill-rule:nonzero;stroke:none"
         d="m 522.016,1765.77 h -3.11 c -1.734,-12.27 -3.109,-14.33 -3.797,-15.38 -0.875,-1.37 -13.296,-1.37 -15.718,-1.37 h -33.157 c 6.219,6.73 18.297,19 32.985,33.15 10.531,10.02 22.797,21.77 22.797,38.86 0,20.38 -16.235,32.13 -34.375,32.13 -18.985,0 -30.563,-16.75 -30.563,-32.3 0,-6.73 5.016,-7.59 7.078,-7.59 1.735,0 6.907,1.03 6.907,7.07 0,5.35 -4.485,6.91 -6.907,6.91 -1.031,0 -2.062,-0.17 -2.765,-0.52 3.281,14.68 13.297,21.93 23.843,21.93 15.016,0 24.86,-11.91 24.86,-27.63 0,-15.03 -8.797,-27.98 -18.641,-39.2 l -34.375,-38.86 V 1739 h 60.797 l 4.141,26.77" /><path
         id="path84"
         style="fill:#000000;fill-opacity:1;fill-rule:nonzero;stroke:none"
         d="m 397.531,2280.44 c 0,10.53 -0.172,28.48 -7.422,42.31 -6.39,12.08 -16.578,16.41 -25.562,16.41 -8.297,0 -18.828,-3.82 -25.391,-16.24 -6.906,-12.95 -7.593,-29.01 -7.593,-42.48 0,-9.85 0.171,-24.88 5.531,-38 7.422,-17.78 20.719,-20.21 27.453,-20.21 7.937,0 20.031,3.29 27.109,19.69 5.188,11.92 5.875,25.91 5.875,38.52 z M 364.547,2225 c -11.047,0 -17.609,9.5 -20.031,22.63 -1.907,10.18 -1.907,25.03 -1.907,34.7 0,13.3 0,24.36 2.25,34.89 3.282,14.67 12.954,19.17 19.688,19.17 7.078,0 16.234,-4.67 19.516,-18.83 2.25,-9.84 2.421,-21.4 2.421,-35.23 0,-11.22 0,-25.03 -2.078,-35.22 -3.625,-18.83 -13.812,-22.11 -19.859,-22.11" /><path
         id="path86"
         style="fill:#000000;fill-opacity:1;fill-rule:nonzero;stroke:none"
         d="m 435.781,2233.3 c 0,5 -4.156,8.45 -8.297,8.45 -5,0 -8.453,-4.14 -8.453,-8.28 0,-5.02 4.141,-8.47 8.282,-8.47 5.015,0 8.468,4.14 8.468,8.3" /><path
         id="path88"
         style="fill:#000000;fill-opacity:1;fill-rule:nonzero;stroke:none"
         d="m 522.016,2251.77 h -3.11 c -1.734,-12.27 -3.109,-14.33 -3.797,-15.38 -0.875,-1.37 -13.296,-1.37 -15.718,-1.37 h -33.157 c 6.219,6.73 18.297,19 32.985,33.15 10.531,10.02 22.797,21.77 22.797,38.86 0,20.38 -16.235,32.13 -34.375,32.13 -18.985,0 -30.563,-16.75 -30.563,-32.3 0,-6.73 5.016,-7.59 7.078,-7.59 1.735,0 6.907,1.03 6.907,7.07 0,5.35 -4.485,6.91 -6.907,6.91 -1.031,0 -2.062,-0.17 -2.765,-0.52 3.281,14.68 13.297,21.93 23.843,21.93 15.016,0 24.86,-11.91 24.86,-27.63 0,-15.03 -8.797,-27.98 -18.641,-39.2 l -34.375,-38.86 V 2225 h 60.797 l 4.141,26.77" /><path
         id="path90"
         style="fill:#000000;fill-opacity:1;fill-rule:nonzero;stroke:none"
         d="m 397.531,2527.44 c 0,10.53 -0.172,28.48 -7.422,42.31 -6.39,12.08 -16.578,16.41 -25.562,16.41 -8.297,0 -18.828,-3.82 -25.391,-16.24 -6.906,-12.95 -7.593,-29.01 -7.593,-42.48 0,-9.85 0.171,-24.88 5.531,-38 7.422,-17.78 20.719,-20.21 27.453,-20.21 7.937,0 20.031,3.29 27.109,19.69 5.188,11.92 5.875,25.91 5.875,38.52 z M 364.547,2472 c -11.047,0 -17.609,9.5 -20.031,22.63 -1.907,10.18 -1.907,25.03 -1.907,34.7 0,13.3 0,24.36 2.25,34.89 3.282,14.67 12.954,19.17 19.688,19.17 7.078,0 16.234,-4.67 19.516,-18.83 2.25,-9.84 2.421,-21.4 2.421,-35.23 0,-11.22 0,-25.03 -2.078,-35.22 -3.625,-18.83 -13.812,-22.11 -19.859,-22.11" /><path
         id="path92"
         style="fill:#000000;fill-opacity:1;fill-rule:nonzero;stroke:none"
         d="m 435.781,2480.3 c 0,5 -4.156,8.45 -8.297,8.45 -5,0 -8.453,-4.14 -8.453,-8.28 0,-5.02 4.141,-8.47 8.282,-8.47 5.015,0 8.468,4.14 8.468,8.3" /><path
         id="path94"
         style="fill:#000000;fill-opacity:1;fill-rule:nonzero;stroke:none"
         d="m 508.031,2583.73 c 0,3.63 -0.172,3.8 -3.281,3.8 l -51.297,-81.69 v -4.48 h 44.563 v -16.92 c 0,-6.22 -0.36,-7.96 -12.438,-7.96 h -3.281 V 2472 c 5.516,0.34 14.844,0.34 20.719,0.34 5.875,0 15.203,0 20.718,-0.34 v 4.48 h -3.281 c -12.078,0 -12.422,1.74 -12.422,7.96 v 16.92 h 17.61 v 4.48 h -17.61 z m -9.5,-11.4 v -66.49 h -41.625 z" /><path
         id="path96"
         style="fill:#000000;fill-opacity:1;fill-rule:nonzero;stroke:none"
         d="m 397.531,2773.44 c 0,10.53 -0.172,28.48 -7.422,42.31 -6.39,12.08 -16.578,16.41 -25.562,16.41 -8.297,0 -18.828,-3.82 -25.391,-16.24 -6.906,-12.95 -7.593,-29.01 -7.593,-42.48 0,-9.85 0.171,-24.88 5.531,-38 7.422,-17.78 20.719,-20.21 27.453,-20.21 7.937,0 20.031,3.29 27.109,19.69 5.188,11.92 5.875,25.91 5.875,38.52 z M 364.547,2718 c -11.047,0 -17.609,9.5 -20.031,22.63 -1.907,10.18 -1.907,25.03 -1.907,34.7 0,13.3 0,24.36 2.25,34.89 3.282,14.67 12.954,19.17 19.688,19.17 7.078,0 16.234,-4.67 19.516,-18.83 2.25,-9.84 2.421,-21.4 2.421,-35.23 0,-11.22 0,-25.03 -2.078,-35.22 -3.625,-18.83 -13.812,-22.11 -19.859,-22.11" /><path
         id="path98"
         style="fill:#000000;fill-opacity:1;fill-rule:nonzero;stroke:none"
         d="m 435.781,2726.3 c 0,5 -4.156,8.45 -8.297,8.45 -5,0 -8.453,-4.14 -8.453,-8.28 0,-5.02 4.141,-8.47 8.282,-8.47 5.015,0 8.468,4.14 8.468,8.3" /><path
         id="path100"
         style="fill:#000000;fill-opacity:1;fill-rule:nonzero;stroke:none"
         d="m 468.313,2777.58 c 0,41.28 19.328,50.59 30.562,50.59 3.625,0 12.438,-0.69 15.891,-7.42 -2.766,0 -7.953,0 -7.953,-6.05 0,-4.65 3.796,-6.22 6.218,-6.22 1.563,0 6.219,0.71 6.219,6.57 0,10.89 -8.641,17.11 -20.547,17.11 -20.547,0 -42.14,-21.43 -42.14,-59.58 0,-46.99 19.515,-57.35 33.328,-57.35 16.75,0 32.64,15.04 32.64,38.18 0,21.57 -13.984,37.29 -31.609,37.29 -10.531,0 -18.297,-6.9 -22.609,-19 z m 21.578,-58.2 c -21.235,0 -21.235,31.78 -21.235,38.17 0,12.43 5.86,30.39 21.922,30.39 2.938,0 11.406,0 17.11,-11.91 3.093,-6.73 3.093,-13.83 3.093,-22.45 0,-9.33 0,-16.24 -3.625,-23.14 -3.797,-7.08 -9.312,-11.06 -17.265,-11.06" /><path
         id="path102"
         style="fill:#000000;fill-opacity:1;fill-rule:nonzero;stroke:none"
         d="m 397.531,3020.44 c 0,10.53 -0.172,28.48 -7.422,42.31 -6.39,12.08 -16.578,16.41 -25.562,16.41 -8.297,0 -18.828,-3.82 -25.391,-16.24 -6.906,-12.95 -7.593,-29.01 -7.593,-42.48 0,-9.85 0.171,-24.88 5.531,-38 7.422,-17.78 20.719,-20.21 27.453,-20.21 7.937,0 20.031,3.29 27.109,19.69 5.188,11.92 5.875,25.91 5.875,38.52 z M 364.547,2965 c -11.047,0 -17.609,9.5 -20.031,22.63 -1.907,10.18 -1.907,25.03 -1.907,34.7 0,13.3 0,24.36 2.25,34.89 3.282,14.67 12.954,19.17 19.688,19.17 7.078,0 16.234,-4.67 19.516,-18.83 2.25,-9.84 2.421,-21.4 2.421,-35.23 0,-11.22 0,-25.03 -2.078,-35.22 -3.625,-18.83 -13.812,-22.11 -19.859,-22.11" /><path
         id="path104"
         style="fill:#000000;fill-opacity:1;fill-rule:nonzero;stroke:none"
         d="m 435.781,2973.3 c 0,5 -4.156,8.45 -8.297,8.45 -5,0 -8.453,-4.14 -8.453,-8.28 0,-5.02 4.141,-8.47 8.282,-8.47 5.015,0 8.468,4.14 8.468,8.3" /><path
         id="path106"
         style="fill:#000000;fill-opacity:1;fill-rule:nonzero;stroke:none"
         d="m 496.969,3027.17 c 10.89,5.53 21.937,13.81 21.937,27.11 0,15.72 -15.203,24.88 -29.187,24.88 -15.719,0 -29.531,-11.41 -29.531,-27.13 0,-4.31 1.031,-11.73 7.765,-18.3 1.735,-1.73 8.985,-6.9 13.656,-10.18 -7.781,-3.97 -25.906,-13.47 -25.906,-32.47 0,-17.78 16.922,-28.85 33.672,-28.85 18.484,0 34.016,13.3 34.016,30.93 0,15.7 -10.532,22.97 -17.438,27.62 z m -22.625,15.19 c -1.375,0.87 -8.281,6.22 -8.281,14.34 0,10.53 10.875,18.47 23.312,18.47 13.641,0 23.656,-9.67 23.656,-20.89 0,-16.06 -17.953,-25.22 -18.828,-25.22 -0.172,0 -0.344,0 -1.719,1.05 z m 31.781,-35.39 c 2.594,-1.91 10.875,-7.61 10.875,-18.14 0,-12.78 -12.781,-22.45 -27.281,-22.45 -15.719,0 -27.625,11.23 -27.625,24.87 0,13.64 10.531,25.05 22.437,30.39 l 21.594,-14.67" /><path
         id="path108"
         style="fill:#000000;fill-opacity:1;fill-rule:nonzero;stroke:none"
         d="m 495.938,3321.34 c 0,3.64 -0.172,3.82 -2.594,3.82 -6.735,-8.13 -16.922,-10.72 -26.594,-11.07 -0.516,0 -1.375,0 -1.547,-0.34 -0.172,-0.34 -0.172,-0.69 -0.172,-4.31 5.344,0 14.328,1.03 21.235,5.17 v -91 c 0,-6.05 -0.344,-8.13 -15.203,-8.13 h -5.172 V 3211 c 8.281,0.17 16.922,0.34 25.203,0.34 8.297,0 16.937,-0.17 25.219,-0.34 v 4.48 h -5.172 c -14.86,0 -15.203,1.91 -15.203,8.13 v 97.73" /><g
         id="g110"><g
           clip-path="url(#clipPath116)"
           id="g112"><path
             id="path118"
             style="fill:none;stroke:#009c82;stroke-width:15.9404;stroke-linecap:butt;stroke-linejoin:miter;stroke-miterlimit:10;stroke-dasharray:none;stroke-opacity:1"
             d="m 616.738,3266.54 c 0,0 119.473,-323.17 165.36,-419.84 45.886,-96.67 119.468,-213.13 165.355,-276.88 45.887,-63.74 119.477,-140.53 165.357,-182.57 45.89,-42.05 119.47,-92.73 165.36,-120.44 45.88,-27.71 119.47,-61.01 165.35,-79.26 45.89,-18.25 119.48,-40.27 165.36,-52.31 45.89,-12.04 119.47,-26.54 165.36,-34.47 45.89,-7.94 119.47,-17.5 165.35,-22.73 45.89,-5.23 119.48,-11.54 165.36,-14.99 45.89,-3.44 119.47,-7.6 165.36,-9.87 45.89,-2.27 119.47,-5.01 165.35,-6.51 45.89,-1.5 119.48,-3.31 165.36,-4.29 45.89,-0.99 119.47,-2.18 165.36,-2.83 45.89,-0.66 119.47,-1.44 165.35,-1.87 45.89,-0.43 119.48,-0.95 165.36,-1.23 45.89,-0.28 119.47,-0.63 165.36,-0.81 45.89,-0.19 119.47,-0.41 165.36,-0.53 45.88,-0.13 119.47,-0.28 165.35,-0.36 45.89,-0.08 119.47,-0.18 165.36,-0.23 45.89,-0.06 119.47,-0.12 165.36,-0.15 45.88,-0.04 119.47,-0.08 165.35,-0.1 45.89,-0.03 119.48,-0.06 165.36,-0.07 45.89,-0.02 119.47,-0.04 165.36,-0.04 45.89,-0.02 165.35,-0.03 165.35,-0.03" /><path
             id="path120"
             style="fill:none;stroke:#db0651;stroke-width:15.9404;stroke-linecap:butt;stroke-linejoin:miter;stroke-miterlimit:10;stroke-dasharray:none;stroke-opacity:1"
             d="m 616.738,801.602 c 0,0 119.473,323.168 165.36,419.838 45.886,96.67 119.468,213.13 165.355,276.88 45.887,63.74 119.477,140.53 165.357,182.57 45.89,42.05 119.47,92.74 165.36,120.44 45.88,27.71 119.47,61.01 165.35,79.26 45.89,18.26 119.48,40.27 165.36,52.31 45.89,12.04 119.47,26.54 165.36,34.48 45.89,7.93 119.47,17.49 165.35,22.72 45.89,5.24 119.48,11.54 165.36,14.99 45.89,3.45 119.47,7.6 165.36,9.87 45.89,2.27 119.47,5.02 165.35,6.51 45.89,1.5 119.48,3.31 165.36,4.3 45.89,0.98 119.47,2.18 165.36,2.83 45.89,0.65 119.47,1.43 165.35,1.86 45.89,0.43 119.48,0.95 165.36,1.23 45.89,0.28 119.47,0.63 165.36,0.81 45.89,0.19 119.47,0.41 165.36,0.54 45.88,0.12 119.47,0.27 165.35,0.35 45.89,0.08 119.47,0.18 165.36,0.23 45.89,0.06 119.47,0.12 165.36,0.15 45.88,0.04 119.47,0.08 165.35,0.11 45.89,0.02 119.48,0.05 165.36,0.06 45.89,0.02 119.47,0.04 165.36,0.04 45.89,0.02 165.35,0.04 165.35,0.04" /></g></g><path
         id="path122"
         style="fill:#000000;fill-opacity:1;fill-rule:nonzero;stroke:none"
         d="m 4492.72,2169.42 h 15.87 c 3.29,0 5.02,0 5.02,3.11 0,1.91 -1.03,1.91 -4.48,1.91 h -15.21 l 6.39,25.2 c 0.69,2.42 0.69,2.77 0.69,3.97 0,2.77 -2.25,4.33 -4.48,4.33 -1.39,0 -5.36,-0.52 -6.74,-6.05 l -6.73,-27.45 h -16.24 c -3.45,0 -5.01,0 -5.01,-3.28 0,-1.74 1.22,-1.74 4.5,-1.74 h 15.36 l -11.39,-45.59 c -1.39,-6.05 -1.91,-7.77 -1.91,-10.02 0,-8.11 5.7,-15.54 15.37,-15.54 17.44,0 26.77,25.21 26.77,26.42 0,1.04 -0.69,1.56 -1.73,1.56 -0.35,0 -1.04,0 -1.38,-0.69 -0.17,-0.17 -0.34,-0.34 -1.55,-3.11 -3.64,-8.64 -11.57,-20.72 -21.59,-20.72 -5.19,0 -5.53,4.32 -5.53,8.11 0,0.18 0,3.46 0.51,5.54 l 13.49,54.04" /><path
         id="path124"
         style="fill:#ffffff;fill-opacity:1;fill-rule:nonzero;stroke:none"
         d="M 1600.96,178.969 H 3601.07 V 608.762 H 1600.96 Z" /><path
         id="path126"
         style="fill:none;stroke:#009c82;stroke-width:15.9404;stroke-linecap:butt;stroke-linejoin:miter;stroke-miterlimit:10;stroke-dasharray:none;stroke-opacity:1"
         d="m 1638.82,491.352 c 0,0 61.44,0 85.04,0 23.6,0 85.04,0 85.04,0" /><path
         id="path128"
         style="fill:#000000;fill-opacity:1;fill-rule:nonzero;stroke:none"
         d="m 1945.19,480.766 c 0,1.75 0,2.437 -1.56,2.437 -1.4,0 -1.4,-0.515 -1.57,-2.094 -1.4,-24.39 -18.83,-39.359 -37.64,-39.359 -17.76,0 -46.17,12.531 -46.17,57.828 0,45.485 28.92,57.672 45.83,57.672 19.69,0 33.97,-17.078 37.28,-41.297 0.34,-2.078 0.34,-2.437 1.92,-2.437 1.91,0 1.91,0.359 1.91,3.484 v 41.297 c 0,3.141 -0.17,3.312 -1.22,3.312 -0.69,0 -0.88,-0.171 -2.09,-2.265 l -7.66,-14.641 c -8.55,10.813 -19,17.078 -32.41,17.078 -29.79,0 -56.79,-26.312 -56.79,-62.203 0,-36.234 27,-62.359 56.96,-62.359 26.66,0 43.21,23.515 43.21,43.547" /><path
         id="path130"
         style="fill:#000000;fill-opacity:1;fill-rule:nonzero;stroke:none"
         d="m 2031.22,455.5 v 9.766 h -3.13 v -9.938 c 0,-10.625 -4.7,-12.015 -6.96,-12.015 -7.15,0 -7.15,9.062 -7.15,16.718 v 25.094 c 0,11.5 0,17.594 -7.32,24.391 -6.44,5.75 -13.94,7.484 -19.86,7.484 -13.77,0 -23.69,-10.797 -23.69,-22.297 0,-6.437 5.22,-6.797 6.27,-6.797 2.26,0 6.28,1.407 6.28,6.282 0,4.343 -3.32,6.265 -6.28,6.265 -0.69,0 -1.57,-0.172 -2.1,-0.344 3.66,10.969 13.08,14.11 19.17,14.11 8.71,0 18.3,-7.672 18.3,-22.297 v -7.672 c -10.28,-0.344 -22.66,-1.734 -32.41,-6.969 -10.98,-6.093 -14.11,-14.812 -14.11,-21.422 0,-13.421 15.68,-17.25 24.91,-17.25 9.58,0 18.47,5.391 22.3,15.329 0.36,-7.672 5.23,-14.641 12.89,-14.641 3.65,0 12.89,2.453 12.89,16.203 z m -26.47,8.719 c 0,-15.156 -10.81,-22.828 -20.39,-22.828 -8.7,0 -15.5,6.453 -15.5,14.468 0,5.219 2.27,14.454 12.36,20.032 8.37,4.703 17.95,5.406 23.53,5.75 v -17.422" /><path
         id="path132"
         style="fill:#000000;fill-opacity:1;fill-rule:nonzero;stroke:none"
         d="m 2116.11,477.625 c 0,21.953 -15.16,38.688 -33.11,38.688 -10.45,0 -18.98,-5.75 -23.86,-12.719 v 12.719 l -20.73,-1.922 v -4.532 c 10.28,0 11.84,-1.046 11.84,-9.406 v -82.406 c 0,-6.625 -0.7,-7.484 -11.84,-7.484 v -4.532 c 4.17,0.344 11.84,0.344 16.37,0.344 4.53,0 12.36,0 16.55,-0.344 v 4.532 c -11.16,0 -11.85,0.687 -11.85,7.484 v 32.578 c 5.05,-7.312 12.36,-12.016 21.6,-12.016 17.42,0 35.03,15.329 35.03,39.016 z m -11.16,-0.172 c 0,-19.859 -11.15,-36.062 -24.9,-36.062 -6.28,0 -13.08,2.968 -18.3,11.156 -2.27,3.828 -2.27,4.875 -2.27,7.656 v 34.5 c 0,2.438 0,6.094 6.8,12.547 0.86,0.703 6.8,5.922 15.5,5.922 12.72,0 23.17,-15.859 23.17,-35.719" /><path
         id="path134"
         style="fill:#000000;fill-opacity:1;fill-rule:nonzero;stroke:none"
         d="m 2200.22,455.5 v 9.766 h -3.13 v -9.938 c 0,-10.625 -4.7,-12.015 -6.96,-12.015 -7.15,0 -7.15,9.062 -7.15,16.718 v 25.094 c 0,11.5 0,17.594 -7.32,24.391 -6.44,5.75 -13.94,7.484 -19.86,7.484 -13.77,0 -23.69,-10.797 -23.69,-22.297 0,-6.437 5.22,-6.797 6.27,-6.797 2.26,0 6.28,1.407 6.28,6.282 0,4.343 -3.32,6.265 -6.28,6.265 -0.69,0 -1.57,-0.172 -2.1,-0.344 3.66,10.969 13.08,14.11 19.17,14.11 8.71,0 18.3,-7.672 18.3,-22.297 v -7.672 c -10.28,-0.344 -22.66,-1.734 -32.41,-6.969 -10.98,-6.093 -14.11,-14.812 -14.11,-21.422 0,-13.421 15.68,-17.25 24.91,-17.25 9.58,0 18.47,5.391 22.3,15.329 0.36,-7.672 5.23,-14.641 12.89,-14.641 3.65,0 12.89,2.453 12.89,16.203 z m -26.47,8.719 c 0,-15.156 -10.81,-22.828 -20.39,-22.828 -8.7,0 -15.5,6.453 -15.5,14.468 0,5.219 2.27,14.454 12.36,20.032 8.37,4.703 17.95,5.406 23.53,5.75 v -17.422" /><path
         id="path136"
         style="fill:#000000;fill-opacity:1;fill-rule:nonzero;stroke:none"
         d="m 2268.91,460.563 c 0,0.687 -0.18,1.218 -1.41,1.218 -1.22,0 -1.39,-0.172 -2.08,-2.437 -4.53,-14.11 -14.47,-17.594 -21.95,-17.594 -11.16,0 -24.56,10.266 -24.56,36.063 0,26.468 12.89,36.062 23.17,36.062 6.78,0 16.89,-3.312 20.72,-12.891 -3.3,0 -8.19,0 -8.19,-6.109 0,-4.875 4.02,-6.266 6.28,-6.266 1.22,0 6.27,0.516 6.27,6.625 0,12.36 -11.85,21.766 -25.27,21.766 -18.47,0 -34.14,-17.062 -34.14,-39.375 0,-23.172 16.38,-39.016 34.14,-39.016 21.61,0 27.02,20.032 27.02,21.954" /><path
         id="path138"
         style="fill:#000000;fill-opacity:1;fill-rule:nonzero;stroke:none"
         d="m 2310.28,440 v 4.531 c -10.28,0 -10.62,1.047 -10.62,7.313 v 64.469 l -20.03,-1.922 v -4.532 c 9.75,0 11.14,-1.046 11.14,-9.406 v -48.437 c 0,-6.61 -0.69,-7.485 -11.85,-7.485 V 440 c 4.19,0.344 11.67,0.344 16.03,0.344 4.19,0 11.33,0 15.33,-0.344 z m -8.53,105.234 c 0,4.172 -3.31,7.141 -6.97,7.141 -4.19,0 -7.14,-3.312 -7.14,-7.141 0,-4.187 3.3,-7.14 6.97,-7.14 4.17,0 7.14,3.297 7.14,7.14" /><path
         id="path140"
         style="fill:#000000;fill-opacity:1;fill-rule:nonzero;stroke:none"
         d="m 2370.48,461.609 v 9.922 h -3.14 v -9.75 c 0,-12.031 -4.7,-20.031 -12.01,-20.031 -5.05,0 -12.02,3.484 -12.02,19.328 v 49.313 h 24.39 v 4.531 h -24.39 v 32.219 h -3.14 c -0.34,-17.938 -6.45,-33.625 -21.25,-33.969 v -2.781 h 15.16 v -48.969 c 0,-3.297 0,-22.813 20.2,-22.813 10.28,0 16.2,10.11 16.2,23" /><path
         id="path142"
         style="fill:#000000;fill-opacity:1;fill-rule:nonzero;stroke:none"
         d="m 2453.09,477.281 c 0,22.297 -16.2,39.719 -35.2,39.719 -18.98,0 -35.19,-17.422 -35.19,-39.719 0,-21.953 16.21,-38.672 35.19,-38.672 19,0 35.2,16.719 35.2,38.672 z m -11.15,1.391 c 0,-6.797 -0.35,-17.25 -5.05,-25.609 -4.87,-8.016 -12.37,-11.313 -19,-11.313 -8.19,0 -15.16,4.875 -19.16,11.672 -4.35,7.828 -4.87,17.594 -4.87,25.25 0,7.328 0.34,16.375 4.87,24.219 3.49,5.75 10.29,11.328 19.16,11.328 7.84,0 14.47,-4.36 18.64,-10.453 5.41,-8.188 5.41,-19.688 5.41,-25.094" /><path
         id="path144"
         style="fill:#000000;fill-opacity:1;fill-rule:nonzero;stroke:none"
         d="m 2517.02,507.25 c 0,5.578 -5.58,9.063 -11.5,9.063 -13.24,0 -18.99,-12.891 -20.74,-19 h -0.17 v 19 l -20.2,-1.922 v -4.532 c 10.28,0 11.84,-1.046 11.84,-9.406 v -48.437 c 0,-6.61 -0.7,-7.485 -11.84,-7.485 V 440 c 4.17,0.344 12.18,0.344 16.72,0.344 5.04,0 13.93,0 18.64,-0.344 v 4.531 c -12.55,0 -14.63,0 -14.63,7.844 v 28.734 c 0,16.735 7.14,32.407 20.2,32.407 1.22,0 2.44,-0.172 3.66,-0.688 0,0 -3.83,-1.219 -3.83,-5.75 0,-4.187 3.31,-5.922 5.92,-5.922 2.1,0 5.93,1.219 5.93,6.094" /><path
         id="path146"
         style="fill:#000000;fill-opacity:1;fill-rule:nonzero;stroke:none"
         d="m 2655.58,510.391 v 4.531 l -10.97,-0.359 c -3.66,0 -9.41,0 -12.89,0.359 v -4.531 c 4.34,-0.36 6.78,-2.438 6.78,-6.969 0,-1.578 0,-1.922 -1.03,-4.359 l -19.17,-48.438 -20.74,52.266 c -1.04,2.265 -1.04,2.609 -1.04,3.312 0,4.188 5.75,4.188 8.36,4.188 v 4.531 c -4.18,-0.359 -11.85,-0.359 -16.19,-0.359 -4.72,0 -10.11,0 -13.94,0.359 v -4.531 c 6.61,0 10.27,0 12.36,-5.407 l 25.27,-63.421 c 1.04,-2.61 1.21,-2.954 2.78,-2.954 1.57,0 1.75,0.344 2.79,2.954 l 23.18,57.671 c 1.56,3.829 4.34,10.797 14.45,11.157" /><path
         id="path148"
         style="fill:#000000;fill-opacity:1;fill-rule:nonzero;stroke:none"
         d="m 2728.09,477.281 c 0,22.297 -16.2,39.719 -35.2,39.719 -18.98,0 -35.19,-17.422 -35.19,-39.719 0,-21.953 16.21,-38.672 35.19,-38.672 19,0 35.2,16.719 35.2,38.672 z m -11.15,1.391 c 0,-6.797 -0.35,-17.25 -5.05,-25.609 -4.87,-8.016 -12.37,-11.313 -19,-11.313 -8.19,0 -15.16,4.875 -19.16,11.672 -4.35,7.828 -4.87,17.594 -4.87,25.25 0,7.328 0.34,16.375 4.87,24.219 3.49,5.75 10.29,11.328 19.16,11.328 7.84,0 14.47,-4.36 18.64,-10.453 5.41,-8.188 5.41,-19.688 5.41,-25.094" /><path
         id="path150"
         style="fill:#000000;fill-opacity:1;fill-rule:nonzero;stroke:none"
         d="m 2771.5,440 v 4.531 c -11.14,0 -11.84,0.703 -11.84,7.485 v 108.89 L 2738.92,559 v -4.531 c 10.28,0 11.85,-1.047 11.85,-9.406 v -93.047 c 0,-6.61 -0.69,-7.485 -11.85,-7.485 V 440 c 4.19,0.344 11.85,0.344 16.21,0.344 4.53,0 12.2,0 16.37,-0.344" /><path
         id="path152"
         style="fill:#000000;fill-opacity:1;fill-rule:nonzero;stroke:none"
         d="m 2830.48,461.609 v 9.922 h -3.14 v -9.75 c 0,-12.031 -4.7,-20.031 -12.01,-20.031 -5.05,0 -12.02,3.484 -12.02,19.328 v 49.313 h 24.39 v 4.531 h -24.39 v 32.219 h -3.14 c -0.34,-17.938 -6.45,-33.625 -21.25,-33.969 v -2.781 h 15.16 v -48.969 c 0,-3.297 0,-22.813 20.2,-22.813 10.28,0 16.2,10.11 16.2,23" /><path
         id="path154"
         style="fill:#000000;fill-opacity:1;fill-rule:nonzero;stroke:none"
         d="m 2916.22,455.5 v 9.766 h -3.13 v -9.938 c 0,-10.625 -4.7,-12.015 -6.96,-12.015 -7.15,0 -7.15,9.062 -7.15,16.718 v 25.094 c 0,11.5 0,17.594 -7.32,24.391 -6.44,5.75 -13.94,7.484 -19.86,7.484 -13.77,0 -23.69,-10.797 -23.69,-22.297 0,-6.437 5.22,-6.797 6.27,-6.797 2.26,0 6.28,1.407 6.28,6.282 0,4.343 -3.32,6.265 -6.28,6.265 -0.69,0 -1.57,-0.172 -2.1,-0.344 3.66,10.969 13.08,14.11 19.17,14.11 8.71,0 18.3,-7.672 18.3,-22.297 v -7.672 c -10.28,-0.344 -22.66,-1.734 -32.41,-6.969 -10.98,-6.093 -14.11,-14.812 -14.11,-21.422 0,-13.421 15.68,-17.25 24.91,-17.25 9.58,0 18.47,5.391 22.3,15.329 0.36,-7.672 5.23,-14.641 12.89,-14.641 3.65,0 12.89,2.453 12.89,16.203 z m -26.47,8.719 c 0,-15.156 -10.81,-22.828 -20.39,-22.828 -8.7,0 -15.5,6.453 -15.5,14.468 0,5.219 2.27,14.454 12.36,20.032 8.37,4.703 17.95,5.406 23.53,5.75 v -17.422" /><path
         id="path156"
         style="fill:#000000;fill-opacity:1;fill-rule:nonzero;stroke:none"
         d="m 2996.58,510.906 c 0,3.313 -2.63,6.797 -8.19,6.797 -6.97,0 -13.08,-3.312 -17.95,-7.844 -5.22,4.704 -11.5,6.454 -17.08,6.454 -13.75,0 -25.61,-10.813 -25.61,-25.266 0,-9.938 5.75,-16.203 7.5,-17.938 -5.23,-6.109 -5.23,-13.25 -5.23,-14.125 0,-4.531 1.75,-11.14 7.67,-14.796 -9.06,-2.266 -16.21,-9.235 -16.21,-17.954 0,-12.546 16.55,-21.781 36.41,-21.781 19.17,0 36.42,8.891 36.42,21.953 0,23.703 -25.78,23.703 -39.2,23.703 -4,0 -11.16,0 -12.02,0.172 -5.4,0.875 -9.06,5.75 -9.06,11.844 0,1.563 0,5.406 3.31,9.234 3.32,-2.609 9.05,-5.578 16.02,-5.578 13.77,0 25.62,10.813 25.62,25.266 0,4.531 -1.4,11.5 -6.62,16.906 4.87,5.219 12.02,6.969 16.03,6.969 0.69,0 1.74,0 2.61,-0.531 -0.7,-0.172 -2.27,-0.875 -2.27,-3.657 0,-2.265 1.57,-3.828 3.83,-3.828 2.63,0 4.02,1.735 4.02,4 z m -27.88,-19.859 c 0,-3.484 0,-22.297 -15.34,-22.297 -15.33,0 -15.33,18.813 -15.33,22.297 0,3.484 0,22.297 15.33,22.297 15.34,0 15.34,-18.813 15.34,-22.297 z m 18.64,-64.813 c 0,-9.578 -12.03,-18.812 -29.45,-18.812 -17.42,0 -29.44,9.234 -29.44,18.812 0,5.407 2.97,10.454 6.8,13.25 4.36,2.954 6.09,2.954 17.94,2.954 14.29,0 34.15,0 34.15,-16.204" /><path
         id="path158"
         style="fill:#000000;fill-opacity:1;fill-rule:nonzero;stroke:none"
         d="m 3065.08,483.734 c 0,17.766 -9.41,33.266 -29.27,33.266 -18.47,0 -33.11,-17.594 -33.11,-39.016 0,-22.656 16.55,-39.375 35.02,-39.375 19.51,0 27.19,18.469 27.19,22.125 0,1.219 -1.41,1.219 -1.41,1.219 -1.22,0 -1.39,-0.344 -2.08,-2.437 -3.84,-11.844 -13.42,-17.766 -22.48,-17.766 -7.49,0 -14.99,4.172 -19.69,11.844 -5.39,8.875 -5.39,19.156 -5.39,27.344 h 50.52 c 0.7,0.703 0.7,1.046 0.7,2.796 z m -9.41,-0.171 h -41.64 c 1.22,25.078 14.63,30.656 21.6,30.656 11.85,0 19.87,-11.156 20.04,-30.656" /><path
         id="path160"
         style="fill:#000000;fill-opacity:1;fill-rule:nonzero;stroke:none"
         d="m 3180.89,450.016 c 2.25,-9.672 10.53,-11.75 14.67,-11.75 5.53,0 9.67,3.64 12.44,9.5 2.94,6.218 5.19,16.406 5.19,16.922 0,0.875 -0.71,1.562 -1.74,1.562 -1.54,0 -1.72,-0.859 -2.42,-3.453 -3.11,-11.922 -6.2,-21.063 -13.12,-21.063 -5.18,0 -5.18,5.688 -5.18,7.938 0,3.969 0.52,5.703 2.25,12.953 1.21,4.656 2.41,9.328 3.46,14.156 l 7.08,28.157 c 1.2,4.312 1.2,4.656 1.2,5.171 0,2.594 -2.08,4.329 -4.66,4.329 -5.01,0 -6.22,-4.329 -7.26,-8.641 -1.72,-6.734 -11.05,-43.859 -12.25,-49.906 -0.17,0 -6.91,-14.157 -19.52,-14.157 -8.98,0 -10.7,7.766 -10.7,14.157 0,9.843 4.83,23.656 9.31,35.234 2.08,5.516 2.94,7.766 2.94,11.219 0,7.422 -5.35,13.812 -13.64,13.812 -15.89,0 -22.28,-25.031 -22.28,-26.422 0,-0.687 0.7,-1.546 1.9,-1.546 1.55,0 1.74,0.687 2.42,3.109 4.15,14.844 10.88,21.406 17.44,21.406 1.74,0 4.49,-0.172 4.49,-5.703 0,-4.484 -1.89,-9.5 -4.49,-16.062 -7.59,-20.547 -8.47,-27.11 -8.47,-32.282 0,-17.625 13.3,-20.39 20.39,-20.39 11.05,0 17.1,7.609 20.55,11.75" /><path
         id="path162"
         style="fill:#000000;fill-opacity:1;fill-rule:nonzero;stroke:none"
         d="m 3307.05,496.844 c 0,1.078 -0.83,1.078 -1.08,1.078 -0.24,0 -0.72,0 -1.67,-1.188 l -8.22,-10.015 c -4.17,7.14 -10.74,11.203 -19.67,11.203 -25.75,0 -52.46,-26.109 -52.46,-54.125 0,-19.906 13.96,-32.297 31.36,-32.297 9.53,0 17.88,4.047 24.8,9.891 10.36,8.703 13.47,20.265 13.47,21.218 0,1.079 -0.95,1.079 -1.31,1.079 -1.08,0 -1.19,-0.719 -1.44,-1.204 -5.49,-18.593 -21.56,-27.531 -33.49,-27.531 -12.64,0 -23.61,8.11 -23.61,25.031 0,3.813 1.19,24.563 14.66,40.172 6.56,7.625 17.77,14.313 29.09,14.313 13.11,0 18.96,-10.86 18.96,-23.016 0,-3.094 -0.36,-5.719 -0.36,-6.187 0,-1.078 1.19,-1.078 1.55,-1.078 1.31,0 1.43,0.109 1.9,2.265 l 7.52,30.391" /><path
         id="path164"
         style="fill:#000000;fill-opacity:1;fill-rule:nonzero;stroke:none"
         d="m 3384.58,397 v 6.047 h -16.24 v 160.25 h 16.24 v 6.047 h -22.27 V 397 h 22.27" /><path
         id="path166"
         style="fill:#000000;fill-opacity:1;fill-rule:nonzero;stroke:none"
         d="m 3488.89,542.063 c 1.55,3.796 4.31,11.218 15.89,11.39 v 4.5 c -3.97,-0.344 -8.47,-0.344 -12.78,-0.344 -4.14,0 -11.23,0 -15.2,0.344 v -4.5 c 8.64,-0.515 8.98,-6.562 8.98,-7.594 0,-1.89 -0.51,-3.109 -1.03,-4.484 l -34.03,-88.594 -35.56,93.078 c -0.53,1.204 -0.88,2.079 -0.88,2.938 0,4.656 6.91,4.656 10.53,4.656 v 4.5 c -5.51,-0.344 -13.64,-0.344 -19.33,-0.344 -4.5,0 -12.6,0 -16.75,0.344 v -4.5 c 10.02,0 11.91,-0.687 13.99,-6.203 L 3443.81,440 c 0.88,-2.422 1.05,-2.766 2.94,-2.766 1.91,0 2.08,0.344 2.94,2.766 l 39.2,102.063" /><path
         id="path168"
         style="fill:#000000;fill-opacity:1;fill-rule:nonzero;stroke:none"
         d="m 3532.69,569.344 h -22.27 v -6.047 h 16.24 v -160.25 h -16.24 V 397 h 22.27 v 172.344" /><path
         id="path170"
         style="fill:none;stroke:#db0651;stroke-width:15.9404;stroke-linecap:butt;stroke-linejoin:miter;stroke-miterlimit:10;stroke-dasharray:none;stroke-opacity:1"
         d="m 1638.82,296.379 c 0,0 61.44,0 85.04,0 23.6,0 85.04,0 85.04,0" /><path
         id="path172"
         style="fill:#000000;fill-opacity:1;fill-rule:nonzero;stroke:none"
         d="m 1945.19,285.766 c 0,1.75 0,2.437 -1.56,2.437 -1.4,0 -1.4,-0.515 -1.57,-2.094 -1.4,-24.39 -18.83,-39.359 -37.64,-39.359 -17.76,0 -46.17,12.531 -46.17,57.828 0,45.485 28.92,57.672 45.83,57.672 19.69,0 33.97,-17.078 37.28,-41.297 0.34,-2.078 0.34,-2.437 1.92,-2.437 1.91,0 1.91,0.359 1.91,3.484 v 41.297 c 0,3.141 -0.17,3.312 -1.22,3.312 -0.69,0 -0.88,-0.171 -2.09,-2.265 l -7.66,-14.641 c -8.55,10.813 -19,17.078 -32.41,17.078 -29.79,0 -56.79,-26.312 -56.79,-62.203 0,-36.234 27,-62.359 56.96,-62.359 26.66,0 43.21,23.515 43.21,43.547" /><path
         id="path174"
         style="fill:#000000;fill-opacity:1;fill-rule:nonzero;stroke:none"
         d="m 2031.22,260.5 v 9.766 h -3.13 v -9.938 c 0,-10.625 -4.7,-12.015 -6.96,-12.015 -7.15,0 -7.15,9.062 -7.15,16.718 v 25.094 c 0,11.5 0,17.594 -7.32,24.391 -6.44,5.75 -13.94,7.484 -19.86,7.484 -13.77,0 -23.69,-10.797 -23.69,-22.297 0,-6.437 5.22,-6.797 6.27,-6.797 2.26,0 6.28,1.407 6.28,6.282 0,4.343 -3.32,6.265 -6.28,6.265 -0.69,0 -1.57,-0.172 -2.1,-0.344 3.66,10.969 13.08,14.11 19.17,14.11 8.71,0 18.3,-7.672 18.3,-22.297 v -7.672 c -10.28,-0.344 -22.66,-1.734 -32.41,-6.969 -10.98,-6.093 -14.11,-14.812 -14.11,-21.422 0,-13.421 15.68,-17.25 24.91,-17.25 9.58,0 18.47,5.391 22.3,15.329 0.36,-7.672 5.23,-14.641 12.89,-14.641 3.65,0 12.89,2.453 12.89,16.203 z m -26.47,8.719 c 0,-15.156 -10.81,-22.828 -20.39,-22.828 -8.7,0 -15.5,6.453 -15.5,14.468 0,5.219 2.27,14.454 12.36,20.032 8.37,4.703 17.95,5.406 23.53,5.75 v -17.422" /><path
         id="path176"
         style="fill:#000000;fill-opacity:1;fill-rule:nonzero;stroke:none"
         d="m 2116.11,282.625 c 0,21.953 -15.16,38.688 -33.11,38.688 -10.45,0 -18.98,-5.75 -23.86,-12.719 v 12.719 l -20.73,-1.922 v -4.532 c 10.28,0 11.84,-1.046 11.84,-9.406 v -82.406 c 0,-6.625 -0.7,-7.484 -11.84,-7.484 v -4.532 c 4.17,0.344 11.84,0.344 16.37,0.344 4.53,0 12.36,0 16.55,-0.344 v 4.532 c -11.16,0 -11.85,0.687 -11.85,7.484 v 32.578 c 5.05,-7.312 12.36,-12.016 21.6,-12.016 17.42,0 35.03,15.329 35.03,39.016 z m -11.16,-0.172 c 0,-19.859 -11.15,-36.062 -24.9,-36.062 -6.28,0 -13.08,2.968 -18.3,11.156 -2.27,3.828 -2.27,4.875 -2.27,7.656 v 34.5 c 0,2.438 0,6.094 6.8,12.547 0.86,0.703 6.8,5.922 15.5,5.922 12.72,0 23.17,-15.859 23.17,-35.719" /><path
         id="path178"
         style="fill:#000000;fill-opacity:1;fill-rule:nonzero;stroke:none"
         d="m 2200.22,260.5 v 9.766 h -3.13 v -9.938 c 0,-10.625 -4.7,-12.015 -6.96,-12.015 -7.15,0 -7.15,9.062 -7.15,16.718 v 25.094 c 0,11.5 0,17.594 -7.32,24.391 -6.44,5.75 -13.94,7.484 -19.86,7.484 -13.77,0 -23.69,-10.797 -23.69,-22.297 0,-6.437 5.22,-6.797 6.27,-6.797 2.26,0 6.28,1.407 6.28,6.282 0,4.343 -3.32,6.265 -6.28,6.265 -0.69,0 -1.57,-0.172 -2.1,-0.344 3.66,10.969 13.08,14.11 19.17,14.11 8.71,0 18.3,-7.672 18.3,-22.297 v -7.672 c -10.28,-0.344 -22.66,-1.734 -32.41,-6.969 -10.98,-6.093 -14.11,-14.812 -14.11,-21.422 0,-13.421 15.68,-17.25 24.91,-17.25 9.58,0 18.47,5.391 22.3,15.329 0.36,-7.672 5.23,-14.641 12.89,-14.641 3.65,0 12.89,2.453 12.89,16.203 z m -26.47,8.719 c 0,-15.156 -10.81,-22.828 -20.39,-22.828 -8.7,0 -15.5,6.453 -15.5,14.468 0,5.219 2.27,14.454 12.36,20.032 8.37,4.703 17.95,5.406 23.53,5.75 v -17.422" /><path
         id="path180"
         style="fill:#000000;fill-opacity:1;fill-rule:nonzero;stroke:none"
         d="m 2268.91,265.563 c 0,0.687 -0.18,1.218 -1.41,1.218 -1.22,0 -1.39,-0.172 -2.08,-2.437 -4.53,-14.11 -14.47,-17.594 -21.95,-17.594 -11.16,0 -24.56,10.266 -24.56,36.063 0,26.468 12.89,36.062 23.17,36.062 6.78,0 16.89,-3.312 20.72,-12.891 -3.3,0 -8.19,0 -8.19,-6.109 0,-4.875 4.02,-6.266 6.28,-6.266 1.22,0 6.27,0.516 6.27,6.625 0,12.36 -11.85,21.766 -25.27,21.766 -18.47,0 -34.14,-17.062 -34.14,-39.375 0,-23.172 16.38,-39.016 34.14,-39.016 21.61,0 27.02,20.032 27.02,21.954" /><path
         id="path182"
         style="fill:#000000;fill-opacity:1;fill-rule:nonzero;stroke:none"
         d="m 2310.28,245 v 4.531 c -10.28,0 -10.62,1.047 -10.62,7.313 v 64.469 l -20.03,-1.922 v -4.532 c 9.75,0 11.14,-1.046 11.14,-9.406 v -48.437 c 0,-6.61 -0.69,-7.485 -11.85,-7.485 V 245 c 4.19,0.344 11.67,0.344 16.03,0.344 4.19,0 11.33,0 15.33,-0.344 z m -8.53,105.234 c 0,4.172 -3.31,7.141 -6.97,7.141 -4.19,0 -7.14,-3.312 -7.14,-7.141 0,-4.187 3.3,-7.14 6.97,-7.14 4.17,0 7.14,3.297 7.14,7.14" /><path
         id="path184"
         style="fill:#000000;fill-opacity:1;fill-rule:nonzero;stroke:none"
         d="m 2370.48,266.609 v 9.922 h -3.14 v -9.75 c 0,-12.031 -4.7,-20.031 -12.01,-20.031 -5.05,0 -12.02,3.484 -12.02,19.328 v 49.313 h 24.39 v 4.531 h -24.39 v 32.219 h -3.14 c -0.34,-17.938 -6.45,-33.625 -21.25,-33.969 v -2.781 h 15.16 v -48.969 c 0,-3.297 0,-22.813 20.2,-22.813 10.28,0 16.2,10.11 16.2,23" /><path
         id="path186"
         style="fill:#000000;fill-opacity:1;fill-rule:nonzero;stroke:none"
         d="m 2453.09,282.281 c 0,22.297 -16.2,39.719 -35.2,39.719 -18.98,0 -35.19,-17.422 -35.19,-39.719 0,-21.953 16.21,-38.672 35.19,-38.672 19,0 35.2,16.719 35.2,38.672 z m -11.15,1.391 c 0,-6.797 -0.35,-17.25 -5.05,-25.609 -4.87,-8.016 -12.37,-11.313 -19,-11.313 -8.19,0 -15.16,4.875 -19.16,11.672 -4.35,7.828 -4.87,17.594 -4.87,25.25 0,7.328 0.34,16.375 4.87,24.219 3.49,5.75 10.29,11.328 19.16,11.328 7.84,0 14.47,-4.36 18.64,-10.453 5.41,-8.188 5.41,-19.688 5.41,-25.094" /><path
         id="path188"
         style="fill:#000000;fill-opacity:1;fill-rule:nonzero;stroke:none"
         d="m 2517.02,312.25 c 0,5.578 -5.58,9.063 -11.5,9.063 -13.24,0 -18.99,-12.891 -20.74,-19 h -0.17 v 19 l -20.2,-1.922 v -4.532 c 10.28,0 11.84,-1.046 11.84,-9.406 v -48.437 c 0,-6.61 -0.7,-7.485 -11.84,-7.485 V 245 c 4.17,0.344 12.18,0.344 16.72,0.344 5.04,0 13.93,0 18.64,-0.344 v 4.531 c -12.55,0 -14.63,0 -14.63,7.844 v 28.734 c 0,16.735 7.14,32.407 20.2,32.407 1.22,0 2.44,-0.172 3.66,-0.688 0,0 -3.83,-1.219 -3.83,-5.75 0,-4.187 3.31,-5.922 5.92,-5.922 2.1,0 5.93,1.219 5.93,6.094" /><path
         id="path190"
         style="fill:#000000;fill-opacity:1;fill-rule:nonzero;stroke:none"
         d="m 2639.91,265.563 c 0,0.687 -0.18,1.218 -1.41,1.218 -1.22,0 -1.39,-0.172 -2.08,-2.437 -4.53,-14.11 -14.47,-17.594 -21.95,-17.594 -11.16,0 -24.56,10.266 -24.56,36.063 0,26.468 12.89,36.062 23.17,36.062 6.78,0 16.89,-3.312 20.72,-12.891 -3.3,0 -8.19,0 -8.19,-6.109 0,-4.875 4.02,-6.266 6.28,-6.266 1.22,0 6.27,0.516 6.27,6.625 0,12.36 -11.85,21.766 -25.27,21.766 -18.47,0 -34.14,-17.062 -34.14,-39.375 0,-23.172 16.38,-39.016 34.14,-39.016 21.61,0 27.02,20.032 27.02,21.954" /><path
         id="path192"
         style="fill:#000000;fill-opacity:1;fill-rule:nonzero;stroke:none"
         d="m 2727.16,245 v 4.531 c -10.28,0 -11.86,1.047 -11.86,9.407 v 62.375 l -21.08,-1.922 v -4.532 c 10.28,0 11.84,-1.046 11.84,-9.406 V 273.75 c 0,-14.641 -7.83,-27.359 -20.72,-27.359 -14.29,0 -15.51,8.547 -15.51,17.593 v 57.329 l -21.08,-1.922 v -4.532 c 6.97,0 11.67,0 11.84,-6.968 v -33.453 c 0,-11.672 0,-19.157 4.54,-24.032 2.26,-2.265 6.62,-6.797 19.17,-6.797 14.79,0 20.54,12.547 21.95,16.204 h 0.17 v -16.204 l 20.74,1.391" /><path
         id="path194"
         style="fill:#000000;fill-opacity:1;fill-rule:nonzero;stroke:none"
         d="m 2791.02,312.25 c 0,5.578 -5.58,9.063 -11.5,9.063 -13.24,0 -18.99,-12.891 -20.74,-19 h -0.17 v 19 l -20.2,-1.922 v -4.532 c 10.28,0 11.84,-1.046 11.84,-9.406 v -48.437 c 0,-6.61 -0.7,-7.485 -11.84,-7.485 V 245 c 4.17,0.344 12.18,0.344 16.72,0.344 5.04,0 13.93,0 18.64,-0.344 v 4.531 c -12.55,0 -14.63,0 -14.63,7.844 v 28.734 c 0,16.735 7.14,32.407 20.2,32.407 1.22,0 2.44,-0.172 3.66,-0.688 0,0 -3.83,-1.219 -3.83,-5.75 0,-4.187 3.31,-5.922 5.92,-5.922 2.1,0 5.93,1.219 5.93,6.094" /><path
         id="path196"
         style="fill:#000000;fill-opacity:1;fill-rule:nonzero;stroke:none"
         d="m 2852.02,312.25 c 0,5.578 -5.58,9.063 -11.5,9.063 -13.24,0 -18.99,-12.891 -20.74,-19 h -0.17 v 19 l -20.2,-1.922 v -4.532 c 10.28,0 11.84,-1.046 11.84,-9.406 v -48.437 c 0,-6.61 -0.7,-7.485 -11.84,-7.485 V 245 c 4.17,0.344 12.18,0.344 16.72,0.344 5.04,0 13.93,0 18.64,-0.344 v 4.531 c -12.55,0 -14.63,0 -14.63,7.844 v 28.734 c 0,16.735 7.14,32.407 20.2,32.407 1.22,0 2.44,-0.172 3.66,-0.688 0,0 -3.83,-1.219 -3.83,-5.75 0,-4.187 3.31,-5.922 5.92,-5.922 2.1,0 5.93,1.219 5.93,6.094" /><path
         id="path198"
         style="fill:#000000;fill-opacity:1;fill-rule:nonzero;stroke:none"
         d="m 2923.08,288.734 c 0,17.766 -9.41,33.266 -29.27,33.266 -18.47,0 -33.11,-17.594 -33.11,-39.016 0,-22.656 16.55,-39.375 35.02,-39.375 19.51,0 27.19,18.469 27.19,22.125 0,1.219 -1.41,1.219 -1.41,1.219 -1.22,0 -1.39,-0.344 -2.08,-2.437 -3.84,-11.844 -13.42,-17.766 -22.48,-17.766 -7.49,0 -14.99,4.172 -19.69,11.844 -5.39,8.875 -5.39,19.156 -5.39,27.344 h 50.52 c 0.7,0.703 0.7,1.046 0.7,2.796 z m -9.41,-0.171 h -41.64 c 1.22,25.078 14.63,30.656 21.6,30.656 11.85,0 19.87,-11.156 20.04,-30.656" /><path
         id="path200"
         style="fill:#000000;fill-opacity:1;fill-rule:nonzero;stroke:none"
         d="m 3011.16,245 v 4.531 c -11.16,0 -11.86,0.703 -11.86,7.485 v 40.953 c 0,8.875 -1.74,23.344 -22.3,23.344 -13.77,0 -20.91,-10.625 -23.52,-17.594 h -0.17 v 17.594 l -20.56,-1.922 v -4.532 c 10.28,0 11.84,-1.046 11.84,-9.406 v -48.437 c 0,-6.61 -0.68,-7.485 -11.84,-7.485 V 245 c 4.19,0.344 11.84,0.344 16.38,0.344 4.53,0 12.37,0 16.54,-0.344 v 4.531 c -11.14,0 -11.84,0.703 -11.84,7.485 v 33.453 c 0,16.031 9.76,28.047 21.95,28.047 12.89,0 14.28,-11.5 14.28,-19.86 v -41.64 c 0,-6.61 -0.68,-7.485 -11.84,-7.485 V 245 c 4.19,0.344 11.84,0.344 16.37,0.344 4.54,0 12.38,0 16.57,-0.344" /><path
         id="path202"
         style="fill:#000000;fill-opacity:1;fill-rule:nonzero;stroke:none"
         d="m 3065.48,266.609 v 9.922 h -3.14 v -9.75 c 0,-12.031 -4.7,-20.031 -12.01,-20.031 -5.05,0 -12.02,3.484 -12.02,19.328 v 49.313 h 24.39 v 4.531 h -24.39 v 32.219 h -3.14 c -0.34,-17.938 -6.45,-33.625 -21.25,-33.969 v -2.781 h 15.16 v -48.969 c 0,-3.297 0,-22.813 20.2,-22.813 10.28,0 16.2,10.11 16.2,23" /><path
         id="path204"
         style="fill:#000000;fill-opacity:1;fill-rule:nonzero;stroke:none"
         d="m 3174.88,269.688 c 0,0.875 -0.69,1.562 -1.74,1.562 -1.55,0 -1.72,-0.516 -2.58,-3.453 -4.5,-15.719 -11.58,-21.063 -17.28,-21.063 -2.06,0 -4.48,0.516 -4.48,5.688 0,4.672 2.08,9.844 3.97,15.031 l 12.09,32.125 c 0.52,1.375 1.72,4.485 1.72,7.766 0,7.25 -5.17,13.812 -13.64,13.812 -15.89,0 -22.28,-25.031 -22.28,-26.422 0,-0.687 0.7,-1.546 1.9,-1.546 1.55,0 1.74,0.687 2.42,3.109 4.15,14.5 10.71,21.406 17.44,21.406 1.55,0 4.49,-0.172 4.49,-5.703 0,-4.484 -2.24,-10.187 -3.63,-13.984 l -12.08,-32.125 c -1.04,-2.75 -2.07,-5.516 -2.07,-8.625 0,-7.782 5.35,-14 13.64,-14 15.89,0 22.11,25.218 22.11,26.422 z m -1.4,83.078 c 0,2.578 -2.06,5.687 -5.85,5.687 -3.99,0 -8.47,-3.797 -8.47,-8.281 0,-4.313 3.62,-5.703 5.7,-5.703 4.66,0 8.62,4.5 8.62,8.297" /><path
         id="path206"
         style="fill:#000000;fill-opacity:1;fill-rule:nonzero;stroke:none"
         d="m 3272.05,301.844 c 0,1.078 -0.83,1.078 -1.08,1.078 -0.24,0 -0.72,0 -1.67,-1.188 l -8.22,-10.015 c -4.17,7.14 -10.74,11.203 -19.67,11.203 -25.75,0 -52.46,-26.109 -52.46,-54.125 0,-19.906 13.96,-32.297 31.36,-32.297 9.53,0 17.88,4.047 24.8,9.891 10.36,8.703 13.47,20.265 13.47,21.218 0,1.079 -0.95,1.079 -1.31,1.079 -1.08,0 -1.19,-0.719 -1.44,-1.204 -5.49,-18.593 -21.56,-27.531 -33.49,-27.531 -12.64,0 -23.61,8.11 -23.61,25.031 0,3.813 1.19,24.563 14.66,40.172 6.56,7.625 17.77,14.313 29.09,14.313 13.11,0 18.96,-10.86 18.96,-23.016 0,-3.094 -0.36,-5.719 -0.36,-6.187 0,-1.078 1.19,-1.078 1.55,-1.078 1.31,0 1.43,0.109 1.9,2.265 l 7.52,30.391" /><path
         id="path208"
         style="fill:#000000;fill-opacity:1;fill-rule:nonzero;stroke:none"
         d="m 3349.58,202 v 6.047 h -16.24 v 160.25 h 16.24 v 6.047 h -22.27 V 202 h 22.27" /><path
         id="path210"
         style="fill:#000000;fill-opacity:1;fill-rule:nonzero;stroke:none"
         d="m 3414.69,364.328 c -0.86,2.25 -1.21,2.766 -2.94,2.766 -1.72,0 -2.06,-0.516 -2.94,-2.766 L 3372.2,260.719 c -3.28,-9.328 -10.18,-11.235 -16.23,-11.235 V 245 c 3.11,0.344 10.01,0.344 13.3,0.344 4.32,0 11.23,0 15.37,-0.344 v 4.484 c -8.12,0.344 -9.33,5.875 -9.33,7.954 0,1.546 0.35,2.421 0.69,3.453 l 9.16,25.734 h 45.25 l 10.36,-29.359 c 0.86,-2.078 0.86,-2.422 0.86,-3.11 0,-4.672 -7.43,-4.672 -10.71,-4.672 V 245 c 5,0.344 13.99,0.344 19.35,0.344 4.48,0 13.12,0 17.26,-0.344 v 4.484 c -9.15,0 -12.26,0 -14.5,6.391 z m -6.91,-13.812 21.06,-59.407 h -42.12 z" /><path
         id="path212"
         style="fill:#000000;fill-opacity:1;fill-rule:nonzero;stroke:none"
         d="m 3496.69,374.344 h -22.27 v -6.047 h 16.24 v -160.25 h -16.24 V 202 h 22.27 v 172.344" /></g></g></svg>
