<?xml version="1.0" encoding="UTF-8" standalone="no"?>
<svg
   xmlns:dc="http://purl.org/dc/elements/1.1/"
   xmlns:cc="http://creativecommons.org/ns#"
   xmlns:rdf="http://www.w3.org/1999/02/22-rdf-syntax-ns#"
   xmlns:svg="http://www.w3.org/2000/svg"
   xmlns="http://www.w3.org/2000/svg"
   viewBox="0 0 350.93332 137.12"
   height="137.12"
   width="350.93332"
   xml:space="preserve"
   id="svg2"
   version="1.1"><metadata
     id="metadata8"><rdf:RDF><cc:Work
         rdf:about=""><dc:format>image/svg+xml</dc:format><dc:type
           rdf:resource="http://purl.org/dc/dcmitype/StillImage" /></cc:Work></rdf:RDF></metadata><defs
     id="defs6" /><g
     transform="matrix(1.3333333,0,0,-1.3333333,0,137.12)"
     id="g10"><g
       transform="scale(0.1)"
       id="g12"><path
         id="path14"
         style="fill:none;stroke:#000000;stroke-width:15.9404;stroke-linecap:round;stroke-linejoin:miter;stroke-miterlimit:10;stroke-dasharray:none;stroke-opacity:1"
         d="M 347.301,659.824 V 206.277 m 0,411.028 -85.039,-85.039 m 85.039,21.257 -85.039,-85.039 m 85.039,21.262 -85.039,-85.043 m 85.039,21.262 -85.039,-85.039 m 85.039,21.258 -85.039,-85.039 m 85.039,21.257 -85.039,-85.039" /><path
         id="path16"
         style="fill:none;stroke:#000000;stroke-width:15.9404;stroke-linecap:butt;stroke-linejoin:miter;stroke-miterlimit:10;stroke-dasharray:none;stroke-opacity:1"
         d="m 304.781,667.793 v 99.629 h 94.485" /><path
         id="path18"
         style="fill:#000000;fill-opacity:1;fill-rule:nonzero;stroke:none"
         d="m 374.195,786.609 50.137,-19.187 -50.137,-19.188" /><path
         id="path20"
         style="fill:none;stroke:#000000;stroke-width:15.9404;stroke-linecap:butt;stroke-linejoin:round;stroke-miterlimit:10;stroke-dasharray:none;stroke-opacity:1"
         d="m 374.195,786.609 50.137,-19.187 -50.137,-19.188 z" /><path
         id="path22"
         style="fill:#0000ff;fill-opacity:1;fill-rule:nonzero;stroke:none"
         d="m 161.922,898.594 c 0,10.875 -5.531,11.562 -6.906,11.562 -4.141,0 -7.953,-4.14 -7.953,-7.593 0,-2.079 1.218,-3.282 1.906,-3.969 1.734,-1.563 6.219,-6.219 6.219,-15.203 0,-7.25 -10.36,-47.657 -31.094,-47.657 -10.531,0 -12.594,8.797 -12.594,15.188 0,8.641 3.969,20.719 8.625,33.156 2.766,7.078 3.453,8.813 3.453,12.266 0,7.25 -5.172,13.812 -13.64,13.812 -15.8911,0 -22.2817,-25.031 -22.2817,-26.422 0,-0.687 0.7031,-1.546 1.9062,-1.546 1.5469,0 1.7344,0.687 2.4219,3.109 4.1406,14.844 10.8746,21.406 17.4376,21.406 1.547,0 4.484,0 4.484,-5.703 0,-4.484 -1.89,-9.5 -4.484,-16.062 -8.281,-22.094 -8.281,-27.454 -8.281,-31.594 0,-3.797 0.515,-10.875 5.859,-15.719 6.219,-5.359 14.859,-5.359 16.406,-5.359 28.672,0 38.516,56.484 38.516,66.328" /><path
         id="path24"
         style="fill:#0000ff;fill-opacity:1;fill-rule:nonzero;stroke:none"
         d="m 218.406,847.141 c 0,9.906 -0.593,19.547 -4.89,28.609 -4.891,9.906 -13.469,12.516 -19.313,12.516 -6.906,0 -15.375,-3.453 -19.781,-13.344 -3.344,-7.516 -4.531,-14.906 -4.531,-27.781 0,-11.563 0.828,-20.266 5.125,-28.719 4.64,-9.063 12.875,-11.922 19.062,-11.922 10.375,0 16.344,6.203 19.797,13.109 4.297,8.938 4.531,20.625 4.531,27.532 z m -24.328,-38.266 c -3.812,0 -11.562,2.156 -13.812,15.141 -1.313,7.156 -1.313,16.218 -1.313,24.562 0,9.766 0,18.594 1.906,25.625 2.016,7.985 8.094,11.688 13.219,11.688 4.531,0 11.453,-2.75 13.719,-13 1.547,-6.797 1.547,-16.203 1.547,-24.313 0,-7.984 0,-17.047 -1.313,-24.312 -2.265,-13.125 -9.765,-15.391 -13.953,-15.391" /><path
         id="path26"
         style="fill:#0000ff;fill-opacity:1;fill-rule:nonzero;stroke:none"
         d="m 387.047,889.438 c 2.578,0 5.172,0 5.172,2.937 0,3.109 -2.938,3.109 -5.875,3.109 h -96.531 c -2.938,0 -5.875,0 -5.875,-3.109 0,-2.937 2.593,-2.937 5.187,-2.937 z m -0.703,-30.75 c 2.937,0 5.875,0 5.875,3.109 0,2.937 -2.594,2.937 -5.172,2.937 h -97.922 c -2.594,0 -5.187,0 -5.187,-2.937 0,-3.109 2.937,-3.109 5.875,-3.109 h 96.531" /><path
         id="path28"
         style="fill:#0000ff;fill-opacity:1;fill-rule:nonzero;stroke:none"
         d="m 519.531,889.438 c 0,10.531 -0.172,28.484 -7.422,42.312 -6.39,12.078 -16.578,16.406 -25.562,16.406 -8.297,0 -18.828,-3.812 -25.391,-16.234 -6.906,-12.953 -7.593,-29.016 -7.593,-42.484 0,-9.844 0.171,-24.875 5.531,-38 7.422,-17.782 20.719,-20.204 27.453,-20.204 7.937,0 20.031,3.282 27.109,19.688 5.188,11.922 5.875,25.906 5.875,38.516 z M 486.547,834 c -11.047,0 -17.609,9.5 -20.031,22.625 -1.907,10.188 -1.907,25.031 -1.907,34.703 0,13.297 0,24.36 2.25,34.891 3.282,14.672 12.954,19.172 19.688,19.172 7.078,0 16.234,-4.672 19.516,-18.828 2.25,-9.844 2.421,-21.407 2.421,-35.235 0,-11.219 0,-25.031 -2.078,-35.219 C 502.781,837.281 492.594,834 486.547,834" /><path
         id="path30"
         style="fill:none;stroke:#000000;stroke-width:15.9404;stroke-linecap:round;stroke-linejoin:miter;stroke-miterlimit:10;stroke-dasharray:none;stroke-opacity:1"
         d="m 630.77,433.051 2.265,-15.965 3.082,-15.648 3.867,-15.024 4.621,-14.086 5.317,-12.879 5.941,-11.41 6.485,-9.719 6.937,-7.832 7.289,-5.785 7.535,-3.625 7.661,-1.398 7.671,0.867 7.575,3.109 7.355,5.289 7.027,7.364 6.602,9.289 6.074,11.035 5.473,12.558 4.789,13.829 4.051,14.828 3.265,15.527 2.457,15.922 1.637,15.992 0.817,15.75 0.019,15.195 -0.742,14.336 -1.449,13.184 -2.094,11.777 -2.66,10.137 -3.133,8.289 -3.508,6.277 -3.777,4.137 -3.934,1.922 -3.972,-0.336 -3.899,-2.586 -3.707,-4.785 -3.41,-6.887 -3.004,-8.855 -2.5,-10.645 -1.91,-12.219 -1.246,-13.558 -0.52,-14.617 0.254,-15.395 1.059,-15.855 1.879,-16.004 2.699,-15.836 3.504,-15.356 4.273,-14.558 5,-13.481 5.656,-12.132 6.239,-10.54 6.738,-8.734 7.141,-6.762 7.429,-4.648 7.617,-2.445 7.68,-0.196 7.637,2.063 7.469,4.273 7.195,6.406 6.816,8.407 6.332,10.242 5.766,11.875 5.117,13.262 4.403,14.398 3.636,15.238 2.84,15.778 2.024,15.996 1.199,15.906 0.386,15.492 -0.39,14.778 -1.125,13.753 -1.801,12.473 -2.402,10.934 -2.922,9.172 -3.348,7.238 -3.664,5.156 -3.875,2.969 -3.969,0.723 -3.945,-1.536 -3.812,-3.761 -3.563,-5.914 -3.207,-7.954 -2.746,-9.832 -2.199,-11.503 -1.567,-12.965 -0.867,-14.157 -0.113,-15.07 0.68,-15.676 1.492,-15.972 2.316,-15.957 3.129,-15.618 3.918,-14.972 4.664,-14.024 5.359,-12.793 5.977,-11.312 6.516,-9.606 6.964,-7.707 7.309,-5.652 7.543,-3.484 7.664,-1.258 7.668,1.008 7.563,3.242 7.339,5.422 7.004,7.484 6.575,9.406 6.039,11.137 5.429,12.645 4.742,13.898 4.004,14.883 3.219,15.562 2.406,15.934 1.582,15.988 0.77,15.727 -0.031,15.148 -0.785,14.274 -1.493,13.101 -2.132,11.684 -2.692,10.023 -3.16,8.164 -3.527,6.149 -3.789,4.004 -3.942,1.781 -3.969,-0.477 -3.89,-2.718 -3.696,-4.922 -3.386,-7.016 -2.973,-8.973 -2.465,-10.746 -1.871,-12.312 -1.203,-13.633 -0.473,-14.676 0.301,-15.429 1.11,-15.875 1.929,-16.004 2.75,-15.813 3.555,-15.312 4.32,-14.504 5.039,-13.403 5.7,-12.039 6.273,-10.429 6.766,-8.621 7.16,-6.633 7.445,-4.516 7.621,-2.305 7.684,-0.054 7.629,2.195 7.457,4.414 7.175,6.535 6.786,8.528 6.3,10.351 5.727,11.969 5.07,13.34 4.36,14.461 3.589,15.277 2.79,15.801 1.97,16 1.15,15.891 0.34,15.457 -0.44,14.718 -1.17,13.684 -1.84,12.383 -2.44,10.828 -2.949,9.058 -3.371,7.114 -3.68,5.023 -3.883,2.828 -3.973,0.586 -3.941,-1.672 -3.801,-3.902 -3.543,-6.047 -3.179,-8.074 -2.715,-9.942 -2.16,-11.609 -1.524,-13.043 -0.824,-14.223 -0.067,-15.109 0.727,-15.707 1.547,-15.98 2.367,-15.946 3.18,-15.59 3.969,-14.918 4.71,-13.953 5.395,-12.711 6.016,-11.211 6.547,-9.492 6.988,-7.582 7.324,-5.523 7.55,-3.356 7.67,-1.113 7.67,1.149 7.55,3.386 7.32,5.551 6.98,7.613 6.55,9.52 6,11.234 5.39,12.731 4.7,13.968 3.95,14.93 3.17,15.598 2.36,15.945" /><path
         id="path32"
         style="fill:#0000ff;fill-opacity:1;fill-rule:nonzero;stroke:none"
         d="m 920,716.016 c 0,1.562 -1.203,1.562 -1.547,1.562 -0.344,0 -1.047,0 -2.422,-1.734 l -11.922,-14.5 c -6.046,10.359 -15.531,16.234 -28.484,16.234 -37.312,0 -75.984,-37.828 -75.984,-78.406 0,-28.844 20.203,-46.797 45.406,-46.797 13.828,0 25.906,5.875 35.922,14.328 15.031,12.61 19.515,29.36 19.515,30.75 0,1.547 -1.375,1.547 -1.89,1.547 -1.563,0 -1.735,-1.031 -2.078,-1.719 -7.938,-26.953 -31.25,-39.906 -48.532,-39.906 -18.296,0 -34.187,11.75 -34.187,36.266 0,5.531 1.719,35.578 21.234,58.203 9.5,11.047 25.735,20.719 42.141,20.719 19,0 27.453,-15.704 27.453,-33.329 0,-4.484 -0.516,-8.281 -0.516,-8.968 0,-1.563 1.735,-1.563 2.25,-1.563 1.907,0 2.079,0.172 2.766,3.281 L 920,716.016" /><path
         id="path34"
         style="fill:none;stroke:#000000;stroke-width:15.9404;stroke-linecap:butt;stroke-linejoin:miter;stroke-miterlimit:10;stroke-dasharray:none;stroke-opacity:1"
         d="m 1375.75,206.277 h 453.551 V 659.824 H 1375.75 Z" /><path
         id="path36"
         style="fill:#000000;fill-opacity:1;fill-rule:nonzero;stroke:none"
         d="m 1564.58,446.594 c 0.34,1.047 4.65,9.672 11.05,15.203 4.5,4.141 10.35,6.906 17.09,6.906 6.91,0 9.33,-5.187 9.33,-12.094 0,-1.031 0,-4.484 -2.07,-12.593 l -4.32,-17.797 c -1.38,-5.172 -4.66,-17.953 -5,-19.86 -0.71,-2.593 -1.74,-7.078 -1.74,-7.765 0,-2.422 1.91,-4.328 4.5,-4.328 5.17,0 6.03,3.984 7.6,10.203 l 10.36,41.265 c 0.34,1.391 9.32,22.969 28.32,22.969 6.91,0 9.32,-5.187 9.32,-12.094 0,-9.671 -6.74,-28.484 -10.54,-38.843 -1.54,-4.157 -2.42,-6.391 -2.42,-9.5 0,-7.782 5.36,-14 13.66,-14 16.05,0 22.09,25.39 22.09,26.422 0,0.875 -0.68,1.562 -1.72,1.562 -1.56,0 -1.73,-0.516 -2.59,-3.453 -3.97,-13.813 -10.36,-21.063 -17.27,-21.063 -1.73,0 -4.5,0.172 -4.5,5.688 0,4.5 2.08,10.016 2.77,11.922 3.11,8.281 10.89,28.672 10.89,38.687 0,10.36 -6.05,18.125 -19.17,18.125 -11.58,0 -20.91,-6.562 -27.81,-16.75 -0.52,9.328 -6.22,16.75 -19.18,16.75 -15.35,0 -23.48,-10.875 -26.59,-15.203 -0.51,9.844 -7.59,15.203 -15.19,15.203 -5.01,0 -8.98,-2.422 -12.26,-8.984 -3.11,-6.219 -5.53,-16.75 -5.53,-17.438 0,-0.687 0.7,-1.546 1.9,-1.546 1.38,0 1.55,0.171 2.6,4.14 2.59,10.188 5.87,20.375 12.78,20.375 3.97,0 5.34,-2.765 5.34,-7.937 0,-3.813 -1.72,-10.547 -2.94,-15.891 l -4.82,-18.656 c -0.69,-3.281 -2.6,-11.047 -3.46,-14.156 -1.2,-4.485 -3.11,-12.61 -3.11,-13.469 0,-2.422 1.91,-4.328 4.49,-4.328 2.08,0 4.5,1.047 5.87,3.64 0.35,0.86 1.91,6.907 2.77,10.36 l 3.8,15.531 5.7,22.797" /><path
         id="path38"
         style="fill:none;stroke:#000000;stroke-width:15.9404;stroke-linecap:butt;stroke-linejoin:miter;stroke-miterlimit:10;stroke-dasharray:none;stroke-opacity:1"
         d="m 1602.53,667.793 v 99.629 h 94.49" /><path
         id="path40"
         style="fill:#000000;fill-opacity:1;fill-rule:nonzero;stroke:none"
         d="m 1671.95,786.609 50.13,-19.187 -50.13,-19.188" /><path
         id="path42"
         style="fill:none;stroke:#000000;stroke-width:15.9404;stroke-linecap:butt;stroke-linejoin:round;stroke-miterlimit:10;stroke-dasharray:none;stroke-opacity:1"
         d="m 1671.95,786.609 50.13,-19.187 -50.13,-19.188 z" /><path
         id="path44"
         style="fill:#0000ff;fill-opacity:1;fill-rule:nonzero;stroke:none"
         d="m 1608.92,898.594 c 0,10.875 -5.53,11.562 -6.9,11.562 -4.14,0 -7.96,-4.14 -7.96,-7.593 0,-2.079 1.22,-3.282 1.91,-3.969 1.73,-1.563 6.22,-6.219 6.22,-15.203 0,-7.25 -10.36,-47.657 -31.1,-47.657 -10.53,0 -12.59,8.797 -12.59,15.188 0,8.641 3.97,20.719 8.63,33.156 2.76,7.078 3.45,8.813 3.45,12.266 0,7.25 -5.17,13.812 -13.64,13.812 -15.89,0 -22.28,-25.031 -22.28,-26.422 0,-0.687 0.7,-1.546 1.9,-1.546 1.55,0 1.74,0.687 2.42,3.109 4.15,14.844 10.88,21.406 17.44,21.406 1.55,0 4.49,0 4.49,-5.703 0,-4.484 -1.89,-9.5 -4.49,-16.062 -8.28,-22.094 -8.28,-27.454 -8.28,-31.594 0,-3.797 0.52,-10.875 5.86,-15.719 6.22,-5.359 14.86,-5.359 16.41,-5.359 28.67,0 38.51,56.484 38.51,66.328" /><path
         id="path46"
         style="fill:#0000ff;fill-opacity:1;fill-rule:nonzero;stroke:none"
         d="m 1646.33,885.406 c 0,2.75 0,2.86 -2.38,2.86 -2.87,-3.219 -8.82,-7.625 -21.11,-7.625 v -3.453 c 2.75,0 8.71,0 15.27,3.093 v -62.109 c 0,-4.281 -0.36,-5.719 -10.84,-5.719 h -3.71 V 809 c 3.22,0.234 14.78,0.234 18.72,0.234 3.94,0 15.38,0 18.6,-0.234 v 3.453 h -3.71 c -10.48,0 -10.84,1.438 -10.84,5.719 v 67.234" /><path
         id="path48"
         style="fill:#0000ff;fill-opacity:1;fill-rule:nonzero;stroke:none"
         d="m 1564.58,133.594 c 0.34,1.047 4.65,9.672 11.05,15.203 4.5,4.141 10.35,6.906 17.09,6.906 6.91,0 9.33,-5.187 9.33,-12.094 0,-1.031 0,-4.484 -2.07,-12.593 l -4.32,-17.797 c -1.38,-5.172 -4.66,-17.9534 -5,-19.8596 -0.71,-2.5938 -1.74,-7.0781 -1.74,-7.7656 0,-2.4219 1.91,-4.3282 4.5,-4.3282 5.17,0 6.03,3.9844 7.6,10.2032 l 10.36,41.2652 c 0.34,1.391 9.32,22.969 28.32,22.969 6.91,0 9.32,-5.187 9.32,-12.094 0,-9.671 -6.74,-28.484 -10.54,-38.843 -1.54,-4.157 -2.42,-6.391 -2.42,-9.5004 0,-7.7812 5.36,-14 13.66,-14 16.05,0 22.09,25.3904 22.09,26.4224 0,0.875 -0.68,1.562 -1.72,1.562 -1.56,0 -1.73,-0.516 -2.59,-3.453 -3.97,-13.8126 -10.36,-21.0626 -17.27,-21.0626 -1.73,0 -4.5,0.1719 -4.5,5.6875 0,4.5 2.08,10.0161 2.77,11.9221 3.11,8.281 10.89,28.672 10.89,38.687 0,10.36 -6.05,18.125 -19.17,18.125 -11.58,0 -20.91,-6.562 -27.81,-16.75 -0.52,9.328 -6.22,16.75 -19.18,16.75 -15.35,0 -23.48,-10.875 -26.59,-15.203 -0.51,9.844 -7.59,15.203 -15.19,15.203 -5.01,0 -8.98,-2.422 -12.26,-8.984 -3.11,-6.219 -5.53,-16.75 -5.53,-17.438 0,-0.687 0.7,-1.546 1.9,-1.546 1.38,0 1.55,0.171 2.6,4.14 2.59,10.188 5.87,20.375 12.78,20.375 3.97,0 5.34,-2.765 5.34,-7.937 0,-3.813 -1.72,-10.547 -2.94,-15.891 l -4.82,-18.656 c -0.69,-3.281 -2.6,-11.047 -3.46,-14.1565 -1.2,-4.4844 -3.11,-12.6094 -3.11,-13.4687 0,-2.4219 1.91,-4.3282 4.49,-4.3282 2.08,0 4.5,1.0469 5.87,3.6407 0.35,0.8593 1.91,6.9062 2.77,10.3593 l 3.8,15.5314 5.7,22.797" /><path
         id="path50"
         style="fill:none;stroke:#000000;stroke-width:15.9404;stroke-linecap:round;stroke-linejoin:miter;stroke-miterlimit:10;stroke-dasharray:none;stroke-opacity:1"
         d="m 2120.74,433.051 h 136.07 m 181.41,0 h 136.07 m -453.55,56.691 56.69,-56.691 -56.69,-56.696 m 396.86,113.387 56.69,-56.691 -56.69,-56.696" /><path
         id="path52"
         style="fill:#000000;fill-opacity:1;fill-rule:nonzero;stroke:none"
         d="m 2389.95,491.609 h -85.14 v -4.5 c 11.91,0 13.82,0 13.82,-7.765 v -93.078 c 0,-7.782 -1.91,-7.782 -13.82,-7.782 V 374 c 5,0.344 14.67,0.344 20.03,0.344 7.08,0 15.36,0 22.46,-0.344 v 4.484 h -3.82 c -13.12,0 -13.46,1.735 -13.46,7.954 v 44.203 h 15.54 c 16.07,0 17.61,-5.703 17.61,-20.203 h 3.11 v 44.906 h -3.11 c 0,-14.516 -1.54,-20.203 -17.61,-20.203 h -15.54 v 45.234 c 0,5.875 0.34,6.734 7.26,6.734 h 22.27 c 26.08,0 29.01,-10.703 31.43,-33.671 h 3.11 l -4.14,38.171" /><path
         id="path54"
         style="fill:#0000ff;fill-opacity:1;fill-rule:nonzero;stroke:none"
         d="m 2265.58,621.594 c 0.34,1.047 4.65,9.672 11.05,15.203 4.5,4.141 10.35,6.906 17.09,6.906 6.91,0 9.33,-5.187 9.33,-12.094 0,-1.031 0,-4.484 -2.07,-12.593 l -4.32,-17.797 c -1.38,-5.172 -4.66,-17.953 -5,-19.86 -0.71,-2.593 -1.74,-7.078 -1.74,-7.765 0,-2.422 1.91,-4.328 4.5,-4.328 5.17,0 6.03,3.984 7.6,10.203 l 10.36,41.265 c 0.34,1.391 9.32,22.969 28.32,22.969 6.91,0 9.32,-5.187 9.32,-12.094 0,-9.671 -6.74,-28.484 -10.54,-38.843 -1.54,-4.157 -2.42,-6.391 -2.42,-9.5 0,-7.782 5.36,-14 13.66,-14 16.05,0 22.09,25.39 22.09,26.422 0,0.875 -0.68,1.562 -1.72,1.562 -1.56,0 -1.73,-0.516 -2.59,-3.453 -3.97,-13.813 -10.36,-21.063 -17.27,-21.063 -1.73,0 -4.5,0.172 -4.5,5.688 0,4.5 2.08,10.016 2.77,11.922 3.11,8.281 10.89,28.672 10.89,38.687 0,10.36 -6.05,18.125 -19.17,18.125 -11.58,0 -20.91,-6.562 -27.81,-16.75 -0.52,9.328 -6.22,16.75 -19.18,16.75 -15.35,0 -23.48,-10.875 -26.59,-15.203 -0.51,9.844 -7.59,15.203 -15.19,15.203 -5.01,0 -8.98,-2.422 -12.26,-8.984 -3.11,-6.219 -5.53,-16.75 -5.53,-17.438 0,-0.687 0.7,-1.546 1.9,-1.546 1.38,0 1.55,0.171 2.6,4.14 2.59,10.188 5.87,20.375 12.78,20.375 3.97,0 5.34,-2.765 5.34,-7.937 0,-3.813 -1.72,-10.547 -2.94,-15.891 l -4.82,-18.656 c -0.69,-3.281 -2.6,-11.047 -3.46,-14.156 -1.2,-4.485 -3.11,-12.61 -3.11,-13.469 0,-2.422 1.91,-4.328 4.49,-4.328 2.08,0 4.5,1.047 5.87,3.64 0.35,0.86 1.91,6.907 2.77,10.36 l 3.8,15.531 5.7,22.797" /><path
         id="path56"
         style="fill:#0000ff;fill-opacity:1;fill-rule:nonzero;stroke:none"
         d="m 2380.77,548.375 1.89,-2.25 6.04,3.281 c 9.33,-7.593 21.25,-14.5 33.5,-14.5 1.39,0 4.16,0.688 6.22,1.375 10.19,9.844 19.35,20.735 28.16,31.782 l -5.02,21.765 c -0.51,2.235 -0.86,4.656 -0.86,7.078 0,21.578 -1.37,42.657 3.8,53.36 l -1.03,1.031 -12.44,-6.906 c -6.9,1.562 -13.81,3.797 -19.69,7.781 -9.5,-5.531 -18.82,-11.234 -27.96,-17.625 -1.74,-11.391 -2.6,-22.969 -2.6,-34.531 0,-5.875 0.35,-11.922 0.69,-17.797 l 12.44,-15.36 c -7.77,-6.734 -15.38,-13.125 -23.14,-18.484 z m 56.29,39.375 c 1.89,-8.109 4.66,-20.719 4.66,-24.516 0,-7.953 -4.49,-15.546 -12.78,-15.546 -9.66,0 -18.47,6.734 -25.55,13.812 10.7,9.156 22.09,18.141 33.67,26.25 z m -19.68,-9.672 c -4.32,3.969 -9.16,9.328 -11.75,14.328 -0.69,7.782 -0.86,15.719 -0.86,23.5 0,7.594 0.34,16.235 3.11,23.141 8.29,-3.813 20.37,-6.047 30.39,-7.438 -1.21,-12.953 -1.55,-26.25 -1.55,-39.375 l -19.34,-14.156" /><path
         id="path58"
         style="fill:none;stroke:#000000;stroke-width:15.9404;stroke-linecap:round;stroke-linejoin:miter;stroke-miterlimit:10;stroke-dasharray:none;stroke-opacity:1"
         d="M 347.301,433.051 H 630.77 m 453.55,0 h 283.47 m 469.48,0 h 283.47" /></g></g></svg>
