<?xml version="1.0" encoding="UTF-8" standalone="no"?>
<svg
   xmlns:dc="http://purl.org/dc/elements/1.1/"
   xmlns:cc="http://creativecommons.org/ns#"
   xmlns:rdf="http://www.w3.org/1999/02/22-rdf-syntax-ns#"
   xmlns:svg="http://www.w3.org/2000/svg"
   xmlns="http://www.w3.org/2000/svg"
   viewBox="0 0 421.79999 315.23999"
   height="315.23999"
   width="421.79999"
   xml:space="preserve"
   id="svg2"
   version="1.1"><metadata
     id="metadata8"><rdf:RDF><cc:Work
         rdf:about=""><dc:format>image/svg+xml</dc:format><dc:type
           rdf:resource="http://purl.org/dc/dcmitype/StillImage" /></cc:Work></rdf:RDF></metadata><defs
     id="defs6" /><g
     transform="matrix(1.3333333,0,0,-1.3333333,0,315.24)"
     id="g10"><g
       transform="scale(0.1)"
       id="g12"><path
         id="path14"
         style="fill:#000000;fill-opacity:1;fill-rule:nonzero;stroke:none"
         d="m 124.75,372.281 c 0,5 -0.344,5 -5.875,5 -12.781,-11.047 -31.9375,-11.047 -35.7344,-11.047 h -3.2812 v -7.421 h 3.2812 c 6.0313,0 15.1875,1.031 22.0934,3.281 V 271.422 H 81.2344 V 264 c 7.25,0.344 25.3906,0.344 33.4996,0.344 8.125,0 26.422,0 33.672,-0.344 v 7.422 H 124.75 v 100.859" /><path
         id="path16"
         style="fill:#0000ff;fill-opacity:1;fill-rule:nonzero;stroke:none"
         d="m 288.922,173.594 c 0,10.875 -5.531,11.562 -6.906,11.562 -4.141,0 -7.953,-4.14 -7.953,-7.593 0,-2.079 1.218,-3.282 1.906,-3.969 1.734,-1.563 6.219,-6.219 6.219,-15.203 0,-7.25 -10.36,-47.657 -31.094,-47.657 -10.531,0 -12.594,8.797 -12.594,15.188 0,8.641 3.969,20.719 8.625,33.156 2.766,7.078 3.453,8.813 3.453,12.266 0,7.25 -5.172,13.812 -13.64,13.812 -15.891,0 -22.282,-25.031 -22.282,-26.422 0,-0.687 0.703,-1.546 1.907,-1.546 1.546,0 1.734,0.687 2.421,3.109 4.141,14.844 10.875,21.406 17.438,21.406 1.547,0 4.484,0 4.484,-5.703 0,-4.484 -1.89,-9.5 -4.484,-16.062 -8.281,-22.094 -8.281,-27.454 -8.281,-31.594 0,-3.797 0.515,-10.875 5.859,-15.719 6.219,-5.359 14.859,-5.359 16.406,-5.359 28.672,0 38.516,56.484 38.516,66.328" /><path
         id="path18"
         style="fill:#0000ff;fill-opacity:1;fill-rule:nonzero;stroke:none"
         d="m 344.406,121.141 c 0,9.906 -0.593,19.547 -4.89,28.609 -4.891,9.906 -13.469,12.516 -19.313,12.516 -6.906,0 -15.375,-3.453 -19.781,-13.344 -3.344,-7.516 -4.531,-14.906 -4.531,-27.781 0,-11.563 0.828,-20.266 5.125,-28.7191 4.64,-9.0625 12.875,-11.9219 19.062,-11.9219 10.375,0 16.344,6.2031 19.797,13.1094 4.297,8.9376 4.531,20.6246 4.531,27.5316 z M 320.078,82.875 c -3.812,0 -11.562,2.1563 -13.812,15.1406 -1.313,7.1564 -1.313,16.2184 -1.313,24.5624 0,9.766 0,18.594 1.906,25.625 2.016,7.985 8.094,11.688 13.219,11.688 4.531,0 11.453,-2.75 13.719,-13 1.547,-6.797 1.547,-16.203 1.547,-24.313 0,-7.984 0,-17.047 -1.313,-24.3124 -2.265,-13.125 -9.765,-15.3906 -13.953,-15.3906" /><path
         id="path20"
         style="fill:#000000;fill-opacity:1;fill-rule:nonzero;stroke:none"
         d="m 1004.28,319.094 c 0,16.578 0,58.187 -40.749,58.187 -40.937,0 -40.937,-41.437 -40.937,-58.187 0,-16.578 0,-57.172 40.765,-57.172 40.751,0 40.921,40.078 40.921,57.172 z m -40.749,-51.469 c -5.531,0 -9.672,2.25 -13.125,5.875 -4.328,4.313 -7.078,7.078 -7.078,47.656 0,12.094 0,23.141 1.375,32.125 2.422,17.094 14.86,18.313 18.656,18.313 5.516,0 16.235,-2.594 18.641,-17.11 1.563,-8.796 1.563,-22.781 1.563,-33.328 0,-40.75 -2.594,-43.172 -7.782,-48.343 -3.453,-3.454 -8.109,-5.188 -12.25,-5.188" /><path
         id="path22"
         style="fill:#000000;fill-opacity:1;fill-rule:nonzero;stroke:none"
         d="m 1825.75,372.281 c 0,5 -0.34,5 -5.87,5 -12.79,-11.047 -31.94,-11.047 -35.74,-11.047 h -3.28 v -7.421 h 3.28 c 6.03,0 15.19,1.031 22.09,3.281 v -90.672 h -24 V 264 c 7.25,0.344 25.4,0.344 33.5,0.344 8.13,0 26.43,0 33.68,-0.344 v 7.422 h -23.66 v 100.859" /><path
         id="path24"
         style="fill:#0000ff;fill-opacity:1;fill-rule:nonzero;stroke:none"
         d="m 1988.92,173.594 c 0,10.875 -5.53,11.562 -6.9,11.562 -4.14,0 -7.96,-4.14 -7.96,-7.593 0,-2.079 1.22,-3.282 1.91,-3.969 1.73,-1.563 6.22,-6.219 6.22,-15.203 0,-7.25 -10.36,-47.657 -31.1,-47.657 -10.53,0 -12.59,8.797 -12.59,15.188 0,8.641 3.97,20.719 8.63,33.156 2.76,7.078 3.45,8.813 3.45,12.266 0,7.25 -5.17,13.812 -13.64,13.812 -15.89,0 -22.28,-25.031 -22.28,-26.422 0,-0.687 0.7,-1.546 1.9,-1.546 1.55,0 1.74,0.687 2.42,3.109 4.15,14.844 10.88,21.406 17.44,21.406 1.55,0 4.49,0 4.49,-5.703 0,-4.484 -1.89,-9.5 -4.49,-16.062 -8.28,-22.094 -8.28,-27.454 -8.28,-31.594 0,-3.797 0.52,-10.875 5.86,-15.719 6.22,-5.359 14.86,-5.359 16.41,-5.359 28.67,0 38.51,56.484 38.51,66.328" /><path
         id="path26"
         style="fill:#0000ff;fill-opacity:1;fill-rule:nonzero;stroke:none"
         d="m 2026.33,159.406 c 0,2.75 0,2.86 -2.38,2.86 -2.87,-3.219 -8.82,-7.625 -21.11,-7.625 v -3.453 c 2.75,0 8.71,0 15.27,3.093 V 92.1719 c 0,-4.2813 -0.36,-5.7188 -10.84,-5.7188 h -3.71 V 83 c 3.22,0.2344 14.78,0.2344 18.72,0.2344 3.94,0 15.38,0 18.6,-0.2344 v 3.4531 h -3.71 c -10.48,0 -10.84,1.4375 -10.84,5.7188 v 67.2341" /><path
         id="path28"
         style="fill:#000000;fill-opacity:1;fill-rule:nonzero;stroke:none"
         d="m 974.75,1223.28 c 0,5 -0.344,5 -5.875,5 -12.781,-11.05 -31.937,-11.05 -35.734,-11.05 h -3.282 v -7.42 h 3.282 c 6.031,0 15.187,1.03 22.093,3.28 v -90.67 h -24 V 1115 c 7.25,0.34 25.391,0.34 33.5,0.34 8.125,0 26.422,0 33.672,-0.34 v 7.42 H 974.75 v 100.86" /><path
         id="path30"
         style="fill:#000000;fill-opacity:1;fill-rule:nonzero;stroke:none"
         d="m 2609.86,336.984 c -17.09,3.797 -17.61,16.235 -17.61,18.657 0,8.797 5.7,18.984 22.45,18.984 16.75,0 31.77,-8.109 35.41,-30.734 0.52,-3.625 0.52,-3.797 3.8,-3.797 3.62,0 3.62,0.515 3.62,4.484 v 32.469 c 0,3.281 0,4.5 -2.59,4.5 -1.21,0 -1.74,-0.172 -3.28,-1.906 l -7.43,-8.469 c -4.32,3.641 -12.95,10.375 -29.7,10.375 -24.7,0 -37.83,-15.547 -37.83,-34.375 0,-11.563 6.22,-19.688 8.64,-22.109 8.99,-8.969 13.82,-10.016 31.79,-13.985 17.26,-3.797 19.32,-4.14 23.14,-7.765 2.23,-2.25 7.25,-7.079 7.25,-15.891 0,-7.422 -3.63,-21.063 -22.97,-21.063 -15.21,0 -39.21,5.172 -40.6,30.391 -0.17,3.109 -0.17,3.625 -3.62,3.625 -3.63,0 -3.63,-0.516 -3.63,-4.484 v -32.469 c 0,-3.281 0,-4.5 2.6,-4.5 1.2,0 1.37,0.172 3.11,1.734 1.9,1.891 3.45,4.141 7.76,8.453 10.02,-7.937 24.19,-10.187 34.55,-10.187 26.94,0 38.33,18.312 38.33,36.609 0,16.235 -10.71,31.782 -29.53,36.094 l -23.66,5.359" /><path
         id="path32"
         style="fill:#000000;fill-opacity:1;fill-rule:nonzero;stroke:none"
         d="m 2752.06,299.172 c 3.97,0 5,0 5,4.312 0,5.172 -1.2,18.125 -9.15,26.25 -7.25,7.25 -16.93,9.5 -26.94,9.5 -26.94,0 -41.61,-17.625 -41.61,-39.375 0,-24.187 17.78,-39.89 43.86,-39.89 26.08,0 33.84,18.297 33.84,21.234 0,2.594 -2.59,2.594 -3.62,2.594 -2.77,0 -2.94,-0.516 -3.97,-2.766 -4.49,-11.218 -15.89,-14.843 -24.17,-14.843 -25.05,0 -25.22,23.312 -25.22,32.984 z m -51.98,5 c 0.34,7.078 0.51,13.812 4.14,20.031 3.28,5.531 9.33,9.328 16.75,9.328 18.48,0 20.03,-20.718 20.2,-29.359 h -41.09" /><path
         id="path34"
         style="fill:#0000ff;fill-opacity:1;fill-rule:nonzero;stroke:none"
         d="m 2881.58,345.594 c 0.34,1.047 4.65,9.672 11.05,15.203 4.5,4.141 10.35,6.906 17.09,6.906 6.91,0 9.33,-5.187 9.33,-12.094 0,-1.031 0,-4.484 -2.07,-12.593 l -4.32,-17.797 c -1.38,-5.172 -4.66,-17.953 -5,-19.86 -0.71,-2.593 -1.74,-7.078 -1.74,-7.765 0,-2.422 1.91,-4.328 4.5,-4.328 5.17,0 6.03,3.984 7.6,10.203 l 10.36,41.265 c 0.34,1.391 9.32,22.969 28.32,22.969 6.91,0 9.32,-5.187 9.32,-12.094 0,-9.671 -6.74,-28.484 -10.54,-38.843 -1.54,-4.157 -2.42,-6.391 -2.42,-9.5 0,-7.782 5.36,-14 13.66,-14 16.05,0 22.09,25.39 22.09,26.422 0,0.875 -0.68,1.562 -1.72,1.562 -1.56,0 -1.73,-0.516 -2.59,-3.453 -3.97,-13.813 -10.36,-21.063 -17.27,-21.063 -1.73,0 -4.5,0.172 -4.5,5.688 0,4.5 2.08,10.016 2.77,11.922 3.11,8.281 10.89,28.672 10.89,38.687 0,10.36 -6.05,18.125 -19.17,18.125 -11.58,0 -20.91,-6.562 -27.81,-16.75 -0.52,9.328 -6.22,16.75 -19.18,16.75 -15.35,0 -23.48,-10.875 -26.59,-15.203 -0.51,9.844 -7.59,15.203 -15.19,15.203 -5.01,0 -8.98,-2.422 -12.26,-8.984 -3.11,-6.219 -5.53,-16.75 -5.53,-17.438 0,-0.687 0.7,-1.546 1.9,-1.546 1.38,0 1.55,0.171 2.6,4.14 2.59,10.188 5.87,20.375 12.78,20.375 3.97,0 5.34,-2.765 5.34,-7.937 0,-3.813 -1.72,-10.547 -2.94,-15.891 l -4.82,-18.656 c -0.69,-3.281 -2.6,-11.047 -3.46,-14.156 -1.2,-4.485 -3.11,-12.61 -3.11,-13.469 0,-2.422 1.91,-4.328 4.49,-4.328 2.08,0 4.5,1.047 5.87,3.64 0.35,0.86 1.91,6.907 2.77,10.36 l 3.8,15.531 5.7,22.797" /><path
         id="path36"
         style="fill:#0000ff;fill-opacity:1;fill-rule:nonzero;stroke:none"
         d="m 2996.77,272.375 1.89,-2.25 6.04,3.281 c 9.33,-7.593 21.25,-14.5 33.5,-14.5 1.39,0 4.16,0.688 6.22,1.375 10.19,9.844 19.35,20.735 28.16,31.782 l -5.02,21.765 c -0.51,2.235 -0.86,4.656 -0.86,7.078 0,21.578 -1.37,42.657 3.8,53.36 l -1.03,1.031 -12.44,-6.906 c -6.9,1.562 -13.81,3.797 -19.69,7.781 -9.5,-5.531 -18.82,-11.234 -27.96,-17.625 -1.74,-11.391 -2.6,-22.969 -2.6,-34.531 0,-5.875 0.35,-11.922 0.69,-17.797 l 12.44,-15.36 c -7.77,-6.734 -15.38,-13.125 -23.14,-18.484 z m 56.29,39.375 c 1.89,-8.109 4.66,-20.719 4.66,-24.516 0,-7.953 -4.49,-15.546 -12.78,-15.546 -9.66,0 -18.47,6.734 -25.55,13.812 10.7,9.156 22.09,18.141 33.67,26.25 z m -19.68,-9.672 c -4.32,3.969 -9.16,9.328 -11.75,14.328 -0.69,7.782 -0.86,15.719 -0.86,23.5 0,7.594 0.34,16.235 3.11,23.141 8.29,-3.813 20.37,-6.047 30.39,-7.438 -1.21,-12.953 -1.55,-26.25 -1.55,-39.375 l -19.34,-14.156" /><path
         id="path38"
         style="fill:#0000ff;fill-opacity:1;fill-rule:nonzero;stroke:none"
         d="m 2812.67,350.172 c 0,4.328 -3.45,7.094 -7.08,7.094 -3.45,0 -7.09,-2.766 -7.09,-7.094 0,-4.313 3.45,-7.078 7.09,-7.078 3.46,0 7.08,2.765 7.08,7.078 z m 0,-60.094 c 0,4.313 -3.45,7.078 -7.08,7.078 -3.45,0 -7.09,-2.765 -7.09,-7.078 0,-4.312 3.45,-7.078 7.09,-7.078 3.46,0 7.08,2.766 7.08,7.078" /><path
         id="path40"
         style="fill:#000000;fill-opacity:1;fill-rule:nonzero;stroke:none"
         d="m 1825.48,1222.05 h 19.35 v 7.42 c -6.22,-0.34 -23.49,-0.34 -30.74,-0.34 -7.25,0 -24.51,0 -30.73,0.34 v -7.42 h 19.33 v -103.63 h -19.33 V 1111 c 6.22,0.34 23.48,0.34 30.73,0.34 7.25,0 24.52,0 30.74,-0.34 v 7.42 h -19.35 v 103.63" /><path
         id="path42"
         style="fill:#0000ff;fill-opacity:1;fill-rule:nonzero;stroke:none"
         d="m 1775.58,1363.59 c 0.34,1.05 4.65,9.68 11.05,15.21 4.5,4.14 10.35,6.9 17.09,6.9 6.91,0 9.33,-5.18 9.33,-12.09 0,-1.03 0,-4.48 -2.07,-12.59 l -4.32,-17.8 c -1.38,-5.17 -4.66,-17.95 -5,-19.86 -0.71,-2.59 -1.74,-7.08 -1.74,-7.77 0,-2.42 1.91,-4.32 4.5,-4.32 5.17,0 6.03,3.98 7.6,10.2 l 10.36,41.26 c 0.34,1.4 9.32,22.97 28.32,22.97 6.91,0 9.32,-5.18 9.32,-12.09 0,-9.67 -6.74,-28.48 -10.54,-38.84 -1.54,-4.16 -2.42,-6.39 -2.42,-9.5 0,-7.79 5.36,-14 13.66,-14 16.05,0 22.09,25.39 22.09,26.42 0,0.87 -0.68,1.56 -1.72,1.56 -1.56,0 -1.73,-0.52 -2.59,-3.45 -3.97,-13.82 -10.36,-21.07 -17.27,-21.07 -1.73,0 -4.5,0.18 -4.5,5.69 0,4.5 2.08,10.02 2.77,11.92 3.11,8.29 10.89,28.68 10.89,38.69 0,10.36 -6.05,18.13 -19.17,18.13 -11.58,0 -20.91,-6.57 -27.81,-16.75 -0.52,9.32 -6.22,16.75 -19.18,16.75 -15.35,0 -23.48,-10.88 -26.59,-15.21 -0.51,9.85 -7.59,15.21 -15.19,15.21 -5.01,0 -8.98,-2.43 -12.26,-8.99 -3.11,-6.22 -5.53,-16.75 -5.53,-17.44 0,-0.68 0.7,-1.54 1.9,-1.54 1.38,0 1.55,0.17 2.6,4.14 2.59,10.19 5.87,20.37 12.78,20.37 3.97,0 5.34,-2.76 5.34,-7.93 0,-3.82 -1.72,-10.55 -2.94,-15.89 l -4.82,-18.66 c -0.69,-3.28 -2.6,-11.05 -3.46,-14.16 -1.2,-4.48 -3.11,-12.61 -3.11,-13.47 0,-2.42 1.91,-4.32 4.49,-4.32 2.08,0 4.5,1.04 5.87,3.64 0.35,0.86 1.91,6.9 2.77,10.36 l 3.8,15.53 5.7,22.79" /><path
         id="path44"
         style="fill:#0000ff;fill-opacity:1;fill-rule:nonzero;stroke:none"
         d="m 1783.83,1279.67 c -4.33,0 -7.1,-3.45 -7.1,-7.08 0,-3.45 2.77,-7.09 7.1,-7.09 4.31,0 7.08,3.45 7.08,7.09 0,3.46 -2.77,7.08 -7.08,7.08 z m 60.09,0 c -4.31,0 -7.08,-3.45 -7.08,-7.08 0,-3.45 2.77,-7.09 7.08,-7.09 4.31,0 7.08,3.45 7.08,7.09 0,3.46 -2.77,7.08 -7.08,7.08" /><path
         id="path46"
         style="fill:#000000;fill-opacity:1;fill-rule:nonzero;stroke:none"
         d="m 1023.34,2078.05 c 0,3.97 0,4.5 -3.79,4.5 l -12.96,-12.44 c -9.668,8.28 -21.231,12.44 -34.012,12.44 -41.281,0 -67.875,-25.05 -67.875,-61.32 0,-35.57 25.735,-61.31 68.047,-61.31 30.73,0 50.59,21.08 50.59,41.46 0,2.93 -1.03,3.1 -3.62,3.1 -1.72,0 -3.45,0 -3.63,-1.9 -1.54,-26.25 -23.824,-35.22 -39.371,-35.22 -11.219,0 -26.422,3.11 -36.094,13.98 -6.047,6.57 -11.562,16.07 -11.562,39.89 0,16.93 2.578,29.54 10.703,39.21 11.047,12.95 28.312,14.67 36.609,14.67 12.953,0 33.845,-7.25 39.035,-37.64 0.34,-1.56 1.89,-1.56 3.97,-1.56 3.96,0 3.96,0.36 3.96,4.5 v 37.64" /><path
         id="path48"
         style="fill:#0000ff;fill-opacity:1;fill-rule:nonzero;stroke:none"
         d="m 1026,2284.02 c 0,1.56 -1.2,1.56 -1.55,1.56 -0.34,0 -1.04,0 -2.42,-1.74 l -11.92,-14.5 c -6.05,10.36 -15.532,16.24 -28.485,16.24 -37.312,0 -75.984,-37.83 -75.984,-78.41 0,-28.84 20.203,-46.79 45.406,-46.79 13.828,0 25.906,5.87 35.922,14.32 15.031,12.61 19.511,29.36 19.511,30.75 0,1.55 -1.37,1.55 -1.89,1.55 -1.56,0 -1.73,-1.03 -2.07,-1.72 -7.942,-26.95 -31.254,-39.9 -48.536,-39.9 -18.296,0 -34.187,11.75 -34.187,36.26 0,5.53 1.719,35.58 21.234,58.2 9.5,11.05 25.735,20.72 42.141,20.72 18.998,0 27.458,-15.7 27.458,-33.33 0,-4.48 -0.52,-8.28 -0.52,-8.96 0,-1.57 1.73,-1.57 2.25,-1.57 1.91,0 2.08,0.18 2.77,3.28 l 10.87,44.04" /><path
         id="path50"
         style="fill:#0000ff;fill-opacity:1;fill-rule:nonzero;stroke:none"
         d="m 933.828,2129.67 c -4.328,0 -7.094,-3.45 -7.094,-7.08 0,-3.45 2.766,-7.09 7.094,-7.09 4.313,0 7.078,3.45 7.078,7.09 0,3.46 -2.765,7.08 -7.078,7.08 z m 60.094,0 c -4.313,0 -7.078,-3.45 -7.078,-7.08 0,-3.45 2.765,-7.09 7.078,-7.09 4.312,0 7.078,3.45 7.078,7.09 0,3.46 -2.766,7.08 -7.078,7.08" /><path
         id="path52"
         style="fill:none;stroke:#000000;stroke-width:15.9404;stroke-linecap:butt;stroke-linejoin:miter;stroke-miterlimit:10;stroke-dasharray:none;stroke-opacity:1"
         d="M 2513.61,319.781 H 1953.05" /><path
         id="path54"
         style="fill:none;stroke:#000000;stroke-width:15.9404;stroke-linecap:butt;stroke-linejoin:miter;stroke-miterlimit:10;stroke-dasharray:none;stroke-opacity:1"
         d="m 1953.05,319.781 h -15.94 l 68.71,-57.656" /><path
         id="path56"
         style="fill:none;stroke:#000000;stroke-width:15.9404;stroke-linecap:butt;stroke-linejoin:miter;stroke-miterlimit:10;stroke-dasharray:none;stroke-opacity:1"
         d="M 1813.99,428.055 V 1020.48" /><path
         id="path58"
         style="fill:none;stroke:#000000;stroke-width:15.9404;stroke-linecap:butt;stroke-linejoin:miter;stroke-miterlimit:10;stroke-dasharray:none;stroke-opacity:1"
         d="m 1813.99,1020.48 v 15.94 l 57.65,-68.705" /><path
         id="path60"
         style="fill:none;stroke:#000000;stroke-width:15.9404;stroke-linecap:butt;stroke-linejoin:miter;stroke-miterlimit:10;stroke-dasharray:none;stroke-opacity:1"
         d="m 963.586,1278.46 v 592.43" /><path
         id="path62"
         style="fill:none;stroke:#000000;stroke-width:15.9404;stroke-linecap:butt;stroke-linejoin:miter;stroke-miterlimit:10;stroke-dasharray:none;stroke-opacity:1"
         d="m 963.586,1870.89 v 15.93 l 57.654,-68.7" /></g></g></svg>
