<?xml version="1.0" encoding="UTF-8" standalone="no"?>
<svg
   xmlns:dc="http://purl.org/dc/elements/1.1/"
   xmlns:cc="http://creativecommons.org/ns#"
   xmlns:rdf="http://www.w3.org/1999/02/22-rdf-syntax-ns#"
   xmlns:svg="http://www.w3.org/2000/svg"
   xmlns="http://www.w3.org/2000/svg"
   id="svg15"
   version="1.2"
   viewBox="0 0 213.84 44"
   height="44pt"
   width="213.84pt">
  <metadata
     id="metadata21">
    <rdf:RDF>
      <cc:Work
         rdf:about="">
        <dc:format>image/svg+xml</dc:format>
        <dc:type
           rdf:resource="http://purl.org/dc/dcmitype/StillImage" />
      </cc:Work>
    </rdf:RDF>
  </metadata>
  <defs
     id="defs19" />
  <g
     id="surface1">
    <path
       id="path2"
       d="M 12.476563 6.773438 C 12.476563 6.273438 12.441406 6.273438 11.886719 6.273438 C 10.609375 7.375 8.695313 7.375 8.3125 7.375 L 7.984375 7.375 L 7.984375 8.117188 L 8.3125 8.117188 C 8.917969 8.117188 9.832031 8.015625 10.523438 7.789063 L 10.523438 16.859375 L 8.125 16.859375 L 8.125 17.601563 C 8.847656 17.566406 10.664063 17.566406 11.472656 17.566406 C 12.285156 17.566406 14.117188 17.566406 14.839844 17.601563 L 14.839844 16.859375 L 12.476563 16.859375 L 12.476563 6.773438 "
       style=" stroke:none;fill-rule:nonzero;fill:rgb(0%,0%,0%);fill-opacity:1;" />
    <path
       id="path4"
       d="M 28.890625 26.640625 C 28.890625 25.554688 28.339844 25.484375 28.203125 25.484375 C 27.789063 25.484375 27.40625 25.898438 27.40625 26.242188 C 27.40625 26.453125 27.527344 26.570313 27.597656 26.640625 C 27.769531 26.796875 28.21875 27.261719 28.21875 28.160156 C 28.21875 28.886719 27.183594 32.925781 25.109375 32.925781 C 24.054688 32.925781 23.851563 32.046875 23.851563 31.40625 C 23.851563 30.542969 24.246094 29.335938 24.710938 28.09375 C 24.988281 27.382813 25.058594 27.210938 25.058594 26.867188 C 25.058594 26.140625 24.539063 25.484375 23.695313 25.484375 C 22.105469 25.484375 21.464844 27.988281 21.464844 28.125 C 21.464844 28.195313 21.535156 28.28125 21.65625 28.28125 C 21.8125 28.28125 21.828125 28.210938 21.898438 27.96875 C 22.3125 26.484375 22.984375 25.828125 23.640625 25.828125 C 23.796875 25.828125 24.089844 25.828125 24.089844 26.398438 C 24.089844 26.847656 23.902344 27.351563 23.640625 28.007813 C 22.8125 30.214844 22.8125 30.75 22.8125 31.164063 C 22.8125 31.546875 22.867188 32.253906 23.398438 32.738281 C 24.023438 33.273438 24.886719 33.273438 25.039063 33.273438 C 27.90625 33.273438 28.890625 27.625 28.890625 26.640625 "
       style=" stroke:none;fill-rule:nonzero;fill:rgb(0%,0%,100%);fill-opacity:1;" />
    <path
       id="path6"
       d="M 34.441406 31.886719 C 34.441406 30.894531 34.382813 29.929688 33.953125 29.023438 C 33.460938 28.035156 32.605469 27.773438 32.019531 27.773438 C 31.328125 27.773438 30.484375 28.117188 30.042969 29.109375 C 29.707031 29.859375 29.589844 30.597656 29.589844 31.886719 C 29.589844 33.042969 29.671875 33.914063 30.101563 34.757813 C 30.566406 35.664063 31.390625 35.949219 32.007813 35.949219 C 33.046875 35.949219 33.640625 35.328125 33.988281 34.640625 C 34.417969 33.746094 34.441406 32.578125 34.441406 31.886719 Z M 32.007813 35.710938 C 31.625 35.710938 30.851563 35.496094 30.625 34.199219 C 30.496094 33.484375 30.496094 32.578125 30.496094 31.742188 C 30.496094 30.765625 30.496094 29.882813 30.6875 29.179688 C 30.886719 28.382813 31.496094 28.011719 32.007813 28.011719 C 32.460938 28.011719 33.152344 28.285156 33.378906 29.3125 C 33.535156 29.992188 33.535156 30.929688 33.535156 31.742188 C 33.535156 32.539063 33.535156 33.445313 33.402344 34.171875 C 33.175781 35.484375 32.425781 35.710938 32.007813 35.710938 "
       style=" stroke:none;fill-rule:nonzero;fill:rgb(0%,0%,100%);fill-opacity:1;" />
    <path
       id="path8"
       d="M 182.574219 6.773438 C 182.574219 6.273438 182.539063 6.273438 181.988281 6.273438 C 180.710938 7.375 178.792969 7.375 178.414063 7.375 L 178.085938 7.375 L 178.085938 8.117188 L 178.414063 8.117188 C 179.015625 8.117188 179.933594 8.015625 180.621094 7.789063 L 180.621094 16.859375 L 178.222656 16.859375 L 178.222656 17.601563 C 178.949219 17.566406 180.761719 17.566406 181.574219 17.566406 C 182.386719 17.566406 184.214844 17.566406 184.941406 17.601563 L 184.941406 16.859375 L 182.574219 16.859375 L 182.574219 6.773438 "
       style=" stroke:none;fill-rule:nonzero;fill:rgb(0%,0%,0%);fill-opacity:1;" />
    <path
       id="path10"
       d="M 198.890625 26.640625 C 198.890625 25.554688 198.339844 25.484375 198.203125 25.484375 C 197.789063 25.484375 197.40625 25.898438 197.40625 26.242188 C 197.40625 26.453125 197.527344 26.570313 197.597656 26.640625 C 197.769531 26.796875 198.21875 27.261719 198.21875 28.160156 C 198.21875 28.886719 197.183594 32.925781 195.109375 32.925781 C 194.054688 32.925781 193.851563 32.046875 193.851563 31.40625 C 193.851563 30.542969 194.246094 29.335938 194.714844 28.09375 C 194.988281 27.382813 195.058594 27.210938 195.058594 26.867188 C 195.058594 26.140625 194.539063 25.484375 193.695313 25.484375 C 192.105469 25.484375 191.464844 27.988281 191.464844 28.125 C 191.464844 28.195313 191.535156 28.28125 191.65625 28.28125 C 191.8125 28.28125 191.828125 28.210938 191.898438 27.96875 C 192.3125 26.484375 192.984375 25.828125 193.640625 25.828125 C 193.796875 25.828125 194.089844 25.828125 194.089844 26.398438 C 194.089844 26.847656 193.902344 27.351563 193.640625 28.007813 C 192.8125 30.214844 192.8125 30.75 192.8125 31.164063 C 192.8125 31.546875 192.867188 32.253906 193.398438 32.738281 C 194.023438 33.273438 194.886719 33.273438 195.039063 33.273438 C 197.90625 33.273438 198.890625 27.625 198.890625 26.640625 "
       style=" stroke:none;fill-rule:nonzero;fill:rgb(0%,0%,100%);fill-opacity:1;" />
    <path
       id="path12"
       d="M 202.632813 28.058594 C 202.632813 27.785156 202.632813 27.773438 202.394531 27.773438 C 202.109375 28.09375 201.511719 28.535156 200.285156 28.535156 L 200.285156 28.882813 C 200.558594 28.882813 201.15625 28.882813 201.8125 28.570313 L 201.8125 34.78125 C 201.8125 35.210938 201.773438 35.355469 200.726563 35.355469 L 200.355469 35.355469 L 200.355469 35.699219 C 200.679688 35.675781 201.835938 35.675781 202.226563 35.675781 C 202.621094 35.675781 203.765625 35.675781 204.089844 35.699219 L 204.089844 35.355469 L 203.71875 35.355469 C 202.667969 35.355469 202.632813 35.210938 202.632813 34.78125 L 202.632813 28.058594 "
       style=" stroke:none;fill-rule:nonzero;fill:rgb(0%,0%,100%);fill-opacity:1;" />
  </g>
</svg>
