<?xml version="1.0" encoding="UTF-8" standalone="no"?>
<svg
   xmlns:dc="http://purl.org/dc/elements/1.1/"
   xmlns:cc="http://creativecommons.org/ns#"
   xmlns:rdf="http://www.w3.org/1999/02/22-rdf-syntax-ns#"
   xmlns:svg="http://www.w3.org/2000/svg"
   xmlns="http://www.w3.org/2000/svg"
   viewBox="0 0 648.29333 436.22668"
   height="436.22668"
   width="648.29333"
   xml:space="preserve"
   id="svg2"
   version="1.1"><metadata
     id="metadata8"><rdf:RDF><cc:Work
         rdf:about=""><dc:format>image/svg+xml</dc:format><dc:type
           rdf:resource="http://purl.org/dc/dcmitype/StillImage" /></cc:Work></rdf:RDF></metadata><defs
     id="defs6"><clipPath
       id="clipPath126"
       clipPathUnits="userSpaceOnUse"><path
         id="path124"
         d="m 2001.53,1315.55 h 90.7109 v 90.7109 H 2001.53 Z" /></clipPath><clipPath
       id="clipPath142"
       clipPathUnits="userSpaceOnUse"><path
         id="path140"
         d="m 1547.98,1496.97 h 90.7109 v 90.707 H 1547.98 Z" /></clipPath></defs><g
     transform="matrix(1.3333333,0,0,-1.3333333,0,436.22667)"
     id="g10"><g
       transform="scale(0.1)"
       id="g12"><path
         id="path14"
         style="fill:#000000;fill-opacity:1;fill-rule:nonzero;stroke:none"
         d="m 2347.34,3124.04 v 56.7 l 71.41,-28.35" /><path
         id="path16"
         style="fill:none;stroke:#000000;stroke-width:15.9404;stroke-linecap:butt;stroke-linejoin:miter;stroke-miterlimit:10;stroke-dasharray:none;stroke-opacity:1"
         d="m 2347.34,3124.04 v 56.7 l 71.41,-28.35 z" /><path
         id="path18"
         style="fill:none;stroke:#000000;stroke-width:15.9404;stroke-linecap:butt;stroke-linejoin:miter;stroke-miterlimit:10;stroke-dasharray:none;stroke-opacity:1"
         d="m 2347.34,3152.39 h 79.37" /><path
         id="path20"
         style="fill:none;stroke:#000000;stroke-width:15.9404;stroke-linecap:butt;stroke-linejoin:miter;stroke-miterlimit:10;stroke-dasharray:none;stroke-opacity:1"
         d="m 1593.32,2358.69 h 453.551 v 453.547 H 1593.32 Z" /><path
         id="path22"
         style="fill:#0000ff;fill-opacity:1;fill-rule:nonzero;stroke:none"
         d="m 1751.95,2401.05 c 5.53,0.34 8.47,4.14 8.47,8.45 0,5.7 -4.31,8.47 -8.28,8.47 -4.16,0 -8.47,-2.59 -8.47,-8.64 0,-8.8 8.64,-16.05 19.17,-16.05 26.25,0 36.1,40.41 48.35,90.49 13.29,54.57 24.53,109.65 33.86,165.09 6.39,36.78 12.78,71.33 18.64,93.61 2.08,8.45 7.95,30.73 14.69,30.73 5.34,0 9.67,-3.28 10.35,-3.97 -5.7,-0.34 -8.64,-4.15 -8.64,-8.46 0,-5.71 4.33,-8.46 8.3,-8.46 4.14,0 8.45,2.58 8.45,8.63 0,9.33 -9.31,16.06 -18.81,16.06 -13.12,0 -22.8,-18.83 -32.3,-54.05 -0.51,-1.9 -24,-88.59 -43,-201.54 -4.5,-26.43 -9.5,-55.25 -15.2,-79.27 -3.11,-12.59 -11.05,-45.06 -25.03,-45.06 -6.22,0 -10.36,3.97 -10.55,3.97" /><path
         id="path24"
         style="fill:none;stroke:#000000;stroke-width:15.9404;stroke-linecap:butt;stroke-linejoin:miter;stroke-miterlimit:10;stroke-dasharray:none;stroke-opacity:1"
         d="m 2727.18,2358.69 h 453.551 v 453.547 H 2727.18 Z" /><path
         id="path26"
         style="fill:#0000ff;fill-opacity:1;fill-rule:nonzero;stroke:none"
         d="m 2959.33,2687.41 c 0,2.75 0,2.86 -2.38,2.86 -2.87,-3.22 -8.82,-7.63 -21.11,-7.63 v -3.45 c 2.75,0 8.71,0 15.27,3.09 v -62.11 c 0,-4.28 -0.36,-5.72 -10.84,-5.72 h -3.71 V 2611 c 3.22,0.23 14.78,0.23 18.72,0.23 3.94,0 15.38,0 18.6,-0.23 v 3.45 h -3.71 c -10.48,0 -10.84,1.44 -10.84,5.72 v 67.24" /><path
         id="path28"
         style="fill:none;stroke:#0000ff;stroke-width:6.886;stroke-linecap:butt;stroke-linejoin:miter;stroke-miterlimit:10;stroke-dasharray:none;stroke-opacity:1"
         d="m 2923.44,2585.76 h 61.03" /><path
         id="path30"
         style="fill:#0000ff;fill-opacity:1;fill-rule:nonzero;stroke:none"
         d="m 2966.88,2555.59 c 1.06,4.18 1.29,5.36 10,5.36 2.62,0 3.57,0 3.57,2.27 0,1.2 -1.31,1.2 -1.67,1.2 -2.14,0 -4.76,-0.25 -6.9,-0.25 h -14.66 c -2.39,0 -5.14,0.25 -7.52,0.25 -0.95,0 -2.26,0 -2.26,-2.26 0,-1.21 0.95,-1.21 3.34,-1.21 7.39,0 7.39,-0.95 7.39,-2.26 0,-0.83 -0.25,-1.55 -0.48,-2.61 l -16.1,-64.25 c -1.07,-4.17 -1.31,-5.38 -10.01,-5.38 -2.63,0 -3.69,0 -3.69,-2.26 0,-1.19 1.19,-1.19 1.78,-1.19 2.16,0 4.77,0.23 6.92,0.23 h 14.66 c 2.39,0 5.02,-0.23 7.39,-0.23 0.95,0 2.39,0 2.39,2.14 0,1.31 -0.72,1.31 -3.34,1.31 -7.39,0 -7.39,0.96 -7.39,2.39 0,0.24 0,0.83 0.48,2.74 l 16.1,64.01" /><path
         id="path32"
         style="fill:#0000ff;fill-opacity:1;fill-rule:nonzero;stroke:none"
         d="m 3265.58,2598.59 c 0.34,1.05 4.65,9.68 11.05,15.21 4.5,4.14 10.35,6.9 17.09,6.9 6.91,0 9.33,-5.18 9.33,-12.09 0,-1.03 0,-4.48 -2.07,-12.59 l -4.32,-17.8 c -1.38,-5.17 -4.66,-17.95 -5,-19.86 -0.71,-2.59 -1.74,-7.08 -1.74,-7.77 0,-2.42 1.91,-4.32 4.5,-4.32 5.17,0 6.03,3.98 7.6,10.2 l 10.36,41.26 c 0.34,1.4 9.32,22.97 28.32,22.97 6.91,0 9.32,-5.18 9.32,-12.09 0,-9.67 -6.74,-28.48 -10.54,-38.84 -1.54,-4.16 -2.42,-6.39 -2.42,-9.5 0,-7.79 5.36,-14 13.66,-14 16.05,0 22.09,25.39 22.09,26.42 0,0.87 -0.68,1.56 -1.72,1.56 -1.56,0 -1.73,-0.52 -2.59,-3.45 -3.97,-13.82 -10.36,-21.07 -17.27,-21.07 -1.73,0 -4.5,0.18 -4.5,5.69 0,4.5 2.08,10.02 2.77,11.92 3.11,8.29 10.89,28.68 10.89,38.69 0,10.36 -6.05,18.13 -19.17,18.13 -11.58,0 -20.91,-6.57 -27.81,-16.75 -0.52,9.32 -6.22,16.75 -19.18,16.75 -15.35,0 -23.48,-10.88 -26.59,-15.21 -0.51,9.85 -7.59,15.21 -15.19,15.21 -5.01,0 -8.98,-2.43 -12.26,-8.99 -3.11,-6.22 -5.53,-16.75 -5.53,-17.44 0,-0.68 0.7,-1.54 1.9,-1.54 1.38,0 1.55,0.17 2.6,4.14 2.59,10.19 5.87,20.37 12.78,20.37 3.97,0 5.34,-2.76 5.34,-7.93 0,-3.82 -1.72,-10.55 -2.94,-15.89 l -4.82,-18.66 c -0.69,-3.28 -2.6,-11.05 -3.46,-14.16 -1.2,-4.48 -3.11,-12.61 -3.11,-13.47 0,-2.42 1.91,-4.32 4.49,-4.32 2.08,0 4.5,1.04 5.87,3.64 0.35,0.86 1.91,6.9 2.77,10.36 l 3.8,15.53 5.7,22.79" /><path
         id="path34"
         style="fill:#000000;fill-opacity:1;fill-rule:nonzero;stroke:none"
         d="m 1848.45,1978.84 h -56.7 l 28.35,71.41" /><path
         id="path36"
         style="fill:none;stroke:#000000;stroke-width:15.9404;stroke-linecap:butt;stroke-linejoin:miter;stroke-miterlimit:10;stroke-dasharray:none;stroke-opacity:1"
         d="m 1848.45,1978.84 h -56.7 l 28.35,71.41 z" /><path
         id="path38"
         style="fill:none;stroke:#000000;stroke-width:15.9404;stroke-linecap:butt;stroke-linejoin:miter;stroke-miterlimit:10;stroke-dasharray:none;stroke-opacity:1"
         d="m 1820.1,1978.84 v 79.37" /><path
         id="path40"
         style="fill:#000000;fill-opacity:1;fill-rule:nonzero;stroke:none"
         d="m 2925.61,2058.21 h 56.69 l -28.35,-71.39" /><path
         id="path42"
         style="fill:none;stroke:#000000;stroke-width:15.9404;stroke-linecap:butt;stroke-linejoin:miter;stroke-miterlimit:10;stroke-dasharray:none;stroke-opacity:1"
         d="m 2925.61,2058.21 h 56.69 l -28.35,-71.39 z" /><path
         id="path44"
         style="fill:none;stroke:#000000;stroke-width:15.9404;stroke-linecap:butt;stroke-linejoin:miter;stroke-miterlimit:10;stroke-dasharray:none;stroke-opacity:1"
         d="m 2953.95,2058.21 v -79.37" /><path
         id="path46"
         style="fill:none;stroke:#000000;stroke-width:15.9404;stroke-linecap:butt;stroke-linejoin:miter;stroke-miterlimit:10;stroke-dasharray:none;stroke-opacity:1"
         d="m 459.465,1224.82 h 453.551 v 453.551 H 459.465 Z" /><path
         id="path48"
         style="fill:#0000ff;fill-opacity:1;fill-rule:nonzero;stroke:none"
         d="m 691.328,1553.41 c 0,2.75 0,2.86 -2.375,2.86 -2.875,-3.22 -8.828,-7.63 -21.109,-7.63 v -3.45 c 2.75,0 8.703,0 15.265,3.09 v -62.11 c 0,-4.28 -0.359,-5.72 -10.843,-5.72 h -3.703 V 1477 c 3.218,0.23 14.781,0.23 18.718,0.23 3.938,0 15.375,0 18.594,-0.23 v 3.45 h -3.703 c -10.484,0 -10.844,1.44 -10.844,5.72 v 67.24" /><path
         id="path50"
         style="fill:none;stroke:#0000ff;stroke-width:6.886;stroke-linecap:butt;stroke-linejoin:miter;stroke-miterlimit:10;stroke-dasharray:none;stroke-opacity:1"
         d="m 640.07,1451.91 h 92.34" /><path
         id="path52"
         style="fill:#0000ff;fill-opacity:1;fill-rule:nonzero;stroke:none"
         d="m 729.047,1432.84 c 0,1.08 -0.828,1.08 -1.078,1.08 -0.235,0 -0.719,0 -1.672,-1.19 l -8.219,-10.01 c -4.172,7.14 -10.734,11.2 -19.672,11.2 -25.75,0 -52.453,-26.11 -52.453,-54.12 0,-19.91 13.953,-32.3 31.36,-32.3 9.531,0 17.875,4.05 24.796,9.89 10.36,8.7 13.469,20.27 13.469,21.22 0,1.08 -0.953,1.08 -1.312,1.08 -1.078,0 -1.188,-0.72 -1.438,-1.21 -5.484,-18.59 -21.562,-27.53 -33.484,-27.53 -12.641,0 -23.61,8.11 -23.61,25.03 0,3.82 1.188,24.57 14.657,40.18 6.562,7.62 17.765,14.31 29.093,14.31 13.11,0 18.954,-10.86 18.954,-23.02 0,-3.09 -0.36,-5.72 -0.36,-6.18 0,-1.08 1.188,-1.08 1.547,-1.08 1.313,0 1.438,0.11 1.906,2.26 l 7.516,30.39" /><path
         id="path54"
         style="fill:#0000ff;fill-opacity:1;fill-rule:nonzero;stroke:none"
         d="m 749,1848.02 c 0,1.56 -1.203,1.56 -1.547,1.56 -0.344,0 -1.047,0 -2.422,-1.74 l -11.922,-14.5 c -6.046,10.36 -15.531,16.24 -28.484,16.24 -37.312,0 -75.984,-37.83 -75.984,-78.41 0,-28.84 20.203,-46.79 45.406,-46.79 13.828,0 25.906,5.87 35.922,14.32 15.031,12.61 19.515,29.36 19.515,30.75 0,1.55 -1.375,1.55 -1.89,1.55 -1.563,0 -1.735,-1.03 -2.078,-1.72 -7.938,-26.95 -31.25,-39.9 -48.532,-39.9 -18.296,0 -34.187,11.75 -34.187,36.26 0,5.53 1.719,35.58 21.234,58.2 9.5,11.05 25.735,20.72 42.141,20.72 19,0 27.453,-15.7 27.453,-33.33 0,-4.48 -0.516,-8.28 -0.516,-8.96 0,-1.57 1.735,-1.57 2.25,-1.57 1.907,0 2.079,0.18 2.766,3.28 L 749,1848.02" /><path
         id="path56"
         style="fill:#000000;fill-opacity:1;fill-rule:nonzero;stroke:none"
         d="m 1213.48,1423.25 v 56.7 l 71.41,-28.35" /><path
         id="path58"
         style="fill:none;stroke:#000000;stroke-width:15.9404;stroke-linecap:butt;stroke-linejoin:miter;stroke-miterlimit:10;stroke-dasharray:none;stroke-opacity:1"
         d="m 1213.48,1423.25 v 56.7 l 71.41,-28.35 z" /><path
         id="path60"
         style="fill:none;stroke:#000000;stroke-width:15.9404;stroke-linecap:butt;stroke-linejoin:miter;stroke-miterlimit:10;stroke-dasharray:none;stroke-opacity:1"
         d="m 1213.48,1451.6 h 79.38" /><path
         id="path62"
         style="fill:none;stroke:#000000;stroke-width:15.9404;stroke-linecap:butt;stroke-linejoin:miter;stroke-miterlimit:10;stroke-dasharray:none;stroke-opacity:1"
         d="m 1990.18,1451.6 c 0,93.94 -76.14,170.08 -170.08,170.08 -93.93,0 -170.08,-76.14 -170.08,-170.08 0,-93.93 76.15,-170.08 170.08,-170.08 93.94,0 170.08,76.15 170.08,170.08 z" /><path
         id="path64"
         style="fill:#0000ff;fill-opacity:1;fill-rule:nonzero;stroke:none"
         d="m 1818.78,1449.81 c 1.2,1.39 1.2,1.74 1.2,2.25 0,0.69 -0.68,1.72 -0.85,2.08 l -34.02,52.31 h 41.78 c 28.67,0 37.31,-6.2 40.25,-33.67 h 3.11 l -4.16,38.17 h -91.34 c -3.64,0 -3.81,-0.17 -3.81,-3.79 l 39.9,-61.49 -38.51,-49.39 c -1.22,-1.55 -1.22,-1.73 -1.22,-2.08 0,-1.2 1.05,-1.2 3.64,-1.2 h 91.34 l 4.16,39.55 h -3.11 c -2.76,-27.97 -12.61,-33.67 -40.59,-33.67 h -47.66 l 39.89,50.93" /><path
         id="path66"
         style="fill:none;stroke:#000000;stroke-width:15.9404;stroke-linecap:round;stroke-linejoin:miter;stroke-miterlimit:10;stroke-dasharray:none;stroke-opacity:1"
         d="m 2953.95,1508.29 c 31.31,0 56.69,-25.38 56.69,-56.69 0,-31.31 -25.38,-56.69 -56.69,-56.69 v 0" /><path
         id="path68"
         style="fill:#000000;fill-opacity:1;fill-rule:nonzero;stroke:none"
         d="m 4017.14,1479.95 v -56.7 l -71.41,28.35" /><path
         id="path70"
         style="fill:none;stroke:#000000;stroke-width:15.9404;stroke-linecap:butt;stroke-linejoin:miter;stroke-miterlimit:10;stroke-dasharray:none;stroke-opacity:1"
         d="m 4017.14,1479.95 v -56.7 l -71.41,28.35 z" /><path
         id="path72"
         style="fill:none;stroke:#000000;stroke-width:15.9404;stroke-linecap:butt;stroke-linejoin:miter;stroke-miterlimit:10;stroke-dasharray:none;stroke-opacity:1"
         d="m 4017.14,1451.6 h -79.37" /><path
         id="path74"
         style="fill:none;stroke:#000000;stroke-width:15.9404;stroke-linecap:butt;stroke-linejoin:miter;stroke-miterlimit:10;stroke-dasharray:none;stroke-opacity:1"
         d="m 4317.61,1224.82 h 453.547 v 453.551 H 4317.61 Z" /><path
         id="path76"
         style="fill:#0000ff;fill-opacity:1;fill-rule:nonzero;stroke:none"
         d="m 4505.91,1467.06 c 4.67,0 16.4,0.35 24.7,3.46 13.12,5.01 14.33,15.03 14.33,18.14 0,7.59 -6.56,14.5 -17.96,14.5 -18.14,0 -44.21,-16.41 -44.21,-47.14 0,-18.14 10.37,-30.75 26.07,-30.75 23.49,0 38.35,18.31 38.35,20.56 0,1.03 -1.03,1.89 -1.74,1.89 -0.51,0 -0.68,-0.17 -2.23,-1.72 -11.06,-14.69 -27.47,-17.27 -34.03,-17.27 -9.85,0 -15.02,7.77 -15.02,20.55 0,2.41 0,6.74 2.6,17.78 z m -8.28,3.46 c 7.42,26.59 23.82,29.18 29.35,29.18 7.6,0 12.79,-4.48 12.79,-11.04 0,-18.14 -27.64,-18.14 -34.89,-18.14 h -7.25" /><path
         id="path78"
         style="fill:#0000ff;fill-opacity:1;fill-rule:nonzero;stroke:none"
         d="m 4580.17,1425.84 c 2.03,-0.36 5.25,-1.07 5.97,-1.18 1.55,-0.49 6.91,-2.39 6.91,-8.11 0,-3.71 -3.33,-13.36 -17.16,-13.36 -2.5,0 -11.45,0.36 -13.83,6.92 4.77,-0.59 7.16,3.09 7.16,5.72 0,2.5 -1.67,3.81 -4.06,3.81 -2.63,0 -6.08,-2.03 -6.08,-7.39 0,-7.03 7.15,-11.44 16.69,-11.44 18.12,0 23.48,13.35 23.48,19.55 0,1.78 0,5.12 -3.81,8.94 -2.99,2.86 -5.85,3.45 -12.28,4.76 -3.22,0.72 -8.35,1.8 -8.35,7.16 0,2.39 2.14,10.97 13.47,10.97 5.02,0 9.89,-1.91 11.1,-6.21 -5.25,0 -5.49,-4.53 -5.49,-4.64 0,-2.51 2.27,-3.21 3.33,-3.21 1.67,0 5.01,1.31 5.01,6.31 0,5 -4.53,10.12 -13.82,10.12 -15.63,0 -19.8,-12.26 -19.8,-17.15 0,-9.07 8.83,-10.97 11.56,-11.57" /><path
         id="path80"
         style="fill:#0000ff;fill-opacity:1;fill-rule:nonzero;stroke:none"
         d="m 4462.58,1810.59 c 0.34,1.05 4.65,9.68 11.05,15.21 4.5,4.14 10.35,6.9 17.09,6.9 6.91,0 9.33,-5.18 9.33,-12.09 0,-1.03 0,-4.48 -2.07,-12.59 l -4.32,-17.8 c -1.38,-5.17 -4.66,-17.95 -5,-19.86 -0.71,-2.59 -1.74,-7.08 -1.74,-7.77 0,-2.42 1.91,-4.32 4.5,-4.32 5.17,0 6.03,3.98 7.6,10.2 l 10.36,41.26 c 0.34,1.4 9.32,22.97 28.32,22.97 6.91,0 9.32,-5.18 9.32,-12.09 0,-9.67 -6.74,-28.48 -10.54,-38.84 -1.54,-4.16 -2.42,-6.39 -2.42,-9.5 0,-7.79 5.36,-14 13.66,-14 16.05,0 22.09,25.39 22.09,26.42 0,0.87 -0.68,1.56 -1.72,1.56 -1.56,0 -1.73,-0.52 -2.59,-3.45 -3.97,-13.82 -10.36,-21.07 -17.27,-21.07 -1.73,0 -4.5,0.18 -4.5,5.69 0,4.5 2.08,10.02 2.77,11.92 3.11,8.29 10.89,28.68 10.89,38.69 0,10.36 -6.05,18.13 -19.17,18.13 -11.58,0 -20.91,-6.57 -27.81,-16.75 -0.52,9.32 -6.22,16.75 -19.18,16.75 -15.35,0 -23.48,-10.88 -26.59,-15.21 -0.51,9.85 -7.59,15.21 -15.19,15.21 -5.01,0 -8.98,-2.43 -12.26,-8.99 -3.11,-6.22 -5.53,-16.75 -5.53,-17.44 0,-0.68 0.7,-1.54 1.9,-1.54 1.38,0 1.55,0.17 2.6,4.14 2.59,10.19 5.87,20.37 12.78,20.37 3.97,0 5.34,-2.76 5.34,-7.93 0,-3.82 -1.72,-10.55 -2.94,-15.89 l -4.82,-18.66 c -0.69,-3.28 -2.6,-11.05 -3.46,-14.16 -1.2,-4.48 -3.11,-12.61 -3.11,-13.47 0,-2.42 1.91,-4.32 4.49,-4.32 2.08,0 4.5,1.04 5.87,3.64 0.35,0.86 1.91,6.9 2.77,10.36 l 3.8,15.53 5.7,22.79" /><path
         id="path82"
         style="fill:#0000ff;fill-opacity:1;fill-rule:nonzero;stroke:none"
         d="m 4577.77,1737.38 1.89,-2.25 6.04,3.28 c 9.33,-7.6 21.25,-14.5 33.5,-14.5 1.39,0 4.16,0.68 6.22,1.37 10.19,9.85 19.35,20.74 28.16,31.78 l -5.02,21.77 c -0.51,2.23 -0.86,4.65 -0.86,7.08 0,21.57 -1.37,42.65 3.8,53.36 l -1.03,1.03 -12.44,-6.91 c -6.9,1.56 -13.81,3.8 -19.69,7.78 -9.5,-5.53 -18.82,-11.23 -27.96,-17.62 -1.74,-11.39 -2.6,-22.97 -2.6,-34.53 0,-5.88 0.35,-11.93 0.69,-17.8 l 12.44,-15.36 c -7.77,-6.73 -15.38,-13.13 -23.14,-18.48 z m 56.29,39.37 c 1.89,-8.11 4.66,-20.72 4.66,-24.52 0,-7.95 -4.49,-15.54 -12.78,-15.54 -9.66,0 -18.47,6.73 -25.55,13.81 10.7,9.16 22.09,18.14 33.67,26.25 z m -19.68,-9.67 c -4.32,3.97 -9.16,9.33 -11.75,14.33 -0.69,7.78 -0.86,15.72 -0.86,23.5 0,7.59 0.34,16.23 3.11,23.14 8.29,-3.82 20.37,-6.05 30.39,-7.44 -1.21,-12.95 -1.55,-26.25 -1.55,-39.38 l -19.34,-14.15" /><path
         id="path84"
         style="fill:#000000;fill-opacity:1;fill-rule:nonzero;stroke:none"
         d="M 147.656,844.984 H 90.9648 l 28.3442,71.403" /><path
         id="path86"
         style="fill:none;stroke:#000000;stroke-width:15.9404;stroke-linecap:butt;stroke-linejoin:miter;stroke-miterlimit:10;stroke-dasharray:none;stroke-opacity:1"
         d="M 147.656,844.984 H 90.9648 l 28.3442,71.403 z" /><path
         id="path88"
         style="fill:none;stroke:#000000;stroke-width:15.9404;stroke-linecap:butt;stroke-linejoin:miter;stroke-miterlimit:10;stroke-dasharray:none;stroke-opacity:1"
         d="m 119.309,844.984 v 79.371" /><path
         id="path90"
         style="fill:none;stroke:#000000;stroke-width:15.9404;stroke-linecap:butt;stroke-linejoin:miter;stroke-miterlimit:10;stroke-dasharray:none;stroke-opacity:1"
         d="m 459.465,90.9648 h 453.551 v 453.551 H 459.465 Z" /><path
         id="path92"
         style="fill:#0000ff;fill-opacity:1;fill-rule:nonzero;stroke:none"
         d="m 617.953,133.047 c 5.531,0.344 8.469,4.141 8.469,8.453 0,5.703 -4.313,8.469 -8.281,8.469 -4.157,0 -8.469,-2.594 -8.469,-8.641 0,-8.797 8.641,-16.047 19.172,-16.047 26.25,0 36.094,40.407 48.344,90.485 13.296,54.578 24.531,109.656 33.859,165.093 6.391,36.782 12.781,71.329 18.641,93.61 2.078,8.453 7.953,30.734 14.687,30.734 5.344,0 9.672,-3.281 10.359,-3.969 -5.703,-0.343 -8.64,-4.156 -8.64,-8.468 0,-5.703 4.328,-8.453 8.297,-8.453 4.14,0 8.453,2.578 8.453,8.625 0,9.328 -9.313,16.062 -18.813,16.062 -13.125,0 -22.797,-18.828 -32.297,-54.047 -0.515,-1.906 -24,-88.594 -43,-201.547 -4.5,-26.422 -9.5,-55.25 -15.203,-79.265 -3.109,-12.594 -11.047,-45.063 -25.031,-45.063 -6.219,0 -10.359,3.969 -10.547,3.969" /><path
         id="path94"
         style="fill:#000000;fill-opacity:1;fill-rule:nonzero;stroke:none"
         d="m 1292.86,346.086 v -56.691 l -71.4,28.343" /><path
         id="path96"
         style="fill:none;stroke:#000000;stroke-width:15.9404;stroke-linecap:butt;stroke-linejoin:miter;stroke-miterlimit:10;stroke-dasharray:none;stroke-opacity:1"
         d="m 1292.86,346.086 v -56.691 l -71.4,28.343 z" /><path
         id="path98"
         style="fill:none;stroke:#000000;stroke-width:15.9404;stroke-linecap:butt;stroke-linejoin:miter;stroke-miterlimit:10;stroke-dasharray:none;stroke-opacity:1"
         d="m 1292.86,317.738 h -79.38" /><path
         id="path100"
         style="fill:#000000;fill-opacity:1;fill-rule:nonzero;stroke:none"
         d="m 2982.3,317.738 c 0,15.657 -12.69,28.348 -28.35,28.348 -15.66,0 -28.34,-12.691 -28.34,-28.348 0,-15.652 12.68,-28.343 28.34,-28.343 15.66,0 28.35,12.691 28.35,28.343 z" /><path
         id="path102"
         style="fill:none;stroke:#000000;stroke-width:15.9404;stroke-linecap:butt;stroke-linejoin:miter;stroke-miterlimit:10;stroke-dasharray:none;stroke-opacity:1"
         d="m 2982.3,317.738 c 0,15.657 -12.69,28.348 -28.35,28.348 -15.66,0 -28.34,-12.691 -28.34,-28.348 0,-15.652 12.68,-28.343 28.34,-28.343 15.66,0 28.35,12.691 28.35,28.343 z" /><path
         id="path104"
         style="fill:#0000ff;fill-opacity:1;fill-rule:nonzero;stroke:none"
         d="m 2959.92,234.594 c 0,10.875 -5.53,11.562 -6.9,11.562 -4.14,0 -7.96,-4.14 -7.96,-7.593 0,-2.079 1.22,-3.282 1.91,-3.969 1.73,-1.563 6.22,-6.219 6.22,-15.203 0,-7.25 -10.36,-47.657 -31.1,-47.657 -10.53,0 -12.59,8.797 -12.59,15.188 0,8.641 3.97,20.719 8.63,33.156 2.76,7.078 3.45,8.813 3.45,12.266 0,7.25 -5.17,13.812 -13.64,13.812 -15.89,0 -22.28,-25.031 -22.28,-26.422 0,-0.687 0.7,-1.546 1.9,-1.546 1.55,0 1.74,0.687 2.42,3.109 4.15,14.844 10.88,21.406 17.44,21.406 1.55,0 4.49,0 4.49,-5.703 0,-4.484 -1.89,-9.5 -4.49,-16.062 -8.28,-22.094 -8.28,-27.454 -8.28,-31.594 0,-3.797 0.52,-10.875 5.86,-15.719 6.22,-5.359 14.86,-5.359 16.41,-5.359 28.67,0 38.51,56.484 38.51,66.328" /><path
         id="path106"
         style="fill:#0000ff;fill-opacity:1;fill-rule:nonzero;stroke:none"
         d="m 2997.33,220.406 c 0,2.75 0,2.86 -2.38,2.86 -2.87,-3.219 -8.82,-7.625 -21.11,-7.625 v -3.453 c 2.75,0 8.71,0 15.27,3.093 v -62.109 c 0,-4.281 -0.36,-5.719 -10.84,-5.719 h -3.71 V 144 c 3.22,0.234 14.78,0.234 18.72,0.234 3.94,0 15.38,0 18.6,-0.234 v 3.453 h -3.71 c -10.48,0 -10.84,1.438 -10.84,5.719 v 67.234" /><path
         id="path108"
         style="fill:#000000;fill-opacity:1;fill-rule:nonzero;stroke:none"
         d="m 3937.77,289.395 v 56.691 l 71.39,-28.348" /><path
         id="path110"
         style="fill:none;stroke:#000000;stroke-width:15.9404;stroke-linecap:butt;stroke-linejoin:miter;stroke-miterlimit:10;stroke-dasharray:none;stroke-opacity:1"
         d="m 3937.77,289.395 v 56.691 l 71.39,-28.348 z" /><path
         id="path112"
         style="fill:none;stroke:#000000;stroke-width:15.9404;stroke-linecap:butt;stroke-linejoin:miter;stroke-miterlimit:10;stroke-dasharray:none;stroke-opacity:1"
         d="m 3937.77,317.738 h 79.37" /><path
         id="path114"
         style="fill:none;stroke:#000000;stroke-width:15.9404;stroke-linecap:butt;stroke-linejoin:miter;stroke-miterlimit:10;stroke-dasharray:none;stroke-opacity:1"
         d="m 4374.3,147.66 h 340.16 V 487.82 H 4374.3 Z" /><path
         id="path116"
         style="fill:none;stroke:#000000;stroke-width:15.9404;stroke-linecap:butt;stroke-linejoin:miter;stroke-miterlimit:10;stroke-dasharray:none;stroke-opacity:1"
         d="m 4374.3,317.738 h 283.52 m -226.89,113.446 h 226.89 V 204.297 h -226.89" /><path
         id="path118"
         style="fill:none;stroke:#000000;stroke-width:15.9404;stroke-linecap:butt;stroke-linejoin:miter;stroke-miterlimit:10;stroke-dasharray:none;stroke-opacity:1"
         d="m 4309.69,1451.62 h -292.51 m -79.37,0 H 1998.16" /><g
         id="g120"><g
           clip-path="url(#clipPath126)"
           id="g122"><path
             id="path128"
             style="fill:none;stroke:#000000;stroke-width:15.9404;stroke-linecap:butt;stroke-linejoin:miter;stroke-miterlimit:10;stroke-dasharray:none;stroke-opacity:1"
             d="m 2001.53,1360.91 h 90.71 m -45.35,45.35 v -90.71" /></g></g><path
         id="path130"
         style="fill:none;stroke:#000000;stroke-width:15.9404;stroke-linecap:butt;stroke-linejoin:miter;stroke-miterlimit:10;stroke-dasharray:none;stroke-opacity:1"
         d="m 1820.11,1629.67 v 349.2 m 0,79.37 v 292.5 m 0,469.49 v 332.2 h 527.25 m 79.37,0 h 527.25 v -332.2 m 0,-469.49 v -292.5 m 0,-79.37 v -470.56 m 0,-113.39 V 350.074" /><path
         id="path132"
         style="fill:none;stroke:#000000;stroke-width:15.9404;stroke-linecap:butt;stroke-linejoin:miter;stroke-miterlimit:10;stroke-dasharray:none;stroke-opacity:1"
         d="m 2986.32,317.742 h 951.49 m 79.37,0 h 349.2" /><path
         id="path134"
         style="fill:none;stroke:#000000;stroke-width:15.9404;stroke-linecap:butt;stroke-linejoin:miter;stroke-miterlimit:10;stroke-dasharray:none;stroke-opacity:1"
         d="M 2921.65,317.742 H 1292.86 m -79.37,0 H 920.984 m -469.488,0 H 119.301 v 527.25 m 0,79.371 v 527.257 h 332.195 m 469.488,0 h 292.506 m 79.37,0 h 349.2" /><g
         id="g136"><g
           clip-path="url(#clipPath142)"
           id="g138"><path
             id="path144"
             style="fill:none;stroke:#000000;stroke-width:15.9404;stroke-linecap:butt;stroke-linejoin:miter;stroke-miterlimit:10;stroke-dasharray:none;stroke-opacity:1"
             d="m 1547.98,1542.32 h 90.71" /></g></g></g></g></svg>
