<?xml version="1.0" encoding="UTF-8" standalone="no"?>
<svg
   xmlns:dc="http://purl.org/dc/elements/1.1/"
   xmlns:cc="http://creativecommons.org/ns#"
   xmlns:rdf="http://www.w3.org/1999/02/22-rdf-syntax-ns#"
   xmlns:svg="http://www.w3.org/2000/svg"
   xmlns="http://www.w3.org/2000/svg"
   viewBox="0 0 285.12 172.05333"
   height="172.05333"
   width="285.12"
   xml:space="preserve"
   id="svg2"
   version="1.1"><metadata
     id="metadata8"><rdf:RDF><cc:Work
         rdf:about=""><dc:format>image/svg+xml</dc:format><dc:type
           rdf:resource="http://purl.org/dc/dcmitype/StillImage" /></cc:Work></rdf:RDF></metadata><defs
     id="defs6" /><g
     transform="matrix(1.3333333,0,0,-1.3333333,0,172.05333)"
     id="g10"><g
       transform="scale(0.1)"
       id="g12"><path
         id="path14"
         style="fill:#000000;fill-opacity:1;fill-rule:nonzero;stroke:none"
         d="m 124.75,372.281 c 0,5 -0.344,5 -5.875,5 -12.781,-11.047 -31.9375,-11.047 -35.7344,-11.047 h -3.2812 v -7.421 h 3.2812 c 6.0313,0 15.1875,1.031 22.0934,3.281 V 271.422 H 81.2344 V 264 c 7.25,0.344 25.3906,0.344 33.4996,0.344 8.125,0 26.422,0 33.672,-0.344 v 7.422 H 124.75 v 100.859" /><path
         id="path16"
         style="fill:#0000ff;fill-opacity:1;fill-rule:nonzero;stroke:none"
         d="m 288.922,173.594 c 0,10.875 -5.531,11.562 -6.906,11.562 -4.141,0 -7.953,-4.14 -7.953,-7.593 0,-2.079 1.218,-3.282 1.906,-3.969 1.734,-1.563 6.219,-6.219 6.219,-15.203 0,-7.25 -10.36,-47.657 -31.094,-47.657 -10.531,0 -12.594,8.797 -12.594,15.188 0,8.641 3.969,20.719 8.625,33.156 2.766,7.078 3.453,8.813 3.453,12.266 0,7.25 -5.172,13.812 -13.64,13.812 -15.891,0 -22.282,-25.031 -22.282,-26.422 0,-0.687 0.703,-1.546 1.907,-1.546 1.546,0 1.734,0.687 2.421,3.109 4.141,14.844 10.875,21.406 17.438,21.406 1.547,0 4.484,0 4.484,-5.703 0,-4.484 -1.89,-9.5 -4.484,-16.062 -8.281,-22.094 -8.281,-27.454 -8.281,-31.594 0,-3.797 0.515,-10.875 5.859,-15.719 6.219,-5.359 14.859,-5.359 16.406,-5.359 28.672,0 38.516,56.484 38.516,66.328" /><path
         id="path18"
         style="fill:#0000ff;fill-opacity:1;fill-rule:nonzero;stroke:none"
         d="m 344.406,121.141 c 0,9.906 -0.593,19.547 -4.89,28.609 -4.891,9.906 -13.469,12.516 -19.313,12.516 -6.906,0 -15.375,-3.453 -19.781,-13.344 -3.344,-7.516 -4.531,-14.906 -4.531,-27.781 0,-11.563 0.828,-20.266 5.125,-28.7191 4.64,-9.0625 12.875,-11.9219 19.062,-11.9219 10.375,0 16.344,6.2031 19.797,13.1094 4.297,8.9376 4.531,20.6246 4.531,27.5316 z M 320.078,82.875 c -3.812,0 -11.562,2.1563 -13.812,15.1406 -1.313,7.1564 -1.313,16.2184 -1.313,24.5624 0,9.766 0,18.594 1.906,25.625 2.016,7.985 8.094,11.688 13.219,11.688 4.531,0 11.453,-2.75 13.719,-13 1.547,-6.797 1.547,-16.203 1.547,-24.313 0,-7.984 0,-17.047 -1.313,-24.3124 -2.265,-13.125 -9.765,-15.3906 -13.953,-15.3906" /><path
         id="path20"
         style="fill:#000000;fill-opacity:1;fill-rule:nonzero;stroke:none"
         d="m 1004.28,319.094 c 0,16.578 0,58.187 -40.749,58.187 -40.937,0 -40.937,-41.437 -40.937,-58.187 0,-16.578 0,-57.172 40.765,-57.172 40.751,0 40.921,40.078 40.921,57.172 z m -40.749,-51.469 c -5.531,0 -9.672,2.25 -13.125,5.875 -4.328,4.313 -7.078,7.078 -7.078,47.656 0,12.094 0,23.141 1.375,32.125 2.422,17.094 14.86,18.313 18.656,18.313 5.516,0 16.235,-2.594 18.641,-17.11 1.563,-8.796 1.563,-22.781 1.563,-33.328 0,-40.75 -2.594,-43.172 -7.782,-48.343 -3.453,-3.454 -8.109,-5.188 -12.25,-5.188" /><path
         id="path22"
         style="fill:#000000;fill-opacity:1;fill-rule:nonzero;stroke:none"
         d="m 1825.75,372.281 c 0,5 -0.34,5 -5.87,5 -12.79,-11.047 -31.94,-11.047 -35.74,-11.047 h -3.28 v -7.421 h 3.28 c 6.03,0 15.19,1.031 22.09,3.281 v -90.672 h -24 V 264 c 7.25,0.344 25.4,0.344 33.5,0.344 8.13,0 26.43,0 33.68,-0.344 v 7.422 h -23.66 v 100.859" /><path
         id="path24"
         style="fill:#0000ff;fill-opacity:1;fill-rule:nonzero;stroke:none"
         d="m 1988.92,173.594 c 0,10.875 -5.53,11.562 -6.9,11.562 -4.14,0 -7.96,-4.14 -7.96,-7.593 0,-2.079 1.22,-3.282 1.91,-3.969 1.73,-1.563 6.22,-6.219 6.22,-15.203 0,-7.25 -10.36,-47.657 -31.1,-47.657 -10.53,0 -12.59,8.797 -12.59,15.188 0,8.641 3.97,20.719 8.63,33.156 2.76,7.078 3.45,8.813 3.45,12.266 0,7.25 -5.17,13.812 -13.64,13.812 -15.89,0 -22.28,-25.031 -22.28,-26.422 0,-0.687 0.7,-1.546 1.9,-1.546 1.55,0 1.74,0.687 2.42,3.109 4.15,14.844 10.88,21.406 17.44,21.406 1.55,0 4.49,0 4.49,-5.703 0,-4.484 -1.89,-9.5 -4.49,-16.062 -8.28,-22.094 -8.28,-27.454 -8.28,-31.594 0,-3.797 0.52,-10.875 5.86,-15.719 6.22,-5.359 14.86,-5.359 16.41,-5.359 28.67,0 38.51,56.484 38.51,66.328" /><path
         id="path26"
         style="fill:#0000ff;fill-opacity:1;fill-rule:nonzero;stroke:none"
         d="m 2026.33,159.406 c 0,2.75 0,2.86 -2.38,2.86 -2.87,-3.219 -8.82,-7.625 -21.11,-7.625 v -3.453 c 2.75,0 8.71,0 15.27,3.093 V 92.1719 c 0,-4.2813 -0.36,-5.7188 -10.84,-5.7188 h -3.71 V 83 c 3.22,0.2344 14.78,0.2344 18.72,0.2344 3.94,0 15.38,0 18.6,-0.2344 v 3.4531 h -3.71 c -10.48,0 -10.84,1.4375 -10.84,5.7188 v 67.2341" /><path
         id="path28"
         style="fill:#000000;fill-opacity:1;fill-rule:nonzero;stroke:none"
         d="m 974.75,1223.28 c 0,5 -0.344,5 -5.875,5 -12.781,-11.05 -31.937,-11.05 -35.734,-11.05 h -3.282 v -7.42 h 3.282 c 6.031,0 15.187,1.03 22.093,3.28 v -90.67 h -24 V 1115 c 7.25,0.34 25.391,0.34 33.5,0.34 8.125,0 26.422,0 33.672,-0.34 v 7.42 H 974.75 v 100.86" /></g></g></svg>
