<?xml version="1.0" encoding="UTF-8" standalone="no"?>
<svg
   xmlns:dc="http://purl.org/dc/elements/1.1/"
   xmlns:cc="http://creativecommons.org/ns#"
   xmlns:rdf="http://www.w3.org/1999/02/22-rdf-syntax-ns#"
   xmlns:svg="http://www.w3.org/2000/svg"
   xmlns="http://www.w3.org/2000/svg"
   id="svg49"
   version="1.2"
   viewBox="0 0 234.95 147.04"
   height="147.04pt"
   width="234.95pt">
  <metadata
     id="metadata55">
    <rdf:RDF>
      <cc:Work
         rdf:about="">
        <dc:format>image/svg+xml</dc:format>
        <dc:type
           rdf:resource="http://purl.org/dc/dcmitype/StillImage" />
      </cc:Work>
    </rdf:RDF>
  </metadata>
  <defs
     id="defs53" />
  <g
     id="surface1">
    <path
       id="path2"
       d="M 101.175781 109.8125 C 101.175781 109.3125 101.140625 109.3125 100.589844 109.3125 C 99.308594 110.417969 97.394531 110.417969 97.015625 110.417969 L 96.6875 110.417969 L 96.6875 111.160156 L 97.015625 111.160156 C 97.617188 111.160156 98.53125 111.054688 99.222656 110.832031 L 99.222656 119.898438 L 96.824219 119.898438 L 96.824219 120.640625 C 97.546875 120.605469 99.363281 120.605469 100.171875 120.605469 C 100.984375 120.605469 102.816406 120.605469 103.539063 120.640625 L 103.539063 119.898438 L 101.175781 119.898438 L 101.175781 109.8125 "
       style=" stroke:none;fill-rule:nonzero;fill:rgb(0%,0%,0%);fill-opacity:1;" />
    <path
       id="path4"
       d="M 117.492188 129.679688 C 117.492188 128.59375 116.9375 128.523438 116.800781 128.523438 C 116.386719 128.523438 116.007813 128.9375 116.007813 129.285156 C 116.007813 129.492188 116.128906 129.613281 116.195313 129.679688 C 116.371094 129.835938 116.820313 130.300781 116.820313 131.199219 C 116.820313 131.925781 115.78125 135.964844 113.710938 135.964844 C 112.65625 135.964844 112.449219 135.085938 112.449219 134.449219 C 112.449219 133.582031 112.847656 132.375 113.3125 131.132813 C 113.589844 130.425781 113.65625 130.25 113.65625 129.90625 C 113.65625 129.179688 113.140625 128.523438 112.292969 128.523438 C 110.703125 128.523438 110.066406 131.027344 110.066406 131.167969 C 110.066406 131.234375 110.136719 131.320313 110.257813 131.320313 C 110.410156 131.320313 110.429688 131.253906 110.496094 131.011719 C 110.914063 129.527344 111.585938 128.871094 112.242188 128.871094 C 112.398438 128.871094 112.691406 128.871094 112.691406 129.441406 C 112.691406 129.886719 112.503906 130.390625 112.242188 131.046875 C 111.414063 133.253906 111.414063 133.792969 111.414063 134.207031 C 111.414063 134.585938 111.464844 135.292969 112 135.777344 C 112.621094 136.3125 113.484375 136.3125 113.640625 136.3125 C 116.507813 136.3125 117.492188 130.664063 117.492188 129.679688 "
       style=" stroke:none;fill-rule:nonzero;fill:rgb(0%,0%,100%);fill-opacity:1;" />
    <path
       id="path6"
       d="M 121.234375 131.097656 C 121.234375 130.824219 121.234375 130.8125 120.996094 130.8125 C 120.707031 131.136719 120.113281 131.574219 118.882813 131.574219 L 118.882813 131.921875 C 119.160156 131.921875 119.753906 131.921875 120.410156 131.613281 L 120.410156 137.824219 C 120.410156 138.25 120.375 138.394531 119.328125 138.394531 L 118.957031 138.394531 L 118.957031 138.738281 C 119.277344 138.714844 120.433594 138.714844 120.828125 138.714844 C 121.222656 138.714844 122.367188 138.714844 122.6875 138.738281 L 122.6875 138.394531 L 122.316406 138.394531 C 121.269531 138.394531 121.234375 138.25 121.234375 137.824219 L 121.234375 131.097656 "
       style=" stroke:none;fill-rule:nonzero;fill:rgb(0%,0%,100%);fill-opacity:1;" />
    <path
       id="path8"
       d="M 179.585938 113.339844 C 177.878906 112.960938 177.824219 111.71875 177.824219 111.476563 C 177.824219 110.597656 178.394531 109.578125 180.070313 109.578125 C 181.746094 109.578125 183.246094 110.386719 183.609375 112.652344 C 183.664063 113.011719 183.664063 113.03125 183.992188 113.03125 C 184.351563 113.03125 184.351563 112.980469 184.351563 112.582031 L 184.351563 109.335938 C 184.351563 109.007813 184.351563 108.886719 184.09375 108.886719 C 183.972656 108.886719 183.921875 108.902344 183.765625 109.074219 L 183.023438 109.921875 C 182.589844 109.558594 181.726563 108.886719 180.054688 108.886719 C 177.582031 108.886719 176.269531 110.441406 176.269531 112.324219 C 176.269531 113.480469 176.890625 114.292969 177.132813 114.535156 C 178.03125 115.429688 178.515625 115.535156 180.3125 115.933594 C 182.039063 116.3125 182.246094 116.347656 182.628906 116.707031 C 182.851563 116.933594 183.351563 117.417969 183.351563 118.296875 C 183.351563 119.039063 182.988281 120.402344 181.054688 120.402344 C 179.535156 120.402344 177.132813 119.886719 176.996094 117.363281 C 176.976563 117.054688 176.976563 117.003906 176.632813 117.003906 C 176.269531 117.003906 176.269531 117.054688 176.269531 117.449219 L 176.269531 120.699219 C 176.269531 121.027344 176.269531 121.148438 176.53125 121.148438 C 176.648438 121.148438 176.667969 121.128906 176.839844 120.972656 C 177.03125 120.785156 177.1875 120.558594 177.617188 120.128906 C 178.617188 120.921875 180.035156 121.148438 181.070313 121.148438 C 183.765625 121.148438 184.90625 119.316406 184.90625 117.488281 C 184.90625 115.863281 183.835938 114.308594 181.953125 113.878906 L 179.585938 113.339844 "
       style=" stroke:none;fill-rule:nonzero;fill:rgb(0%,0%,0%);fill-opacity:1;" />
    <path
       id="path10"
       d="M 193.804688 117.121094 C 194.203125 117.121094 194.304688 117.121094 194.304688 116.691406 C 194.304688 116.175781 194.1875 114.878906 193.390625 114.066406 C 192.664063 113.339844 191.699219 113.117188 190.695313 113.117188 C 188.003906 113.117188 186.535156 114.878906 186.535156 117.054688 C 186.535156 119.472656 188.3125 121.042969 190.921875 121.042969 C 193.53125 121.042969 194.304688 119.214844 194.304688 118.917969 C 194.304688 118.660156 194.046875 118.660156 193.945313 118.660156 C 193.667969 118.660156 193.648438 118.710938 193.546875 118.9375 C 193.097656 120.058594 191.957031 120.421875 191.128906 120.421875 C 188.625 120.421875 188.609375 118.089844 188.609375 117.121094 Z M 188.609375 116.621094 C 188.640625 115.914063 188.660156 115.242188 189.023438 114.621094 C 189.351563 114.066406 189.953125 113.6875 190.695313 113.6875 C 192.546875 113.6875 192.699219 115.757813 192.71875 116.621094 L 188.609375 116.621094 "
       style=" stroke:none;fill-rule:nonzero;fill:rgb(0%,0%,0%);fill-opacity:1;" />
    <path
       id="path12"
       d="M 206.757813 112.480469 C 206.792969 112.375 207.222656 111.511719 207.863281 110.960938 C 208.3125 110.546875 208.898438 110.269531 209.570313 110.269531 C 210.261719 110.269531 210.503906 110.789063 210.503906 111.480469 C 210.503906 111.582031 210.503906 111.925781 210.296875 112.738281 L 209.867188 114.519531 C 209.726563 115.035156 209.398438 116.3125 209.367188 116.503906 C 209.296875 116.761719 209.191406 117.210938 209.191406 117.28125 C 209.191406 117.523438 209.382813 117.714844 209.640625 117.714844 C 210.160156 117.714844 210.246094 117.316406 210.402344 116.691406 L 211.4375 112.566406 C 211.472656 112.425781 212.371094 110.269531 214.269531 110.269531 C 214.960938 110.269531 215.203125 110.789063 215.203125 111.480469 C 215.203125 112.445313 214.527344 114.328125 214.148438 115.363281 C 213.992188 115.777344 213.90625 116.003906 213.90625 116.3125 C 213.90625 117.089844 214.441406 117.714844 215.273438 117.714844 C 216.878906 117.714844 217.480469 115.175781 217.480469 115.070313 C 217.480469 114.984375 217.414063 114.914063 217.308594 114.914063 C 217.152344 114.914063 217.136719 114.964844 217.050781 115.261719 C 216.652344 116.640625 216.015625 117.367188 215.324219 117.367188 C 215.148438 117.367188 214.871094 117.347656 214.871094 116.796875 C 214.871094 116.347656 215.082031 115.796875 215.148438 115.605469 C 215.460938 114.777344 216.238281 112.738281 216.238281 111.738281 C 216.238281 110.699219 215.632813 109.925781 214.320313 109.925781 C 213.164063 109.925781 212.230469 110.582031 211.539063 111.597656 C 211.488281 110.667969 210.917969 109.925781 209.621094 109.925781 C 208.089844 109.925781 207.273438 111.011719 206.964844 111.445313 C 206.914063 110.460938 206.203125 109.925781 205.445313 109.925781 C 204.945313 109.925781 204.546875 110.167969 204.21875 110.824219 C 203.90625 111.445313 203.664063 112.496094 203.664063 112.566406 C 203.664063 112.636719 203.734375 112.722656 203.855469 112.722656 C 203.992188 112.722656 204.011719 112.703125 204.117188 112.308594 C 204.375 111.289063 204.703125 110.269531 205.394531 110.269531 C 205.789063 110.269531 205.929688 110.546875 205.929688 111.0625 C 205.929688 111.445313 205.757813 112.117188 205.632813 112.652344 L 205.152344 114.519531 C 205.082031 114.847656 204.890625 115.621094 204.804688 115.933594 C 204.6875 116.382813 204.496094 117.195313 204.496094 117.28125 C 204.496094 117.523438 204.6875 117.714844 204.945313 117.714844 C 205.152344 117.714844 205.394531 117.609375 205.53125 117.347656 C 205.566406 117.261719 205.722656 116.660156 205.808594 116.3125 L 206.1875 114.761719 L 206.757813 112.480469 "
       style=" stroke:none;fill-rule:nonzero;fill:rgb(0%,0%,100%);fill-opacity:1;" />
    <path
       id="path14"
       d="M 218.277344 119.800781 L 218.464844 120.027344 L 219.070313 119.699219 C 220.003906 120.457031 221.195313 121.148438 222.421875 121.148438 C 222.558594 121.148438 222.835938 121.082031 223.042969 121.011719 C 224.0625 120.027344 224.976563 118.9375 225.859375 117.832031 L 225.355469 115.65625 C 225.304688 115.433594 225.269531 115.191406 225.269531 114.949219 C 225.269531 112.792969 225.132813 110.683594 225.648438 109.613281 L 225.546875 109.511719 L 224.304688 110.199219 C 223.613281 110.042969 222.921875 109.820313 222.335938 109.421875 C 221.382813 109.976563 220.453125 110.546875 219.539063 111.183594 C 219.363281 112.324219 219.277344 113.480469 219.277344 114.636719 C 219.277344 115.226563 219.3125 115.832031 219.347656 116.417969 L 220.589844 117.953125 C 219.8125 118.628906 219.054688 119.265625 218.277344 119.800781 Z M 223.90625 115.863281 C 224.09375 116.675781 224.371094 117.9375 224.371094 118.316406 C 224.371094 119.113281 223.921875 119.871094 223.09375 119.871094 C 222.128906 119.871094 221.246094 119.199219 220.539063 118.488281 C 221.609375 117.574219 222.746094 116.675781 223.90625 115.863281 Z M 221.9375 116.832031 C 221.507813 116.433594 221.023438 115.898438 220.761719 115.398438 C 220.695313 114.621094 220.675781 113.828125 220.675781 113.050781 C 220.675781 112.289063 220.710938 111.425781 220.988281 110.734375 C 221.816406 111.117188 223.023438 111.339844 224.027344 111.480469 C 223.90625 112.773438 223.871094 114.105469 223.871094 115.417969 L 221.9375 116.832031 "
       style=" stroke:none;fill-rule:nonzero;fill:rgb(0%,0%,100%);fill-opacity:1;" />
    <path
       id="path16"
       d="M 199.867188 112.023438 C 199.867188 111.589844 199.523438 111.3125 199.160156 111.3125 C 198.8125 111.3125 198.449219 111.589844 198.449219 112.023438 C 198.449219 112.453125 198.796875 112.730469 199.160156 112.730469 C 199.503906 112.730469 199.867188 112.453125 199.867188 112.023438 Z M 199.867188 118.03125 C 199.867188 117.601563 199.523438 117.324219 199.160156 117.324219 C 198.8125 117.324219 198.449219 117.601563 198.449219 118.03125 C 198.449219 118.464844 198.796875 118.738281 199.160156 118.738281 C 199.503906 118.738281 199.867188 118.464844 199.867188 118.03125 "
       style=" stroke:none;fill-rule:nonzero;fill:rgb(0%,0%,100%);fill-opacity:1;" />
    <path
       id="path18"
       d="M 101.148438 24.835938 L 103.082031 24.835938 L 103.082031 24.09375 C 102.460938 24.128906 100.734375 24.128906 100.007813 24.128906 C 99.285156 24.128906 97.558594 24.128906 96.9375 24.09375 L 96.9375 24.835938 L 98.867188 24.835938 L 98.867188 35.199219 L 96.9375 35.199219 L 96.9375 35.941406 C 97.558594 35.90625 99.285156 35.90625 100.007813 35.90625 C 100.734375 35.90625 102.460938 35.90625 103.082031 35.941406 L 103.082031 35.199219 L 101.148438 35.199219 L 101.148438 24.835938 "
       style=" stroke:none;fill-rule:nonzero;fill:rgb(0%,0%,0%);fill-opacity:1;" />
    <path
       id="path20"
       d="M 96.15625 10.679688 C 96.191406 10.574219 96.625 9.714844 97.261719 9.160156 C 97.710938 8.746094 98.296875 8.46875 98.972656 8.46875 C 99.664063 8.46875 99.90625 8.988281 99.90625 9.679688 C 99.90625 9.78125 99.90625 10.128906 99.699219 10.9375 L 99.265625 12.71875 C 99.128906 13.234375 98.800781 14.511719 98.765625 14.703125 C 98.695313 14.964844 98.59375 15.410156 98.59375 15.480469 C 98.59375 15.722656 98.78125 15.914063 99.042969 15.914063 C 99.558594 15.914063 99.644531 15.515625 99.800781 14.894531 L 100.839844 10.765625 C 100.871094 10.628906 101.769531 8.46875 103.671875 8.46875 C 104.359375 8.46875 104.601563 8.988281 104.601563 9.679688 C 104.601563 10.644531 103.929688 12.527344 103.546875 13.5625 C 103.394531 13.980469 103.304688 14.203125 103.304688 14.511719 C 103.304688 15.292969 103.84375 15.914063 104.671875 15.914063 C 106.277344 15.914063 106.882813 13.375 106.882813 13.269531 C 106.882813 13.183594 106.8125 13.113281 106.710938 13.113281 C 106.554688 13.113281 106.535156 13.167969 106.449219 13.460938 C 106.054688 14.84375 105.414063 15.566406 104.722656 15.566406 C 104.550781 15.566406 104.273438 15.550781 104.273438 14.996094 C 104.273438 14.546875 104.480469 13.996094 104.550781 13.804688 C 104.859375 12.976563 105.640625 10.9375 105.640625 9.9375 C 105.640625 8.902344 105.035156 8.125 103.722656 8.125 C 102.5625 8.125 101.632813 8.78125 100.941406 9.800781 C 100.890625 8.867188 100.320313 8.125 99.023438 8.125 C 97.488281 8.125 96.675781 9.210938 96.363281 9.644531 C 96.3125 8.660156 95.605469 8.125 94.84375 8.125 C 94.34375 8.125 93.945313 8.367188 93.617188 9.023438 C 93.308594 9.644531 93.066406 10.699219 93.066406 10.765625 C 93.066406 10.835938 93.136719 10.921875 93.257813 10.921875 C 93.394531 10.921875 93.410156 10.902344 93.515625 10.507813 C 93.773438 9.488281 94.101563 8.46875 94.792969 8.46875 C 95.191406 8.46875 95.328125 8.746094 95.328125 9.261719 C 95.328125 9.644531 95.15625 10.316406 95.035156 10.851563 L 94.550781 12.71875 C 94.484375 13.046875 94.292969 13.824219 94.207031 14.132813 C 94.085938 14.582031 93.894531 15.394531 93.894531 15.480469 C 93.894531 15.722656 94.085938 15.914063 94.34375 15.914063 C 94.550781 15.914063 94.792969 15.808594 94.929688 15.550781 C 94.964844 15.464844 95.121094 14.859375 95.207031 14.511719 L 95.585938 12.960938 L 96.15625 10.679688 "
       style=" stroke:none;fill-rule:nonzero;fill:rgb(0%,0%,100%);fill-opacity:1;" />
    <path
       id="path22"
       d="M 96.984375 19.074219 C 96.550781 19.074219 96.273438 19.417969 96.273438 19.78125 C 96.273438 20.125 96.550781 20.488281 96.984375 20.488281 C 97.414063 20.488281 97.691406 20.144531 97.691406 19.78125 C 97.691406 19.433594 97.414063 19.074219 96.984375 19.074219 Z M 102.992188 19.074219 C 102.5625 19.074219 102.285156 19.417969 102.285156 19.78125 C 102.285156 20.125 102.5625 20.488281 102.992188 20.488281 C 103.421875 20.488281 103.699219 20.144531 103.699219 19.78125 C 103.699219 19.433594 103.421875 19.074219 102.992188 19.074219 "
       style=" stroke:none;fill-rule:nonzero;fill:rgb(0%,0%,100%);fill-opacity:1;" />
    <path
       id="path24"
       d="M 20.933594 109.335938 C 20.933594 108.9375 20.933594 108.886719 20.554688 108.886719 L 19.257813 110.128906 C 18.292969 109.300781 17.136719 108.886719 15.859375 108.886719 C 11.730469 108.886719 9.070313 111.390625 9.070313 115.015625 C 9.070313 118.574219 11.644531 121.148438 15.875 121.148438 C 18.949219 121.148438 20.933594 119.039063 20.933594 117.003906 C 20.933594 116.707031 20.832031 116.691406 20.570313 116.691406 C 20.398438 116.691406 20.226563 116.691406 20.210938 116.882813 C 20.054688 119.507813 17.828125 120.402344 16.273438 120.402344 C 15.148438 120.402344 13.628906 120.09375 12.664063 119.003906 C 12.058594 118.347656 11.507813 117.398438 11.507813 115.015625 C 11.507813 113.324219 11.765625 112.0625 12.578125 111.097656 C 13.679688 109.800781 15.40625 109.628906 16.238281 109.628906 C 17.53125 109.628906 19.621094 110.355469 20.140625 113.394531 C 20.175781 113.550781 20.328125 113.550781 20.539063 113.550781 C 20.933594 113.550781 20.933594 113.511719 20.933594 113.097656 L 20.933594 109.335938 "
       style=" stroke:none;fill-rule:nonzero;fill:rgb(0%,0%,0%);fill-opacity:1;" />
    <path
       id="path26"
       d="M 21.199219 88.738281 C 21.199219 88.582031 21.078125 88.582031 21.046875 88.582031 C 21.011719 88.582031 20.941406 88.582031 20.804688 88.753906 L 19.609375 90.207031 C 19.007813 89.167969 18.058594 88.582031 16.761719 88.582031 C 13.03125 88.582031 9.164063 92.363281 9.164063 96.421875 C 9.164063 99.308594 11.183594 101.101563 13.703125 101.101563 C 15.085938 101.101563 16.296875 100.515625 17.296875 99.667969 C 18.800781 98.410156 19.25 96.734375 19.25 96.59375 C 19.25 96.441406 19.109375 96.441406 19.058594 96.441406 C 18.902344 96.441406 18.886719 96.542969 18.851563 96.613281 C 18.058594 99.308594 15.726563 100.601563 14 100.601563 C 12.167969 100.601563 10.578125 99.425781 10.578125 96.976563 C 10.578125 96.421875 10.75 93.417969 12.703125 91.15625 C 13.652344 90.050781 15.277344 89.082031 16.917969 89.082031 C 18.816406 89.082031 19.664063 90.652344 19.664063 92.417969 C 19.664063 92.863281 19.609375 93.246094 19.609375 93.3125 C 19.609375 93.46875 19.785156 93.46875 19.835938 93.46875 C 20.027344 93.46875 20.042969 93.453125 20.113281 93.140625 L 21.199219 88.738281 "
       style=" stroke:none;fill-rule:nonzero;fill:rgb(0%,0%,100%);fill-opacity:1;" />
    <path
       id="path28"
       d="M 11.984375 104.171875 C 11.550781 104.171875 11.273438 104.519531 11.273438 104.878906 C 11.273438 105.226563 11.550781 105.589844 11.984375 105.589844 C 12.414063 105.589844 12.691406 105.246094 12.691406 104.878906 C 12.691406 104.535156 12.414063 104.171875 11.984375 104.171875 Z M 17.992188 104.171875 C 17.5625 104.171875 17.285156 104.519531 17.285156 104.878906 C 17.285156 105.226563 17.5625 105.589844 17.992188 105.589844 C 18.421875 105.589844 18.699219 105.246094 18.699219 104.878906 C 18.699219 104.535156 18.421875 104.171875 17.992188 104.171875 "
       style=" stroke:none;fill-rule:nonzero;fill:rgb(0%,0%,100%);fill-opacity:1;" />
    <path
       id="path30"
       transform="matrix(0.1,0,0,-0.1,0,147.04)"
       d="M 1699.53125 319.775 L 1154.921875 319.775 "
       style="fill:none;stroke-width:15.9404;stroke-linecap:butt;stroke-linejoin:miter;stroke:rgb(0%,0%,0%);stroke-opacity:1;stroke-miterlimit:10;" />
    <path
       id="path32"
       transform="matrix(0.1,0,0,-0.1,0,147.04)"
       d="M 1154.921875 319.775 L 1138.984375 319.775 L 1207.695313 262.11875 "
       style="fill:none;stroke-width:15.9404;stroke-linecap:butt;stroke-linejoin:miter;stroke:rgb(0%,0%,0%);stroke-opacity:1;stroke-miterlimit:10;" />
    <path
       id="path34"
       transform="matrix(0.1,0,0,-0.1,0,147.04)"
       d="M 1109.101563 256.025 L 1109.101563 383.525 "
       style="fill:none;stroke-width:15.9404;stroke-linecap:butt;stroke-linejoin:miter;stroke:rgb(0%,0%,0%);stroke-opacity:1;stroke-miterlimit:10;" />
    <path
       id="path36"
       transform="matrix(0.1,0,0,-0.1,0,147.04)"
       d="M 999.921875 428.05625 L 999.921875 1004.540625 "
       style="fill:none;stroke-width:15.9404;stroke-linecap:butt;stroke-linejoin:miter;stroke:rgb(0%,0%,0%);stroke-opacity:1;stroke-miterlimit:10;" />
    <path
       id="path38"
       transform="matrix(0.1,0,0,-0.1,0,147.04)"
       d="M 999.921875 1004.540625 L 999.921875 1020.478125 L 1057.578125 951.767187 "
       style="fill:none;stroke-width:15.9404;stroke-linecap:butt;stroke-linejoin:miter;stroke:rgb(0%,0%,0%);stroke-opacity:1;stroke-miterlimit:10;" />
    <path
       id="path40"
       transform="matrix(0.1,0,0,-0.1,0,147.04)"
       d="M 936.171875 1050.360937 L 1063.671875 1050.360937 "
       style="fill:none;stroke-width:15.9404;stroke-linecap:butt;stroke-linejoin:miter;stroke:rgb(0%,0%,0%);stroke-opacity:1;stroke-miterlimit:10;" />
    <path
       id="path42"
       transform="matrix(0.1,0,0,-0.1,0,147.04)"
       d="M 886.757813 319.775 L 310.117188 319.775 "
       style="fill:none;stroke-width:15.9404;stroke-linecap:butt;stroke-linejoin:miter;stroke:rgb(0%,0%,0%);stroke-opacity:1;stroke-miterlimit:10;" />
    <path
       id="path44"
       transform="matrix(0.1,0,0,-0.1,0,147.04)"
       d="M 890.742188 383.525 L 890.742188 256.025 "
       style="fill:none;stroke-width:15.9404;stroke-linecap:butt;stroke-linejoin:miter;stroke:rgb(0%,0%,0%);stroke-opacity:1;stroke-miterlimit:10;" />
    <path
       id="path46"
       transform="matrix(0.1,0,0,-0.1,0,147.04)"
       d="M 310.117188 319.775 L 294.140625 319.775 L 362.851563 262.11875 "
       style="fill:none;stroke-width:15.9404;stroke-linecap:butt;stroke-linejoin:miter;stroke:rgb(0%,0%,0%);stroke-opacity:1;stroke-miterlimit:10;" />
  </g>
</svg>
