<?xml version="1.0" encoding="UTF-8" standalone="no"?>
<svg
   xmlns:dc="http://purl.org/dc/elements/1.1/"
   xmlns:cc="http://creativecommons.org/ns#"
   xmlns:rdf="http://www.w3.org/1999/02/22-rdf-syntax-ns#"
   xmlns:svg="http://www.w3.org/2000/svg"
   xmlns="http://www.w3.org/2000/svg"
   id="svg55"
   version="1.2"
   viewBox="0 0 234.95 236.43"
   height="236.43pt"
   width="234.95pt">
  <metadata
     id="metadata61">
    <rdf:RDF>
      <cc:Work
         rdf:about="">
        <dc:format>image/svg+xml</dc:format>
        <dc:type
           rdf:resource="http://purl.org/dc/dcmitype/StillImage" />
      </cc:Work>
    </rdf:RDF>
  </metadata>
  <defs
     id="defs59" />
  <g
     id="surface1">
    <path
       id="path2"
       d="M 19.027344 204.519531 C 19.027344 202.863281 19.027344 198.703125 14.953125 198.703125 C 10.859375 198.703125 10.859375 202.84375 10.859375 204.519531 C 10.859375 206.179688 10.859375 210.238281 14.9375 210.238281 C 19.011719 210.238281 19.027344 206.230469 19.027344 204.519531 Z M 14.953125 209.667969 C 14.398438 209.667969 13.984375 209.441406 13.640625 209.078125 C 13.207031 208.648438 12.933594 208.371094 12.933594 204.3125 C 12.933594 203.105469 12.933594 202 13.070313 201.101563 C 13.3125 199.390625 14.554688 199.269531 14.9375 199.269531 C 15.488281 199.269531 16.558594 199.53125 16.800781 200.980469 C 16.957031 201.859375 16.957031 203.257813 16.957031 204.3125 C 16.957031 208.390625 16.695313 208.632813 16.179688 209.148438 C 15.832031 209.492188 15.367188 209.667969 14.953125 209.667969 "
       style=" stroke:none;fill-rule:nonzero;fill:rgb(0%,0%,0%);fill-opacity:1;" />
    <path
       id="path4"
       d="M 101.175781 199.203125 C 101.175781 198.703125 101.140625 198.703125 100.589844 198.703125 C 99.308594 199.804688 97.394531 199.804688 97.015625 199.804688 L 96.6875 199.804688 L 96.6875 200.546875 L 97.015625 200.546875 C 97.617188 200.546875 98.53125 200.445313 99.222656 200.21875 L 99.222656 209.289063 L 96.824219 209.289063 L 96.824219 210.03125 C 97.546875 209.996094 99.363281 209.996094 100.171875 209.996094 C 100.984375 209.996094 102.816406 209.996094 103.539063 210.03125 L 103.539063 209.289063 L 101.175781 209.289063 L 101.175781 199.203125 "
       style=" stroke:none;fill-rule:nonzero;fill:rgb(0%,0%,0%);fill-opacity:1;" />
    <path
       id="path6"
       d="M 117.492188 219.070313 C 117.492188 217.984375 116.9375 217.914063 116.800781 217.914063 C 116.386719 217.914063 116.007813 218.328125 116.007813 218.671875 C 116.007813 218.882813 116.128906 219 116.195313 219.070313 C 116.371094 219.226563 116.820313 219.691406 116.820313 220.589844 C 116.820313 221.316406 115.78125 225.355469 113.710938 225.355469 C 112.65625 225.355469 112.449219 224.476563 112.449219 223.835938 C 112.449219 222.972656 112.847656 221.765625 113.3125 220.523438 C 113.589844 219.8125 113.65625 219.640625 113.65625 219.296875 C 113.65625 218.570313 113.140625 217.914063 112.292969 217.914063 C 110.703125 217.914063 110.066406 220.417969 110.066406 220.554688 C 110.066406 220.625 110.136719 220.710938 110.257813 220.710938 C 110.410156 220.710938 110.429688 220.640625 110.496094 220.398438 C 110.914063 218.914063 111.585938 218.257813 112.242188 218.257813 C 112.398438 218.257813 112.691406 218.257813 112.691406 218.828125 C 112.691406 219.277344 112.503906 219.78125 112.242188 220.4375 C 111.414063 222.644531 111.414063 223.179688 111.414063 223.59375 C 111.414063 223.976563 111.464844 224.683594 112 225.167969 C 112.621094 225.703125 113.484375 225.703125 113.640625 225.703125 C 116.507813 225.703125 117.492188 220.054688 117.492188 219.070313 "
       style=" stroke:none;fill-rule:nonzero;fill:rgb(0%,0%,100%);fill-opacity:1;" />
    <path
       id="path8"
       d="M 121.234375 220.488281 C 121.234375 220.214844 121.234375 220.203125 120.996094 220.203125 C 120.707031 220.523438 120.113281 220.964844 118.882813 220.964844 L 118.882813 221.3125 C 119.160156 221.3125 119.753906 221.3125 120.410156 221 L 120.410156 227.210938 C 120.410156 227.640625 120.375 227.785156 119.328125 227.785156 L 118.957031 227.785156 L 118.957031 228.128906 C 119.277344 228.105469 120.433594 228.105469 120.828125 228.105469 C 121.222656 228.105469 122.367188 228.105469 122.6875 228.128906 L 122.6875 227.785156 L 122.316406 227.785156 C 121.269531 227.785156 121.234375 227.640625 121.234375 227.210938 L 121.234375 220.488281 "
       style=" stroke:none;fill-rule:nonzero;fill:rgb(0%,0%,100%);fill-opacity:1;" />
    <path
       id="path10"
       d="M 16.074219 114.101563 C 16.074219 113.601563 16.039063 113.601563 15.488281 113.601563 C 14.210938 114.707031 12.292969 114.707031 11.914063 114.707031 L 11.585938 114.707031 L 11.585938 115.449219 L 11.914063 115.449219 C 12.515625 115.449219 13.433594 115.347656 14.125 115.121094 L 14.125 124.1875 L 11.722656 124.1875 L 11.722656 124.929688 C 12.449219 124.894531 14.261719 124.894531 15.074219 124.894531 C 15.886719 124.894531 17.714844 124.894531 18.441406 124.929688 L 18.441406 124.1875 L 16.074219 124.1875 L 16.074219 114.101563 "
       style=" stroke:none;fill-rule:nonzero;fill:rgb(0%,0%,0%);fill-opacity:1;" />
    <path
       id="path12"
       d="M 179.585938 202.730469 C 177.878906 202.351563 177.824219 201.109375 177.824219 200.867188 C 177.824219 199.984375 178.394531 198.96875 180.070313 198.96875 C 181.746094 198.96875 183.246094 199.777344 183.609375 202.039063 C 183.664063 202.402344 183.664063 202.421875 183.992188 202.421875 C 184.351563 202.421875 184.351563 202.367188 184.351563 201.972656 L 184.351563 198.726563 C 184.351563 198.398438 184.351563 198.273438 184.09375 198.273438 C 183.972656 198.273438 183.921875 198.292969 183.765625 198.464844 L 183.023438 199.3125 C 182.589844 198.949219 181.726563 198.273438 180.054688 198.273438 C 177.582031 198.273438 176.269531 199.828125 176.269531 201.710938 C 176.269531 202.867188 176.890625 203.679688 177.132813 203.921875 C 178.03125 204.820313 178.515625 204.925781 180.3125 205.320313 C 182.039063 205.703125 182.246094 205.734375 182.628906 206.097656 C 182.851563 206.324219 183.351563 206.804688 183.351563 207.6875 C 183.351563 208.429688 182.988281 209.792969 181.054688 209.792969 C 179.535156 209.792969 177.132813 209.277344 176.996094 206.753906 C 176.976563 206.445313 176.976563 206.390625 176.632813 206.390625 C 176.269531 206.390625 176.269531 206.445313 176.269531 206.839844 L 176.269531 210.085938 C 176.269531 210.414063 176.269531 210.539063 176.53125 210.539063 C 176.648438 210.539063 176.667969 210.519531 176.839844 210.363281 C 177.03125 210.175781 177.1875 209.949219 177.617188 209.519531 C 178.617188 210.3125 180.035156 210.539063 181.070313 210.539063 C 183.765625 210.539063 184.90625 208.707031 184.90625 206.875 C 184.90625 205.253906 183.835938 203.699219 181.953125 203.265625 L 179.585938 202.730469 "
       style=" stroke:none;fill-rule:nonzero;fill:rgb(0%,0%,0%);fill-opacity:1;" />
    <path
       id="path14"
       d="M 193.804688 206.511719 C 194.203125 206.511719 194.304688 206.511719 194.304688 206.082031 C 194.304688 205.5625 194.1875 204.269531 193.390625 203.457031 C 192.664063 202.730469 191.699219 202.507813 190.695313 202.507813 C 188.003906 202.507813 186.535156 204.269531 186.535156 206.445313 C 186.535156 208.863281 188.3125 210.433594 190.921875 210.433594 C 193.53125 210.433594 194.304688 208.601563 194.304688 208.308594 C 194.304688 208.050781 194.046875 208.050781 193.945313 208.050781 C 193.667969 208.050781 193.648438 208.101563 193.546875 208.328125 C 193.097656 209.449219 191.957031 209.8125 191.128906 209.8125 C 188.625 209.8125 188.609375 207.480469 188.609375 206.511719 Z M 188.609375 206.011719 C 188.640625 205.304688 188.660156 204.632813 189.023438 204.007813 C 189.351563 203.457031 189.953125 203.078125 190.695313 203.078125 C 192.546875 203.078125 192.699219 205.148438 192.71875 206.011719 L 188.609375 206.011719 "
       style=" stroke:none;fill-rule:nonzero;fill:rgb(0%,0%,0%);fill-opacity:1;" />
    <path
       id="path16"
       d="M 206.757813 201.871094 C 206.792969 201.765625 207.222656 200.902344 207.863281 200.351563 C 208.3125 199.9375 208.898438 199.660156 209.570313 199.660156 C 210.261719 199.660156 210.503906 200.179688 210.503906 200.867188 C 210.503906 200.972656 210.503906 201.316406 210.296875 202.128906 L 209.867188 203.90625 C 209.726563 204.425781 209.398438 205.703125 209.367188 205.894531 C 209.296875 206.152344 209.191406 206.601563 209.191406 206.671875 C 209.191406 206.914063 209.382813 207.101563 209.640625 207.101563 C 210.160156 207.101563 210.246094 206.703125 210.402344 206.082031 L 211.4375 201.957031 C 211.472656 201.816406 212.371094 199.660156 214.269531 199.660156 C 214.960938 199.660156 215.203125 200.179688 215.203125 200.867188 C 215.203125 201.835938 214.527344 203.71875 214.148438 204.753906 C 213.992188 205.167969 213.90625 205.390625 213.90625 205.703125 C 213.90625 206.480469 214.441406 207.101563 215.273438 207.101563 C 216.878906 207.101563 217.480469 204.5625 217.480469 204.460938 C 217.480469 204.375 217.414063 204.304688 217.308594 204.304688 C 217.152344 204.304688 217.136719 204.355469 217.050781 204.648438 C 216.652344 206.03125 216.015625 206.757813 215.324219 206.757813 C 215.148438 206.757813 214.871094 206.738281 214.871094 206.1875 C 214.871094 205.738281 215.082031 205.1875 215.148438 204.996094 C 215.460938 204.167969 216.238281 202.128906 216.238281 201.125 C 216.238281 200.089844 215.632813 199.3125 214.320313 199.3125 C 213.164063 199.3125 212.230469 199.96875 211.539063 200.988281 C 211.488281 200.054688 210.917969 199.3125 209.621094 199.3125 C 208.089844 199.3125 207.273438 200.402344 206.964844 200.835938 C 206.914063 199.851563 206.203125 199.3125 205.445313 199.3125 C 204.945313 199.3125 204.546875 199.554688 204.21875 200.210938 C 203.90625 200.835938 203.664063 201.886719 203.664063 201.957031 C 203.664063 202.023438 203.734375 202.109375 203.855469 202.109375 C 203.992188 202.109375 204.011719 202.09375 204.117188 201.695313 C 204.375 200.679688 204.703125 199.660156 205.394531 199.660156 C 205.789063 199.660156 205.929688 199.9375 205.929688 200.453125 C 205.929688 200.835938 205.757813 201.507813 205.632813 202.042969 L 205.152344 203.90625 C 205.082031 204.234375 204.890625 205.011719 204.804688 205.324219 C 204.6875 205.773438 204.496094 206.585938 204.496094 206.671875 C 204.496094 206.914063 204.6875 207.101563 204.945313 207.101563 C 205.152344 207.101563 205.394531 207 205.53125 206.738281 C 205.566406 206.652344 205.722656 206.046875 205.808594 205.703125 L 206.1875 204.148438 L 206.757813 201.871094 "
       style=" stroke:none;fill-rule:nonzero;fill:rgb(0%,0%,100%);fill-opacity:1;" />
    <path
       id="path18"
       d="M 218.277344 209.191406 L 218.464844 209.417969 L 219.070313 209.089844 C 220.003906 209.847656 221.195313 210.539063 222.421875 210.539063 C 222.558594 210.539063 222.835938 210.46875 223.042969 210.402344 C 224.0625 209.417969 224.976563 208.328125 225.859375 207.222656 L 225.355469 205.046875 C 225.304688 204.824219 225.269531 204.582031 225.269531 204.339844 C 225.269531 202.179688 225.132813 200.074219 225.648438 199.003906 L 225.546875 198.898438 L 224.304688 199.589844 C 223.613281 199.433594 222.921875 199.210938 222.335938 198.8125 C 221.382813 199.367188 220.453125 199.9375 219.539063 200.574219 C 219.363281 201.714844 219.277344 202.871094 219.277344 204.027344 C 219.277344 204.617188 219.3125 205.21875 219.347656 205.808594 L 220.589844 207.34375 C 219.8125 208.015625 219.054688 208.65625 218.277344 209.191406 Z M 223.90625 205.253906 C 224.09375 206.066406 224.371094 207.328125 224.371094 207.707031 C 224.371094 208.5 223.921875 209.261719 223.09375 209.261719 C 222.128906 209.261719 221.246094 208.585938 220.539063 207.878906 C 221.609375 206.964844 222.746094 206.066406 223.90625 205.253906 Z M 221.9375 206.222656 C 221.507813 205.824219 221.023438 205.289063 220.761719 204.789063 C 220.695313 204.011719 220.675781 203.21875 220.675781 202.4375 C 220.675781 201.679688 220.710938 200.816406 220.988281 200.125 C 221.816406 200.507813 223.023438 200.730469 224.027344 200.867188 C 223.90625 202.164063 223.871094 203.492188 223.871094 204.804688 L 221.9375 206.222656 "
       style=" stroke:none;fill-rule:nonzero;fill:rgb(0%,0%,100%);fill-opacity:1;" />
    <path
       id="path20"
       d="M 199.867188 201.414063 C 199.867188 200.980469 199.523438 200.703125 199.160156 200.703125 C 198.8125 200.703125 198.449219 200.980469 198.449219 201.414063 C 198.449219 201.84375 198.796875 202.121094 199.160156 202.121094 C 199.503906 202.121094 199.867188 201.84375 199.867188 201.414063 Z M 199.867188 207.421875 C 199.867188 206.992188 199.523438 206.714844 199.160156 206.714844 C 198.8125 206.714844 198.449219 206.992188 198.449219 207.421875 C 198.449219 207.851563 198.796875 208.128906 199.160156 208.128906 C 199.503906 208.128906 199.867188 207.851563 199.867188 207.421875 "
       style=" stroke:none;fill-rule:nonzero;fill:rgb(0%,0%,100%);fill-opacity:1;" />
    <path
       id="path22"
       d="M 101.148438 114.226563 L 103.082031 114.226563 L 103.082031 113.484375 C 102.460938 113.515625 100.734375 113.515625 100.007813 113.515625 C 99.285156 113.515625 97.558594 113.515625 96.9375 113.484375 L 96.9375 114.226563 L 98.867188 114.226563 L 98.867188 124.589844 L 96.9375 124.589844 L 96.9375 125.328125 C 97.558594 125.296875 99.285156 125.296875 100.007813 125.296875 C 100.734375 125.296875 102.460938 125.296875 103.082031 125.328125 L 103.082031 124.589844 L 101.148438 124.589844 L 101.148438 114.226563 "
       style=" stroke:none;fill-rule:nonzero;fill:rgb(0%,0%,0%);fill-opacity:1;" />
    <path
       id="path24"
       d="M 96.15625 100.070313 C 96.191406 99.964844 96.625 99.101563 97.261719 98.550781 C 97.710938 98.136719 98.296875 97.859375 98.972656 97.859375 C 99.664063 97.859375 99.90625 98.378906 99.90625 99.070313 C 99.90625 99.171875 99.90625 99.515625 99.699219 100.328125 L 99.265625 102.109375 C 99.128906 102.625 98.800781 103.902344 98.765625 104.09375 C 98.695313 104.351563 98.59375 104.800781 98.59375 104.871094 C 98.59375 105.113281 98.78125 105.304688 99.042969 105.304688 C 99.558594 105.304688 99.644531 104.90625 99.800781 104.28125 L 100.839844 100.15625 C 100.871094 100.015625 101.769531 97.859375 103.671875 97.859375 C 104.359375 97.859375 104.601563 98.378906 104.601563 99.070313 C 104.601563 100.035156 103.929688 101.917969 103.546875 102.953125 C 103.394531 103.367188 103.304688 103.59375 103.304688 103.902344 C 103.304688 104.683594 103.84375 105.304688 104.671875 105.304688 C 106.277344 105.304688 106.882813 102.765625 106.882813 102.660156 C 106.882813 102.574219 106.8125 102.503906 106.710938 102.503906 C 106.554688 102.503906 106.535156 102.558594 106.449219 102.851563 C 106.054688 104.230469 105.414063 104.957031 104.722656 104.957031 C 104.550781 104.957031 104.273438 104.9375 104.273438 104.386719 C 104.273438 103.9375 104.480469 103.386719 104.550781 103.195313 C 104.859375 102.367188 105.640625 100.328125 105.640625 99.328125 C 105.640625 98.289063 105.035156 97.515625 103.722656 97.515625 C 102.5625 97.515625 101.632813 98.171875 100.941406 99.1875 C 100.890625 98.257813 100.320313 97.515625 99.023438 97.515625 C 97.488281 97.515625 96.675781 98.601563 96.363281 99.035156 C 96.3125 98.050781 95.605469 97.515625 94.84375 97.515625 C 94.34375 97.515625 93.945313 97.757813 93.617188 98.414063 C 93.308594 99.035156 93.066406 100.089844 93.066406 100.15625 C 93.066406 100.226563 93.136719 100.3125 93.257813 100.3125 C 93.394531 100.3125 93.410156 100.292969 93.515625 99.898438 C 93.773438 98.878906 94.101563 97.859375 94.792969 97.859375 C 95.191406 97.859375 95.328125 98.136719 95.328125 98.652344 C 95.328125 99.035156 95.15625 99.707031 95.035156 100.242188 L 94.550781 102.109375 C 94.484375 102.4375 94.292969 103.214844 94.207031 103.523438 C 94.085938 103.972656 93.894531 104.785156 93.894531 104.871094 C 93.894531 105.113281 94.085938 105.304688 94.34375 105.304688 C 94.550781 105.304688 94.792969 105.199219 94.929688 104.9375 C 94.964844 104.851563 95.121094 104.25 95.207031 103.902344 L 95.585938 102.351563 L 96.15625 100.070313 "
       style=" stroke:none;fill-rule:nonzero;fill:rgb(0%,0%,100%);fill-opacity:1;" />
    <path
       id="path26"
       d="M 96.984375 108.464844 C 96.550781 108.464844 96.273438 108.808594 96.273438 109.171875 C 96.273438 109.515625 96.550781 109.878906 96.984375 109.878906 C 97.414063 109.878906 97.691406 109.535156 97.691406 109.171875 C 97.691406 108.824219 97.414063 108.464844 96.984375 108.464844 Z M 102.992188 108.464844 C 102.5625 108.464844 102.285156 108.808594 102.285156 109.171875 C 102.285156 109.515625 102.5625 109.878906 102.992188 109.878906 C 103.421875 109.878906 103.699219 109.535156 103.699219 109.171875 C 103.699219 108.824219 103.421875 108.464844 102.992188 108.464844 "
       style=" stroke:none;fill-rule:nonzero;fill:rgb(0%,0%,100%);fill-opacity:1;" />
    <path
       id="path28"
       d="M 20.933594 28.625 C 20.933594 28.226563 20.933594 28.175781 20.554688 28.175781 L 19.257813 29.417969 C 18.292969 28.589844 17.136719 28.175781 15.859375 28.175781 C 11.730469 28.175781 9.070313 30.679688 9.070313 34.308594 C 9.070313 37.863281 11.644531 40.4375 15.875 40.4375 C 18.949219 40.4375 20.933594 38.328125 20.933594 36.292969 C 20.933594 36 20.832031 35.980469 20.570313 35.980469 C 20.398438 35.980469 20.226563 35.980469 20.210938 36.171875 C 20.054688 38.796875 17.828125 39.695313 16.273438 39.695313 C 15.148438 39.695313 13.628906 39.382813 12.664063 38.296875 C 12.058594 37.640625 11.507813 36.6875 11.507813 34.308594 C 11.507813 32.613281 11.765625 31.351563 12.578125 30.386719 C 13.679688 29.089844 15.40625 28.917969 16.238281 28.917969 C 17.53125 28.917969 19.621094 29.644531 20.140625 32.683594 C 20.175781 32.839844 20.328125 32.839844 20.539063 32.839844 C 20.933594 32.839844 20.933594 32.804688 20.933594 32.390625 L 20.933594 28.625 "
       style=" stroke:none;fill-rule:nonzero;fill:rgb(0%,0%,0%);fill-opacity:1;" />
    <path
       id="path30"
       d="M 21.199219 8.027344 C 21.199219 7.871094 21.078125 7.871094 21.046875 7.871094 C 21.011719 7.871094 20.941406 7.871094 20.804688 8.046875 L 19.609375 9.496094 C 19.007813 8.460938 18.058594 7.871094 16.761719 7.871094 C 13.03125 7.871094 9.164063 11.65625 9.164063 15.714844 C 9.164063 18.597656 11.183594 20.390625 13.703125 20.390625 C 15.085938 20.390625 16.296875 19.804688 17.296875 18.960938 C 18.800781 17.699219 19.25 16.023438 19.25 15.886719 C 19.25 15.730469 19.109375 15.730469 19.058594 15.730469 C 18.902344 15.730469 18.886719 15.832031 18.851563 15.902344 C 18.058594 18.597656 15.726563 19.890625 14 19.890625 C 12.167969 19.890625 10.578125 18.71875 10.578125 16.265625 C 10.578125 15.714844 10.75 12.707031 12.703125 10.445313 C 13.652344 9.339844 15.277344 8.375 16.917969 8.375 C 18.816406 8.375 19.664063 9.945313 19.664063 11.707031 C 19.664063 12.15625 19.609375 12.535156 19.609375 12.601563 C 19.609375 12.761719 19.785156 12.761719 19.835938 12.761719 C 20.027344 12.761719 20.042969 12.742188 20.113281 12.433594 L 21.199219 8.027344 "
       style=" stroke:none;fill-rule:nonzero;fill:rgb(0%,0%,100%);fill-opacity:1;" />
    <path
       id="path32"
       d="M 11.984375 23.464844 C 11.550781 23.464844 11.273438 23.808594 11.273438 24.171875 C 11.273438 24.515625 11.550781 24.878906 11.984375 24.878906 C 12.414063 24.878906 12.691406 24.535156 12.691406 24.171875 C 12.691406 23.824219 12.414063 23.464844 11.984375 23.464844 Z M 17.992188 23.464844 C 17.5625 23.464844 17.285156 23.808594 17.285156 24.171875 C 17.285156 24.515625 17.5625 24.878906 17.992188 24.878906 C 18.421875 24.878906 18.699219 24.535156 18.699219 24.171875 C 18.699219 23.824219 18.421875 23.464844 17.992188 23.464844 "
       style=" stroke:none;fill-rule:nonzero;fill:rgb(0%,0%,100%);fill-opacity:1;" />
    <path
       id="path34"
       transform="matrix(0.1,0,0,-0.1,0,236.43)"
       d="M 1699.53125 319.76875 L 1138.984375 319.76875 "
       style="fill:none;stroke-width:15.9404;stroke-linecap:butt;stroke-linejoin:miter;stroke:rgb(0%,0%,0%);stroke-opacity:1;stroke-miterlimit:10;" />
    <path
       id="path36"
       transform="matrix(0.1,0,0,-0.1,0,236.43)"
       d="M 1138.984375 319.76875 L 1123.046875 319.76875 L 1191.757813 262.1125 "
       style="fill:none;stroke-width:15.9404;stroke-linecap:butt;stroke-linejoin:miter;stroke:rgb(0%,0%,0%);stroke-opacity:1;stroke-miterlimit:10;" />
    <path
       id="path38"
       transform="matrix(0.1,0,0,-0.1,0,236.43)"
       d="M 999.921875 428.05 L 999.921875 1020.471875 "
       style="fill:none;stroke-width:15.9404;stroke-linecap:butt;stroke-linejoin:miter;stroke:rgb(0%,0%,0%);stroke-opacity:1;stroke-miterlimit:10;" />
    <path
       id="path40"
       transform="matrix(0.1,0,0,-0.1,0,236.43)"
       d="M 999.921875 1020.471875 L 999.921875 1036.409375 L 1057.578125 967.698438 "
       style="fill:none;stroke-width:15.9404;stroke-linecap:butt;stroke-linejoin:miter;stroke:rgb(0%,0%,0%);stroke-opacity:1;stroke-miterlimit:10;" />
    <path
       id="path42"
       transform="matrix(0.1,0,0,-0.1,0,236.43)"
       d="M 149.53125 1278.440625 L 149.53125 1870.901563 "
       style="fill:none;stroke-width:15.9404;stroke-linecap:butt;stroke-linejoin:miter;stroke:rgb(0%,0%,0%);stroke-opacity:1;stroke-miterlimit:10;" />
    <path
       id="path44"
       transform="matrix(0.1,0,0,-0.1,0,236.43)"
       d="M 149.53125 1870.901563 L 149.53125 1886.839063 L 207.1875 1818.128125 "
       style="fill:none;stroke-width:15.9404;stroke-linecap:butt;stroke-linejoin:miter;stroke:rgb(0%,0%,0%);stroke-opacity:1;stroke-miterlimit:10;" />
    <path
       id="path46"
       transform="matrix(0.1,0,0,-0.1,0,236.43)"
       d="M 898.710938 319.76875 L 288.59375 319.76875 "
       style="fill:none;stroke-width:15.9404;stroke-linecap:butt;stroke-linejoin:miter;stroke:rgb(0%,0%,0%);stroke-opacity:1;stroke-miterlimit:10;" />
    <path
       id="path48"
       transform="matrix(0.1,0,0,-0.1,0,236.43)"
       d="M 288.59375 319.76875 L 272.65625 319.76875 L 341.328125 262.1125 "
       style="fill:none;stroke-width:15.9404;stroke-linecap:butt;stroke-linejoin:miter;stroke:rgb(0%,0%,0%);stroke-opacity:1;stroke-miterlimit:10;" />
    <path
       id="path50"
       transform="matrix(0.1,0,0,-0.1,0,236.43)"
       d="M 149.53125 1061.917188 L 149.53125 465.901563 "
       style="fill:none;stroke-width:15.9404;stroke-linecap:butt;stroke-linejoin:miter;stroke:rgb(0%,0%,0%);stroke-opacity:1;stroke-miterlimit:10;" />
    <path
       id="path52"
       transform="matrix(0.1,0,0,-0.1,0,236.43)"
       d="M 149.53125 465.901563 L 149.53125 449.964063 L 207.1875 518.675 "
       style="fill:none;stroke-width:15.9404;stroke-linecap:butt;stroke-linejoin:miter;stroke:rgb(0%,0%,0%);stroke-opacity:1;stroke-miterlimit:10;" />
  </g>
</svg>
