<?xml version="1.0" encoding="UTF-8" standalone="no"?>
<svg
   xmlns:dc="http://purl.org/dc/elements/1.1/"
   xmlns:cc="http://creativecommons.org/ns#"
   xmlns:rdf="http://www.w3.org/1999/02/22-rdf-syntax-ns#"
   xmlns:svg="http://www.w3.org/2000/svg"
   xmlns="http://www.w3.org/2000/svg"
   id="svg117"
   version="1.2"
   viewBox="0 0 453.07 201.59"
   height="201.59pt"
   width="453.07pt">
  <metadata
     id="metadata123">
    <rdf:RDF>
      <cc:Work
         rdf:about="">
        <dc:format>image/svg+xml</dc:format>
        <dc:type
           rdf:resource="http://purl.org/dc/dcmitype/StillImage" />
      </cc:Work>
    </rdf:RDF>
  </metadata>
  <defs
     id="defs121" />
  <g
     id="surface1">
    <path
       id="path2"
       d="M 324.761719 165.746094 L 324.761719 5.722656 L 219.476563 82.925781 L 219.476563 165.746094 "
       style=" stroke:none;fill-rule:nonzero;fill:rgb(76.171875%,90.429688%,94.726563%);fill-opacity:1;" />
    <path
       id="path4"
       transform="matrix(0.1,0,0,-0.1,0,201.59)"
       d="M 1141.875 358.439063 L 1141.875 414.610938 L 790.898438 414.610938 "
       style="fill:none;stroke-width:9.9628;stroke-linecap:butt;stroke-linejoin:miter;stroke:rgb(0%,0%,0%);stroke-opacity:1;stroke-dasharray:29.8883,29.8883;stroke-miterlimit:10;" />
    <path
       id="path6"
       transform="matrix(0.1,0,0,-0.1,0,201.59)"
       d="M 2194.765625 358.439063 L 2194.765625 1186.642188 L 790.898438 1186.642188 "
       style="fill:none;stroke-width:9.9628;stroke-linecap:butt;stroke-linejoin:miter;stroke:rgb(0%,0%,0%);stroke-opacity:1;stroke-dasharray:29.8883,29.8883;stroke-miterlimit:10;" />
    <path
       id="path8"
       transform="matrix(0.1,0,0,-0.1,0,201.59)"
       d="M 3247.617188 358.439063 L 3247.617188 1958.673438 "
       style="fill:none;stroke-width:9.9628;stroke-linecap:butt;stroke-linejoin:miter;stroke:rgb(0%,0%,0%);stroke-opacity:1;stroke-dasharray:29.8883,29.8883;stroke-miterlimit:10;" />
    <path
       id="path10"
       transform="matrix(0.1,0,0,-0.1,0,201.59)"
       d="M 1141.875 414.610938 L 2194.765625 1186.642188 "
       style="fill:none;stroke-width:9.9628;stroke-linecap:butt;stroke-linejoin:miter;stroke:rgb(0%,0%,0%);stroke-opacity:1;stroke-dasharray:29.8883,29.8883;stroke-miterlimit:10;" />
    <path
       id="path12"
       transform="matrix(0.1,0,0,-0.1,0,201.59)"
       d="M 3247.617188 1958.673438 L 2194.765625 1186.642188 "
       style="fill:none;stroke-width:14.9442;stroke-linecap:butt;stroke-linejoin:miter;stroke:rgb(0%,0%,0%);stroke-opacity:1;stroke-miterlimit:10;" />
    <path
       id="path14"
       transform="matrix(0.1,0,0,-0.1,0,201.59)"
       d="M 1089.21875 372.4625 C 1089.21875 372.4625 1135.625 409.610938 1153.4375 423.86875 C 1171.289063 438.126563 1199.84375 460.939063 1217.695313 475.157813 C 1235.507813 489.376563 1264.0625 512.15 1281.914063 526.290625 C 1299.726563 540.470313 1328.28125 563.0875 1346.132813 577.15 C 1363.945313 591.2125 1392.539063 613.7125 1410.351563 627.657813 C 1428.164063 641.642188 1456.757813 663.907813 1474.570313 677.735938 C 1492.382813 691.564063 1520.976563 713.634375 1538.789063 727.30625 C 1556.640625 740.978125 1585.195313 762.775 1603.046875 776.290625 C 1620.859375 789.80625 1649.414063 811.290625 1667.265625 824.610938 C 1685.078125 837.892188 1713.671875 859.103125 1731.484375 872.189063 C 1749.296875 885.275 1777.890625 906.05625 1795.703125 918.907813 C 1813.515625 931.759375 1842.109375 952.189063 1859.921875 964.80625 C 1877.734375 977.384375 1906.328125 997.384375 1924.140625 1009.689063 C 1941.992188 1021.99375 1970.546875 1041.525 1988.398438 1053.517188 C 2006.210938 1065.548438 2034.804688 1084.571875 2052.617188 1096.290625 C 2070.429688 1107.970313 2099.023438 1126.485938 2116.835938 1137.814063 C 2134.648438 1149.18125 2163.242188 1167.15 2181.054688 1178.165625 C 2198.867188 1189.18125 2227.460938 1206.525 2245.273438 1217.189063 C 2263.125 1227.814063 2291.679688 1244.610938 2309.492188 1254.845313 C 2327.34375 1265.11875 2355.898438 1281.2125 2373.710938 1291.05625 C 2391.5625 1300.9 2420.15625 1316.407813 2437.96875 1325.821875 C 2455.78125 1335.235938 2484.375 1350.040625 2502.1875 1359.025 C 2520 1368.009375 2548.59375 1382.071875 2566.40625 1390.626563 C 2584.21875 1399.18125 2612.8125 1412.4625 2630.625 1420.548438 C 2648.476563 1428.634375 2677.03125 1441.251563 2694.84375 1448.829688 C 2712.695313 1456.446875 2741.289063 1468.24375 2759.101563 1475.353125 C 2776.914063 1482.4625 2805.507813 1493.478125 2823.320313 1500.079688 C 2841.132813 1506.68125 2869.726563 1516.915625 2887.539063 1523.009375 C 2905.351563 1529.103125 2933.945313 1538.55625 2951.757813 1544.142188 C 2969.609375 1549.728125 2998.164063 1558.204688 3015.976563 1563.282813 C 3033.828125 1568.321875 3062.382813 1576.017188 3080.195313 1580.548438 C 3098.046875 1585.040625 3126.601563 1591.876563 3144.453125 1595.860938 C 3162.265625 1599.80625 3190.859375 1605.782813 3208.671875 1609.220313 C 3226.484375 1612.657813 3255.078125 1617.657813 3272.890625 1620.509375 C 3290.703125 1623.4 3319.296875 1627.540625 3337.109375 1629.845313 C 3354.921875 1632.189063 3383.515625 1635.470313 3401.328125 1637.228125 C 3419.140625 1638.946875 3447.734375 1641.290625 3465.585938 1642.4625 C 3483.398438 1643.634375 3511.953125 1645.040625 3529.804688 1645.665625 C 3547.617188 1646.290625 3576.210938 1646.8375 3594.023438 1646.876563 C 3611.835938 1646.915625 3640.429688 1646.485938 3658.242188 1645.978125 C 3676.054688 1645.43125 3704.648438 1644.103125 3722.460938 1643.009375 C 3740.273438 1641.915625 3768.867188 1639.728125 3786.71875 1638.048438 C 3804.53125 1636.407813 3833.085938 1633.282813 3850.9375 1631.05625 C 3868.75 1628.829688 3897.304688 1624.80625 3915.15625 1621.99375 C 3932.96875 1619.220313 3961.5625 1614.298438 3979.375 1610.939063 C 3997.1875 1607.579688 4025.78125 1601.759375 4043.59375 1597.853125 C 4061.40625 1593.985938 4090 1587.30625 4107.8125 1582.853125 C 4125.625 1578.4 4154.21875 1570.821875 4172.03125 1565.860938 C 4189.882813 1560.860938 4218.4375 1552.4625 4236.289063 1546.954688 C 4254.101563 1541.446875 4300.507813 1526.173438 4300.507813 1526.173438 "
       style="fill:none;stroke-width:17.9329;stroke-linecap:butt;stroke-linejoin:round;stroke:rgb(0%,61.131287%,50.976563%);stroke-opacity:1;stroke-miterlimit:10;" />
    <path
       id="path16"
       d="M 353.300781 49.148438 C 353.648438 49.148438 353.785156 49.148438 353.785156 48.820313 C 353.785156 48.644531 353.648438 48.644531 353.335938 48.644531 L 351.9375 48.644531 C 352.265625 46.867188 352.507813 45.640625 352.644531 45.089844 C 352.75 44.675781 353.113281 44.277344 353.5625 44.277344 C 353.921875 44.277344 354.285156 44.433594 354.460938 44.589844 C 353.785156 44.65625 353.578125 45.160156 353.578125 45.453125 C 353.578125 45.796875 353.839844 46.003906 354.164063 46.003906 C 354.511719 46.003906 355.03125 45.710938 355.03125 45.054688 C 355.03125 44.328125 354.304688 43.933594 353.542969 43.933594 C 352.800781 43.933594 352.078125 44.484375 351.730469 45.160156 C 351.421875 45.761719 351.246094 46.386719 350.851563 48.644531 L 349.691406 48.644531 C 349.363281 48.644531 349.191406 48.644531 349.191406 48.957031 C 349.191406 49.148438 349.296875 49.148438 349.640625 49.148438 L 350.746094 49.148438 C 350.4375 50.753906 349.726563 54.65625 349.328125 56.503906 C 349.035156 58.007813 348.777344 59.269531 347.914063 59.269531 C 347.863281 59.269531 347.359375 59.269531 347.050781 58.941406 C 347.929688 58.871094 347.929688 58.109375 347.929688 58.09375 C 347.929688 57.746094 347.671875 57.539063 347.34375 57.539063 C 346.996094 57.539063 346.480469 57.835938 346.480469 58.488281 C 346.480469 59.234375 347.242188 59.613281 347.914063 59.613281 C 349.675781 59.613281 350.402344 56.453125 350.589844 55.589844 C 350.902344 54.257813 351.746094 49.667969 351.835938 49.148438 L 353.300781 49.148438 "
       style=" stroke:none;fill-rule:nonzero;fill:rgb(0%,0%,0%);fill-opacity:1;" />
    <path
       id="path18"
       d="M 361.085938 60.304688 C 361.085938 60.285156 361.085938 60.253906 361.03125 60.199219 C 360.238281 59.386719 358.113281 57.175781 358.113281 51.789063 C 358.113281 46.402344 360.203125 44.210938 361.050781 43.34375 C 361.050781 43.328125 361.085938 43.292969 361.085938 43.242188 C 361.085938 43.191406 361.03125 43.15625 360.964844 43.15625 C 360.773438 43.15625 359.304688 44.433594 358.460938 46.332031 C 357.59375 48.25 357.355469 50.113281 357.355469 51.773438 C 357.355469 53.015625 357.476563 55.121094 358.511719 57.351563 C 359.339844 59.144531 360.757813 60.40625 360.964844 60.40625 C 361.050781 60.40625 361.085938 60.371094 361.085938 60.304688 "
       style=" stroke:none;fill-rule:nonzero;fill:rgb(0%,0%,0%);fill-opacity:1;" />
    <path
       id="path20"
       d="M 365.371094 49.148438 L 366.960938 49.148438 C 367.289063 49.148438 367.460938 49.148438 367.460938 48.835938 C 367.460938 48.644531 367.359375 48.644531 367.011719 48.644531 L 365.492188 48.644531 L 366.132813 46.125 C 366.199219 45.882813 366.199219 45.847656 366.199219 45.730469 C 366.199219 45.453125 365.976563 45.296875 365.753906 45.296875 C 365.613281 45.296875 365.214844 45.347656 365.078125 45.902344 L 364.40625 48.644531 L 362.78125 48.644531 C 362.4375 48.644531 362.28125 48.644531 362.28125 48.972656 C 362.28125 49.148438 362.402344 49.148438 362.730469 49.148438 L 364.265625 49.148438 L 363.128906 53.707031 C 362.988281 54.3125 362.9375 54.484375 362.9375 54.710938 C 362.9375 55.519531 363.507813 56.261719 364.472656 56.261719 C 366.21875 56.261719 367.148438 53.742188 367.148438 53.621094 C 367.148438 53.515625 367.082031 53.464844 366.976563 53.464844 C 366.941406 53.464844 366.871094 53.464844 366.839844 53.535156 C 366.820313 53.550781 366.804688 53.566406 366.683594 53.84375 C 366.320313 54.710938 365.527344 55.917969 364.523438 55.917969 C 364.007813 55.917969 363.972656 55.484375 363.972656 55.105469 C 363.972656 55.089844 363.972656 54.761719 364.023438 54.550781 L 365.371094 49.148438 "
       style=" stroke:none;fill-rule:nonzero;fill:rgb(0%,0%,0%);fill-opacity:1;" />
    <path
       id="path22"
       d="M 372.542969 51.789063 C 372.542969 50.546875 372.421875 48.441406 371.382813 46.210938 C 370.554688 44.417969 369.140625 43.15625 368.933594 43.15625 C 368.882813 43.15625 368.8125 43.171875 368.8125 43.257813 C 368.8125 43.292969 368.828125 43.308594 368.847656 43.34375 C 369.675781 44.210938 371.78125 46.402344 371.78125 51.773438 C 371.78125 57.160156 369.691406 59.355469 368.847656 60.21875 C 368.828125 60.253906 368.8125 60.269531 368.8125 60.304688 C 368.8125 60.390625 368.882813 60.40625 368.933594 60.40625 C 369.121094 60.40625 370.589844 59.128906 371.4375 57.230469 C 372.300781 55.3125 372.542969 53.449219 372.542969 51.789063 "
       style=" stroke:none;fill-rule:nonzero;fill:rgb(0%,0%,0%);fill-opacity:1;" />
    <path
       id="path24"
       d="M 272.152344 134.4375 C 272.171875 134.367188 272.203125 134.261719 272.203125 134.175781 C 272.203125 134.003906 272.03125 134.003906 271.996094 134.003906 C 271.980469 134.003906 271.132813 134.074219 271.046875 134.089844 C 270.753906 134.109375 270.496094 134.144531 270.183594 134.160156 C 269.753906 134.195313 269.632813 134.210938 269.632813 134.523438 C 269.632813 134.695313 269.769531 134.695313 270.011719 134.695313 C 270.859375 134.695313 270.875 134.851563 270.875 135.023438 C 270.875 135.128906 270.839844 135.265625 270.824219 135.316406 L 268.320313 145.316406 C 268.25 145.574219 268.25 145.609375 268.25 145.714844 C 268.25 146.09375 268.542969 146.164063 268.714844 146.164063 C 269.007813 146.164063 269.234375 145.9375 269.320313 145.746094 L 270.097656 142.621094 C 270.183594 142.242188 270.289063 141.878906 270.371094 141.5 C 270.5625 140.773438 270.5625 140.757813 270.890625 140.257813 C 271.21875 139.753906 271.996094 138.71875 273.328125 138.71875 C 274.015625 138.71875 274.257813 139.238281 274.257813 139.929688 C 274.257813 140.894531 273.585938 142.777344 273.207031 143.8125 C 273.050781 144.230469 272.964844 144.453125 272.964844 144.761719 C 272.964844 145.542969 273.5 146.164063 274.328125 146.164063 C 275.933594 146.164063 276.539063 143.625 276.539063 143.519531 C 276.539063 143.433594 276.46875 143.363281 276.367188 143.363281 C 276.210938 143.363281 276.195313 143.417969 276.109375 143.710938 C 275.710938 145.089844 275.070313 145.816406 274.378906 145.816406 C 274.207031 145.816406 273.929688 145.800781 273.929688 145.246094 C 273.929688 144.796875 274.140625 144.246094 274.207031 144.054688 C 274.519531 143.226563 275.296875 141.1875 275.296875 140.1875 C 275.296875 139.152344 274.691406 138.375 273.378906 138.375 C 272.394531 138.375 271.53125 138.839844 270.824219 139.738281 L 272.152344 134.4375 "
       style=" stroke:none;fill-rule:nonzero;fill:rgb(0%,0%,0%);fill-opacity:1;" />
    <path
       id="path26"
       transform="matrix(0.1,0,0,-0.1,0,201.59)"
       d="M 2241.09375 616.134375 L 2609.570313 616.134375 "
       style="fill:none;stroke-width:9.9628;stroke-linecap:butt;stroke-linejoin:miter;stroke:rgb(0%,0%,0%);stroke-opacity:1;stroke-miterlimit:10;" />
    <path
       id="path28"
       transform="matrix(0.1,0,0,-0.1,0,201.59)"
       d="M 2208.945313 616.134375 L 2253.398438 599.298438 L 2238.59375 616.134375 L 2253.398438 632.93125 Z M 2208.945313 616.134375 "
       style="fill-rule:nonzero;fill:rgb(0%,0%,0%);fill-opacity:1;stroke-width:9.9628;stroke-linecap:butt;stroke-linejoin:miter;stroke:rgb(0%,0%,0%);stroke-opacity:1;stroke-miterlimit:10;" />
    <path
       id="path30"
       transform="matrix(0.1,0,0,-0.1,0,201.59)"
       d="M 3201.289063 616.134375 L 2832.8125 616.134375 "
       style="fill:none;stroke-width:9.9628;stroke-linecap:butt;stroke-linejoin:miter;stroke:rgb(0%,0%,0%);stroke-opacity:1;stroke-miterlimit:10;" />
    <path
       id="path32"
       transform="matrix(0.1,0,0,-0.1,0,201.59)"
       d="M 3233.4375 616.134375 L 3188.984375 632.93125 L 3203.789063 616.134375 L 3188.984375 599.298438 Z M 3233.4375 616.134375 "
       style="fill-rule:nonzero;fill:rgb(0%,0%,0%);fill-opacity:1;stroke-width:9.9628;stroke-linecap:butt;stroke-linejoin:miter;stroke:rgb(0%,0%,0%);stroke-opacity:1;stroke-miterlimit:10;" />
    <path
       id="path34"
       transform="matrix(0.1,0,0,-0.1,0,201.59)"
       d="M 1141.875 337.15 L 1141.875 379.689063 M 2194.765625 337.15 L 2194.765625 379.689063 M 3247.617188 337.15 L 3247.617188 379.689063 "
       style="fill:none;stroke-width:1.9925;stroke-linecap:butt;stroke-linejoin:miter;stroke:rgb(50%,50%,50%);stroke-opacity:1;stroke-miterlimit:10;" />
    <path
       id="path36"
       transform="matrix(0.1,0,0,-0.1,0,201.59)"
       d="M 769.648438 414.610938 L 812.1875 414.610938 M 769.648438 1186.642188 L 812.1875 1186.642188 "
       style="fill:none;stroke-width:1.9925;stroke-linecap:butt;stroke-linejoin:miter;stroke:rgb(50%,50%,50%);stroke-opacity:1;stroke-miterlimit:10;" />
    <path
       id="path38"
       transform="matrix(0.1,0,0,-0.1,0,201.59)"
       d="M 790.898438 358.439063 L 4447.109375 358.439063 "
       style="fill:none;stroke-width:9.9628;stroke-linecap:butt;stroke-linejoin:miter;stroke:rgb(0%,0%,0%);stroke-opacity:1;stroke-miterlimit:10;" />
    <path
       id="path40"
       d="M 447.601563 165.746094 L 442.976563 163.4375 L 444.710938 165.746094 L 442.976563 168.058594 "
       style=" stroke:none;fill-rule:nonzero;fill:rgb(0%,0%,0%);fill-opacity:1;" />
    <path
       id="path42"
       transform="matrix(0.1,0,0,-0.1,0,201.59)"
       d="M 790.898438 358.439063 L 790.898438 1746.876563 "
       style="fill:none;stroke-width:9.9628;stroke-linecap:butt;stroke-linejoin:miter;stroke:rgb(0%,0%,0%);stroke-opacity:1;stroke-miterlimit:10;" />
    <path
       id="path44"
       d="M 79.089844 24.015625 L 76.78125 28.636719 L 79.089844 26.902344 L 81.402344 28.636719 "
       style=" stroke:none;fill-rule:nonzero;fill:rgb(0%,0%,0%);fill-opacity:1;" />
    <path
       id="path46"
       d="M 98.871094 177.847656 L 100.460938 177.847656 C 100.789063 177.847656 100.960938 177.847656 100.960938 177.535156 C 100.960938 177.347656 100.859375 177.347656 100.511719 177.347656 L 98.992188 177.347656 L 99.632813 174.824219 C 99.699219 174.582031 99.699219 174.550781 99.699219 174.429688 C 99.699219 174.152344 99.476563 173.996094 99.25 173.996094 C 99.113281 173.996094 98.714844 174.046875 98.578125 174.601563 L 97.90625 177.347656 L 96.28125 177.347656 C 95.9375 177.347656 95.78125 177.347656 95.78125 177.675781 C 95.78125 177.847656 95.902344 177.847656 96.230469 177.847656 L 97.765625 177.847656 L 96.625 182.40625 C 96.488281 183.011719 96.4375 183.183594 96.4375 183.410156 C 96.4375 184.21875 97.007813 184.964844 97.972656 184.964844 C 99.71875 184.964844 100.648438 182.441406 100.648438 182.320313 C 100.648438 182.214844 100.582031 182.164063 100.476563 182.164063 C 100.441406 182.164063 100.371094 182.164063 100.339844 182.234375 C 100.320313 182.25 100.304688 182.269531 100.183594 182.542969 C 99.820313 183.410156 99.027344 184.617188 98.023438 184.617188 C 97.507813 184.617188 97.472656 184.183594 97.472656 183.804688 C 97.472656 183.789063 97.472656 183.460938 97.523438 183.253906 L 98.871094 177.847656 "
       style=" stroke:none;fill-rule:nonzero;fill:rgb(0%,0%,0%);fill-opacity:1;" />
    <path
       id="path48"
       d="M 105.410156 179.300781 C 105.46875 179.171875 105.46875 179.148438 105.46875 179.089844 C 105.46875 178.957031 105.363281 178.847656 105.230469 178.847656 C 105.121094 178.847656 105.039063 178.910156 104.957031 179.125 L 102.871094 184.59375 C 102.847656 184.667969 102.8125 184.738281 102.8125 184.808594 C 102.8125 184.847656 102.8125 184.871094 102.871094 185.011719 L 104.957031 190.484375 C 105.003906 190.613281 105.0625 190.769531 105.230469 190.769531 C 105.363281 190.769531 105.46875 190.664063 105.46875 190.53125 C 105.46875 190.496094 105.46875 190.472656 105.410156 190.339844 L 103.300781 184.808594 L 105.410156 179.300781 "
       style=" stroke:none;fill-rule:nonzero;fill:rgb(0%,0%,0%);fill-opacity:1;" />
    <path
       id="path50"
       d="M 109.550781 179.816406 C 109.5625 179.769531 109.585938 179.695313 109.585938 179.636719 C 109.585938 179.515625 109.464844 179.515625 109.441406 179.515625 C 109.429688 179.515625 109.003906 179.550781 108.789063 179.578125 C 108.585938 179.589844 108.40625 179.613281 108.191406 179.625 C 107.90625 179.648438 107.820313 179.660156 107.820313 179.875 C 107.820313 179.996094 107.941406 179.996094 108.058594 179.996094 C 108.667969 179.996094 108.667969 180.101563 108.667969 180.222656 C 108.667969 180.269531 108.667969 180.292969 108.609375 180.507813 L 106.902344 187.324219 C 106.855469 187.503906 106.855469 187.527344 106.855469 187.597656 C 106.855469 187.863281 107.058594 187.910156 107.179688 187.910156 C 107.511719 187.910156 107.582031 187.644531 107.679688 187.277344 L 108.238281 185.046875 C 109.097656 185.144531 109.609375 185.5 109.609375 186.074219 C 109.609375 186.144531 109.609375 186.191406 109.574219 186.371094 C 109.527344 186.550781 109.527344 186.691406 109.527344 186.753906 C 109.527344 187.445313 109.976563 187.910156 110.589844 187.910156 C 111.132813 187.910156 111.421875 187.410156 111.515625 187.242188 C 111.765625 186.800781 111.921875 186.132813 111.921875 186.085938 C 111.921875 186.027344 111.871094 185.976563 111.804688 185.976563 C 111.695313 185.976563 111.683594 186.027344 111.636719 186.214844 C 111.46875 186.835938 111.21875 187.671875 110.609375 187.671875 C 110.371094 187.671875 110.21875 187.550781 110.21875 187.097656 C 110.21875 186.871094 110.265625 186.609375 110.3125 186.429688 C 110.359375 186.214844 110.359375 186.203125 110.359375 186.0625 C 110.359375 185.359375 109.726563 184.964844 108.632813 184.820313 C 109.0625 184.558594 109.492188 184.09375 109.65625 183.917969 C 110.335938 183.152344 110.800781 182.769531 111.351563 182.769531 C 111.621094 182.769531 111.695313 182.84375 111.777344 182.914063 C 111.339844 182.960938 111.171875 183.273438 111.171875 183.511719 C 111.171875 183.796875 111.398438 183.890625 111.5625 183.890625 C 111.886719 183.890625 112.171875 183.617188 112.171875 183.238281 C 112.171875 182.890625 111.898438 182.535156 111.359375 182.535156 C 110.707031 182.535156 110.167969 182.996094 109.324219 183.949219 C 109.203125 184.09375 108.761719 184.546875 108.320313 184.714844 L 109.550781 179.816406 "
       style=" stroke:none;fill-rule:nonzero;fill:rgb(0%,0%,0%);fill-opacity:1;" />
    <path
       id="path52"
       d="M 120.554688 185.046875 C 120.757813 185.046875 120.972656 185.046875 120.972656 184.808594 C 120.972656 184.570313 120.757813 184.570313 120.554688 184.570313 L 114.105469 184.570313 C 113.90625 184.570313 113.6875 184.570313 113.6875 184.808594 C 113.6875 185.046875 113.90625 185.046875 114.105469 185.046875 L 120.554688 185.046875 "
       style=" stroke:none;fill-rule:nonzero;fill:rgb(0%,0%,0%);fill-opacity:1;" />
    <path
       id="path54"
       d="M 127.144531 185.785156 L 126.882813 185.785156 C 126.847656 185.988281 126.753906 186.644531 126.632813 186.835938 C 126.546875 186.941406 125.867188 186.941406 125.511719 186.941406 L 123.304688 186.941406 C 123.628906 186.667969 124.355469 185.90625 124.664063 185.621094 C 126.476563 183.949219 127.144531 183.332031 127.144531 182.152344 C 127.144531 180.78125 126.0625 179.863281 124.679688 179.863281 C 123.296875 179.863281 122.484375 181.042969 122.484375 182.066406 C 122.484375 182.675781 123.007813 182.675781 123.042969 182.675781 C 123.296875 182.675781 123.605469 182.496094 123.605469 182.117188 C 123.605469 181.78125 123.378906 181.554688 123.042969 181.554688 C 122.9375 181.554688 122.914063 181.554688 122.878906 181.566406 C 123.105469 180.757813 123.746094 180.207031 124.523438 180.207031 C 125.535156 180.207031 126.15625 181.054688 126.15625 182.152344 C 126.15625 183.164063 125.570313 184.046875 124.890625 184.808594 L 122.484375 187.503906 L 122.484375 187.789063 L 126.835938 187.789063 L 127.144531 185.785156 "
       style=" stroke:none;fill-rule:nonzero;fill:rgb(0%,0%,0%);fill-opacity:1;" />
    <path
       id="path56"
       d="M 131.054688 185.011719 C 131.113281 184.871094 131.113281 184.847656 131.113281 184.808594 C 131.113281 184.773438 131.113281 184.75 131.054688 184.605469 L 128.96875 179.125 C 128.898438 178.921875 128.824219 178.847656 128.695313 178.847656 C 128.5625 178.847656 128.457031 178.957031 128.457031 179.089844 C 128.457031 179.125 128.457031 179.148438 128.515625 179.277344 L 130.625 184.808594 L 128.515625 190.316406 C 128.457031 190.449219 128.457031 190.472656 128.457031 190.53125 C 128.457031 190.664063 128.5625 190.769531 128.695313 190.769531 C 128.847656 190.769531 128.898438 190.652344 128.945313 190.53125 L 131.054688 185.011719 "
       style=" stroke:none;fill-rule:nonzero;fill:rgb(0%,0%,0%);fill-opacity:1;" />
    <path
       id="path58"
       d="M 204.171875 177.847656 L 205.757813 177.847656 C 206.089844 177.847656 206.261719 177.847656 206.261719 177.535156 C 206.261719 177.347656 206.15625 177.347656 205.8125 177.347656 L 204.292969 177.347656 L 204.929688 174.824219 C 205 174.582031 205 174.550781 205 174.429688 C 205 174.152344 204.773438 173.996094 204.550781 173.996094 C 204.414063 173.996094 204.015625 174.046875 203.878906 174.601563 L 203.203125 177.347656 L 201.582031 177.347656 C 201.234375 177.347656 201.078125 177.347656 201.078125 177.675781 C 201.078125 177.847656 201.203125 177.847656 201.53125 177.847656 L 203.066406 177.847656 L 201.925781 182.40625 C 201.789063 183.011719 201.734375 183.183594 201.734375 183.410156 C 201.734375 184.21875 202.304688 184.964844 203.273438 184.964844 C 205.015625 184.964844 205.949219 182.441406 205.949219 182.320313 C 205.949219 182.214844 205.882813 182.164063 205.777344 182.164063 C 205.742188 182.164063 205.671875 182.164063 205.640625 182.234375 C 205.621094 182.25 205.605469 182.269531 205.484375 182.542969 C 205.121094 183.410156 204.328125 184.617188 203.324219 184.617188 C 202.804688 184.617188 202.773438 184.183594 202.773438 183.804688 C 202.773438 183.789063 202.773438 183.460938 202.824219 183.253906 L 204.171875 177.847656 "
       style=" stroke:none;fill-rule:nonzero;fill:rgb(0%,0%,0%);fill-opacity:1;" />
    <path
       id="path60"
       d="M 210.710938 179.300781 C 210.769531 179.171875 210.769531 179.148438 210.769531 179.089844 C 210.769531 178.957031 210.664063 178.847656 210.53125 178.847656 C 210.421875 178.847656 210.339844 178.910156 210.257813 179.125 L 208.171875 184.59375 C 208.148438 184.667969 208.109375 184.738281 208.109375 184.808594 C 208.109375 184.847656 208.109375 184.871094 208.171875 185.011719 L 210.257813 190.484375 C 210.304688 190.613281 210.363281 190.769531 210.53125 190.769531 C 210.664063 190.769531 210.769531 190.664063 210.769531 190.53125 C 210.769531 190.496094 210.769531 190.472656 210.710938 190.339844 L 208.601563 184.808594 L 210.710938 179.300781 "
       style=" stroke:none;fill-rule:nonzero;fill:rgb(0%,0%,0%);fill-opacity:1;" />
    <path
       id="path62"
       d="M 214.75 179.816406 C 214.761719 179.769531 214.785156 179.695313 214.785156 179.636719 C 214.785156 179.515625 214.664063 179.515625 214.640625 179.515625 C 214.628906 179.515625 214.203125 179.550781 213.988281 179.578125 C 213.785156 179.589844 213.605469 179.613281 213.390625 179.625 C 213.105469 179.648438 213.023438 179.660156 213.023438 179.875 C 213.023438 179.996094 213.140625 179.996094 213.257813 179.996094 C 213.867188 179.996094 213.867188 180.101563 213.867188 180.222656 C 213.867188 180.269531 213.867188 180.292969 213.808594 180.507813 L 212.101563 187.324219 C 212.054688 187.503906 212.054688 187.527344 212.054688 187.597656 C 212.054688 187.863281 212.257813 187.910156 212.378906 187.910156 C 212.710938 187.910156 212.78125 187.644531 212.878906 187.277344 L 213.4375 185.046875 C 214.296875 185.144531 214.808594 185.5 214.808594 186.074219 C 214.808594 186.144531 214.808594 186.191406 214.773438 186.371094 C 214.726563 186.550781 214.726563 186.691406 214.726563 186.753906 C 214.726563 187.445313 215.179688 187.910156 215.789063 187.910156 C 216.335938 187.910156 216.621094 187.410156 216.71875 187.242188 C 216.96875 186.800781 217.121094 186.132813 217.121094 186.085938 C 217.121094 186.027344 217.074219 185.976563 217.003906 185.976563 C 216.894531 185.976563 216.882813 186.027344 216.835938 186.214844 C 216.667969 186.835938 216.417969 187.671875 215.8125 187.671875 C 215.570313 187.671875 215.417969 187.550781 215.417969 187.097656 C 215.417969 186.871094 215.464844 186.609375 215.511719 186.429688 C 215.5625 186.214844 215.5625 186.203125 215.5625 186.0625 C 215.5625 185.359375 214.929688 184.964844 213.832031 184.820313 C 214.261719 184.558594 214.691406 184.09375 214.855469 183.917969 C 215.535156 183.152344 216.003906 182.769531 216.550781 182.769531 C 216.824219 182.769531 216.894531 182.84375 216.976563 182.914063 C 216.539063 182.960938 216.371094 183.273438 216.371094 183.511719 C 216.371094 183.796875 216.597656 183.890625 216.765625 183.890625 C 217.085938 183.890625 217.371094 183.617188 217.371094 183.238281 C 217.371094 182.890625 217.097656 182.535156 216.5625 182.535156 C 215.90625 182.535156 215.367188 182.996094 214.523438 183.949219 C 214.40625 184.09375 213.964844 184.546875 213.523438 184.714844 L 214.75 179.816406 "
       style=" stroke:none;fill-rule:nonzero;fill:rgb(0%,0%,0%);fill-opacity:1;" />
    <path
       id="path64"
       d="M 225.757813 185.046875 C 225.957031 185.046875 226.171875 185.046875 226.171875 184.808594 C 226.171875 184.570313 225.957031 184.570313 225.757813 184.570313 L 219.304688 184.570313 C 219.105469 184.570313 218.890625 184.570313 218.890625 184.808594 C 218.890625 185.046875 219.105469 185.046875 219.304688 185.046875 L 225.757813 185.046875 "
       style=" stroke:none;fill-rule:nonzero;fill:rgb(0%,0%,0%);fill-opacity:1;" />
    <path
       id="path66"
       d="M 230.632813 180.148438 C 230.632813 179.875 230.632813 179.863281 230.394531 179.863281 C 230.109375 180.183594 229.511719 180.625 228.285156 180.625 L 228.285156 180.972656 C 228.558594 180.972656 229.15625 180.972656 229.8125 180.660156 L 229.8125 186.871094 C 229.8125 187.300781 229.773438 187.445313 228.726563 187.445313 L 228.355469 187.445313 L 228.355469 187.789063 C 228.679688 187.765625 229.835938 187.765625 230.226563 187.765625 C 230.621094 187.765625 231.765625 187.765625 232.089844 187.789063 L 232.089844 187.445313 L 231.71875 187.445313 C 230.667969 187.445313 230.632813 187.300781 230.632813 186.871094 L 230.632813 180.148438 "
       style=" stroke:none;fill-rule:nonzero;fill:rgb(0%,0%,0%);fill-opacity:1;" />
    <path
       id="path68"
       d="M 236.355469 185.011719 C 236.414063 184.871094 236.414063 184.847656 236.414063 184.808594 C 236.414063 184.773438 236.414063 184.75 236.355469 184.605469 L 234.269531 179.125 C 234.195313 178.921875 234.125 178.847656 233.992188 178.847656 C 233.863281 178.847656 233.757813 178.957031 233.757813 179.089844 C 233.757813 179.125 233.757813 179.148438 233.816406 179.277344 L 235.925781 184.808594 L 233.816406 190.316406 C 233.757813 190.449219 233.757813 190.472656 233.757813 190.53125 C 233.757813 190.664063 233.863281 190.769531 233.992188 190.769531 C 234.148438 190.769531 234.195313 190.652344 234.242188 190.53125 L 236.355469 185.011719 "
       style=" stroke:none;fill-rule:nonzero;fill:rgb(0%,0%,0%);fill-opacity:1;" />
    <path
       id="path70"
       d="M 317.070313 177.847656 L 318.660156 177.847656 C 318.988281 177.847656 319.160156 177.847656 319.160156 177.535156 C 319.160156 177.347656 319.058594 177.347656 318.714844 177.347656 L 317.191406 177.347656 L 317.832031 174.824219 C 317.898438 174.582031 317.898438 174.550781 317.898438 174.429688 C 317.898438 174.152344 317.675781 173.996094 317.453125 173.996094 C 317.3125 173.996094 316.914063 174.046875 316.777344 174.601563 L 316.105469 177.347656 L 314.480469 177.347656 C 314.136719 177.347656 313.980469 177.347656 313.980469 177.675781 C 313.980469 177.847656 314.101563 177.847656 314.429688 177.847656 L 315.964844 177.847656 L 314.828125 182.40625 C 314.6875 183.011719 314.636719 183.183594 314.636719 183.410156 C 314.636719 184.21875 315.207031 184.964844 316.171875 184.964844 C 317.917969 184.964844 318.851563 182.441406 318.851563 182.320313 C 318.851563 182.214844 318.78125 182.164063 318.675781 182.164063 C 318.640625 182.164063 318.574219 182.164063 318.539063 182.234375 C 318.523438 182.25 318.503906 182.269531 318.382813 182.542969 C 318.019531 183.410156 317.226563 184.617188 316.226563 184.617188 C 315.707031 184.617188 315.671875 184.183594 315.671875 183.804688 C 315.671875 183.789063 315.671875 183.460938 315.722656 183.253906 L 317.070313 177.847656 "
       style=" stroke:none;fill-rule:nonzero;fill:rgb(0%,0%,0%);fill-opacity:1;" />
    <path
       id="path72"
       d="M 323.609375 179.300781 C 323.667969 179.171875 323.667969 179.148438 323.667969 179.089844 C 323.667969 178.957031 323.5625 178.847656 323.429688 178.847656 C 323.324219 178.847656 323.242188 178.910156 323.15625 179.125 L 321.070313 184.59375 C 321.046875 184.667969 321.011719 184.738281 321.011719 184.808594 C 321.011719 184.847656 321.011719 184.871094 321.070313 185.011719 L 323.15625 190.484375 C 323.203125 190.613281 323.265625 190.769531 323.429688 190.769531 C 323.5625 190.769531 323.667969 190.664063 323.667969 190.53125 C 323.667969 190.496094 323.667969 190.472656 323.609375 190.339844 L 321.5 184.808594 L 323.609375 179.300781 "
       style=" stroke:none;fill-rule:nonzero;fill:rgb(0%,0%,0%);fill-opacity:1;" />
    <path
       id="path74"
       d="M 327.648438 179.816406 C 327.660156 179.769531 327.6875 179.695313 327.6875 179.636719 C 327.6875 179.515625 327.566406 179.515625 327.542969 179.515625 C 327.53125 179.515625 327.101563 179.550781 326.886719 179.578125 C 326.683594 179.589844 326.503906 179.613281 326.289063 179.625 C 326.003906 179.648438 325.921875 179.660156 325.921875 179.875 C 325.921875 179.996094 326.039063 179.996094 326.160156 179.996094 C 326.765625 179.996094 326.765625 180.101563 326.765625 180.222656 C 326.765625 180.269531 326.765625 180.292969 326.707031 180.507813 L 325.003906 187.324219 C 324.957031 187.503906 324.957031 187.527344 324.957031 187.597656 C 324.957031 187.863281 325.15625 187.910156 325.277344 187.910156 C 325.609375 187.910156 325.683594 187.644531 325.777344 187.277344 L 326.339844 185.046875 C 327.195313 185.144531 327.710938 185.5 327.710938 186.074219 C 327.710938 186.144531 327.710938 186.191406 327.671875 186.371094 C 327.628906 186.550781 327.628906 186.691406 327.628906 186.753906 C 327.628906 187.445313 328.078125 187.910156 328.6875 187.910156 C 329.234375 187.910156 329.523438 187.410156 329.617188 187.242188 C 329.867188 186.800781 330.023438 186.132813 330.023438 186.085938 C 330.023438 186.027344 329.972656 185.976563 329.902344 185.976563 C 329.796875 185.976563 329.78125 186.027344 329.734375 186.214844 C 329.570313 186.835938 329.320313 187.671875 328.710938 187.671875 C 328.472656 187.671875 328.316406 187.550781 328.316406 187.097656 C 328.316406 186.871094 328.367188 186.609375 328.414063 186.429688 C 328.460938 186.214844 328.460938 186.203125 328.460938 186.0625 C 328.460938 185.359375 327.828125 184.964844 326.730469 184.820313 C 327.160156 184.558594 327.589844 184.09375 327.757813 183.917969 C 328.4375 183.152344 328.902344 182.769531 329.449219 182.769531 C 329.722656 182.769531 329.796875 182.84375 329.878906 182.914063 C 329.4375 182.960938 329.269531 183.273438 329.269531 183.511719 C 329.269531 183.796875 329.496094 183.890625 329.664063 183.890625 C 329.984375 183.890625 330.273438 183.617188 330.273438 183.238281 C 330.273438 182.890625 329.996094 182.535156 329.460938 182.535156 C 328.804688 182.535156 328.269531 182.996094 327.421875 183.949219 C 327.304688 184.09375 326.863281 184.546875 326.421875 184.714844 L 327.648438 179.816406 "
       style=" stroke:none;fill-rule:nonzero;fill:rgb(0%,0%,0%);fill-opacity:1;" />
    <path
       id="path76"
       d="M 334.054688 185.011719 C 334.113281 184.871094 334.113281 184.847656 334.113281 184.808594 C 334.113281 184.773438 334.113281 184.75 334.054688 184.605469 L 331.96875 179.125 C 331.898438 178.921875 331.824219 178.847656 331.695313 178.847656 C 331.5625 178.847656 331.457031 178.957031 331.457031 179.089844 C 331.457031 179.125 331.457031 179.148438 331.515625 179.277344 L 333.625 184.808594 L 331.515625 190.316406 C 331.457031 190.449219 331.457031 190.472656 331.457031 190.53125 C 331.457031 190.664063 331.5625 190.769531 331.695313 190.769531 C 331.847656 190.769531 331.898438 190.652344 331.945313 190.53125 L 334.054688 185.011719 "
       style=" stroke:none;fill-rule:nonzero;fill:rgb(0%,0%,0%);fill-opacity:1;" />
    <path
       id="path78"
       d="M 18.5 156.648438 C 18.847656 156.648438 18.984375 156.648438 18.984375 156.320313 C 18.984375 156.144531 18.847656 156.144531 18.535156 156.144531 L 17.136719 156.144531 C 17.464844 154.367188 17.707031 153.140625 17.84375 152.589844 C 17.949219 152.175781 18.3125 151.777344 18.761719 151.777344 C 19.125 151.777344 19.484375 151.933594 19.660156 152.089844 C 18.984375 152.15625 18.777344 152.660156 18.777344 152.953125 C 18.777344 153.296875 19.039063 153.503906 19.367188 153.503906 C 19.710938 153.503906 20.230469 153.210938 20.230469 152.554688 C 20.230469 151.828125 19.503906 151.433594 18.742188 151.433594 C 18 151.433594 17.277344 151.984375 16.929688 152.660156 C 16.621094 153.261719 16.445313 153.886719 16.050781 156.144531 L 14.890625 156.144531 C 14.5625 156.144531 14.390625 156.144531 14.390625 156.457031 C 14.390625 156.648438 14.496094 156.648438 14.839844 156.648438 L 15.945313 156.648438 C 15.636719 158.253906 14.929688 162.15625 14.53125 164.003906 C 14.234375 165.507813 13.976563 166.769531 13.113281 166.769531 C 13.0625 166.769531 12.5625 166.769531 12.25 166.441406 C 13.132813 166.371094 13.132813 165.609375 13.132813 165.59375 C 13.132813 165.246094 12.871094 165.039063 12.542969 165.039063 C 12.199219 165.039063 11.679688 165.332031 11.679688 165.988281 C 11.679688 166.734375 12.441406 167.113281 13.113281 167.113281 C 14.875 167.113281 15.601563 163.953125 15.789063 163.089844 C 16.101563 161.757813 16.949219 157.167969 17.035156 156.648438 L 18.5 156.648438 "
       style=" stroke:none;fill-rule:nonzero;fill:rgb(0%,0%,0%);fill-opacity:1;" />
    <path
       id="path80"
       d="M 26.183594 167.804688 C 26.183594 167.785156 26.183594 167.753906 26.132813 167.699219 C 25.335938 166.886719 23.214844 164.675781 23.214844 159.289063 C 23.214844 153.902344 25.304688 151.707031 26.148438 150.84375 C 26.148438 150.828125 26.183594 150.792969 26.183594 150.742188 C 26.183594 150.691406 26.132813 150.65625 26.0625 150.65625 C 25.875 150.65625 24.40625 151.933594 23.558594 153.832031 C 22.695313 155.75 22.453125 157.613281 22.453125 159.273438 C 22.453125 160.515625 22.574219 162.621094 23.609375 164.851563 C 24.441406 166.644531 25.855469 167.90625 26.0625 167.90625 C 26.148438 167.90625 26.183594 167.871094 26.183594 167.804688 "
       style=" stroke:none;fill-rule:nonzero;fill:rgb(0%,0%,0%);fill-opacity:1;" />
    <path
       id="path82"
       d="M 30.472656 156.648438 L 32.058594 156.648438 C 32.386719 156.648438 32.5625 156.648438 32.5625 156.335938 C 32.5625 156.144531 32.457031 156.144531 32.113281 156.144531 L 30.59375 156.144531 L 31.230469 153.625 C 31.300781 153.382813 31.300781 153.347656 31.300781 153.230469 C 31.300781 152.953125 31.074219 152.796875 30.851563 152.796875 C 30.710938 152.796875 30.316406 152.847656 30.179688 153.402344 L 29.503906 156.144531 L 27.882813 156.144531 C 27.535156 156.144531 27.378906 156.144531 27.378906 156.472656 C 27.378906 156.648438 27.5 156.648438 27.828125 156.648438 L 29.367188 156.648438 L 28.226563 161.207031 C 28.085938 161.8125 28.035156 161.984375 28.035156 162.207031 C 28.035156 163.019531 28.605469 163.761719 29.574219 163.761719 C 31.316406 163.761719 32.25 161.242188 32.25 161.121094 C 32.25 161.015625 32.179688 160.964844 32.078125 160.964844 C 32.042969 160.964844 31.972656 160.964844 31.9375 161.035156 C 31.921875 161.050781 31.90625 161.066406 31.785156 161.34375 C 31.421875 162.207031 30.625 163.417969 29.625 163.417969 C 29.105469 163.417969 29.070313 162.984375 29.070313 162.605469 C 29.070313 162.589844 29.070313 162.261719 29.125 162.050781 L 30.472656 156.648438 "
       style=" stroke:none;fill-rule:nonzero;fill:rgb(0%,0%,0%);fill-opacity:1;" />
    <path
       id="path84"
       d="M 37.007813 158.101563 C 37.070313 157.972656 37.070313 157.949219 37.070313 157.886719 C 37.070313 157.757813 36.960938 157.648438 36.832031 157.648438 C 36.722656 157.648438 36.640625 157.707031 36.554688 157.925781 L 34.46875 163.394531 C 34.445313 163.464844 34.410156 163.539063 34.410156 163.609375 C 34.410156 163.644531 34.410156 163.667969 34.46875 163.8125 L 36.554688 169.285156 C 36.605469 169.414063 36.664063 169.570313 36.832031 169.570313 C 36.960938 169.570313 37.070313 169.464844 37.070313 169.332031 C 37.070313 169.296875 37.070313 169.273438 37.007813 169.140625 L 34.898438 163.609375 L 37.007813 158.101563 "
       style=" stroke:none;fill-rule:nonzero;fill:rgb(0%,0%,0%);fill-opacity:1;" />
    <path
       id="path86"
       d="M 41.148438 158.613281 C 41.160156 158.566406 41.1875 158.496094 41.1875 158.4375 C 41.1875 158.316406 41.066406 158.316406 41.042969 158.316406 C 41.03125 158.316406 40.601563 158.351563 40.386719 158.378906 C 40.183594 158.386719 40.003906 158.410156 39.789063 158.425781 C 39.503906 158.449219 39.421875 158.460938 39.421875 158.675781 C 39.421875 158.792969 39.539063 158.792969 39.660156 158.792969 C 40.265625 158.792969 40.265625 158.902344 40.265625 159.019531 C 40.265625 159.066406 40.265625 159.089844 40.207031 159.308594 L 38.503906 166.125 C 38.457031 166.304688 38.457031 166.328125 38.457031 166.398438 C 38.457031 166.660156 38.65625 166.707031 38.777344 166.707031 C 39.109375 166.707031 39.183594 166.445313 39.277344 166.078125 L 39.839844 163.847656 C 40.695313 163.941406 41.210938 164.300781 41.210938 164.871094 C 41.210938 164.945313 41.210938 164.992188 41.171875 165.171875 C 41.125 165.351563 41.125 165.492188 41.125 165.550781 C 41.125 166.246094 41.578125 166.707031 42.1875 166.707031 C 42.734375 166.707031 43.023438 166.207031 43.117188 166.042969 C 43.367188 165.601563 43.523438 164.933594 43.523438 164.886719 C 43.523438 164.824219 43.472656 164.777344 43.402344 164.777344 C 43.296875 164.777344 43.28125 164.824219 43.234375 165.015625 C 43.070313 165.636719 42.820313 166.472656 42.210938 166.472656 C 41.972656 166.472656 41.816406 166.351563 41.816406 165.898438 C 41.816406 165.671875 41.867188 165.410156 41.914063 165.230469 C 41.960938 165.015625 41.960938 165.003906 41.960938 164.863281 C 41.960938 164.160156 41.328125 163.765625 40.230469 163.621094 C 40.660156 163.359375 41.089844 162.894531 41.257813 162.714844 C 41.9375 161.953125 42.402344 161.570313 42.949219 161.570313 C 43.222656 161.570313 43.296875 161.644531 43.378906 161.714844 C 42.9375 161.761719 42.769531 162.074219 42.769531 162.308594 C 42.769531 162.597656 42.996094 162.691406 43.164063 162.691406 C 43.484375 162.691406 43.773438 162.417969 43.773438 162.035156 C 43.773438 161.691406 43.5 161.332031 42.960938 161.332031 C 42.304688 161.332031 41.769531 161.796875 40.921875 162.75 C 40.804688 162.894531 40.363281 163.347656 39.921875 163.515625 L 41.148438 158.613281 "
       style=" stroke:none;fill-rule:nonzero;fill:rgb(0%,0%,0%);fill-opacity:1;" />
    <path
       id="path88"
       d="M 52.15625 163.847656 C 52.359375 163.847656 52.574219 163.847656 52.574219 163.609375 C 52.574219 163.371094 52.359375 163.371094 52.15625 163.371094 L 45.707031 163.371094 C 45.503906 163.371094 45.289063 163.371094 45.289063 163.609375 C 45.289063 163.847656 45.503906 163.847656 45.707031 163.847656 L 52.15625 163.847656 "
       style=" stroke:none;fill-rule:nonzero;fill:rgb(0%,0%,0%);fill-opacity:1;" />
    <path
       id="path90"
       d="M 57.03125 158.949219 C 57.03125 158.675781 57.03125 158.664063 56.796875 158.664063 C 56.507813 158.984375 55.914063 159.425781 54.683594 159.425781 L 54.683594 159.769531 C 54.960938 159.769531 55.554688 159.769531 56.210938 159.460938 L 56.210938 165.671875 C 56.210938 166.101563 56.175781 166.246094 55.125 166.246094 L 54.757813 166.246094 L 54.757813 166.589844 C 55.078125 166.566406 56.234375 166.566406 56.628906 166.566406 C 57.023438 166.566406 58.164063 166.566406 58.488281 166.589844 L 58.488281 166.246094 L 58.117188 166.246094 C 57.070313 166.246094 57.03125 166.101563 57.03125 165.671875 L 57.03125 158.949219 "
       style=" stroke:none;fill-rule:nonzero;fill:rgb(0%,0%,0%);fill-opacity:1;" />
    <path
       id="path92"
       d="M 62.65625 163.8125 C 62.714844 163.667969 62.714844 163.644531 62.714844 163.609375 C 62.714844 163.574219 62.714844 163.550781 62.65625 163.40625 L 60.570313 157.925781 C 60.496094 157.722656 60.425781 157.648438 60.292969 157.648438 C 60.164063 157.648438 60.054688 157.757813 60.054688 157.886719 C 60.054688 157.925781 60.054688 157.949219 60.117188 158.078125 L 62.226563 163.609375 L 60.117188 169.117188 C 60.054688 169.246094 60.054688 169.273438 60.054688 169.332031 C 60.054688 169.464844 60.164063 169.570313 60.292969 169.570313 C 60.449219 169.570313 60.496094 169.449219 60.542969 169.332031 L 62.65625 163.8125 "
       style=" stroke:none;fill-rule:nonzero;fill:rgb(0%,0%,0%);fill-opacity:1;" />
    <path
       id="path94"
       d="M 69.140625 159.289063 C 69.140625 158.046875 69.019531 155.941406 67.984375 153.710938 C 67.15625 151.917969 65.738281 150.65625 65.53125 150.65625 C 65.480469 150.65625 65.410156 150.671875 65.410156 150.757813 C 65.410156 150.792969 65.429688 150.808594 65.445313 150.84375 C 66.273438 151.707031 68.382813 153.902344 68.382813 159.273438 C 68.382813 164.660156 66.292969 166.855469 65.445313 167.71875 C 65.429688 167.753906 65.410156 167.769531 65.410156 167.804688 C 65.410156 167.890625 65.480469 167.90625 65.53125 167.90625 C 65.722656 167.90625 67.191406 166.628906 68.035156 164.730469 C 68.898438 162.8125 69.140625 160.949219 69.140625 159.289063 "
       style=" stroke:none;fill-rule:nonzero;fill:rgb(0%,0%,0%);fill-opacity:1;" />
    <path
       id="path96"
       d="M 33.601563 79.449219 C 33.945313 79.449219 34.085938 79.449219 34.085938 79.121094 C 34.085938 78.945313 33.945313 78.945313 33.636719 78.945313 L 32.238281 78.945313 C 32.566406 77.167969 32.808594 75.941406 32.945313 75.390625 C 33.050781 74.972656 33.414063 74.578125 33.859375 74.578125 C 34.222656 74.578125 34.585938 74.734375 34.757813 74.886719 C 34.085938 74.957031 33.878906 75.460938 33.878906 75.753906 C 33.878906 76.097656 34.136719 76.304688 34.464844 76.304688 C 34.8125 76.304688 35.328125 76.011719 35.328125 75.355469 C 35.328125 74.628906 34.601563 74.230469 33.84375 74.230469 C 33.101563 74.230469 32.375 74.785156 32.03125 75.460938 C 31.71875 76.0625 31.546875 76.683594 31.148438 78.945313 L 29.992188 78.945313 C 29.664063 78.945313 29.492188 78.945313 29.492188 79.257813 C 29.492188 79.449219 29.59375 79.449219 29.941406 79.449219 L 31.046875 79.449219 C 30.734375 81.054688 30.027344 84.957031 29.628906 86.804688 C 29.335938 88.308594 29.078125 89.566406 28.214844 89.566406 C 28.164063 89.566406 27.660156 89.566406 27.351563 89.238281 C 28.230469 89.171875 28.230469 88.410156 28.230469 88.394531 C 28.230469 88.046875 27.972656 87.839844 27.644531 87.839844 C 27.296875 87.839844 26.78125 88.132813 26.78125 88.789063 C 26.78125 89.535156 27.539063 89.914063 28.214844 89.914063 C 29.976563 89.914063 30.703125 86.753906 30.890625 85.886719 C 31.203125 84.558594 32.046875 79.96875 32.132813 79.449219 L 33.601563 79.449219 "
       style=" stroke:none;fill-rule:nonzero;fill:rgb(0%,0%,0%);fill-opacity:1;" />
    <path
       id="path98"
       d="M 41.382813 90.605469 C 41.382813 90.585938 41.382813 90.550781 41.332031 90.5 C 40.539063 89.6875 38.414063 87.476563 38.414063 82.089844 C 38.414063 76.703125 40.503906 74.507813 41.351563 73.644531 C 41.351563 73.628906 41.382813 73.59375 41.382813 73.542969 C 41.382813 73.488281 41.332031 73.457031 41.265625 73.457031 C 41.074219 73.457031 39.605469 74.734375 38.757813 76.632813 C 37.894531 78.550781 37.65625 80.414063 37.65625 82.074219 C 37.65625 83.316406 37.773438 85.421875 38.8125 87.652344 C 39.640625 89.445313 41.054688 90.707031 41.265625 90.707031 C 41.351563 90.707031 41.382813 90.671875 41.382813 90.605469 "
       style=" stroke:none;fill-rule:nonzero;fill:rgb(0%,0%,0%);fill-opacity:1;" />
    <path
       id="path100"
       d="M 45.671875 79.449219 L 47.257813 79.449219 C 47.585938 79.449219 47.761719 79.449219 47.761719 79.136719 C 47.761719 78.945313 47.65625 78.945313 47.3125 78.945313 L 45.792969 78.945313 L 46.429688 76.425781 C 46.5 76.183594 46.5 76.148438 46.5 76.027344 C 46.5 75.753906 46.273438 75.597656 46.050781 75.597656 C 45.914063 75.597656 45.515625 75.648438 45.378906 76.199219 L 44.703125 78.945313 L 43.082031 78.945313 C 42.734375 78.945313 42.578125 78.945313 42.578125 79.273438 C 42.578125 79.449219 42.703125 79.449219 43.03125 79.449219 L 44.566406 79.449219 L 43.425781 84.007813 C 43.289063 84.613281 43.234375 84.785156 43.234375 85.007813 C 43.234375 85.820313 43.804688 86.5625 44.773438 86.5625 C 46.515625 86.5625 47.449219 84.042969 47.449219 83.921875 C 47.449219 83.816406 47.382813 83.765625 47.277344 83.765625 C 47.242188 83.765625 47.171875 83.765625 47.140625 83.835938 C 47.121094 83.851563 47.105469 83.867188 46.984375 84.144531 C 46.621094 85.007813 45.828125 86.21875 44.824219 86.21875 C 44.304688 86.21875 44.273438 85.785156 44.273438 85.40625 C 44.273438 85.386719 44.273438 85.058594 44.324219 84.851563 L 45.671875 79.449219 "
       style=" stroke:none;fill-rule:nonzero;fill:rgb(0%,0%,0%);fill-opacity:1;" />
    <path
       id="path102"
       d="M 52.210938 80.902344 C 52.269531 80.769531 52.269531 80.746094 52.269531 80.6875 C 52.269531 80.558594 52.164063 80.449219 52.03125 80.449219 C 51.921875 80.449219 51.839844 80.507813 51.757813 80.722656 L 49.671875 86.195313 C 49.648438 86.265625 49.609375 86.339844 49.609375 86.410156 C 49.609375 86.445313 49.609375 86.46875 49.671875 86.613281 L 51.757813 92.085938 C 51.804688 92.214844 51.863281 92.371094 52.03125 92.371094 C 52.164063 92.371094 52.269531 92.261719 52.269531 92.132813 C 52.269531 92.097656 52.269531 92.074219 52.210938 91.941406 L 50.101563 86.410156 L 52.210938 80.902344 "
       style=" stroke:none;fill-rule:nonzero;fill:rgb(0%,0%,0%);fill-opacity:1;" />
    <path
       id="path104"
       d="M 56.25 81.414063 C 56.261719 81.367188 56.285156 81.296875 56.285156 81.238281 C 56.285156 81.117188 56.164063 81.117188 56.140625 81.117188 C 56.128906 81.117188 55.703125 81.152344 55.488281 81.175781 C 55.285156 81.1875 55.105469 81.210938 54.890625 81.222656 C 54.605469 81.246094 54.523438 81.261719 54.523438 81.472656 C 54.523438 81.59375 54.640625 81.59375 54.757813 81.59375 C 55.367188 81.59375 55.367188 81.699219 55.367188 81.820313 C 55.367188 81.867188 55.367188 81.890625 55.308594 82.105469 L 53.601563 88.925781 C 53.554688 89.105469 53.554688 89.128906 53.554688 89.199219 C 53.554688 89.460938 53.757813 89.507813 53.878906 89.507813 C 54.210938 89.507813 54.28125 89.246094 54.378906 88.878906 L 54.9375 86.648438 C 55.796875 86.742188 56.308594 87.101563 56.308594 87.671875 C 56.308594 87.746094 56.308594 87.792969 56.273438 87.972656 C 56.226563 88.152344 56.226563 88.292969 56.226563 88.351563 C 56.226563 89.046875 56.679688 89.507813 57.289063 89.507813 C 57.835938 89.507813 58.121094 89.007813 58.21875 88.84375 C 58.46875 88.402344 58.621094 87.734375 58.621094 87.683594 C 58.621094 87.625 58.574219 87.578125 58.503906 87.578125 C 58.394531 87.578125 58.382813 87.625 58.335938 87.816406 C 58.167969 88.4375 57.917969 89.269531 57.3125 89.269531 C 57.070313 89.269531 56.917969 89.152344 56.917969 88.699219 C 56.917969 88.472656 56.964844 88.210938 57.011719 88.03125 C 57.0625 87.816406 57.0625 87.804688 57.0625 87.660156 C 57.0625 86.960938 56.429688 86.566406 55.332031 86.421875 C 55.761719 86.160156 56.191406 85.695313 56.355469 85.515625 C 57.035156 84.753906 57.5 84.371094 58.050781 84.371094 C 58.324219 84.371094 58.394531 84.441406 58.476563 84.515625 C 58.039063 84.5625 57.871094 84.871094 57.871094 85.109375 C 57.871094 85.394531 58.097656 85.492188 58.265625 85.492188 C 58.585938 85.492188 58.871094 85.21875 58.871094 84.835938 C 58.871094 84.488281 58.597656 84.132813 58.0625 84.132813 C 57.40625 84.132813 56.867188 84.597656 56.023438 85.550781 C 55.90625 85.695313 55.460938 86.148438 55.023438 86.316406 L 56.25 81.414063 "
       style=" stroke:none;fill-rule:nonzero;fill:rgb(0%,0%,0%);fill-opacity:1;" />
    <path
       id="path106"
       d="M 62.65625 86.613281 C 62.714844 86.46875 62.714844 86.445313 62.714844 86.410156 C 62.714844 86.375 62.714844 86.351563 62.65625 86.207031 L 60.570313 80.722656 C 60.496094 80.519531 60.425781 80.449219 60.292969 80.449219 C 60.164063 80.449219 60.054688 80.558594 60.054688 80.6875 C 60.054688 80.722656 60.054688 80.746094 60.117188 80.878906 L 62.226563 86.410156 L 60.117188 91.917969 C 60.054688 92.046875 60.054688 92.074219 60.054688 92.132813 C 60.054688 92.261719 60.164063 92.371094 60.292969 92.371094 C 60.449219 92.371094 60.496094 92.25 60.542969 92.132813 L 62.65625 86.613281 "
       style=" stroke:none;fill-rule:nonzero;fill:rgb(0%,0%,0%);fill-opacity:1;" />
    <path
       id="path108"
       d="M 69.140625 82.089844 C 69.140625 80.847656 69.019531 78.738281 67.984375 76.511719 C 67.15625 74.71875 65.738281 73.457031 65.53125 73.457031 C 65.480469 73.457031 65.410156 73.472656 65.410156 73.558594 C 65.410156 73.59375 65.429688 73.609375 65.445313 73.644531 C 66.273438 74.507813 68.382813 76.703125 68.382813 82.074219 C 68.382813 87.460938 66.292969 89.652344 65.445313 90.519531 C 65.429688 90.550781 65.410156 90.570313 65.410156 90.605469 C 65.410156 90.691406 65.480469 90.707031 65.53125 90.707031 C 65.722656 90.707031 67.191406 89.429688 68.035156 87.527344 C 68.898438 85.613281 69.140625 83.746094 69.140625 82.089844 "
       style=" stroke:none;fill-rule:nonzero;fill:rgb(0%,0%,0%);fill-opacity:1;" />
    <path
       id="path110"
       transform="matrix(0.1,0,0,-0.1,0,201.59)"
       d="M 1101.796875 374.532813 L 1181.953125 454.689063 M 1101.796875 454.689063 L 1181.953125 374.532813 "
       style="fill:none;stroke-width:17.9329;stroke-linecap:butt;stroke-linejoin:round;stroke:rgb(85.9375%,2.397156%,31.809998%);stroke-opacity:1;stroke-miterlimit:10;" />
    <path
       id="path112"
       transform="matrix(0.1,0,0,-0.1,0,201.59)"
       d="M 2154.648438 1146.564063 L 2234.84375 1226.759375 M 2154.648438 1226.759375 L 2234.84375 1146.564063 "
       style="fill:none;stroke-width:17.9329;stroke-linecap:butt;stroke-linejoin:round;stroke:rgb(85.9375%,2.397156%,31.809998%);stroke-opacity:1;stroke-miterlimit:10;" />
    <path
       id="path114"
       d="M 438.671875 152.449219 L 440.257813 152.449219 C 440.589844 152.449219 440.761719 152.449219 440.761719 152.136719 C 440.761719 151.945313 440.65625 151.945313 440.3125 151.945313 L 438.792969 151.945313 L 439.429688 149.425781 C 439.5 149.183594 439.5 149.148438 439.5 149.027344 C 439.5 148.753906 439.273438 148.597656 439.050781 148.597656 C 438.914063 148.597656 438.515625 148.648438 438.378906 149.199219 L 437.703125 151.945313 L 436.082031 151.945313 C 435.734375 151.945313 435.578125 151.945313 435.578125 152.273438 C 435.578125 152.449219 435.703125 152.449219 436.03125 152.449219 L 437.566406 152.449219 L 436.425781 157.007813 C 436.289063 157.613281 436.234375 157.785156 436.234375 158.007813 C 436.234375 158.820313 436.804688 159.5625 437.773438 159.5625 C 439.515625 159.5625 440.449219 157.042969 440.449219 156.921875 C 440.449219 156.816406 440.382813 156.765625 440.277344 156.765625 C 440.242188 156.765625 440.171875 156.765625 440.140625 156.832031 C 440.121094 156.851563 440.105469 156.867188 439.984375 157.144531 C 439.621094 158.007813 438.828125 159.214844 437.824219 159.214844 C 437.304688 159.214844 437.273438 158.785156 437.273438 158.40625 C 437.273438 158.386719 437.273438 158.058594 437.324219 157.851563 L 438.671875 152.449219 "
       style=" stroke:none;fill-rule:nonzero;fill:rgb(0%,0%,0%);fill-opacity:1;" />
  </g>
</svg>
