<?xml version="1.0" encoding="UTF-8" standalone="no"?>
<svg
   xmlns:dc="http://purl.org/dc/elements/1.1/"
   xmlns:cc="http://creativecommons.org/ns#"
   xmlns:rdf="http://www.w3.org/1999/02/22-rdf-syntax-ns#"
   xmlns:svg="http://www.w3.org/2000/svg"
   xmlns="http://www.w3.org/2000/svg"
   viewBox="0 0 583.89331 244.06667"
   height="244.06667"
   width="583.89331"
   xml:space="preserve"
   id="svg2"
   version="1.1"><metadata
     id="metadata8"><rdf:RDF><cc:Work
         rdf:about=""><dc:format>image/svg+xml</dc:format><dc:type
           rdf:resource="http://purl.org/dc/dcmitype/StillImage" /></cc:Work></rdf:RDF></metadata><defs
     id="defs6" /><g
     transform="matrix(1.3333333,0,0,-1.3333333,0,244.06667)"
     id="g10"><g
       transform="scale(0.1)"
       id="g12"><path
         id="path14"
         style="fill:#c2e7f2;fill-opacity:1;fill-rule:nonzero;stroke:none"
         d="M 1692.27,358.41 H 2745.15 V 1526.18 H 1692.27 Z" /><path
         id="path16"
         style="fill:none;stroke:#000000;stroke-width:9.9628;stroke-linecap:butt;stroke-linejoin:miter;stroke-miterlimit:10;stroke-dasharray:29.8883, 29.8883;stroke-dashoffset:0;stroke-opacity:1"
         d="M 1692.27,358.41 V 1526.18" /><path
         id="path18"
         style="fill:none;stroke:#000000;stroke-width:9.9628;stroke-linecap:butt;stroke-linejoin:miter;stroke-miterlimit:10;stroke-dasharray:29.8883, 29.8883;stroke-dashoffset:0;stroke-opacity:1"
         d="M 2745.15,358.41 V 1526.18 H 639.391" /><path
         id="path20"
         style="fill:none;stroke:#000000;stroke-width:14.9442;stroke-linecap:butt;stroke-linejoin:miter;stroke-miterlimit:10;stroke-dasharray:none;stroke-opacity:1"
         d="M 1692.27,1526.18 H 2745.15" /><path
         id="path22"
         style="fill:none;stroke:#009c82;stroke-width:17.9329;stroke-linecap:butt;stroke-linejoin:round;stroke-miterlimit:10;stroke-dasharray:none;stroke-opacity:1"
         d="m 1341.31,691.898 c 0,0 40.57,31.282 56.15,43.215 15.59,11.93 40.58,30.981 56.16,42.778 15.58,11.797 40.57,30.601 56.15,42.25 15.58,11.648 40.57,30.222 56.16,41.707 15.58,11.488 40.57,29.769 56.15,41.078 15.58,11.308 40.57,29.312 56.15,40.433 15.58,11.118 40.57,28.797 56.15,39.711 15.58,10.914 40.57,28.25 56.16,38.95 15.58,10.69 40.57,27.68 56.15,38.14 15.58,10.47 40.57,27.06 56.15,37.28 15.59,10.22 40.57,26.4 56.16,36.37 15.58,9.96 40.57,25.74 56.15,35.45 15.58,9.7 40.57,25.04 56.15,34.46 15.59,9.42 40.58,24.3 56.16,33.43 15.58,9.12 40.57,23.51 56.15,32.34 15.58,8.82 40.57,22.73 56.15,31.24 15.59,8.52 40.58,21.92 56.16,30.1 15.58,8.19 40.57,21.05 56.15,28.9 15.58,7.86 40.57,20.2 56.15,27.71 15.58,7.51 40.57,19.27 56.16,26.42 15.58,7.16 40.57,18.33 56.15,25.13 15.58,6.8 40.57,17.42 56.15,23.85 15.59,6.43 40.57,16.43 56.16,22.48 15.58,6.05 40.57,15.46 56.15,21.12 15.58,5.67 40.57,14.43 56.15,19.7 15.59,5.27 40.57,13.43 56.16,18.31 15.58,4.88 40.57,12.37 56.15,16.84 15.58,4.48 40.57,11.34 56.15,15.4 15.59,4.06 40.58,10.23 56.16,13.88 15.58,3.64 40.57,9.16 56.15,12.39 15.58,3.23 40.57,8.08 56.15,10.89 15.58,2.81 40.57,6.97 56.15,9.35 15.59,2.39 40.58,5.86 56.16,7.81 15.58,1.95 40.57,4.76 56.15,6.28 15.59,1.52 40.57,3.59 56.16,4.67 15.58,1.09 40.57,2.49 56.15,3.15 15.58,0.65 40.57,1.35 56.15,1.57 15.59,0.22 40.57,0.25 56.16,0.03 15.58,-0.22 40.57,-0.94 56.15,-1.6 15.58,-0.66 40.57,-2.06 56.15,-3.15 15.59,-1.08 40.58,-3.15 56.16,-4.67 15.58,-1.52 40.57,-4.33 56.15,-6.28 15.58,-1.95 40.57,-5.42 56.15,-7.81 15.58,-2.38 40.57,-6.54 56.15,-9.35 15.59,-2.81 40.58,-7.64 56.16,-10.87 15.58,-3.23 40.57,-8.77 56.15,-12.41 15.59,-3.65 40.57,-9.82 56.16,-13.88 15.58,-4.06 40.57,-10.92 56.15,-15.4 15.58,-4.47 40.57,-11.97 56.15,-16.84 15.59,-4.87 56.16,-18.27 56.16,-18.27" /><path
         id="path24"
         style="fill:#000000;fill-opacity:1;fill-rule:nonzero;stroke:none"
         d="m 3382.02,1524.42 c 3.45,0 4.84,0 4.84,3.28 0,1.74 -1.39,1.74 -4.5,1.74 h -13.98 c 3.28,17.78 5.7,30.04 7.07,35.56 1.05,4.16 4.68,8.13 9.16,8.13 3.62,0 7.25,-1.57 8.98,-3.11 -6.73,-0.69 -8.81,-5.71 -8.81,-8.64 0,-3.46 2.6,-5.52 5.88,-5.52 3.45,0 8.64,2.92 8.64,9.48 0,7.27 -7.27,11.24 -14.86,11.24 -7.42,0 -14.67,-5.53 -18.13,-12.27 -3.11,-6.04 -4.84,-12.26 -8.81,-34.87 h -11.58 c -3.28,0 -5,0 -5,-3.11 0,-1.91 1.03,-1.91 4.49,-1.91 h 11.06 c -3.11,-16.06 -10.19,-55.09 -14.17,-73.56 -2.94,-15.03 -5.52,-27.64 -14.16,-27.64 -0.51,0 -5.53,0 -8.64,3.28 8.81,0.7 8.81,8.3 8.81,8.47 0,3.45 -2.59,5.53 -5.87,5.53 -3.46,0 -8.63,-2.94 -8.63,-9.5 0,-7.44 7.6,-11.23 14.33,-11.23 17.61,0 24.88,31.61 26.77,40.25 3.11,13.29 11.57,59.21 12.43,64.4 h 14.68" /><path
         id="path26"
         style="fill:#000000;fill-opacity:1;fill-rule:nonzero;stroke:none"
         d="m 3458.84,1412.86 c 0,0.17 0,0.52 -0.51,1.05 -7.95,8.11 -29.19,30.22 -29.19,84.09 0,53.88 20.89,75.81 29.36,84.45 0,0.18 0.34,0.52 0.34,1.03 0,0.52 -0.51,0.86 -1.2,0.86 -1.91,0 -16.58,-12.78 -25.05,-31.76 -8.64,-19.17 -11.04,-37.83 -11.04,-54.41 0,-12.44 1.2,-33.5 11.56,-55.78 8.3,-17.95 22.45,-30.56 24.53,-30.56 0.86,0 1.2,0.34 1.2,1.03" /><path
         id="path28"
         style="fill:#000000;fill-opacity:1;fill-rule:nonzero;stroke:none"
         d="m 3501.72,1524.42 h 15.87 c 3.29,0 5.02,0 5.02,3.11 0,1.91 -1.03,1.91 -4.48,1.91 h -15.21 l 6.39,25.2 c 0.69,2.42 0.69,2.77 0.69,3.97 0,2.77 -2.25,4.33 -4.48,4.33 -1.39,0 -5.36,-0.52 -6.74,-6.05 l -6.73,-27.45 h -16.24 c -3.45,0 -5.01,0 -5.01,-3.28 0,-1.74 1.22,-1.74 4.5,-1.74 h 15.36 l -11.39,-45.59 c -1.39,-6.05 -1.91,-7.77 -1.91,-10.02 0,-8.11 5.7,-15.54 15.37,-15.54 17.44,0 26.77,25.21 26.77,26.42 0,1.04 -0.69,1.56 -1.73,1.56 -0.35,0 -1.04,0 -1.38,-0.69 -0.17,-0.17 -0.34,-0.34 -1.55,-3.11 -3.64,-8.64 -11.57,-20.72 -21.59,-20.72 -5.19,0 -5.53,4.32 -5.53,8.11 0,0.18 0,3.46 0.51,5.54 l 13.49,54.04" /><path
         id="path30"
         style="fill:#000000;fill-opacity:1;fill-rule:nonzero;stroke:none"
         d="m 3573.42,1498 c 0,12.44 -1.22,33.5 -11.58,55.78 -8.28,17.95 -22.45,30.56 -24.51,30.56 -0.52,0 -1.22,-0.17 -1.22,-1.03 0,-0.34 0.19,-0.51 0.36,-0.86 8.28,-8.64 29.34,-30.57 29.34,-84.28 0,-53.87 -20.89,-75.81 -29.34,-84.45 -0.17,-0.34 -0.36,-0.52 -0.36,-0.86 0,-0.86 0.7,-1.03 1.22,-1.03 1.89,0 16.58,12.78 25.03,31.78 8.64,19.16 11.06,37.81 11.06,54.39" /><path
         id="path32"
         style="fill:#000000;fill-opacity:1;fill-rule:nonzero;stroke:none"
         d="m 2218.53,671.531 c 0.17,0.688 0.52,1.735 0.52,2.594 0,1.719 -1.74,1.719 -2.08,1.719 -0.17,0 -8.63,-0.688 -9.5,-0.86 -2.94,-0.171 -5.52,-0.515 -8.63,-0.687 -4.32,-0.344 -5.53,-0.516 -5.53,-3.625 0,-1.734 1.38,-1.734 3.8,-1.734 8.47,0 8.64,-1.547 8.64,-3.282 0,-1.031 -0.34,-2.406 -0.52,-2.937 l -25.04,-99.985 c -0.69,-2.593 -0.69,-2.937 -0.69,-3.968 0,-3.797 2.94,-4.5 4.66,-4.5 2.93,0 5.18,2.25 6.04,4.156 l 7.77,31.25 c 0.87,3.797 1.91,7.422 2.76,11.234 1.91,7.25 1.91,7.422 5.19,12.422 3.28,5.016 11.05,15.375 24.35,15.375 6.9,0 9.32,-5.187 9.32,-12.094 0,-9.671 -6.73,-28.484 -10.53,-38.843 -1.56,-4.157 -2.42,-6.391 -2.42,-9.5 0,-7.782 5.36,-14 13.64,-14 16.06,0 22.11,25.39 22.11,26.422 0,0.875 -0.69,1.562 -1.72,1.562 -1.56,0 -1.73,-0.516 -2.59,-3.453 -3.97,-13.813 -10.36,-21.063 -17.28,-21.063 -1.72,0 -4.49,0.172 -4.49,5.688 0,4.5 2.08,10.016 2.77,11.922 3.11,8.281 10.87,28.672 10.87,38.687 0,10.36 -6.04,18.125 -19.17,18.125 -9.84,0 -18.47,-4.656 -25.55,-13.64 l 13.3,53.015" /><path
         id="path34"
         style="fill:none;stroke:#000000;stroke-width:9.9628;stroke-linecap:butt;stroke-linejoin:miter;stroke-miterlimit:10;stroke-dasharray:none;stroke-opacity:1"
         d="M 1738.61,616.109 H 2107.1" /><path
         id="path36"
         style="fill:#000000;fill-opacity:1;fill-rule:nonzero;stroke:none"
         d="m 1706.46,616.109 44.45,-16.832 -14.79,16.832 14.79,16.829 z" /><path
         id="path38"
         style="fill:none;stroke:#000000;stroke-width:9.9628;stroke-linecap:butt;stroke-linejoin:miter;stroke-miterlimit:10;stroke-dasharray:none;stroke-opacity:1"
         d="m 1706.46,616.109 44.45,-16.832 -14.79,16.832 14.79,16.829 z" /><path
         id="path40"
         style="fill:none;stroke:#000000;stroke-width:9.9628;stroke-linecap:butt;stroke-linejoin:miter;stroke-miterlimit:10;stroke-dasharray:none;stroke-opacity:1"
         d="m 2698.82,616.109 h -368.5" /><path
         id="path42"
         style="fill:#000000;fill-opacity:1;fill-rule:nonzero;stroke:none"
         d="m 2730.96,616.109 -44.44,16.829 14.79,-16.829 -14.79,-16.832 z" /><path
         id="path44"
         style="fill:none;stroke:#000000;stroke-width:9.9628;stroke-linecap:butt;stroke-linejoin:miter;stroke-miterlimit:10;stroke-dasharray:none;stroke-opacity:1"
         d="m 2730.96,616.109 -44.44,16.829 14.79,-16.829 -14.79,-16.832 z" /><path
         id="path46"
         style="fill:none;stroke:#808080;stroke-width:1.9925;stroke-linecap:butt;stroke-linejoin:miter;stroke-miterlimit:10;stroke-dasharray:none;stroke-opacity:1"
         d="m 1692.27,337.148 v 42.524 m 1052.88,-42.524 v 42.524" /><path
         id="path48"
         style="fill:none;stroke:#808080;stroke-width:1.9925;stroke-linecap:butt;stroke-linejoin:miter;stroke-miterlimit:10;stroke-dasharray:none;stroke-opacity:1"
         d="m 618.133,1526.18 h 42.515" /><path
         id="path50"
         style="fill:none;stroke:#000000;stroke-width:9.9628;stroke-linecap:butt;stroke-linejoin:miter;stroke-miterlimit:10;stroke-dasharray:none;stroke-opacity:1"
         d="M 639.391,358.41 H 4295.58" /><path
         id="path52"
         style="fill:#000000;fill-opacity:1;fill-rule:nonzero;stroke:none"
         d="m 4324.48,358.41 -46.23,23.113 17.33,-23.113 -17.33,-23.113" /><path
         id="path54"
         style="fill:none;stroke:#000000;stroke-width:9.9628;stroke-linecap:butt;stroke-linejoin:miter;stroke-miterlimit:10;stroke-dasharray:none;stroke-opacity:1"
         d="M 639.391,358.41 V 1746.86" /><path
         id="path56"
         style="fill:#000000;fill-opacity:1;fill-rule:nonzero;stroke:none"
         d="m 639.391,1775.75 -23.114,-46.23 23.114,17.34 23.113,-17.34" /><path
         id="path58"
         style="fill:#000000;fill-opacity:1;fill-rule:nonzero;stroke:none"
         d="m 1539.72,237.422 h 15.87 c 3.29,0 5.02,0 5.02,3.109 0,1.907 -1.03,1.907 -4.48,1.907 h -15.21 l 6.39,25.203 c 0.69,2.422 0.69,2.765 0.69,3.968 0,2.766 -2.25,4.329 -4.48,4.329 -1.39,0 -5.36,-0.516 -6.74,-6.047 l -6.73,-27.453 h -16.24 c -3.45,0 -5.01,0 -5.01,-3.282 0,-1.734 1.22,-1.734 4.5,-1.734 h 15.36 l -11.39,-45.594 c -1.39,-6.047 -1.91,-7.765 -1.91,-10.015 0,-8.11 5.7,-15.547 15.37,-15.547 17.44,0 26.77,25.218 26.77,26.422 0,1.046 -0.69,1.562 -1.73,1.562 -0.35,0 -1.04,0 -1.38,-0.687 -0.17,-0.172 -0.34,-0.344 -1.55,-3.11 -3.64,-8.64 -11.57,-20.719 -21.59,-20.719 -5.19,0 -5.53,4.313 -5.53,8.11 0,0.172 0,3.453 0.51,5.531 l 13.49,54.047" /><path
         id="path60"
         style="fill:#000000;fill-opacity:1;fill-rule:nonzero;stroke:none"
         d="m 1605.09,222.875 c 0.6,1.313 0.6,1.547 0.6,2.141 0,1.312 -1.06,2.39 -2.38,2.39 -1.08,0 -1.9,-0.593 -2.75,-2.75 l -20.86,-54.703 c -0.23,-0.719 -0.59,-1.437 -0.59,-2.156 0,-0.359 0,-0.594 0.59,-2.016 l 20.86,-54.718 c 0.49,-1.313 1.08,-2.86 2.75,-2.86 1.32,0 2.38,1.063 2.38,2.375 0,0.36 0,0.594 -0.6,1.906 l -21.09,55.313 21.09,55.078" /><path
         id="path62"
         style="fill:#000000;fill-opacity:1;fill-rule:nonzero;stroke:none"
         d="m 1645.5,217.75 c 0.11,0.469 0.36,1.188 0.36,1.781 0,1.203 -1.2,1.203 -1.44,1.203 -0.12,0 -4.4,-0.359 -6.54,-0.609 -2.04,-0.109 -3.83,-0.344 -5.97,-0.469 -2.86,-0.234 -3.69,-0.359 -3.69,-2.5 0,-1.203 1.19,-1.203 2.37,-1.203 6.08,0 6.08,-1.062 6.08,-2.265 0,-0.469 0,-0.704 -0.59,-2.86 l -17.05,-68.172 c -0.47,-1.797 -0.47,-2.031 -0.47,-2.75 0,-2.625 2.02,-3.093 3.22,-3.093 3.33,0 4.05,2.625 5,6.312 l 5.61,22.297 c 8.58,-0.953 13.7,-4.531 13.7,-10.25 0,-0.719 0,-1.203 -0.36,-2.984 -0.46,-1.797 -0.46,-3.219 -0.46,-3.813 0,-6.922 4.51,-11.562 10.61,-11.562 5.46,0 8.34,5 9.29,6.671 2.5,4.407 4.05,11.079 4.05,11.563 0,0.594 -0.49,1.078 -1.19,1.078 -1.08,0 -1.2,-0.484 -1.67,-2.391 -1.67,-6.203 -4.17,-14.546 -10.25,-14.546 -2.39,0 -3.94,1.203 -3.94,5.718 0,2.266 0.49,4.891 0.96,6.688 0.48,2.14 0.48,2.265 0.48,3.687 0,7.032 -6.33,10.969 -17.3,12.407 4.3,2.609 8.6,7.265 10.25,9.046 6.8,7.641 11.46,11.454 16.94,11.454 2.73,0 3.45,-0.719 4.28,-1.438 -4.4,-0.469 -6.08,-3.578 -6.08,-5.953 0,-2.859 2.27,-3.813 3.94,-3.813 3.22,0 6.08,2.735 6.08,6.547 0,3.469 -2.74,7.032 -8.11,7.032 -6.55,0 -11.92,-4.641 -20.38,-14.172 -1.18,-1.438 -5.6,-5.969 -10.01,-7.641 l 12.28,49" /><path
         id="path64"
         style="fill:#000000;fill-opacity:1;fill-rule:nonzero;stroke:none"
         d="m 1755.56,165.422 c 2.02,0 4.17,0 4.17,2.375 0,2.391 -2.15,2.391 -4.17,2.391 h -64.5 c -2.01,0 -4.17,0 -4.17,-2.391 0,-2.375 2.16,-2.375 4.17,-2.375 h 64.5" /><path
         id="path66"
         style="fill:#000000;fill-opacity:1;fill-rule:nonzero;stroke:none"
         d="m 1804.33,214.406 c 0,2.75 0,2.86 -2.38,2.86 -2.87,-3.219 -8.82,-7.625 -21.11,-7.625 v -3.453 c 2.75,0 8.71,0 15.27,3.093 v -62.109 c 0,-4.281 -0.36,-5.719 -10.84,-5.719 h -3.71 V 138 c 3.22,0.234 14.78,0.234 18.72,0.234 3.94,0 15.38,0 18.6,-0.234 v 3.453 h -3.71 c -10.48,0 -10.84,1.438 -10.84,5.719 v 67.234" /><path
         id="path68"
         style="fill:#000000;fill-opacity:1;fill-rule:nonzero;stroke:none"
         d="m 1860.55,165.781 c 0.59,1.422 0.59,1.657 0.59,2.016 0,0.359 0,0.594 -0.59,2.031 l -20.86,54.828 c -0.72,2.032 -1.44,2.75 -2.75,2.75 -1.31,0 -2.38,-1.078 -2.38,-2.39 0,-0.36 0,-0.594 0.6,-1.907 l 21.09,-55.312 -21.09,-55.063 c -0.6,-1.312 -0.6,-1.562 -0.6,-2.156 0,-1.312 1.07,-2.375 2.38,-2.375 1.54,0 2.03,1.188 2.5,2.375 l 21.11,55.203" /><path
         id="path70"
         style="fill:#000000;fill-opacity:1;fill-rule:nonzero;stroke:none"
         d="m 2667.72,237.422 h 15.87 c 3.29,0 5.02,0 5.02,3.109 0,1.907 -1.03,1.907 -4.48,1.907 h -15.21 l 6.39,25.203 c 0.69,2.422 0.69,2.765 0.69,3.968 0,2.766 -2.25,4.329 -4.48,4.329 -1.39,0 -5.36,-0.516 -6.74,-6.047 l -6.73,-27.453 h -16.24 c -3.45,0 -5.01,0 -5.01,-3.282 0,-1.734 1.22,-1.734 4.5,-1.734 h 15.36 l -11.39,-45.594 c -1.39,-6.047 -1.91,-7.765 -1.91,-10.015 0,-8.11 5.7,-15.547 15.37,-15.547 17.44,0 26.77,25.218 26.77,26.422 0,1.046 -0.69,1.562 -1.73,1.562 -0.35,0 -1.04,0 -1.38,-0.687 -0.17,-0.172 -0.34,-0.344 -1.55,-3.11 -3.64,-8.64 -11.57,-20.719 -21.59,-20.719 -5.19,0 -5.53,4.313 -5.53,8.11 0,0.172 0,3.453 0.51,5.531 l 13.49,54.047" /><path
         id="path72"
         style="fill:#000000;fill-opacity:1;fill-rule:nonzero;stroke:none"
         d="m 2733.09,222.875 c 0.6,1.313 0.6,1.547 0.6,2.141 0,1.312 -1.06,2.39 -2.38,2.39 -1.08,0 -1.9,-0.593 -2.75,-2.75 l -20.86,-54.703 c -0.23,-0.719 -0.59,-1.437 -0.59,-2.156 0,-0.359 0,-0.594 0.59,-2.016 l 20.86,-54.718 c 0.49,-1.313 1.08,-2.86 2.75,-2.86 1.32,0 2.38,1.063 2.38,2.375 0,0.36 0,0.594 -0.6,1.906 l -21.09,55.313 21.09,55.078" /><path
         id="path74"
         style="fill:#000000;fill-opacity:1;fill-rule:nonzero;stroke:none"
         d="m 2774.5,217.75 c 0.11,0.469 0.36,1.188 0.36,1.781 0,1.203 -1.2,1.203 -1.44,1.203 -0.12,0 -4.4,-0.359 -6.54,-0.609 -2.04,-0.109 -3.83,-0.344 -5.97,-0.469 -2.86,-0.234 -3.69,-0.359 -3.69,-2.5 0,-1.203 1.19,-1.203 2.37,-1.203 6.08,0 6.08,-1.062 6.08,-2.265 0,-0.469 0,-0.704 -0.59,-2.86 l -17.05,-68.172 c -0.47,-1.797 -0.47,-2.031 -0.47,-2.75 0,-2.625 2.02,-3.093 3.22,-3.093 3.33,0 4.05,2.625 5,6.312 l 5.61,22.297 c 8.58,-0.953 13.7,-4.531 13.7,-10.25 0,-0.719 0,-1.203 -0.36,-2.984 -0.46,-1.797 -0.46,-3.219 -0.46,-3.813 0,-6.922 4.51,-11.562 10.61,-11.562 5.46,0 8.34,5 9.29,6.671 2.5,4.407 4.05,11.079 4.05,11.563 0,0.594 -0.49,1.078 -1.19,1.078 -1.08,0 -1.2,-0.484 -1.67,-2.391 -1.67,-6.203 -4.17,-14.546 -10.25,-14.546 -2.39,0 -3.94,1.203 -3.94,5.718 0,2.266 0.49,4.891 0.96,6.688 0.48,2.14 0.48,2.265 0.48,3.687 0,7.032 -6.33,10.969 -17.3,12.407 4.3,2.609 8.6,7.265 10.25,9.046 6.8,7.641 11.46,11.454 16.94,11.454 2.73,0 3.45,-0.719 4.28,-1.438 -4.4,-0.469 -6.08,-3.578 -6.08,-5.953 0,-2.859 2.27,-3.813 3.94,-3.813 3.22,0 6.08,2.735 6.08,6.547 0,3.469 -2.74,7.032 -8.11,7.032 -6.55,0 -11.92,-4.641 -20.38,-14.172 -1.18,-1.438 -5.6,-5.969 -10.01,-7.641 l 12.28,49" /><path
         id="path76"
         style="fill:#000000;fill-opacity:1;fill-rule:nonzero;stroke:none"
         d="m 2838.55,165.781 c 0.59,1.422 0.59,1.657 0.59,2.016 0,0.359 0,0.594 -0.59,2.031 l -20.86,54.828 c -0.72,2.032 -1.44,2.75 -2.75,2.75 -1.31,0 -2.38,-1.078 -2.38,-2.39 0,-0.36 0,-0.594 0.6,-1.907 l 21.09,-55.312 -21.09,-55.063 c -0.6,-1.312 -0.6,-1.562 -0.6,-2.156 0,-1.312 1.07,-2.375 2.38,-2.375 1.54,0 2.03,1.188 2.5,2.375 l 21.11,55.203" /><path
         id="path78"
         style="fill:#000000;fill-opacity:1;fill-rule:nonzero;stroke:none"
         d="m 185.016,1561.42 c 3.453,0 4.843,0 4.843,3.28 0,1.74 -1.39,1.74 -4.5,1.74 h -13.984 c 3.281,17.78 5.703,30.04 7.078,35.56 1.047,4.16 4.672,8.13 9.156,8.13 3.625,0 7.25,-1.57 8.985,-3.11 -6.735,-0.69 -8.813,-5.71 -8.813,-8.64 0,-3.46 2.594,-5.52 5.875,-5.52 3.453,0 8.641,2.92 8.641,9.48 0,7.27 -7.266,11.24 -14.859,11.24 -7.422,0 -14.672,-5.53 -18.125,-12.27 -3.11,-6.04 -4.844,-12.26 -8.813,-34.87 h -11.578 c -3.281,0 -5,0 -5,-3.11 0,-1.91 1.031,-1.91 4.484,-1.91 h 11.063 c -3.11,-16.06 -10.188,-55.09 -14.172,-73.56 -2.938,-15.03 -5.516,-27.64 -14.156,-27.64 -0.516,0 -5.532,0 -8.641,3.28 8.813,0.7 8.813,8.3 8.813,8.47 0,3.45 -2.594,5.53 -5.875,5.53 -3.454,0 -8.625,-2.94 -8.625,-9.5 0,-7.44 7.593,-11.23 14.328,-11.23 17.609,0 24.875,31.61 26.765,40.25 3.11,13.29 11.578,59.21 12.438,64.4 h 14.672" /><path
         id="path80"
         style="fill:#000000;fill-opacity:1;fill-rule:nonzero;stroke:none"
         d="m 261.844,1449.86 c 0,0.17 0,0.52 -0.516,1.05 -7.953,8.11 -29.187,30.22 -29.187,84.09 0,53.88 20.89,75.81 29.359,84.45 0,0.18 0.344,0.52 0.344,1.03 0,0.52 -0.516,0.86 -1.203,0.86 -1.907,0 -16.578,-12.78 -25.047,-31.76 -8.641,-19.17 -11.047,-37.83 -11.047,-54.41 0,-12.44 1.203,-33.5 11.562,-55.78 8.297,-17.95 22.454,-30.56 24.532,-30.56 0.859,0 1.203,0.34 1.203,1.03" /><path
         id="path82"
         style="fill:#000000;fill-opacity:1;fill-rule:nonzero;stroke:none"
         d="m 304.719,1561.42 h 15.875 c 3.281,0 5.015,0 5.015,3.11 0,1.91 -1.031,1.91 -4.484,1.91 h -15.203 l 6.391,25.2 c 0.687,2.42 0.687,2.77 0.687,3.97 0,2.77 -2.25,4.33 -4.484,4.33 -1.391,0 -5.36,-0.52 -6.735,-6.05 l -6.734,-27.45 h -16.234 c -3.454,0 -5.016,0 -5.016,-3.28 0,-1.74 1.219,-1.74 4.5,-1.74 h 15.359 l -11.39,-45.59 c -1.391,-6.05 -1.907,-7.77 -1.907,-10.02 0,-8.11 5.704,-15.54 15.375,-15.54 17.438,0 26.766,25.21 26.766,26.42 0,1.04 -0.687,1.56 -1.734,1.56 -0.344,0 -1.032,0 -1.375,-0.69 -0.172,-0.17 -0.344,-0.34 -1.547,-3.11 -3.641,-8.64 -11.578,-20.72 -21.594,-20.72 -5.187,0 -5.531,4.32 -5.531,8.11 0,0.18 0,3.46 0.515,5.54 l 13.485,54.04" /><path
         id="path84"
         style="fill:#000000;fill-opacity:1;fill-rule:nonzero;stroke:none"
         d="m 370.094,1545.88 c 0.594,1.31 0.594,1.54 0.594,2.14 0,1.31 -1.063,2.39 -2.375,2.39 -1.079,0 -1.907,-0.6 -2.75,-2.75 l -20.86,-54.71 c -0.234,-0.72 -0.594,-1.43 -0.594,-2.15 0,-0.36 0,-0.6 0.594,-2.02 l 20.86,-54.72 c 0.484,-1.31 1.078,-2.86 2.75,-2.86 1.312,0 2.375,1.07 2.375,2.38 0,0.36 0,0.59 -0.594,1.9 L 349,1490.8 l 21.094,55.08" /><path
         id="path86"
         style="fill:#000000;fill-opacity:1;fill-rule:nonzero;stroke:none"
         d="m 411.5,1540.75 c 0.109,0.47 0.359,1.19 0.359,1.78 0,1.2 -1.203,1.2 -1.437,1.2 -0.125,0 -4.406,-0.35 -6.547,-0.6 -2.031,-0.11 -3.828,-0.35 -5.969,-0.47 -2.859,-0.24 -3.687,-0.36 -3.687,-2.5 0,-1.21 1.187,-1.21 2.375,-1.21 6.078,0 6.078,-1.06 6.078,-2.26 0,-0.47 0,-0.71 -0.594,-2.86 l -17.047,-68.17 c -0.468,-1.8 -0.468,-2.03 -0.468,-2.75 0,-2.63 2.015,-3.1 3.218,-3.1 3.328,0 4.047,2.63 5,6.32 l 5.61,22.29 c 8.578,-0.95 13.703,-4.53 13.703,-10.25 0,-0.72 0,-1.2 -0.36,-2.98 -0.468,-1.8 -0.468,-3.22 -0.468,-3.81 0,-6.93 4.515,-11.57 10.609,-11.57 5.469,0 8.344,5 9.297,6.67 2.5,4.41 4.047,11.08 4.047,11.57 0,0.59 -0.485,1.08 -1.188,1.08 -1.078,0 -1.203,-0.49 -1.672,-2.4 -1.671,-6.2 -4.171,-14.54 -10.25,-14.54 -2.39,0 -3.937,1.2 -3.937,5.72 0,2.26 0.484,4.89 0.953,6.68 0.484,2.14 0.484,2.27 0.484,3.69 0,7.03 -6.328,10.97 -17.296,12.41 4.296,2.61 8.593,7.26 10.25,9.04 6.796,7.65 11.453,11.46 16.937,11.46 2.734,0 3.453,-0.72 4.281,-1.44 -4.406,-0.47 -6.078,-3.58 -6.078,-5.95 0,-2.86 2.266,-3.82 3.938,-3.82 3.218,0 6.078,2.74 6.078,6.55 0,3.47 -2.735,7.03 -8.11,7.03 -6.546,0 -11.921,-4.64 -20.375,-14.17 -1.187,-1.44 -5.609,-5.97 -10.015,-7.64 l 12.281,49" /><path
         id="path88"
         style="fill:#000000;fill-opacity:1;fill-rule:nonzero;stroke:none"
         d="m 475.547,1488.78 c 0.594,1.42 0.594,1.66 0.594,2.02 0,0.36 0,0.59 -0.594,2.03 l -20.859,54.83 c -0.719,2.03 -1.438,2.75 -2.75,2.75 -1.313,0 -2.375,-1.08 -2.375,-2.39 0,-0.36 0,-0.6 0.593,-1.91 l 21.094,-55.31 -21.094,-55.07 c -0.593,-1.31 -0.593,-1.56 -0.593,-2.15 0,-1.31 1.062,-2.38 2.375,-2.38 1.546,0 2.031,1.19 2.5,2.38 l 21.109,55.2" /><path
         id="path90"
         style="fill:#000000;fill-opacity:1;fill-rule:nonzero;stroke:none"
         d="m 539.422,1535 c 0,12.44 -1.219,33.5 -11.578,55.78 -8.281,17.95 -22.453,30.56 -24.516,30.56 -0.515,0 -1.219,-0.17 -1.219,-1.03 0,-0.34 0.188,-0.51 0.36,-0.86 8.281,-8.64 29.344,-30.57 29.344,-84.28 0,-53.87 -20.891,-75.81 -29.344,-84.45 -0.172,-0.34 -0.36,-0.52 -0.36,-0.86 0,-0.86 0.704,-1.03 1.219,-1.03 1.891,0 16.578,12.78 25.031,31.78 8.641,19.16 11.063,37.81 11.063,54.39" /><path
         id="path92"
         style="fill:none;stroke:#db0651;stroke-width:17.9329;stroke-linecap:butt;stroke-linejoin:round;stroke-miterlimit:10;stroke-dasharray:none;stroke-opacity:1"
         d="m 2705.07,1486.09 80.17,80.18 m -80.17,0 80.17,-80.18" /><path
         id="path94"
         style="fill:#000000;fill-opacity:1;fill-rule:nonzero;stroke:none"
         d="m 4235.72,491.422 h 15.87 c 3.29,0 5.02,0 5.02,3.109 0,1.907 -1.03,1.907 -4.48,1.907 h -15.21 l 6.39,25.203 c 0.69,2.422 0.69,2.765 0.69,3.968 0,2.766 -2.25,4.329 -4.48,4.329 -1.39,0 -5.36,-0.516 -6.74,-6.047 l -6.73,-27.453 h -16.24 c -3.45,0 -5.01,0 -5.01,-3.282 0,-1.734 1.22,-1.734 4.5,-1.734 h 15.36 l -11.39,-45.594 c -1.39,-6.047 -1.91,-7.765 -1.91,-10.015 0,-8.11 5.7,-15.547 15.37,-15.547 17.44,0 26.77,25.218 26.77,26.422 0,1.046 -0.69,1.562 -1.73,1.562 -0.35,0 -1.04,0 -1.38,-0.687 -0.17,-0.172 -0.34,-0.344 -1.55,-3.11 -3.64,-8.64 -11.57,-20.719 -21.59,-20.719 -5.19,0 -5.53,4.313 -5.53,8.11 0,0.172 0,3.453 0.51,5.531 l 13.49,54.047" /></g></g></svg>
