<?xml version="1.0" encoding="UTF-8" standalone="no"?>
<svg
   xmlns:dc="http://purl.org/dc/elements/1.1/"
   xmlns:cc="http://creativecommons.org/ns#"
   xmlns:rdf="http://www.w3.org/1999/02/22-rdf-syntax-ns#"
   xmlns:svg="http://www.w3.org/2000/svg"
   xmlns="http://www.w3.org/2000/svg"
   viewBox="0 0 523.71997 392.26666"
   height="392.26666"
   width="523.71997"
   xml:space="preserve"
   id="svg2"
   version="1.1"><metadata
     id="metadata8"><rdf:RDF><cc:Work
         rdf:about=""><dc:format>image/svg+xml</dc:format><dc:type
           rdf:resource="http://purl.org/dc/dcmitype/StillImage" /></cc:Work></rdf:RDF></metadata><defs
     id="defs6" /><g
     transform="matrix(1.3333333,0,0,-1.3333333,0,392.26667)"
     id="g10"><g
       transform="scale(0.1)"
       id="g12"><path
         id="path14"
         style="fill:#bfbfbf;fill-opacity:1;fill-rule:nonzero;stroke:none"
         d="M 877.691,494.246 681.293,607.625 484.918,494.25 484.91,267.473 681.309,154.094 877.684,267.469" /><path
         id="path16"
         style="fill:none;stroke:#000000;stroke-width:3.985;stroke-linecap:butt;stroke-linejoin:round;stroke-miterlimit:10;stroke-dasharray:none;stroke-opacity:1"
         d="M 877.691,494.246 681.293,607.625 484.918,494.25 484.91,267.473 681.309,154.094 877.684,267.469 Z" /><path
         id="path18"
         style="fill:none;stroke:#000000;stroke-width:3.985;stroke-linecap:butt;stroke-linejoin:round;stroke-miterlimit:10;stroke-dasharray:none;stroke-opacity:1"
         d="m 834.551,519.148 -110.117,63.575 c -23.829,13.754 -62.457,13.754 -86.282,-0.004 L 528.059,519.156 C 504.23,505.402 484.918,471.949 484.918,444.438 L 484.91,317.289 c 0,-27.512 19.317,-60.965 43.141,-74.719 l 110.117,-63.574 c 23.824,-13.754 62.453,-13.754 86.277,0.004 l 110.098,63.563 c 23.824,13.757 43.141,47.207 43.141,74.718 l 0.004,127.153 c 0.003,27.511 -19.313,60.961 -43.137,74.714 z" /><path
         id="path20"
         style="fill:#808080;fill-opacity:1;fill-rule:evenodd;stroke:none"
         d="M 435.816,465.902 681.293,607.625 877.691,494.246 877.684,267.469 632.207,125.746 c 26.523,-45.9413 141.731,-18.703 338.106,94.676 49.097,28.348 20.761,77.433 86.847,189.726 l 1468.27,847.712 c 141.88,-66.17 310.53,-4.78 376.69,137.1 66.16,141.87 4.77,310.52 -137.1,376.68 -91.77,42.79 -199.43,33.37 -282.38,-24.71 -68.62,-48.05 -112.48,-124.02 -119.79,-207.48 L 894.594,691.719 C 764.305,690.637 735.965,739.723 686.863,711.371 490.488,597.996 409.293,511.84 435.816,465.902 Z m 2353.174,1192.578 -30.37,52.63 h -60.77 l -52.63,30.39 -52.61,-30.4 -60.77,0.02 -30.36,-52.63 -52.63,-30.37 v -60.77 l -30.39,-52.62 30.4,-52.62 -0.02,-60.76 52.63,-30.37 30.37,-52.63 60.77,0.01 52.63,-30.4 52.61,30.4 60.77,-0.02 30.36,52.64 52.63,30.36 v 60.77 l 30.39,52.63 -30.4,52.62 0.02,60.76" /><path
         id="path22"
         style="fill:none;stroke:#000000;stroke-width:3.985;stroke-linecap:butt;stroke-linejoin:round;stroke-miterlimit:10;stroke-dasharray:none;stroke-opacity:1"
         d="M 435.816,465.902 681.293,607.625 877.691,494.246 877.684,267.469 632.207,125.746 c 26.523,-45.9413 141.731,-18.703 338.106,94.676 49.097,28.348 20.761,77.433 86.847,189.726 l 1468.27,847.712 c 141.88,-66.17 310.53,-4.78 376.69,137.1 66.16,141.87 4.77,310.52 -137.1,376.68 -91.77,42.79 -199.43,33.37 -282.38,-24.71 -68.62,-48.05 -112.48,-124.02 -119.79,-207.48 L 894.594,691.719 C 764.305,690.637 735.965,739.723 686.863,711.371 490.488,597.996 409.293,511.84 435.816,465.902 Z m 2353.174,1192.578 -30.37,52.63 h -60.77 l -52.63,30.39 -52.61,-30.4 -60.77,0.02 -30.36,-52.63 -52.63,-30.37 v -60.77 l -30.39,-52.62 30.4,-52.62 -0.02,-60.76 52.63,-30.37 30.37,-52.63 60.77,0.01 52.63,-30.4 52.61,30.4 60.77,-0.02 30.36,52.64 52.63,30.36 v 60.77 l 30.39,52.63 -30.4,52.62 0.02,60.76 z" /><path
         id="path24"
         style="fill:#808080;fill-opacity:1;fill-rule:nonzero;stroke:none"
         d="m 1225.12,799.559 c -43.38,-25.043 -58.24,-80.512 -33.19,-123.891 25.04,-43.379 80.51,-58.238 123.89,-33.195 l 785.59,453.557 c 43.38,25.05 58.24,80.51 33.19,123.89 -25.04,43.38 -80.51,58.24 -123.89,33.2" /><path
         id="path26"
         style="fill:none;stroke:#000000;stroke-width:3.985;stroke-linecap:butt;stroke-linejoin:miter;stroke-miterlimit:10;stroke-dasharray:none;stroke-opacity:1"
         d="m 1225.12,799.559 c -43.38,-25.043 -58.24,-80.512 -33.19,-123.891 25.04,-43.379 80.51,-58.238 123.89,-33.195 l 785.59,453.557 c 43.38,25.05 58.24,80.51 33.19,123.89 -25.04,43.38 -80.51,58.24 -123.89,33.2 z" /><path
         id="path28"
         style="fill:#808080;fill-opacity:1;fill-rule:nonzero;stroke:none"
         d="m 1132.98,641.637 c -25.05,43.379 -80.51,58.242 -123.89,33.195 -43.379,-25.043 -58.242,-80.512 -33.199,-123.891 25.049,-43.378 80.509,-58.242 123.889,-33.195 43.38,25.043 58.24,80.512 33.2,123.891 z" /><path
         id="path30"
         style="fill:none;stroke:#000000;stroke-width:3.985;stroke-linecap:butt;stroke-linejoin:miter;stroke-miterlimit:10;stroke-dasharray:none;stroke-opacity:1"
         d="m 1132.98,641.637 c -25.05,43.379 -80.51,58.242 -123.89,33.195 -43.379,-25.043 -58.242,-80.512 -33.199,-123.891 25.049,-43.378 80.509,-58.242 123.889,-33.195 43.38,25.043 58.24,80.512 33.2,123.891 z" /><path
         id="path32"
         style="fill:#808080;fill-opacity:1;fill-rule:nonzero;stroke:none"
         d="m 2350.64,1344.65 c -25.05,43.38 -80.51,58.24 -123.89,33.2 -43.38,-25.05 -58.25,-80.51 -33.2,-123.89 25.04,-43.38 80.51,-58.25 123.89,-33.2 43.38,25.04 58.24,80.51 33.2,123.89 z" /><path
         id="path34"
         style="fill:none;stroke:#000000;stroke-width:3.985;stroke-linecap:butt;stroke-linejoin:miter;stroke-miterlimit:10;stroke-dasharray:none;stroke-opacity:1"
         d="m 2350.64,1344.65 c -25.05,43.38 -80.51,58.24 -123.89,33.2 -43.38,-25.05 -58.25,-80.51 -33.2,-123.89 25.04,-43.38 80.51,-58.25 123.89,-33.2 43.38,25.04 58.24,80.51 33.2,123.89 z" /><path
         id="path36"
         style="fill:#606060;fill-opacity:1;fill-rule:nonzero;stroke:none"
         d="m 1319.89,713.656 -4.08,5.828 c -1.45,-3.125 -2.81,-6.187 -5.18,-8.75 -2.27,-2.515 -5.1,-4.265 -7.99,-5.921 -5.5,-3.172 -12.28,-2.875 -18.08,-0.329 -7.12,2.969 -12.65,8.438 -16.4,14.922 -3.78,6.594 -5.78,14.203 -4.74,21.782 0.75,6.203 3.85,12.296 9.35,15.468 2.62,1.5 5.29,2.688 8.2,3.282 2.94,0.734 5.97,0.671 9,0.625 l -2.89,7.937 c -3.11,-0.453 -6.19,-1.156 -9.2,-2.187 -2.94,-0.954 -5.74,-2.329 -8.44,-3.875 -7.39,-4.266 -12.17,-11.829 -13.77,-20.329 -1.73,-9.281 0.28,-18.812 5,-27.015 4.69,-8.11 11.92,-14.641 20.83,-17.797 8.14,-2.859 17.08,-2.516 24.47,1.75 2.98,1.703 5.89,3.516 8.31,5.984 2.36,2.563 4.02,5.547 5.61,8.625" /><path
         id="path38"
         style="fill:#606060;fill-opacity:1;fill-rule:nonzero;stroke:none"
         d="m 1378.75,741.828 -36.06,62.578 -7.56,-4.375 15.75,-27.328 -28.68,-16.515 -15.75,27.328 -7.57,-4.36 36.06,-62.578 7.58,4.36 -17.14,29.75 28.67,16.515 17.14,-29.75 7.56,4.375" /><path
         id="path40"
         style="fill:#606060;fill-opacity:1;fill-rule:nonzero;stroke:none"
         d="m 1438.2,777.078 -33.61,19.781 0.13,0.204 c 11.25,12.984 5.73,22.765 4.75,24.484 -4.94,8.562 -18.33,11.781 -31.31,4.297 l -20.19,-11.641 36.06,-62.578 7.39,4.266 -16.47,28.578 13.25,7.64 32.44,-19.39 z m -35.86,40.36 c 2.8,-4.875 3.14,-13.813 -8.75,-20.672 l -11.81,-6.797 -13.51,23.453 11.81,6.797 c 11.45,6.609 19.25,2.437 22.26,-2.781" /><path
         id="path42"
         style="fill:#606060;fill-opacity:1;fill-rule:nonzero;stroke:none"
         d="m 1480.72,842.453 c -10.8,18.75 -31.25,25.703 -45.41,17.547 -14.15,-8.156 -18.36,-29.437 -7.61,-48.094 10.86,-18.843 31.35,-25.422 45.33,-17.359 13.97,8.047 18.55,29.062 7.69,47.906 z m -8.24,-3.187 c 9.88,-17.141 7.11,-33.391 -2.71,-39.047 -9.93,-5.719 -25.33,0.172 -35.16,17.219 -9.56,16.593 -5.41,31.484 3.97,36.89 9.37,5.391 24.34,1.531 33.9,-15.062" /><path
         id="path44"
         style="fill:#606060;fill-opacity:1;fill-rule:nonzero;stroke:none"
         d="m 1568.73,851.875 -36.06,62.578 -10.47,-6.015 6.43,-34.891 2.98,-15.188 c 0.62,-2.765 2.41,-11.484 3.53,-14.671 l -0.09,-0.047 c -1.32,1.64 -2.96,3.218 -7.03,7 l -7.24,6.515 -35.17,30.172 -10.56,-6.078 36.06,-62.578 7.03,4.062 -31.86,55.266 0.1,0.047 c 0,0 3.15,-3.578 17.75,-16.188 l 31.5,-27.14 6.67,3.844 -6.67,36.406 -2.85,14.078 c -0.67,3.234 -2.25,11.203 -3.22,14.125 l 0.1,0.062 31.95,-55.453 7.12,4.094" /><path
         id="path46"
         style="fill:#606060;fill-opacity:1;fill-rule:nonzero;stroke:none"
         d="m 1622.98,883.078 -3.57,6.219 -19.35,-11.266 -12.03,-7.047 -13.61,23.625 27.94,16.11 -3.17,5.5 -27.94,-16.11 -12.36,21.454 11.63,6.703 c 1.07,0.625 2.2,1.156 3.29,1.781 l 15.42,8.875 -3.37,5.859 -37.88,-21.812 35.96,-62.391 39.04,22.5" /><path
         id="path48"
         style="fill:#606060;fill-opacity:1;fill-rule:nonzero;stroke:none"
         d="m 1639.77,915.281 -3,5.235 -22.54,-13 3,-5.235 22.54,13" /><path
         id="path50"
         style="fill:#606060;fill-opacity:1;fill-rule:nonzero;stroke:none"
         d="M 1673.03,995.328 1666,991.266 1675.33,939 c 0.3,-1.516 2.28,-11.437 3.39,-14.609 l -0.09,-0.063 c -2.69,3.016 -10.21,9.36 -14.29,12.906 l -27.34,23.282 -9.95,8.312 -7.94,-4.578 59.06,-49.328 7.92,4.578 -13.06,75.828" /><path
         id="path52"
         style="fill:#606060;fill-opacity:1;fill-rule:nonzero;stroke:none"
         d="m 1756.92,960.078 -57.97,49.952 -7.76,-4.47 14.15,-75.216 6.86,3.953 -4.18,21.859 24.15,13.922 16.91,-14.531 z m -29.37,14.063 -20.74,-11.953 c -2.95,15.125 -6.58,33.921 -8.28,38.362 l 0.1,0.04 c 2.76,-3.34 7.67,-7.699 11.87,-11.434 l 17.05,-15.015" /><path
         id="path54"
         style="fill:#606060;fill-opacity:1;fill-rule:nonzero;stroke:none"
         d="m 1810.75,991.828 -36.06,62.582 -7.03,-4.07 32.06,-55.637 -0.03,-0.125 -10.72,7.752 -43.47,30.81 -3.53,2.41 -11.09,-6.39 36.06,-62.582 7.03,4.047 -32.06,55.645 0.04,0.12 10.72,-7.75 43.46,-30.796 3.54,-2.406 11.08,6.39" /><path
         id="path56"
         style="fill:#606060;fill-opacity:1;fill-rule:nonzero;stroke:none"
         d="m 1871.92,1027.08 -57.97,49.95 -7.76,-4.47 14.15,-75.216 6.86,3.956 -4.18,21.86 24.15,13.92 16.91,-14.53 z m -29.37,14.06 -20.74,-11.95 c -2.95,15.12 -6.58,33.92 -8.28,38.36 l 0.1,0.04 c 2.76,-3.34 7.67,-7.7 11.87,-11.43 l 17.05,-15.02" /><path
         id="path58"
         style="fill:#606060;fill-opacity:1;fill-rule:nonzero;stroke:none"
         d="m 1912.64,1091.22 c -10.03,17.41 -29.7,25.28 -44.5,16.76 l -22.17,-12.78 36.06,-62.57 22.17,12.78 c 14.8,8.51 18.16,28.95 8.44,45.81 z m -7.39,-4.25 c 8.67,-15.06 6.23,-30.64 -5.94,-37.66 l -12.79,-7.37 -30.25,52.48 12.79,7.38 c 12.1,6.95 27.14,0.86 36.19,-14.83" /><path
         id="path60"
         style="fill:#606060;fill-opacity:1;fill-rule:nonzero;stroke:none"
         d="m 1950.42,1071.89 -36.06,62.58 -7.58,-4.38 36.06,-62.57 7.58,4.37" /><path
         id="path62"
         style="fill:#606060;fill-opacity:1;fill-rule:nonzero;stroke:none"
         d="m 1995.94,1126.86 -23.96,41.56 -6.85,-3.95 24,-41.66 c 6.92,-12 2.68,-21.51 -3.99,-25.37 -6.86,-3.94 -16.92,-2.3 -23.62,9.33 l -24.07,41.75 -7.57,-4.36 23.95,-41.57 c 7.48,-12.98 22.94,-16.68 34.12,-10.25 11.19,6.44 15.47,21.54 7.99,34.52" /><path
         id="path64"
         style="fill:#606060;fill-opacity:1;fill-rule:nonzero;stroke:none"
         d="m 2081.73,1147.88 -36.06,62.57 -10.47,-6.01 6.43,-34.89 2.98,-15.19 c 0.62,-2.77 2.41,-11.48 3.53,-14.67 l -0.09,-0.05 c -1.32,1.64 -2.96,3.22 -7.03,7 l -7.24,6.52 -35.17,30.17 -10.56,-6.08 36.06,-62.58 7.03,4.06 -31.86,55.27 0.1,0.05 c 0,0 3.15,-3.58 17.75,-16.19 l 31.5,-27.14 6.67,3.84 -6.67,36.41 -2.85,14.08 c -0.67,3.23 -2.25,11.2 -3.22,14.12 l 0.1,0.06 31.95,-55.45 7.12,4.1" /><path
         id="path66"
         style="fill:#606060;fill-opacity:1;fill-rule:nonzero;stroke:none"
         d="m 1087.11,607.25 -5.14,-3.016 6.14,-10.64 -54.42,-31.906 0.98,-1.719 c 7.75,-1.953 11.75,-7.219 15.25,-12.875 l 5.14,3.015 c -1.59,2.547 -4.22,6.688 -8.51,9.844 l 45.56,26.703 6.12,-10.64 5.15,3.015 -16.27,28.219" /><path
         id="path68"
         style="fill:#606060;fill-opacity:1;fill-rule:nonzero;stroke:none"
         d="m 1031.97,634.359 c -25.72,-15.062 -23.38,-28.781 -19.89,-34.828 3.47,-6.031 8.36,-8.343 14.53,-9.187 7.17,-1.11 11.92,0.719 16.98,3.672 6.02,3.531 9.13,6.797 11.93,11.812 3.53,6.656 2.86,10.485 0.82,14 -3.06,5.328 -8.7,9.125 -15.21,10.141 12.34,6.39 24.2,5.984 28.76,-1.953 1.88,-3.25 2.41,-6.438 1.52,-10.453 l 6.31,-0.047 c 0.67,3.781 0.84,8.218 -2.33,13.718 -6.28,10.907 -24.19,14.407 -43.42,3.125 z m -2.44,-11.437 c 7.45,4.375 15.8,3.469 19.42,-2.844 2.39,-4.14 1.52,-7.547 -0.29,-10.781 -2.32,-4.016 -5.61,-6.078 -9.16,-8.156 -3.47,-2.032 -7.28,-4.266 -12.55,-3.969 -3.82,0.281 -7.14,1.484 -9.47,5.531 -4.78,8.297 6.41,16.672 9.97,18.891 0.58,0.453 1.74,1.125 2.08,1.328" /><path
         id="path70"
         style="fill:#606060;fill-opacity:1;fill-rule:nonzero;stroke:none"
         d="m 2238.89,1288.36 5.24,3.02 -6.15,10.46 55.36,31.91 -0.98,1.69 c -7.84,1.87 -11.84,7.03 -15.36,12.59 l -5.23,-3.01 c 1.61,-2.5 4.23,-6.58 8.56,-9.64 l -46.35,-26.71 -6.12,10.46 -5.23,-3.02 16.26,-27.75" /><path
         id="path72"
         style="fill:#606060;fill-opacity:1;fill-rule:nonzero;stroke:none"
         d="m 2295.55,1261.3 c 26.15,15.06 23.89,28.59 20.4,34.53 -3.47,5.94 -8.4,8.19 -14.65,8.97 -7.27,1.03 -12.08,-0.8 -17.22,-3.75 -6.14,-3.53 -9.3,-6.78 -12.17,-11.75 -3.63,-6.61 -2.99,-10.38 -0.96,-13.85 3.07,-5.22 8.75,-8.93 15.35,-9.89 -12.55,-6.39 -24.57,-6.08 -29.13,1.72 -1.87,3.19 -2.37,6.35 -1.45,10.3 h -6.39 c -0.72,-3.74 -0.91,-8.11 2.26,-13.52 6.29,-10.72 24.39,-14.04 43.96,-2.76 z m 2.54,11.29 c -7.57,-4.37 -16.03,-3.53 -19.65,2.68 -2.39,4.07 -1.47,7.45 0.39,10.65 2.37,3.99 5.73,6.05 9.34,8.13 3.52,2.03 7.39,4.26 12.74,4.01 3.87,-0.25 7.22,-1.42 9.54,-5.4 4.78,-8.16 -6.61,-16.5 -10.25,-18.72 -0.57,-0.47 -1.75,-1.14 -2.11,-1.35" /><path
         id="path74"
         style="fill:none;stroke:#808080;stroke-width:1.9925;stroke-linecap:butt;stroke-linejoin:miter;stroke-miterlimit:10;stroke-dasharray:none;stroke-opacity:1"
         d="M 681.301,380.859 0.988281,1559.21" /><path
         id="path76"
         style="fill:none;stroke:#808080;stroke-width:1.9925;stroke-linecap:butt;stroke-linejoin:miter;stroke-miterlimit:10;stroke-dasharray:none;stroke-opacity:1"
         d="M 2645.23,1514.73 1964.92,2693.09" /><path
         id="path78"
         style="fill:none;stroke:#000000;stroke-width:9.9628;stroke-linecap:round;stroke-linejoin:miter;stroke-miterlimit:10;stroke-dasharray:none;stroke-opacity:1"
         d="M 97.793,1484.18 1981.47,2571.71" /><path
         id="path80"
         style="fill:#000000;fill-opacity:1;fill-rule:nonzero;stroke:none"
         d="m 69.9531,1468.11 46.9059,7.64 -21.2223,7.18 4.3903,21.97 z" /><path
         id="path82"
         style="fill:none;stroke:#000000;stroke-width:9.96257;stroke-linecap:round;stroke-linejoin:miter;stroke-miterlimit:10;stroke-dasharray:none;stroke-opacity:1"
         d="m 69.9531,1468.11 46.9059,7.64 -21.2223,7.18 4.3903,21.97 z" /><path
         id="path84"
         style="fill:#000000;fill-opacity:1;fill-rule:nonzero;stroke:none"
         d="m 2009.31,2587.79 -46.91,-7.65 21.23,-7.18 -4.4,-21.97 z" /><path
         id="path86"
         style="fill:none;stroke:#000000;stroke-width:9.96257;stroke-linecap:round;stroke-linejoin:miter;stroke-miterlimit:10;stroke-dasharray:none;stroke-opacity:1"
         d="m 2009.31,2587.79 -46.91,-7.65 21.23,-7.18 -4.4,-21.97 z" /><path
         id="path88"
         style="fill:#000000;fill-opacity:1;fill-rule:nonzero;stroke:none"
         d="m 621.531,2164.44 c 0,10.53 -0.172,28.48 -7.422,42.31 -6.39,12.08 -16.578,16.41 -25.562,16.41 -8.297,0 -18.828,-3.82 -25.391,-16.24 -6.906,-12.95 -7.593,-29.01 -7.593,-42.48 0,-9.85 0.171,-24.88 5.531,-38 7.422,-17.78 20.719,-20.21 27.453,-20.21 7.937,0 20.031,3.29 27.109,19.69 5.188,11.92 5.875,25.91 5.875,38.52 z M 588.547,2109 c -11.047,0 -17.609,9.5 -20.031,22.63 -1.907,10.18 -1.907,25.03 -1.907,34.7 0,13.3 0,24.36 2.25,34.89 3.282,14.67 12.954,19.17 19.688,19.17 7.078,0 16.234,-4.67 19.516,-18.83 2.25,-9.84 2.421,-21.4 2.421,-35.23 0,-11.22 0,-25.03 -2.078,-35.22 -3.625,-18.83 -13.812,-22.11 -19.859,-22.11" /><path
         id="path90"
         style="fill:#000000;fill-opacity:1;fill-rule:nonzero;stroke:none"
         d="m 659.781,2117.3 c 0,5 -4.156,8.45 -8.297,8.45 -5,0 -8.453,-4.14 -8.453,-8.28 0,-5.02 4.141,-8.47 8.282,-8.47 5.015,0 8.468,4.14 8.468,8.3" /><path
         id="path92"
         style="fill:#000000;fill-opacity:1;fill-rule:nonzero;stroke:none"
         d="m 747.016,2135.77 h -3.11 c -1.734,-12.27 -3.109,-14.33 -3.797,-15.38 -0.875,-1.37 -13.296,-1.37 -15.718,-1.37 h -33.157 c 6.219,6.73 18.297,19 32.985,33.15 10.531,10.02 22.797,21.77 22.797,38.86 0,20.38 -16.235,32.13 -34.375,32.13 -18.985,0 -30.563,-16.75 -30.563,-32.3 0,-6.73 5.016,-7.59 7.078,-7.59 1.735,0 6.907,1.03 6.907,7.07 0,5.35 -4.485,6.91 -6.907,6.91 -1.031,0 -2.062,-0.17 -2.765,-0.52 3.281,14.68 13.297,21.93 23.843,21.93 15.016,0 24.86,-11.91 24.86,-27.63 0,-15.03 -8.797,-27.98 -18.641,-39.2 l -34.375,-38.86 V 2109 h 60.797 l 4.141,26.77" /><path
         id="path94"
         style="fill:#000000;fill-opacity:1;fill-rule:nonzero;stroke:none"
         d="m 822.578,2066 v 6.05 h -16.234 v 160.25 h 16.234 v 6.04 H 800.313 V 2066 h 22.265" /><path
         id="path96"
         style="fill:#000000;fill-opacity:1;fill-rule:nonzero;stroke:none"
         d="m 941.734,2161.5 c 0,8.64 -1.546,23.14 -22.093,23.14 -11.75,0 -19.86,-7.94 -22.969,-17.26 H 896.5 c -2.078,14.15 -12.266,17.26 -21.937,17.26 -13.641,0 -20.719,-10.53 -23.313,-17.44 h -0.172 v 17.44 l -20.375,-1.91 v -4.48 c 10.188,0 11.735,-1.03 11.735,-9.33 v -48 c 0,-6.56 -0.688,-7.44 -11.735,-7.44 V 2109 c 4.141,0.34 11.735,0.34 16.235,0.34 4.484,0 12.25,0 16.406,-0.34 v 4.48 c -11.063,0 -11.75,0.71 -11.75,7.44 v 33.16 c 0,15.87 9.672,27.8 21.765,27.8 12.782,0 14.157,-11.4 14.157,-19.69 v -41.27 c 0,-6.56 -0.688,-7.44 -11.75,-7.44 V 2109 c 4.156,0.34 11.75,0.34 16.234,0.34 4.5,0 12.266,0 16.406,-0.34 v 4.48 c -11.047,0 -11.734,0.71 -11.734,7.44 v 33.16 c 0,15.87 9.672,27.8 21.75,27.8 12.781,0 14.172,-11.4 14.172,-19.69 v -41.27 c 0,-6.56 -0.703,-7.44 -11.75,-7.44 V 2109 c 4.14,0.34 11.75,0.34 16.234,0.34 4.485,0 12.266,0 16.406,-0.34 v 4.48 c -11.046,0 -11.75,0.71 -11.75,7.44 v 40.58" /><path
         id="path98"
         style="fill:#000000;fill-opacity:1;fill-rule:nonzero;stroke:none"
         d="m 982.688,2238.34 h -22.266 v -6.04 h 16.234 V 2072.05 H 960.422 V 2066 h 22.266 v 172.34" /><path
         id="path100"
         style="fill:none;stroke:#ff0000;stroke-width:39.851;stroke-linecap:round;stroke-linejoin:miter;stroke-miterlimit:10;stroke-dasharray:none;stroke-opacity:1"
         d="m 2645.23,1514.73 940.31,542.89" /><path
         id="path102"
         style="fill:none;stroke:#ff0000;stroke-width:39.8501;stroke-linecap:butt;stroke-linejoin:miter;stroke-miterlimit:10;stroke-dasharray:none;stroke-opacity:1"
         d="m 3473.5,2102.22 129.29,-34.64 -34.64,-129.29" /><path
         id="path104"
         style="fill:none;stroke:#00ff00;stroke-width:39.851;stroke-linecap:round;stroke-linejoin:miter;stroke-miterlimit:10;stroke-dasharray:none;stroke-opacity:1"
         d="m 2645.23,1514.73 -542.89,940.31" /><path
         id="path106"
         style="fill:none;stroke:#00ff00;stroke-width:39.8501;stroke-linecap:butt;stroke-linejoin:miter;stroke-miterlimit:10;stroke-dasharray:none;stroke-opacity:1"
         d="m 2057.74,2343.01 34.64,129.28 129.29,-34.64" /><path
         id="path108"
         style="fill:none;stroke:#000000;stroke-width:19.9255;stroke-linecap:round;stroke-linejoin:miter;stroke-miterlimit:10;stroke-dasharray:none;stroke-opacity:1"
         d="M 2645.23,1587.23 V 2932.08" /><path
         id="path110"
         style="fill:#000000;fill-opacity:1;fill-rule:nonzero;stroke:none"
         d="m 2645.23,1543.11 22.45,59 -22.45,-19.86 -22.45,19.86 z" /><path
         id="path112"
         style="fill:none;stroke:#000000;stroke-width:19.9255;stroke-linecap:round;stroke-linejoin:miter;stroke-miterlimit:10;stroke-dasharray:none;stroke-opacity:1"
         d="m 2645.23,1543.11 22.45,59 -22.45,-19.86 -22.45,19.86 z" /><path
         id="path114"
         style="fill:#000000;fill-opacity:1;fill-rule:nonzero;stroke:none"
         d="m 2765.02,2249.42 c 3.45,0 4.84,0 4.84,3.28 0,1.74 -1.39,1.74 -4.5,1.74 h -13.98 c 3.28,17.78 5.7,30.04 7.07,35.56 1.05,4.16 4.68,8.13 9.16,8.13 3.62,0 7.25,-1.57 8.98,-3.11 -6.73,-0.69 -8.81,-5.71 -8.81,-8.64 0,-3.46 2.6,-5.52 5.88,-5.52 3.45,0 8.64,2.92 8.64,9.48 0,7.27 -7.27,11.24 -14.86,11.24 -7.42,0 -14.67,-5.53 -18.13,-12.27 -3.11,-6.04 -4.84,-12.26 -8.81,-34.87 h -11.58 c -3.28,0 -5,0 -5,-3.11 0,-1.91 1.03,-1.91 4.49,-1.91 h 11.06 c -3.11,-16.06 -10.19,-55.09 -14.17,-73.56 -2.94,-15.03 -5.52,-27.64 -14.16,-27.64 -0.51,0 -5.53,0 -8.64,3.28 8.81,0.7 8.81,8.3 8.81,8.47 0,3.45 -2.59,5.53 -5.87,5.53 -3.46,0 -8.63,-2.94 -8.63,-9.5 0,-7.44 7.6,-11.23 14.33,-11.23 17.61,0 24.88,31.61 26.77,40.25 3.11,13.29 11.57,59.21 12.43,64.4 h 14.68" /><path
         id="path116"
         style="fill:#000000;fill-opacity:1;fill-rule:nonzero;stroke:none"
         d="m 2949.05,2235.44 c 2.58,0 5.17,0 5.17,2.94 0,3.1 -2.94,3.1 -5.88,3.1 h -96.53 c -2.93,0 -5.87,0 -5.87,-3.1 0,-2.94 2.59,-2.94 5.19,-2.94 z m -0.71,-30.75 c 2.94,0 5.88,0 5.88,3.11 0,2.93 -2.59,2.93 -5.17,2.93 h -97.92 c -2.6,0 -5.19,0 -5.19,-2.93 0,-3.11 2.94,-3.11 5.87,-3.11 h 96.53" /><path
         id="path118"
         style="fill:#000000;fill-opacity:1;fill-rule:nonzero;stroke:none"
         d="m 3054.94,2290.34 c 0,3.64 -0.17,3.82 -2.6,3.82 -6.73,-8.13 -16.92,-10.72 -26.59,-11.07 -0.52,0 -1.37,0 -1.55,-0.34 -0.17,-0.34 -0.17,-0.69 -0.17,-4.31 5.35,0 14.33,1.03 21.24,5.17 v -91 c 0,-6.05 -0.35,-8.13 -15.21,-8.13 h -5.17 V 2180 c 8.28,0.17 16.92,0.34 25.2,0.34 8.3,0 16.94,-0.17 25.22,-0.34 v 4.48 h -5.17 c -14.86,0 -15.2,1.91 -15.2,8.13 v 97.73" /><path
         id="path120"
         style="fill:#000000;fill-opacity:1;fill-rule:nonzero;stroke:none"
         d="m 3160.53,2235.44 c 0,10.53 -0.17,28.48 -7.42,42.31 -6.39,12.08 -16.58,16.41 -25.56,16.41 -8.3,0 -18.83,-3.82 -25.39,-16.24 -6.91,-12.95 -7.6,-29.01 -7.6,-42.48 0,-9.85 0.17,-24.88 5.53,-38 7.43,-17.78 20.72,-20.21 27.46,-20.21 7.93,0 20.03,3.29 27.11,19.69 5.18,11.92 5.87,25.91 5.87,38.52 z M 3127.55,2180 c -11.05,0 -17.61,9.5 -20.03,22.63 -1.91,10.18 -1.91,25.03 -1.91,34.7 0,13.3 0,24.36 2.25,34.89 3.28,14.67 12.95,19.17 19.69,19.17 7.08,0 16.23,-4.67 19.51,-18.83 2.25,-9.84 2.42,-21.4 2.42,-35.23 0,-11.22 0,-25.03 -2.07,-35.22 -3.63,-18.83 -13.82,-22.11 -19.86,-22.11" /><path
         id="path122"
         style="fill:#000000;fill-opacity:1;fill-rule:nonzero;stroke:none"
         d="m 3236.58,2137 v 6.05 h -16.24 v 160.25 h 16.24 v 6.04 h -22.27 V 2137 h 22.27" /><path
         id="path124"
         style="fill:#000000;fill-opacity:1;fill-rule:nonzero;stroke:none"
         d="m 3273.41,2295.88 c -1.22,1.9 -1.39,2.07 -4.68,2.07 h -21.92 v -4.5 h 3.28 c 6.91,0 10.02,-0.86 10.54,-1.03 v -95.5 c 0,-4.31 0,-12.44 -13.82,-12.44 V 2180 c 3.97,0.34 11.22,0.34 15.53,0.34 4.33,0 11.58,0 15.55,-0.34 v 4.48 c -13.81,0 -13.81,8.13 -13.81,12.44 V 2290 c 1.2,-1.03 1.2,-1.37 2.42,-3.11 l 64.06,-104.81 c 1.21,-2.08 1.74,-2.08 2.6,-2.08 1.72,0 1.72,0.52 1.72,3.8 v 97.23 c 0,4.31 0,12.42 13.82,12.42 v 4.5 c -3.98,-0.34 -11.23,-0.34 -15.54,-0.34 -4.32,0 -11.58,0 -15.55,0.34 v -4.5 c 13.81,0 13.81,-8.11 13.81,-12.42 v -79.97 l -58.01,94.82" /><path
         id="path126"
         style="fill:#000000;fill-opacity:1;fill-rule:nonzero;stroke:none"
         d="m 3382.69,2309.34 h -22.27 v -6.04 h 16.24 v -160.25 h -16.24 V 2137 h 22.27 v 172.34" /><path
         id="path128"
         style="fill:#000000;fill-opacity:1;fill-rule:nonzero;stroke:none"
         d="m 2889.88,1296.55 c 0,6.9 4.48,17.97 23.31,19.17 0.86,0.17 1.54,0.86 1.54,1.91 0,1.89 -1.37,1.89 -3.28,1.89 -17.26,0 -32.98,-8.8 -33.15,-21.58 v -39.38 c 0,-6.73 0,-12.26 -6.91,-17.97 -6.05,-5 -12.61,-5.34 -16.41,-5.51 -0.85,-0.17 -1.54,-0.88 -1.54,-1.91 0,-1.72 1.03,-1.72 2.76,-1.89 11.39,-0.7 19.69,-6.92 21.58,-15.37 0.52,-1.91 0.52,-2.25 0.52,-8.47 v -34.19 c 0,-7.25 0,-12.78 8.29,-19.34 6.74,-5.19 18.13,-7.08 24.86,-7.08 1.91,0 3.28,0 3.28,1.89 0,1.73 -1.03,1.73 -2.75,1.91 -10.89,0.68 -19.34,6.21 -21.59,15.03 -0.51,1.54 -0.51,1.89 -0.51,8.11 v 36.26 c 0,7.94 -1.4,10.88 -6.91,16.41 -3.63,3.62 -8.64,5.36 -13.47,6.73 14.16,3.97 20.38,11.92 20.38,21.94 v 41.44" /><path
         id="path130"
         style="fill:#000000;fill-opacity:1;fill-rule:nonzero;stroke:none"
         d="m 2957.91,1230.06 c 4.67,0 16.4,0.35 24.7,3.46 13.12,5.01 14.33,15.03 14.33,18.14 0,7.59 -6.56,14.5 -17.96,14.5 -18.14,0 -44.21,-16.41 -44.21,-47.14 0,-18.14 10.37,-30.75 26.07,-30.75 23.49,0 38.35,18.31 38.35,20.56 0,1.03 -1.03,1.89 -1.74,1.89 -0.51,0 -0.68,-0.17 -2.23,-1.72 -11.06,-14.69 -27.47,-17.27 -34.03,-17.27 -9.85,0 -15.02,7.77 -15.02,20.55 0,2.41 0,6.74 2.6,17.78 z m -8.28,3.46 c 7.42,26.59 23.82,29.18 29.35,29.18 7.6,0 12.79,-4.48 12.79,-11.04 0,-18.14 -27.64,-18.14 -34.89,-18.14 h -7.25" /><path
         id="path132"
         style="fill:#000000;fill-opacity:1;fill-rule:nonzero;stroke:none"
         d="m 3042.3,1169.8 c 0,-6.91 -4.49,-17.97 -23.32,-19.17 -0.85,-0.18 -1.54,-0.86 -1.54,-1.91 0,-1.89 1.89,-1.89 3.45,-1.89 16.75,0 32.81,8.45 32.99,21.58 v 39.37 c 0,6.74 0,12.27 6.9,17.97 6.05,5 12.61,5.34 16.41,5.53 0.86,0.17 1.54,0.86 1.54,1.89 0,1.74 -1.03,1.74 -2.75,1.91 -11.4,0.69 -19.68,6.9 -21.59,15.36 -0.51,1.9 -0.51,2.25 -0.51,8.47 v 34.18 c 0,7.25 0,12.79 -8.3,19.35 -6.91,5.36 -18.81,7.08 -24.69,7.08 -1.56,0 -3.45,0 -3.45,-1.89 0,-1.74 1.03,-1.74 2.76,-1.91 10.88,-0.69 19.33,-6.22 21.58,-15.02 0.52,-1.56 0.52,-1.9 0.52,-8.12 v -36.27 c 0,-7.93 1.39,-10.87 6.9,-16.4 3.64,-3.63 8.64,-5.35 13.49,-6.74 -14.17,-3.97 -20.39,-11.92 -20.39,-21.94 v -41.43" /><path
         id="path134"
         style="fill:none;stroke:#808080;stroke-width:1.9925;stroke-linecap:butt;stroke-linejoin:miter;stroke-miterlimit:10;stroke-dasharray:none;stroke-opacity:1"
         d="M 681.301,380.859 H 3629.38" /><path
         id="path136"
         style="fill:none;stroke:#000000;stroke-width:9.9628;stroke-linecap:round;stroke-linejoin:miter;stroke-miterlimit:10;stroke-dasharray:none;stroke-opacity:1"
         d="m 3515.98,380.859 c 0,497.461 -131.06,986.531 -356.6,1377.211" /><path
         id="path138"
         style="fill:#000000;fill-opacity:1;fill-rule:nonzero;stroke:none"
         d="m 3143.3,1785.91 7.65,-46.9 7.18,21.22 21.97,-4.39 z" /><path
         id="path140"
         style="fill:none;stroke:#000000;stroke-width:9.96269;stroke-linecap:round;stroke-linejoin:miter;stroke-miterlimit:10;stroke-dasharray:none;stroke-opacity:1"
         d="m 3143.3,1785.91 7.65,-46.9 7.18,21.22 21.97,-4.39 z" /><path
         id="path142"
         style="fill:#000000;fill-opacity:1;fill-rule:nonzero;stroke:none"
         d="m 3500.88,1192.94 h 13.46 c -3.21,-13.35 -5.25,-22.05 -5.25,-31.6 0,-1.65 0,-14.53 4.89,-14.53 2.5,0 4.66,2.27 4.66,4.28 0,0.61 0,0.85 -0.84,2.63 -3.22,8.23 -3.22,18.48 -3.22,19.31 0,0.72 0,9.19 2.5,19.91 h 13.36 c 1.54,0 5.48,0 5.48,3.81 0,2.63 -2.26,2.63 -4.4,2.63 h -39.22 c -2.75,0 -6.8,0 -12.28,-5.85 -3.11,-3.45 -6.93,-9.76 -6.93,-10.48 0,-0.72 0.61,-0.96 1.32,-0.96 0.84,0 0.95,0.36 1.54,1.08 6.21,9.77 12.41,9.77 15.39,9.77 h 6.79 c -2.61,-8.94 -5.6,-19.31 -15.38,-40.17 -0.95,-1.91 -0.95,-2.14 -0.95,-2.86 0,-2.5 2.15,-3.1 3.22,-3.1 3.46,0 4.42,3.1 5.84,8.1 1.91,6.09 1.91,6.32 3.09,11.09 l 6.93,26.94" /><path
         id="path144"
         style="fill:none;stroke:#000000;stroke-width:3.985;stroke-linecap:butt;stroke-linejoin:miter;stroke-miterlimit:10;stroke-dasharray:none;stroke-opacity:1"
         d="m 3469.54,1122.77 h 70.69" /><path
         id="path146"
         style="fill:#000000;fill-opacity:1;fill-rule:nonzero;stroke:none"
         d="m 3490.66,1061.48 c 0,30.16 14.67,34.93 21.11,34.93 4.28,0 8.57,-1.32 10.84,-4.89 -1.44,0 -5.95,0 -5.95,-4.88 0,-2.62 1.78,-4.89 4.87,-4.89 2.99,0 5.02,1.78 5.02,5.25 0,6.19 -4.53,12.27 -14.91,12.27 -15.01,0 -30.75,-15.38 -30.75,-41.6 0,-32.78 14.3,-40.17 24.44,-40.17 12.98,0 24.08,11.33 24.08,26.81 0,15.86 -11.1,26.47 -23.02,26.47 -10.61,0 -14.53,-9.17 -15.73,-12.51 z m 14.67,-40.76 c -7.52,0 -11.1,6.67 -12.16,9.17 -1.08,3.11 -2.26,8.94 -2.26,17.28 0,9.42 4.28,21.22 15.01,21.22 6.56,0 10.02,-4.41 11.8,-8.45 1.91,-4.42 1.91,-10.38 1.91,-15.5 0,-6.08 0,-11.44 -2.27,-15.97 -2.97,-5.74 -7.27,-7.75 -12.03,-7.75" /><path
         id="path148"
         style="fill:#000000;fill-opacity:1;fill-rule:nonzero;stroke:none"
         d="m 3621.58,1037 v 6.05 h -16.24 v 160.25 h 16.24 v 6.04 h -22.27 V 1037 h 22.27" /><path
         id="path150"
         style="fill:#000000;fill-opacity:1;fill-rule:nonzero;stroke:none"
         d="m 3649.91,1120.75 c 0,16.58 7.07,32.13 20.03,32.13 1.2,0 2.42,-0.18 3.62,-0.69 0,0 -3.79,-1.21 -3.79,-5.71 0,-4.14 3.28,-5.87 5.87,-5.87 2.06,0 5.86,1.22 5.86,6.05 0,5.53 -5.52,8.98 -11.39,8.98 -13.13,0 -18.83,-12.78 -20.55,-18.83 h -0.17 v 18.83 l -20.03,-1.91 v -4.48 c 10.19,0 11.73,-1.03 11.73,-9.33 v -48 c 0,-6.56 -0.68,-7.44 -11.73,-7.44 V 1080 c 4.14,0.34 12.08,0.34 16.58,0.34 5,0 13.81,0 18.47,-0.34 v 4.48 c -12.44,0 -14.5,0 -14.5,7.79 v 28.48" /><path
         id="path152"
         style="fill:#000000;fill-opacity:1;fill-rule:nonzero;stroke:none"
         d="m 3747.17,1124.73 c 0,11.4 0,17.44 -7.25,24.18 -6.39,5.7 -13.83,7.42 -19.69,7.42 -13.64,0 -23.48,-10.7 -23.48,-22.11 0,-6.38 5.17,-6.74 6.2,-6.74 2.25,0 6.22,1.4 6.22,6.22 0,4.33 -3.28,6.22 -6.22,6.22 -0.68,0 -1.54,-0.17 -2.06,-0.34 3.63,10.87 12.95,13.98 19,13.98 8.63,0 18.13,-7.59 18.13,-22.09 v -7.61 c -10.19,-0.34 -22.46,-1.72 -32.13,-6.91 -10.87,-6.04 -13.98,-14.67 -13.98,-21.23 0,-13.3 15.54,-17.09 24.7,-17.09 9.48,0 18.3,5.34 22.09,15.18 0.35,-7.59 5.19,-14.5 12.78,-14.5 3.63,0 12.79,2.42 12.79,16.07 v 9.67 h -3.11 v -9.85 c 0,-10.54 -4.66,-11.92 -6.91,-11.92 -7.08,0 -7.08,8.99 -7.08,16.58 z m -9.15,-20.73 c 0,-15.02 -10.71,-22.62 -20.21,-22.62 -8.64,0 -15.37,6.39 -15.37,14.34 0,5.17 2.25,14.33 12.26,19.86 8.3,4.65 17.78,5.34 23.32,5.7 V 1104" /><path
         id="path154"
         style="fill:#000000;fill-opacity:1;fill-rule:nonzero;stroke:none"
         d="m 3814.42,1197.95 v -4.5 c 10.19,0 11.75,-1.03 11.75,-9.31 v -40.42 c -0.69,0.87 -7.76,11.92 -21.76,11.92 -17.61,0 -34.71,-15.72 -34.71,-38.51 0,-22.63 16.07,-38.5 32.99,-38.5 14.67,0 22.26,11.39 23.14,12.59 v -12.59 l 20.89,1.37 v 4.48 c -10.19,0 -11.74,1.05 -11.74,9.33 v 106.03 z m 11.41,-97.23 c 0,-5.17 -3.11,-9.84 -7.08,-13.3 -5.87,-5.17 -11.75,-6.04 -15.03,-6.04 -5,0 -22.97,2.59 -22.97,35.57 0,33.85 20.03,35.93 24.53,35.93 7.94,0 14.33,-4.49 18.3,-10.71 2.25,-3.62 2.25,-4.14 2.25,-7.25 v -34.2" /><path
         id="path156"
         style="fill:#000000;fill-opacity:1;fill-rule:nonzero;stroke:none"
         d="m 3875.69,1209.34 h -22.27 v -6.04 h 16.24 v -160.25 h -16.24 V 1037 h 22.27 v 172.34" /><path
         id="path158"
         style="fill:none;stroke:#ff0000;stroke-width:39.851;stroke-linecap:round;stroke-linejoin:miter;stroke-miterlimit:10;stroke-dasharray:none;stroke-opacity:1"
         d="M 681.301,380.859 H 1767.07" /><path
         id="path160"
         style="fill:none;stroke:#ff0000;stroke-width:39.851;stroke-linecap:butt;stroke-linejoin:miter;stroke-miterlimit:10;stroke-dasharray:none;stroke-opacity:1"
         d="m 1692.35,475.508 94.64,-94.649 -94.64,-94.644" /><path
         id="path162"
         style="fill:none;stroke:#00ff00;stroke-width:39.851;stroke-linecap:round;stroke-linejoin:miter;stroke-miterlimit:10;stroke-dasharray:none;stroke-opacity:1"
         d="M 681.301,380.859 V 1466.63" /><path
         id="path164"
         style="fill:none;stroke:#00ff00;stroke-width:39.851;stroke-linecap:butt;stroke-linejoin:miter;stroke-miterlimit:10;stroke-dasharray:none;stroke-opacity:1"
         d="m 586.652,1391.91 94.649,94.64 94.644,-94.64" /><path
         id="path166"
         style="fill:#000000;fill-opacity:1;fill-rule:nonzero;stroke:none"
         d="m 302.875,182.547 c 0,6.906 4.484,17.969 23.313,19.172 0.859,0.172 1.546,0.859 1.546,1.906 0,1.891 -1.375,1.891 -3.281,1.891 -17.265,0 -32.984,-8.797 -33.156,-21.578 v -39.375 c 0,-6.735 0,-12.266 -6.906,-17.969 -6.047,-5 -12.61,-5.344 -16.407,-5.516 -0.859,-0.172 -1.546,-0.875 -1.546,-1.906 0,-1.719 1.031,-1.719 2.765,-1.891 11.391,-0.703 19.688,-6.922 21.578,-15.375 0.516,-1.906 0.516,-2.2497 0.516,-8.4685 V 59.25 c 0,-7.25 0,-12.7812 8.297,-19.3437 6.734,-5.1875 18.125,-7.0782 24.859,-7.0782 1.906,0 3.281,0 3.281,1.8907 0,1.7343 -1.031,1.7343 -2.75,1.9062 -10.89,0.6875 -19.343,6.2188 -21.593,15.0313 -0.516,1.5468 -0.516,1.8906 -0.516,8.1093 v 36.2657 c 0,7.9377 -1.391,10.8747 -6.906,16.4067 -3.625,3.625 -8.641,5.359 -13.469,6.734 14.156,3.969 20.375,11.922 20.375,21.937 v 41.438" /><path
         id="path168"
         style="fill:#000000;fill-opacity:1;fill-rule:nonzero;stroke:none"
         d="m 379.375,110.531 c 2.938,-0.515 7.594,-1.547 8.641,-1.718 2.234,-0.688 10.015,-3.454 10.015,-11.7505 0,-5.3437 -4.843,-19.3281 -24.875,-19.3281 -3.625,0 -16.578,0.5156 -20.031,10.0156 6.906,-0.875 10.359,4.4844 10.359,8.2813 0,3.625 -2.421,5.5317 -5.875,5.5317 -3.796,0 -8.796,-2.938 -8.796,-10.7036 0,-10.2031 10.359,-16.5938 24.171,-16.5938 26.25,0 34.016,19.3438 34.016,28.3284 0,2.594 0,7.422 -5.516,12.953 -4.328,4.141 -8.468,5.016 -17.796,6.906 -4.657,1.031 -12.079,2.594 -12.079,10.36 0,3.453 3.11,15.89 19.516,15.89 7.25,0 14.328,-2.765 16.047,-8.984 -7.594,0 -7.938,-6.563 -7.938,-6.735 0,-3.625 3.282,-4.656 4.829,-4.656 2.421,0 7.265,1.891 7.265,9.156 0,7.25 -6.562,14.672 -20.031,14.672 -22.625,0 -28.672,-17.781 -28.672,-24.859 0,-13.125 12.781,-15.891 16.75,-16.766" /><path
         id="path170"
         style="fill:#000000;fill-opacity:1;fill-rule:nonzero;stroke:none"
         d="m 457.297,55.7969 c 0,-6.9063 -4.484,-17.9688 -23.313,-19.1719 -0.859,-0.1719 -1.546,-0.8594 -1.546,-1.9062 0,-1.8907 1.89,-1.8907 3.453,-1.8907 16.75,0 32.812,8.4532 32.984,21.5782 v 39.375 c 0,6.7347 0,12.2657 6.906,17.9687 6.047,5 12.61,5.344 16.407,5.531 0.859,0.172 1.546,0.86 1.546,1.891 0,1.734 -1.031,1.734 -2.75,1.906 -11.406,0.688 -19.687,6.906 -21.593,15.36 -0.516,1.906 -0.516,2.25 -0.516,8.468 v 34.188 c 0,7.25 0,12.781 -8.297,19.344 -6.906,5.359 -18.812,7.078 -24.687,7.078 -1.563,0 -3.453,0 -3.453,-1.891 0,-1.734 1.031,-1.734 2.765,-1.906 10.875,-0.688 19.328,-6.219 21.578,-15.016 0.516,-1.562 0.516,-1.906 0.516,-8.125 v -36.265 c 0,-7.938 1.391,-10.875 6.906,-16.407 3.641,-3.625 8.641,-5.343 13.485,-6.734 -14.172,-3.969 -20.391,-11.922 -20.391,-21.9376 V 55.7969" /></g></g></svg>
