<?xml version="1.0" encoding="UTF-8" standalone="no"?>
<svg
   xmlns:dc="http://purl.org/dc/elements/1.1/"
   xmlns:cc="http://creativecommons.org/ns#"
   xmlns:rdf="http://www.w3.org/1999/02/22-rdf-syntax-ns#"
   xmlns:svg="http://www.w3.org/2000/svg"
   xmlns="http://www.w3.org/2000/svg"
   id="svg57"
   version="1.2"
   viewBox="0 0 243.58 135.35"
   height="135.35pt"
   width="243.58pt">
  <metadata
     id="metadata63">
    <rdf:RDF>
      <cc:Work
         rdf:about="">
        <dc:format>image/svg+xml</dc:format>
        <dc:type
           rdf:resource="http://purl.org/dc/dcmitype/StillImage" />
      </cc:Work>
    </rdf:RDF>
  </metadata>
  <defs
     id="defs61" />
  <g
     id="surface1">
    <path
       id="path2"
       transform="matrix(0.1,0,0,-0.1,0,135.35)"
       d="M 955 1234.164063 C 955 1249.828125 942.304688 1262.523438 926.679688 1262.523438 C 911.015625 1262.523438 898.320313 1249.828125 898.320313 1234.164063 C 898.320313 1218.5 911.015625 1205.804688 926.679688 1205.804688 C 942.304688 1205.804688 955 1218.5 955 1234.164063 Z M 955 1234.164063 "
       style="fill-rule:nonzero;fill:rgb(0%,0%,0%);fill-opacity:1;stroke-width:15.9404;stroke-linecap:butt;stroke-linejoin:miter;stroke:rgb(0%,0%,0%);stroke-opacity:1;stroke-miterlimit:10;" />
    <path
       id="path4"
       transform="matrix(0.1,0,0,-0.1,0,135.35)"
       d="M 1521.953125 1234.164063 C 1521.953125 1249.828125 1509.257813 1262.523438 1493.59375 1262.523438 C 1477.96875 1262.523438 1465.234375 1249.828125 1465.234375 1234.164063 C 1465.234375 1218.5 1477.96875 1205.804688 1493.59375 1205.804688 C 1509.257813 1205.804688 1521.953125 1218.5 1521.953125 1234.164063 Z M 1521.953125 1234.164063 "
       style="fill-rule:nonzero;fill:rgb(0%,0%,0%);fill-opacity:1;stroke-width:15.9404;stroke-linecap:butt;stroke-linejoin:miter;stroke:rgb(0%,0%,0%);stroke-opacity:1;stroke-miterlimit:10;" />
    <path
       id="path6"
       transform="matrix(0.1,0,0,-0.1,0,135.35)"
       d="M 955 383.773438 C 955 399.4375 942.304688 412.132813 926.679688 412.132813 C 911.015625 412.132813 898.320313 399.4375 898.320313 383.773438 C 898.320313 368.109375 911.015625 355.414063 926.679688 355.414063 C 942.304688 355.414063 955 368.109375 955 383.773438 Z M 955 383.773438 "
       style="fill-rule:nonzero;fill:rgb(0%,0%,0%);fill-opacity:1;stroke-width:15.9404;stroke-linecap:butt;stroke-linejoin:miter;stroke:rgb(0%,0%,0%);stroke-opacity:1;stroke-miterlimit:10;" />
    <path
       id="path8"
       transform="matrix(0.1,0,0,-0.1,0,135.35)"
       d="M 1521.953125 383.773438 C 1521.953125 399.4375 1509.257813 412.132813 1493.59375 412.132813 C 1477.96875 412.132813 1465.234375 399.4375 1465.234375 383.773438 C 1465.234375 368.109375 1477.96875 355.414063 1493.59375 355.414063 C 1509.257813 355.414063 1521.953125 368.109375 1521.953125 383.773438 Z M 1521.953125 383.773438 "
       style="fill-rule:nonzero;fill:rgb(0%,0%,0%);fill-opacity:1;stroke-width:15.9404;stroke-linecap:butt;stroke-linejoin:miter;stroke:rgb(0%,0%,0%);stroke-opacity:1;stroke-miterlimit:10;" />
    <path
       id="path10"
       transform="matrix(0.1,0,0,-0.1,0,135.35)"
       d="M 359.726563 922.367188 C 297.109375 922.367188 246.367188 871.585938 246.367188 808.96875 C 246.367188 746.351563 297.109375 695.570313 359.726563 695.570313 C 422.34375 695.570313 473.125 746.351563 473.125 808.96875 C 473.125 871.585938 422.34375 922.367188 359.726563 922.367188 Z M 359.726563 922.367188 "
       style="fill:none;stroke-width:15.9404;stroke-linecap:butt;stroke-linejoin:miter;stroke:rgb(0%,0%,0%);stroke-opacity:1;stroke-miterlimit:10;" />
    <path
       id="path12"
       transform="matrix(0.1,0,0,-0.1,0,135.35)"
       d="M 473.125 808.96875 L 246.367188 808.96875 "
       style="fill:none;stroke-width:15.9404;stroke-linecap:butt;stroke-linejoin:miter;stroke:rgb(0%,0%,0%);stroke-opacity:1;stroke-miterlimit:10;" />
    <path
       id="path14"
       transform="matrix(0.1,0,0,-0.1,0,135.35)"
       d="M 200.585938 692.289063 L 200.585938 950.6875 "
       style="fill:none;stroke-width:15.9404;stroke-linecap:butt;stroke-linejoin:miter;stroke:rgb(0%,0%,0%);stroke-opacity:1;stroke-miterlimit:10;" />
    <path
       id="path16"
       d="M 21.976563 63.613281 L 20.058594 68.625 L 18.140625 63.613281 "
       style=" stroke:none;fill-rule:nonzero;fill:rgb(0%,0%,0%);fill-opacity:1;" />
    <path
       id="path18"
       transform="matrix(0.1,0,0,-0.1,0,135.35)"
       d="M 219.765625 717.367188 L 200.585938 667.25 L 181.40625 717.367188 Z M 219.765625 717.367188 "
       style="fill:none;stroke-width:15.9404;stroke-linecap:butt;stroke-linejoin:round;stroke:rgb(0%,0%,0%);stroke-opacity:1;stroke-miterlimit:10;" />
    <path
       id="path20"
       d="M 13.1875 57.582031 C 13.1875 57.492188 13.117188 57.425781 13.015625 57.425781 C 12.859375 57.425781 12.84375 57.476563 12.757813 57.769531 C 12.304688 59.34375 11.597656 59.875 11.027344 59.875 C 10.820313 59.875 10.578125 59.824219 10.578125 59.308594 C 10.578125 58.839844 10.789063 58.324219 10.976563 57.804688 L 12.1875 54.59375 C 12.238281 54.453125 12.359375 54.144531 12.359375 53.816406 C 12.359375 53.089844 11.839844 52.433594 10.992188 52.433594 C 9.40625 52.433594 8.765625 54.9375 8.765625 55.078125 C 8.765625 55.144531 8.835938 55.230469 8.957031 55.230469 C 9.109375 55.230469 9.128906 55.164063 9.199219 54.921875 C 9.613281 53.46875 10.269531 52.78125 10.941406 52.78125 C 11.097656 52.78125 11.390625 52.796875 11.390625 53.351563 C 11.390625 53.796875 11.167969 54.367188 11.027344 54.75 L 9.820313 57.960938 C 9.714844 58.234375 9.613281 58.511719 9.613281 58.824219 C 9.613281 59.601563 10.148438 60.222656 10.976563 60.222656 C 12.566406 60.222656 13.1875 57.703125 13.1875 57.582031 Z M 13.046875 49.273438 C 13.046875 49.015625 12.84375 48.703125 12.460938 48.703125 C 12.0625 48.703125 11.617188 49.085938 11.617188 49.53125 C 11.617188 49.964844 11.976563 50.101563 12.1875 50.101563 C 12.652344 50.101563 13.046875 49.652344 13.046875 49.273438 "
       style=" stroke:none;fill-rule:nonzero;fill:rgb(0%,0%,100%);fill-opacity:1;" />
    <path
       id="path22"
       transform="matrix(0.1,0,0,-0.1,0,135.35)"
       d="M 926.679688 1035.765625 C 957.96875 1035.765625 983.359375 1010.375 983.359375 979.046875 C 983.359375 947.71875 957.96875 922.367188 926.679688 922.367188 C 957.96875 922.367188 983.359375 896.976563 983.359375 865.648438 C 983.359375 834.359375 957.96875 808.96875 926.679688 808.96875 C 957.96875 808.96875 983.359375 783.578125 983.359375 752.289063 C 983.359375 720.960938 957.96875 695.570313 926.679688 695.570313 C 957.96875 695.570313 983.359375 670.21875 983.359375 638.890625 C 983.359375 607.5625 957.96875 582.210938 926.679688 582.210938 "
       style="fill:none;stroke-width:15.9404;stroke-linecap:round;stroke-linejoin:miter;stroke:rgb(0%,0%,0%);stroke-opacity:1;stroke-miterlimit:10;" />
    <path
       id="path24"
       transform="matrix(0.1,0,0,-0.1,0,135.35)"
       d="M 1021.171875 950.6875 L 1021.171875 692.289063 "
       style="fill:none;stroke-width:15.9404;stroke-linecap:butt;stroke-linejoin:miter;stroke:rgb(0%,0%,0%);stroke-opacity:1;stroke-miterlimit:10;" />
    <path
       id="path26"
       d="M 104.035156 63.613281 L 102.117188 68.625 L 100.195313 63.613281 "
       style=" stroke:none;fill-rule:nonzero;fill:rgb(0%,0%,0%);fill-opacity:1;" />
    <path
       id="path28"
       transform="matrix(0.1,0,0,-0.1,0,135.35)"
       d="M 1040.351563 717.367188 L 1021.171875 667.25 L 1001.953125 717.367188 Z M 1040.351563 717.367188 "
       style="fill:none;stroke-width:15.9404;stroke-linecap:butt;stroke-linejoin:round;stroke:rgb(0%,0%,0%);stroke-opacity:1;stroke-miterlimit:10;" />
    <path
       id="path30"
       d="M 114.4375 49.882813 C 114.59375 49.226563 114.644531 49.054688 116.164063 49.054688 C 116.632813 49.054688 116.753906 49.054688 116.753906 48.726563 C 116.753906 48.554688 116.5625 48.554688 116.492188 48.554688 C 116.148438 48.554688 115.75 48.589844 115.40625 48.589844 L 113.089844 48.589844 C 112.761719 48.589844 112.382813 48.554688 112.054688 48.554688 C 111.917969 48.554688 111.726563 48.554688 111.726563 48.882813 C 111.726563 49.054688 111.882813 49.054688 112.140625 49.054688 C 113.195313 49.054688 113.195313 49.195313 113.195313 49.382813 C 113.195313 49.417969 113.195313 49.523438 113.125 49.78125 L 110.792969 59.070313 C 110.640625 59.675781 110.605469 59.847656 109.394531 59.847656 C 109.066406 59.847656 108.894531 59.847656 108.894531 60.160156 C 108.894531 60.351563 108.996094 60.351563 109.34375 60.351563 L 117.078125 60.351563 C 117.460938 60.351563 117.476563 60.332031 117.597656 60.023438 L 118.929688 56.34375 C 118.964844 56.257813 118.996094 56.152344 118.996094 56.101563 C 118.996094 56 118.910156 55.929688 118.824219 55.929688 C 118.804688 55.929688 118.71875 55.929688 118.6875 56 C 118.652344 56.015625 118.652344 56.050781 118.515625 56.378906 C 117.960938 57.898438 117.183594 59.847656 114.265625 59.847656 L 112.609375 59.847656 C 112.367188 59.847656 112.332031 59.847656 112.226563 59.832031 C 112.039063 59.8125 112.019531 59.78125 112.019531 59.640625 C 112.019531 59.519531 112.054688 59.417969 112.089844 59.261719 L 114.4375 49.882813 "
       style=" stroke:none;fill-rule:nonzero;fill:rgb(0%,0%,100%);fill-opacity:1;" />
    <path
       id="path32"
       transform="matrix(0.1,0,0,-0.1,0,135.35)"
       d="M 1380.234375 837.328125 L 1606.992188 837.328125 M 1380.234375 780.609375 L 1606.992188 780.609375 "
       style="fill:none;stroke-width:15.9404;stroke-linecap:butt;stroke-linejoin:miter;stroke:rgb(0%,0%,0%);stroke-opacity:1;stroke-miterlimit:10;" />
    <path
       id="path34"
       transform="matrix(0.1,0,0,-0.1,0,135.35)"
       d="M 1652.773438 950.6875 L 1652.773438 692.289063 "
       style="fill:none;stroke-width:15.9404;stroke-linecap:butt;stroke-linejoin:miter;stroke:rgb(0%,0%,0%);stroke-opacity:1;stroke-miterlimit:10;" />
    <path
       id="path36"
       d="M 167.195313 63.613281 L 165.277344 68.625 L 163.355469 63.613281 "
       style=" stroke:none;fill-rule:nonzero;fill:rgb(0%,0%,0%);fill-opacity:1;" />
    <path
       id="path38"
       transform="matrix(0.1,0,0,-0.1,0,135.35)"
       d="M 1671.953125 717.367188 L 1652.773438 667.25 L 1633.554688 717.367188 Z M 1671.953125 717.367188 "
       style="fill:none;stroke-width:15.9404;stroke-linecap:butt;stroke-linejoin:round;stroke:rgb(0%,0%,0%);stroke-opacity:1;stroke-miterlimit:10;" />
    <path
       id="path40"
       d="M 184.199219 48.347656 C 184.199219 48.191406 184.078125 48.191406 184.046875 48.191406 C 184.011719 48.191406 183.941406 48.191406 183.804688 48.367188 L 182.609375 49.816406 C 182.007813 48.78125 181.058594 48.191406 179.761719 48.191406 C 176.03125 48.191406 172.164063 51.976563 172.164063 56.03125 C 172.164063 58.917969 174.183594 60.710938 176.703125 60.710938 C 178.089844 60.710938 179.296875 60.125 180.296875 59.28125 C 181.800781 58.019531 182.246094 56.34375 182.246094 56.203125 C 182.246094 56.050781 182.109375 56.050781 182.058594 56.050781 C 181.902344 56.050781 181.886719 56.152344 181.851563 56.222656 C 181.058594 58.917969 178.726563 60.210938 176.996094 60.210938 C 175.167969 60.210938 173.578125 59.039063 173.578125 56.585938 C 173.578125 56.03125 173.753906 53.027344 175.703125 50.765625 C 176.652344 49.660156 178.277344 48.695313 179.917969 48.695313 C 181.816406 48.695313 182.664063 50.265625 182.664063 52.027344 C 182.664063 52.476563 182.609375 52.855469 182.609375 52.921875 C 182.609375 53.078125 182.785156 53.078125 182.835938 53.078125 C 183.027344 53.078125 183.042969 53.0625 183.113281 52.75 L 184.199219 48.347656 "
       style=" stroke:none;fill-rule:nonzero;fill:rgb(0%,0%,100%);fill-opacity:1;" />
    <path
       id="path42"
       transform="matrix(0.1,0,0,-0.1,0,135.35)"
       d="M 2003.867188 582.210938 L 2117.226563 582.210938 L 2117.226563 1035.726563 L 2003.867188 1035.726563 Z M 2003.867188 582.210938 "
       style="fill:none;stroke-width:15.9404;stroke-linecap:butt;stroke-linejoin:miter;stroke:rgb(0%,0%,0%);stroke-opacity:1;stroke-miterlimit:10;" />
    <path
       id="path44"
       transform="matrix(0.1,0,0,-0.1,0,135.35)"
       d="M 2163.007813 950.6875 L 2163.007813 692.289063 "
       style="fill:none;stroke-width:15.9404;stroke-linecap:butt;stroke-linejoin:miter;stroke:rgb(0%,0%,0%);stroke-opacity:1;stroke-miterlimit:10;" />
    <path
       id="path46"
       d="M 218.21875 63.613281 L 216.300781 68.625 L 214.382813 63.613281 "
       style=" stroke:none;fill-rule:nonzero;fill:rgb(0%,0%,0%);fill-opacity:1;" />
    <path
       id="path48"
       transform="matrix(0.1,0,0,-0.1,0,135.35)"
       d="M 2182.1875 717.367188 L 2163.007813 667.25 L 2143.828125 717.367188 Z M 2182.1875 717.367188 "
       style="fill:none;stroke-width:15.9404;stroke-linecap:butt;stroke-linejoin:round;stroke:rgb(0%,0%,0%);stroke-opacity:1;stroke-miterlimit:10;" />
    <path
       id="path50"
       d="M 228.65625 49.730469 C 228.8125 49.089844 228.878906 49.054688 229.554688 49.054688 L 230.796875 49.054688 C 232.28125 49.054688 233.386719 49.503906 233.386719 50.851563 C 233.386719 51.734375 232.9375 54.273438 229.46875 54.273438 L 227.515625 54.273438 Z M 231.054688 54.476563 C 233.195313 54.011719 234.871094 52.632813 234.871094 51.144531 C 234.871094 49.796875 233.507813 48.554688 231.109375 48.554688 L 226.429688 48.554688 C 226.082031 48.554688 225.925781 48.554688 225.925781 48.882813 C 225.925781 49.054688 226.046875 49.054688 226.375 49.054688 C 227.414063 49.054688 227.414063 49.195313 227.414063 49.382813 C 227.414063 49.417969 227.414063 49.523438 227.34375 49.78125 L 225.011719 59.070313 C 224.855469 59.675781 224.820313 59.847656 223.628906 59.847656 C 223.234375 59.847656 223.109375 59.847656 223.109375 60.175781 C 223.109375 60.351563 223.300781 60.351563 223.351563 60.351563 C 223.664063 60.351563 224.027344 60.316406 224.355469 60.316406 L 226.390625 60.316406 C 226.703125 60.316406 227.066406 60.351563 227.378906 60.351563 C 227.515625 60.351563 227.703125 60.351563 227.703125 60.023438 C 227.703125 59.847656 227.550781 59.847656 227.289063 59.847656 C 226.238281 59.847656 226.238281 59.710938 226.238281 59.539063 C 226.238281 59.519531 226.238281 59.398438 226.273438 59.261719 L 227.429688 54.617188 L 229.503906 54.617188 C 231.140625 54.617188 231.453125 55.652344 231.453125 56.222656 C 231.453125 56.480469 231.28125 57.15625 231.160156 57.605469 C 230.96875 58.398438 230.917969 58.589844 230.917969 58.917969 C 230.917969 60.140625 231.917969 60.710938 233.078125 60.710938 C 234.476563 60.710938 235.078125 59.003906 235.078125 58.761719 C 235.078125 58.640625 234.992188 58.589844 234.890625 58.589844 C 234.753906 58.589844 234.71875 58.691406 234.683594 58.828125 C 234.265625 60.054688 233.558594 60.367188 233.128906 60.367188 C 232.695313 60.367188 232.421875 60.175781 232.421875 59.398438 C 232.421875 58.984375 232.628906 57.414063 232.644531 57.328125 C 232.730469 56.6875 232.730469 56.621094 232.730469 56.480469 C 232.730469 55.21875 231.714844 54.6875 231.054688 54.476563 "
       style=" stroke:none;fill-rule:nonzero;fill:rgb(0%,0%,100%);fill-opacity:1;" />
    <path
       id="path52"
       transform="matrix(0.1,0,0,-0.1,0,135.35)"
       d="M 894.335938 383.773438 L 359.726563 383.773438 L 359.726563 687.601563 M 359.726563 930.335938 L 359.726563 1234.164063 L 894.335938 1234.164063 M 926.679688 1201.859375 L 926.679688 1035.765625 M 926.679688 582.210938 L 926.679688 416.117188 M 1493.59375 1201.859375 L 1493.59375 845.296875 M 1493.59375 772.640625 L 1493.59375 416.117188 M 1525.9375 1234.164063 L 2060.546875 1234.164063 L 2060.546875 1043.695313 M 2060.546875 574.242188 L 2060.546875 383.773438 L 1525.9375 383.773438 M 959.023438 1234.164063 L 1461.289063 1234.164063 M 959.023438 383.773438 L 1461.289063 383.773438 M 926.679688 351.429688 L 926.679688 150.804688 "
       style="fill:none;stroke-width:15.9404;stroke-linecap:round;stroke-linejoin:miter;stroke:rgb(0%,0%,0%);stroke-opacity:1;stroke-miterlimit:10;" />
    <path
       id="path54"
       transform="matrix(0.1,0,0,-0.1,0,135.35)"
       d="M 813.28125 142.835938 L 1040.078125 142.835938 M 851.09375 100.296875 L 1002.265625 100.296875 M 888.867188 57.796875 L 964.492188 57.796875 "
       style="fill:none;stroke-width:15.9404;stroke-linecap:round;stroke-linejoin:miter;stroke:rgb(0%,0%,0%);stroke-opacity:1;stroke-miterlimit:10;" />
  </g>
</svg>
