<?xml version="1.0" encoding="UTF-8" standalone="no"?>
<svg
   xmlns:dc="http://purl.org/dc/elements/1.1/"
   xmlns:cc="http://creativecommons.org/ns#"
   xmlns:rdf="http://www.w3.org/1999/02/22-rdf-syntax-ns#"
   xmlns:svg="http://www.w3.org/2000/svg"
   xmlns="http://www.w3.org/2000/svg"
   viewBox="0 0 318.20001 318.42667"
   height="318.42667"
   width="318.20001"
   xml:space="preserve"
   id="svg2"
   version="1.1"><metadata
     id="metadata8"><rdf:RDF><cc:Work
         rdf:about=""><dc:format>image/svg+xml</dc:format><dc:type
           rdf:resource="http://purl.org/dc/dcmitype/StillImage" /></cc:Work></rdf:RDF></metadata><defs
     id="defs6" /><g
     transform="matrix(1.3333333,0,0,-1.3333333,0,318.42667)"
     id="g10"><g
       transform="scale(0.1)"
       id="g12"><path
         id="path14"
         style="fill:#000000;fill-opacity:1;fill-rule:nonzero;stroke:none"
         d="m 268.859,1209.98 c -17.093,3.8 -17.609,16.24 -17.609,18.66 0,8.8 5.703,18.99 22.453,18.99 16.75,0 31.766,-8.11 35.406,-30.74 0.516,-3.62 0.516,-3.8 3.797,-3.8 3.625,0 3.625,0.52 3.625,4.49 v 32.47 c 0,3.28 0,4.5 -2.593,4.5 -1.204,0 -1.735,-0.17 -3.282,-1.91 l -7.422,-8.47 c -4.328,3.64 -12.953,10.38 -29.703,10.38 -24.703,0 -37.828,-15.55 -37.828,-34.38 0,-11.56 6.219,-19.69 8.641,-22.11 8.984,-8.97 13.812,-10.01 31.781,-13.98 17.266,-3.8 19.328,-4.14 23.141,-7.77 2.234,-2.25 7.25,-7.08 7.25,-15.89 0,-7.42 -3.625,-21.06 -22.969,-21.06 -15.203,0 -39.203,5.17 -40.594,30.39 -0.172,3.11 -0.172,3.63 -3.625,3.63 -3.625,0 -3.625,-0.52 -3.625,-4.49 v -32.47 c 0,-3.28 0,-4.5 2.594,-4.5 1.203,0 1.375,0.17 3.109,1.74 1.907,1.89 3.453,4.14 7.766,8.45 10.016,-7.94 24.187,-10.19 34.547,-10.19 26.937,0 38.328,18.31 38.328,36.61 0,16.24 -10.703,31.78 -29.531,36.1 l -23.657,5.35" /><path
         id="path16"
         style="fill:#000000;fill-opacity:1;fill-rule:nonzero;stroke:none"
         d="m 369.469,1203.25 h 19.687 v 7.42 h -20.547 v 17.8 c 0,17.95 11.407,20.72 17.094,20.72 1.906,0 2.25,-0.17 3.281,-0.52 -2.578,-1.73 -4.14,-4.67 -4.14,-8.29 0,-6.91 5.531,-10.02 10.015,-10.02 3.797,0 10.016,2.59 10.016,10.19 0,7.08 -6.219,14.34 -18.469,14.34 -15.718,0 -34.89,-6.56 -34.89,-26.59 v -17.63 h -12.782 v -7.42 h 12.782 v -61.83 H 339.594 V 1134 c 3.984,0.34 16.922,0.34 21.765,0.34 5,0 19,0 23.141,-0.34 v 7.42 h -15.031 v 61.83" /><path
         id="path18"
         style="fill:#0000ff;fill-opacity:1;fill-rule:nonzero;stroke:none"
         d="m 131.875,1162.69 c 0,0.87 -0.687,1.56 -1.734,1.56 -1.547,0 -1.719,-0.52 -2.578,-3.45 -4.5,-15.72 -11.579,-21.07 -17.282,-21.07 -2.062,0 -4.484,0.52 -4.484,5.69 0,4.67 2.078,9.85 3.969,15.03 l 12.093,32.13 c 0.516,1.37 1.719,4.48 1.719,7.76 0,7.25 -5.172,13.82 -13.64,13.82 -15.8911,0 -22.2817,-25.03 -22.2817,-26.43 0,-0.68 0.7031,-1.54 1.9062,-1.54 1.5469,0 1.7344,0.69 2.4219,3.11 4.1406,14.5 10.7036,21.4 17.4376,21.4 1.547,0 4.484,-0.17 4.484,-5.7 0,-4.48 -2.234,-10.19 -3.625,-13.98 l -12.0779,-32.13 c -1.0468,-2.75 -2.0781,-5.51 -2.0781,-8.62 0,-7.79 5.359,-14 13.641,-14 15.89,0 22.109,25.21 22.109,26.42 z m -1.391,83.08 c 0,2.57 -2.062,5.68 -5.859,5.68 -3.984,0 -8.469,-3.79 -8.469,-8.28 0,-4.31 3.625,-5.7 5.703,-5.7 4.657,0 8.625,4.5 8.625,8.3" /><path
         id="path20"
         style="fill:#0000ff;fill-opacity:1;fill-rule:nonzero;stroke:none"
         d="m 188.672,1224.17 c 0,4.33 -3.453,7.1 -7.078,7.1 -3.453,0 -7.094,-2.77 -7.094,-7.1 0,-4.31 3.453,-7.08 7.094,-7.08 3.453,0 7.078,2.77 7.078,7.08 z m 0,-60.09 c 0,4.31 -3.453,7.08 -7.078,7.08 -3.453,0 -7.094,-2.77 -7.094,-7.08 0,-4.31 3.453,-7.08 7.094,-7.08 3.453,0 7.078,2.77 7.078,7.08" /><path
         id="path22"
         style="fill:#000000;fill-opacity:1;fill-rule:nonzero;stroke:none"
         d="m 1208.28,1194.09 c 0,16.58 0,58.19 -40.75,58.19 -40.94,0 -40.94,-41.44 -40.94,-58.19 0,-16.57 0,-57.17 40.77,-57.17 40.75,0 40.92,40.08 40.92,57.17 z m -40.75,-51.46 c -5.53,0 -9.67,2.25 -13.12,5.87 -4.33,4.31 -7.08,7.08 -7.08,47.66 0,12.09 0,23.14 1.37,32.12 2.43,17.1 14.86,18.31 18.66,18.31 5.52,0 16.23,-2.59 18.64,-17.11 1.56,-8.79 1.56,-22.78 1.56,-33.32 0,-40.75 -2.59,-43.18 -7.78,-48.35 -3.45,-3.45 -8.11,-5.18 -12.25,-5.18" /><path
         id="path24"
         style="fill:#0000ff;fill-opacity:1;fill-rule:nonzero;stroke:none"
         d="m 1322.89,993.016 c 2.25,-9.672 10.53,-11.75 14.67,-11.75 5.53,0 9.67,3.64 12.44,9.5 2.94,6.218 5.19,16.404 5.19,16.924 0,0.87 -0.71,1.56 -1.74,1.56 -1.54,0 -1.72,-0.86 -2.42,-3.45 -3.11,-11.925 -6.2,-21.066 -13.12,-21.066 -5.18,0 -5.18,5.688 -5.18,7.938 0,3.969 0.52,5.703 2.25,12.958 1.21,4.65 2.41,9.32 3.46,14.15 l 7.08,28.16 c 1.2,4.31 1.2,4.65 1.2,5.17 0,2.59 -2.08,4.33 -4.66,4.33 -5.01,0 -6.22,-4.33 -7.26,-8.64 -1.72,-6.74 -11.05,-43.86 -12.25,-49.909 -0.17,0 -6.91,-14.157 -19.52,-14.157 -8.98,0 -10.7,7.766 -10.7,14.157 0,9.839 4.83,23.659 9.31,35.239 2.08,5.51 2.94,7.76 2.94,11.21 0,7.43 -5.35,13.82 -13.64,13.82 -15.89,0 -22.28,-25.03 -22.28,-26.43 0,-0.68 0.7,-1.54 1.9,-1.54 1.55,0 1.74,0.69 2.42,3.11 4.15,14.84 10.88,21.4 17.44,21.4 1.74,0 4.49,-0.17 4.49,-5.7 0,-4.48 -1.89,-9.5 -4.49,-16.06 -7.59,-20.55 -8.47,-27.11 -8.47,-32.28 0,-17.629 13.3,-20.394 20.39,-20.394 11.05,0 17.1,7.609 20.55,11.75" /><path
         id="path26"
         style="fill:#000000;fill-opacity:1;fill-rule:nonzero;stroke:none"
         d="m 1226.34,2101.05 c 0,3.97 0,4.5 -3.79,4.5 l -12.96,-12.44 c -9.67,8.28 -21.23,12.44 -34.01,12.44 -41.28,0 -67.88,-25.05 -67.88,-61.32 0,-35.57 25.74,-61.31 68.05,-61.31 30.73,0 50.59,21.08 50.59,41.46 0,2.93 -1.03,3.1 -3.62,3.1 -1.72,0 -3.45,0 -3.63,-1.9 -1.54,-26.25 -23.82,-35.22 -39.37,-35.22 -11.22,0 -26.42,3.11 -36.09,13.98 -6.05,6.57 -11.57,16.07 -11.57,39.89 0,16.93 2.58,29.54 10.71,39.21 11.04,12.95 28.31,14.67 36.61,14.67 12.95,0 33.84,-7.25 39.03,-37.64 0.34,-1.56 1.89,-1.56 3.97,-1.56 3.96,0 3.96,0.36 3.96,4.5 v 37.64" /><path
         id="path28"
         style="fill:#0000ff;fill-opacity:1;fill-rule:nonzero;stroke:none"
         d="m 1230,2308.02 c 0,1.56 -1.2,1.56 -1.55,1.56 -0.34,0 -1.04,0 -2.42,-1.74 l -11.92,-14.5 c -6.05,10.36 -15.53,16.24 -28.48,16.24 -37.32,0 -75.99,-37.83 -75.99,-78.41 0,-28.84 20.2,-46.79 45.41,-46.79 13.83,0 25.9,5.87 35.92,14.32 15.03,12.61 19.51,29.36 19.51,30.75 0,1.55 -1.37,1.55 -1.89,1.55 -1.56,0 -1.73,-1.03 -2.07,-1.72 -7.94,-26.95 -31.25,-39.9 -48.54,-39.9 -18.29,0 -34.18,11.75 -34.18,36.26 0,5.53 1.72,35.58 21.23,58.2 9.5,11.05 25.74,20.72 42.14,20.72 19,0 27.46,-15.7 27.46,-33.33 0,-4.48 -0.52,-8.28 -0.52,-8.96 0,-1.57 1.73,-1.57 2.25,-1.57 1.91,0 2.08,0.18 2.77,3.28 l 10.87,44.04" /><path
         id="path30"
         style="fill:#0000ff;fill-opacity:1;fill-rule:nonzero;stroke:none"
         d="m 1136.83,2153.67 c -4.33,0 -7.1,-3.45 -7.1,-7.08 0,-3.45 2.77,-7.09 7.1,-7.09 4.31,0 7.08,3.45 7.08,7.09 0,3.46 -2.77,7.08 -7.08,7.08 z m 60.09,0 c -4.31,0 -7.08,-3.45 -7.08,-7.08 0,-3.45 2.77,-7.09 7.08,-7.09 4.31,0 7.08,3.45 7.08,7.09 0,3.46 -2.77,7.08 -7.08,7.08" /><path
         id="path32"
         style="fill:#000000;fill-opacity:1;fill-rule:nonzero;stroke:none"
         d="m 2036.36,1193.72 c 23.31,6.22 29.02,18.64 29.02,27.97 0,17.28 -18.15,31.78 -50.1,31.78 h -63.72 v -7.42 h 18.32 v -103.63 h -18.32 V 1135 c 5.02,0.34 22.97,0.34 29.19,0.34 6.22,0 24.34,0 29.36,-0.34 v 7.42 h -18.31 v 49.05 h 20.54 c 6.93,0 12.44,-2.06 16.24,-6.56 5.19,-5.88 5.19,-9.68 5.19,-21.24 0,-11.58 0,-18.65 8.81,-24.53 8.97,-6.05 23.14,-6.22 26.94,-6.22 17.61,0 19.68,15.55 19.68,17.97 0,2.94 -1.39,3.45 -3.62,3.45 -3.28,0 -3.45,-1.2 -3.63,-3.45 -0.87,-8.64 -6.22,-12.26 -11.06,-12.26 -11.05,0 -12.26,11.57 -13.64,27.45 -1.03,9.15 -2.25,21.94 -20.89,27.64 z m -24.36,3.45 h -20.2 v 48.88 h 20.54 c 28.16,0 28.68,-14.17 28.68,-24.36 0,-9.5 -0.18,-24.52 -29.02,-24.52" /><path
         id="path34"
         style="fill:#0000ff;fill-opacity:1;fill-rule:nonzero;stroke:none"
         d="m 2237.55,1241.2 c 1.56,6.39 2.25,6.74 8.98,6.74 h 12.44 c 14.84,0 25.91,-4.49 25.91,-17.96 0,-8.81 -4.5,-34.2 -39.21,-34.2 h -19.51 z m 24.01,-47.48 c 21.41,4.66 38.16,18.47 38.16,33.33 0,13.47 -13.64,25.9 -37.64,25.9 h -46.8 c -3.47,0 -5.01,0 -5.01,-3.28 0,-1.73 1.2,-1.73 4.48,-1.73 10.38,0 10.38,-1.38 10.38,-3.28 0,-0.35 0,-1.38 -0.71,-3.97 l -23.31,-92.91 c -1.55,-6.05 -1.89,-7.76 -13.81,-7.76 -3.97,0 -5.19,0 -5.19,-3.29 0,-1.73 1.91,-1.73 2.42,-1.73 3.11,0 6.74,0.34 10.02,0.34 h 20.37 c 3.11,0 6.74,-0.34 9.85,-0.34 1.39,0 3.28,0 3.28,3.28 0,1.74 -1.55,1.74 -4.14,1.74 -10.53,0 -10.53,1.37 -10.53,3.09 0,0.19 0,1.39 0.34,2.77 l 11.58,46.45 h 20.72 c 16.4,0 19.51,-10.36 19.51,-16.05 0,-2.59 -1.73,-9.33 -2.94,-13.83 -1.9,-7.93 -2.42,-9.84 -2.42,-13.12 0,-12.25 10.02,-17.95 21.6,-17.95 13.98,0 20.03,17.09 20.03,19.51 0,1.2 -0.86,1.72 -1.91,1.72 -1.37,0 -1.72,-1.03 -2.06,-2.41 -4.16,-12.26 -11.24,-15.37 -15.55,-15.37 -4.31,0 -7.08,1.9 -7.08,9.67 0,4.14 2.07,19.86 2.24,20.72 0.87,6.39 0.87,7.08 0.87,8.47 0,12.61 -10.18,17.95 -16.75,20.03" /><path
         id="path36"
         style="fill:#0000ff;fill-opacity:1;fill-rule:nonzero;stroke:none"
         d="m 2139.67,1224.17 c 0,4.33 -3.45,7.1 -7.08,7.1 -3.45,0 -7.09,-2.77 -7.09,-7.1 0,-4.31 3.45,-7.08 7.09,-7.08 3.46,0 7.08,2.77 7.08,7.08 z m 0,-60.09 c 0,4.31 -3.45,7.08 -7.08,7.08 -3.45,0 -7.09,-2.77 -7.09,-7.08 0,-4.31 3.45,-7.08 7.09,-7.08 3.46,0 7.08,2.77 7.08,7.08" /><path
         id="path38"
         style="fill:#000000;fill-opacity:1;fill-rule:nonzero;stroke:none"
         d="m 1178.48,396.047 h 19.35 v 7.422 c -6.22,-0.344 -23.49,-0.344 -30.74,-0.344 -7.25,0 -24.51,0 -30.73,0.344 v -7.422 h 19.33 V 292.422 h -19.33 V 285 c 6.22,0.344 23.48,0.344 30.73,0.344 7.25,0 24.52,0 30.74,-0.344 v 7.422 h -19.35 v 103.625" /><path
         id="path40"
         style="fill:#0000ff;fill-opacity:1;fill-rule:nonzero;stroke:none"
         d="m 1173.38,187.656 c 1.56,6.563 2.07,8.282 17.26,8.282 4.67,0 5.88,0 5.88,3.281 0,1.734 -1.89,1.734 -2.6,1.734 -3.45,0 -7.42,-0.344 -10.87,-0.344 h -23.14 c -3.28,0 -7.08,0.344 -10.36,0.344 -1.38,0 -3.28,0 -3.28,-3.281 0,-1.734 1.54,-1.734 4.14,-1.734 10.53,0 10.53,-1.375 10.53,-3.282 0,-0.343 0,-1.375 -0.69,-3.968 l -23.31,-92.9067 c -1.55,-6.0469 -1.89,-7.7657 -13.99,-7.7657 -3.28,0 -5.01,0 -5.01,-3.1093 0,-1.9063 1.04,-1.9063 4.5,-1.9063 h 77.36 c 3.79,0 3.97,0.1719 5.18,3.2813 l 13.3,36.7817 c 0.35,0.859 0.69,1.906 0.69,2.421 0,1.032 -0.86,1.719 -1.72,1.719 -0.19,0 -1.05,0 -1.39,-0.687 -0.34,-0.172 -0.34,-0.516 -1.72,-3.797 -5.53,-15.203 -13.3,-34.7034 -42.48,-34.7034 h -16.58 c -2.42,0 -2.77,0 -3.8,0.1719 -1.9,0.1719 -2.08,0.5156 -2.08,1.8906 0,1.2188 0.35,2.25 0.69,3.7969 l 23.49,93.781" /><path
         id="path42"
         style="fill:#0000ff;fill-opacity:1;fill-rule:nonzero;stroke:none"
         d="m 1197.17,234.328 c 4.33,0 7.1,3.453 7.1,7.078 0,3.453 -2.77,7.094 -7.1,7.094 -4.31,0 -7.08,-3.453 -7.08,-7.094 0,-3.453 2.77,-7.078 7.08,-7.078 z m -60.09,0 c 4.31,0 7.08,3.453 7.08,7.078 0,3.453 -2.77,7.094 -7.08,7.094 -4.31,0 -7.08,-3.453 -7.08,-7.094 0,-3.453 2.77,-7.078 7.08,-7.078" /><path
         id="path44"
         style="fill:none;stroke:#000000;stroke-width:15.9404;stroke-linecap:butt;stroke-linejoin:miter;stroke-miterlimit:10;stroke-dasharray:none;stroke-opacity:1"
         d="M 473.699,1194.13 H 1028.08" /><path
         id="path46"
         style="fill:none;stroke:#000000;stroke-width:15.9404;stroke-linecap:butt;stroke-linejoin:miter;stroke-miterlimit:10;stroke-dasharray:none;stroke-opacity:1"
         d="m 469.715,1130.37 v 127.52" /><path
         id="path48"
         style="fill:none;stroke:#000000;stroke-width:15.9404;stroke-linecap:butt;stroke-linejoin:miter;stroke-miterlimit:10;stroke-dasharray:none;stroke-opacity:1"
         d="m 1028.08,1194.13 h 15.94 l -68.707,-57.66" /><path
         id="path50"
         style="fill:none;stroke:#000000;stroke-width:15.9404;stroke-linecap:butt;stroke-linejoin:miter;stroke-miterlimit:10;stroke-dasharray:none;stroke-opacity:1"
         d="m 1167.14,1314.36 v 580.47" /><path
         id="path52"
         style="fill:none;stroke:#000000;stroke-width:15.9404;stroke-linecap:butt;stroke-linejoin:miter;stroke-miterlimit:10;stroke-dasharray:none;stroke-opacity:1"
         d="M 1230.9,1310.38 H 1103.38" /><path
         id="path54"
         style="fill:none;stroke:#000000;stroke-width:15.9404;stroke-linecap:butt;stroke-linejoin:miter;stroke-miterlimit:10;stroke-dasharray:none;stroke-opacity:1"
         d="m 1167.14,1894.83 v 15.94 l 57.66,-68.7" /><path
         id="path56"
         style="fill:none;stroke:#000000;stroke-width:15.9404;stroke-linecap:butt;stroke-linejoin:miter;stroke-miterlimit:10;stroke-dasharray:none;stroke-opacity:1"
         d="m 1268.36,1194.13 h 570.37" /><path
         id="path58"
         style="fill:none;stroke:#000000;stroke-width:15.9404;stroke-linecap:butt;stroke-linejoin:miter;stroke-miterlimit:10;stroke-dasharray:none;stroke-opacity:1"
         d="m 1838.73,1194.13 h 15.94 l -68.71,-57.66" /><path
         id="path60"
         style="fill:none;stroke:#000000;stroke-width:15.9404;stroke-linecap:butt;stroke-linejoin:miter;stroke-miterlimit:10;stroke-dasharray:none;stroke-opacity:1"
         d="M 1884.54,1257.89 V 1130.37" /><path
         id="path62"
         style="fill:none;stroke:#000000;stroke-width:15.9404;stroke-linecap:butt;stroke-linejoin:miter;stroke-miterlimit:10;stroke-dasharray:none;stroke-opacity:1"
         d="M 1167.14,1085.86 V 509.371" /><path
         id="path64"
         style="fill:none;stroke:#000000;stroke-width:15.9404;stroke-linecap:butt;stroke-linejoin:miter;stroke-miterlimit:10;stroke-dasharray:none;stroke-opacity:1"
         d="M 1167.14,509.371 V 493.43 l 57.66,68.703" /><path
         id="path66"
         style="fill:none;stroke:#000000;stroke-width:15.9404;stroke-linecap:butt;stroke-linejoin:miter;stroke-miterlimit:10;stroke-dasharray:none;stroke-opacity:1"
         d="M 1230.9,463.559 H 1103.38" /></g></g></svg>
