<?xml version="1.0" encoding="UTF-8" standalone="no"?>
<svg
   xmlns:dc="http://purl.org/dc/elements/1.1/"
   xmlns:cc="http://creativecommons.org/ns#"
   xmlns:rdf="http://www.w3.org/1999/02/22-rdf-syntax-ns#"
   xmlns:svg="http://www.w3.org/2000/svg"
   xmlns="http://www.w3.org/2000/svg"
   id="svg16"
   version="1.2"
   viewBox="0 0 117.37 44.07"
   height="44.07pt"
   width="117.37pt">
  <metadata
     id="metadata20">
    <rdf:RDF>
      <cc:Work
         rdf:about="">
        <dc:format>image/svg+xml</dc:format>
        <dc:type
           rdf:resource="http://purl.org/dc/dcmitype/StillImage" />
      </cc:Work>
    </rdf:RDF>
  </metadata>
  <defs
     id="defs5">
    <clipPath
       id="clip1">
      <path
         id="path2"
         d="M 24 0 L 93 0 L 93 44.070313 L 24 44.070313 Z M 24 0 " />
    </clipPath>
  </defs>
  <g
     id="surface1">
    <g
       id="g9"
       clip-rule="nonzero"
       clip-path="url(#clip1)">
      <path
         id="path7"
         transform="matrix(0.1,0,0,-0.1,0,44.07)"
         d="M 700.234375 107.41875 L 697.734375 124.996875 L 692.539063 141.754687 L 684.84375 157.379687 L 674.921875 171.403125 L 663.007813 183.590625 L 649.492188 193.66875 L 634.726563 201.403125 L 619.101563 206.6375 L 603.007813 209.332812 L 586.835938 209.489062 L 571.054688 207.10625 L 556.015625 202.340625 L 542.070313 195.348437 L 529.53125 186.325 L 518.671875 175.582812 L 509.765625 163.434375 L 502.96875 150.153125 L 498.398438 136.16875 L 496.132813 121.79375 L 496.132813 107.41875 L 498.359375 93.395312 L 502.734375 80.075 L 509.0625 67.770312 L 517.109375 56.754687 L 526.71875 47.301562 L 537.539063 39.528125 L 549.257813 33.66875 L 561.601563 29.7625 L 574.257813 27.8875 L 586.835938 28.04375 L 599.101563 30.114062 L 610.703125 34.059375 L 621.367188 39.723437 L 630.859375 46.871875 L 638.984375 55.309375 L 645.585938 64.7625 L 650.507813 74.996875 L 653.75 85.7 L 655.195313 96.598437 L 654.921875 107.41875 L 652.96875 117.8875 L 649.414063 127.770312 L 644.453125 136.79375 L 638.242188 144.7625 L 630.976563 151.559375 L 622.851563 156.989062 L 614.140625 161.0125 L 605.078125 163.551562 L 595.898438 164.567187 L 586.835938 164.176562 L 578.164063 162.340625 L 570.039063 159.215625 L 562.65625 154.957812 L 556.171875 149.645312 L 550.742188 143.551562 L 546.445313 136.79375 L 543.359375 129.567187 L 541.523438 122.145312 L 540.898438 114.723437 L 541.445313 107.41875 L 543.125 100.504687 L 545.820313 94.098437 L 549.414063 88.35625 L 553.789063 83.395312 L 558.75 79.332812 L 564.179688 76.207812 L 569.84375 74.059375 L 575.625 72.8875 L 581.328125 72.653125 L 586.835938 73.35625 L 591.992188 74.91875 L 596.679688 77.184375 L 600.78125 80.114062 L 604.21875 83.551562 L 606.953125 87.340625 L 608.90625 91.403125 L 610.15625 95.582812 L 610.625 99.684375 L 610.429688 103.707812 L 609.570313 107.41875 L 473.476563 107.41875 "
         style="fill:none;stroke-width:15.9404;stroke-linecap:round;stroke-linejoin:miter;stroke:rgb(0%,0%,0%);stroke-opacity:1;stroke-miterlimit:10;" />
    </g>
    <path
       id="path11"
       d="M 64.898438 5.070313 C 64.898438 4.914063 64.78125 4.914063 64.746094 4.914063 C 64.710938 4.914063 64.640625 4.914063 64.503906 5.085938 L 63.3125 6.535156 C 62.707031 5.5 61.757813 4.914063 60.460938 4.914063 C 56.730469 4.914063 52.863281 8.695313 52.863281 12.753906 C 52.863281 15.636719 54.882813 17.433594 57.40625 17.433594 C 58.789063 17.433594 59.996094 16.84375 60.996094 16 C 62.5 14.738281 62.949219 13.0625 62.949219 12.925781 C 62.949219 12.769531 62.8125 12.769531 62.757813 12.769531 C 62.601563 12.769531 62.585938 12.875 62.550781 12.941406 C 61.757813 15.636719 59.425781 16.933594 57.699219 16.933594 C 55.867188 16.933594 54.28125 15.757813 54.28125 13.304688 C 54.28125 12.753906 54.453125 9.75 56.402344 7.484375 C 57.351563 6.382813 58.976563 5.414063 60.617188 5.414063 C 62.515625 5.414063 63.363281 6.984375 63.363281 8.746094 C 63.363281 9.195313 63.3125 9.574219 63.3125 9.644531 C 63.3125 9.800781 63.484375 9.800781 63.535156 9.800781 C 63.726563 9.800781 63.742188 9.78125 63.8125 9.472656 L 64.898438 5.070313 "
       style=" stroke:none;fill-rule:nonzero;fill:rgb(0%,0%,100%);fill-opacity:1;" />
    <path
       id="path13"
       transform="matrix(0.1,0,0,-0.1,0,44.07)"
       d="M 19.921875 107.41875 L 473.476563 107.41875 M 700.234375 107.41875 L 1153.789063 107.41875 "
       style="fill:none;stroke-width:15.9404;stroke-linecap:round;stroke-linejoin:miter;stroke:rgb(0%,0%,0%);stroke-opacity:1;stroke-miterlimit:10;" />
  </g>
</svg>
