<?xml version="1.0" encoding="UTF-8" standalone="no"?>
<svg
   xmlns:dc="http://purl.org/dc/elements/1.1/"
   xmlns:cc="http://creativecommons.org/ns#"
   xmlns:rdf="http://www.w3.org/1999/02/22-rdf-syntax-ns#"
   xmlns:svg="http://www.w3.org/2000/svg"
   xmlns="http://www.w3.org/2000/svg"
   id="svg16"
   version="1.2"
   viewBox="0 0 117.37 47.46"
   height="47.46pt"
   width="117.37pt">
  <metadata
     id="metadata20">
    <rdf:RDF>
      <cc:Work
         rdf:about="">
        <dc:format>image/svg+xml</dc:format>
        <dc:type
           rdf:resource="http://purl.org/dc/dcmitype/StillImage" />
      </cc:Work>
    </rdf:RDF>
  </metadata>
  <defs
     id="defs5">
    <clipPath
       id="clip1">
      <path
         id="path2"
         d="M 13 0 L 104 0 L 104 47.460938 L 13 47.460938 Z M 13 0 " />
    </clipPath>
  </defs>
  <g
     id="surface1">
    <g
       id="g9"
       clip-rule="nonzero"
       clip-path="url(#clip1)">
      <path
         id="path7"
         transform="matrix(0.1,0,0,-0.1,0,47.46)"
         d="M 360.078125 141.279688 L 362.34375 125.303125 L 365.429688 109.678125 L 369.296875 94.639063 L 373.90625 80.576563 L 379.21875 67.685938 L 385.15625 56.279688 L 391.640625 46.553125 L 398.59375 38.701563 L 405.898438 32.920313 L 413.398438 29.2875 L 421.054688 27.920313 L 428.75 28.779688 L 436.328125 31.904688 L 443.671875 37.178125 L 450.703125 44.521875 L 457.304688 53.81875 L 463.398438 64.873438 L 468.867188 77.4125 L 473.632813 91.240625 L 477.695313 106.084375 L 480.976563 121.592188 L 483.4375 137.529688 L 485.039063 153.50625 L 485.859375 169.2875 L 485.898438 184.482813 L 485.15625 198.779688 L 483.710938 211.982813 L 481.601563 223.779688 L 478.945313 233.896875 L 475.820313 242.178125 L 472.304688 248.467188 L 468.515625 252.607813 L 464.609375 254.521875 L 460.625 254.170313 L 456.71875 251.592188 L 453.007813 246.826563 L 449.609375 239.9125 L 446.601563 231.084375 L 444.101563 220.420313 L 442.1875 208.19375 L 440.9375 194.639063 L 440.429688 180.029688 L 440.664063 164.639063 L 441.71875 148.779688 L 443.632813 132.764063 L 446.328125 116.94375 L 449.804688 101.592188 L 454.101563 87.021875 L 459.101563 73.545313 L 464.765625 61.435938 L 470.976563 50.889063 L 477.734375 42.139063 L 484.882813 35.38125 L 492.304688 30.732813 L 499.921875 28.271875 L 507.578125 28.076563 L 515.234375 30.146875 L 522.695313 34.44375 L 529.882813 40.85 L 536.71875 49.248438 L 543.046875 59.482813 L 548.828125 71.357813 L 553.90625 84.639063 L 558.320313 99.014063 L 561.953125 114.248438 L 564.804688 130.029688 L 566.835938 146.045313 L 568.007813 161.94375 L 568.398438 177.4125 L 568.007813 192.217188 L 566.914063 205.967188 L 565.117188 218.428125 L 562.695313 229.365625 L 559.765625 238.545313 L 556.445313 245.771875 L 552.773438 250.928125 L 548.90625 253.896875 L 544.921875 254.639063 L 540.976563 253.076563 L 537.148438 249.326563 L 533.59375 243.428125 L 530.390625 235.459375 L 527.65625 225.615625 L 525.429688 214.13125 L 523.867188 201.1625 L 523.007813 187.021875 L 522.890625 171.94375 L 523.554688 156.240625 L 525.078125 140.303125 L 527.382813 124.326563 L 530.507813 108.701563 L 534.453125 93.740625 L 539.101563 79.717188 L 544.453125 66.904688 L 550.429688 55.615625 L 556.953125 46.00625 L 563.90625 38.310938 L 571.210938 32.646875 L 578.75 29.170313 L 586.445313 27.920313 L 594.101563 28.896875 L 601.640625 32.139063 L 608.984375 37.56875 L 616.015625 45.06875 L 622.578125 54.482813 L 628.632813 65.615625 L 634.0625 78.232813 L 638.789063 92.139063 L 642.8125 107.021875 L 646.015625 122.607813 L 648.4375 138.50625 L 650 154.521875 L 650.78125 170.225 L 650.742188 185.38125 L 649.960938 199.678125 L 648.476563 212.764063 L 646.328125 224.44375 L 643.632813 234.482813 L 640.46875 242.646875 L 636.953125 248.779688 L 633.164063 252.803125 L 629.21875 254.560938 L 625.234375 254.092188 L 621.367188 251.357813 L 617.65625 246.435938 L 614.257813 239.44375 L 611.289063 230.459375 L 608.828125 219.717188 L 606.953125 207.4125 L 605.78125 193.779688 L 605.3125 179.092188 L 605.585938 163.6625 L 606.71875 147.803125 L 608.632813 131.7875 L 611.367188 115.967188 L 614.921875 100.654688 L 619.257813 86.1625 L 624.296875 72.764063 L 630 60.732813 L 636.289063 50.264063 L 643.046875 41.670313 L 650.195313 35.029688 L 657.65625 30.498438 L 665.273438 28.19375 L 672.929688 28.154688 L 680.585938 30.342188 L 688.046875 34.75625 L 695.195313 41.31875 L 701.992188 49.834375 L 708.28125 60.185938 L 714.023438 72.139063 L 719.101563 85.498438 L 723.4375 99.951563 L 727.03125 115.225 L 729.84375 131.045313 L 731.796875 147.021875 L 732.929688 162.920313 L 733.28125 178.389063 L 732.851563 193.076563 L 731.679688 206.7875 L 729.84375 219.170313 L 727.382813 229.990625 L 724.453125 239.053125 L 721.09375 246.1625 L 717.382813 251.201563 L 713.515625 254.014063 L 709.53125 254.6 L 705.585938 252.920313 L 701.796875 249.014063 L 698.242188 242.959375 L 695.078125 234.9125 L 692.34375 224.951563 L 690.195313 213.35 L 688.671875 200.303125 L 687.851563 186.084375 L 687.773438 170.967188 L 688.515625 155.264063 L 690.078125 139.2875 L 692.421875 123.35 L 695.625 107.764063 L 699.570313 92.842188 L 704.296875 78.896875 L 709.6875 66.1625 L 715.703125 54.951563 L 722.226563 45.459375 L 729.21875 37.88125 L 736.5625 32.373438 L 744.101563 29.014063 L 751.757813 27.88125 L 759.453125 29.053125 L 766.992188 32.4125 L 774.335938 37.998438 L 781.289063 45.576563 L 787.851563 55.107813 L 793.867188 66.357813 L 799.21875 79.092188 L 803.945313 93.0375 L 807.890625 107.959375 L 811.054688 123.584375 L 813.398438 139.521875 "
         style="fill:none;stroke-width:15.9404;stroke-linecap:round;stroke-linejoin:miter;stroke:rgb(0%,0%,0%);stroke-opacity:1;stroke-miterlimit:10;" />
    </g>
    <path
       id="path11"
       d="M 64.898438 5.058594 C 64.898438 4.902344 64.78125 4.902344 64.746094 4.902344 C 64.710938 4.902344 64.640625 4.902344 64.503906 5.074219 L 63.3125 6.527344 C 62.707031 5.488281 61.757813 4.902344 60.460938 4.902344 C 56.730469 4.902344 52.863281 8.683594 52.863281 12.742188 C 52.863281 15.628906 54.882813 17.421875 57.40625 17.421875 C 58.789063 17.421875 59.996094 16.835938 60.996094 15.988281 C 62.5 14.730469 62.949219 13.054688 62.949219 12.914063 C 62.949219 12.761719 62.8125 12.761719 62.757813 12.761719 C 62.601563 12.761719 62.585938 12.863281 62.550781 12.933594 C 61.757813 15.628906 59.425781 16.921875 57.699219 16.921875 C 55.867188 16.921875 54.28125 15.746094 54.28125 13.296875 C 54.28125 12.742188 54.453125 9.738281 56.402344 7.476563 C 57.351563 6.371094 58.976563 5.402344 60.617188 5.402344 C 62.515625 5.402344 63.363281 6.972656 63.363281 8.738281 C 63.363281 9.183594 63.3125 9.566406 63.3125 9.632813 C 63.3125 9.789063 63.484375 9.789063 63.535156 9.789063 C 63.726563 9.789063 63.742188 9.773438 63.8125 9.460938 L 64.898438 5.058594 "
       style=" stroke:none;fill-rule:nonzero;fill:rgb(0%,0%,100%);fill-opacity:1;" />
    <path
       id="path13"
       transform="matrix(0.1,0,0,-0.1,0,47.46)"
       d="M 19.921875 141.279688 L 360.078125 141.279688 M 813.632813 141.279688 L 1153.789063 141.279688 "
       style="fill:none;stroke-width:15.9404;stroke-linecap:round;stroke-linejoin:miter;stroke:rgb(0%,0%,0%);stroke-opacity:1;stroke-miterlimit:10;" />
  </g>
</svg>
