<?xml version="1.0" encoding="UTF-8" standalone="no"?>
<svg
   xmlns:dc="http://purl.org/dc/elements/1.1/"
   xmlns:cc="http://creativecommons.org/ns#"
   xmlns:rdf="http://www.w3.org/1999/02/22-rdf-syntax-ns#"
   xmlns:svg="http://www.w3.org/2000/svg"
   xmlns="http://www.w3.org/2000/svg"
   viewBox="0 0 156.49333 63.279999"
   height="63.279999"
   width="156.49333"
   xml:space="preserve"
   id="svg2"
   version="1.1"><metadata
     id="metadata8"><rdf:RDF><cc:Work
         rdf:about=""><dc:format>image/svg+xml</dc:format><dc:type
           rdf:resource="http://purl.org/dc/dcmitype/StillImage" /></cc:Work></rdf:RDF></metadata><defs
     id="defs6" /><g
     transform="matrix(1.3333333,0,0,-1.3333333,0,63.28)"
     id="g10"><g
       transform="scale(0.1)"
       id="g12"><path
         id="path14"
         style="fill:none;stroke:#000000;stroke-width:15.9404;stroke-linecap:butt;stroke-linejoin:miter;stroke-miterlimit:10;stroke-dasharray:none;stroke-opacity:1"
         d="M 558.504,27.8945 V 254.668 M 615.195,27.8945 V 254.668" /><path
         id="path16"
         style="fill:#0000ff;fill-opacity:1;fill-rule:nonzero;stroke:none"
         d="m 649,424.016 c 0,1.562 -1.203,1.562 -1.547,1.562 -0.344,0 -1.047,0 -2.422,-1.734 l -11.922,-14.5 c -6.046,10.359 -15.531,16.234 -28.484,16.234 -37.312,0 -75.984,-37.828 -75.984,-78.406 0,-28.844 20.203,-46.797 45.406,-46.797 13.828,0 25.906,5.875 35.922,14.328 15.031,12.61 19.515,29.36 19.515,30.75 0,1.547 -1.375,1.547 -1.89,1.547 -1.563,0 -1.735,-1.031 -2.078,-1.719 -7.938,-26.953 -31.25,-39.906 -48.532,-39.906 -18.296,0 -34.187,11.75 -34.187,36.266 0,5.531 1.719,35.578 21.234,58.203 9.5,11.047 25.735,20.719 42.141,20.719 19,0 27.453,-15.704 27.453,-33.329 0,-4.484 -0.516,-8.281 -0.516,-8.968 0,-1.563 1.735,-1.563 2.25,-1.563 1.907,0 2.079,0.172 2.766,3.281 L 649,424.016" /><path
         id="path18"
         style="fill:none;stroke:#000000;stroke-width:15.9404;stroke-linecap:round;stroke-linejoin:miter;stroke-miterlimit:10;stroke-dasharray:none;stroke-opacity:1"
         d="M 19.9141,141.281 H 550.535 m 72.633,0 h 530.622 v 0" /></g></g></svg>
