<?xml version="1.0" encoding="UTF-8" standalone="no"?>
<svg
   xmlns:dc="http://purl.org/dc/elements/1.1/"
   xmlns:cc="http://creativecommons.org/ns#"
   xmlns:rdf="http://www.w3.org/1999/02/22-rdf-syntax-ns#"
   xmlns:svg="http://www.w3.org/2000/svg"
   xmlns="http://www.w3.org/2000/svg"
   viewBox="0 0 156.49333 51.799999"
   height="51.799999"
   width="156.49333"
   xml:space="preserve"
   id="svg2"
   version="1.1"><metadata
     id="metadata8"><rdf:RDF><cc:Work
         rdf:about=""><dc:format>image/svg+xml</dc:format><dc:type
           rdf:resource="http://purl.org/dc/dcmitype/StillImage" /></cc:Work></rdf:RDF></metadata><defs
     id="defs6" /><g
     transform="matrix(1.3333333,0,0,-1.3333333,0,51.8)"
     id="g10"><g
       transform="scale(0.1)"
       id="g12"><path
         id="path14"
         style="fill:none;stroke:#000000;stroke-width:15.9404;stroke-linecap:round;stroke-linejoin:miter;stroke-miterlimit:10;stroke-dasharray:none;stroke-opacity:1"
         d="m 360.074,111.941 h 136.067 m 181.418,0 H 813.625 M 360.074,168.633 416.77,111.941 360.074,55.2461 M 756.93,168.633 813.625,111.941 756.93,55.2461" /><path
         id="path16"
         style="fill:#000000;fill-opacity:1;fill-rule:nonzero;stroke:none"
         d="m 628.953,170.609 h -85.14 v -4.5 c 11.906,0 13.812,0 13.812,-7.765 V 65.2656 c 0,-7.7812 -1.906,-7.7812 -13.812,-7.7812 V 53 c 5,0.3438 14.671,0.3438 20.031,0.3438 7.078,0 15.359,0 22.453,-0.3438 v 4.4844 h -3.813 c -13.125,0 -13.468,1.7344 -13.468,7.9531 v 44.2035 h 15.547 c 16.062,0 17.609,-5.703 17.609,-20.2035 h 3.109 v 44.9065 h -3.109 c 0,-14.516 -1.547,-20.203 -17.609,-20.203 h -15.547 v 45.234 c 0,5.875 0.343,6.734 7.265,6.734 h 22.266 c 26.078,0 29.016,-10.703 31.437,-33.671 h 3.11 l -4.141,38.171" /><path
         id="path18"
         style="fill:#0000ff;fill-opacity:1;fill-rule:nonzero;stroke:none"
         d="m 572.297,274.297 h 16.578 c 13.125,0 14.156,-2.938 14.156,-7.938 0,-2.25 -0.343,-4.671 -1.203,-8.468 -0.359,-0.688 -0.531,-1.547 -0.531,-1.891 0,-1.219 0.703,-1.906 1.906,-1.906 1.375,0 1.547,0.687 2.25,3.453 l 10.016,40.234 c 0,0.688 -0.516,1.735 -1.735,1.735 -1.546,0 -1.718,-0.688 -2.421,-3.625 -3.625,-12.953 -7.079,-16.578 -22.094,-16.578 H 573.5 l 11.219,44.718 c 1.562,6.047 1.906,6.563 8.984,6.563 h 23.141 c 21.594,0 24.703,-6.391 24.703,-18.641 0,-1.047 0,-4.844 -0.531,-9.328 -0.172,-0.703 -0.516,-2.937 -0.516,-3.625 0,-1.391 0.875,-1.906 1.906,-1.906 1.203,0 1.891,0.687 2.25,3.797 l 3.625,30.218 c 0,0.516 0.344,2.25 0.344,2.594 0,1.906 -1.562,1.906 -4.672,1.906 h -81.859 c -3.281,0 -5,0 -5,-3.109 0,-1.906 1.203,-1.906 4.14,-1.906 10.704,0 10.704,-1.203 10.704,-3.11 0,-0.859 -0.172,-1.546 -0.688,-3.453 l -23.312,-93.25 c -1.547,-6.047 -1.891,-7.765 -13.985,-7.765 -3.281,0 -5.015,0 -5.015,-3.11 0,-1.906 1.562,-1.906 2.593,-1.906 3.282,0 6.735,0.344 10.016,0.344 H 564 c 3.797,0 7.938,-0.344 11.75,-0.344 1.547,0 3.625,0 3.625,3.109 0,1.907 -1.047,1.907 -4.844,1.907 -13.64,0 -13.984,1.203 -13.984,3.797 0,0.859 0.344,2.234 0.687,3.453 l 11.063,44.031" /><path
         id="path20"
         style="fill:none;stroke:#000000;stroke-width:15.9404;stroke-linecap:round;stroke-linejoin:miter;stroke-miterlimit:10;stroke-dasharray:none;stroke-opacity:1"
         d="M 19.9141,111.941 H 360.074 m 453.551,0 h 340.165 v 0" /></g></g></svg>
