<?xml version="1.0" encoding="UTF-8" standalone="no"?>
<svg
   xmlns:dc="http://purl.org/dc/elements/1.1/"
   xmlns:cc="http://creativecommons.org/ns#"
   xmlns:rdf="http://www.w3.org/1999/02/22-rdf-syntax-ns#"
   xmlns:svg="http://www.w3.org/2000/svg"
   xmlns="http://www.w3.org/2000/svg"
   viewBox="0 0 156.49333 80.213333"
   height="80.213333"
   width="156.49333"
   xml:space="preserve"
   id="svg2"
   version="1.1"><metadata
     id="metadata8"><rdf:RDF><cc:Work
         rdf:about=""><dc:format>image/svg+xml</dc:format><dc:type
           rdf:resource="http://purl.org/dc/dcmitype/StillImage" /></cc:Work></rdf:RDF></metadata><defs
     id="defs6" /><g
     transform="matrix(1.3333333,0,0,-1.3333333,0,80.213333)"
     id="g10"><g
       transform="scale(0.1)"
       id="g12"><path
         id="path14"
         style="fill:none;stroke:#000000;stroke-width:15.9404;stroke-linecap:round;stroke-linejoin:miter;stroke-miterlimit:10;stroke-dasharray:none;stroke-opacity:1"
         d="m 426.531,276.34 c 31.352,88.543 128.547,134.902 217.09,103.551 C 732.164,348.535 778.523,251.344 747.172,162.801 715.816,74.2578 618.621,27.8945 530.078,59.25 481.719,76.375 443.656,114.438 426.531,162.801 m 160.321,226.851 c 188.972,0 188.972,-113.39 283.464,-113.39 M 755.461,191.77 c 21,-16.547 52.492,-28.895 114.855,-28.895 M 303.383,276.262 h 283.469 c 31.308,0 56.691,-25.379 56.691,-56.692 0,-31.312 -25.383,-56.695 -56.691,-56.695 H 303.383" /><path
         id="path16"
         style="fill:#0000ff;fill-opacity:1;fill-rule:nonzero;stroke:none"
         d="m 572.125,485.922 h 29 c 23.844,0 47.672,17.609 47.672,37.297 0,13.469 -11.406,25.734 -33.156,25.734 h -53.36 c -3.281,0 -4.843,0 -4.843,-3.281 0,-1.734 1.562,-1.734 4.14,-1.734 10.547,0 10.547,-1.375 10.547,-3.282 0,-0.343 0,-1.375 -0.703,-3.968 l -23.313,-92.907 c -1.546,-6.047 -1.89,-7.765 -13.984,-7.765 -3.281,0 -5.016,0 -5.016,-3.11 0,-1.906 1.563,-1.906 2.594,-1.906 3.281,0 6.735,0.344 10.016,0.344 h 20.203 c 3.281,0 6.922,-0.344 10.203,-0.344 1.375,0 3.281,0 3.281,3.281 0,1.735 -1.562,1.735 -4.156,1.735 -10.359,0 -10.531,1.203 -10.531,2.922 0,0.875 0.172,2.078 0.344,2.937 z m 12.422,51.281 c 1.562,6.391 2.25,6.735 8.984,6.735 h 17.094 c 12.953,0 23.656,-4.141 23.656,-17.094 0,-4.485 -2.234,-19.172 -10.187,-27.11 -2.938,-3.109 -11.219,-9.671 -26.938,-9.671 h -24.343 l 11.734,47.14" /><path
         id="path18"
         style="fill:none;stroke:#000000;stroke-width:129.327;stroke-linecap:butt;stroke-linejoin:miter;stroke-miterlimit:10;stroke-dasharray:none;stroke-opacity:1"
         d="M 19.9141,219.57 H 303.383 m 566.933,0 h 283.474 v 0" /><path
         id="path20"
         style="fill:none;stroke:#ffffff;stroke-width:97.4466;stroke-linecap:butt;stroke-linejoin:miter;stroke-miterlimit:10;stroke-dasharray:none;stroke-opacity:1"
         d="M 19.9141,219.57 H 303.383 m 566.933,0 h 283.474 v 0" /></g></g></svg>
