<?xml version="1.0" encoding="UTF-8" standalone="no"?>
<svg
   xmlns:dc="http://purl.org/dc/elements/1.1/"
   xmlns:cc="http://creativecommons.org/ns#"
   xmlns:rdf="http://www.w3.org/1999/02/22-rdf-syntax-ns#"
   xmlns:svg="http://www.w3.org/2000/svg"
   xmlns="http://www.w3.org/2000/svg"
   viewBox="0 0 156.49333 46"
   height="46"
   width="156.49333"
   xml:space="preserve"
   id="svg2"
   version="1.1"><metadata
     id="metadata8"><rdf:RDF><cc:Work
         rdf:about=""><dc:format>image/svg+xml</dc:format><dc:type
           rdf:resource="http://purl.org/dc/dcmitype/StillImage" /></cc:Work></rdf:RDF></metadata><defs
     id="defs6" /><g
     transform="matrix(1.3333333,0,0,-1.3333333,0,46)"
     id="g10"><g
       transform="scale(0.1)"
       id="g12"><path
         id="path14"
         style="fill:none;stroke:#000000;stroke-width:15.9404;stroke-linecap:round;stroke-linejoin:miter;stroke-miterlimit:10;stroke-dasharray:none;stroke-opacity:1"
         d="m 360.074,111.941 h 136.067 m 181.418,0 H 813.625 M 360.074,168.633 416.77,111.941 360.074,55.2461 M 756.93,168.633 813.625,111.941 756.93,55.2461" /><path
         id="path16"
         style="fill:none;stroke:#000000;stroke-width:15.9404;stroke-linecap:round;stroke-linejoin:miter;stroke-miterlimit:10;stroke-dasharray:none;stroke-opacity:1"
         d="M 416.77,168.633 473.465,111.941 416.77,55.2461" /><path
         id="path18"
         style="fill:none;stroke:#000000;stroke-width:15.9404;stroke-linecap:round;stroke-linejoin:miter;stroke-miterlimit:10;stroke-dasharray:none;stroke-opacity:1"
         d="M 700.238,168.633 756.93,111.941 700.238,55.2461" /><path
         id="path20"
         style="fill:#000000;fill-opacity:1;fill-rule:nonzero;stroke:none"
         d="m 636.422,170.438 h -99.656 l -2.938,-38.172 h 3.11 c 2.25,28.672 4.671,33.672 31.265,33.672 3.11,0 8.11,0 9.5,-0.172 3.281,-0.516 3.281,-2.594 3.281,-6.563 V 65.6094 c 0,-6.2188 -0.515,-8.125 -14.859,-8.125 h -4.828 V 53 c 8.281,0.1719 16.922,0.3438 25.391,0.3438 8.453,0 17.093,-0.1719 25.375,-0.3438 v 4.4844 h -4.829 c -14.343,0 -14.859,1.9062 -14.859,8.125 v 93.5936 c 0,3.797 0,5.875 3.109,6.563 1.391,0.172 6.391,0.172 9.5,0.172 26.422,0 29.016,-5 31.266,-33.672 h 3.094 l -2.922,38.172" /><path
         id="path22"
         style="fill:#0000ff;fill-opacity:1;fill-rule:nonzero;stroke:none"
         d="m 590.563,283.109 h 28.671 c 2.235,0 7.938,0 7.938,5.516 0,3.813 -3.281,3.813 -6.391,3.813 h -47.484 c -3.969,0 -9.844,0 -17.797,-8.469 -4.484,-5.016 -10.016,-14.156 -10.016,-15.203 0,-1.032 0.875,-1.375 1.907,-1.375 1.203,0 1.375,0.515 2.25,1.547 8.968,14.171 17.953,14.171 22.265,14.171 h 14.344 l -17.969,-59.234 c -0.859,-2.594 -0.859,-2.937 -0.859,-3.453 0,-1.906 1.203,-4.328 4.656,-4.328 5.36,0 6.219,4.672 6.735,7.265 l 11.75,59.75" /><path
         id="path24"
         style="fill:none;stroke:#000000;stroke-width:15.9404;stroke-linecap:round;stroke-linejoin:miter;stroke-miterlimit:10;stroke-dasharray:none;stroke-opacity:1"
         d="M 19.9141,111.941 H 360.074 m 453.551,0 h 340.165 v 0" /></g></g></svg>
