<?xml version="1.0" encoding="UTF-8" standalone="no"?>
<svg
   xmlns:dc="http://purl.org/dc/elements/1.1/"
   xmlns:cc="http://creativecommons.org/ns#"
   xmlns:rdf="http://www.w3.org/1999/02/22-rdf-syntax-ns#"
   xmlns:svg="http://www.w3.org/2000/svg"
   xmlns="http://www.w3.org/2000/svg"
   id="svg32"
   version="1.2"
   viewBox="0 0 117.37 34.5"
   height="34.5pt"
   width="117.37pt">
  <metadata
     id="metadata36">
    <rdf:RDF>
      <cc:Work
         rdf:about="">
        <dc:format>image/svg+xml</dc:format>
        <dc:type
           rdf:resource="http://purl.org/dc/dcmitype/StillImage" />
      </cc:Work>
    </rdf:RDF>
  </metadata>
  <defs
     id="defs11">
    <clipPath
       id="clip1">
      <path
         id="path2"
         d="M 13 0 L 104 0 L 104 34.5 L 13 34.5 Z M 13 0 " />
    </clipPath>
    <clipPath
       id="clip2">
      <path
         id="path5"
         d="M 19 0 L 70 0 L 70 34.5 L 19 34.5 Z M 19 0 " />
    </clipPath>
    <clipPath
       id="clip3">
      <path
         id="path8"
         d="M 47 0 L 99 0 L 99 34.5 L 47 34.5 Z M 47 0 " />
    </clipPath>
  </defs>
  <g
     id="surface1">
    <g
       id="g15"
       clip-rule="nonzero"
       clip-path="url(#clip1)">
      <path
         id="path13"
         transform="matrix(0.1,0,0,-0.1,0,34.5)"
         d="M 360.078125 111.953125 L 496.132813 111.953125 M 677.578125 111.953125 L 813.632813 111.953125 M 360.078125 168.632813 L 416.757813 111.953125 L 360.078125 55.234375 M 756.914063 168.632813 L 813.632813 111.953125 L 756.914063 55.234375 "
         style="fill:none;stroke-width:15.9404;stroke-linecap:round;stroke-linejoin:miter;stroke:rgb(0%,0%,0%);stroke-opacity:1;stroke-miterlimit:10;" />
    </g>
    <g
       id="g19"
       clip-rule="nonzero"
       clip-path="url(#clip2)">
      <path
         id="path17"
         transform="matrix(0.1,0,0,-0.1,0,34.5)"
         d="M 416.757813 168.632813 L 473.476563 111.953125 L 416.757813 55.234375 "
         style="fill:none;stroke-width:15.9404;stroke-linecap:round;stroke-linejoin:miter;stroke:rgb(0%,0%,0%);stroke-opacity:1;stroke-miterlimit:10;" />
    </g>
    <g
       id="g23"
       clip-rule="nonzero"
       clip-path="url(#clip3)">
      <path
         id="path21"
         transform="matrix(0.1,0,0,-0.1,0,34.5)"
         d="M 700.234375 168.632813 L 756.914063 111.953125 L 700.234375 55.234375 "
         style="fill:none;stroke-width:15.9404;stroke-linecap:round;stroke-linejoin:miter;stroke:rgb(0%,0%,0%);stroke-opacity:1;stroke-miterlimit:10;" />
    </g>
    <path
       id="path25"
       d="M 65.304688 18.960938 C 65.460938 18.492188 65.71875 17.890625 66.71875 17.855469 L 66.71875 17.40625 C 66.425781 17.421875 65.820313 17.4375 65.511719 17.4375 C 65.078125 17.4375 64.320313 17.4375 63.90625 17.40625 L 63.90625 17.855469 C 64.679688 17.871094 65.007813 18.304688 65.007813 18.71875 C 65.007813 18.839844 64.992188 18.90625 64.921875 19.097656 L 62.246094 27.628906 L 59.429688 18.648438 C 59.378906 18.476563 59.363281 18.40625 59.363281 18.335938 C 59.363281 17.855469 60.125 17.855469 60.449219 17.855469 L 60.449219 17.40625 C 59.949219 17.4375 59.085938 17.4375 58.550781 17.4375 C 58.117188 17.4375 57.34375 17.4375 56.945313 17.40625 L 56.945313 17.855469 C 57.738281 17.855469 57.945313 17.90625 58.117188 18.21875 C 58.1875 18.371094 58.464844 19.269531 58.464844 19.320313 C 58.464844 19.390625 58.429688 19.496094 58.414063 19.546875 L 55.875 27.609375 L 53.058594 18.648438 C 52.972656 18.40625 52.972656 18.371094 52.972656 18.335938 C 52.972656 17.855469 53.734375 17.855469 54.078125 17.855469 L 54.078125 17.40625 C 53.578125 17.4375 52.714844 17.4375 52.179688 17.4375 C 51.730469 17.4375 50.96875 17.4375 50.554688 17.40625 L 50.554688 17.855469 C 51.59375 17.855469 51.660156 17.957031 51.832031 18.511719 L 55.203125 29.183594 C 55.289063 29.441406 55.289063 29.476563 55.441406 29.476563 C 55.582031 29.476563 55.632813 29.441406 55.703125 29.199219 L 58.636719 19.839844 L 61.574219 29.199219 C 61.640625 29.441406 61.695313 29.476563 61.832031 29.476563 C 61.988281 29.476563 61.988281 29.441406 62.074219 29.183594 L 65.304688 18.960938 "
       style=" stroke:none;fill-rule:nonzero;fill:rgb(0%,0%,0%);fill-opacity:1;" />
    <path
       id="path27"
       d="M 63.359375 6.207031 C 63.359375 5.707031 63.21875 5.066406 62.617188 5.066406 C 62.269531 5.066406 61.875 5.5 61.875 5.84375 C 61.875 6 61.941406 6.101563 62.078125 6.257813 C 62.339844 6.550781 62.667969 7.019531 62.667969 7.828125 C 62.667969 8.453125 62.289063 9.4375 62.011719 9.972656 C 61.527344 10.921875 60.734375 11.734375 59.835938 11.734375 C 58.746094 11.734375 58.332031 11.042969 58.140625 10.074219 C 58.332031 9.625 58.730469 8.503906 58.730469 8.054688 C 58.730469 7.863281 58.660156 7.710938 58.4375 7.710938 C 58.316406 7.710938 58.175781 7.777344 58.089844 7.914063 C 57.847656 8.296875 57.625 9.660156 57.640625 10.023438 C 57.3125 10.664063 56.382813 11.734375 55.277344 11.734375 C 54.117188 11.734375 53.808594 10.714844 53.808594 9.730469 C 53.808594 7.933594 54.929688 6.363281 55.242188 5.929688 C 55.414063 5.671875 55.535156 5.5 55.535156 5.464844 C 55.535156 5.34375 55.464844 5.152344 55.3125 5.152344 C 55.035156 5.152344 54.949219 5.378906 54.808594 5.585938 C 53.929688 6.949219 53.308594 8.867188 53.308594 10.523438 C 53.308594 11.59375 53.703125 12.875 55 12.875 C 56.433594 12.875 57.332031 11.648438 57.695313 10.992188 C 57.832031 11.957031 58.351563 12.875 59.609375 12.875 C 60.921875 12.875 61.75 11.714844 62.375 10.316406 C 62.824219 9.316406 63.359375 7.15625 63.359375 6.207031 "
       style=" stroke:none;fill-rule:nonzero;fill:rgb(0%,0%,100%);fill-opacity:1;" />
    <path
       id="path29"
       transform="matrix(0.1,0,0,-0.1,0,34.5)"
       d="M 19.921875 111.953125 L 360.078125 111.953125 M 813.632813 111.953125 L 1153.789063 111.953125 "
       style="fill:none;stroke-width:15.9404;stroke-linecap:round;stroke-linejoin:miter;stroke:rgb(0%,0%,0%);stroke-opacity:1;stroke-miterlimit:10;" />
  </g>
</svg>
