<?xml version="1.0" encoding="UTF-8" standalone="no"?>
<svg
   xmlns:dc="http://purl.org/dc/elements/1.1/"
   xmlns:cc="http://creativecommons.org/ns#"
   xmlns:rdf="http://www.w3.org/1999/02/22-rdf-syntax-ns#"
   xmlns:svg="http://www.w3.org/2000/svg"
   xmlns="http://www.w3.org/2000/svg"
   viewBox="0 0 156.49333 46"
   height="46"
   width="156.49333"
   xml:space="preserve"
   id="svg2"
   version="1.1"><metadata
     id="metadata8"><rdf:RDF><cc:Work
         rdf:about=""><dc:format>image/svg+xml</dc:format><dc:type
           rdf:resource="http://purl.org/dc/dcmitype/StillImage" /></cc:Work></rdf:RDF></metadata><defs
     id="defs6" /><g
     transform="matrix(1.3333333,0,0,-1.3333333,0,46)"
     id="g10"><g
       transform="scale(0.1)"
       id="g12"><path
         id="path14"
         style="fill:none;stroke:#000000;stroke-width:15.9404;stroke-linecap:round;stroke-linejoin:miter;stroke-miterlimit:10;stroke-dasharray:none;stroke-opacity:1"
         d="m 360.074,111.941 h 136.067 m 181.418,0 H 813.625 M 360.074,168.633 416.77,111.941 360.074,55.2461 M 756.93,168.633 813.625,111.941 756.93,55.2461" /><path
         id="path16"
         style="fill:#000000;fill-opacity:1;fill-rule:nonzero;stroke:none"
         d="m 627.891,155.063 c 1.547,3.796 4.312,11.218 15.89,11.39 v 4.5 c -3.968,-0.344 -8.468,-0.344 -12.781,-0.344 -4.141,0 -11.234,0 -15.203,0.344 v -4.5 c 8.641,-0.515 8.984,-6.562 8.984,-7.594 0,-1.89 -0.515,-3.109 -1.031,-4.484 L 589.719,65.7813 554.156,158.859 c -0.531,1.204 -0.875,2.079 -0.875,2.938 0,4.656 6.907,4.656 10.532,4.656 v 4.5 c -5.516,-0.344 -13.641,-0.344 -19.329,-0.344 -4.5,0 -12.609,0 -16.75,0.344 v -4.5 c 10.016,0 11.907,-0.687 13.985,-6.203 L 582.813,53 c 0.875,-2.4219 1.046,-2.7656 2.937,-2.7656 1.906,0 2.078,0.3437 2.938,2.7656 l 39.203,102.063" /><path
         id="path18"
         style="fill:#0000ff;fill-opacity:1;fill-rule:nonzero;stroke:none"
         d="m 621.922,282.594 c 0,10.875 -5.531,11.562 -6.906,11.562 -4.141,0 -7.953,-4.14 -7.953,-7.593 0,-2.079 1.218,-3.282 1.906,-3.969 1.734,-1.563 6.219,-6.219 6.219,-15.203 0,-7.25 -10.36,-47.657 -31.094,-47.657 -10.531,0 -12.594,8.797 -12.594,15.188 0,8.641 3.969,20.719 8.625,33.156 2.766,7.078 3.453,8.813 3.453,12.266 0,7.25 -5.172,13.812 -13.64,13.812 -15.891,0 -22.282,-25.031 -22.282,-26.422 0,-0.687 0.703,-1.546 1.907,-1.546 1.546,0 1.734,0.687 2.421,3.109 4.141,14.844 10.875,21.406 17.438,21.406 1.547,0 4.484,0 4.484,-5.703 0,-4.484 -1.89,-9.5 -4.484,-16.062 -8.281,-22.094 -8.281,-27.454 -8.281,-31.594 0,-3.797 0.515,-10.875 5.859,-15.719 6.219,-5.359 14.859,-5.359 16.406,-5.359 28.672,0 38.516,56.484 38.516,66.328" /><path
         id="path20"
         style="fill:none;stroke:#000000;stroke-width:15.9404;stroke-linecap:round;stroke-linejoin:miter;stroke-miterlimit:10;stroke-dasharray:none;stroke-opacity:1"
         d="M 19.9141,111.941 H 360.074 m 453.551,0 h 340.165 v 0" /></g></g></svg>
