<?xml version="1.0" encoding="UTF-8" standalone="no"?>
<svg
   xmlns:dc="http://purl.org/dc/elements/1.1/"
   xmlns:cc="http://creativecommons.org/ns#"
   xmlns:rdf="http://www.w3.org/1999/02/22-rdf-syntax-ns#"
   xmlns:svg="http://www.w3.org/2000/svg"
   xmlns="http://www.w3.org/2000/svg"
   viewBox="0 0 156.49333 62.639999"
   height="62.639999"
   width="156.49333"
   xml:space="preserve"
   id="svg2"
   version="1.1"><metadata
     id="metadata8"><rdf:RDF><cc:Work
         rdf:about=""><dc:format>image/svg+xml</dc:format><dc:type
           rdf:resource="http://purl.org/dc/dcmitype/StillImage" /></cc:Work></rdf:RDF></metadata><defs
     id="defs6" /><g
     transform="matrix(1.3333333,0,0,-1.3333333,0,62.64)"
     id="g10"><g
       transform="scale(0.1)"
       id="g12"><path
         id="path14"
         style="fill:none;stroke:#000000;stroke-width:15.9404;stroke-linecap:butt;stroke-linejoin:miter;stroke-miterlimit:10;stroke-dasharray:none;stroke-opacity:1"
         d="m 700.238,141.289 c 0,62.625 -50.765,113.387 -113.386,113.387 -62.625,0 -113.387,-50.762 -113.387,-113.387 0,-62.621 50.762,-113.3867 113.387,-113.3867 62.621,0 113.386,50.7657 113.386,113.3867 z" /><path
         id="path16"
         style="fill:none;stroke:#000000;stroke-width:15.9404;stroke-linecap:butt;stroke-linejoin:miter;stroke-miterlimit:10;stroke-dasharray:none;stroke-opacity:1"
         d="M 586.852,27.9023 V 254.676" /><path
         id="path18"
         style="fill:#0000ff;fill-opacity:1;fill-rule:nonzero;stroke:none"
         d="m 606.875,328.688 c 0,0.875 -0.687,1.562 -1.734,1.562 -1.547,0 -1.719,-0.516 -2.578,-3.453 -4.5,-15.719 -11.579,-21.063 -17.282,-21.063 -2.062,0 -4.484,0.516 -4.484,5.688 0,4.672 2.078,9.844 3.969,15.031 l 12.093,32.125 c 0.516,1.375 1.719,4.485 1.719,7.766 0,7.25 -5.172,13.812 -13.64,13.812 -15.891,0 -22.282,-25.031 -22.282,-26.422 0,-0.687 0.703,-1.546 1.907,-1.546 1.546,0 1.734,0.687 2.421,3.109 4.141,14.5 10.704,21.406 17.438,21.406 1.547,0 4.484,-0.172 4.484,-5.703 0,-4.484 -2.234,-10.187 -3.625,-13.984 l -12.078,-32.125 c -1.047,-2.75 -2.078,-5.516 -2.078,-8.625 0,-7.782 5.359,-14 13.641,-14 15.89,0 22.109,25.218 22.109,26.422 z m -1.391,83.078 c 0,2.578 -2.062,5.687 -5.859,5.687 -3.984,0 -8.469,-3.797 -8.469,-8.281 0,-4.313 3.625,-5.703 5.703,-5.703 4.657,0 8.625,4.5 8.625,8.297" /><path
         id="path20"
         style="fill:none;stroke:#000000;stroke-width:15.9404;stroke-linecap:round;stroke-linejoin:miter;stroke-miterlimit:10;stroke-dasharray:none;stroke-opacity:1"
         d="M 19.9141,141.289 H 465.492 m 242.715,0 h 445.583 v 0" /></g></g></svg>
