<?xml version="1.0" encoding="UTF-8" standalone="no"?>
<svg
   xmlns:dc="http://purl.org/dc/elements/1.1/"
   xmlns:cc="http://creativecommons.org/ns#"
   xmlns:rdf="http://www.w3.org/1999/02/22-rdf-syntax-ns#"
   xmlns:svg="http://www.w3.org/2000/svg"
   xmlns="http://www.w3.org/2000/svg"
   viewBox="0 0 156.49333 74.493332"
   height="74.493332"
   width="156.49333"
   xml:space="preserve"
   id="svg2"
   version="1.1"><metadata
     id="metadata8"><rdf:RDF><cc:Work
         rdf:about=""><dc:format>image/svg+xml</dc:format><dc:type
           rdf:resource="http://purl.org/dc/dcmitype/StillImage" /></cc:Work></rdf:RDF></metadata><defs
     id="defs6" /><g
     transform="matrix(1.3333333,0,0,-1.3333333,0,74.493333)"
     id="g10"><g
       transform="scale(0.1)"
       id="g12"><path
         id="path14"
         style="fill:none;stroke:#000000;stroke-width:15.9404;stroke-linecap:round;stroke-linejoin:miter;stroke-miterlimit:10;stroke-dasharray:none;stroke-opacity:1"
         d="m 501.813,226.324 h -28.348 m 28.348,-113.386 h -28.348 m 198.426,113.386 h 28.347 M 671.891,112.938 h 28.347 m -28.347,113.386 c 0,46.965 -38.075,85.039 -85.039,85.039 -46.969,0 -85.039,-38.074 -85.039,-85.039 0,-46.969 38.07,-85.039 85.039,-85.039 46.964,0 85.039,38.07 85.039,85.039 z m 0,-113.386 c 0,46.964 -38.075,85.039 -85.039,85.039 -46.969,0 -85.039,-38.075 -85.039,-85.039 0,-46.9653 38.07,-85.0396 85.039,-85.0396 46.964,0 85.039,38.0743 85.039,85.0396 z" /><path
         id="path16"
         style="fill:#0000ff;fill-opacity:1;fill-rule:nonzero;stroke:none"
         d="m 613.016,455.422 c 3.453,0 4.843,0 4.843,3.281 0,1.735 -1.39,1.735 -4.5,1.735 h -13.984 c 3.281,17.781 5.703,30.046 7.078,35.562 1.047,4.156 4.672,8.125 9.156,8.125 3.625,0 7.25,-1.562 8.985,-3.109 -6.735,-0.688 -8.813,-5.703 -8.813,-8.641 0,-3.453 2.594,-5.516 5.875,-5.516 3.453,0 8.641,2.922 8.641,9.485 0,7.265 -7.266,11.234 -14.859,11.234 -7.422,0 -14.672,-5.531 -18.125,-12.265 -3.11,-6.047 -4.844,-12.266 -8.813,-34.875 h -11.578 c -3.281,0 -5,0 -5,-3.11 0,-1.906 1.031,-1.906 4.484,-1.906 h 11.063 c -3.11,-16.063 -10.188,-55.094 -14.172,-73.563 -2.938,-15.031 -5.516,-27.64 -14.156,-27.64 -0.516,0 -5.532,0 -8.641,3.281 8.813,0.703 8.813,8.297 8.813,8.469 0,3.453 -2.594,5.531 -5.875,5.531 -3.454,0 -8.625,-2.937 -8.625,-9.5 0,-7.437 7.593,-11.234 14.328,-11.234 17.609,0 24.875,31.609 26.765,40.25 3.11,13.297 11.578,59.218 12.438,64.406 h 14.672" /><path
         id="path18"
         style="fill:none;stroke:#000000;stroke-width:129.327;stroke-linecap:butt;stroke-linejoin:miter;stroke-miterlimit:10;stroke-dasharray:none;stroke-opacity:1"
         d="M 19.9141,169.629 H 473.465 m 226.773,0 h 453.552 v 0" /><path
         id="path20"
         style="fill:none;stroke:#ffffff;stroke-width:97.4466;stroke-linecap:butt;stroke-linejoin:miter;stroke-miterlimit:10;stroke-dasharray:none;stroke-opacity:1"
         d="M 19.9141,169.629 H 473.465 m 226.773,0 h 453.552 v 0" /></g></g></svg>
