<?xml version="1.0" encoding="UTF-8" standalone="no"?>
<svg
   xmlns:dc="http://purl.org/dc/elements/1.1/"
   xmlns:cc="http://creativecommons.org/ns#"
   xmlns:rdf="http://www.w3.org/1999/02/22-rdf-syntax-ns#"
   xmlns:svg="http://www.w3.org/2000/svg"
   xmlns="http://www.w3.org/2000/svg"
   viewBox="0 0 156.49333 39.533333"
   height="39.533333"
   width="156.49333"
   xml:space="preserve"
   id="svg2"
   version="1.1"><metadata
     id="metadata8"><rdf:RDF><cc:Work
         rdf:about=""><dc:format>image/svg+xml</dc:format><dc:type
           rdf:resource="http://purl.org/dc/dcmitype/StillImage" /></cc:Work></rdf:RDF></metadata><defs
     id="defs6" /><g
     transform="matrix(1.3333333,0,0,-1.3333333,0,39.533333)"
     id="g10"><g
       transform="scale(0.1)"
       id="g12"><path
         id="path14"
         style="fill:none;stroke:#000000;stroke-width:15.9404;stroke-linecap:round;stroke-linejoin:miter;stroke-miterlimit:10;stroke-dasharray:none;stroke-opacity:1"
         d="m 360.074,27.8906 c 0,31.3125 25.383,56.6914 56.696,56.6914 31.312,0 56.695,-25.3789 56.695,-56.6914 0,31.3125 25.379,56.6914 56.691,56.6914 31.313,0 56.696,-25.3789 56.696,-56.6914 0,31.3125 25.378,56.6914 56.691,56.6914 31.312,0 56.695,-25.3789 56.695,-56.6914 0,31.3125 25.383,56.6914 56.692,56.6914 31.312,0 56.695,-25.3789 56.695,-56.6914 v 0" /><path
         id="path16"
         style="fill:#0000ff;fill-opacity:1;fill-rule:nonzero;stroke:none"
         d="m 593.375,230.656 c 1.563,6.563 2.078,8.282 17.266,8.282 4.672,0 5.875,0 5.875,3.281 0,1.734 -1.891,1.734 -2.594,1.734 -3.453,0 -7.422,-0.344 -10.875,-0.344 h -23.141 c -3.281,0 -7.078,0.344 -10.359,0.344 -1.375,0 -3.281,0 -3.281,-3.281 0,-1.734 1.547,-1.734 4.14,-1.734 10.532,0 10.532,-1.375 10.532,-3.282 0,-0.343 0,-1.375 -0.688,-3.968 l -23.312,-92.907 c -1.547,-6.047 -1.891,-7.765 -13.985,-7.765 -3.281,0 -5.015,0 -5.015,-3.11 0,-1.906 1.046,-1.906 4.5,-1.906 h 77.359 c 3.797,0 3.969,0.172 5.187,3.281 l 13.297,36.782 c 0.344,0.859 0.688,1.906 0.688,2.421 0,1.032 -0.86,1.719 -1.719,1.719 -0.187,0 -1.047,0 -1.391,-0.687 -0.343,-0.172 -0.343,-0.516 -1.718,-3.797 -5.532,-15.203 -13.297,-34.703 -42.485,-34.703 h -16.578 c -2.422,0 -2.765,0 -3.797,0.172 -1.906,0.171 -2.078,0.515 -2.078,1.89 0,1.219 0.344,2.25 0.688,3.797 l 23.484,93.781" /><path
         id="path18"
         style="fill:none;stroke:#000000;stroke-width:15.9404;stroke-linecap:round;stroke-linejoin:miter;stroke-miterlimit:10;stroke-dasharray:none;stroke-opacity:1"
         d="M 19.9141,27.8906 H 360.074 m 453.551,0 h 340.165 v 0" /></g></g></svg>
