<?xml version="1.0" encoding="UTF-8" standalone="no"?>
<svg
   xmlns:dc="http://purl.org/dc/elements/1.1/"
   xmlns:cc="http://creativecommons.org/ns#"
   xmlns:rdf="http://www.w3.org/1999/02/22-rdf-syntax-ns#"
   xmlns:svg="http://www.w3.org/2000/svg"
   xmlns="http://www.w3.org/2000/svg"
   id="svg11"
   version="1.2"
   viewBox="0 0 117.37 81.47"
   height="81.47pt"
   width="117.37pt">
  <metadata
     id="metadata17">
    <rdf:RDF>
      <cc:Work
         rdf:about="">
        <dc:format>image/svg+xml</dc:format>
        <dc:type
           rdf:resource="http://purl.org/dc/dcmitype/StillImage" />
      </cc:Work>
    </rdf:RDF>
  </metadata>
  <defs
     id="defs15" />
  <g
     id="surface1">
    <path
       id="path2"
       transform="matrix(0.1,0,0,-0.1,0,81.47)"
       d="M 473.476563 27.903125 L 700.234375 27.903125 L 700.234375 594.817188 L 473.476563 594.817188 Z M 473.476563 27.903125 "
       style="fill:none;stroke-width:15.9404;stroke-linecap:butt;stroke-linejoin:miter;stroke:rgb(0%,0%,0%);stroke-opacity:1;stroke-miterlimit:10;" />
    <path
       id="path4"
       d="M 60.65625 45.652344 C 60.8125 45.046875 60.84375 44.875 62.105469 44.875 C 62.484375 44.875 62.625 44.875 62.625 44.546875 C 62.625 44.375 62.433594 44.375 62.382813 44.375 C 62.070313 44.375 61.691406 44.410156 61.378906 44.410156 L 59.257813 44.410156 C 58.910156 44.410156 58.515625 44.375 58.167969 44.375 C 58.03125 44.375 57.839844 44.375 57.839844 44.703125 C 57.839844 44.875 57.976563 44.875 58.324219 44.875 C 59.394531 44.875 59.394531 45.015625 59.394531 45.203125 C 59.394531 45.324219 59.359375 45.429688 59.324219 45.585938 L 56.992188 54.890625 C 56.839844 55.496094 56.804688 55.667969 55.542969 55.667969 C 55.164063 55.667969 55.007813 55.667969 55.007813 55.996094 C 55.007813 56.171875 55.179688 56.171875 55.265625 56.171875 C 55.578125 56.171875 55.957031 56.136719 56.269531 56.136719 L 58.390625 56.136719 C 58.738281 56.136719 59.117188 56.171875 59.464844 56.171875 C 59.601563 56.171875 59.808594 56.171875 59.808594 55.859375 C 59.808594 55.667969 59.703125 55.667969 59.324219 55.667969 C 58.253906 55.667969 58.253906 55.53125 58.253906 55.324219 C 58.253906 55.289063 58.253906 55.203125 58.324219 54.925781 L 60.65625 45.652344 "
       style=" stroke:none;fill-rule:nonzero;fill:rgb(0%,0%,0%);fill-opacity:1;" />
    <path
       id="path6"
       d="M 60.65625 6.554688 C 60.8125 5.949219 60.84375 5.777344 62.105469 5.777344 C 62.484375 5.777344 62.625 5.777344 62.625 5.449219 C 62.625 5.273438 62.433594 5.273438 62.382813 5.273438 C 62.070313 5.273438 61.691406 5.308594 61.378906 5.308594 L 59.257813 5.308594 C 58.910156 5.308594 58.515625 5.273438 58.167969 5.273438 C 58.03125 5.273438 57.839844 5.273438 57.839844 5.601563 C 57.839844 5.777344 57.976563 5.777344 58.324219 5.777344 C 59.394531 5.777344 59.394531 5.914063 59.394531 6.105469 C 59.394531 6.226563 59.359375 6.328125 59.324219 6.484375 L 56.992188 15.792969 C 56.839844 16.398438 56.804688 16.570313 55.542969 16.570313 C 55.164063 16.570313 55.007813 16.570313 55.007813 16.898438 C 55.007813 17.070313 55.179688 17.070313 55.265625 17.070313 C 55.578125 17.070313 55.957031 17.035156 56.269531 17.035156 L 58.390625 17.035156 C 58.738281 17.035156 59.117188 17.070313 59.464844 17.070313 C 59.601563 17.070313 59.808594 17.070313 59.808594 16.757813 C 59.808594 16.570313 59.703125 16.570313 59.324219 16.570313 C 58.253906 16.570313 58.253906 16.429688 58.253906 16.222656 C 58.253906 16.1875 58.253906 16.101563 58.324219 15.828125 L 60.65625 6.554688 "
       style=" stroke:none;fill-rule:nonzero;fill:rgb(0%,0%,100%);fill-opacity:1;" />
    <path
       id="path8"
       transform="matrix(0.1,0,0,-0.1,0,81.47)"
       d="M 19.921875 311.340625 L 465.507813 311.340625 M 708.203125 311.340625 L 1153.789063 311.340625 "
       style="fill:none;stroke-width:15.9404;stroke-linecap:round;stroke-linejoin:miter;stroke:rgb(0%,0%,0%);stroke-opacity:1;stroke-miterlimit:10;" />
  </g>
</svg>
