<?xml version="1.0" encoding="UTF-8" standalone="no"?>
<svg
   xmlns:dc="http://purl.org/dc/elements/1.1/"
   xmlns:cc="http://creativecommons.org/ns#"
   xmlns:rdf="http://www.w3.org/1999/02/22-rdf-syntax-ns#"
   xmlns:svg="http://www.w3.org/2000/svg"
   xmlns="http://www.w3.org/2000/svg"
   viewBox="0 0 156.49333 88.73333"
   height="88.73333"
   width="156.49333"
   xml:space="preserve"
   id="svg2"
   version="1.1"><metadata
     id="metadata8"><rdf:RDF><cc:Work
         rdf:about=""><dc:format>image/svg+xml</dc:format><dc:type
           rdf:resource="http://purl.org/dc/dcmitype/StillImage" /></cc:Work></rdf:RDF></metadata><defs
     id="defs6" /><g
     transform="matrix(1.3333333,0,0,-1.3333333,0,88.733333)"
     id="g10"><g
       transform="scale(0.1)"
       id="g12"><path
         id="path14"
         style="fill:none;stroke:#000000;stroke-width:15.9404;stroke-linecap:butt;stroke-linejoin:miter;stroke-miterlimit:10;stroke-dasharray:none;stroke-opacity:1"
         d="m 360.074,27.8945 h 453.551 v 453.551 H 360.074 Z" /><path
         id="path16"
         style="fill:#000000;fill-opacity:1;fill-rule:nonzero;stroke:none"
         d="m 548.578,268.594 c 0.344,1.047 4.656,9.672 11.047,15.203 4.5,4.141 10.359,6.906 17.094,6.906 6.906,0 9.328,-5.187 9.328,-12.094 0,-1.031 0,-4.484 -2.063,-12.593 l -4.328,-17.797 c -1.375,-5.172 -4.656,-17.953 -5,-19.86 -0.703,-2.593 -1.734,-7.078 -1.734,-7.765 0,-2.422 1.906,-4.328 4.5,-4.328 5.172,0 6.031,3.984 7.594,10.203 l 10.359,41.265 c 0.344,1.391 9.328,22.969 28.328,22.969 6.906,0 9.313,-5.187 9.313,-12.094 0,-9.671 -6.735,-28.484 -10.532,-38.843 -1.546,-4.157 -2.421,-6.391 -2.421,-9.5 0,-7.782 5.359,-14 13.656,-14 16.047,0 22.094,25.39 22.094,26.422 0,0.875 -0.688,1.562 -1.719,1.562 -1.563,0 -1.735,-0.516 -2.594,-3.453 -3.969,-13.813 -10.359,-21.063 -17.266,-21.063 -1.734,0 -4.5,0.172 -4.5,5.688 0,4.5 2.079,10.016 2.766,11.922 3.109,8.281 10.891,28.672 10.891,38.687 0,10.36 -6.047,18.125 -19.172,18.125 -11.578,0 -20.906,-6.562 -27.813,-16.75 -0.515,9.328 -6.218,16.75 -19.172,16.75 -15.359,0 -23.484,-10.875 -26.593,-15.203 -0.516,9.844 -7.594,15.203 -15.188,15.203 -5.015,0 -8.984,-2.422 -12.265,-8.984 -3.11,-6.219 -5.532,-16.75 -5.532,-17.438 0,-0.687 0.703,-1.546 1.907,-1.546 1.375,0 1.546,0.171 2.593,4.14 2.594,10.188 5.875,20.375 12.782,20.375 3.968,0 5.343,-2.765 5.343,-7.937 0,-3.813 -1.718,-10.547 -2.937,-15.891 l -4.828,-18.656 c -0.688,-3.281 -2.594,-11.047 -3.453,-14.156 -1.204,-4.485 -3.11,-12.61 -3.11,-13.469 0,-2.422 1.906,-4.328 4.485,-4.328 2.078,0 4.5,1.047 5.875,3.64 0.343,0.86 1.906,6.907 2.765,10.36 l 3.797,15.531 5.703,22.797" /><path
         id="path18"
         style="fill:#0000ff;fill-opacity:1;fill-rule:nonzero;stroke:none"
         d="m 550.016,595.938 v 7.593 c 0,0.172 -5.703,6.047 -8.641,8.985 l -19.172,-16.063 2.078,-2.078 7.422,4.141 4.5,-4.485 c 0.516,-10.875 0.688,-21.578 0.688,-32.468 0,-6.735 -0.344,-13.641 -1.219,-20.547 l 8.469,-13.813 14.328,12.094 c -8.797,11.047 -8.453,9.844 -8.453,17.953 v 34.016 l 10.531,7.25 c 5.875,-1.547 13.812,-3.797 18.141,-7.594 0.687,-5.703 0.859,-11.391 0.859,-17.094 0,-20.89 -0.859,-28.156 -2.422,-34.89 3.109,-3.454 7.078,-7.938 9.328,-12.422 l 14.844,12.593 c -7.594,9.844 -8.625,12.094 -8.625,15.204 v 37.64 c 3.625,2.422 7.25,4.5 11.219,6.563 5.187,-1.375 16.578,-3.797 17.265,-8.453 0.344,-3.11 0.532,-7.25 0.532,-11.75 0,-24 -0.875,-29.704 -1.907,-36.954 3.453,-4.312 8.469,-10.359 10.188,-13.64 l 21.765,18.484 -2.078,2.938 c -3.281,-2.766 -4.656,-3.282 -8.109,-4.5 -2.422,2.422 -4.5,5.359 -6.391,8.125 v 20.89 c 0,9.844 0,19.688 0.688,29.532 -6.219,1.718 -14.156,6.046 -20.891,9.671 -7.094,-5.875 -14.687,-11.234 -22.281,-16.406 v 6.735 c -7.25,2.421 -14.172,5.875 -20.734,9.843 l -21.922,-17.093" /><path
         id="path20"
         style="fill:none;stroke:#000000;stroke-width:15.9404;stroke-linecap:round;stroke-linejoin:miter;stroke-miterlimit:10;stroke-dasharray:none;stroke-opacity:1"
         d="M 19.9141,254.672 H 352.105 m 469.489,0 h 332.196 v 0" /></g></g></svg>
