<?xml version="1.0" encoding="UTF-8" standalone="no"?>
<svg
   xmlns:dc="http://purl.org/dc/elements/1.1/"
   xmlns:cc="http://creativecommons.org/ns#"
   xmlns:rdf="http://www.w3.org/1999/02/22-rdf-syntax-ns#"
   xmlns:svg="http://www.w3.org/2000/svg"
   xmlns="http://www.w3.org/2000/svg"
   id="svg9"
   version="1.2"
   viewBox="0 0 117.37 58.8"
   height="58.8pt"
   width="117.37pt">
  <metadata
     id="metadata15">
    <rdf:RDF>
      <cc:Work
         rdf:about="">
        <dc:format>image/svg+xml</dc:format>
        <dc:type
           rdf:resource="http://purl.org/dc/dcmitype/StillImage" />
      </cc:Work>
    </rdf:RDF>
  </metadata>
  <defs
     id="defs13" />
  <g
     id="surface1">
    <path
       id="path2"
       transform="matrix(0.1,0,0,-0.1,0,58.8)"
       d="M 473.476563 368.078125 L 700.234375 368.078125 L 700.234375 27.882813 L 473.476563 27.882813 M 473.476563 197.960938 L 586.835938 197.960938 M 586.835938 325.539063 L 586.835938 70.421875 "
       style="fill:none;stroke-width:15.9404;stroke-linecap:round;stroke-linejoin:miter;stroke:rgb(0%,0%,0%);stroke-opacity:1;stroke-miterlimit:10;" />
    <path
       id="path4"
       d="M 54.210938 15.820313 C 54.054688 16.425781 54.023438 16.597656 52.8125 16.597656 C 52.484375 16.597656 52.3125 16.597656 52.3125 16.910156 C 52.3125 17.101563 52.414063 17.101563 52.761719 17.101563 L 58.234375 17.101563 C 61.722656 17.101563 65.125 13.492188 65.125 9.640625 C 65.125 7.152344 63.640625 5.304688 61.171875 5.304688 L 55.628906 5.304688 C 55.300781 5.304688 55.144531 5.304688 55.144531 5.632813 C 55.144531 5.804688 55.300781 5.804688 55.558594 5.804688 C 56.613281 5.804688 56.613281 5.945313 56.613281 6.132813 C 56.613281 6.167969 56.613281 6.273438 56.542969 6.53125 Z M 57.855469 6.480469 C 58.011719 5.839844 58.078125 5.804688 58.753906 5.804688 L 60.652344 5.804688 C 62.277344 5.804688 63.761719 6.6875 63.761719 9.070313 C 63.761719 9.933594 63.414063 12.9375 61.742188 14.835938 C 61.257813 15.40625 59.945313 16.597656 57.960938 16.597656 L 55.992188 16.597656 C 55.75 16.597656 55.714844 16.597656 55.609375 16.582031 C 55.421875 16.5625 55.402344 16.53125 55.402344 16.390625 C 55.402344 16.269531 55.4375 16.167969 55.472656 16.011719 L 57.855469 6.480469 "
       style=" stroke:none;fill-rule:nonzero;fill:rgb(0%,0%,100%);fill-opacity:1;" />
    <path
       id="path6"
       transform="matrix(0.1,0,0,-0.1,0,58.8)"
       d="M 19.921875 197.960938 L 473.476563 197.960938 M 700.234375 197.960938 L 1153.789063 197.960938 "
       style="fill:none;stroke-width:15.9404;stroke-linecap:round;stroke-linejoin:miter;stroke:rgb(0%,0%,0%);stroke-opacity:1;stroke-miterlimit:10;" />
  </g>
</svg>
