<?xml version="1.0" encoding="UTF-8" standalone="no"?>
<svg
   xmlns:dc="http://purl.org/dc/elements/1.1/"
   xmlns:cc="http://creativecommons.org/ns#"
   xmlns:rdf="http://www.w3.org/1999/02/22-rdf-syntax-ns#"
   xmlns:svg="http://www.w3.org/2000/svg"
   xmlns="http://www.w3.org/2000/svg"
   id="svg30"
   version="1.2"
   viewBox="0 0 117.37 36.12"
   height="36.12pt"
   width="117.37pt">
  <metadata
     id="metadata34">
    <rdf:RDF>
      <cc:Work
         rdf:about="">
        <dc:format>image/svg+xml</dc:format>
        <dc:type
           rdf:resource="http://purl.org/dc/dcmitype/StillImage" />
      </cc:Work>
    </rdf:RDF>
  </metadata>
  <defs
     id="defs11">
    <clipPath
       id="clip1">
      <path
         id="path2"
         d="M 16 1 L 99 1 L 99 36.121094 L 16 36.121094 Z M 16 1 " />
    </clipPath>
    <clipPath
       id="clip2">
      <path
         id="path5"
         d="M 0 21 L 117.371094 21 L 117.371094 35 L 0 35 Z M 0 21 " />
    </clipPath>
    <clipPath
       id="clip3">
      <path
         id="path8"
         d="M 0 22 L 117.371094 22 L 117.371094 33 L 0 33 Z M 0 22 " />
    </clipPath>
  </defs>
  <g
     id="surface1">
    <path
       id="path13"
       transform="matrix(0.1,0,0,-0.1,0,36.12)"
       d="M 360.078125 141.278125 L 813.632813 141.278125 M 360.078125 27.879688 L 813.632813 27.879688 "
       style="fill:none;stroke-width:15.9404;stroke-linecap:round;stroke-linejoin:miter;stroke:rgb(0%,0%,0%);stroke-opacity:1;stroke-miterlimit:10;" />
    <g
       id="g17"
       clip-rule="nonzero"
       clip-path="url(#clip1)">
      <path
         id="path15"
         transform="matrix(0.1,0,0,-0.1,0,36.12)"
         d="M 395.234375 121.434375 L 468.945313 47.723438 M 395.234375 47.723438 L 468.945313 121.434375 M 491.054688 121.434375 L 564.726563 47.723438 M 491.054688 47.723438 L 564.726563 121.434375 M 586.835938 121.434375 L 660.546875 47.723438 M 586.835938 47.723438 L 660.546875 121.434375 M 682.65625 121.434375 L 756.367188 47.723438 M 682.65625 47.723438 L 756.367188 121.434375 "
         style="fill:none;stroke-width:15.9404;stroke-linecap:round;stroke-linejoin:miter;stroke:rgb(0%,0%,0%);stroke-opacity:1;stroke-miterlimit:10;" />
    </g>
    <path
       id="path19"
       d="M 58.554688 6.5 C 58.710938 5.859375 58.78125 5.828125 59.453125 5.828125 L 60.695313 5.828125 C 62.179688 5.828125 63.289063 6.273438 63.289063 7.621094 C 63.289063 8.503906 62.835938 11.042969 59.367188 11.042969 L 57.414063 11.042969 Z M 60.957031 11.25 C 63.097656 10.78125 64.773438 9.402344 64.773438 7.914063 C 64.773438 6.570313 63.40625 5.324219 61.007813 5.324219 L 56.328125 5.324219 C 55.980469 5.324219 55.828125 5.324219 55.828125 5.652344 C 55.828125 5.828125 55.945313 5.828125 56.273438 5.828125 C 57.3125 5.828125 57.3125 5.964844 57.3125 6.15625 C 57.3125 6.1875 57.3125 6.292969 57.242188 6.550781 L 54.910156 15.84375 C 54.757813 16.445313 54.722656 16.617188 53.53125 16.617188 C 53.132813 16.617188 53.011719 16.617188 53.011719 16.945313 C 53.011719 17.121094 53.203125 17.121094 53.253906 17.121094 C 53.5625 17.121094 53.925781 17.085938 54.253906 17.085938 L 56.292969 17.085938 C 56.601563 17.085938 56.964844 17.121094 57.277344 17.121094 C 57.414063 17.121094 57.605469 17.121094 57.605469 16.792969 C 57.605469 16.617188 57.449219 16.617188 57.191406 16.617188 C 56.136719 16.617188 56.136719 16.480469 56.136719 16.308594 C 56.136719 16.289063 56.136719 16.171875 56.171875 16.03125 L 57.328125 11.386719 L 59.402344 11.386719 C 61.042969 11.386719 61.351563 12.421875 61.351563 12.992188 C 61.351563 13.25 61.179688 13.925781 61.058594 14.375 C 60.867188 15.167969 60.816406 15.359375 60.816406 15.6875 C 60.816406 16.914063 61.820313 17.484375 62.976563 17.484375 C 64.375 17.484375 64.980469 15.773438 64.980469 15.53125 C 64.980469 15.410156 64.894531 15.359375 64.789063 15.359375 C 64.652344 15.359375 64.617188 15.460938 64.582031 15.601563 C 64.167969 16.828125 63.460938 17.136719 63.027344 17.136719 C 62.597656 17.136719 62.320313 16.945313 62.320313 16.171875 C 62.320313 15.757813 62.527344 14.183594 62.542969 14.097656 C 62.632813 13.460938 62.632813 13.390625 62.632813 13.25 C 62.632813 11.992188 61.613281 11.457031 60.957031 11.25 "
       style=" stroke:none;fill-rule:nonzero;fill:rgb(0%,0%,100%);fill-opacity:1;" />
    <g
       id="g23"
       clip-rule="nonzero"
       clip-path="url(#clip2)">
      <path
         id="path21"
         transform="matrix(0.1,0,0,-0.1,0,36.12)"
         d="M 19.921875 84.598438 L 360.078125 84.598438 M 813.632813 84.598438 L 1153.789063 84.598438 "
         style="fill:none;stroke-width:129.327;stroke-linecap:butt;stroke-linejoin:miter;stroke:rgb(0%,0%,0%);stroke-opacity:1;stroke-miterlimit:10;" />
    </g>
    <g
       id="g27"
       clip-rule="nonzero"
       clip-path="url(#clip3)">
      <path
         id="path25"
         transform="matrix(0.1,0,0,-0.1,0,36.12)"
         d="M 19.921875 84.598438 L 360.078125 84.598438 M 813.632813 84.598438 L 1153.789063 84.598438 "
         style="fill:none;stroke-width:97.4466;stroke-linecap:butt;stroke-linejoin:miter;stroke:rgb(100%,100%,100%);stroke-opacity:1;stroke-miterlimit:10;" />
    </g>
  </g>
</svg>
