<?xml version="1.0" encoding="UTF-8" standalone="no"?>
<svg
   xmlns:dc="http://purl.org/dc/elements/1.1/"
   xmlns:cc="http://creativecommons.org/ns#"
   xmlns:rdf="http://www.w3.org/1999/02/22-rdf-syntax-ns#"
   xmlns:svg="http://www.w3.org/2000/svg"
   xmlns="http://www.w3.org/2000/svg"
   viewBox="0 0 596.44 336.93332"
   height="336.93332"
   width="596.44"
   xml:space="preserve"
   id="svg2"
   version="1.1"><metadata
     id="metadata8"><rdf:RDF><cc:Work
         rdf:about=""><dc:format>image/svg+xml</dc:format><dc:type
           rdf:resource="http://purl.org/dc/dcmitype/StillImage" /></cc:Work></rdf:RDF></metadata><defs
     id="defs6" /><g
     transform="matrix(1.3333333,0,0,-1.3333333,0,336.93333)"
     id="g10"><g
       transform="scale(0.1)"
       id="g12"><path
         id="path14"
         style="fill:none;stroke:#ff0000;stroke-width:39.851;stroke-linecap:round;stroke-linejoin:miter;stroke-miterlimit:10;stroke-dasharray:none;stroke-opacity:1"
         d="M 821.691,1140.84 61.582,702.023" /><path
         id="path16"
         style="fill:none;stroke:#ff0000;stroke-width:39.8505;stroke-linecap:butt;stroke-linejoin:miter;stroke-miterlimit:10;stroke-dasharray:none;stroke-opacity:1"
         d="M 173.609,657.414 44.3242,692.063 78.9727,821.348" /><path
         id="path18"
         style="fill:none;stroke:#00ff00;stroke-width:39.851;stroke-linecap:round;stroke-linejoin:miter;stroke-miterlimit:10;stroke-dasharray:none;stroke-opacity:1"
         d="M 821.691,1140.84 1581.8,702.023" /><path
         id="path20"
         style="fill:none;stroke:#00ff00;stroke-width:39.8505;stroke-linecap:butt;stroke-linejoin:miter;stroke-miterlimit:10;stroke-dasharray:none;stroke-opacity:1"
         d="m 1564.41,821.348 34.64,-129.285 -129.28,-34.649" /><path
         id="path22"
         style="fill:none;stroke:#0000ff;stroke-width:39.851;stroke-linecap:round;stroke-linejoin:miter;stroke-miterlimit:10;stroke-dasharray:none;stroke-opacity:1"
         d="M 821.691,1140.84 V 2018.5" /><path
         id="path24"
         style="fill:none;stroke:#0000ff;stroke-width:39.851;stroke-linecap:butt;stroke-linejoin:miter;stroke-miterlimit:10;stroke-dasharray:none;stroke-opacity:1"
         d="m 727.043,1943.79 94.648,94.64 94.645,-94.64" /><path
         id="path26"
         style="fill:#000000;fill-opacity:1;fill-rule:nonzero;stroke:none"
         d="m 768.391,846.906 c 0,1.203 -0.86,2.063 -2.063,2.063 -12.953,0 -22.453,8.469 -22.453,17.437 v 43.188 c 0,10.015 -8.297,17.953 -19.859,21.578 11.562,3.625 19.859,11.578 19.859,21.594 v 43.172 c 0,8.972 9.5,17.442 22.453,17.442 1.203,0 2.063,0.85 2.063,2.07 0,1.21 -0.86,2.07 -2.063,2.07 -18.14,0 -33.859,-8.97 -33.859,-21.582 v -43.172 c 0,-10.016 -9.5,-19.516 -22.438,-19.516 -1.218,0 -2.078,-0.875 -2.078,-2.078 0,-1.203 0.86,-2.078 2.078,-2.078 12.938,0 22.438,-9.485 22.438,-19.5 v -43.188 c 0,-12.593 15.719,-21.578 33.859,-21.578 1.203,0 2.063,0.86 2.063,2.078" /><path
         id="path28"
         style="fill:#000000;fill-opacity:1;fill-rule:nonzero;stroke:none"
         d="m 853.531,949.484 c 0,7.766 -7.422,14.844 -20.547,14.844 -22.796,0 -29.187,-17.609 -29.187,-25.203 0,-13.484 12.781,-16.062 17.781,-17.109 8.985,-1.719 17.969,-3.625 17.969,-13.125 0,-4.485 -3.969,-18.985 -24.703,-18.985 -2.406,0 -15.703,0 -19.688,9.141 6.563,-0.859 10.891,4.328 10.891,9.156 0,3.969 -2.766,6.047 -6.391,6.047 -4.5,0 -9.672,-3.625 -9.672,-11.391 0,-9.843 9.844,-16.765 24.688,-16.765 27.984,0 34.719,20.906 34.719,28.672 0,6.218 -3.282,10.531 -5.36,12.609 -4.656,4.828 -9.672,5.703 -17.265,7.25 -6.219,1.391 -13.125,2.594 -13.125,10.359 0,5.016 4.14,15.547 19.343,15.547 4.313,0 12.954,-1.203 15.532,-7.937 -4.828,-0.172 -8.282,-3.985 -8.282,-7.781 0,-2.407 1.547,-5 5.36,-5 3.797,0 7.937,2.937 7.937,9.671" /><path
         id="path30"
         style="fill:#000000;fill-opacity:1;fill-rule:nonzero;stroke:none"
         d="m 935.391,931.172 c 0,1.203 -0.86,2.078 -2.063,2.078 -12.953,0 -22.453,9.5 -22.453,19.516 v 43.172 c 0,12.612 -15.719,21.582 -33.844,21.582 -1.218,0 -2.078,-0.86 -2.078,-2.07 0,-1.22 0.86,-2.07 2.078,-2.07 12.938,0 22.438,-8.47 22.438,-17.442 v -43.172 c 0,-10.016 8.297,-17.969 19.859,-21.594 -11.562,-3.625 -19.859,-11.563 -19.859,-21.578 v -43.188 c 0,-8.968 -9.5,-17.437 -22.438,-17.437 -1.218,0 -2.078,-0.86 -2.078,-2.063 0,-1.218 0.86,-2.078 2.078,-2.078 18.125,0 33.844,8.985 33.844,21.578 v 43.188 c 0,10.015 9.5,19.5 22.453,19.5 1.203,0 2.063,0.875 2.063,2.078" /><path
         id="path32"
         style="fill:none;stroke:#000000;stroke-width:19.9255;stroke-linecap:round;stroke-linejoin:miter;stroke-miterlimit:10;stroke-dasharray:none;stroke-opacity:1"
         d="m 2615.92,783.402 c -205.63,302.008 -413.86,756.858 -465.08,1015.958 -51.23,259.09 73.93,224.3 279.57,-77.71 205.63,-302.01 413.86,-756.865 465.08,-1015.955 51.23,-259.093 -73.94,-224.304 -279.57,77.707 z" /><path
         id="path34"
         style="fill:none;stroke:#000000;stroke-width:19.9255;stroke-linecap:round;stroke-linejoin:miter;stroke-miterlimit:10;stroke-dasharray:none;stroke-opacity:1"
         d="M 2615.92,783.402 3080.88,100.531" /><path
         id="path36"
         style="fill:#000000;fill-opacity:1;fill-rule:nonzero;stroke:none"
         d="m 3119.43,43.9023 c -2.96,8.1602 -13.74,45.5586 -15.84,72.0977 l -45.43,-30.9375 c 23.92,-11.6719 54.77,-35.4102 61.27,-41.1602" /><path
         id="path38"
         style="fill:none;stroke:#000000;stroke-width:19.9245;stroke-linecap:round;stroke-linejoin:miter;stroke-miterlimit:10;stroke-dasharray:none;stroke-opacity:1"
         d="m 3119.43,43.9023 c -2.96,8.1602 -13.74,45.5586 -15.84,72.0977 l -45.43,-30.9375 c 23.92,-11.6719 54.77,-35.4102 61.27,-41.1602 z" /><path
         id="path40"
         style="fill:#000000;fill-opacity:1;fill-rule:nonzero;stroke:none"
         d="m 1996.56,341.766 c 0,4.656 -3.97,9.14 -9.15,9.14 -5.88,0 -9.33,-4.828 -9.33,-9.14 0,-4.672 3.98,-9.157 9.15,-9.157 5.88,0 9.33,4.829 9.33,9.157" /><path
         id="path42"
         style="fill:#000000;fill-opacity:1;fill-rule:nonzero;stroke:none"
         d="m 2018.84,289.828 c -9.67,8.453 -20.2,15.719 -31.43,21.922 -11.22,-6.203 -21.75,-13.469 -31.43,-21.922 l 2.07,-3.453 c 10.01,4.313 19.86,9.328 29.36,14.672 9.5,-5.344 19.34,-10.359 29.36,-14.672 l 2.07,3.453" /><path
         id="path44"
         style="fill:#000000;fill-opacity:1;fill-rule:nonzero;stroke:none"
         d="m 2022.02,249.938 c 0,8.968 -10.19,11.39 -16.07,11.39 -10.01,0 -16.06,-9.156 -18.14,-13.125 -4.31,11.406 -13.64,13.125 -18.64,13.125 -17.97,0 -27.81,-22.281 -27.81,-26.594 0,-1.718 2.08,-1.718 2.08,-1.718 1.37,0 1.89,0.343 2.23,1.89 5.88,18.313 17.28,22.625 23.14,22.625 3.28,0 9.33,-1.547 9.33,-11.578 0,-5.344 -2.94,-16.922 -9.33,-41.094 -2.75,-10.703 -8.79,-17.953 -16.4,-17.953 -1.03,0 -5,0 -8.63,2.235 4.31,0.875 8.11,4.5 8.11,9.328 0,4.672 -3.8,6.047 -6.39,6.047 -5.17,0 -9.48,-4.485 -9.48,-10.016 0,-7.953 8.62,-11.406 16.21,-11.406 11.41,0 17.63,12.094 18.15,13.125 2.07,-6.391 8.28,-13.125 18.65,-13.125 17.78,0 27.63,22.281 27.63,26.594 0,1.734 -1.55,1.734 -2.08,1.734 -1.55,0 -1.89,-0.688 -2.24,-1.906 -5.7,-18.469 -17.45,-22.61 -22.96,-22.61 -6.74,0 -9.5,5.516 -9.5,11.391 0,3.797 1.03,7.594 2.93,15.203 l 5.88,23.656 c 1.03,4.485 5,20.375 17.09,20.375 0.86,0 5,0 8.63,-2.25 -4.83,-0.859 -8.28,-5.172 -8.28,-9.328 0,-2.75 1.89,-6.031 6.56,-6.031 3.79,0 9.33,3.109 9.33,10.016" /><path
         id="path46"
         style="fill:#000000;fill-opacity:1;fill-rule:nonzero;stroke:none"
         d="m 2078.47,175.609 c 0,10.86 -6.31,19.079 -15.86,19.079 -5.48,0 -10.36,-3.454 -13.94,-7.157 l 8.81,35.891 c 0,0 0,1.312 -1.54,1.312 -2.74,0 -11.44,-0.953 -14.55,-1.203 -0.95,-0.109 -2.26,-0.234 -2.26,-2.375 0,-1.437 1.07,-1.437 2.87,-1.437 5.72,0 5.95,-0.828 5.95,-2.031 0,-0.829 -1.07,-4.875 -1.67,-7.391 l -9.76,-38.859 c -1.44,-5.954 -1.91,-7.86 -1.91,-12.032 0,-11.328 6.31,-18.718 15.12,-18.718 14.08,0 28.74,17.765 28.74,34.921 z m -8.58,5.25 c 0,-7.031 -3.94,-20.734 -6.08,-25.265 -3.93,-7.985 -9.42,-12.281 -14.08,-12.281 -4.04,0 -7.98,3.218 -7.98,12.031 0,2.265 0,4.531 1.91,12.047 l 2.62,10.968 c 0.72,2.625 0.72,2.86 1.8,4.172 5.83,7.75 11.2,9.532 14.3,9.532 4.29,0 7.51,-3.579 7.51,-11.204" /><path
         id="path48"
         style="fill:#000000;fill-opacity:1;fill-rule:nonzero;stroke:none"
         d="m 2259.69,244.922 c 0,1.906 -1.56,3.453 -3.46,3.453 h -108.1 c -1.91,0 -3.46,-1.547 -3.46,-3.453 0,-1.891 1.55,-3.453 3.46,-3.453 h 108.1 c 1.9,0 3.46,1.562 3.46,3.453 z m 0,-33.5 c 0,1.906 -1.56,3.453 -3.46,3.453 h -108.1 c -1.91,0 -3.46,-1.547 -3.46,-3.453 0,-1.906 1.55,-3.453 3.46,-3.453 h 108.1 c 1.9,0 3.46,1.547 3.46,3.453" /><path
         id="path50"
         style="fill:#000000;fill-opacity:1;fill-rule:nonzero;stroke:none"
         d="m 2421.31,249.234 c 0,4.5 -0.87,8.297 -3.45,10.547 -1.05,1.032 -2.42,1.547 -3.98,1.547 -2.07,0 -4.32,-1.031 -6.04,-2.765 -1.56,-1.719 -2.42,-3.625 -2.42,-5.516 0,-1.734 0.69,-3.109 1.89,-4.328 4.33,-3.797 6.57,-9.141 6.57,-15.188 0,-2.078 -0.18,-4.328 -0.69,-6.39 -3.97,-15.719 -13.99,-31.61 -27.63,-31.61 -9.67,0 -15.37,6.563 -16.92,15.547 2.24,4.828 3.97,10.016 5.17,15.203 0.35,1.547 0.69,3.094 0.69,4.485 0,2.593 -0.86,4.484 -3.28,4.484 -3.28,0 -5,-4.312 -5.86,-8.109 -1.39,-5.36 -2.08,-10.532 -2.25,-15.547 -5.7,-9.328 -13.98,-16.063 -23.48,-16.063 -10.54,0 -15.04,8.641 -15.04,19.516 0,3.453 0.52,7.422 1.39,11.234 2.6,10.36 8.8,20.032 15.36,29.172 0.54,0.703 0.88,1.563 0.88,2.25 0,1.031 -0.7,1.906 -1.56,2.422 -0.52,0.344 -1.03,0.344 -1.55,0.344 -1.05,0 -2.25,-0.516 -3.11,-1.563 -7.08,-9.843 -11.41,-20.89 -14.17,-31.765 -1.72,-6.563 -2.58,-13.297 -2.58,-19.344 0,-13.984 5,-24.703 18.13,-24.703 10.87,0 19.85,7.609 26.42,18.312 1.9,-10.703 7.95,-18.312 19.51,-18.312 17.97,0 28.85,22.281 34.02,43.187 1.9,7.422 3.98,16.047 3.98,22.953" /><path
         id="path52"
         style="fill:#000000;fill-opacity:1;fill-rule:nonzero;stroke:none"
         d="m 2474.06,184.438 c 0,5.359 -5.12,10.25 -14.18,10.25 -15.74,0 -20.15,-12.157 -20.15,-17.407 0,-9.297 8.83,-11.078 12.29,-11.797 6.2,-1.187 12.39,-2.5 12.39,-9.062 0,-3.094 -2.74,-13.109 -17.05,-13.109 -1.67,0 -10.84,0 -13.58,6.312 4.52,-0.594 7.5,2.984 7.5,6.328 0,2.735 -1.9,4.172 -4.4,4.172 -3.1,0 -6.68,-2.516 -6.68,-7.875 0,-6.797 6.8,-11.562 17.05,-11.562 19.31,0 23.95,14.421 23.95,19.796 0,4.282 -2.26,7.266 -3.68,8.688 -3.22,3.344 -6.69,3.937 -11.93,5.016 -4.29,0.953 -9.06,1.781 -9.06,7.156 0,3.453 2.86,10.719 13.35,10.719 2.98,0 8.95,-0.829 10.73,-5.485 -3.34,-0.109 -5.72,-2.734 -5.72,-5.359 0,-1.672 1.06,-3.453 3.69,-3.453 2.62,0 5.48,2.015 5.48,6.672" /><path
         id="path54"
         style="fill:#000000;fill-opacity:1;fill-rule:nonzero;stroke:none"
         d="m 2626.09,186.375 -41.95,100.172 c -1.39,3.109 -5.7,3.109 -6.92,0 l -41.95,-100.172 c -1.91,-4.312 4.48,-6.906 6.21,-2.75 l 39.21,93.25 39.01,-93.25 c 1.74,-4.156 8.13,-1.562 6.39,2.75" /><path
         id="path56"
         style="fill:#000000;fill-opacity:1;fill-rule:nonzero;stroke:none"
         d="m 2764.84,289.828 c -9.67,8.453 -20.2,15.719 -31.43,21.922 -11.22,-6.203 -21.75,-13.469 -31.43,-21.922 l 2.07,-3.453 c 10.01,4.313 19.86,9.328 29.36,14.672 9.5,-5.344 19.34,-10.359 29.36,-14.672 l 2.07,3.453" /><path
         id="path58"
         style="fill:#000000;fill-opacity:1;fill-rule:nonzero;stroke:none"
         d="m 2768.02,249.938 c 0,8.968 -10.19,11.39 -16.07,11.39 -10.01,0 -16.06,-9.156 -18.14,-13.125 -4.31,11.406 -13.64,13.125 -18.64,13.125 -17.97,0 -27.81,-22.281 -27.81,-26.594 0,-1.718 2.08,-1.718 2.08,-1.718 1.37,0 1.89,0.343 2.23,1.89 5.88,18.313 17.28,22.625 23.14,22.625 3.28,0 9.33,-1.547 9.33,-11.578 0,-5.344 -2.94,-16.922 -9.33,-41.094 -2.75,-10.703 -8.79,-17.953 -16.4,-17.953 -1.03,0 -5,0 -8.63,2.235 4.31,0.875 8.11,4.5 8.11,9.328 0,4.672 -3.8,6.047 -6.39,6.047 -5.17,0 -9.48,-4.485 -9.48,-10.016 0,-7.953 8.62,-11.406 16.21,-11.406 11.41,0 17.63,12.094 18.15,13.125 2.07,-6.391 8.28,-13.125 18.65,-13.125 17.78,0 27.63,22.281 27.63,26.594 0,1.734 -1.55,1.734 -2.08,1.734 -1.55,0 -1.89,-0.688 -2.24,-1.906 -5.7,-18.469 -17.45,-22.61 -22.96,-22.61 -6.74,0 -9.5,5.516 -9.5,11.391 0,3.797 1.03,7.594 2.93,15.203 l 5.88,23.656 c 1.03,4.485 5,20.375 17.09,20.375 0.86,0 5,0 8.63,-2.25 -4.83,-0.859 -8.28,-5.172 -8.28,-9.328 0,-2.75 1.89,-6.031 6.56,-6.031 3.79,0 9.33,3.109 9.33,10.016" /><path
         id="path60"
         style="fill:#000000;fill-opacity:1;fill-rule:nonzero;stroke:none"
         d="m 2824.47,175.609 c 0,10.86 -6.31,19.079 -15.86,19.079 -5.48,0 -10.36,-3.454 -13.94,-7.157 l 8.81,35.891 c 0,0 0,1.312 -1.54,1.312 -2.74,0 -11.44,-0.953 -14.55,-1.203 -0.95,-0.109 -2.26,-0.234 -2.26,-2.375 0,-1.437 1.07,-1.437 2.87,-1.437 5.72,0 5.95,-0.828 5.95,-2.031 0,-0.829 -1.07,-4.875 -1.67,-7.391 l -9.76,-38.859 c -1.44,-5.954 -1.91,-7.86 -1.91,-12.032 0,-11.328 6.31,-18.718 15.12,-18.718 14.08,0 28.74,17.765 28.74,34.921 z m -8.58,5.25 c 0,-7.031 -3.94,-20.734 -6.08,-25.265 -3.93,-7.985 -9.42,-12.281 -14.08,-12.281 -4.04,0 -7.98,3.218 -7.98,12.031 0,2.265 0,4.531 1.91,12.047 l 2.62,10.968 c 0.72,2.625 0.72,2.86 1.8,4.172 5.83,7.75 11.2,9.532 14.3,9.532 4.29,0 7.51,-3.579 7.51,-11.204" /><path
         id="path62"
         style="fill:none;stroke:#ff0000;stroke-width:39.851;stroke-linecap:round;stroke-linejoin:miter;stroke-miterlimit:10;stroke-dasharray:none;stroke-opacity:1"
         d="M 3227,1603.73 2644.58,821.785" /><path
         id="path64"
         style="fill:none;stroke:#ff0000;stroke-width:39.849;stroke-linecap:butt;stroke-linejoin:miter;stroke-miterlimit:10;stroke-dasharray:none;stroke-opacity:1"
         d="m 2765.11,825.172 -132.43,-19.367 -19.37,132.437" /><path
         id="path66"
         style="fill:none;stroke:#00ff00;stroke-width:39.851;stroke-linecap:round;stroke-linejoin:miter;stroke-miterlimit:10;stroke-dasharray:none;stroke-opacity:1"
         d="m 3227,1603.73 749.14,-110.96" /><path
         id="path68"
         style="fill:none;stroke:#00ff00;stroke-width:39.8486;stroke-linecap:butt;stroke-linejoin:miter;stroke-miterlimit:10;stroke-dasharray:none;stroke-opacity:1"
         d="m 3916.1,1597.33 79.76,-107.49 -107.49,-79.75" /><path
         id="path70"
         style="fill:none;stroke:#000000;stroke-width:19.9255;stroke-linecap:round;stroke-linejoin:miter;stroke-miterlimit:10;stroke-dasharray:none;stroke-opacity:1"
         d="m 3227,1603.73 703.84,351.2" /><path
         id="path72"
         style="fill:none;stroke:#0000ff;stroke-width:39.851;stroke-linecap:round;stroke-linejoin:miter;stroke-miterlimit:10;stroke-dasharray:none;stroke-opacity:1"
         d="m 3227,1603.73 -499.64,733.8" /><path
         id="path74"
         style="fill:none;stroke:#0000ff;stroke-width:39.849;stroke-linecap:butt;stroke-linejoin:miter;stroke-miterlimit:10;stroke-dasharray:none;stroke-opacity:1"
         d="m 2691.18,2222.5 24.97,131.5 131.49,-24.96" /><path
         id="path76"
         style="fill:none;stroke:#000000;stroke-width:19.9255;stroke-linecap:round;stroke-linejoin:miter;stroke-miterlimit:10;stroke-dasharray:none;stroke-opacity:1"
         d="m 3984.97,1820.54 c 89.71,-145.29 157.35,-193.35 151.1,-107.33 -6.26,86.02 -84.05,273.54 -173.76,418.83 -89.7,145.3 -157.35,193.35 -151.1,107.33 2,-27.51 11.54,-66.48 27.19,-112.42" /><path
         id="path78"
         style="fill:#000000;fill-opacity:1;fill-rule:nonzero;stroke:none"
         d="m 3863.07,2064.38 c -1.04,8.62 -3.08,47.49 0.88,73.82 l -51.25,-19.86 c 20.66,-16.79 45.34,-46.88 50.37,-53.96" /><path
         id="path80"
         style="fill:none;stroke:#000000;stroke-width:19.9246;stroke-linecap:round;stroke-linejoin:miter;stroke-miterlimit:10;stroke-dasharray:none;stroke-opacity:1"
         d="m 3863.07,2064.38 c -1.04,8.62 -3.08,47.49 0.88,73.82 l -51.25,-19.86 c 20.66,-16.79 45.34,-46.88 50.37,-53.96 z" /><path
         id="path82"
         style="fill:#000000;fill-opacity:1;fill-rule:nonzero;stroke:none"
         d="m 3848.56,2481.77 c 0,4.65 -3.97,9.14 -9.15,9.14 -5.88,0 -9.33,-4.83 -9.33,-9.14 0,-4.68 3.98,-9.16 9.15,-9.16 5.88,0 9.33,4.83 9.33,9.16" /><path
         id="path84"
         style="fill:#000000;fill-opacity:1;fill-rule:nonzero;stroke:none"
         d="m 3864.58,2416.34 c 0,11.41 -3.11,35.41 -20.72,35.41 -24.02,0 -50.61,-48.7 -50.61,-88.25 0,-16.23 5.02,-35.41 20.72,-35.41 24.36,0 50.61,49.57 50.61,88.25 z m -11.41,10.71 c 0,-8.46 -1.37,-17.27 -5.51,-34.36 h -36.1 c 2.94,11.04 6.39,24.87 13.3,37.12 4.66,8.47 11.05,18.14 18.83,18.14 8.45,0 9.48,-11.06 9.48,-20.9 z m -7.08,-39.89 c -1.89,-7.94 -5.51,-22.63 -12.07,-35.05 -6.05,-11.75 -12.61,-20.2 -20.05,-20.2 -5.69,0 -9.31,5 -9.31,21.06 0,7.25 1.03,17.26 5.51,34.19 h 35.92" /><path
         id="path86"
         style="fill:none;stroke:#ffffff;stroke-width:39.851;stroke-linecap:butt;stroke-linejoin:miter;stroke-miterlimit:10;stroke-dasharray:none;stroke-opacity:1"
         d="m 3930.84,1954.93 291.68,145.54" /><path
         id="path88"
         style="fill:none;stroke:#000000;stroke-width:19.9255;stroke-linecap:round;stroke-linejoin:miter;stroke-miterlimit:10;stroke-dasharray:none;stroke-opacity:1"
         d="m 3930.84,1954.93 193.62,96.62" /><path
         id="path90"
         style="fill:#000000;fill-opacity:1;fill-rule:nonzero;stroke:none"
         d="m 4185.77,2082.13 c -8.48,-1.84 -47,-7.49 -73.57,-5.99 l 24.54,-49.19 c 14.78,22.14 42.46,49.51 49.03,55.18" /><path
         id="path92"
         style="fill:none;stroke:#000000;stroke-width:19.9242;stroke-linecap:round;stroke-linejoin:miter;stroke-miterlimit:10;stroke-dasharray:none;stroke-opacity:1"
         d="m 4185.77,2082.13 c -8.48,-1.84 -47,-7.49 -73.57,-5.99 l 24.54,-49.19 c 14.78,22.14 42.46,49.51 49.03,55.18 z" /><path
         id="path94"
         style="fill:#000000;fill-opacity:1;fill-rule:nonzero;stroke:none"
         d="m 4359.84,2163.83 c -9.67,8.45 -20.2,15.72 -31.43,21.92 -11.22,-6.2 -21.75,-13.47 -31.43,-21.92 l 2.07,-3.45 c 10.01,4.31 19.86,9.32 29.36,14.67 9.5,-5.35 19.34,-10.36 29.36,-14.67 l 2.07,3.45" /><path
         id="path96"
         style="fill:#000000;fill-opacity:1;fill-rule:nonzero;stroke:none"
         d="m 4373.31,2123.23 c 0,4.5 -0.87,8.3 -3.45,10.55 -1.05,1.03 -2.42,1.55 -3.98,1.55 -2.07,0 -4.32,-1.03 -6.04,-2.77 -1.56,-1.72 -2.42,-3.62 -2.42,-5.51 0,-1.74 0.69,-3.11 1.89,-4.33 4.33,-3.8 6.57,-9.14 6.57,-15.19 0,-2.08 -0.18,-4.33 -0.69,-6.39 -3.97,-15.72 -13.99,-31.61 -27.63,-31.61 -9.67,0 -15.37,6.56 -16.92,15.55 2.24,4.83 3.97,10.01 5.17,15.2 0.35,1.55 0.69,3.1 0.69,4.49 0,2.59 -0.86,4.48 -3.28,4.48 -3.28,0 -5,-4.31 -5.86,-8.11 -1.39,-5.36 -2.08,-10.53 -2.25,-15.55 -5.7,-9.32 -13.98,-16.06 -23.48,-16.06 -10.54,0 -15.04,8.64 -15.04,19.52 0,3.45 0.52,7.42 1.39,11.23 2.6,10.36 8.8,20.03 15.36,29.17 0.54,0.71 0.88,1.57 0.88,2.25 0,1.03 -0.7,1.91 -1.56,2.43 -0.52,0.34 -1.03,0.34 -1.55,0.34 -1.05,0 -2.25,-0.52 -3.11,-1.56 -7.08,-9.85 -11.41,-20.89 -14.17,-31.77 -1.72,-6.56 -2.58,-13.3 -2.58,-19.34 0,-13.99 5,-24.71 18.13,-24.71 10.87,0 19.85,7.61 26.42,18.32 1.9,-10.71 7.95,-18.32 19.51,-18.32 17.97,0 28.85,22.29 34.02,43.19 1.9,7.42 3.98,16.05 3.98,22.95" /><path
         id="path98"
         style="fill:#000000;fill-opacity:1;fill-rule:nonzero;stroke:none"
         d="m 4426.06,2059.44 c 0,5.36 -5.12,10.25 -14.18,10.25 -15.74,0 -20.15,-12.16 -20.15,-17.41 0,-9.3 8.83,-11.08 12.29,-11.8 6.2,-1.18 12.39,-2.5 12.39,-9.06 0,-3.09 -2.74,-13.11 -17.05,-13.11 -1.67,0 -10.84,0 -13.58,6.32 4.52,-0.6 7.5,2.98 7.5,6.32 0,2.74 -1.9,4.18 -4.4,4.18 -3.1,0 -6.68,-2.52 -6.68,-7.88 0,-6.8 6.8,-11.56 17.05,-11.56 19.31,0 23.95,14.42 23.95,19.79 0,4.29 -2.26,7.27 -3.68,8.69 -3.22,3.35 -6.69,3.94 -11.93,5.02 -4.29,0.95 -9.06,1.78 -9.06,7.15 0,3.46 2.86,10.72 13.35,10.72 2.98,0 8.95,-0.83 10.73,-5.48 -3.34,-0.11 -5.72,-2.74 -5.72,-5.36 0,-1.67 1.06,-3.45 3.69,-3.45 2.62,0 5.48,2.01 5.48,6.67" /><path
         id="path100"
         style="fill:#000000;fill-opacity:1;fill-rule:nonzero;stroke:none"
         d="m 3367.39,1253.91 c 0,1.2 -0.86,2.06 -2.06,2.06 -12.95,0 -22.45,8.47 -22.45,17.44 v 43.18 c 0,10.02 -8.3,17.96 -19.86,21.58 11.56,3.63 19.86,11.58 19.86,21.6 v 43.17 c 0,8.97 9.5,17.44 22.45,17.44 1.2,0 2.06,0.85 2.06,2.07 0,1.21 -0.86,2.07 -2.06,2.07 -18.14,0 -33.86,-8.97 -33.86,-21.58 v -43.17 c 0,-10.02 -9.5,-19.52 -22.44,-19.52 -1.22,0 -2.08,-0.87 -2.08,-2.08 0,-1.2 0.86,-2.08 2.08,-2.08 12.94,0 22.44,-9.48 22.44,-19.5 v -43.18 c 0,-12.6 15.72,-21.58 33.86,-21.58 1.2,0 2.06,0.86 2.06,2.08" /><path
         id="path102"
         style="fill:#000000;fill-opacity:1;fill-rule:nonzero;stroke:none"
         d="m 3451.67,1343.7 c 0,15.72 -9.15,27.63 -22.97,27.63 -7.95,0 -15.03,-5 -20.2,-10.36 l 12.78,51.98 c 0,0 0,1.89 -2.25,1.89 -3.97,0 -16.58,-1.37 -21.08,-1.71 -1.37,-0.18 -3.28,-0.35 -3.28,-3.46 0,-2.08 1.56,-2.08 4.16,-2.08 8.28,0 8.62,-1.2 8.62,-2.93 0,-1.21 -1.54,-7.08 -2.4,-10.71 l -14.17,-56.29 c -2.07,-8.64 -2.77,-11.41 -2.77,-17.44 0,-16.41 9.16,-27.13 21.94,-27.13 20.37,0 41.62,25.74 41.62,50.61 z m -12.44,7.6 c 0,-10.19 -5.7,-30.05 -8.81,-36.61 -5.69,-11.58 -13.64,-17.78 -20.37,-17.78 -5.88,0 -11.57,4.65 -11.57,17.43 0,3.29 0,6.57 2.75,17.44 l 3.82,15.89 c 1.03,3.8 1.03,4.14 2.58,6.05 8.46,11.22 16.23,13.81 20.73,13.81 6.22,0 10.87,-5.19 10.87,-16.23" /><path
         id="path104"
         style="fill:#000000;fill-opacity:1;fill-rule:nonzero;stroke:none"
         d="m 3529.39,1338.17 c 0,1.21 -0.86,2.08 -2.06,2.08 -12.95,0 -22.45,9.5 -22.45,19.52 v 43.17 c 0,12.61 -15.72,21.58 -33.85,21.58 -1.22,0 -2.08,-0.86 -2.08,-2.07 0,-1.22 0.86,-2.07 2.08,-2.07 12.94,0 22.44,-8.47 22.44,-17.44 v -43.17 c 0,-10.02 8.3,-17.97 19.86,-21.6 -11.56,-3.62 -19.86,-11.56 -19.86,-21.58 v -43.18 c 0,-8.97 -9.5,-17.44 -22.44,-17.44 -1.22,0 -2.08,-0.86 -2.08,-2.06 0,-1.22 0.86,-2.08 2.08,-2.08 18.13,0 33.85,8.98 33.85,21.58 v 43.18 c 0,10.02 9.5,19.5 22.45,19.5 1.2,0 2.06,0.88 2.06,2.08" /></g></g></svg>
