<?xml version="1.0" encoding="UTF-8" standalone="no"?>
<svg
   xmlns:dc="http://purl.org/dc/elements/1.1/"
   xmlns:cc="http://creativecommons.org/ns#"
   xmlns:rdf="http://www.w3.org/1999/02/22-rdf-syntax-ns#"
   xmlns:svg="http://www.w3.org/2000/svg"
   xmlns="http://www.w3.org/2000/svg"
   id="svg47"
   version="1.2"
   viewBox="0 0 243.97 48.76"
   height="48.76pt"
   width="243.97pt">
  <metadata
     id="metadata53">
    <rdf:RDF>
      <cc:Work
         rdf:about="">
        <dc:format>image/svg+xml</dc:format>
        <dc:type
           rdf:resource="http://purl.org/dc/dcmitype/StillImage" />
      </cc:Work>
    </rdf:RDF>
  </metadata>
  <defs
     id="defs51" />
  <g
     id="surface1">
    <path
       id="path2"
       d="M 126.128906 19.449219 C 126.128906 17.792969 126.128906 13.632813 122.054688 13.632813 C 117.960938 13.632813 117.960938 17.777344 117.960938 19.449219 C 117.960938 21.109375 117.960938 25.167969 122.035156 25.167969 C 126.109375 25.167969 126.128906 21.160156 126.128906 19.449219 Z M 122.054688 24.597656 C 121.5 24.597656 121.085938 24.371094 120.742188 24.011719 C 120.308594 23.578125 120.03125 23.300781 120.03125 19.246094 C 120.03125 18.035156 120.03125 16.929688 120.171875 16.03125 C 120.414063 14.324219 121.65625 14.199219 122.035156 14.199219 C 122.589844 14.199219 123.660156 14.460938 123.898438 15.910156 C 124.054688 16.792969 124.054688 18.191406 124.054688 19.246094 C 124.054688 23.320313 123.796875 23.5625 123.277344 24.078125 C 122.933594 24.425781 122.46875 24.597656 122.054688 24.597656 "
       style=" stroke:none;fill-rule:nonzero;fill:rgb(0%,0%,0%);fill-opacity:1;" />
    <path
       id="path4"
       d="M 137.589844 39.457031 C 137.8125 40.425781 138.640625 40.632813 139.054688 40.632813 C 139.609375 40.632813 140.023438 40.269531 140.300781 39.683594 C 140.59375 39.0625 140.820313 38.042969 140.820313 37.992188 C 140.820313 37.902344 140.746094 37.835938 140.644531 37.835938 C 140.492188 37.835938 140.472656 37.921875 140.402344 38.179688 C 140.09375 39.371094 139.78125 40.285156 139.089844 40.285156 C 138.574219 40.285156 138.574219 39.71875 138.574219 39.492188 C 138.574219 39.097656 138.625 38.921875 138.796875 38.199219 C 138.917969 37.730469 139.039063 37.265625 139.144531 36.78125 L 139.851563 33.964844 C 139.972656 33.535156 139.972656 33.5 139.972656 33.449219 C 139.972656 33.191406 139.765625 33.015625 139.507813 33.015625 C 139.003906 33.015625 138.882813 33.449219 138.78125 33.878906 C 138.609375 34.554688 137.675781 38.265625 137.554688 38.871094 C 137.539063 38.871094 136.863281 40.285156 135.601563 40.285156 C 134.703125 40.285156 134.53125 39.511719 134.53125 38.871094 C 134.53125 37.886719 135.015625 36.503906 135.464844 35.347656 C 135.671875 34.796875 135.757813 34.570313 135.757813 34.226563 C 135.757813 33.484375 135.222656 32.84375 134.394531 32.84375 C 132.804688 32.84375 132.164063 35.347656 132.164063 35.488281 C 132.164063 35.554688 132.234375 35.640625 132.355469 35.640625 C 132.511719 35.640625 132.53125 35.574219 132.597656 35.332031 C 133.011719 33.847656 133.6875 33.191406 134.34375 33.191406 C 134.515625 33.191406 134.789063 33.207031 134.789063 33.761719 C 134.789063 34.207031 134.601563 34.710938 134.34375 35.367188 C 133.582031 37.421875 133.496094 38.078125 133.496094 38.59375 C 133.496094 40.355469 134.824219 40.632813 135.535156 40.632813 C 136.640625 40.632813 137.242188 39.871094 137.589844 39.457031 "
       style=" stroke:none;fill-rule:nonzero;fill:rgb(0%,0%,100%);fill-opacity:1;" />
    <path
       id="path6"
       d="M 42.933594 13.65625 C 42.933594 13.257813 42.933594 13.207031 42.554688 13.207031 L 41.257813 14.449219 C 40.292969 13.621094 39.136719 13.207031 37.859375 13.207031 C 33.730469 13.207031 31.070313 15.710938 31.070313 19.335938 C 31.070313 22.894531 33.644531 25.46875 37.875 25.46875 C 40.949219 25.46875 42.933594 23.359375 42.933594 21.324219 C 42.933594 21.027344 42.832031 21.011719 42.570313 21.011719 C 42.398438 21.011719 42.226563 21.011719 42.210938 21.203125 C 42.054688 23.828125 39.828125 24.722656 38.273438 24.722656 C 37.148438 24.722656 35.628906 24.414063 34.664063 23.324219 C 34.058594 22.667969 33.507813 21.71875 33.507813 19.335938 C 33.507813 17.644531 33.765625 16.382813 34.578125 15.417969 C 35.679688 14.121094 37.40625 13.949219 38.238281 13.949219 C 39.53125 13.949219 41.621094 14.675781 42.140625 17.714844 C 42.175781 17.871094 42.328125 17.871094 42.539063 17.871094 C 42.933594 17.871094 42.933594 17.832031 42.933594 17.417969 L 42.933594 13.65625 "
       style=" stroke:none;fill-rule:nonzero;fill:rgb(0%,0%,0%);fill-opacity:1;" />
    <path
       id="path8"
       d="M 21.199219 13.257813 C 21.199219 13.101563 21.078125 13.101563 21.046875 13.101563 C 21.011719 13.101563 20.941406 13.101563 20.804688 13.277344 L 19.609375 14.726563 C 19.007813 13.691406 18.058594 13.101563 16.761719 13.101563 C 13.03125 13.101563 9.164063 16.886719 9.164063 20.941406 C 9.164063 23.828125 11.183594 25.621094 13.703125 25.621094 C 15.085938 25.621094 16.296875 25.035156 17.296875 24.191406 C 18.800781 22.929688 19.25 21.253906 19.25 21.113281 C 19.25 20.960938 19.109375 20.960938 19.058594 20.960938 C 18.902344 20.960938 18.886719 21.0625 18.851563 21.132813 C 18.058594 23.828125 15.726563 25.121094 14 25.121094 C 12.167969 25.121094 10.578125 23.949219 10.578125 21.496094 C 10.578125 20.941406 10.75 17.9375 12.703125 15.675781 C 13.652344 14.570313 15.277344 13.605469 16.917969 13.605469 C 18.816406 13.605469 19.664063 15.175781 19.664063 16.9375 C 19.664063 17.386719 19.609375 17.765625 19.609375 17.832031 C 19.609375 17.988281 19.785156 17.988281 19.835938 17.988281 C 20.027344 17.988281 20.042969 17.972656 20.113281 17.660156 L 21.199219 13.257813 "
       style=" stroke:none;fill-rule:nonzero;fill:rgb(0%,0%,100%);fill-opacity:1;" />
    <path
       id="path10"
       d="M 26.46875 16.34375 C 26.46875 15.910156 26.121094 15.632813 25.757813 15.632813 C 25.414063 15.632813 25.050781 15.910156 25.050781 16.34375 C 25.050781 16.773438 25.394531 17.050781 25.757813 17.050781 C 26.105469 17.050781 26.46875 16.773438 26.46875 16.34375 Z M 26.46875 22.351563 C 26.46875 21.921875 26.121094 21.644531 25.757813 21.644531 C 25.414063 21.644531 25.050781 21.921875 25.050781 22.351563 C 25.050781 22.785156 25.394531 23.058594 25.757813 23.058594 C 26.105469 23.058594 26.46875 22.785156 26.46875 22.351563 "
       style=" stroke:none;fill-rule:nonzero;fill:rgb(0%,0%,100%);fill-opacity:1;" />
    <path
       id="path12"
       d="M 209.035156 19.386719 C 211.367188 18.765625 211.9375 17.523438 211.9375 16.589844 C 211.9375 14.863281 210.121094 13.414063 206.929688 13.414063 L 200.554688 13.414063 L 200.554688 14.15625 L 202.386719 14.15625 L 202.386719 24.519531 L 200.554688 24.519531 L 200.554688 25.261719 C 201.058594 25.226563 202.851563 25.226563 203.476563 25.226563 C 204.097656 25.226563 205.910156 25.226563 206.410156 25.261719 L 206.410156 24.519531 L 204.578125 24.519531 L 204.578125 19.613281 L 206.632813 19.613281 C 207.328125 19.613281 207.878906 19.820313 208.257813 20.269531 C 208.777344 20.855469 208.777344 21.238281 208.777344 22.394531 C 208.777344 23.550781 208.777344 24.257813 209.65625 24.847656 C 210.554688 25.449219 211.972656 25.46875 212.351563 25.46875 C 214.113281 25.46875 214.320313 23.914063 214.320313 23.671875 C 214.320313 23.378906 214.179688 23.324219 213.957031 23.324219 C 213.628906 23.324219 213.613281 23.445313 213.59375 23.671875 C 213.507813 24.535156 212.972656 24.898438 212.488281 24.898438 C 211.382813 24.898438 211.261719 23.738281 211.125 22.152344 C 211.023438 21.238281 210.898438 19.957031 209.035156 19.386719 Z M 206.601563 19.042969 L 204.578125 19.042969 L 204.578125 14.15625 L 206.632813 14.15625 C 209.449219 14.15625 209.503906 15.574219 209.503906 16.589844 C 209.503906 17.542969 209.484375 19.042969 206.601563 19.042969 "
       style=" stroke:none;fill-rule:nonzero;fill:rgb(0%,0%,0%);fill-opacity:1;" />
    <path
       id="path14"
       d="M 229.054688 14.640625 C 229.210938 14 229.28125 13.964844 229.953125 13.964844 L 231.195313 13.964844 C 232.679688 13.964844 233.789063 14.414063 233.789063 15.761719 C 233.789063 16.644531 233.339844 19.183594 229.867188 19.183594 L 227.914063 19.183594 Z M 231.457031 19.386719 C 233.597656 18.921875 235.273438 17.542969 235.273438 16.054688 C 235.273438 14.707031 233.90625 13.464844 231.507813 13.464844 L 226.828125 13.464844 C 226.480469 13.464844 226.328125 13.464844 226.328125 13.792969 C 226.328125 13.964844 226.445313 13.964844 226.773438 13.964844 C 227.8125 13.964844 227.8125 14.105469 227.8125 14.292969 C 227.8125 14.328125 227.8125 14.433594 227.742188 14.691406 L 225.410156 23.980469 C 225.257813 24.585938 225.222656 24.757813 224.03125 24.757813 C 223.632813 24.757813 223.511719 24.757813 223.511719 25.085938 C 223.511719 25.261719 223.703125 25.261719 223.753906 25.261719 C 224.0625 25.261719 224.425781 25.226563 224.753906 25.226563 L 226.792969 25.226563 C 227.101563 25.226563 227.464844 25.261719 227.777344 25.261719 C 227.914063 25.261719 228.105469 25.261719 228.105469 24.933594 C 228.105469 24.757813 227.949219 24.757813 227.691406 24.757813 C 226.636719 24.757813 226.636719 24.621094 226.636719 24.449219 C 226.636719 24.429688 226.636719 24.308594 226.671875 24.171875 L 227.828125 19.527344 L 229.902344 19.527344 C 231.542969 19.527344 231.851563 20.5625 231.851563 21.132813 C 231.851563 21.390625 231.679688 22.066406 231.558594 22.515625 C 231.367188 23.308594 231.316406 23.5 231.316406 23.828125 C 231.316406 25.050781 232.320313 25.621094 233.476563 25.621094 C 234.875 25.621094 235.480469 23.914063 235.480469 23.671875 C 235.480469 23.550781 235.394531 23.5 235.289063 23.5 C 235.152344 23.5 235.117188 23.601563 235.082031 23.738281 C 234.667969 24.964844 233.960938 25.277344 233.527344 25.277344 C 233.097656 25.277344 232.820313 25.085938 232.820313 24.308594 C 232.820313 23.894531 233.027344 22.324219 233.042969 22.238281 C 233.132813 21.597656 233.132813 21.53125 233.132813 21.390625 C 233.132813 20.128906 232.113281 19.597656 231.457031 19.386719 "
       style=" stroke:none;fill-rule:nonzero;fill:rgb(0%,0%,100%);fill-opacity:1;" />
    <path
       id="path16"
       d="M 219.265625 16.34375 C 219.265625 15.910156 218.921875 15.632813 218.558594 15.632813 C 218.214844 15.632813 217.851563 15.910156 217.851563 16.34375 C 217.851563 16.773438 218.195313 17.050781 218.558594 17.050781 C 218.90625 17.050781 219.265625 16.773438 219.265625 16.34375 Z M 219.265625 22.351563 C 219.265625 21.921875 218.921875 21.644531 218.558594 21.644531 C 218.214844 21.644531 217.851563 21.921875 217.851563 22.351563 C 217.851563 22.785156 218.195313 23.058594 218.558594 23.058594 C 218.90625 23.058594 219.265625 22.785156 219.265625 22.351563 "
       style=" stroke:none;fill-rule:nonzero;fill:rgb(0%,0%,100%);fill-opacity:1;" />
    <path
       id="path18"
       transform="matrix(0.1,0,0,-0.1,0,48.76)"
       d="M 1107.148438 293.967188 L 530.507813 293.967188 "
       style="fill:none;stroke-width:15.9404;stroke-linecap:butt;stroke-linejoin:miter;stroke:rgb(0%,0%,0%);stroke-opacity:1;stroke-miterlimit:10;" />
    <path
       id="path20"
       transform="matrix(0.1,0,0,-0.1,0,48.76)"
       d="M 1111.132813 357.717188 L 1111.132813 230.217188 "
       style="fill:none;stroke-width:15.9404;stroke-linecap:butt;stroke-linejoin:miter;stroke:rgb(0%,0%,0%);stroke-opacity:1;stroke-miterlimit:10;" />
    <path
       id="path22"
       transform="matrix(0.1,0,0,-0.1,0,48.76)"
       d="M 530.507813 293.967188 L 514.570313 293.967188 L 583.28125 236.310938 "
       style="fill:none;stroke-width:15.9404;stroke-linecap:butt;stroke-linejoin:miter;stroke:rgb(0%,0%,0%);stroke-opacity:1;stroke-miterlimit:10;" />
    <path
       id="path24"
       d="M 77.765625 12.769531 C 77.921875 13.4375 78.492188 13.578125 78.777344 13.578125 C 79.160156 13.578125 79.445313 13.328125 79.636719 12.925781 C 79.839844 12.496094 79.992188 11.792969 79.992188 11.753906 C 79.992188 11.695313 79.945313 11.648438 79.875 11.648438 C 79.765625 11.648438 79.757813 11.707031 79.707031 11.886719 C 79.492188 12.707031 79.277344 13.339844 78.800781 13.339844 C 78.445313 13.339844 78.445313 12.949219 78.445313 12.792969 C 78.445313 12.519531 78.480469 12.398438 78.601563 11.898438 C 78.683594 11.578125 78.765625 11.253906 78.835938 10.921875 L 79.328125 8.976563 C 79.410156 8.679688 79.410156 8.65625 79.410156 8.621094 C 79.410156 8.441406 79.265625 8.324219 79.085938 8.324219 C 78.742188 8.324219 78.660156 8.621094 78.585938 8.917969 C 78.46875 9.382813 77.824219 11.945313 77.742188 12.363281 C 77.730469 12.363281 77.265625 13.339844 76.394531 13.339844 C 75.773438 13.339844 75.65625 12.804688 75.65625 12.363281 C 75.65625 11.683594 75.988281 10.730469 76.296875 9.933594 C 76.441406 9.550781 76.5 9.394531 76.5 9.15625 C 76.5 8.644531 76.132813 8.203125 75.558594 8.203125 C 74.460938 8.203125 74.023438 9.933594 74.023438 10.027344 C 74.023438 10.074219 74.070313 10.132813 74.152344 10.132813 C 74.261719 10.132813 74.273438 10.085938 74.320313 9.917969 C 74.605469 8.894531 75.070313 8.441406 75.523438 8.441406 C 75.644531 8.441406 75.835938 8.453125 75.835938 8.835938 C 75.835938 9.144531 75.703125 9.492188 75.523438 9.941406 C 75 11.363281 74.9375 11.816406 74.9375 12.171875 C 74.9375 13.386719 75.859375 13.578125 76.347656 13.578125 C 77.109375 13.578125 77.527344 13.054688 77.765625 12.769531 "
       style=" stroke:none;fill-rule:nonzero;fill:rgb(0%,50%,0%);fill-opacity:1;" />
    <path
       id="path26"
       d="M 86.726563 9.878906 C 86.734375 9.847656 86.75 9.800781 86.75 9.761719 C 86.75 9.707031 86.703125 9.664063 86.648438 9.664063 C 86.589844 9.664063 86.566406 9.691406 86.503906 9.761719 L 85.945313 10.371094 C 85.875 10.269531 85.453125 9.664063 84.523438 9.664063 C 82.679688 9.664063 80.820313 11.375 80.820313 13.203125 C 80.820313 14.585938 81.871094 15.425781 83.132813 15.425781 C 84.175781 15.425781 85.054688 14.792969 85.484375 14.171875 C 85.75 13.78125 85.851563 13.402344 85.851563 13.351563 C 85.851563 13.28125 85.804688 13.25 85.734375 13.25 C 85.636719 13.25 85.621094 13.289063 85.597656 13.378906 C 85.265625 14.472656 84.191406 15.164063 83.238281 15.164063 C 82.425781 15.164063 81.578125 14.6875 81.578125 13.472656 C 81.578125 13.21875 81.664063 11.890625 82.546875 10.898438 C 83.140625 10.230469 83.953125 9.925781 84.578125 9.925781 C 85.582031 9.925781 85.996094 10.730469 85.996094 11.484375 C 85.996094 11.597656 85.960938 11.746094 85.960938 11.84375 C 85.960938 11.945313 86.066406 11.945313 86.097656 11.945313 C 86.203125 11.945313 86.21875 11.914063 86.25 11.769531 L 86.726563 9.878906 "
       style=" stroke:none;fill-rule:nonzero;fill:rgb(0%,50%,0%);fill-opacity:1;" />
    <path
       id="path28"
       d="M 78.375 29.65625 C 78.375 29.597656 78.328125 29.546875 78.253906 29.546875 C 78.148438 29.546875 78.132813 29.582031 78.074219 29.785156 C 77.765625 30.871094 77.277344 31.242188 76.882813 31.242188 C 76.742188 31.242188 76.574219 31.207031 76.574219 30.847656 C 76.574219 30.527344 76.71875 30.167969 76.847656 29.808594 L 77.683594 27.59375 C 77.71875 27.496094 77.800781 27.285156 77.800781 27.058594 C 77.800781 26.554688 77.445313 26.105469 76.859375 26.105469 C 75.761719 26.105469 75.320313 27.832031 75.320313 27.925781 C 75.320313 27.972656 75.371094 28.035156 75.453125 28.035156 C 75.5625 28.035156 75.570313 27.988281 75.621094 27.820313 C 75.90625 26.816406 76.359375 26.339844 76.824219 26.339844 C 76.929688 26.339844 77.132813 26.355469 77.132813 26.734375 C 77.132813 27.042969 76.976563 27.4375 76.882813 27.699219 L 76.046875 29.917969 C 75.976563 30.109375 75.90625 30.300781 75.90625 30.511719 C 75.90625 31.050781 76.273438 31.480469 76.847656 31.480469 C 77.945313 31.480469 78.375 29.738281 78.375 29.65625 Z M 78.277344 23.921875 C 78.277344 23.742188 78.132813 23.527344 77.875 23.527344 C 77.597656 23.527344 77.289063 23.792969 77.289063 24.101563 C 77.289063 24.398438 77.539063 24.496094 77.683594 24.496094 C 78.003906 24.496094 78.277344 24.183594 78.277344 23.921875 "
       style=" stroke:none;fill-rule:nonzero;fill:rgb(0%,50%,0%);fill-opacity:1;" />
    <path
       id="path30"
       d="M 85.328125 27.78125 C 85.335938 27.746094 85.351563 27.699219 85.351563 27.660156 C 85.351563 27.605469 85.300781 27.566406 85.246094 27.566406 C 85.191406 27.566406 85.167969 27.589844 85.101563 27.660156 L 84.546875 28.273438 C 84.476563 28.167969 84.054688 27.566406 83.125 27.566406 C 81.28125 27.566406 79.421875 29.273438 79.421875 31.101563 C 79.421875 32.484375 80.46875 33.328125 81.734375 33.328125 C 82.773438 33.328125 83.65625 32.691406 84.085938 32.070313 C 84.347656 31.683594 84.453125 31.300781 84.453125 31.253906 C 84.453125 31.183594 84.40625 31.148438 84.332031 31.148438 C 84.238281 31.148438 84.222656 31.191406 84.195313 31.277344 C 83.863281 32.371094 82.789063 33.066406 81.835938 33.066406 C 81.027344 33.066406 80.175781 32.589844 80.175781 31.371094 C 80.175781 31.117188 80.265625 29.792969 81.144531 28.796875 C 81.742188 28.128906 82.550781 27.828125 83.179688 27.828125 C 84.179688 27.828125 84.59375 28.628906 84.59375 29.386719 C 84.59375 29.496094 84.5625 29.648438 84.5625 29.742188 C 84.5625 29.847656 84.664063 29.847656 84.699219 29.847656 C 84.800781 29.847656 84.816406 29.816406 84.847656 29.671875 L 85.328125 27.78125 "
       style=" stroke:none;fill-rule:nonzero;fill:rgb(0%,50%,0%);fill-opacity:1;" />
    <path
       id="path32"
       transform="matrix(0.1,0,0,-0.1,0,48.76)"
       d="M 1321.5625 293.967188 L 1891.914063 293.967188 "
       style="fill:none;stroke-width:15.9404;stroke-linecap:butt;stroke-linejoin:miter;stroke:rgb(0%,0%,0%);stroke-opacity:1;stroke-miterlimit:10;" />
    <path
       id="path34"
       transform="matrix(0.1,0,0,-0.1,0,48.76)"
       d="M 1891.914063 293.967188 L 1907.851563 293.967188 L 1839.140625 236.310938 "
       style="fill:none;stroke-width:15.9404;stroke-linecap:butt;stroke-linejoin:miter;stroke:rgb(0%,0%,0%);stroke-opacity:1;stroke-miterlimit:10;" />
    <path
       id="path36"
       transform="matrix(0.1,0,0,-0.1,0,48.76)"
       d="M 1937.734375 357.717188 L 1937.734375 230.217188 "
       style="fill:none;stroke-width:15.9404;stroke-linecap:butt;stroke-linejoin:miter;stroke:rgb(0%,0%,0%);stroke-opacity:1;stroke-miterlimit:10;" />
    <path
       id="path38"
       d="M 160.664063 12.769531 C 160.820313 13.4375 161.390625 13.578125 161.679688 13.578125 C 162.058594 13.578125 162.34375 13.328125 162.535156 12.925781 C 162.738281 12.496094 162.894531 11.792969 162.894531 11.753906 C 162.894531 11.695313 162.847656 11.648438 162.773438 11.648438 C 162.667969 11.648438 162.65625 11.707031 162.609375 11.886719 C 162.394531 12.707031 162.179688 13.339844 161.703125 13.339844 C 161.34375 13.339844 161.34375 12.949219 161.34375 12.792969 C 161.34375 12.519531 161.378906 12.398438 161.5 11.898438 C 161.582031 11.578125 161.664063 11.253906 161.738281 10.921875 L 162.226563 8.976563 C 162.308594 8.679688 162.308594 8.65625 162.308594 8.621094 C 162.308594 8.441406 162.167969 8.324219 161.988281 8.324219 C 161.640625 8.324219 161.558594 8.621094 161.488281 8.917969 C 161.367188 9.382813 160.726563 11.945313 160.640625 12.363281 C 160.628906 12.363281 160.164063 13.339844 159.292969 13.339844 C 158.671875 13.339844 158.554688 12.804688 158.554688 12.363281 C 158.554688 11.683594 158.890625 10.730469 159.199219 9.933594 C 159.34375 9.550781 159.402344 9.394531 159.402344 9.15625 C 159.402344 8.644531 159.03125 8.203125 158.460938 8.203125 C 157.363281 8.203125 156.921875 9.933594 156.921875 10.027344 C 156.921875 10.074219 156.96875 10.132813 157.054688 10.132813 C 157.160156 10.132813 157.171875 10.085938 157.21875 9.917969 C 157.507813 8.894531 157.96875 8.441406 158.421875 8.441406 C 158.542969 8.441406 158.734375 8.453125 158.734375 8.835938 C 158.734375 9.144531 158.601563 9.492188 158.421875 9.941406 C 157.898438 11.363281 157.839844 11.816406 157.839844 12.171875 C 157.839844 13.386719 158.757813 13.578125 159.246094 13.578125 C 160.007813 13.578125 160.425781 13.054688 160.664063 12.769531 "
       style=" stroke:none;fill-rule:nonzero;fill:rgb(0%,50%,0%);fill-opacity:1;" />
    <path
       id="path40"
       d="M 166.28125 10.386719 C 166.355469 10.117188 166.363281 10.09375 166.6875 10.09375 L 167.332031 10.09375 C 167.984375 10.09375 168.59375 10.261719 168.59375 10.90625 C 168.59375 11.253906 168.414063 11.8125 168.046875 12.074219 C 167.664063 12.34375 167.214844 12.429688 166.753906 12.429688 L 165.773438 12.429688 Z M 167.632813 12.558594 C 168.613281 12.3125 169.375 11.714844 169.375 11.039063 C 169.375 10.347656 168.59375 9.832031 167.492188 9.832031 L 165.148438 9.832031 C 165.003906 9.832031 164.898438 9.832031 164.898438 9.984375 C 164.898438 10.09375 165.003906 10.09375 165.132813 10.09375 C 165.394531 10.09375 165.621094 10.09375 165.621094 10.222656 C 165.621094 10.253906 165.617188 10.261719 165.59375 10.363281 L 164.527344 14.632813 C 164.457031 14.933594 164.4375 14.996094 163.851563 14.996094 C 163.699219 14.996094 163.605469 14.996094 163.605469 15.148438 C 163.605469 15.179688 163.628906 15.261719 163.734375 15.261719 C 163.882813 15.261719 164.066406 15.246094 164.226563 15.238281 L 164.71875 15.238281 C 165.457031 15.238281 165.6875 15.261719 165.734375 15.261719 C 165.78125 15.261719 165.894531 15.261719 165.894531 15.109375 C 165.894531 14.996094 165.789063 14.996094 165.65625 14.996094 C 165.632813 14.996094 165.488281 14.996094 165.351563 14.980469 C 165.1875 14.964844 165.171875 14.941406 165.171875 14.871094 C 165.171875 14.832031 165.1875 14.785156 165.195313 14.742188 L 165.710938 12.652344 L 166.742188 12.652344 C 167.460938 12.652344 167.683594 13.035156 167.683594 13.359375 C 167.683594 13.472656 167.628906 13.695313 167.589844 13.863281 C 167.523438 14.089844 167.445313 14.410156 167.445313 14.550781 C 167.445313 15.164063 167.96875 15.425781 168.554688 15.425781 C 169.246094 15.425781 169.574219 14.648438 169.574219 14.496094 C 169.574219 14.464844 169.550781 14.386719 169.445313 14.386719 C 169.359375 14.386719 169.335938 14.457031 169.328125 14.488281 C 169.152344 15.039063 168.8125 15.203125 168.578125 15.203125 C 168.285156 15.203125 168.253906 14.980469 168.253906 14.71875 C 168.253906 14.457031 168.300781 14.109375 168.335938 13.847656 C 168.367188 13.605469 168.367188 13.558594 168.367188 13.480469 C 168.367188 13.003906 168.054688 12.726563 167.632813 12.558594 "
       style=" stroke:none;fill-rule:nonzero;fill:rgb(0%,50%,0%);fill-opacity:1;" />
    <path
       id="path42"
       d="M 161.273438 29.65625 C 161.273438 29.597656 161.226563 29.546875 161.15625 29.546875 C 161.046875 29.546875 161.035156 29.582031 160.976563 29.785156 C 160.664063 30.871094 160.175781 31.242188 159.78125 31.242188 C 159.640625 31.242188 159.472656 31.207031 159.472656 30.847656 C 159.472656 30.527344 159.617188 30.167969 159.746094 29.808594 L 160.582031 27.59375 C 160.617188 27.496094 160.703125 27.285156 160.703125 27.058594 C 160.703125 26.554688 160.34375 26.105469 159.757813 26.105469 C 158.664063 26.105469 158.222656 27.832031 158.222656 27.925781 C 158.222656 27.972656 158.269531 28.035156 158.351563 28.035156 C 158.460938 28.035156 158.472656 27.988281 158.519531 27.820313 C 158.804688 26.816406 159.257813 26.339844 159.722656 26.339844 C 159.832031 26.339844 160.035156 26.355469 160.035156 26.734375 C 160.035156 27.042969 159.878906 27.4375 159.78125 27.699219 L 158.949219 29.917969 C 158.878906 30.109375 158.804688 30.300781 158.804688 30.511719 C 158.804688 31.050781 159.175781 31.480469 159.746094 31.480469 C 160.84375 31.480469 161.273438 29.738281 161.273438 29.65625 Z M 161.179688 23.921875 C 161.179688 23.742188 161.035156 23.527344 160.773438 23.527344 C 160.496094 23.527344 160.1875 23.792969 160.1875 24.101563 C 160.1875 24.398438 160.4375 24.496094 160.582031 24.496094 C 160.90625 24.496094 161.179688 24.183594 161.179688 23.921875 "
       style=" stroke:none;fill-rule:nonzero;fill:rgb(0%,50%,0%);fill-opacity:1;" />
    <path
       id="path44"
       d="M 164.984375 28.289063 C 165.054688 28.019531 165.0625 27.996094 165.390625 27.996094 L 166.03125 27.996094 C 166.683594 27.996094 167.296875 28.160156 167.296875 28.804688 C 167.296875 29.15625 167.113281 29.710938 166.746094 29.972656 C 166.367188 30.242188 165.914063 30.332031 165.453125 30.332031 L 164.476563 30.332031 Z M 166.335938 30.457031 C 167.3125 30.210938 168.074219 29.617188 168.074219 28.941406 C 168.074219 28.25 167.296875 27.730469 166.191406 27.730469 L 163.847656 27.730469 C 163.703125 27.730469 163.601563 27.730469 163.601563 27.882813 C 163.601563 27.996094 163.703125 27.996094 163.832031 27.996094 C 164.09375 27.996094 164.324219 27.996094 164.324219 28.121094 C 164.324219 28.152344 164.316406 28.160156 164.292969 28.265625 L 163.226563 32.53125 C 163.15625 32.832031 163.140625 32.898438 162.550781 32.898438 C 162.398438 32.898438 162.304688 32.898438 162.304688 33.050781 C 162.304688 33.082031 162.328125 33.160156 162.433594 33.160156 C 162.582031 33.160156 162.765625 33.144531 162.925781 33.136719 L 163.417969 33.136719 C 164.15625 33.136719 164.386719 33.160156 164.433594 33.160156 C 164.484375 33.160156 164.59375 33.160156 164.59375 33.007813 C 164.59375 32.898438 164.492188 32.898438 164.355469 32.898438 C 164.332031 32.898438 164.1875 32.898438 164.054688 32.882813 C 163.886719 32.867188 163.871094 32.84375 163.871094 32.769531 C 163.871094 32.730469 163.886719 32.683594 163.894531 32.644531 L 164.410156 30.554688 L 165.445313 30.554688 C 166.160156 30.554688 166.382813 30.933594 166.382813 31.261719 C 166.382813 31.371094 166.328125 31.59375 166.289063 31.761719 C 166.222656 31.992188 166.144531 32.308594 166.144531 32.453125 C 166.144531 33.066406 166.667969 33.328125 167.257813 33.328125 C 167.945313 33.328125 168.273438 32.546875 168.273438 32.398438 C 168.273438 32.363281 168.25 32.285156 168.148438 32.285156 C 168.058594 32.285156 168.035156 32.355469 168.027344 32.390625 C 167.851563 32.9375 167.511719 33.105469 167.28125 33.105469 C 166.984375 33.105469 166.953125 32.882813 166.953125 32.621094 C 166.953125 32.355469 167.003906 32.007813 167.035156 31.746094 C 167.066406 31.507813 167.066406 31.460938 167.066406 31.378906 C 167.066406 30.902344 166.757813 30.625 166.335938 30.457031 "
       style=" stroke:none;fill-rule:nonzero;fill:rgb(0%,50%,0%);fill-opacity:1;" />
  </g>
</svg>
