<?xml version="1.0" encoding="UTF-8" standalone="no"?>
<svg
   xmlns:dc="http://purl.org/dc/elements/1.1/"
   xmlns:cc="http://creativecommons.org/ns#"
   xmlns:rdf="http://www.w3.org/1999/02/22-rdf-syntax-ns#"
   xmlns:svg="http://www.w3.org/2000/svg"
   xmlns="http://www.w3.org/2000/svg"
   id="svg41"
   version="1.2"
   viewBox="0 0 300.66 46.16"
   height="46.16pt"
   width="300.66pt">
  <metadata
     id="metadata47">
    <rdf:RDF>
      <cc:Work
         rdf:about="">
        <dc:format>image/svg+xml</dc:format>
        <dc:type
           rdf:resource="http://purl.org/dc/dcmitype/StillImage" />
      </cc:Work>
    </rdf:RDF>
  </metadata>
  <defs
     id="defs45" />
  <g
     id="surface1">
    <path
       id="path2"
       d="M 154.429688 14.25 C 154.429688 12.59375 154.429688 8.433594 150.351563 8.433594 C 146.257813 8.433594 146.257813 12.574219 146.257813 14.25 C 146.257813 15.910156 146.257813 19.96875 150.335938 19.96875 C 154.410156 19.96875 154.429688 15.960938 154.429688 14.25 Z M 150.351563 19.398438 C 149.800781 19.398438 149.386719 19.171875 149.039063 18.808594 C 148.609375 18.378906 148.332031 18.101563 148.332031 14.042969 C 148.332031 12.835938 148.332031 11.730469 148.46875 10.832031 C 148.714844 9.121094 149.957031 9 150.335938 9 C 150.886719 9 151.960938 9.261719 152.199219 10.710938 C 152.355469 11.589844 152.355469 12.988281 152.355469 14.042969 C 152.355469 18.121094 152.097656 18.363281 151.578125 18.878906 C 151.234375 19.222656 150.765625 19.398438 150.351563 19.398438 "
       style=" stroke:none;fill-rule:nonzero;fill:rgb(0%,0%,0%);fill-opacity:1;" />
    <path
       id="path4"
       d="M 165.890625 34.257813 C 166.113281 35.226563 166.941406 35.433594 167.355469 35.433594 C 167.910156 35.433594 168.324219 35.070313 168.601563 34.484375 C 168.894531 33.863281 169.117188 32.84375 169.117188 32.792969 C 169.117188 32.703125 169.046875 32.636719 168.945313 32.636719 C 168.789063 32.636719 168.773438 32.722656 168.703125 32.980469 C 168.390625 34.171875 168.082031 35.085938 167.390625 35.085938 C 166.871094 35.085938 166.871094 34.519531 166.871094 34.292969 C 166.871094 33.894531 166.925781 33.722656 167.097656 32.996094 C 167.21875 32.53125 167.339844 32.066406 167.445313 31.582031 L 168.152344 28.765625 C 168.273438 28.335938 168.273438 28.300781 168.273438 28.25 C 168.273438 27.988281 168.0625 27.816406 167.804688 27.816406 C 167.304688 27.816406 167.183594 28.25 167.078125 28.679688 C 166.90625 29.355469 165.976563 33.066406 165.855469 33.671875 C 165.839844 33.671875 165.164063 35.085938 163.902344 35.085938 C 163.003906 35.085938 162.832031 34.308594 162.832031 33.671875 C 162.832031 32.6875 163.316406 31.304688 163.765625 30.148438 C 163.972656 29.597656 164.058594 29.371094 164.058594 29.027344 C 164.058594 28.285156 163.523438 27.644531 162.695313 27.644531 C 161.105469 27.644531 160.464844 30.148438 160.464844 30.285156 C 160.464844 30.355469 160.535156 30.441406 160.65625 30.441406 C 160.8125 30.441406 160.828125 30.371094 160.898438 30.128906 C 161.3125 28.644531 161.984375 27.988281 162.640625 27.988281 C 162.816406 27.988281 163.089844 28.007813 163.089844 28.558594 C 163.089844 29.007813 162.902344 29.511719 162.640625 30.167969 C 161.882813 32.222656 161.796875 32.878906 161.796875 33.394531 C 161.796875 35.15625 163.125 35.433594 163.835938 35.433594 C 164.9375 35.433594 165.542969 34.671875 165.890625 34.257813 "
       style=" stroke:none;fill-rule:nonzero;fill:rgb(0%,0%,100%);fill-opacity:1;" />
    <path
       id="path6"
       d="M 173.03125 30.21875 C 173.03125 29.945313 173.03125 29.933594 172.796875 29.933594 C 172.507813 30.253906 171.914063 30.695313 170.683594 30.695313 L 170.683594 31.042969 C 170.960938 31.042969 171.554688 31.042969 172.210938 30.730469 L 172.210938 36.941406 C 172.210938 37.371094 172.175781 37.515625 171.128906 37.515625 L 170.757813 37.515625 L 170.757813 37.859375 C 171.078125 37.835938 172.234375 37.835938 172.628906 37.835938 C 173.023438 37.835938 174.164063 37.835938 174.488281 37.859375 L 174.488281 37.515625 L 174.117188 37.515625 C 173.070313 37.515625 173.03125 37.371094 173.03125 36.941406 L 173.03125 30.21875 "
       style=" stroke:none;fill-rule:nonzero;fill:rgb(0%,0%,100%);fill-opacity:1;" />
    <path
       id="path8"
       d="M 94.773438 8.933594 C 94.773438 8.433594 94.742188 8.433594 94.1875 8.433594 C 92.910156 9.535156 90.992188 9.535156 90.613281 9.535156 L 90.285156 9.535156 L 90.285156 10.277344 L 90.613281 10.277344 C 91.21875 10.277344 92.132813 10.175781 92.824219 9.949219 L 92.824219 19.019531 L 90.421875 19.019531 L 90.421875 19.761719 C 91.148438 19.726563 92.960938 19.726563 93.773438 19.726563 C 94.585938 19.726563 96.414063 19.726563 97.140625 19.761719 L 97.140625 19.019531 L 94.773438 19.019531 L 94.773438 8.933594 "
       style=" stroke:none;fill-rule:nonzero;fill:rgb(0%,0%,0%);fill-opacity:1;" />
    <path
       id="path10"
       d="M 208.175781 8.933594 C 208.175781 8.433594 208.140625 8.433594 207.589844 8.433594 C 206.308594 9.535156 204.394531 9.535156 204.015625 9.535156 L 203.6875 9.535156 L 203.6875 10.277344 L 204.015625 10.277344 C 204.617188 10.277344 205.53125 10.175781 206.222656 9.949219 L 206.222656 19.019531 L 203.824219 19.019531 L 203.824219 19.761719 C 204.546875 19.726563 206.363281 19.726563 207.171875 19.726563 C 207.984375 19.726563 209.816406 19.726563 210.539063 19.761719 L 210.539063 19.019531 L 208.175781 19.019531 L 208.175781 8.933594 "
       style=" stroke:none;fill-rule:nonzero;fill:rgb(0%,0%,0%);fill-opacity:1;" />
    <path
       id="path12"
       d="M 42.933594 8.457031 C 42.933594 8.058594 42.933594 8.003906 42.554688 8.003906 L 41.257813 9.25 C 40.292969 8.421875 39.136719 8.003906 37.859375 8.003906 C 33.730469 8.003906 31.070313 10.511719 31.070313 14.136719 C 31.070313 17.695313 33.644531 20.269531 37.875 20.269531 C 40.949219 20.269531 42.933594 18.160156 42.933594 16.121094 C 42.933594 15.828125 42.832031 15.8125 42.570313 15.8125 C 42.398438 15.8125 42.226563 15.8125 42.210938 16.003906 C 42.054688 18.628906 39.828125 19.523438 38.273438 19.523438 C 37.148438 19.523438 35.628906 19.214844 34.664063 18.125 C 34.058594 17.46875 33.507813 16.519531 33.507813 14.136719 C 33.507813 12.445313 33.765625 11.183594 34.578125 10.214844 C 35.679688 8.921875 37.40625 8.75 38.238281 8.75 C 39.53125 8.75 41.621094 9.472656 42.140625 12.511719 C 42.175781 12.667969 42.328125 12.667969 42.539063 12.667969 C 42.933594 12.667969 42.933594 12.632813 42.933594 12.21875 L 42.933594 8.457031 "
       style=" stroke:none;fill-rule:nonzero;fill:rgb(0%,0%,0%);fill-opacity:1;" />
    <path
       id="path14"
       d="M 21.199219 8.058594 C 21.199219 7.902344 21.078125 7.902344 21.046875 7.902344 C 21.011719 7.902344 20.941406 7.902344 20.804688 8.074219 L 19.609375 9.527344 C 19.007813 8.488281 18.058594 7.902344 16.761719 7.902344 C 13.03125 7.902344 9.164063 11.683594 9.164063 15.742188 C 9.164063 18.628906 11.183594 20.421875 13.703125 20.421875 C 15.085938 20.421875 16.296875 19.835938 17.296875 18.988281 C 18.800781 17.730469 19.25 16.054688 19.25 15.914063 C 19.25 15.761719 19.109375 15.761719 19.058594 15.761719 C 18.902344 15.761719 18.886719 15.863281 18.851563 15.933594 C 18.058594 18.628906 15.726563 19.921875 14 19.921875 C 12.167969 19.921875 10.578125 18.746094 10.578125 16.296875 C 10.578125 15.742188 10.75 12.738281 12.703125 10.476563 C 13.652344 9.371094 15.277344 8.402344 16.917969 8.402344 C 18.816406 8.402344 19.664063 9.972656 19.664063 11.738281 C 19.664063 12.183594 19.609375 12.566406 19.609375 12.632813 C 19.609375 12.789063 19.785156 12.789063 19.835938 12.789063 C 20.027344 12.789063 20.042969 12.773438 20.113281 12.460938 L 21.199219 8.058594 "
       style=" stroke:none;fill-rule:nonzero;fill:rgb(0%,0%,100%);fill-opacity:1;" />
    <path
       id="path16"
       d="M 26.46875 11.144531 C 26.46875 10.710938 26.121094 10.433594 25.757813 10.433594 C 25.414063 10.433594 25.050781 10.710938 25.050781 11.144531 C 25.050781 11.574219 25.394531 11.851563 25.757813 11.851563 C 26.105469 11.851563 26.46875 11.574219 26.46875 11.144531 Z M 26.46875 17.152344 C 26.46875 16.722656 26.121094 16.445313 25.757813 16.445313 C 25.414063 16.445313 25.050781 16.722656 25.050781 17.152344 C 25.050781 17.582031 25.394531 17.859375 25.757813 17.859375 C 26.105469 17.859375 26.46875 17.582031 26.46875 17.152344 "
       style=" stroke:none;fill-rule:nonzero;fill:rgb(0%,0%,100%);fill-opacity:1;" />
    <path
       id="path18"
       d="M 265.636719 14.1875 C 267.96875 13.566406 268.539063 12.324219 268.539063 11.390625 C 268.539063 9.664063 266.722656 8.214844 263.527344 8.214844 L 257.15625 8.214844 L 257.15625 8.957031 L 258.988281 8.957031 L 258.988281 19.316406 L 257.15625 19.316406 L 257.15625 20.058594 C 257.65625 20.027344 259.453125 20.027344 260.074219 20.027344 C 260.695313 20.027344 262.507813 20.027344 263.011719 20.058594 L 263.011719 19.316406 L 261.179688 19.316406 L 261.179688 14.414063 L 263.234375 14.414063 C 263.925781 14.414063 264.476563 14.621094 264.859375 15.070313 C 265.378906 15.65625 265.378906 16.035156 265.378906 17.191406 C 265.378906 18.351563 265.378906 19.058594 266.257813 19.644531 C 267.15625 20.25 268.570313 20.269531 268.953125 20.269531 C 270.714844 20.269531 270.921875 18.714844 270.921875 18.472656 C 270.921875 18.175781 270.78125 18.125 270.558594 18.125 C 270.230469 18.125 270.214844 18.246094 270.195313 18.472656 C 270.109375 19.335938 269.574219 19.699219 269.089844 19.699219 C 267.984375 19.699219 267.863281 18.539063 267.726563 16.953125 C 267.621094 16.035156 267.5 14.757813 265.636719 14.1875 Z M 263.199219 13.84375 L 261.179688 13.84375 L 261.179688 8.957031 L 263.234375 8.957031 C 266.050781 8.957031 266.101563 10.371094 266.101563 11.390625 C 266.101563 12.339844 266.085938 13.84375 263.199219 13.84375 "
       style=" stroke:none;fill-rule:nonzero;fill:rgb(0%,0%,0%);fill-opacity:1;" />
    <path
       id="path20"
       d="M 285.753906 9.441406 C 285.910156 8.800781 285.980469 8.765625 286.652344 8.765625 L 287.898438 8.765625 C 289.382813 8.765625 290.488281 9.214844 290.488281 10.5625 C 290.488281 11.441406 290.039063 13.980469 286.566406 13.980469 L 284.617188 13.980469 Z M 288.15625 14.1875 C 290.296875 13.722656 291.972656 12.339844 291.972656 10.855469 C 291.972656 9.507813 290.609375 8.265625 288.207031 8.265625 L 283.527344 8.265625 C 283.179688 8.265625 283.027344 8.265625 283.027344 8.59375 C 283.027344 8.765625 283.148438 8.765625 283.476563 8.765625 C 284.511719 8.765625 284.511719 8.902344 284.511719 9.09375 C 284.511719 9.128906 284.511719 9.230469 284.441406 9.492188 L 282.109375 18.78125 C 281.957031 19.386719 281.921875 19.558594 280.730469 19.558594 C 280.332031 19.558594 280.210938 19.558594 280.210938 19.886719 C 280.210938 20.058594 280.402344 20.058594 280.453125 20.058594 C 280.765625 20.058594 281.128906 20.027344 281.453125 20.027344 L 283.492188 20.027344 C 283.804688 20.027344 284.164063 20.058594 284.476563 20.058594 C 284.617188 20.058594 284.804688 20.058594 284.804688 19.730469 C 284.804688 19.558594 284.648438 19.558594 284.390625 19.558594 C 283.339844 19.558594 283.339844 19.421875 283.339844 19.25 C 283.339844 19.230469 283.339844 19.109375 283.371094 18.972656 L 284.53125 14.328125 L 286.601563 14.328125 C 288.242188 14.328125 288.554688 15.363281 288.554688 15.933594 C 288.554688 16.191406 288.378906 16.863281 288.257813 17.316406 C 288.070313 18.109375 288.015625 18.300781 288.015625 18.628906 C 288.015625 19.851563 289.019531 20.421875 290.175781 20.421875 C 291.574219 20.421875 292.179688 18.714844 292.179688 18.472656 C 292.179688 18.351563 292.09375 18.300781 291.988281 18.300781 C 291.851563 18.300781 291.816406 18.402344 291.78125 18.539063 C 291.367188 19.765625 290.660156 20.078125 290.226563 20.078125 C 289.796875 20.078125 289.519531 19.886719 289.519531 19.109375 C 289.519531 18.695313 289.726563 17.125 289.742188 17.039063 C 289.832031 16.398438 289.832031 16.332031 289.832031 16.191406 C 289.832031 14.929688 288.8125 14.394531 288.15625 14.1875 "
       style=" stroke:none;fill-rule:nonzero;fill:rgb(0%,0%,100%);fill-opacity:1;" />
    <path
       id="path22"
       d="M 275.96875 11.144531 C 275.96875 10.710938 275.621094 10.433594 275.257813 10.433594 C 274.914063 10.433594 274.550781 10.710938 274.550781 11.144531 C 274.550781 11.574219 274.894531 11.851563 275.257813 11.851563 C 275.605469 11.851563 275.96875 11.574219 275.96875 11.144531 Z M 275.96875 17.152344 C 275.96875 16.722656 275.621094 16.445313 275.257813 16.445313 C 274.914063 16.445313 274.550781 16.722656 274.550781 17.152344 C 274.550781 17.582031 274.894531 17.859375 275.257813 17.859375 C 275.605469 17.859375 275.96875 17.582031 275.96875 17.152344 "
       style=" stroke:none;fill-rule:nonzero;fill:rgb(0%,0%,100%);fill-opacity:1;" />
    <path
       id="path24"
       transform="matrix(0.1,0,0,-0.1,0,46.16)"
       d="M 835.625 319.764063 L 530.507813 319.764063 "
       style="fill:none;stroke-width:15.9404;stroke-linecap:butt;stroke-linejoin:miter;stroke:rgb(0%,0%,0%);stroke-opacity:1;stroke-miterlimit:10;" />
    <path
       id="path26"
       transform="matrix(0.1,0,0,-0.1,0,46.16)"
       d="M 530.507813 319.764063 L 514.570313 319.764063 L 583.28125 262.107813 "
       style="fill:none;stroke-width:15.9404;stroke-linecap:butt;stroke-linejoin:miter;stroke:rgb(0%,0%,0%);stroke-opacity:1;stroke-miterlimit:10;" />
    <path
       id="path28"
       transform="matrix(0.1,0,0,-0.1,0,46.16)"
       d="M 2171.953125 319.764063 L 2474.804688 319.764063 "
       style="fill:none;stroke-width:15.9404;stroke-linecap:butt;stroke-linejoin:miter;stroke:rgb(0%,0%,0%);stroke-opacity:1;stroke-miterlimit:10;" />
    <path
       id="path30"
       transform="matrix(0.1,0,0,-0.1,0,46.16)"
       d="M 2474.804688 319.764063 L 2490.742188 319.764063 L 2422.03125 262.107813 "
       style="fill:none;stroke-width:15.9404;stroke-linecap:butt;stroke-linejoin:miter;stroke:rgb(0%,0%,0%);stroke-opacity:1;stroke-miterlimit:10;" />
    <path
       id="path32"
       transform="matrix(0.1,0,0,-0.1,0,46.16)"
       d="M 1402.578125 319.764063 L 1075.9375 319.764063 "
       style="fill:none;stroke-width:15.9404;stroke-linecap:butt;stroke-linejoin:miter;stroke:rgb(0%,0%,0%);stroke-opacity:1;stroke-miterlimit:10;" />
    <path
       id="path34"
       transform="matrix(0.1,0,0,-0.1,0,46.16)"
       d="M 1075.9375 319.764063 L 1059.960938 319.764063 L 1128.671875 262.107813 "
       style="fill:none;stroke-width:15.9404;stroke-linecap:butt;stroke-linejoin:miter;stroke:rgb(0%,0%,0%);stroke-opacity:1;stroke-miterlimit:10;" />
    <path
       id="path36"
       transform="matrix(0.1,0,0,-0.1,0,46.16)"
       d="M 1605 319.764063 L 1931.640625 319.764063 "
       style="fill:none;stroke-width:15.9404;stroke-linecap:butt;stroke-linejoin:miter;stroke:rgb(0%,0%,0%);stroke-opacity:1;stroke-miterlimit:10;" />
    <path
       id="path38"
       transform="matrix(0.1,0,0,-0.1,0,46.16)"
       d="M 1931.640625 319.764063 L 1947.617188 319.764063 L 1878.90625 262.107813 "
       style="fill:none;stroke-width:15.9404;stroke-linecap:butt;stroke-linejoin:miter;stroke:rgb(0%,0%,0%);stroke-opacity:1;stroke-miterlimit:10;" />
  </g>
</svg>
