<?xml version="1.0" encoding="UTF-8" standalone="no"?>
<svg
   xmlns:dc="http://purl.org/dc/elements/1.1/"
   xmlns:cc="http://creativecommons.org/ns#"
   xmlns:rdf="http://www.w3.org/1999/02/22-rdf-syntax-ns#"
   xmlns:svg="http://www.w3.org/2000/svg"
   xmlns="http://www.w3.org/2000/svg"
   id="svg27"
   version="1.2"
   viewBox="0 0 243.97 43.58"
   height="43.58pt"
   width="243.97pt">
  <metadata
     id="metadata33">
    <rdf:RDF>
      <cc:Work
         rdf:about="">
        <dc:format>image/svg+xml</dc:format>
        <dc:type
           rdf:resource="http://purl.org/dc/dcmitype/StillImage" />
      </cc:Work>
    </rdf:RDF>
  </metadata>
  <defs
     id="defs31" />
  <g
     id="surface1">
    <path
       id="path2"
       d="M 126.128906 14.269531 C 126.128906 12.613281 126.128906 8.453125 122.054688 8.453125 C 117.960938 8.453125 117.960938 12.59375 117.960938 14.269531 C 117.960938 15.929688 117.960938 19.988281 122.035156 19.988281 C 126.109375 19.988281 126.128906 15.980469 126.128906 14.269531 Z M 122.054688 19.417969 C 121.5 19.417969 121.085938 19.191406 120.742188 18.828125 C 120.308594 18.398438 120.03125 18.121094 120.03125 14.0625 C 120.03125 12.855469 120.03125 11.75 120.171875 10.851563 C 120.414063 9.140625 121.65625 9.019531 122.035156 9.019531 C 122.589844 9.019531 123.660156 9.28125 123.898438 10.730469 C 124.054688 11.609375 124.054688 13.007813 124.054688 14.0625 C 124.054688 18.140625 123.796875 18.382813 123.277344 18.898438 C 122.933594 19.242188 122.46875 19.417969 122.054688 19.417969 "
       style=" stroke:none;fill-rule:nonzero;fill:rgb(0%,0%,0%);fill-opacity:1;" />
    <path
       id="path4"
       d="M 137.589844 34.277344 C 137.8125 35.246094 138.640625 35.453125 139.054688 35.453125 C 139.609375 35.453125 140.023438 35.089844 140.300781 34.503906 C 140.59375 33.882813 140.820313 32.863281 140.820313 32.8125 C 140.820313 32.722656 140.746094 32.65625 140.644531 32.65625 C 140.492188 32.65625 140.472656 32.742188 140.402344 33 C 140.09375 34.191406 139.78125 35.105469 139.089844 35.105469 C 138.574219 35.105469 138.574219 34.539063 138.574219 34.3125 C 138.574219 33.914063 138.625 33.742188 138.796875 33.015625 C 138.917969 32.550781 139.039063 32.085938 139.144531 31.601563 L 139.851563 28.785156 C 139.972656 28.355469 139.972656 28.320313 139.972656 28.269531 C 139.972656 28.007813 139.765625 27.835938 139.507813 27.835938 C 139.003906 27.835938 138.882813 28.269531 138.78125 28.699219 C 138.609375 29.375 137.675781 33.085938 137.554688 33.691406 C 137.539063 33.691406 136.863281 35.105469 135.601563 35.105469 C 134.703125 35.105469 134.53125 34.328125 134.53125 33.691406 C 134.53125 32.707031 135.015625 31.324219 135.464844 30.167969 C 135.671875 29.617188 135.757813 29.390625 135.757813 29.046875 C 135.757813 28.304688 135.222656 27.664063 134.394531 27.664063 C 132.804688 27.664063 132.164063 30.167969 132.164063 30.304688 C 132.164063 30.375 132.234375 30.460938 132.355469 30.460938 C 132.511719 30.460938 132.53125 30.390625 132.597656 30.148438 C 133.011719 28.664063 133.6875 28.007813 134.34375 28.007813 C 134.515625 28.007813 134.789063 28.027344 134.789063 28.578125 C 134.789063 29.027344 134.601563 29.53125 134.34375 30.1875 C 133.582031 32.242188 133.496094 32.898438 133.496094 33.414063 C 133.496094 35.175781 134.824219 35.453125 135.535156 35.453125 C 136.640625 35.453125 137.242188 34.691406 137.589844 34.277344 "
       style=" stroke:none;fill-rule:nonzero;fill:rgb(0%,0%,100%);fill-opacity:1;" />
    <path
       id="path6"
       d="M 42.933594 8.476563 C 42.933594 8.078125 42.933594 8.023438 42.554688 8.023438 L 41.257813 9.269531 C 40.292969 8.441406 39.136719 8.023438 37.859375 8.023438 C 33.730469 8.023438 31.070313 10.53125 31.070313 14.15625 C 31.070313 17.714844 33.644531 20.289063 37.875 20.289063 C 40.949219 20.289063 42.933594 18.179688 42.933594 16.140625 C 42.933594 15.847656 42.832031 15.832031 42.570313 15.832031 C 42.398438 15.832031 42.226563 15.832031 42.210938 16.023438 C 42.054688 18.648438 39.828125 19.542969 38.273438 19.542969 C 37.148438 19.542969 35.628906 19.234375 34.664063 18.144531 C 34.058594 17.488281 33.507813 16.539063 33.507813 14.15625 C 33.507813 12.464844 33.765625 11.203125 34.578125 10.234375 C 35.679688 8.941406 37.40625 8.769531 38.238281 8.769531 C 39.53125 8.769531 41.621094 9.492188 42.140625 12.53125 C 42.175781 12.6875 42.328125 12.6875 42.539063 12.6875 C 42.933594 12.6875 42.933594 12.652344 42.933594 12.238281 L 42.933594 8.476563 "
       style=" stroke:none;fill-rule:nonzero;fill:rgb(0%,0%,0%);fill-opacity:1;" />
    <path
       id="path8"
       d="M 21.199219 8.078125 C 21.199219 7.921875 21.078125 7.921875 21.046875 7.921875 C 21.011719 7.921875 20.941406 7.921875 20.804688 8.09375 L 19.609375 9.546875 C 19.007813 8.507813 18.058594 7.921875 16.761719 7.921875 C 13.03125 7.921875 9.164063 11.703125 9.164063 15.761719 C 9.164063 18.648438 11.183594 20.441406 13.703125 20.441406 C 15.085938 20.441406 16.296875 19.855469 17.296875 19.007813 C 18.800781 17.75 19.25 16.074219 19.25 15.933594 C 19.25 15.78125 19.109375 15.78125 19.058594 15.78125 C 18.902344 15.78125 18.886719 15.882813 18.851563 15.953125 C 18.058594 18.648438 15.726563 19.941406 14 19.941406 C 12.167969 19.941406 10.578125 18.765625 10.578125 16.316406 C 10.578125 15.761719 10.75 12.757813 12.703125 10.496094 C 13.652344 9.390625 15.277344 8.421875 16.917969 8.421875 C 18.816406 8.421875 19.664063 9.992188 19.664063 11.757813 C 19.664063 12.203125 19.609375 12.585938 19.609375 12.652344 C 19.609375 12.808594 19.785156 12.808594 19.835938 12.808594 C 20.027344 12.808594 20.042969 12.792969 20.113281 12.480469 L 21.199219 8.078125 "
       style=" stroke:none;fill-rule:nonzero;fill:rgb(0%,0%,100%);fill-opacity:1;" />
    <path
       id="path10"
       d="M 26.46875 11.164063 C 26.46875 10.730469 26.121094 10.453125 25.757813 10.453125 C 25.414063 10.453125 25.050781 10.730469 25.050781 11.164063 C 25.050781 11.59375 25.394531 11.871094 25.757813 11.871094 C 26.105469 11.871094 26.46875 11.59375 26.46875 11.164063 Z M 26.46875 17.171875 C 26.46875 16.742188 26.121094 16.464844 25.757813 16.464844 C 25.414063 16.464844 25.050781 16.742188 25.050781 17.171875 C 25.050781 17.601563 25.394531 17.878906 25.757813 17.878906 C 26.105469 17.878906 26.46875 17.601563 26.46875 17.171875 "
       style=" stroke:none;fill-rule:nonzero;fill:rgb(0%,0%,100%);fill-opacity:1;" />
    <path
       id="path12"
       d="M 209.035156 14.207031 C 211.367188 13.585938 211.9375 12.34375 211.9375 11.410156 C 211.9375 9.683594 210.121094 8.234375 206.929688 8.234375 L 200.554688 8.234375 L 200.554688 8.976563 L 202.386719 8.976563 L 202.386719 19.335938 L 200.554688 19.335938 L 200.554688 20.078125 C 201.058594 20.046875 202.851563 20.046875 203.476563 20.046875 C 204.097656 20.046875 205.910156 20.046875 206.410156 20.078125 L 206.410156 19.335938 L 204.578125 19.335938 L 204.578125 14.433594 L 206.632813 14.433594 C 207.328125 14.433594 207.878906 14.640625 208.257813 15.089844 C 208.777344 15.675781 208.777344 16.054688 208.777344 17.210938 C 208.777344 18.371094 208.777344 19.078125 209.65625 19.664063 C 210.554688 20.269531 211.972656 20.289063 212.351563 20.289063 C 214.113281 20.289063 214.320313 18.734375 214.320313 18.492188 C 214.320313 18.195313 214.179688 18.144531 213.957031 18.144531 C 213.628906 18.144531 213.613281 18.265625 213.59375 18.492188 C 213.507813 19.355469 212.972656 19.71875 212.488281 19.71875 C 211.382813 19.71875 211.261719 18.558594 211.125 16.972656 C 211.023438 16.054688 210.898438 14.777344 209.035156 14.207031 Z M 206.601563 13.863281 L 204.578125 13.863281 L 204.578125 8.976563 L 206.632813 8.976563 C 209.449219 8.976563 209.503906 10.390625 209.503906 11.410156 C 209.503906 12.359375 209.484375 13.863281 206.601563 13.863281 "
       style=" stroke:none;fill-rule:nonzero;fill:rgb(0%,0%,0%);fill-opacity:1;" />
    <path
       id="path14"
       d="M 229.054688 9.460938 C 229.210938 8.820313 229.28125 8.785156 229.953125 8.785156 L 231.195313 8.785156 C 232.679688 8.785156 233.789063 9.234375 233.789063 10.582031 C 233.789063 11.460938 233.339844 14 229.867188 14 L 227.914063 14 Z M 231.457031 14.207031 C 233.597656 13.742188 235.273438 12.359375 235.273438 10.875 C 235.273438 9.527344 233.90625 8.285156 231.507813 8.285156 L 226.828125 8.285156 C 226.480469 8.285156 226.328125 8.285156 226.328125 8.613281 C 226.328125 8.785156 226.445313 8.785156 226.773438 8.785156 C 227.8125 8.785156 227.8125 8.921875 227.8125 9.113281 C 227.8125 9.148438 227.8125 9.25 227.742188 9.511719 L 225.410156 18.800781 C 225.257813 19.40625 225.222656 19.578125 224.03125 19.578125 C 223.632813 19.578125 223.511719 19.578125 223.511719 19.90625 C 223.511719 20.078125 223.703125 20.078125 223.753906 20.078125 C 224.0625 20.078125 224.425781 20.046875 224.753906 20.046875 L 226.792969 20.046875 C 227.101563 20.046875 227.464844 20.078125 227.777344 20.078125 C 227.914063 20.078125 228.105469 20.078125 228.105469 19.75 C 228.105469 19.578125 227.949219 19.578125 227.691406 19.578125 C 226.636719 19.578125 226.636719 19.441406 226.636719 19.269531 C 226.636719 19.25 226.636719 19.128906 226.671875 18.992188 L 227.828125 14.347656 L 229.902344 14.347656 C 231.542969 14.347656 231.851563 15.382813 231.851563 15.953125 C 231.851563 16.210938 231.679688 16.882813 231.558594 17.335938 C 231.367188 18.128906 231.316406 18.320313 231.316406 18.648438 C 231.316406 19.871094 232.320313 20.441406 233.476563 20.441406 C 234.875 20.441406 235.480469 18.734375 235.480469 18.492188 C 235.480469 18.371094 235.394531 18.320313 235.289063 18.320313 C 235.152344 18.320313 235.117188 18.421875 235.082031 18.558594 C 234.667969 19.785156 233.960938 20.097656 233.527344 20.097656 C 233.097656 20.097656 232.820313 19.90625 232.820313 19.128906 C 232.820313 18.714844 233.027344 17.144531 233.042969 17.058594 C 233.132813 16.417969 233.132813 16.351563 233.132813 16.210938 C 233.132813 14.949219 232.113281 14.414063 231.457031 14.207031 "
       style=" stroke:none;fill-rule:nonzero;fill:rgb(0%,0%,100%);fill-opacity:1;" />
    <path
       id="path16"
       d="M 219.265625 11.164063 C 219.265625 10.730469 218.921875 10.453125 218.558594 10.453125 C 218.214844 10.453125 217.851563 10.730469 217.851563 11.164063 C 217.851563 11.59375 218.195313 11.871094 218.558594 11.871094 C 218.90625 11.871094 219.265625 11.59375 219.265625 11.164063 Z M 219.265625 17.171875 C 219.265625 16.742188 218.921875 16.464844 218.558594 16.464844 C 218.214844 16.464844 217.851563 16.742188 217.851563 17.171875 C 217.851563 17.601563 218.195313 17.878906 218.558594 17.878906 C 218.90625 17.878906 219.265625 17.601563 219.265625 17.171875 "
       style=" stroke:none;fill-rule:nonzero;fill:rgb(0%,0%,100%);fill-opacity:1;" />
    <path
       id="path18"
       transform="matrix(0.1,0,0,-0.1,0,43.58)"
       d="M 1119.101563 293.964062 L 530.507813 293.964062 "
       style="fill:none;stroke-width:15.9404;stroke-linecap:butt;stroke-linejoin:miter;stroke:rgb(0%,0%,0%);stroke-opacity:1;stroke-miterlimit:10;" />
    <path
       id="path20"
       transform="matrix(0.1,0,0,-0.1,0,43.58)"
       d="M 530.507813 293.964062 L 514.570313 293.964062 L 583.28125 236.307812 "
       style="fill:none;stroke-width:15.9404;stroke-linecap:butt;stroke-linejoin:miter;stroke:rgb(0%,0%,0%);stroke-opacity:1;stroke-miterlimit:10;" />
    <path
       id="path22"
       transform="matrix(0.1,0,0,-0.1,0,43.58)"
       d="M 1321.5625 293.964062 L 1907.851563 293.964062 "
       style="fill:none;stroke-width:15.9404;stroke-linecap:butt;stroke-linejoin:miter;stroke:rgb(0%,0%,0%);stroke-opacity:1;stroke-miterlimit:10;" />
    <path
       id="path24"
       transform="matrix(0.1,0,0,-0.1,0,43.58)"
       d="M 1907.851563 293.964062 L 1923.789063 293.964062 L 1855.078125 236.307812 "
       style="fill:none;stroke-width:15.9404;stroke-linecap:butt;stroke-linejoin:miter;stroke:rgb(0%,0%,0%);stroke-opacity:1;stroke-miterlimit:10;" />
  </g>
</svg>
