<?xml version="1.0" encoding="UTF-8" standalone="no"?>
<svg
   xmlns:dc="http://purl.org/dc/elements/1.1/"
   xmlns:cc="http://creativecommons.org/ns#"
   xmlns:rdf="http://www.w3.org/1999/02/22-rdf-syntax-ns#"
   xmlns:svg="http://www.w3.org/2000/svg"
   xmlns="http://www.w3.org/2000/svg"
   viewBox="0 0 60.266666 236.45332"
   height="236.45332"
   width="60.266666"
   xml:space="preserve"
   id="svg2"
   version="1.1"><metadata
     id="metadata8"><rdf:RDF><cc:Work
         rdf:about=""><dc:format>image/svg+xml</dc:format><dc:type
           rdf:resource="http://purl.org/dc/dcmitype/StillImage" /></cc:Work></rdf:RDF></metadata><defs
     id="defs6" /><g
     transform="matrix(1.3333333,0,0,-1.3333333,0,236.45333)"
     id="g10"><g
       transform="scale(0.1)"
       id="g12"><path
         id="path14"
         style="fill:#000000;fill-opacity:1;fill-rule:nonzero;stroke:none"
         d="m 154.281,1453.09 c 0,16.58 0,58.19 -40.75,58.19 -40.9372,0 -40.9372,-41.44 -40.9372,-58.19 0,-16.57 0,-57.17 40.7652,-57.17 40.75,0 40.922,40.08 40.922,57.17 z m -40.75,-51.46 c -5.531,0 -9.672,2.25 -13.125,5.87 -4.3279,4.31 -7.0779,7.08 -7.0779,47.66 0,12.09 0,23.14 1.375,32.12 2.4219,17.1 14.8599,18.31 18.6559,18.31 5.516,0 16.235,-2.59 18.641,-17.11 1.563,-8.79 1.563,-22.78 1.563,-33.32 0,-40.75 -2.594,-43.18 -7.782,-48.35 -3.453,-3.45 -8.109,-5.18 -12.25,-5.18" /><path
         id="path16"
         style="fill:#0000ff;fill-opacity:1;fill-rule:nonzero;stroke:none"
         d="m 268.891,1626.02 c 2.25,-9.68 10.531,-11.75 14.672,-11.75 5.531,0 9.671,3.64 12.437,9.5 2.938,6.21 5.188,16.4 5.188,16.92 0,0.87 -0.704,1.56 -1.735,1.56 -1.547,0 -1.719,-0.86 -2.422,-3.45 -3.109,-11.92 -6.203,-21.07 -13.125,-21.07 -5.172,0 -5.172,5.69 -5.172,7.94 0,3.97 0.516,5.71 2.25,12.96 1.204,4.65 2.407,9.32 3.454,14.15 l 7.078,28.16 c 1.203,4.31 1.203,4.65 1.203,5.17 0,2.59 -2.078,4.33 -4.656,4.33 -5.016,0 -6.219,-4.33 -7.266,-8.64 -1.719,-6.74 -11.047,-43.86 -12.25,-49.91 -0.172,0 -6.906,-14.16 -19.516,-14.16 -8.984,0 -10.703,7.77 -10.703,14.16 0,9.84 4.828,23.66 9.313,35.24 2.078,5.51 2.937,7.76 2.937,11.21 0,7.43 -5.344,13.82 -13.64,13.82 -15.891,0 -22.282,-25.03 -22.282,-26.43 0,-0.68 0.703,-1.54 1.907,-1.54 1.546,0 1.734,0.69 2.421,3.11 4.141,14.84 10.875,21.4 17.438,21.4 1.734,0 4.484,-0.17 4.484,-5.7 0,-4.48 -1.89,-9.5 -4.484,-16.06 -7.594,-20.55 -8.469,-27.11 -8.469,-32.28 0,-17.63 13.297,-20.39 20.391,-20.39 11.047,0 17.094,7.61 20.547,11.75" /><path
         id="path18"
         style="fill:#0000ff;fill-opacity:1;fill-rule:nonzero;stroke:none"
         d="m 340.328,1666.41 c 0,2.75 0,2.86 -2.375,2.86 -2.875,-3.22 -8.828,-7.63 -21.109,-7.63 v -3.45 c 2.75,0 8.703,0 15.265,3.09 v -62.11 c 0,-4.28 -0.359,-5.72 -10.843,-5.72 h -3.703 V 1590 c 3.218,0.23 14.781,0.23 18.718,0.23 3.938,0 15.375,0 18.594,-0.23 v 3.45 h -3.703 c -10.484,0 -10.844,1.44 -10.844,5.72 v 67.24" /><path
         id="path20"
         style="fill:#000000;fill-opacity:1;fill-rule:nonzero;stroke:none"
         d="m 154.281,319.094 c 0,16.578 0,58.187 -40.75,58.187 -40.9372,0 -40.9372,-41.437 -40.9372,-58.187 0,-16.578 0,-57.172 40.7652,-57.172 40.75,0 40.922,40.078 40.922,57.172 z m -40.75,-51.469 c -5.531,0 -9.672,2.25 -13.125,5.875 -4.3279,4.313 -7.0779,7.078 -7.0779,47.656 0,12.094 0,23.141 1.375,32.125 2.4219,17.094 14.8599,18.313 18.6559,18.313 5.516,0 16.235,-2.594 18.641,-17.11 1.563,-8.796 1.563,-22.781 1.563,-33.328 0,-40.75 -2.594,-43.172 -7.782,-48.343 -3.453,-3.454 -8.109,-5.188 -12.25,-5.188" /><path
         id="path22"
         style="fill:#0000ff;fill-opacity:1;fill-rule:nonzero;stroke:none"
         d="m 268.891,119.016 c 2.25,-9.672 10.531,-11.75 14.672,-11.75 5.531,0 9.671,3.64 12.437,9.5 2.938,6.218 5.188,16.406 5.188,16.922 0,0.875 -0.704,1.562 -1.735,1.562 -1.547,0 -1.719,-0.859 -2.422,-3.453 -3.109,-11.922 -6.203,-21.063 -13.125,-21.063 -5.172,0 -5.172,5.688 -5.172,7.938 0,3.969 0.516,5.703 2.25,12.953 1.204,4.656 2.407,9.328 3.454,14.156 l 7.078,28.157 c 1.203,4.312 1.203,4.656 1.203,5.171 0,2.594 -2.078,4.329 -4.656,4.329 -5.016,0 -6.219,-4.329 -7.266,-8.641 -1.719,-6.734 -11.047,-43.859 -12.25,-49.906 -0.172,0 -6.906,-14.157 -19.516,-14.157 -8.984,0 -10.703,7.766 -10.703,14.157 0,9.843 4.828,23.656 9.313,35.234 2.078,5.516 2.937,7.766 2.937,11.219 0,7.422 -5.344,13.812 -13.64,13.812 -15.891,0 -22.282,-25.031 -22.282,-26.422 0,-0.687 0.703,-1.546 1.907,-1.546 1.546,0 1.734,0.687 2.421,3.109 4.141,14.844 10.875,21.406 17.438,21.406 1.734,0 4.484,-0.172 4.484,-5.703 0,-4.484 -1.89,-9.5 -4.484,-16.062 -7.594,-20.547 -8.469,-27.11 -8.469,-32.282 0,-17.625 13.297,-20.39 20.391,-20.39 11.047,0 17.094,7.609 20.547,11.75" /><path
         id="path24"
         style="fill:#0000ff;fill-opacity:1;fill-rule:nonzero;stroke:none"
         d="m 359.406,121.141 c 0,9.906 -0.593,19.547 -4.89,28.609 -4.891,9.906 -13.469,12.516 -19.313,12.516 -6.906,0 -15.375,-3.453 -19.781,-13.344 -3.344,-7.516 -4.531,-14.906 -4.531,-27.781 0,-11.563 0.828,-20.266 5.125,-28.7191 4.64,-9.0625 12.875,-11.9219 19.062,-11.9219 10.375,0 16.344,6.2031 19.797,13.1094 4.297,8.9376 4.531,20.6246 4.531,27.5316 z M 335.078,82.875 c -3.812,0 -11.562,2.1563 -13.812,15.1406 -1.313,7.1564 -1.313,16.2184 -1.313,24.5624 0,9.766 0,18.594 1.906,25.625 2.016,7.985 8.094,11.688 13.219,11.688 4.531,0 11.453,-2.75 13.719,-13 1.547,-6.797 1.547,-16.203 1.547,-24.313 0,-7.984 0,-17.047 -1.313,-24.3124 -2.265,-13.125 -9.765,-15.3906 -13.953,-15.3906" /></g></g></svg>
