<?xml version="1.0" encoding="UTF-8" standalone="no"?>
<svg
   xmlns:dc="http://purl.org/dc/elements/1.1/"
   xmlns:cc="http://creativecommons.org/ns#"
   xmlns:rdf="http://www.w3.org/1999/02/22-rdf-syntax-ns#"
   xmlns:svg="http://www.w3.org/2000/svg"
   xmlns="http://www.w3.org/2000/svg"
   viewBox="0 0 259.23999 210.05333"
   height="210.05333"
   width="259.23999"
   xml:space="preserve"
   id="svg2"
   version="1.1"><metadata
     id="metadata8"><rdf:RDF><cc:Work
         rdf:about=""><dc:format>image/svg+xml</dc:format><dc:type
           rdf:resource="http://purl.org/dc/dcmitype/StillImage" /></cc:Work></rdf:RDF></metadata><defs
     id="defs6" /><g
     transform="matrix(1.3333333,0,0,-1.3333333,0,210.05333)"
     id="g10"><g
       transform="scale(0.1)"
       id="g12"><path
         id="path14"
         style="fill:none;stroke:#000000;stroke-width:15.9404;stroke-linecap:butt;stroke-linejoin:miter;stroke-miterlimit:10;stroke-dasharray:none;stroke-opacity:1"
         d="M 548.59,922.355 H 321.816 M 548.59,979.047 H 321.816" /><path
         id="path16"
         style="fill:none;stroke:#000000;stroke-width:15.9404;stroke-linecap:butt;stroke-linejoin:miter;stroke-miterlimit:10;stroke-dasharray:none;stroke-opacity:1"
         d="M 276.055,834.035 V 1092.43" /><path
         id="path18"
         style="fill:#000000;fill-opacity:1;fill-rule:nonzero;stroke:none"
         d="m 295.242,859.102 -19.187,-50.137 -19.188,50.137" /><path
         id="path20"
         style="fill:none;stroke:#000000;stroke-width:15.9404;stroke-linecap:butt;stroke-linejoin:round;stroke-miterlimit:10;stroke-dasharray:none;stroke-opacity:1"
         d="m 295.242,859.102 -19.187,-50.137 -19.188,50.137 z" /><path
         id="path22"
         style="fill:#0000ff;fill-opacity:1;fill-rule:nonzero;stroke:none"
         d="m 212,1012.02 c 0,1.56 -1.203,1.56 -1.547,1.56 -0.344,0 -1.047,0 -2.422,-1.74 l -11.922,-14.496 c -6.046,10.356 -15.531,16.236 -28.484,16.236 -37.312,0 -75.9844,-37.83 -75.9844,-78.408 0,-28.844 20.2034,-46.797 45.4064,-46.797 13.828,0 25.906,5.875 35.922,14.328 15.031,12.61 19.515,29.36 19.515,30.75 0,1.547 -1.375,1.547 -1.89,1.547 -1.563,0 -1.735,-1.031 -2.078,-1.719 -7.938,-26.953 -31.25,-39.906 -48.532,-39.906 -18.296,0 -34.187,11.75 -34.187,36.266 0,5.531 1.719,35.578 21.234,58.203 9.5,11.047 25.735,20.716 42.141,20.716 19,0 27.453,-15.701 27.453,-33.326 0,-4.484 -0.516,-8.281 -0.516,-8.968 0,-1.563 1.735,-1.563 2.25,-1.563 1.907,0 2.079,0.172 2.766,3.281 L 212,1012.02" /><path
         id="path24"
         style="fill:none;stroke:#000000;stroke-width:15.9404;stroke-linecap:butt;stroke-linejoin:miter;stroke-miterlimit:10;stroke-dasharray:none;stroke-opacity:1"
         d="m 1512.38,723.926 h 113.387 v 453.547 H 1512.38 Z" /><path
         id="path26"
         style="fill:none;stroke:#000000;stroke-width:15.9404;stroke-linecap:butt;stroke-linejoin:miter;stroke-miterlimit:10;stroke-dasharray:none;stroke-opacity:1"
         d="M 1671.53,1092.43 V 834.035" /><path
         id="path28"
         style="fill:#000000;fill-opacity:1;fill-rule:nonzero;stroke:none"
         d="m 1690.72,859.102 -19.19,-50.137 -19.19,50.137" /><path
         id="path30"
         style="fill:none;stroke:#000000;stroke-width:15.9404;stroke-linecap:butt;stroke-linejoin:round;stroke-miterlimit:10;stroke-dasharray:none;stroke-opacity:1"
         d="m 1690.72,859.102 -19.19,-50.137 -19.19,50.137 z" /><path
         id="path32"
         style="fill:#0000ff;fill-opacity:1;fill-rule:nonzero;stroke:none"
         d="m 1795.55,998.203 c 1.56,6.387 2.25,6.737 8.98,6.737 h 12.44 c 14.84,0 25.91,-4.49 25.91,-17.956 0,-8.812 -4.5,-34.203 -39.21,-34.203 h -19.51 z m 24.01,-47.484 c 21.41,4.656 38.16,18.469 38.16,33.328 0,13.469 -13.64,25.903 -37.64,25.903 h -46.8 c -3.47,0 -5.01,0 -5.01,-3.28 0,-1.73 1.2,-1.73 4.48,-1.73 10.38,0 10.38,-1.38 10.38,-3.28 0,-0.35 0,-1.38 -0.71,-3.972 l -23.31,-92.907 c -1.55,-6.047 -1.89,-7.765 -13.81,-7.765 -3.97,0 -5.19,0 -5.19,-3.282 0,-1.734 1.91,-1.734 2.42,-1.734 3.11,0 6.74,0.344 10.02,0.344 h 20.37 c 3.11,0 6.74,-0.344 9.85,-0.344 1.39,0 3.28,0 3.28,3.281 0,1.735 -1.55,1.735 -4.14,1.735 -10.53,0 -10.53,1.375 -10.53,3.093 0,0.188 0,1.391 0.34,2.766 l 11.58,46.453 h 20.72 c 16.4,0 19.51,-10.359 19.51,-16.047 0,-2.593 -1.73,-9.328 -2.94,-13.828 -1.9,-7.937 -2.42,-9.844 -2.42,-13.125 0,-12.25 10.02,-17.953 21.6,-17.953 13.98,0 20.03,17.094 20.03,19.516 0,1.203 -0.86,1.718 -1.91,1.718 -1.37,0 -1.72,-1.031 -2.06,-2.406 -4.16,-12.265 -11.24,-15.375 -15.55,-15.375 -4.31,0 -7.08,1.906 -7.08,9.672 0,4.141 2.07,19.859 2.24,20.719 0.87,6.39 0.87,7.078 0.87,8.469 0,12.609 -10.18,17.953 -16.75,20.031" /><path
         id="path34"
         style="fill:#000000;fill-opacity:1;fill-rule:nonzero;stroke:none"
         d="m 1030.49,383.766 c 0,15.652 -12.69,28.343 -28.35,28.343 -15.656,0 -28.347,-12.691 -28.347,-28.343 0,-15.657 12.691,-28.348 28.347,-28.348 15.66,0 28.35,12.691 28.35,28.348 z" /><path
         id="path36"
         style="fill:none;stroke:#000000;stroke-width:15.9404;stroke-linecap:butt;stroke-linejoin:miter;stroke-miterlimit:10;stroke-dasharray:none;stroke-opacity:1"
         d="m 1030.49,383.766 c 0,15.652 -12.69,28.343 -28.35,28.343 -15.656,0 -28.347,-12.691 -28.347,-28.343 0,-15.657 12.691,-28.348 28.347,-28.348 15.66,0 28.35,12.691 28.35,28.348 z" /><path
         id="path38"
         style="fill:none;stroke:#000000;stroke-width:15.9404;stroke-linecap:round;stroke-linejoin:miter;stroke-miterlimit:10;stroke-dasharray:none;stroke-opacity:1"
         d="m 435.203,383.766 v 530.617 m 0,72.633 V 1517.64 H 1569.08 v -332.19 m 0,-469.493 V 383.766 h -534.61 m -64.661,0 H 435.203 v 0" /><path
         id="path40"
         style="fill:none;stroke:#000000;stroke-width:15.9404;stroke-linecap:round;stroke-linejoin:miter;stroke-miterlimit:10;stroke-dasharray:none;stroke-opacity:1"
         d="M 1002.14,351.434 V 150.785" /><path
         id="path42"
         style="fill:none;stroke:#000000;stroke-width:15.9404;stroke-linecap:round;stroke-linejoin:miter;stroke-miterlimit:10;stroke-dasharray:none;stroke-opacity:1"
         d="M 888.754,142.816 H 1115.53 M 926.547,100.297 H 1077.73 M 964.34,57.7773 h 75.6" /></g></g></svg>
