<?xml version="1.0" encoding="UTF-8" standalone="no"?>
<svg
   xmlns:dc="http://purl.org/dc/elements/1.1/"
   xmlns:cc="http://creativecommons.org/ns#"
   xmlns:rdf="http://www.w3.org/1999/02/22-rdf-syntax-ns#"
   xmlns:svg="http://www.w3.org/2000/svg"
   xmlns="http://www.w3.org/2000/svg"
   id="svg55"
   version="1.2"
   viewBox="0 0 300.66 177.34"
   height="177.34pt"
   width="300.66pt">
  <metadata
     id="metadata61">
    <rdf:RDF>
      <cc:Work
         rdf:about="">
        <dc:format>image/svg+xml</dc:format>
        <dc:type
           rdf:resource="http://purl.org/dc/dcmitype/StillImage" />
      </cc:Work>
    </rdf:RDF>
  </metadata>
  <defs
     id="defs59" />
  <g
     id="surface1">
    <path
       id="path2"
       d="M 154.429688 32.03125 C 154.429688 30.371094 154.429688 26.210938 150.351563 26.210938 C 146.257813 26.210938 146.257813 30.355469 146.257813 32.03125 C 146.257813 33.6875 146.257813 37.746094 150.335938 37.746094 C 154.410156 37.746094 154.429688 33.738281 154.429688 32.03125 Z M 150.351563 37.175781 C 149.800781 37.175781 149.386719 36.953125 149.039063 36.589844 C 148.609375 36.160156 148.332031 35.882813 148.332031 31.824219 C 148.332031 30.613281 148.332031 29.511719 148.46875 28.613281 C 148.714844 26.902344 149.957031 26.78125 150.335938 26.78125 C 150.886719 26.78125 151.960938 27.039063 152.199219 28.492188 C 152.355469 29.371094 152.355469 30.769531 152.355469 31.824219 C 152.355469 35.898438 152.097656 36.140625 151.578125 36.660156 C 151.234375 37.003906 150.765625 37.175781 150.351563 37.175781 "
       style=" stroke:none;fill-rule:nonzero;fill:rgb(0%,0%,0%);fill-opacity:1;" />
    <path
       id="path4"
       d="M 165.890625 14.738281 C 166.113281 15.707031 166.941406 15.914063 167.355469 15.914063 C 167.910156 15.914063 168.324219 15.550781 168.601563 14.964844 C 168.894531 14.34375 169.117188 13.324219 169.117188 13.269531 C 169.117188 13.183594 169.046875 13.113281 168.945313 13.113281 C 168.789063 13.113281 168.773438 13.199219 168.703125 13.460938 C 168.390625 14.652344 168.082031 15.566406 167.390625 15.566406 C 166.871094 15.566406 166.871094 14.996094 166.871094 14.773438 C 166.871094 14.375 166.925781 14.203125 167.097656 13.476563 C 167.21875 13.011719 167.339844 12.546875 167.445313 12.0625 L 168.152344 9.246094 C 168.273438 8.816406 168.273438 8.78125 168.273438 8.730469 C 168.273438 8.46875 168.0625 8.296875 167.804688 8.296875 C 167.304688 8.296875 167.183594 8.730469 167.078125 9.160156 C 166.90625 9.835938 165.976563 13.546875 165.855469 14.152344 C 165.839844 14.152344 165.164063 15.566406 163.902344 15.566406 C 163.003906 15.566406 162.832031 14.789063 162.832031 14.152344 C 162.832031 13.167969 163.316406 11.785156 163.765625 10.628906 C 163.972656 10.074219 164.058594 9.851563 164.058594 9.507813 C 164.058594 8.761719 163.523438 8.125 162.695313 8.125 C 161.105469 8.125 160.464844 10.628906 160.464844 10.765625 C 160.464844 10.835938 160.535156 10.921875 160.65625 10.921875 C 160.8125 10.921875 160.828125 10.851563 160.898438 10.609375 C 161.3125 9.125 161.984375 8.46875 162.640625 8.46875 C 162.816406 8.46875 163.089844 8.488281 163.089844 9.039063 C 163.089844 9.488281 162.902344 9.988281 162.640625 10.644531 C 161.882813 12.699219 161.796875 13.355469 161.796875 13.875 C 161.796875 15.636719 163.125 15.914063 163.835938 15.914063 C 164.9375 15.914063 165.542969 15.152344 165.890625 14.738281 "
       style=" stroke:none;fill-rule:nonzero;fill:rgb(0%,0%,100%);fill-opacity:1;" />
    <path
       id="path6"
       d="M 173.03125 10.699219 C 173.03125 10.425781 173.03125 10.414063 172.796875 10.414063 C 172.507813 10.734375 171.914063 11.175781 170.683594 11.175781 L 170.683594 11.519531 C 170.960938 11.519531 171.554688 11.519531 172.210938 11.210938 L 172.210938 17.421875 C 172.210938 17.851563 172.175781 17.996094 171.128906 17.996094 L 170.757813 17.996094 L 170.757813 18.339844 C 171.078125 18.316406 172.234375 18.316406 172.628906 18.316406 C 173.023438 18.316406 174.164063 18.316406 174.488281 18.339844 L 174.488281 17.996094 L 174.117188 17.996094 C 173.070313 17.996094 173.03125 17.851563 173.03125 17.421875 L 173.03125 10.699219 "
       style=" stroke:none;fill-rule:nonzero;fill:rgb(0%,0%,100%);fill-opacity:1;" />
    <path
       id="path8"
       d="M 154.429688 145.429688 C 154.429688 143.773438 154.429688 139.613281 150.351563 139.613281 C 146.257813 139.613281 146.257813 143.753906 146.257813 145.429688 C 146.257813 147.089844 146.257813 151.148438 150.335938 151.148438 C 154.410156 151.148438 154.429688 147.140625 154.429688 145.429688 Z M 150.351563 150.578125 C 149.800781 150.578125 149.386719 150.351563 149.039063 149.988281 C 148.609375 149.558594 148.332031 149.28125 148.332031 145.222656 C 148.332031 144.015625 148.332031 142.910156 148.46875 142.011719 C 148.714844 140.300781 149.957031 140.179688 150.335938 140.179688 C 150.886719 140.179688 151.960938 140.441406 152.199219 141.890625 C 152.355469 142.769531 152.355469 144.167969 152.355469 145.222656 C 152.355469 149.300781 152.097656 149.542969 151.578125 150.058594 C 151.234375 150.402344 150.765625 150.578125 150.351563 150.578125 "
       style=" stroke:none;fill-rule:nonzero;fill:rgb(0%,0%,0%);fill-opacity:1;" />
    <path
       id="path10"
       d="M 165.890625 165.4375 C 166.113281 166.40625 166.941406 166.613281 167.355469 166.613281 C 167.910156 166.613281 168.324219 166.25 168.601563 165.664063 C 168.894531 165.042969 169.117188 164.023438 169.117188 163.972656 C 169.117188 163.882813 169.046875 163.816406 168.945313 163.816406 C 168.789063 163.816406 168.773438 163.902344 168.703125 164.160156 C 168.390625 165.351563 168.082031 166.265625 167.390625 166.265625 C 166.871094 166.265625 166.871094 165.699219 166.871094 165.472656 C 166.871094 165.074219 166.925781 164.902344 167.097656 164.175781 C 167.21875 163.710938 167.339844 163.246094 167.445313 162.761719 L 168.152344 159.945313 C 168.273438 159.515625 168.273438 159.480469 168.273438 159.429688 C 168.273438 159.167969 168.0625 158.996094 167.804688 158.996094 C 167.304688 158.996094 167.183594 159.429688 167.078125 159.859375 C 166.90625 160.535156 165.976563 164.246094 165.855469 164.851563 C 165.839844 164.851563 165.164063 166.265625 163.902344 166.265625 C 163.003906 166.265625 162.832031 165.488281 162.832031 164.851563 C 162.832031 163.867188 163.316406 162.484375 163.765625 161.328125 C 163.972656 160.777344 164.058594 160.550781 164.058594 160.207031 C 164.058594 159.464844 163.523438 158.824219 162.695313 158.824219 C 161.105469 158.824219 160.464844 161.328125 160.464844 161.464844 C 160.464844 161.535156 160.535156 161.621094 160.65625 161.621094 C 160.8125 161.621094 160.828125 161.550781 160.898438 161.308594 C 161.3125 159.824219 161.984375 159.167969 162.640625 159.167969 C 162.816406 159.167969 163.089844 159.1875 163.089844 159.738281 C 163.089844 160.1875 162.902344 160.691406 162.640625 161.347656 C 161.882813 163.402344 161.796875 164.058594 161.796875 164.574219 C 161.796875 166.335938 163.125 166.613281 163.835938 166.613281 C 164.9375 166.613281 165.542969 165.851563 165.890625 165.4375 "
       style=" stroke:none;fill-rule:nonzero;fill:rgb(0%,0%,100%);fill-opacity:1;" />
    <path
       id="path12"
       d="M 174.941406 165.226563 C 174.941406 164.234375 174.882813 163.269531 174.453125 162.363281 C 173.964844 161.375 173.105469 161.113281 172.519531 161.113281 C 171.828125 161.113281 170.984375 161.457031 170.542969 162.449219 C 170.207031 163.199219 170.089844 163.9375 170.089844 165.226563 C 170.089844 166.382813 170.171875 167.253906 170.601563 168.097656 C 171.066406 169.003906 171.890625 169.289063 172.507813 169.289063 C 173.546875 169.289063 174.140625 168.667969 174.488281 167.980469 C 174.917969 167.085938 174.941406 165.917969 174.941406 165.226563 Z M 172.507813 169.050781 C 172.128906 169.050781 171.351563 168.835938 171.128906 167.539063 C 170.996094 166.824219 170.996094 165.917969 170.996094 165.082031 C 170.996094 164.105469 170.996094 163.222656 171.1875 162.519531 C 171.386719 161.722656 171.996094 161.351563 172.507813 161.351563 C 172.960938 161.351563 173.652344 161.625 173.878906 162.652344 C 174.035156 163.332031 174.035156 164.269531 174.035156 165.082031 C 174.035156 165.878906 174.035156 166.785156 173.902344 167.511719 C 173.675781 168.824219 172.925781 169.050781 172.507813 169.050781 "
       style=" stroke:none;fill-rule:nonzero;fill:rgb(0%,0%,100%);fill-opacity:1;" />
    <path
       id="path14"
       d="M 94.773438 83.410156 C 94.773438 82.910156 94.742188 82.910156 94.1875 82.910156 C 92.910156 84.015625 90.992188 84.015625 90.613281 84.015625 L 90.285156 84.015625 L 90.285156 84.757813 L 90.613281 84.757813 C 91.21875 84.757813 92.132813 84.65625 92.824219 84.429688 L 92.824219 93.496094 L 90.421875 93.496094 L 90.421875 94.238281 C 91.148438 94.207031 92.960938 94.207031 93.773438 94.207031 C 94.585938 94.207031 96.414063 94.207031 97.140625 94.238281 L 97.140625 93.496094 L 94.773438 93.496094 L 94.773438 83.410156 "
       style=" stroke:none;fill-rule:nonzero;fill:rgb(0%,0%,0%);fill-opacity:1;" />
    <path
       id="path16"
       d="M 208.175781 83.410156 C 208.175781 82.910156 208.140625 82.910156 207.589844 82.910156 C 206.308594 84.015625 204.394531 84.015625 204.015625 84.015625 L 203.6875 84.015625 L 203.6875 84.757813 L 204.015625 84.757813 C 204.617188 84.757813 205.53125 84.65625 206.222656 84.429688 L 206.222656 93.496094 L 203.824219 93.496094 L 203.824219 94.238281 C 204.546875 94.207031 206.363281 94.207031 207.171875 94.207031 C 207.984375 94.207031 209.816406 94.207031 210.539063 94.238281 L 210.539063 93.496094 L 208.175781 93.496094 L 208.175781 83.410156 "
       style=" stroke:none;fill-rule:nonzero;fill:rgb(0%,0%,0%);fill-opacity:1;" />
    <path
       id="path18"
       d="M 42.933594 82.933594 C 42.933594 82.539063 42.933594 82.484375 42.554688 82.484375 L 41.257813 83.730469 C 40.292969 82.902344 39.136719 82.484375 37.859375 82.484375 C 33.730469 82.484375 31.070313 84.988281 31.070313 88.617188 C 31.070313 92.175781 33.644531 94.746094 37.875 94.746094 C 40.949219 94.746094 42.933594 92.640625 42.933594 90.601563 C 42.933594 90.308594 42.832031 90.292969 42.570313 90.292969 C 42.398438 90.292969 42.226563 90.292969 42.210938 90.480469 C 42.054688 93.105469 39.828125 94.003906 38.273438 94.003906 C 37.148438 94.003906 35.628906 93.691406 34.664063 92.605469 C 34.058594 91.949219 33.507813 91 33.507813 88.617188 C 33.507813 86.925781 33.765625 85.664063 34.578125 84.695313 C 35.679688 83.402344 37.40625 83.230469 38.238281 83.230469 C 39.53125 83.230469 41.621094 83.953125 42.140625 86.992188 C 42.175781 87.148438 42.328125 87.148438 42.539063 87.148438 C 42.933594 87.148438 42.933594 87.113281 42.933594 86.699219 L 42.933594 82.933594 "
       style=" stroke:none;fill-rule:nonzero;fill:rgb(0%,0%,0%);fill-opacity:1;" />
    <path
       id="path20"
       d="M 21.199219 82.539063 C 21.199219 82.382813 21.078125 82.382813 21.046875 82.382813 C 21.011719 82.382813 20.941406 82.382813 20.804688 82.554688 L 19.609375 84.003906 C 19.007813 82.96875 18.058594 82.382813 16.761719 82.382813 C 13.03125 82.382813 9.164063 86.164063 9.164063 90.222656 C 9.164063 93.105469 11.183594 94.902344 13.703125 94.902344 C 15.085938 94.902344 16.296875 94.316406 17.296875 93.46875 C 18.800781 92.207031 19.25 90.535156 19.25 90.394531 C 19.25 90.238281 19.109375 90.238281 19.058594 90.238281 C 18.902344 90.238281 18.886719 90.34375 18.851563 90.410156 C 18.058594 93.105469 15.726563 94.402344 14 94.402344 C 12.167969 94.402344 10.578125 93.226563 10.578125 90.777344 C 10.578125 90.222656 10.75 87.21875 12.703125 84.957031 C 13.652344 83.851563 15.277344 82.882813 16.917969 82.882813 C 18.816406 82.882813 19.664063 84.453125 19.664063 86.214844 C 19.664063 86.664063 19.609375 87.042969 19.609375 87.113281 C 19.609375 87.269531 19.785156 87.269531 19.835938 87.269531 C 20.027344 87.269531 20.042969 87.253906 20.113281 86.941406 L 21.199219 82.539063 "
       style=" stroke:none;fill-rule:nonzero;fill:rgb(0%,0%,100%);fill-opacity:1;" />
    <path
       id="path22"
       d="M 26.46875 85.621094 C 26.46875 85.191406 26.121094 84.914063 25.757813 84.914063 C 25.414063 84.914063 25.050781 85.191406 25.050781 85.621094 C 25.050781 86.054688 25.394531 86.332031 25.757813 86.332031 C 26.105469 86.332031 26.46875 86.054688 26.46875 85.621094 Z M 26.46875 91.632813 C 26.46875 91.199219 26.121094 90.925781 25.757813 90.925781 C 25.414063 90.925781 25.050781 91.199219 25.050781 91.632813 C 25.050781 92.0625 25.394531 92.339844 25.757813 92.339844 C 26.105469 92.339844 26.46875 92.0625 26.46875 91.632813 "
       style=" stroke:none;fill-rule:nonzero;fill:rgb(0%,0%,100%);fill-opacity:1;" />
    <path
       id="path24"
       d="M 265.636719 88.667969 C 267.96875 88.046875 268.539063 86.804688 268.539063 85.871094 C 268.539063 84.144531 266.722656 82.691406 263.527344 82.691406 L 257.15625 82.691406 L 257.15625 83.433594 L 258.988281 83.433594 L 258.988281 93.796875 L 257.15625 93.796875 L 257.15625 94.539063 C 257.65625 94.503906 259.453125 94.503906 260.074219 94.503906 C 260.695313 94.503906 262.507813 94.503906 263.011719 94.539063 L 263.011719 93.796875 L 261.179688 93.796875 L 261.179688 88.894531 L 263.234375 88.894531 C 263.925781 88.894531 264.476563 89.097656 264.859375 89.550781 C 265.378906 90.136719 265.378906 90.515625 265.378906 91.671875 C 265.378906 92.832031 265.378906 93.539063 266.257813 94.125 C 267.15625 94.730469 268.570313 94.746094 268.953125 94.746094 C 270.714844 94.746094 270.921875 93.191406 270.921875 92.949219 C 270.921875 92.65625 270.78125 92.605469 270.558594 92.605469 C 270.230469 92.605469 270.214844 92.726563 270.195313 92.949219 C 270.109375 93.816406 269.574219 94.175781 269.089844 94.175781 C 267.984375 94.175781 267.863281 93.019531 267.726563 91.433594 C 267.621094 90.515625 267.5 89.238281 265.636719 88.667969 Z M 263.199219 88.324219 L 261.179688 88.324219 L 261.179688 83.433594 L 263.234375 83.433594 C 266.050781 83.433594 266.101563 84.851563 266.101563 85.871094 C 266.101563 86.820313 266.085938 88.324219 263.199219 88.324219 "
       style=" stroke:none;fill-rule:nonzero;fill:rgb(0%,0%,0%);fill-opacity:1;" />
    <path
       id="path26"
       d="M 285.753906 83.917969 C 285.910156 83.28125 285.980469 83.246094 286.652344 83.246094 L 287.898438 83.246094 C 289.382813 83.246094 290.488281 83.695313 290.488281 85.042969 C 290.488281 85.921875 290.039063 88.460938 286.566406 88.460938 L 284.617188 88.460938 Z M 288.15625 88.667969 C 290.296875 88.203125 291.972656 86.820313 291.972656 85.335938 C 291.972656 83.988281 290.609375 82.746094 288.207031 82.746094 L 283.527344 82.746094 C 283.179688 82.746094 283.027344 82.746094 283.027344 83.074219 C 283.027344 83.246094 283.148438 83.246094 283.476563 83.246094 C 284.511719 83.246094 284.511719 83.382813 284.511719 83.574219 C 284.511719 83.609375 284.511719 83.710938 284.441406 83.972656 L 282.109375 93.261719 C 281.957031 93.867188 281.921875 94.039063 280.730469 94.039063 C 280.332031 94.039063 280.210938 94.039063 280.210938 94.367188 C 280.210938 94.539063 280.402344 94.539063 280.453125 94.539063 C 280.765625 94.539063 281.128906 94.503906 281.453125 94.503906 L 283.492188 94.503906 C 283.804688 94.503906 284.164063 94.539063 284.476563 94.539063 C 284.617188 94.539063 284.804688 94.539063 284.804688 94.210938 C 284.804688 94.039063 284.648438 94.039063 284.390625 94.039063 C 283.339844 94.039063 283.339844 93.902344 283.339844 93.730469 C 283.339844 93.710938 283.339844 93.589844 283.371094 93.453125 L 284.53125 88.808594 L 286.601563 88.808594 C 288.242188 88.808594 288.554688 89.84375 288.554688 90.410156 C 288.554688 90.671875 288.378906 91.34375 288.257813 91.792969 C 288.070313 92.589844 288.015625 92.777344 288.015625 93.105469 C 288.015625 94.332031 289.019531 94.902344 290.175781 94.902344 C 291.574219 94.902344 292.179688 93.191406 292.179688 92.949219 C 292.179688 92.832031 292.09375 92.777344 291.988281 92.777344 C 291.851563 92.777344 291.816406 92.882813 291.78125 93.019531 C 291.367188 94.246094 290.660156 94.558594 290.226563 94.558594 C 289.796875 94.558594 289.519531 94.367188 289.519531 93.589844 C 289.519531 93.175781 289.726563 91.605469 289.742188 91.519531 C 289.832031 90.878906 289.832031 90.808594 289.832031 90.671875 C 289.832031 89.410156 288.8125 88.875 288.15625 88.667969 "
       style=" stroke:none;fill-rule:nonzero;fill:rgb(0%,0%,100%);fill-opacity:1;" />
    <path
       id="path28"
       d="M 275.96875 85.621094 C 275.96875 85.191406 275.621094 84.914063 275.257813 84.914063 C 274.914063 84.914063 274.550781 85.191406 274.550781 85.621094 C 274.550781 86.054688 274.894531 86.332031 275.257813 86.332031 C 275.605469 86.332031 275.96875 86.054688 275.96875 85.621094 Z M 275.96875 91.632813 C 275.96875 91.199219 275.621094 90.925781 275.257813 90.925781 C 274.914063 90.925781 274.550781 91.199219 274.550781 91.632813 C 274.550781 92.0625 274.894531 92.339844 275.257813 92.339844 C 275.605469 92.339844 275.96875 92.0625 275.96875 91.632813 "
       style=" stroke:none;fill-rule:nonzero;fill:rgb(0%,0%,100%);fill-opacity:1;" />
    <path
       id="path30"
       transform="matrix(0.1,0,0,-0.1,0,177.34)"
       d="M 835.625 886.720313 L 530.507813 886.720313 "
       style="fill:none;stroke-width:15.9404;stroke-linecap:butt;stroke-linejoin:miter;stroke:rgb(0%,0%,0%);stroke-opacity:1;stroke-miterlimit:10;" />
    <path
       id="path32"
       transform="matrix(0.1,0,0,-0.1,0,177.34)"
       d="M 530.507813 886.720313 L 514.570313 886.720313 L 583.28125 829.064063 "
       style="fill:none;stroke-width:15.9404;stroke-linecap:butt;stroke-linejoin:miter;stroke:rgb(0%,0%,0%);stroke-opacity:1;stroke-miterlimit:10;" />
    <path
       id="path34"
       transform="matrix(0.1,0,0,-0.1,0,177.34)"
       d="M 2171.953125 886.720313 L 2474.804688 886.720313 "
       style="fill:none;stroke-width:15.9404;stroke-linecap:butt;stroke-linejoin:miter;stroke:rgb(0%,0%,0%);stroke-opacity:1;stroke-miterlimit:10;" />
    <path
       id="path36"
       transform="matrix(0.1,0,0,-0.1,0,177.34)"
       d="M 2474.804688 886.720313 L 2490.742188 886.720313 L 2422.03125 829.064063 "
       style="fill:none;stroke-width:15.9404;stroke-linecap:butt;stroke-linejoin:miter;stroke:rgb(0%,0%,0%);stroke-opacity:1;stroke-miterlimit:10;" />
    <path
       id="path38"
       transform="matrix(0.1,0,0,-0.1,0,177.34)"
       d="M 1411.328125 1361.2125 L 1056.09375 1005.9 "
       style="fill:none;stroke-width:15.9404;stroke-linecap:butt;stroke-linejoin:miter;stroke:rgb(0%,0%,0%);stroke-opacity:1;stroke-miterlimit:10;" />
    <path
       id="path40"
       transform="matrix(0.1,0,0,-0.1,0,177.34)"
       d="M 1056.09375 1005.9 L 1044.804688 994.65 L 1134.179688 1002.4625 "
       style="fill:none;stroke-width:15.9401;stroke-linecap:butt;stroke-linejoin:miter;stroke:rgb(0%,0%,0%);stroke-opacity:1;stroke-miterlimit:10;" />
    <path
       id="path42"
       transform="matrix(0.1,0,0,-0.1,0,177.34)"
       d="M 1596.25 1361.2125 L 1951.484375 1005.9 "
       style="fill:none;stroke-width:15.9404;stroke-linecap:butt;stroke-linejoin:miter;stroke:rgb(0%,0%,0%);stroke-opacity:1;stroke-miterlimit:10;" />
    <path
       id="path44"
       transform="matrix(0.1,0,0,-0.1,0,177.34)"
       d="M 1951.484375 1005.9 L 1962.773438 994.65 L 1873.398438 1002.4625 "
       style="fill:none;stroke-width:15.9401;stroke-linecap:butt;stroke-linejoin:miter;stroke:rgb(0%,0%,0%);stroke-opacity:1;stroke-miterlimit:10;" />
    <path
       id="path46"
       transform="matrix(0.1,0,0,-0.1,0,177.34)"
       d="M 1029.335938 794.259375 L 1384.53125 438.985938 "
       style="fill:none;stroke-width:15.9404;stroke-linecap:butt;stroke-linejoin:miter;stroke:rgb(0%,0%,0%);stroke-opacity:1;stroke-miterlimit:10;" />
    <path
       id="path48"
       transform="matrix(0.1,0,0,-0.1,0,177.34)"
       d="M 1384.53125 438.985938 L 1395.820313 427.696875 L 1306.484375 435.509375 "
       style="fill:none;stroke-width:15.9401;stroke-linecap:butt;stroke-linejoin:miter;stroke:rgb(0%,0%,0%);stroke-opacity:1;stroke-miterlimit:10;" />
    <path
       id="path50"
       transform="matrix(0.1,0,0,-0.1,0,177.34)"
       d="M 1978.242188 794.259375 L 1623.046875 438.985938 "
       style="fill:none;stroke-width:15.9404;stroke-linecap:butt;stroke-linejoin:miter;stroke:rgb(0%,0%,0%);stroke-opacity:1;stroke-miterlimit:10;" />
    <path
       id="path52"
       transform="matrix(0.1,0,0,-0.1,0,177.34)"
       d="M 1623.046875 438.985938 L 1611.757813 427.696875 L 1701.09375 435.509375 "
       style="fill:none;stroke-width:15.9401;stroke-linecap:butt;stroke-linejoin:miter;stroke:rgb(0%,0%,0%);stroke-opacity:1;stroke-miterlimit:10;" />
  </g>
</svg>
