<?xml version="1.0" encoding="UTF-8" standalone="no"?>
<svg
   xmlns:dc="http://purl.org/dc/elements/1.1/"
   xmlns:cc="http://creativecommons.org/ns#"
   xmlns:rdf="http://www.w3.org/1999/02/22-rdf-syntax-ns#"
   xmlns:svg="http://www.w3.org/2000/svg"
   xmlns="http://www.w3.org/2000/svg"
   viewBox="0 0 534.76001 227.94667"
   height="227.94667"
   width="534.76001"
   xml:space="preserve"
   id="svg2"
   version="1.1"><metadata
     id="metadata8"><rdf:RDF><cc:Work
         rdf:about=""><dc:format>image/svg+xml</dc:format><dc:type
           rdf:resource="http://purl.org/dc/dcmitype/StillImage" /></cc:Work></rdf:RDF></metadata><defs
     id="defs6"><clipPath
       id="clipPath102"
       clipPathUnits="userSpaceOnUse"><path
         id="path100"
         d="m 2773.76,155.152 h 90.7109 v 90.7109 H 2773.76 Z" /></clipPath></defs><g
     transform="matrix(1.3333333,0,0,-1.3333333,0,227.94667)"
     id="g10"><g
       transform="scale(0.1)"
       id="g12"><path
         id="path14"
         style="fill:none;stroke:#000000;stroke-width:15.9404;stroke-linecap:butt;stroke-linejoin:miter;stroke-miterlimit:10;stroke-dasharray:none;stroke-opacity:1"
         d="m 664.754,1198.32 h 453.551 v 453.547 H 664.754 Z" /><path
         id="path16"
         style="fill:#0000ff;fill-opacity:1;fill-rule:nonzero;stroke:none"
         d="m 852.328,1319.75 c 3.188,0.19 4.875,2.38 4.875,4.86 0,3.28 -2.484,4.87 -4.765,4.87 -2.391,0 -4.875,-1.5 -4.875,-4.96 0,-5.08 4.968,-9.25 11.031,-9.25 15.094,0 20.75,23.25 27.812,52.06 7.641,31.39 14.11,63.08 19.469,94.97 3.672,21.15 7.344,41.01 10.734,53.83 1.188,4.87 4.563,17.68 8.438,17.68 3.078,0 5.562,-1.89 5.953,-2.28 -3.266,-0.2 -4.953,-2.39 -4.953,-4.87 0,-3.27 2.469,-4.86 4.766,-4.86 2.375,0 4.859,1.48 4.859,4.97 0,5.36 -5.359,9.23 -10.828,9.23 -7.547,0 -13.11,-10.83 -18.578,-31.09 -0.297,-1.1 -13.797,-50.96 -24.735,-115.93 -2.578,-15.2 -5.453,-31.79 -8.734,-45.59 -1.797,-7.25 -6.359,-25.94 -14.406,-25.94 -3.578,0 -5.953,2.3 -6.063,2.3" /><path
         id="path18"
         style="fill:none;stroke:#000000;stroke-width:15.9404;stroke-linecap:butt;stroke-linejoin:miter;stroke-miterlimit:10;stroke-dasharray:none;stroke-opacity:1"
         d="m 664.754,64.4414 h 453.551 v 453.551 H 664.754 Z" /><path
         id="path20"
         style="fill:#0000ff;fill-opacity:1;fill-rule:nonzero;stroke:none"
         d="m 896.328,392.406 c 0,2.75 0,2.86 -2.375,2.86 -2.875,-3.219 -8.828,-7.625 -21.109,-7.625 v -3.453 c 2.75,0 8.703,0 15.265,3.093 v -62.109 c 0,-4.281 -0.359,-5.719 -10.843,-5.719 h -3.703 V 316 c 3.218,0.234 14.781,0.234 18.718,0.234 3.938,0 15.375,0 18.594,-0.234 v 3.453 h -3.703 c -10.484,0 -10.844,1.438 -10.844,5.719 v 67.234" /><path
         id="path22"
         style="fill:none;stroke:#0000ff;stroke-width:3.985;stroke-linecap:butt;stroke-linejoin:miter;stroke-miterlimit:10;stroke-dasharray:none;stroke-opacity:1"
         d="m 845.359,291.52 h 92.34" /><path
         id="path24"
         style="fill:#0000ff;fill-opacity:1;fill-rule:nonzero;stroke:none"
         d="m 934.047,271.844 c 0,1.078 -0.828,1.078 -1.078,1.078 -0.235,0 -0.719,0 -1.672,-1.188 l -8.219,-10.015 c -4.172,7.14 -10.734,11.203 -19.672,11.203 -25.75,0 -52.453,-26.109 -52.453,-54.125 0,-19.906 13.953,-32.297 31.36,-32.297 9.531,0 17.875,4.047 24.796,9.891 10.36,8.703 13.469,20.265 13.469,21.218 0,1.079 -0.953,1.079 -1.312,1.079 -1.078,0 -1.188,-0.719 -1.438,-1.204 -5.484,-18.593 -21.562,-27.531 -33.484,-27.531 -12.641,0 -23.61,8.11 -23.61,25.031 0,3.813 1.188,24.563 14.657,40.172 6.562,7.625 17.765,14.313 29.093,14.313 13.11,0 18.954,-10.86 18.954,-23.016 0,-3.094 -0.36,-5.719 -0.36,-6.187 0,-1.078 1.188,-1.078 1.547,-1.078 1.313,0 1.438,0.109 1.906,2.265 l 7.516,30.391" /><path
         id="path26"
         style="fill:#000000;fill-opacity:1;fill-rule:nonzero;stroke:none"
         d="m 352.941,818.469 h -56.695 l 28.348,71.398" /><path
         id="path28"
         style="fill:none;stroke:#000000;stroke-width:15.9404;stroke-linecap:butt;stroke-linejoin:miter;stroke-miterlimit:10;stroke-dasharray:none;stroke-opacity:1"
         d="m 352.941,818.469 h -56.695 l 28.348,71.398 z" /><path
         id="path30"
         style="fill:none;stroke:#000000;stroke-width:15.9404;stroke-linecap:butt;stroke-linejoin:miter;stroke-miterlimit:10;stroke-dasharray:none;stroke-opacity:1"
         d="M 324.594,818.469 V 897.84" /><path
         id="path32"
         style="fill:#0000ff;fill-opacity:1;fill-rule:nonzero;stroke:none"
         d="m 159.156,912.438 c 0,0.859 -0.687,1.546 -1.547,1.546 -1.39,0 -8.125,-6.218 -11.406,-12.265 -3.109,7.781 -8.453,12.437 -15.89,12.437 -19.516,0 -40.5786,-25.218 -40.5786,-50.765 0,-17.094 10.0156,-27.125 21.7656,-27.125 9.141,0 16.75,6.922 20.375,10.89 l 0.172,-0.172 -6.563,-25.906 -1.562,-6.219 c -1.547,-5.187 -4.141,-5.187 -12.25,-5.359 -1.906,0 -3.625,0 -3.625,-3.281 0,-1.203 1.031,-1.719 2.234,-1.719 2.422,0 5.532,0.344 7.953,0.344 h 17.61 c 2.594,0 5.531,-0.344 8.109,-0.344 1.047,0 3.11,0 3.11,3.281 0,1.719 -1.375,1.719 -3.969,1.719 -8.11,0 -8.625,1.219 -8.625,2.594 0,0.859 0.172,1.031 0.687,3.281 z m -24.343,-53.891 c -0.875,-2.938 -0.875,-3.281 -3.282,-6.563 -3.797,-4.828 -11.406,-12.25 -19.515,-12.25 -7.078,0 -11.063,6.375 -11.063,16.579 0,9.484 5.36,28.828 8.641,36.093 5.875,12.078 13.984,18.297 20.719,18.297 11.406,0 13.64,-14.156 13.64,-15.547 0,-0.172 -0.515,-2.406 -0.687,-2.75 l -8.453,-33.859" /><path
         id="path34"
         style="fill:#0000ff;fill-opacity:1;fill-rule:nonzero;stroke:none"
         d="m 247.047,894.844 c 0,1.078 -0.828,1.078 -1.078,1.078 -0.235,0 -0.719,0 -1.672,-1.188 l -8.219,-10.015 c -4.172,7.14 -10.734,11.203 -19.672,11.203 -25.75,0 -52.453,-26.109 -52.453,-54.125 0,-19.906 13.953,-32.297 31.36,-32.297 9.531,0 17.875,4.047 24.796,9.891 10.36,8.703 13.469,20.265 13.469,21.218 0,1.079 -0.953,1.079 -1.312,1.079 -1.078,0 -1.188,-0.719 -1.438,-1.204 -5.484,-18.593 -21.562,-27.531 -33.484,-27.531 -12.641,0 -23.61,8.11 -23.61,25.031 0,3.813 1.188,24.563 14.657,40.172 6.562,7.625 17.765,14.313 29.093,14.313 13.11,0 18.954,-10.86 18.954,-23.016 0,-3.094 -0.36,-5.719 -0.36,-6.187 0,-1.078 1.188,-1.078 1.547,-1.078 1.313,0 1.438,0.109 1.906,2.265 l 7.516,30.391" /><path
         id="path36"
         style="fill:#000000;fill-opacity:1;fill-rule:nonzero;stroke:none"
         d="m 1418.78,1396.74 v 56.7 l 71.4,-28.35" /><path
         id="path38"
         style="fill:none;stroke:#000000;stroke-width:15.9404;stroke-linecap:butt;stroke-linejoin:miter;stroke-miterlimit:10;stroke-dasharray:none;stroke-opacity:1"
         d="m 1418.78,1396.74 v 56.7 l 71.4,-28.35 z" /><path
         id="path40"
         style="fill:none;stroke:#000000;stroke-width:15.9404;stroke-linecap:butt;stroke-linejoin:miter;stroke-miterlimit:10;stroke-dasharray:none;stroke-opacity:1"
         d="m 1418.78,1425.09 h 79.37" /><path
         id="path42"
         style="fill:#0000ff;fill-opacity:1;fill-rule:nonzero;stroke:none"
         d="m 1420.89,1530.02 c 2.25,-9.68 10.53,-11.75 14.67,-11.75 5.53,0 9.67,3.64 12.44,9.5 2.94,6.21 5.19,16.4 5.19,16.92 0,0.87 -0.71,1.56 -1.74,1.56 -1.54,0 -1.72,-0.86 -2.42,-3.45 -3.11,-11.92 -6.2,-21.07 -13.12,-21.07 -5.18,0 -5.18,5.69 -5.18,7.94 0,3.97 0.52,5.71 2.25,12.96 1.21,4.65 2.41,9.32 3.46,14.15 l 7.08,28.16 c 1.2,4.31 1.2,4.65 1.2,5.17 0,2.59 -2.08,4.33 -4.66,4.33 -5.01,0 -6.22,-4.33 -7.26,-8.64 -1.72,-6.74 -11.05,-43.86 -12.25,-49.91 -0.17,0 -6.91,-14.16 -19.52,-14.16 -8.98,0 -10.7,7.77 -10.7,14.16 0,9.84 4.83,23.66 9.31,35.24 2.08,5.51 2.94,7.76 2.94,11.21 0,7.43 -5.35,13.82 -13.64,13.82 -15.89,0 -22.28,-25.03 -22.28,-26.43 0,-0.68 0.7,-1.54 1.9,-1.54 1.55,0 1.74,0.69 2.42,3.11 4.15,14.84 10.88,21.4 17.44,21.4 1.74,0 4.49,-0.17 4.49,-5.7 0,-4.48 -1.89,-9.5 -4.49,-16.06 -7.59,-20.55 -8.47,-27.11 -8.47,-32.28 0,-17.63 13.3,-20.39 20.39,-20.39 11.05,0 17.1,7.61 20.55,11.75" /><path
         id="path44"
         style="fill:#0000ff;fill-opacity:1;fill-rule:nonzero;stroke:none"
         d="m 1547.05,1577.84 c 0,1.08 -0.83,1.08 -1.08,1.08 -0.24,0 -0.72,0 -1.67,-1.19 l -8.22,-10.01 c -4.17,7.14 -10.74,11.2 -19.67,11.2 -25.75,0 -52.46,-26.11 -52.46,-54.12 0,-19.91 13.96,-32.3 31.36,-32.3 9.53,0 17.88,4.05 24.8,9.89 10.36,8.7 13.47,20.27 13.47,21.22 0,1.08 -0.95,1.08 -1.31,1.08 -1.08,0 -1.19,-0.72 -1.44,-1.21 -5.49,-18.59 -21.56,-27.53 -33.49,-27.53 -12.64,0 -23.61,8.11 -23.61,25.03 0,3.82 1.19,24.57 14.66,40.18 6.56,7.62 17.77,14.31 29.09,14.31 13.11,0 18.96,-10.86 18.96,-23.02 0,-3.09 -0.36,-5.72 -0.36,-6.18 0,-1.08 1.19,-1.08 1.55,-1.08 1.31,0 1.43,0.11 1.9,2.26 l 7.52,30.39" /><path
         id="path46"
         style="fill:#000000;fill-opacity:1;fill-rule:nonzero;stroke:none"
         d="m 1498.15,319.563 v -56.692 l -71.4,28.348" /><path
         id="path48"
         style="fill:none;stroke:#000000;stroke-width:15.9404;stroke-linecap:butt;stroke-linejoin:miter;stroke-miterlimit:10;stroke-dasharray:none;stroke-opacity:1"
         d="m 1498.15,319.563 v -56.692 l -71.4,28.348 z" /><path
         id="path50"
         style="fill:none;stroke:#000000;stroke-width:15.9404;stroke-linecap:butt;stroke-linejoin:miter;stroke-miterlimit:10;stroke-dasharray:none;stroke-opacity:1"
         d="m 1498.15,291.219 h -79.37" /><path
         id="path52"
         style="fill:#0000ff;fill-opacity:1;fill-rule:nonzero;stroke:none"
         d="m 1429.88,133.688 c 0,0.875 -0.69,1.562 -1.74,1.562 -1.55,0 -1.72,-0.516 -2.58,-3.453 -4.5,-15.719 -11.58,-21.063 -17.28,-21.063 -2.06,0 -4.48,0.516 -4.48,5.688 0,4.672 2.08,9.844 3.97,15.031 l 12.09,32.125 c 0.52,1.375 1.72,4.485 1.72,7.766 0,7.25 -5.17,13.812 -13.64,13.812 -15.89,0 -22.28,-25.031 -22.28,-26.422 0,-0.687 0.7,-1.546 1.9,-1.546 1.55,0 1.74,0.687 2.42,3.109 4.15,14.5 10.71,21.406 17.44,21.406 1.55,0 4.49,-0.172 4.49,-5.703 0,-4.484 -2.24,-10.187 -3.63,-13.984 l -12.08,-32.125 c -1.04,-2.75 -2.07,-5.516 -2.07,-8.625 0,-7.782 5.35,-14 13.64,-14 15.89,0 22.11,25.218 22.11,26.422 z m -1.4,83.078 c 0,2.578 -2.06,5.687 -5.85,5.687 -3.99,0 -8.47,-3.797 -8.47,-8.281 0,-4.313 3.62,-5.703 5.7,-5.703 4.66,0 8.62,4.5 8.62,8.297" /><path
         id="path54"
         style="fill:#0000ff;fill-opacity:1;fill-rule:nonzero;stroke:none"
         d="m 1528.05,165.844 c 0,1.078 -0.83,1.078 -1.08,1.078 -0.24,0 -0.72,0 -1.67,-1.188 l -8.22,-10.015 c -4.17,7.14 -10.74,11.203 -19.67,11.203 -25.75,0 -52.46,-26.109 -52.46,-54.125 0,-19.9064 13.96,-32.297 31.36,-32.297 9.53,0 17.88,4.0469 24.8,9.8906 10.36,8.7032 13.47,20.2654 13.47,21.2184 0,1.079 -0.95,1.079 -1.31,1.079 -1.08,0 -1.19,-0.719 -1.44,-1.204 -5.49,-18.5934 -21.56,-27.5309 -33.49,-27.5309 -12.64,0 -23.61,8.1094 -23.61,25.0309 0,3.813 1.19,24.563 14.66,40.172 6.56,7.625 17.77,14.313 29.09,14.313 13.11,0 18.96,-10.86 18.96,-23.016 0,-3.094 -0.36,-5.719 -0.36,-6.187 0,-1.078 1.19,-1.078 1.55,-1.078 1.31,0 1.43,0.109 1.9,2.265 l 7.52,30.391" /><path
         id="path56"
         style="fill:none;stroke:#000000;stroke-width:15.9404;stroke-linecap:butt;stroke-linejoin:miter;stroke-miterlimit:10;stroke-dasharray:none;stroke-opacity:1"
         d="m 3499.44,631.379 h 453.547 V 1084.93 H 3499.44 Z" /><path
         id="path58"
         style="fill:#0000ff;fill-opacity:1;fill-rule:nonzero;stroke:none"
         d="m 3731.33,959.406 c 0,2.75 0,2.86 -2.38,2.86 -2.87,-3.219 -8.82,-7.625 -21.11,-7.625 v -3.453 c 2.75,0 8.71,0 15.27,3.093 v -62.109 c 0,-4.281 -0.36,-5.719 -10.84,-5.719 h -3.71 V 883 c 3.22,0.234 14.78,0.234 18.72,0.234 3.94,0 15.38,0 18.6,-0.234 v 3.453 h -3.71 c -10.48,0 -10.84,1.438 -10.84,5.719 v 67.234" /><path
         id="path60"
         style="fill:none;stroke:#0000ff;stroke-width:3.985;stroke-linecap:butt;stroke-linejoin:miter;stroke-miterlimit:10;stroke-dasharray:none;stroke-opacity:1"
         d="m 3681.16,858.449 h 90.09" /><path
         id="path62"
         style="fill:#0000ff;fill-opacity:1;fill-rule:nonzero;stroke:none"
         d="m 3724.88,829.313 c 1.06,4.406 1.54,4.64 6.18,4.64 h 8.6 c 10.25,0 17.87,-3.094 17.87,-12.39 0,-6.079 -3.09,-23.61 -27.06,-23.61 H 3717 Z m 16.56,-32.782 c 14.78,3.219 26.34,12.75 26.34,23 0,9.297 -9.42,17.891 -25.98,17.891 h -32.32 c -2.37,0 -3.45,0 -3.45,-2.266 0,-1.203 0.85,-1.203 3.1,-1.203 7.15,0 7.15,-0.953 7.15,-2.265 0,-0.235 0,-0.954 -0.47,-2.735 l -16.09,-64.125 c -1.08,-4.172 -1.31,-5.375 -9.55,-5.375 -2.73,0 -3.56,0 -3.56,-2.265 0,-1.188 1.3,-1.188 1.66,-1.188 2.15,0 4.65,0.234 6.92,0.234 h 14.06 c 2.14,0 4.66,-0.234 6.8,-0.234 0.95,0 2.26,0 2.26,2.266 0,1.187 -1.08,1.187 -2.86,1.187 -7.28,0 -7.28,0.953 -7.28,2.156 0,0.11 0,0.954 0.25,1.907 l 7.99,32.062 h 14.29 c 11.33,0 13.47,-7.156 13.47,-11.094 0,-1.781 -1.19,-6.437 -2.01,-9.531 -1.32,-5.484 -1.68,-6.797 -1.68,-9.062 0,-8.453 6.91,-12.391 14.91,-12.391 9.66,0 13.83,11.797 13.83,13.469 0,0.828 -0.61,1.187 -1.31,1.187 -0.96,0 -1.21,-0.718 -1.44,-1.672 -2.86,-8.453 -7.75,-10.609 -10.74,-10.609 -2.96,0 -4.87,1.313 -4.87,6.688 0,2.859 1.42,13.703 1.55,14.296 0.59,4.407 0.59,4.891 0.59,5.844 0,8.703 -7.03,12.391 -11.56,13.828" /><path
         id="path64"
         style="fill:#000000;fill-opacity:1;fill-rule:nonzero;stroke:none"
         d="m 3119.59,1396.74 v 56.7 l 71.4,-28.35" /><path
         id="path66"
         style="fill:none;stroke:#000000;stroke-width:15.9404;stroke-linecap:butt;stroke-linejoin:miter;stroke-miterlimit:10;stroke-dasharray:none;stroke-opacity:1"
         d="m 3119.59,1396.74 v 56.7 l 71.4,-28.35 z" /><path
         id="path68"
         style="fill:none;stroke:#000000;stroke-width:15.9404;stroke-linecap:butt;stroke-linejoin:miter;stroke-miterlimit:10;stroke-dasharray:none;stroke-opacity:1"
         d="m 3119.59,1425.09 h 79.37" /><path
         id="path70"
         style="fill:#0000ff;fill-opacity:1;fill-rule:nonzero;stroke:none"
         d="m 3122.89,1530.02 c 2.25,-9.68 10.53,-11.75 14.67,-11.75 5.53,0 9.67,3.64 12.44,9.5 2.94,6.21 5.19,16.4 5.19,16.92 0,0.87 -0.71,1.56 -1.74,1.56 -1.54,0 -1.72,-0.86 -2.42,-3.45 -3.11,-11.92 -6.2,-21.07 -13.12,-21.07 -5.18,0 -5.18,5.69 -5.18,7.94 0,3.97 0.52,5.71 2.25,12.96 1.21,4.65 2.41,9.32 3.46,14.15 l 7.08,28.16 c 1.2,4.31 1.2,4.65 1.2,5.17 0,2.59 -2.08,4.33 -4.66,4.33 -5.01,0 -6.22,-4.33 -7.26,-8.64 -1.72,-6.74 -11.05,-43.86 -12.25,-49.91 -0.17,0 -6.91,-14.16 -19.52,-14.16 -8.98,0 -10.7,7.77 -10.7,14.16 0,9.84 4.83,23.66 9.31,35.24 2.08,5.51 2.94,7.76 2.94,11.21 0,7.43 -5.35,13.82 -13.64,13.82 -15.89,0 -22.28,-25.03 -22.28,-26.43 0,-0.68 0.7,-1.54 1.9,-1.54 1.55,0 1.74,0.69 2.42,3.11 4.15,14.84 10.88,21.4 17.44,21.4 1.74,0 4.49,-0.17 4.49,-5.7 0,-4.48 -1.89,-9.5 -4.49,-16.06 -7.59,-20.55 -8.47,-27.11 -8.47,-32.28 0,-17.63 13.3,-20.39 20.39,-20.39 11.05,0 17.1,7.61 20.55,11.75" /><path
         id="path72"
         style="fill:#0000ff;fill-opacity:1;fill-rule:nonzero;stroke:none"
         d="m 3203.88,1568.31 c 1.06,4.41 1.54,4.64 6.18,4.64 h 8.6 c 10.25,0 17.87,-3.09 17.87,-12.39 0,-6.08 -3.09,-23.61 -27.06,-23.61 H 3196 Z m 16.56,-32.78 c 14.78,3.22 26.34,12.75 26.34,23 0,9.3 -9.42,17.89 -25.98,17.89 h -32.32 c -2.37,0 -3.45,0 -3.45,-2.26 0,-1.21 0.85,-1.21 3.1,-1.21 7.15,0 7.15,-0.95 7.15,-2.26 0,-0.24 0,-0.96 -0.47,-2.74 l -16.09,-64.12 c -1.08,-4.17 -1.31,-5.38 -9.55,-5.38 -2.73,0 -3.56,0 -3.56,-2.26 0,-1.19 1.3,-1.19 1.66,-1.19 2.15,0 4.65,0.23 6.92,0.23 h 14.06 c 2.14,0 4.66,-0.23 6.8,-0.23 0.95,0 2.26,0 2.26,2.27 0,1.18 -1.08,1.18 -2.86,1.18 -7.28,0 -7.28,0.96 -7.28,2.16 0,0.11 0,0.95 0.25,1.91 l 7.99,32.06 h 14.29 c 11.33,0 13.47,-7.16 13.47,-11.1 0,-1.78 -1.19,-6.43 -2.01,-9.53 -1.32,-5.48 -1.68,-6.79 -1.68,-9.06 0,-8.45 6.91,-12.39 14.91,-12.39 9.66,0 13.83,11.8 13.83,13.47 0,0.83 -0.61,1.19 -1.31,1.19 -0.96,0 -1.21,-0.72 -1.44,-1.68 -2.86,-8.45 -7.75,-10.6 -10.74,-10.6 -2.96,0 -4.87,1.31 -4.87,6.68 0,2.86 1.42,13.71 1.55,14.3 0.59,4.41 0.59,4.89 0.59,5.84 0,8.71 -7.03,12.39 -11.56,13.83" /><path
         id="path74"
         style="fill:#000000;fill-opacity:1;fill-rule:nonzero;stroke:none"
         d="m 3198.96,319.563 v -56.692 l -71.4,28.348" /><path
         id="path76"
         style="fill:none;stroke:#000000;stroke-width:15.9404;stroke-linecap:butt;stroke-linejoin:miter;stroke-miterlimit:10;stroke-dasharray:none;stroke-opacity:1"
         d="m 3198.96,319.563 v -56.692 l -71.4,28.348 z" /><path
         id="path78"
         style="fill:none;stroke:#000000;stroke-width:15.9404;stroke-linecap:butt;stroke-linejoin:miter;stroke-miterlimit:10;stroke-dasharray:none;stroke-opacity:1"
         d="m 3198.96,291.219 h -79.37" /><path
         id="path80"
         style="fill:#0000ff;fill-opacity:1;fill-rule:nonzero;stroke:none"
         d="m 3131.88,133.688 c 0,0.875 -0.69,1.562 -1.74,1.562 -1.55,0 -1.72,-0.516 -2.58,-3.453 -4.5,-15.719 -11.58,-21.063 -17.28,-21.063 -2.06,0 -4.48,0.516 -4.48,5.688 0,4.672 2.08,9.844 3.97,15.031 l 12.09,32.125 c 0.52,1.375 1.72,4.485 1.72,7.766 0,7.25 -5.17,13.812 -13.64,13.812 -15.89,0 -22.28,-25.031 -22.28,-26.422 0,-0.687 0.7,-1.546 1.9,-1.546 1.55,0 1.74,0.687 2.42,3.109 4.15,14.5 10.71,21.406 17.44,21.406 1.55,0 4.49,-0.172 4.49,-5.703 0,-4.484 -2.24,-10.187 -3.63,-13.984 l -12.08,-32.125 c -1.04,-2.75 -2.07,-5.516 -2.07,-8.625 0,-7.782 5.35,-14 13.64,-14 15.89,0 22.11,25.218 22.11,26.422 z m -1.4,83.078 c 0,2.578 -2.06,5.687 -5.85,5.687 -3.99,0 -8.47,-3.797 -8.47,-8.281 0,-4.313 3.62,-5.703 5.7,-5.703 4.66,0 8.62,4.5 8.62,8.297" /><path
         id="path82"
         style="fill:#0000ff;fill-opacity:1;fill-rule:nonzero;stroke:none"
         d="m 3183.88,156.313 c 1.06,4.406 1.54,4.64 6.18,4.64 h 8.6 c 10.25,0 17.87,-3.094 17.87,-12.39 0,-6.079 -3.09,-23.61 -27.06,-23.61 H 3176 Z m 16.56,-32.782 c 14.78,3.219 26.34,12.75 26.34,23 0,9.297 -9.42,17.891 -25.98,17.891 h -32.32 c -2.37,0 -3.45,0 -3.45,-2.266 0,-1.203 0.85,-1.203 3.1,-1.203 7.15,0 7.15,-0.953 7.15,-2.265 0,-0.235 0,-0.954 -0.47,-2.735 l -16.09,-64.1249 c -1.08,-4.1718 -1.31,-5.375 -9.55,-5.375 -2.73,0 -3.56,0 -3.56,-2.2656 0,-1.1875 1.3,-1.1875 1.66,-1.1875 2.15,0 4.65,0.2344 6.92,0.2344 h 14.06 c 2.14,0 4.66,-0.2344 6.8,-0.2344 0.95,0 2.26,0 2.26,2.2656 0,1.1875 -1.08,1.1875 -2.86,1.1875 -7.28,0 -7.28,0.9532 -7.28,2.1563 0,0.1094 0,0.9531 0.25,1.9062 l 7.99,32.0624 h 14.29 c 11.33,0 13.47,-7.156 13.47,-11.094 0,-1.781 -1.19,-6.437 -2.01,-9.531 -1.32,-5.4842 -1.68,-6.7967 -1.68,-9.0624 0,-8.4531 6.91,-12.3906 14.91,-12.3906 9.66,0 13.83,11.7969 13.83,13.4688 0,0.8281 -0.61,1.1875 -1.31,1.1875 -0.96,0 -1.21,-0.7188 -1.44,-1.6719 -2.86,-8.4531 -7.75,-10.6094 -10.74,-10.6094 -2.96,0 -4.87,1.3125 -4.87,6.6875 0,2.8594 1.42,13.7035 1.55,14.2965 0.59,4.407 0.59,4.891 0.59,5.844 0,8.703 -7.03,12.391 -11.56,13.828" /><path
         id="path84"
         style="fill:#000000;fill-opacity:1;fill-rule:nonzero;stroke:none"
         d="m 2053.75,1425.09 c 0,15.66 -12.69,28.35 -28.35,28.35 -15.65,0 -28.35,-12.69 -28.35,-28.35 0,-15.66 12.7,-28.35 28.35,-28.35 15.66,0 28.35,12.69 28.35,28.35 z" /><path
         id="path86"
         style="fill:none;stroke:#000000;stroke-width:15.9404;stroke-linecap:butt;stroke-linejoin:miter;stroke-miterlimit:10;stroke-dasharray:none;stroke-opacity:1"
         d="m 2053.75,1425.09 c 0,15.66 -12.69,28.35 -28.35,28.35 -15.65,0 -28.35,-12.69 -28.35,-28.35 0,-15.66 12.7,-28.35 28.35,-28.35 15.66,0 28.35,12.69 28.35,28.35 z" /><path
         id="path88"
         style="fill:none;stroke:#000000;stroke-width:15.9404;stroke-linecap:butt;stroke-linejoin:miter;stroke-miterlimit:10;stroke-dasharray:none;stroke-opacity:1"
         d="m 2762.42,291.219 c 0,93.933 -76.15,170.078 -170.08,170.078 -93.93,0 -170.08,-76.145 -170.08,-170.078 0,-93.934 76.15,-170.082 170.08,-170.082 93.93,0 170.08,76.148 170.08,170.082 z" /><path
         id="path90"
         style="fill:#0000ff;fill-opacity:1;fill-rule:nonzero;stroke:none"
         d="m 2590.78,288.813 c 1.2,1.39 1.2,1.734 1.2,2.25 0,0.687 -0.68,1.718 -0.85,2.078 l -34.02,52.312 h 41.78 c 28.67,0 37.31,-6.203 40.25,-33.672 h 3.11 l -4.16,38.172 h -91.34 c -3.64,0 -3.81,-0.172 -3.81,-3.797 l 39.9,-61.484 -38.51,-49.391 c -1.22,-1.547 -1.22,-1.734 -1.22,-2.078 0,-1.203 1.05,-1.203 3.64,-1.203 h 91.34 l 4.16,39.547 h -3.11 c -2.76,-27.969 -12.61,-33.672 -40.59,-33.672 h -47.66 l 39.89,50.938" /><path
         id="path92"
         style="fill:none;stroke:#000000;stroke-width:15.9404;stroke-linecap:butt;stroke-linejoin:miter;stroke-miterlimit:10;stroke-dasharray:none;stroke-opacity:1"
         d="m 2414.29,291.219 h -916.14 m -79.37,0 h -292.51 v 0 m -469.485,0 H 324.594 v 527.25 m 0,79.371 v 527.25 h 332.191 m 469.485,0 v 0 h 292.51 m 79.37,0 h 494.92" /><path
         id="path94"
         style="fill:none;stroke:#000000;stroke-width:15.9404;stroke-linecap:butt;stroke-linejoin:miter;stroke-miterlimit:10;stroke-dasharray:none;stroke-opacity:1"
         d="m 2057.73,1425.09 h 1061.86 m 79.37,0 h 527.25 V 1092.9 m 0,-469.49 V 291.219 h -527.25 m -79.37,0 h -349.2" /><g
         id="g96"><g
           clip-path="url(#clipPath102)"
           id="g98"><path
             id="path104"
             style="fill:none;stroke:#000000;stroke-width:15.9404;stroke-linecap:butt;stroke-linejoin:miter;stroke-miterlimit:10;stroke-dasharray:none;stroke-opacity:1"
             d="m 2773.76,200.508 h 90.71" /></g></g></g></g></svg>
