<?xml version="1.0" encoding="UTF-8" standalone="no"?>
<svg
   xmlns:dc="http://purl.org/dc/elements/1.1/"
   xmlns:cc="http://creativecommons.org/ns#"
   xmlns:rdf="http://www.w3.org/1999/02/22-rdf-syntax-ns#"
   xmlns:svg="http://www.w3.org/2000/svg"
   xmlns="http://www.w3.org/2000/svg"
   id="svg50"
   version="1.2"
   viewBox="0 0 199.44 174.55"
   height="174.55pt"
   width="199.44pt">
  <metadata
     id="metadata54">
    <rdf:RDF>
      <cc:Work
         rdf:about="">
        <dc:format>image/svg+xml</dc:format>
        <dc:type
           rdf:resource="http://purl.org/dc/dcmitype/StillImage" />
      </cc:Work>
    </rdf:RDF>
  </metadata>
  <defs
     id="defs5">
    <clipPath
       id="clip1">
      <path
         id="path2"
         d="M 6 96 L 194 96 L 194 174.550781 L 6 174.550781 Z M 6 96 " />
    </clipPath>
  </defs>
  <g
     id="surface1">
    <path
       id="path7"
       transform="matrix(0.1,0,0,-0.1,0,174.55)"
       d="M 548.59375 922.335938 L 321.796875 922.335938 M 548.59375 979.054688 L 321.796875 979.054688 "
       style="fill:none;stroke-width:15.9404;stroke-linecap:butt;stroke-linejoin:miter;stroke:rgb(0%,0%,0%);stroke-opacity:1;stroke-miterlimit:10;" />
    <path
       id="path9"
       transform="matrix(0.1,0,0,-0.1,0,174.55)"
       d="M 276.054688 834.015625 L 276.054688 1092.414063 "
       style="fill:none;stroke-width:15.9404;stroke-linecap:butt;stroke-linejoin:miter;stroke:rgb(0%,0%,0%);stroke-opacity:1;stroke-miterlimit:10;" />
    <path
       id="path11"
       d="M 29.523438 88.640625 L 27.605469 93.652344 L 25.6875 88.640625 "
       style=" stroke:none;fill-rule:nonzero;fill:rgb(0%,0%,0%);fill-opacity:1;" />
    <path
       id="path13"
       transform="matrix(0.1,0,0,-0.1,0,174.55)"
       d="M 295.234375 859.09375 L 276.054688 808.976563 L 256.875 859.09375 Z M 295.234375 859.09375 "
       style="fill:none;stroke-width:15.9404;stroke-linecap:butt;stroke-linejoin:round;stroke:rgb(0%,0%,0%);stroke-opacity:1;stroke-miterlimit:10;" />
    <path
       id="path15"
       d="M 21.199219 73.347656 C 21.199219 73.191406 21.078125 73.191406 21.046875 73.191406 C 21.011719 73.191406 20.941406 73.191406 20.804688 73.367188 L 19.609375 74.816406 C 19.007813 73.78125 18.058594 73.191406 16.761719 73.191406 C 13.03125 73.191406 9.164063 76.976563 9.164063 81.03125 C 9.164063 83.917969 11.183594 85.710938 13.703125 85.710938 C 15.085938 85.710938 16.296875 85.125 17.296875 84.28125 C 18.800781 83.019531 19.25 81.34375 19.25 81.203125 C 19.25 81.050781 19.109375 81.050781 19.058594 81.050781 C 18.902344 81.050781 18.886719 81.152344 18.851563 81.222656 C 18.058594 83.917969 15.726563 85.210938 14 85.210938 C 12.167969 85.210938 10.578125 84.039063 10.578125 81.585938 C 10.578125 81.03125 10.75 78.027344 12.703125 75.765625 C 13.652344 74.660156 15.277344 73.695313 16.917969 73.695313 C 18.816406 73.695313 19.664063 75.265625 19.664063 77.027344 C 19.664063 77.476563 19.609375 77.855469 19.609375 77.921875 C 19.609375 78.078125 19.785156 78.078125 19.835938 78.078125 C 20.027344 78.078125 20.042969 78.0625 20.113281 77.75 L 21.199219 73.347656 "
       style=" stroke:none;fill-rule:nonzero;fill:rgb(0%,0%,100%);fill-opacity:1;" />
    <path
       id="path17"
       transform="matrix(0.1,0,0,-0.1,0,174.55)"
       d="M 1512.382813 723.9375 L 1625.78125 723.9375 L 1625.78125 1177.492188 L 1512.382813 1177.492188 Z M 1512.382813 723.9375 "
       style="fill:none;stroke-width:15.9404;stroke-linecap:butt;stroke-linejoin:miter;stroke:rgb(0%,0%,0%);stroke-opacity:1;stroke-miterlimit:10;" />
    <path
       id="path19"
       transform="matrix(0.1,0,0,-0.1,0,174.55)"
       d="M 1671.523438 1092.414063 L 1671.523438 834.015625 "
       style="fill:none;stroke-width:15.9404;stroke-linecap:butt;stroke-linejoin:miter;stroke:rgb(0%,0%,0%);stroke-opacity:1;stroke-miterlimit:10;" />
    <path
       id="path21"
       d="M 169.070313 88.640625 L 167.152344 93.652344 L 165.234375 88.640625 "
       style=" stroke:none;fill-rule:nonzero;fill:rgb(0%,0%,0%);fill-opacity:1;" />
    <path
       id="path23"
       transform="matrix(0.1,0,0,-0.1,0,174.55)"
       d="M 1690.703125 859.09375 L 1671.523438 808.976563 L 1652.34375 859.09375 Z M 1690.703125 859.09375 "
       style="fill:none;stroke-width:15.9404;stroke-linecap:butt;stroke-linejoin:round;stroke:rgb(0%,0%,0%);stroke-opacity:1;stroke-miterlimit:10;" />
    <path
       id="path25"
       d="M 179.554688 74.730469 C 179.710938 74.089844 179.78125 74.054688 180.453125 74.054688 L 181.695313 74.054688 C 183.179688 74.054688 184.289063 74.503906 184.289063 75.851563 C 184.289063 76.734375 183.839844 79.273438 180.367188 79.273438 L 178.414063 79.273438 Z M 181.957031 79.476563 C 184.097656 79.011719 185.773438 77.632813 185.773438 76.144531 C 185.773438 74.796875 184.40625 73.554688 182.007813 73.554688 L 177.328125 73.554688 C 176.980469 73.554688 176.828125 73.554688 176.828125 73.882813 C 176.828125 74.054688 176.945313 74.054688 177.273438 74.054688 C 178.3125 74.054688 178.3125 74.195313 178.3125 74.382813 C 178.3125 74.417969 178.3125 74.523438 178.242188 74.78125 L 175.910156 84.070313 C 175.757813 84.675781 175.722656 84.847656 174.53125 84.847656 C 174.132813 84.847656 174.011719 84.847656 174.011719 85.175781 C 174.011719 85.351563 174.203125 85.351563 174.253906 85.351563 C 174.5625 85.351563 174.925781 85.316406 175.253906 85.316406 L 177.292969 85.316406 C 177.601563 85.316406 177.964844 85.351563 178.277344 85.351563 C 178.414063 85.351563 178.605469 85.351563 178.605469 85.023438 C 178.605469 84.847656 178.449219 84.847656 178.191406 84.847656 C 177.136719 84.847656 177.136719 84.710938 177.136719 84.539063 C 177.136719 84.519531 177.136719 84.398438 177.171875 84.261719 L 178.328125 79.617188 L 180.402344 79.617188 C 182.042969 79.617188 182.351563 80.652344 182.351563 81.222656 C 182.351563 81.480469 182.179688 82.15625 182.058594 82.605469 C 181.867188 83.398438 181.816406 83.589844 181.816406 83.917969 C 181.816406 85.140625 182.820313 85.710938 183.976563 85.710938 C 185.375 85.710938 185.980469 84.003906 185.980469 83.761719 C 185.980469 83.640625 185.894531 83.589844 185.789063 83.589844 C 185.652344 83.589844 185.617188 83.691406 185.582031 83.828125 C 185.167969 85.054688 184.460938 85.367188 184.027344 85.367188 C 183.597656 85.367188 183.320313 85.175781 183.320313 84.398438 C 183.320313 83.984375 183.527344 82.414063 183.542969 82.328125 C 183.632813 81.6875 183.632813 81.621094 183.632813 81.480469 C 183.632813 80.21875 182.613281 79.6875 181.957031 79.476563 "
       style=" stroke:none;fill-rule:nonzero;fill:rgb(0%,0%,100%);fill-opacity:1;" />
    <path
       id="path27"
       transform="matrix(0.1,0,0,-0.1,0,174.55)"
       d="M 1030.507813 383.78125 C 1030.507813 399.40625 1017.8125 412.101563 1002.148438 412.101563 C 986.484375 412.101563 973.789063 399.40625 973.789063 383.78125 C 973.789063 368.117188 986.484375 355.421875 1002.148438 355.421875 C 1017.8125 355.421875 1030.507813 368.117188 1030.507813 383.78125 Z M 1030.507813 383.78125 "
       style="fill-rule:nonzero;fill:rgb(0%,0%,0%);fill-opacity:1;stroke-width:15.9404;stroke-linecap:butt;stroke-linejoin:miter;stroke:rgb(0%,0%,0%);stroke-opacity:1;stroke-miterlimit:10;" />
    <path
       id="path29"
       transform="matrix(0.1,0,0,-0.1,0,174.55)"
       d="M 435.195313 383.78125 L 435.195313 914.367188 M 435.195313 987.023438 L 435.195313 1517.648438 L 1569.0625 1517.648438 L 1569.0625 1185.460938 M 1569.0625 715.96875 L 1569.0625 383.78125 L 1034.453125 383.78125 M 969.804688 383.78125 L 435.195313 383.78125 "
       style="fill:none;stroke-width:15.9404;stroke-linecap:round;stroke-linejoin:miter;stroke:rgb(0%,0%,0%);stroke-opacity:1;stroke-miterlimit:10;" />
    <path
       id="path31"
       transform="matrix(0.1,0,0,-0.1,0,174.55)"
       d="M 1002.148438 351.4375 L 1002.148438 150.773438 "
       style="fill:none;stroke-width:15.9404;stroke-linecap:round;stroke-linejoin:miter;stroke:rgb(0%,0%,0%);stroke-opacity:1;stroke-miterlimit:10;" />
    <path
       id="path33"
       transform="matrix(0.1,0,0,-0.1,0,174.55)"
       d="M 888.75 142.804688 L 1115.546875 142.804688 M 926.5625 100.304688 L 1077.734375 100.304688 M 964.335938 57.765625 L 1039.921875 57.765625 "
       style="fill:none;stroke-width:15.9404;stroke-linecap:round;stroke-linejoin:miter;stroke:rgb(0%,0%,0%);stroke-opacity:1;stroke-miterlimit:10;" />
    <path
       id="path35"
       transform="matrix(0.1,0,0,-0.1,0,174.55)"
       d="M 1710.820313 1517.648438 C 1710.820313 1611.554688 1393.515625 1687.726563 1002.148438 1687.726563 C 610.742188 1687.726563 293.476563 1611.554688 293.476563 1517.648438 C 293.476563 1423.703125 610.742188 1347.53125 1002.148438 1347.53125 C 1393.515625 1347.53125 1710.820313 1423.703125 1710.820313 1517.648438 Z M 1710.820313 1517.648438 "
       style="fill:none;stroke-width:15.9404;stroke-linecap:butt;stroke-linejoin:miter;stroke:rgb(0%,61.131287%,50.976563%);stroke-opacity:1;stroke-miterlimit:10;" />
    <path
       id="path37"
       d="M 181.089844 24.246094 C 181.3125 25.214844 182.140625 25.421875 182.554688 25.421875 C 183.109375 25.421875 183.523438 25.058594 183.800781 24.472656 C 184.09375 23.851563 184.320313 22.832031 184.320313 22.78125 C 184.320313 22.695313 184.246094 22.625 184.144531 22.625 C 183.992188 22.625 183.972656 22.710938 183.902344 22.96875 C 183.59375 24.160156 183.28125 25.078125 182.589844 25.078125 C 182.074219 25.078125 182.074219 24.507813 182.074219 24.28125 C 182.074219 23.886719 182.125 23.710938 182.296875 22.988281 C 182.417969 22.523438 182.539063 22.054688 182.644531 21.570313 L 183.351563 18.757813 C 183.472656 18.324219 183.472656 18.289063 183.472656 18.238281 C 183.472656 17.980469 183.265625 17.804688 183.007813 17.804688 C 182.503906 17.804688 182.382813 18.238281 182.28125 18.671875 C 182.109375 19.34375 181.175781 23.054688 181.054688 23.660156 C 181.039063 23.660156 180.363281 25.078125 179.101563 25.078125 C 178.203125 25.078125 178.03125 24.300781 178.03125 23.660156 C 178.03125 22.675781 178.515625 21.296875 178.964844 20.136719 C 179.171875 19.585938 179.257813 19.359375 179.257813 19.015625 C 179.257813 18.273438 178.722656 17.632813 177.894531 17.632813 C 176.304688 17.632813 175.664063 20.136719 175.664063 20.277344 C 175.664063 20.34375 175.734375 20.429688 175.855469 20.429688 C 176.011719 20.429688 176.03125 20.363281 176.097656 20.121094 C 176.511719 18.636719 177.1875 17.980469 177.84375 17.980469 C 178.015625 17.980469 178.289063 17.996094 178.289063 18.550781 C 178.289063 18.996094 178.101563 19.5 177.84375 20.15625 C 177.082031 22.210938 176.996094 22.867188 176.996094 23.382813 C 176.996094 25.148438 178.324219 25.421875 179.035156 25.421875 C 180.140625 25.421875 180.742188 24.660156 181.089844 24.246094 "
       style=" stroke:none;fill-rule:nonzero;fill:rgb(0%,0%,0%);fill-opacity:1;" />
    <path
       id="path39"
       d="M 188.234375 20.109375 C 188.234375 19.835938 188.234375 19.824219 187.996094 19.824219 C 187.707031 20.144531 187.113281 20.585938 185.882813 20.585938 L 185.882813 20.929688 C 186.160156 20.929688 186.753906 20.929688 187.410156 20.621094 L 187.410156 26.832031 C 187.410156 27.261719 187.375 27.40625 186.328125 27.40625 L 185.957031 27.40625 L 185.957031 27.75 C 186.277344 27.726563 187.433594 27.726563 187.828125 27.726563 C 188.222656 27.726563 189.367188 27.726563 189.6875 27.75 L 189.6875 27.40625 L 189.316406 27.40625 C 188.269531 27.40625 188.234375 27.261719 188.234375 26.832031 L 188.234375 20.109375 "
       style=" stroke:none;fill-rule:nonzero;fill:rgb(0%,0%,0%);fill-opacity:1;" />
    <g
       id="g43"
       clip-rule="nonzero"
       clip-path="url(#clip1)">
      <path
         id="path41"
         transform="matrix(0.1,0,0,-0.1,0,174.55)"
         d="M 1710.820313 383.78125 C 1710.820313 477.6875 1393.515625 553.859375 1002.148438 553.859375 C 610.742188 553.859375 293.476563 477.6875 293.476563 383.78125 C 293.476563 289.835938 610.742188 213.664063 1002.148438 213.664063 C 1393.515625 213.664063 1710.820313 289.835938 1710.820313 383.78125 Z M 1710.820313 383.78125 "
         style="fill:none;stroke-width:15.9404;stroke-linecap:butt;stroke-linejoin:miter;stroke:rgb(85.9375%,2.397156%,31.809998%);stroke-opacity:1;stroke-miterlimit:10;" />
    </g>
    <path
       id="path45"
       d="M 181.089844 137.546875 C 181.3125 138.515625 182.140625 138.722656 182.554688 138.722656 C 183.109375 138.722656 183.523438 138.359375 183.800781 137.773438 C 184.09375 137.152344 184.320313 136.132813 184.320313 136.082031 C 184.320313 135.992188 184.246094 135.925781 184.144531 135.925781 C 183.992188 135.925781 183.972656 136.011719 183.902344 136.269531 C 183.59375 137.460938 183.28125 138.375 182.589844 138.375 C 182.074219 138.375 182.074219 137.808594 182.074219 137.582031 C 182.074219 137.1875 182.125 137.011719 182.296875 136.289063 C 182.417969 135.820313 182.539063 135.355469 182.644531 134.871094 L 183.351563 132.054688 C 183.472656 131.625 183.472656 131.589844 183.472656 131.539063 C 183.472656 131.28125 183.265625 131.105469 183.007813 131.105469 C 182.503906 131.105469 182.382813 131.539063 182.28125 131.96875 C 182.109375 132.644531 181.175781 136.355469 181.054688 136.960938 C 181.039063 136.960938 180.363281 138.375 179.101563 138.375 C 178.203125 138.375 178.03125 137.601563 178.03125 136.960938 C 178.03125 135.976563 178.515625 134.59375 178.964844 133.4375 C 179.171875 132.886719 179.257813 132.660156 179.257813 132.316406 C 179.257813 131.574219 178.722656 130.933594 177.894531 130.933594 C 176.304688 130.933594 175.664063 133.4375 175.664063 133.578125 C 175.664063 133.644531 175.734375 133.730469 175.855469 133.730469 C 176.011719 133.730469 176.03125 133.664063 176.097656 133.421875 C 176.511719 131.9375 177.1875 131.28125 177.84375 131.28125 C 178.015625 131.28125 178.289063 131.296875 178.289063 131.851563 C 178.289063 132.296875 178.101563 132.800781 177.84375 133.457031 C 177.082031 135.511719 176.996094 136.167969 176.996094 136.683594 C 176.996094 138.445313 178.324219 138.722656 179.035156 138.722656 C 180.140625 138.722656 180.742188 137.960938 181.089844 137.546875 "
       style=" stroke:none;fill-rule:nonzero;fill:rgb(0%,0%,0%);fill-opacity:1;" />
    <path
       id="path47"
       d="M 190.140625 137.335938 C 190.140625 136.34375 190.082031 135.382813 189.652344 134.476563 C 189.164063 133.484375 188.304688 133.222656 187.71875 133.222656 C 187.03125 133.222656 186.183594 133.570313 185.742188 134.558594 C 185.40625 135.308594 185.289063 136.046875 185.289063 137.335938 C 185.289063 138.492188 185.371094 139.363281 185.800781 140.207031 C 186.265625 141.113281 187.089844 141.398438 187.707031 141.398438 C 188.746094 141.398438 189.34375 140.78125 189.6875 140.089844 C 190.117188 139.195313 190.140625 138.027344 190.140625 137.335938 Z M 187.707031 141.164063 C 187.328125 141.164063 186.550781 140.945313 186.328125 139.648438 C 186.195313 138.933594 186.195313 138.027344 186.195313 137.191406 C 186.195313 136.214844 186.195313 135.332031 186.386719 134.628906 C 186.589844 133.832031 187.195313 133.460938 187.707031 133.460938 C 188.160156 133.460938 188.851563 133.734375 189.078125 134.761719 C 189.234375 135.441406 189.234375 136.382813 189.234375 137.191406 C 189.234375 137.992188 189.234375 138.898438 189.101563 139.625 C 188.878906 140.9375 188.128906 141.164063 187.707031 141.164063 "
       style=" stroke:none;fill-rule:nonzero;fill:rgb(0%,0%,0%);fill-opacity:1;" />
  </g>
</svg>
