<?xml version="1.0" encoding="UTF-8" standalone="no"?>
<svg
   xmlns:dc="http://purl.org/dc/elements/1.1/"
   xmlns:cc="http://creativecommons.org/ns#"
   xmlns:rdf="http://www.w3.org/1999/02/22-rdf-syntax-ns#"
   xmlns:svg="http://www.w3.org/2000/svg"
   xmlns="http://www.w3.org/2000/svg"
   viewBox="0 0 353.44 202.25333"
   height="202.25333"
   width="353.44"
   xml:space="preserve"
   id="svg2"
   version="1.1"><metadata
     id="metadata8"><rdf:RDF><cc:Work
         rdf:about=""><dc:format>image/svg+xml</dc:format><dc:type
           rdf:resource="http://purl.org/dc/dcmitype/StillImage" /></cc:Work></rdf:RDF></metadata><defs
     id="defs6" /><g
     transform="matrix(1.3333333,0,0,-1.3333333,0,202.25333)"
     id="g10"><g
       transform="scale(0.1)"
       id="g12"><path
         id="path14"
         style="fill:none;stroke:#000000;stroke-width:9.9628;stroke-linecap:butt;stroke-linejoin:miter;stroke-miterlimit:10;stroke-dasharray:none;stroke-opacity:1"
         d="M 49.8086,404.148 H 2572.05" /><path
         id="path16"
         style="fill:#000000;fill-opacity:1;fill-rule:nonzero;stroke:none"
         d="m 2600.95,404.148 -46.23,23.118 17.33,-23.118 -17.33,-23.113" /><path
         id="path18"
         style="fill:none;stroke:#000000;stroke-width:9.9628;stroke-linecap:butt;stroke-linejoin:miter;stroke-miterlimit:10;stroke-dasharray:none;stroke-opacity:1"
         d="M 1325.38,49.8164 V 1438.27" /><path
         id="path20"
         style="fill:#000000;fill-opacity:1;fill-rule:nonzero;stroke:none"
         d="m 1325.38,1467.16 -23.11,-46.23 23.11,17.34 23.11,-17.34" /><path
         id="path22"
         style="fill:none;stroke:#009c82;stroke-width:17.9329;stroke-linecap:butt;stroke-linejoin:round;stroke-miterlimit:10;stroke-dasharray:none;stroke-opacity:1"
         d="M 49.8086,404.148 368.703,935.652 687.594,1112.82 V 404.148 l 318.886,531.504 318.9,177.168 V 404.148 l 318.89,531.504 318.89,177.168 V 404.148 l 318.89,531.504 318.9,177.168 V 404.148" /><path
         id="path24"
         style="fill:none;stroke:#808080;stroke-width:1.9925;stroke-linecap:butt;stroke-linejoin:miter;stroke-miterlimit:10;stroke-dasharray:none;stroke-opacity:1"
         d="m 1963.16,1112.82 v 212.6" /><path
         id="path26"
         style="fill:none;stroke:#808080;stroke-width:1.9925;stroke-linecap:butt;stroke-linejoin:miter;stroke-miterlimit:10;stroke-dasharray:none;stroke-opacity:1"
         d="m 2600.95,1112.82 v 212.6" /><path
         id="path28"
         style="fill:#000000;fill-opacity:1;fill-rule:nonzero;stroke:none"
         d="m 2293.02,1318.34 c 1.03,4.14 1.37,5.71 3.96,6.39 1.38,0.35 7.08,0.35 10.71,0.35 17.28,0 25.39,-0.69 25.39,-14.16 0,-2.59 -0.69,-9.15 -1.74,-15.54 l -0.17,-2.08 c 0,-0.69 0.71,-1.72 1.74,-1.72 1.72,0 1.72,0.86 2.25,3.62 l 5,30.57 c 0.34,1.56 0.34,1.9 0.34,2.42 0,1.9 -1.03,1.9 -4.48,1.9 h -94.47 c -3.97,0 -4.14,-0.18 -5.17,-3.28 l -10.55,-31.09 c -0.17,-0.34 -0.69,-2.25 -0.69,-2.42 0,-0.86 0.69,-1.72 1.74,-1.72 1.37,0 1.71,0.69 2.42,2.94 7.25,20.89 10.87,30.56 33.84,30.56 h 11.56 c 4.16,0 5.88,0 5.88,-1.91 0,-0.51 0,-0.86 -0.86,-3.97 l -23.14,-92.73 c -1.74,-6.74 -2.08,-8.45 -20.38,-8.45 -4.32,0 -5.53,0 -5.53,-3.29 0,-1.73 1.91,-1.73 2.77,-1.73 4.31,0 8.79,0.34 13.12,0.34 h 26.94 c 4.31,0 8.98,-0.34 13.3,-0.34 1.9,0 3.62,0 3.62,3.28 0,1.74 -1.2,1.74 -5.7,1.74 -15.53,0 -15.53,1.54 -15.53,4.14 0,0.17 0,1.37 0.69,4.14 l 23.14,92.04" /><path
         id="path30"
         style="fill:none;stroke:#000000;stroke-width:9.9628;stroke-linecap:butt;stroke-linejoin:miter;stroke-miterlimit:10;stroke-dasharray:none;stroke-opacity:1"
         d="M 2009.5,1272.27 H 2206" /><path
         id="path32"
         style="fill:#000000;fill-opacity:1;fill-rule:nonzero;stroke:none"
         d="m 1977.35,1272.27 44.44,-16.83 -14.78,16.83 14.78,16.83 z" /><path
         id="path34"
         style="fill:none;stroke:#000000;stroke-width:9.9628;stroke-linecap:butt;stroke-linejoin:miter;stroke-miterlimit:10;stroke-dasharray:none;stroke-opacity:1"
         d="m 1977.35,1272.27 44.44,-16.83 -14.78,16.83 14.78,16.83 z" /><path
         id="path36"
         style="fill:none;stroke:#000000;stroke-width:9.9628;stroke-linecap:butt;stroke-linejoin:miter;stroke-miterlimit:10;stroke-dasharray:none;stroke-opacity:1"
         d="M 2554.61,1272.27 H 2358.1" /><path
         id="path38"
         style="fill:#000000;fill-opacity:1;fill-rule:nonzero;stroke:none"
         d="m 2586.76,1272.27 -44.45,16.83 14.79,-16.83 -14.79,-16.83 z" /><path
         id="path40"
         style="fill:none;stroke:#000000;stroke-width:9.9628;stroke-linecap:butt;stroke-linejoin:miter;stroke-miterlimit:10;stroke-dasharray:none;stroke-opacity:1"
         d="m 2586.76,1272.27 -44.45,16.83 14.79,-16.83 -14.79,-16.83 z" /><path
         id="path42"
         style="fill:#000000;fill-opacity:1;fill-rule:nonzero;stroke:none"
         d="m 2511.72,536.422 h 15.87 c 3.29,0 5.02,0 5.02,3.109 0,1.907 -1.03,1.907 -4.48,1.907 h -15.21 l 6.39,25.203 c 0.69,2.422 0.69,2.765 0.69,3.968 0,2.766 -2.25,4.329 -4.48,4.329 -1.39,0 -5.36,-0.516 -6.74,-6.047 l -6.73,-27.453 h -16.24 c -3.45,0 -5.01,0 -5.01,-3.282 0,-1.734 1.22,-1.734 4.5,-1.734 h 15.36 l -11.39,-45.594 c -1.39,-6.047 -1.91,-7.765 -1.91,-10.015 0,-8.11 5.7,-15.547 15.37,-15.547 17.44,0 26.77,25.218 26.77,26.422 0,1.046 -0.69,1.562 -1.73,1.562 -0.35,0 -1.04,0 -1.38,-0.687 -0.17,-0.172 -0.34,-0.344 -1.55,-3.11 -3.64,-8.64 -11.57,-20.719 -21.59,-20.719 -5.19,0 -5.53,4.313 -5.53,8.11 0,0.172 0,3.453 0.51,5.531 l 13.49,54.047" /></g></g></svg>
