<?xml version="1.0" encoding="UTF-8" standalone="no"?>
<svg
   xmlns:dc="http://purl.org/dc/elements/1.1/"
   xmlns:cc="http://creativecommons.org/ns#"
   xmlns:rdf="http://www.w3.org/1999/02/22-rdf-syntax-ns#"
   xmlns:svg="http://www.w3.org/2000/svg"
   xmlns="http://www.w3.org/2000/svg"
   viewBox="0 0 353.44 277.85333"
   height="277.85333"
   width="353.44"
   xml:space="preserve"
   id="svg2"
   version="1.1"><metadata
     id="metadata8"><rdf:RDF><cc:Work
         rdf:about=""><dc:format>image/svg+xml</dc:format><dc:type
           rdf:resource="http://purl.org/dc/dcmitype/StillImage" /></cc:Work></rdf:RDF></metadata><defs
     id="defs6" /><g
     transform="matrix(1.3333333,0,0,-1.3333333,0,277.85333)"
     id="g10"><g
       transform="scale(0.1)"
       id="g12"><path
         id="path14"
         style="fill:none;stroke:#808080;stroke-width:1.9925;stroke-linecap:butt;stroke-linejoin:miter;stroke-miterlimit:10;stroke-dasharray:none;stroke-opacity:1"
         d="m 453.75,545.879 h 42.52 m -42.52,661.411 h 42.52 m -42.52,330.7 h 42.52" /><path
         id="path16"
         style="fill:none;stroke:#000000;stroke-width:9.9628;stroke-linecap:butt;stroke-linejoin:miter;stroke-miterlimit:10;stroke-dasharray:none;stroke-opacity:1"
         d="M 49.8086,876.582 H 2572.11" /><path
         id="path18"
         style="fill:#000000;fill-opacity:1;fill-rule:nonzero;stroke:none"
         d="m 2601.01,876.582 -46.23,23.113 17.33,-23.113 -17.33,-23.113" /><path
         id="path20"
         style="fill:none;stroke:#000000;stroke-width:9.9628;stroke-linecap:butt;stroke-linejoin:miter;stroke-miterlimit:10;stroke-dasharray:none;stroke-opacity:1"
         d="M 475.008,49.8242 V 2005.16" /><path
         id="path22"
         style="fill:#000000;fill-opacity:1;fill-rule:nonzero;stroke:none"
         d="m 475.008,2034.05 -23.113,-46.23 23.113,17.34 23.113,-17.34" /><path
         id="path24"
         style="fill:#000000;fill-opacity:1;fill-rule:nonzero;stroke:none"
         d="m 291.813,537.719 c 2.921,0 6.031,0 6.031,3.453 0,3.453 -3.11,3.453 -6.031,3.453 h -93.438 c -2.937,0 -6.047,0 -6.047,-3.453 0,-3.453 3.11,-3.453 6.047,-3.453 h 93.438" /><path
         id="path26"
         style="fill:#000000;fill-opacity:1;fill-rule:nonzero;stroke:none"
         d="m 357.938,608.344 c 0,3.64 -0.172,3.812 -2.594,3.812 -6.735,-8.125 -16.922,-10.718 -26.594,-11.062 -0.516,0 -1.375,0 -1.547,-0.344 -0.172,-0.344 -0.172,-0.687 -0.172,-4.312 5.344,0 14.328,1.031 21.235,5.171 v -91 c 0,-6.046 -0.344,-8.125 -15.203,-8.125 h -5.172 V 498 c 8.281,0.172 16.922,0.344 25.203,0.344 8.297,0 16.937,-0.172 25.219,-0.344 v 4.484 h -5.172 c -14.86,0 -15.203,1.907 -15.203,8.125 v 97.735" /><path
         id="path28"
         style="fill:#000000;fill-opacity:1;fill-rule:nonzero;stroke:none"
         d="m 357.938,1262.34 c 0,3.64 -0.172,3.82 -2.594,3.82 -6.735,-8.13 -16.922,-10.72 -26.594,-11.07 -0.516,0 -1.375,0 -1.547,-0.34 -0.172,-0.34 -0.172,-0.69 -0.172,-4.31 5.344,0 14.328,1.03 21.235,5.17 v -91 c 0,-6.05 -0.344,-8.13 -15.203,-8.13 h -5.172 V 1152 c 8.281,0.17 16.922,0.34 25.203,0.34 8.297,0 16.937,-0.17 25.219,-0.34 v 4.48 h -5.172 c -14.86,0 -15.203,1.91 -15.203,8.13 v 97.73" /><path
         id="path30"
         style="fill:#000000;fill-opacity:1;fill-rule:nonzero;stroke:none"
         d="m 384.016,1509.77 h -3.11 c -1.734,-12.27 -3.109,-14.33 -3.797,-15.38 -0.875,-1.37 -13.296,-1.37 -15.718,-1.37 h -33.157 c 6.219,6.73 18.297,19 32.985,33.15 10.531,10.02 22.797,21.77 22.797,38.86 0,20.38 -16.235,32.13 -34.375,32.13 -18.985,0 -30.563,-16.75 -30.563,-32.3 0,-6.73 5.016,-7.59 7.078,-7.59 1.735,0 6.907,1.03 6.907,7.07 0,5.35 -4.485,6.91 -6.907,6.91 -1.031,0 -2.062,-0.17 -2.765,-0.52 3.281,14.68 13.297,21.93 23.843,21.93 15.016,0 24.86,-11.91 24.86,-27.63 0,-15.03 -8.797,-27.98 -18.641,-39.2 l -34.375,-38.86 V 1483 h 60.797 l 4.141,26.77" /><path
         id="path32"
         style="fill:none;stroke:#009c82;stroke-width:19.9255;stroke-linecap:butt;stroke-linejoin:round;stroke-miterlimit:10;stroke-dasharray:none;stroke-opacity:1"
         d="M 475.008,876.582 V 1092.71" /><path
         id="path34"
         style="fill:#009c82;fill-opacity:1;fill-rule:nonzero;stroke:none"
         d="m 475.008,1181.16 -36.942,-83.46 h 73.887" /><path
         id="path36"
         style="fill:none;stroke:#009c82;stroke-width:19.9255;stroke-linecap:butt;stroke-linejoin:miter;stroke-miterlimit:10;stroke-dasharray:none;stroke-opacity:1"
         d="m 475.008,1181.16 -36.942,-83.46 h 73.887 z" /><path
         id="path38"
         style="fill:#000000;fill-opacity:1;fill-rule:nonzero;stroke:none"
         d="m 582.906,1239.3 c -22.109,-5.36 -38,-28.33 -38,-48.53 0,-18.47 12.438,-28.85 26.25,-28.85 20.375,0 34.188,27.99 34.188,50.96 0,15.54 -7.25,25.03 -11.563,30.73 -6.39,8.12 -16.75,21.42 -16.75,29.7 0,2.94 2.25,8.13 9.844,8.13 5.344,0 8.625,-1.91 13.813,-4.85 1.546,-1.03 5.531,-3.28 7.765,-3.28 3.625,0 6.219,3.63 6.219,6.39 0,3.28 -2.594,3.8 -8.625,5.19 -8.125,1.72 -10.547,1.72 -13.469,1.72 -2.937,0 -19.859,0 -19.859,-17.61 0,-8.47 4.312,-18.31 10.187,-29.7 z m 1.891,-3.28 c 6.562,-13.64 9.156,-18.83 9.156,-30.05 0,-13.47 -7.25,-40.59 -22.625,-40.59 -6.734,0 -16.406,4.5 -16.406,20.56 0,11.22 6.391,43.86 29.875,50.08" /><path
         id="path40"
         style="fill:#000000;fill-opacity:1;fill-rule:nonzero;stroke:none"
         d="m 671.844,1121.86 c 0,0.17 0,0.52 -0.516,1.05 -7.953,8.11 -29.187,30.22 -29.187,84.09 0,53.88 20.89,75.81 29.359,84.45 0,0.18 0.344,0.52 0.344,1.03 0,0.52 -0.516,0.86 -1.203,0.86 -1.907,0 -16.578,-12.78 -25.047,-31.76 -8.641,-19.17 -11.047,-37.83 -11.047,-54.41 0,-12.44 1.203,-33.5 11.562,-55.78 8.297,-17.95 22.454,-30.56 24.532,-30.56 0.859,0 1.203,0.34 1.203,1.03" /><path
         id="path42"
         style="fill:#000000;fill-opacity:1;fill-rule:nonzero;stroke:none"
         d="m 714.719,1233.42 h 15.875 c 3.281,0 5.015,0 5.015,3.11 0,1.91 -1.031,1.91 -4.484,1.91 h -15.203 l 6.391,25.2 c 0.687,2.42 0.687,2.77 0.687,3.97 0,2.77 -2.25,4.33 -4.484,4.33 -1.391,0 -5.36,-0.52 -6.735,-6.05 l -6.734,-27.45 h -16.234 c -3.454,0 -5.016,0 -5.016,-3.28 0,-1.74 1.219,-1.74 4.5,-1.74 h 15.359 l -11.39,-45.59 c -1.391,-6.05 -1.907,-7.77 -1.907,-10.02 0,-8.11 5.704,-15.54 15.375,-15.54 17.438,0 26.766,25.21 26.766,26.42 0,1.04 -0.687,1.56 -1.734,1.56 -0.344,0 -1.032,0 -1.375,-0.69 -0.172,-0.17 -0.344,-0.34 -1.547,-3.11 -3.641,-8.64 -11.578,-20.72 -21.594,-20.72 -5.187,0 -5.531,4.32 -5.531,8.11 0,0.18 0,3.46 0.515,5.54 l 13.485,54.04" /><path
         id="path44"
         style="fill:#000000;fill-opacity:1;fill-rule:nonzero;stroke:none"
         d="m 786.422,1207 c 0,12.44 -1.219,33.5 -11.578,55.78 -8.281,17.95 -22.453,30.56 -24.516,30.56 -0.515,0 -1.219,-0.17 -1.219,-1.03 0,-0.34 0.188,-0.51 0.36,-0.86 8.281,-8.64 29.344,-30.57 29.344,-84.28 0,-53.87 -20.891,-75.81 -29.344,-84.45 -0.172,-0.34 -0.36,-0.52 -0.36,-0.86 0,-0.86 0.704,-1.03 1.219,-1.03 1.891,0 16.578,12.78 25.031,31.78 8.641,19.16 11.063,37.81 11.063,54.39" /><path
         id="path46"
         style="fill:none;stroke:#009c82;stroke-width:19.9255;stroke-linecap:butt;stroke-linejoin:round;stroke-miterlimit:10;stroke-dasharray:none;stroke-opacity:1"
         d="M 1325.41,876.582 V 1092.71" /><path
         id="path48"
         style="fill:#009c82;fill-opacity:1;fill-rule:nonzero;stroke:none"
         d="m 1325.41,1181.16 -36.95,-83.46 h 73.89" /><path
         id="path50"
         style="fill:none;stroke:#009c82;stroke-width:19.9255;stroke-linecap:butt;stroke-linejoin:miter;stroke-miterlimit:10;stroke-dasharray:none;stroke-opacity:1"
         d="m 1325.41,1181.16 -36.95,-83.46 h 73.89 z" /><path
         id="path52"
         style="fill:#000000;fill-opacity:1;fill-rule:nonzero;stroke:none"
         d="m 1093.91,1388.3 c -22.11,-5.36 -38,-28.33 -38,-48.53 0,-18.47 12.43,-28.85 26.25,-28.85 20.37,0 34.18,27.99 34.18,50.96 0,15.54 -7.25,25.03 -11.56,30.73 -6.39,8.12 -16.75,21.42 -16.75,29.7 0,2.94 2.25,8.13 9.85,8.13 5.34,0 8.62,-1.91 13.81,-4.85 1.54,-1.03 5.53,-3.28 7.76,-3.28 3.63,0 6.22,3.63 6.22,6.39 0,3.28 -2.59,3.8 -8.62,5.19 -8.13,1.72 -10.55,1.72 -13.47,1.72 -2.94,0 -19.86,0 -19.86,-17.61 0,-8.47 4.31,-18.31 10.19,-29.7 z m 1.89,-3.28 c 6.56,-13.64 9.15,-18.83 9.15,-30.05 0,-13.47 -7.25,-40.59 -22.62,-40.59 -6.74,0 -16.41,4.5 -16.41,20.56 0,11.22 6.39,43.86 29.88,50.08" /><path
         id="path54"
         style="fill:#000000;fill-opacity:1;fill-rule:nonzero;stroke:none"
         d="m 1182.84,1270.86 c 0,0.17 0,0.52 -0.51,1.05 -7.95,8.11 -29.19,30.22 -29.19,84.09 0,53.88 20.89,75.81 29.36,84.45 0,0.18 0.34,0.52 0.34,1.03 0,0.52 -0.51,0.86 -1.2,0.86 -1.91,0 -16.58,-12.78 -25.05,-31.76 -8.64,-19.17 -11.04,-37.83 -11.04,-54.41 0,-12.44 1.2,-33.5 11.56,-55.78 8.3,-17.95 22.45,-30.56 24.53,-30.56 0.86,0 1.2,0.34 1.2,1.03" /><path
         id="path56"
         style="fill:#000000;fill-opacity:1;fill-rule:nonzero;stroke:none"
         d="m 1225.72,1382.42 h 15.87 c 3.29,0 5.02,0 5.02,3.11 0,1.91 -1.03,1.91 -4.48,1.91 h -15.21 l 6.39,25.2 c 0.69,2.42 0.69,2.77 0.69,3.97 0,2.77 -2.25,4.33 -4.48,4.33 -1.39,0 -5.36,-0.52 -6.74,-6.05 l -6.73,-27.45 h -16.24 c -3.45,0 -5.01,0 -5.01,-3.28 0,-1.74 1.22,-1.74 4.5,-1.74 h 15.36 l -11.39,-45.59 c -1.39,-6.05 -1.91,-7.77 -1.91,-10.02 0,-8.11 5.7,-15.54 15.37,-15.54 17.44,0 26.77,25.21 26.77,26.42 0,1.04 -0.69,1.56 -1.73,1.56 -0.35,0 -1.04,0 -1.38,-0.69 -0.17,-0.17 -0.34,-0.34 -1.55,-3.11 -3.64,-8.64 -11.57,-20.72 -21.59,-20.72 -5.19,0 -5.53,4.32 -5.53,8.11 0,0.18 0,3.46 0.51,5.54 l 13.49,54.04" /><path
         id="path58"
         style="fill:#000000;fill-opacity:1;fill-rule:nonzero;stroke:none"
         d="m 1403.81,1352.72 c 2.92,0 6.03,0 6.03,3.45 0,3.46 -3.11,3.46 -6.03,3.46 h -93.43 c -2.94,0 -6.05,0 -6.05,-3.46 0,-3.45 3.11,-3.45 6.05,-3.45 h 93.43" /><path
         id="path60"
         style="fill:#000000;fill-opacity:1;fill-rule:nonzero;stroke:none"
         d="m 1534.02,1339.77 h -3.11 c -1.74,-12.27 -3.11,-14.33 -3.8,-15.38 -0.88,-1.37 -13.3,-1.37 -15.72,-1.37 h -33.16 c 6.22,6.73 18.3,19 32.99,33.15 10.53,10.02 22.8,21.77 22.8,38.86 0,20.38 -16.24,32.13 -34.38,32.13 -18.98,0 -30.56,-16.75 -30.56,-32.3 0,-6.73 5.01,-7.59 7.08,-7.59 1.73,0 6.9,1.03 6.9,7.07 0,5.35 -4.48,6.91 -6.9,6.91 -1.03,0 -2.07,-0.17 -2.77,-0.52 3.28,14.68 13.3,21.93 23.84,21.93 15.02,0 24.86,-11.91 24.86,-27.63 0,-15.03 -8.79,-27.98 -18.64,-39.2 l -34.37,-38.86 V 1313 h 60.8 l 4.14,26.77" /><path
         id="path62"
         style="fill:#000000;fill-opacity:1;fill-rule:nonzero;stroke:none"
         d="m 1586.42,1356 c 0,12.44 -1.22,33.5 -11.58,55.78 -8.28,17.95 -22.45,30.56 -24.51,30.56 -0.52,0 -1.22,-0.17 -1.22,-1.03 0,-0.34 0.19,-0.51 0.36,-0.86 8.28,-8.64 29.34,-30.57 29.34,-84.28 0,-53.87 -20.89,-75.81 -29.34,-84.45 -0.17,-0.34 -0.36,-0.52 -0.36,-0.86 0,-0.86 0.7,-1.03 1.22,-1.03 1.89,0 16.58,12.78 25.03,31.78 8.64,19.16 11.06,37.81 11.06,54.39" /><path
         id="path64"
         style="fill:none;stroke:#009c82;stroke-width:19.9255;stroke-linecap:butt;stroke-linejoin:round;stroke-miterlimit:10;stroke-dasharray:none;stroke-opacity:1"
         d="M 1750.61,876.582 V 1423.42" /><path
         id="path66"
         style="fill:#009c82;fill-opacity:1;fill-rule:nonzero;stroke:none"
         d="m 1750.61,1511.87 -36.95,-83.47 h 73.89" /><path
         id="path68"
         style="fill:none;stroke:#009c82;stroke-width:19.9255;stroke-linecap:butt;stroke-linejoin:miter;stroke-miterlimit:10;stroke-dasharray:none;stroke-opacity:1"
         d="m 1750.61,1511.87 -36.95,-83.47 h 73.89 z" /><path
         id="path70"
         style="fill:#000000;fill-opacity:1;fill-rule:nonzero;stroke:none"
         d="m 1506.02,1670.77 h -3.11 c -1.74,-12.27 -3.11,-14.33 -3.8,-15.38 -0.88,-1.37 -13.3,-1.37 -15.72,-1.37 h -33.16 c 6.22,6.73 18.3,19 32.99,33.15 10.53,10.02 22.8,21.77 22.8,38.86 0,20.38 -16.24,32.13 -34.38,32.13 -18.98,0 -30.56,-16.75 -30.56,-32.3 0,-6.73 5.01,-7.59 7.08,-7.59 1.73,0 6.9,1.03 6.9,7.07 0,5.35 -4.48,6.91 -6.9,6.91 -1.03,0 -2.07,-0.17 -2.77,-0.52 3.28,14.68 13.3,21.93 23.84,21.93 15.02,0 24.86,-11.91 24.86,-27.63 0,-15.03 -8.79,-27.98 -18.64,-39.2 l -34.37,-38.86 V 1644 h 60.8 l 4.14,26.77" /><path
         id="path72"
         style="fill:#000000;fill-opacity:1;fill-rule:nonzero;stroke:none"
         d="m 1557.91,1719.3 c -22.11,-5.36 -38,-28.33 -38,-48.53 0,-18.47 12.43,-28.85 26.25,-28.85 20.37,0 34.18,27.99 34.18,50.96 0,15.54 -7.25,25.03 -11.56,30.73 -6.39,8.12 -16.75,21.42 -16.75,29.7 0,2.94 2.25,8.13 9.85,8.13 5.34,0 8.62,-1.91 13.81,-4.85 1.54,-1.03 5.53,-3.28 7.76,-3.28 3.63,0 6.22,3.63 6.22,6.39 0,3.28 -2.59,3.8 -8.62,5.19 -8.13,1.72 -10.55,1.72 -13.47,1.72 -2.94,0 -19.86,0 -19.86,-17.61 0,-8.47 4.31,-18.31 10.19,-29.7 z m 1.89,-3.28 c 6.56,-13.64 9.15,-18.83 9.15,-30.05 0,-13.47 -7.25,-40.59 -22.62,-40.59 -6.74,0 -16.41,4.5 -16.41,20.56 0,11.22 6.39,43.86 29.88,50.08" /><path
         id="path74"
         style="fill:#000000;fill-opacity:1;fill-rule:nonzero;stroke:none"
         d="m 1647.84,1601.86 c 0,0.17 0,0.52 -0.51,1.05 -7.95,8.11 -29.19,30.22 -29.19,84.09 0,53.88 20.89,75.81 29.36,84.45 0,0.18 0.34,0.52 0.34,1.03 0,0.52 -0.51,0.86 -1.2,0.86 -1.91,0 -16.58,-12.78 -25.05,-31.76 -8.64,-19.17 -11.04,-37.83 -11.04,-54.41 0,-12.44 1.2,-33.5 11.56,-55.78 8.3,-17.95 22.45,-30.56 24.53,-30.56 0.86,0 1.2,0.34 1.2,1.03" /><path
         id="path76"
         style="fill:#000000;fill-opacity:1;fill-rule:nonzero;stroke:none"
         d="m 1690.72,1713.42 h 15.87 c 3.29,0 5.02,0 5.02,3.11 0,1.91 -1.03,1.91 -4.48,1.91 h -15.21 l 6.39,25.2 c 0.69,2.42 0.69,2.77 0.69,3.97 0,2.77 -2.25,4.33 -4.48,4.33 -1.39,0 -5.36,-0.52 -6.74,-6.05 l -6.73,-27.45 h -16.24 c -3.45,0 -5.01,0 -5.01,-3.28 0,-1.74 1.22,-1.74 4.5,-1.74 h 15.36 l -11.39,-45.59 c -1.39,-6.05 -1.91,-7.77 -1.91,-10.02 0,-8.11 5.7,-15.54 15.37,-15.54 17.44,0 26.77,25.21 26.77,26.42 0,1.04 -0.69,1.56 -1.73,1.56 -0.35,0 -1.04,0 -1.38,-0.69 -0.17,-0.17 -0.34,-0.34 -1.55,-3.11 -3.64,-8.64 -11.57,-20.72 -21.59,-20.72 -5.19,0 -5.53,4.32 -5.53,8.11 0,0.18 0,3.46 0.51,5.54 l 13.49,54.04" /><path
         id="path78"
         style="fill:#000000;fill-opacity:1;fill-rule:nonzero;stroke:none"
         d="m 1868.81,1683.72 c 2.92,0 6.03,0 6.03,3.45 0,3.46 -3.11,3.46 -6.03,3.46 h -93.43 c -2.94,0 -6.05,0 -6.05,-3.46 0,-3.45 3.11,-3.45 6.05,-3.45 h 93.43" /><path
         id="path80"
         style="fill:#000000;fill-opacity:1;fill-rule:nonzero;stroke:none"
         d="m 1965.17,1702.72 c 15.36,0 22.1,-13.3 22.1,-28.67 0,-20.72 -11.05,-28.67 -21.07,-28.67 -9.15,0 -24,4.5 -28.67,17.79 0.86,-0.34 1.74,-0.34 2.6,-0.34 4.14,0 7.25,2.76 7.25,7.25 0,5 -3.8,7.25 -7.25,7.25 -2.94,0 -7.43,-1.38 -7.43,-7.77 0,-15.89 15.53,-28.33 33.85,-28.33 19.17,0 33.84,15.04 33.84,32.65 0,16.75 -13.81,28.84 -30.22,30.73 13.13,2.77 25.74,14.52 25.74,30.23 0,13.47 -13.64,23.32 -29.19,23.32 -15.72,0 -29.53,-9.68 -29.53,-23.49 0,-6.04 4.48,-7.09 6.73,-7.09 3.63,0 6.74,2.25 6.74,6.73 0,4.5 -3.11,6.74 -6.74,6.74 -0.69,0 -1.54,0 -2.25,-0.35 5.02,11.41 18.66,13.47 24.71,13.47 6.04,0 17.43,-2.92 17.43,-19.5 0,-4.84 -0.68,-13.48 -6.56,-21.08 -5.17,-6.73 -11.05,-7.07 -16.75,-7.59 -0.86,0 -4.83,-0.34 -5.53,-0.34 -1.2,-0.18 -1.89,-0.35 -1.89,-1.57 0,-1.2 0.17,-1.37 3.62,-1.37 h 8.47" /><path
         id="path82"
         style="fill:#000000;fill-opacity:1;fill-rule:nonzero;stroke:none"
         d="m 2051.42,1687 c 0,12.44 -1.22,33.5 -11.58,55.78 -8.28,17.95 -22.45,30.56 -24.51,30.56 -0.52,0 -1.22,-0.17 -1.22,-1.03 0,-0.34 0.19,-0.51 0.36,-0.86 8.28,-8.64 29.34,-30.57 29.34,-84.28 0,-53.87 -20.89,-75.81 -29.34,-84.45 -0.17,-0.34 -0.36,-0.52 -0.36,-0.86 0,-0.86 0.7,-1.03 1.22,-1.03 1.89,0 16.58,12.78 25.03,31.78 8.64,19.16 11.06,37.81 11.06,54.39" /><path
         id="path84"
         style="fill:none;stroke:#009c82;stroke-width:19.9255;stroke-linecap:butt;stroke-linejoin:round;stroke-miterlimit:10;stroke-dasharray:none;stroke-opacity:1"
         d="M 2175.81,876.582 V 660.453" /><path
         id="path86"
         style="fill:#009c82;fill-opacity:1;fill-rule:nonzero;stroke:none"
         d="m 2175.81,572.008 36.94,83.461 h -73.89" /><path
         id="path88"
         style="fill:none;stroke:#009c82;stroke-width:19.9255;stroke-linecap:butt;stroke-linejoin:miter;stroke-miterlimit:10;stroke-dasharray:none;stroke-opacity:1"
         d="m 2175.81,572.008 36.94,83.461 h -73.89 z" /><path
         id="path90"
         style="fill:#000000;fill-opacity:1;fill-rule:nonzero;stroke:none"
         d="m 1945.81,393.719 c 2.92,0 6.03,0 6.03,3.453 0,3.453 -3.11,3.453 -6.03,3.453 h -93.43 c -2.94,0 -6.05,0 -6.05,-3.453 0,-3.453 3.11,-3.453 6.05,-3.453 h 93.43" /><path
         id="path92"
         style="fill:#000000;fill-opacity:1;fill-rule:nonzero;stroke:none"
         d="m 2010.91,429.297 c -22.11,-5.359 -38,-28.328 -38,-48.531 0,-18.469 12.43,-28.844 26.25,-28.844 20.37,0 34.18,27.984 34.18,50.953 0,15.547 -7.25,25.031 -11.56,30.734 -6.39,8.125 -16.75,21.422 -16.75,29.704 0,2.937 2.25,8.125 9.85,8.125 5.34,0 8.62,-1.907 13.81,-4.844 1.54,-1.031 5.53,-3.281 7.76,-3.281 3.63,0 6.22,3.625 6.22,6.39 0,3.281 -2.59,3.797 -8.62,5.188 -8.13,1.718 -10.55,1.718 -13.47,1.718 -2.94,0 -19.86,0 -19.86,-17.609 0,-8.469 4.31,-18.312 10.19,-29.703 z m 1.89,-3.281 c 6.56,-13.641 9.15,-18.828 9.15,-30.047 0,-13.469 -7.25,-40.594 -22.62,-40.594 -6.74,0 -16.41,4.5 -16.41,20.563 0,11.218 6.39,43.859 29.88,50.078" /><path
         id="path94"
         style="fill:#000000;fill-opacity:1;fill-rule:nonzero;stroke:none"
         d="m 2099.84,311.859 c 0,0.172 0,0.516 -0.51,1.047 -7.95,8.11 -29.19,30.219 -29.19,84.094 0,53.875 20.89,75.813 29.36,84.453 0,0.172 0.34,0.516 0.34,1.031 0,0.516 -0.51,0.86 -1.2,0.86 -1.91,0 -16.58,-12.781 -25.05,-31.766 -8.64,-19.172 -11.04,-37.828 -11.04,-54.406 0,-12.438 1.2,-33.5 11.56,-55.781 8.3,-17.953 22.45,-30.563 24.53,-30.563 0.86,0 1.2,0.344 1.2,1.031" /><path
         id="path96"
         style="fill:#000000;fill-opacity:1;fill-rule:nonzero;stroke:none"
         d="m 2142.72,423.422 h 15.87 c 3.29,0 5.02,0 5.02,3.109 0,1.907 -1.03,1.907 -4.48,1.907 h -15.21 l 6.39,25.203 c 0.69,2.422 0.69,2.765 0.69,3.968 0,2.766 -2.25,4.329 -4.48,4.329 -1.39,0 -5.36,-0.516 -6.74,-6.047 l -6.73,-27.453 h -16.24 c -3.45,0 -5.01,0 -5.01,-3.282 0,-1.734 1.22,-1.734 4.5,-1.734 h 15.36 l -11.39,-45.594 c -1.39,-6.047 -1.91,-7.765 -1.91,-10.015 0,-8.11 5.7,-15.547 15.37,-15.547 17.44,0 26.77,25.218 26.77,26.422 0,1.046 -0.69,1.562 -1.73,1.562 -0.35,0 -1.04,0 -1.38,-0.687 -0.17,-0.172 -0.34,-0.344 -1.55,-3.11 -3.64,-8.64 -11.57,-20.719 -21.59,-20.719 -5.19,0 -5.53,4.313 -5.53,8.11 0,0.172 0,3.453 0.51,5.531 l 13.49,54.047" /><path
         id="path98"
         style="fill:#000000;fill-opacity:1;fill-rule:nonzero;stroke:none"
         d="m 2320.81,393.719 c 2.92,0 6.03,0 6.03,3.453 0,3.453 -3.11,3.453 -6.03,3.453 h -93.43 c -2.94,0 -6.05,0 -6.05,-3.453 0,-3.453 3.11,-3.453 6.05,-3.453 h 93.43" /><path
         id="path100"
         style="fill:#000000;fill-opacity:1;fill-rule:nonzero;stroke:none"
         d="m 2437.03,465.734 c 0,3.625 -0.17,3.797 -3.28,3.797 l -51.3,-81.687 v -4.485 h 44.57 v -16.921 c 0,-6.219 -0.36,-7.954 -12.44,-7.954 h -3.28 V 354 c 5.51,0.344 14.84,0.344 20.72,0.344 5.87,0 15.2,0 20.71,-0.344 v 4.484 h -3.28 c -12.07,0 -12.42,1.735 -12.42,7.954 v 16.921 h 17.61 v 4.485 h -17.61 z m -9.5,-11.406 v -66.484 h -41.62 z" /><path
         id="path102"
         style="fill:#000000;fill-opacity:1;fill-rule:nonzero;stroke:none"
         d="m 2503.42,397 c 0,12.438 -1.22,33.5 -11.58,55.781 -8.28,17.953 -22.45,30.563 -24.51,30.563 -0.52,0 -1.22,-0.172 -1.22,-1.031 0,-0.344 0.19,-0.516 0.36,-0.86 8.28,-8.64 29.34,-30.578 29.34,-84.281 0,-53.875 -20.89,-75.813 -29.34,-84.453 -0.17,-0.344 -0.36,-0.516 -0.36,-0.86 0,-0.859 0.7,-1.031 1.22,-1.031 1.89,0 16.58,12.781 25.03,31.781 8.64,19.157 11.06,37.813 11.06,54.391" /><path
         id="path104"
         style="fill:none;stroke:#808080;stroke-width:1.9925;stroke-linecap:butt;stroke-linejoin:miter;stroke-miterlimit:10;stroke-dasharray:none;stroke-opacity:1"
         d="M 475.008,1537.99 H 1750.61" /><path
         id="path106"
         style="fill:none;stroke:#808080;stroke-width:1.9925;stroke-linecap:butt;stroke-linejoin:miter;stroke-miterlimit:10;stroke-dasharray:none;stroke-opacity:1"
         d="M 475.008,545.879 H 2175.81" /><path
         id="path108"
         style="fill:#000000;fill-opacity:1;fill-rule:nonzero;stroke:none"
         d="m 405.531,758.438 c 0,10.531 -0.172,28.484 -7.422,42.312 -6.39,12.078 -16.578,16.406 -25.562,16.406 -8.297,0 -18.828,-3.812 -25.391,-16.234 -6.906,-12.953 -7.593,-29.016 -7.593,-42.484 0,-9.844 0.171,-24.875 5.531,-38 7.422,-17.782 20.719,-20.204 27.453,-20.204 7.937,0 20.031,3.282 27.109,19.688 5.188,11.922 5.875,25.906 5.875,38.516 z M 372.547,703 c -11.047,0 -17.609,9.5 -20.031,22.625 -1.907,10.188 -1.907,25.031 -1.907,34.703 0,13.297 0,24.36 2.25,34.891 3.282,14.672 12.954,19.172 19.688,19.172 7.078,0 16.234,-4.672 19.516,-18.828 2.25,-9.844 2.421,-21.407 2.421,-35.235 0,-11.219 0,-25.031 -2.078,-35.219 C 388.781,706.281 378.594,703 372.547,703" /><path
         id="path110"
         style="fill:#000000;fill-opacity:1;fill-rule:nonzero;stroke:none"
         d="m 1358.02,729.766 h -3.11 c -1.74,-12.266 -3.11,-14.328 -3.8,-15.375 -0.88,-1.375 -13.3,-1.375 -15.72,-1.375 h -33.16 c 6.22,6.734 18.3,19 32.99,33.156 10.53,10.016 22.8,21.766 22.8,38.859 0,20.375 -16.24,32.125 -34.38,32.125 -18.98,0 -30.56,-16.75 -30.56,-32.297 0,-6.734 5.01,-7.593 7.08,-7.593 1.73,0 6.9,1.031 6.9,7.078 0,5.344 -4.48,6.906 -6.9,6.906 -1.03,0 -2.07,-0.172 -2.77,-0.516 3.28,14.672 13.3,21.922 23.84,21.922 15.02,0 24.86,-11.906 24.86,-27.625 0,-15.031 -8.79,-27.984 -18.64,-39.203 l -34.37,-38.859 V 703 h 60.8 l 4.14,26.766" /><path
         id="path112"
         style="fill:#000000;fill-opacity:1;fill-rule:nonzero;stroke:none"
         d="m 1749.17,761.719 c 15.36,0 22.1,-13.297 22.1,-28.672 0,-20.719 -11.05,-28.672 -21.07,-28.672 -9.15,0 -24,4.5 -28.67,17.797 0.86,-0.344 1.74,-0.344 2.6,-0.344 4.14,0 7.25,2.766 7.25,7.25 0,5 -3.8,7.25 -7.25,7.25 -2.94,0 -7.43,-1.375 -7.43,-7.765 0,-15.891 15.53,-28.329 33.85,-28.329 19.17,0 33.84,15.032 33.84,32.641 0,16.75 -13.81,28.844 -30.22,30.734 13.13,2.766 25.74,14.516 25.74,30.235 0,13.469 -13.64,23.312 -29.19,23.312 -15.72,0 -29.53,-9.672 -29.53,-23.484 0,-6.047 4.48,-7.094 6.73,-7.094 3.63,0 6.74,2.25 6.74,6.735 0,4.5 -3.11,6.734 -6.74,6.734 -0.69,0 -1.54,0 -2.25,-0.344 5.02,11.406 18.66,13.469 24.71,13.469 6.04,0 17.43,-2.922 17.43,-19.5 0,-4.844 -0.68,-13.484 -6.56,-21.078 -5.17,-6.735 -11.05,-7.078 -16.75,-7.594 -0.86,0 -4.83,-0.344 -5.53,-0.344 -1.2,-0.172 -1.89,-0.343 -1.89,-1.562 0,-1.203 0.17,-1.375 3.62,-1.375 h 8.47" /><path
         id="path114"
         style="fill:#000000;fill-opacity:1;fill-rule:nonzero;stroke:none"
         d="m 2194.03,1051.73 c 0,3.63 -0.17,3.8 -3.28,3.8 l -51.3,-81.686 v -4.485 h 44.57 v -16.921 c 0,-6.219 -0.36,-7.954 -12.44,-7.954 h -3.28 V 940 c 5.51,0.344 14.84,0.344 20.72,0.344 5.87,0 15.2,0 20.71,-0.344 v 4.484 h -3.28 c -12.07,0 -12.42,1.735 -12.42,7.954 v 16.921 h 17.61 v 4.485 h -17.61 z m -9.5,-11.4 v -66.486 h -41.62 z" /><path
         id="path116"
         style="fill:#000000;fill-opacity:1;fill-rule:nonzero;stroke:none"
         d="m 2511.72,1009.42 h 15.87 c 3.29,0 5.02,0 5.02,3.11 0,1.91 -1.03,1.91 -4.48,1.91 h -15.21 l 6.39,25.2 c 0.69,2.42 0.69,2.77 0.69,3.97 0,2.77 -2.25,4.33 -4.48,4.33 -1.39,0 -5.36,-0.52 -6.74,-6.05 l -6.73,-27.45 h -16.24 c -3.45,0 -5.01,0 -5.01,-3.28 0,-1.74 1.22,-1.74 4.5,-1.74 h 15.36 l -11.39,-45.592 c -1.39,-6.047 -1.91,-7.765 -1.91,-10.015 0,-8.11 5.7,-15.547 15.37,-15.547 17.44,0 26.77,25.218 26.77,26.422 0,1.046 -0.69,1.562 -1.73,1.562 -0.35,0 -1.04,0 -1.38,-0.687 -0.17,-0.172 -0.34,-0.344 -1.55,-3.11 -3.64,-8.64 -11.57,-20.719 -21.59,-20.719 -5.19,0 -5.53,4.313 -5.53,8.11 0,0.172 0,3.453 0.51,5.531 l 13.49,54.045" /></g></g></svg>
