<?xml version="1.0" encoding="UTF-8" standalone="no"?>
<svg
   xmlns:dc="http://purl.org/dc/elements/1.1/"
   xmlns:cc="http://creativecommons.org/ns#"
   xmlns:rdf="http://www.w3.org/1999/02/22-rdf-syntax-ns#"
   xmlns:svg="http://www.w3.org/2000/svg"
   xmlns="http://www.w3.org/2000/svg"
   id="svg15"
   version="1.2"
   viewBox="0 0 265.08 151.69"
   height="151.69pt"
   width="265.08pt">
  <metadata
     id="metadata21">
    <rdf:RDF>
      <cc:Work
         rdf:about="">
        <dc:format>image/svg+xml</dc:format>
        <dc:type
           rdf:resource="http://purl.org/dc/dcmitype/StillImage" />
      </cc:Work>
    </rdf:RDF>
  </metadata>
  <defs
     id="defs19" />
  <g
     id="surface1">
    <path
       id="path2"
       transform="matrix(0.1,0,0,-0.1,0,151.69)"
       d="M 49.804688 758.4625 L 2572.1875 758.4625 "
       style="fill:none;stroke-width:9.9628;stroke-linecap:butt;stroke-linejoin:miter;stroke:rgb(0%,0%,0%);stroke-opacity:1;stroke-miterlimit:10;" />
    <path
       id="path4"
       d="M 260.105469 75.84375 L 255.484375 73.53125 L 257.21875 75.84375 L 255.484375 78.152344 "
       style=" stroke:none;fill-rule:nonzero;fill:rgb(0%,0%,0%);fill-opacity:1;" />
    <path
       id="path6"
       transform="matrix(0.1,0,0,-0.1,0,151.69)"
       d="M 1325.46875 49.790625 L 1325.46875 1438.267188 "
       style="fill:none;stroke-width:9.9628;stroke-linecap:butt;stroke-linejoin:miter;stroke:rgb(0%,0%,0%);stroke-opacity:1;stroke-miterlimit:10;" />
    <path
       id="path8"
       d="M 132.546875 4.976563 L 130.234375 9.597656 L 132.546875 7.863281 L 134.855469 9.597656 "
       style=" stroke:none;fill-rule:nonzero;fill:rgb(0%,0%,0%);fill-opacity:1;" />
    <path
       id="path10"
       transform="matrix(0.1,0,0,-0.1,0,151.69)"
       d="M 49.804688 758.4625 C 49.804688 758.4625 86.679688 930.728125 100.820313 986.079688 C 115 1041.43125 137.695313 1123.501563 151.875 1157.36875 C 166.015625 1191.196875 188.710938 1226.001563 202.890625 1229.946875 C 217.03125 1233.93125 239.765625 1212.8375 253.90625 1185.9625 C 268.085938 1159.048438 290.78125 1087.251563 304.921875 1036.157813 C 319.101563 985.064063 341.796875 880.3375 355.976563 817.68125 C 370.117188 755.025 392.8125 643.30625 406.992188 584.595313 C 421.132813 525.845313 443.867188 434.751563 458.007813 394.478125 C 472.1875 354.204688 494.882813 306.275 509.023438 294.439063 C 523.203125 282.564063 545.898438 289.634375 560.078125 309.165625 C 574.21875 328.657813 596.914063 389.009375 611.09375 435.064063 C 625.234375 481.11875 647.929688 579.790625 662.109375 640.9625 C 676.289063 702.134375 698.984375 814.751563 713.125 875.923438 C 727.304688 937.095313 750 1035.80625 764.140625 1081.860938 C 778.320313 1127.915625 801.015625 1188.267188 815.195313 1207.798438 C 829.335938 1227.290625 852.070313 1234.360938 866.210938 1222.564063 C 880.351563 1210.728125 903.085938 1162.759375 917.226563 1122.485938 C 931.40625 1082.251563 954.101563 991.11875 968.242188 932.407813 C 982.421875 873.696875 1005.117188 761.978125 1019.296875 699.321875 C 1033.4375 636.665625 1056.132813 531.9 1070.3125 480.80625 C 1084.453125 429.7125 1107.1875 357.915625 1121.328125 331.040625 C 1135.507813 304.126563 1158.203125 283.032813 1172.34375 286.978125 C 1186.523438 290.9625 1209.21875 325.728125 1223.398438 359.55625 C 1237.539063 393.423438 1260.234375 475.49375 1274.414063 530.845313 C 1288.554688 586.196875 1311.289063 695.298438 1325.429688 758.423438 C 1339.609375 821.5875 1362.304688 930.689063 1376.445313 986.040625 C 1390.625 1041.353125 1413.320313 1123.4625 1427.460938 1157.329688 C 1441.640625 1191.157813 1464.335938 1226.001563 1478.515625 1229.946875 C 1492.65625 1233.93125 1515.390625 1212.8375 1529.53125 1185.9625 C 1543.710938 1159.0875 1566.40625 1087.290625 1580.546875 1036.235938 C 1594.726563 985.142188 1617.421875 880.415625 1631.601563 817.759375 C 1645.742188 755.064063 1668.4375 643.345313 1682.617188 584.634375 C 1696.757813 525.884375 1719.492188 434.790625 1733.632813 394.517188 C 1747.773438 354.24375 1770.507813 306.275 1784.648438 294.439063 C 1798.828125 282.603125 1821.523438 289.634375 1835.664063 309.126563 C 1849.84375 328.657813 1872.539063 389.009375 1886.71875 435.025 C 1900.859375 481.079688 1923.554688 579.751563 1937.734375 640.923438 C 1951.875 702.095313 1974.609375 814.7125 1988.75 875.884375 C 2002.929688 937.05625 2025.625 1035.767188 2039.804688 1081.821875 C 2053.945313 1127.876563 2076.640625 1188.267188 2090.820313 1207.759375 C 2104.960938 1227.290625 2127.695313 1234.360938 2141.835938 1222.564063 C 2155.976563 1210.728125 2178.710938 1162.798438 2192.851563 1122.525 C 2207.03125 1082.290625 2229.726563 991.157813 2243.867188 932.446875 C 2258.046875 873.735938 2280.742188 762.017188 2294.921875 699.360938 C 2309.0625 636.704688 2331.757813 531.939063 2345.9375 480.845313 C 2360.078125 429.751563 2382.8125 357.954688 2396.953125 331.040625 C 2411.132813 304.126563 2433.828125 283.032813 2447.96875 286.978125 C 2462.148438 290.923438 2484.84375 325.728125 2499.023438 359.55625 C 2513.164063 393.384375 2535.898438 475.454688 2550.039063 530.80625 C 2564.179688 586.157813 2601.054688 758.384375 2601.054688 758.384375 "
       style="fill:none;stroke-width:17.9329;stroke-linecap:butt;stroke-linejoin:round;stroke:rgb(0%,61.131287%,50.976563%);stroke-opacity:1;stroke-miterlimit:10;" />
    <path
       id="path12"
       d="M 251.171875 62.546875 L 252.757813 62.546875 C 253.089844 62.546875 253.261719 62.546875 253.261719 62.238281 C 253.261719 62.046875 253.15625 62.046875 252.8125 62.046875 L 251.292969 62.046875 L 251.929688 59.527344 C 252 59.285156 252 59.25 252 59.128906 C 252 58.851563 251.773438 58.695313 251.550781 58.695313 C 251.414063 58.695313 251.015625 58.746094 250.878906 59.300781 L 250.203125 62.046875 L 248.582031 62.046875 C 248.234375 62.046875 248.078125 62.046875 248.078125 62.375 C 248.078125 62.546875 248.203125 62.546875 248.53125 62.546875 L 250.066406 62.546875 L 248.925781 67.105469 C 248.789063 67.710938 248.734375 67.882813 248.734375 68.109375 C 248.734375 68.917969 249.304688 69.664063 250.273438 69.664063 C 252.015625 69.664063 252.949219 67.140625 252.949219 67.019531 C 252.949219 66.917969 252.882813 66.863281 252.777344 66.863281 C 252.742188 66.863281 252.671875 66.863281 252.640625 66.933594 C 252.621094 66.949219 252.605469 66.96875 252.484375 67.246094 C 252.121094 68.109375 251.328125 69.316406 250.324219 69.316406 C 249.804688 69.316406 249.773438 68.886719 249.773438 68.503906 C 249.773438 68.488281 249.773438 68.160156 249.824219 67.953125 L 251.171875 62.546875 "
       style=" stroke:none;fill-rule:nonzero;fill:rgb(0%,0%,0%);fill-opacity:1;" />
  </g>
</svg>
