<?xml version="1.0" encoding="UTF-8" standalone="no"?>
<svg
   xmlns:dc="http://purl.org/dc/elements/1.1/"
   xmlns:cc="http://creativecommons.org/ns#"
   xmlns:rdf="http://www.w3.org/1999/02/22-rdf-syntax-ns#"
   xmlns:svg="http://www.w3.org/2000/svg"
   xmlns="http://www.w3.org/2000/svg"
   viewBox="0 0 353.44 202.25333"
   height="202.25333"
   width="353.44"
   xml:space="preserve"
   id="svg2"
   version="1.1"><metadata
     id="metadata8"><rdf:RDF><cc:Work
         rdf:about=""><dc:format>image/svg+xml</dc:format><dc:type
           rdf:resource="http://purl.org/dc/dcmitype/StillImage" /></cc:Work></rdf:RDF></metadata><defs
     id="defs6" /><g
     transform="matrix(1.3333333,0,0,-1.3333333,0,202.25333)"
     id="g10"><g
       transform="scale(0.1)"
       id="g12"><path
         id="path14"
         style="fill:none;stroke:#808080;stroke-width:1.9925;stroke-linecap:butt;stroke-linejoin:miter;stroke-miterlimit:10;stroke-dasharray:none;stroke-opacity:1"
         d="m 1006.51,382.891 v 42.519 m 637.8,-42.519 v 42.519" /><path
         id="path16"
         style="fill:none;stroke:#000000;stroke-width:9.9628;stroke-linecap:butt;stroke-linejoin:miter;stroke-miterlimit:10;stroke-dasharray:none;stroke-opacity:1"
         d="M 49.8086,404.148 H 2572.11" /><path
         id="path18"
         style="fill:#000000;fill-opacity:1;fill-rule:nonzero;stroke:none"
         d="m 2601.01,404.148 -46.23,23.118 17.33,-23.118 -17.33,-23.113" /><path
         id="path20"
         style="fill:none;stroke:#000000;stroke-width:9.9628;stroke-linecap:butt;stroke-linejoin:miter;stroke-miterlimit:10;stroke-dasharray:none;stroke-opacity:1"
         d="M 1325.41,49.8164 V 1438.27" /><path
         id="path22"
         style="fill:#000000;fill-opacity:1;fill-rule:nonzero;stroke:none"
         d="m 1325.41,1467.16 -23.12,-46.23 23.12,17.34 23.11,-17.34" /><path
         id="path24"
         style="fill:#000000;fill-opacity:1;fill-rule:nonzero;stroke:none"
         d="m 910.813,214.719 c 2.921,0 6.031,0 6.031,3.453 0,3.453 -3.11,3.453 -6.031,3.453 h -93.438 c -2.937,0 -6.047,0 -6.047,-3.453 0,-3.453 3.11,-3.453 6.047,-3.453 h 93.438" /><path
         id="path26"
         style="fill:#000000;fill-opacity:1;fill-rule:nonzero;stroke:none"
         d="m 977.328,319.406 c 0,2.75 0,2.86 -2.375,2.86 -2.875,-3.219 -8.828,-7.625 -21.109,-7.625 v -3.453 c 2.75,0 8.703,0 15.265,3.093 v -62.109 c 0,-4.281 -0.359,-5.719 -10.843,-5.719 h -3.703 V 243 c 3.218,0.234 14.781,0.234 18.718,0.234 3.938,0 15.375,0 18.594,-0.234 v 3.453 h -3.703 c -10.484,0 -10.844,1.438 -10.844,5.719 v 67.234" /><path
         id="path28"
         style="fill:none;stroke:#000000;stroke-width:3.985;stroke-linecap:butt;stroke-linejoin:miter;stroke-miterlimit:10;stroke-dasharray:none;stroke-opacity:1"
         d="m 943.219,218.012 h 58.531" /><path
         id="path30"
         style="fill:#000000;fill-opacity:1;fill-rule:nonzero;stroke:none"
         d="m 995.453,136.031 h -2.625 c -0.359,-2.031 -1.312,-8.593 -2.5,-10.5 -0.844,-1.062 -7.64,-1.062 -11.203,-1.062 h -22.062 c 3.218,2.734 10.5,10.359 13.593,13.219 18.125,16.703 24.797,22.89 24.797,34.703 0,13.703 -10.844,22.875 -24.672,22.875 -13.828,0 -21.937,-11.797 -21.937,-22.047 0,-6.078 5.25,-6.078 5.594,-6.078 2.515,0 5.609,1.781 5.609,5.593 0,3.344 -2.266,5.61 -5.609,5.61 -1.063,0 -1.313,0 -1.657,-0.125 2.266,8.109 8.703,13.594 16.438,13.594 10.14,0 16.344,-8.469 16.344,-19.422 0,-10.141 -5.844,-18.953 -12.641,-26.594 L 948.844,118.859 V 116 h 43.5 l 3.109,20.031" /><path
         id="path32"
         style="fill:#000000;fill-opacity:1;fill-rule:nonzero;stroke:none"
         d="m 1064.25,214.203 c 2.59,0 5.53,0 5.53,2.766 0,2.234 -1.73,2.234 -4.84,2.234 h -27.97 c 4.31,15.719 14.5,25.219 29.87,25.219 h 5.02 c 2.92,0 5.52,0 5.52,2.766 0,2.25 -1.9,2.25 -5,2.25 h -5.88 c -21.25,0 -44.56,-16.938 -44.56,-44.047 0,-19.172 12.95,-32.125 30.06,-32.125 11.05,0 21.92,6.922 21.92,8.64 0,1.032 -0.51,2.078 -1.54,2.078 -0.52,0 -0.88,-0.171 -1.74,-0.875 -6.56,-4.312 -12.95,-6.375 -18.12,-6.375 -9.16,0 -18.83,6.032 -18.83,22.782 0,3.281 0.34,7.781 1.9,14.687 h 28.66" /><path
         id="path34"
         style="fill:#000000;fill-opacity:1;fill-rule:nonzero;stroke:none"
         d="m 1615.33,319.406 c 0,2.75 0,2.86 -2.38,2.86 -2.87,-3.219 -8.82,-7.625 -21.11,-7.625 v -3.453 c 2.75,0 8.71,0 15.27,3.093 v -62.109 c 0,-4.281 -0.36,-5.719 -10.84,-5.719 h -3.71 V 243 c 3.22,0.234 14.78,0.234 18.72,0.234 3.94,0 15.38,0 18.6,-0.234 v 3.453 h -3.71 c -10.48,0 -10.84,1.438 -10.84,5.719 v 67.234" /><path
         id="path36"
         style="fill:none;stroke:#000000;stroke-width:3.985;stroke-linecap:butt;stroke-linejoin:miter;stroke-miterlimit:10;stroke-dasharray:none;stroke-opacity:1"
         d="m 1581.01,218.012 h 58.53" /><path
         id="path38"
         style="fill:#000000;fill-opacity:1;fill-rule:nonzero;stroke:none"
         d="m 1633.45,136.031 h -2.62 c -0.36,-2.031 -1.31,-8.593 -2.5,-10.5 -0.85,-1.062 -7.64,-1.062 -11.2,-1.062 h -22.07 c 3.22,2.734 10.5,10.359 13.6,13.219 18.12,16.703 24.79,22.89 24.79,34.703 0,13.703 -10.84,22.875 -24.67,22.875 -13.83,0 -21.94,-11.797 -21.94,-22.047 0,-6.078 5.25,-6.078 5.6,-6.078 2.51,0 5.61,1.781 5.61,5.593 0,3.344 -2.27,5.61 -5.61,5.61 -1.06,0 -1.31,0 -1.66,-0.125 2.27,8.109 8.7,13.594 16.44,13.594 10.14,0 16.34,-8.469 16.34,-19.422 0,-10.141 -5.84,-18.953 -12.64,-26.594 l -24.08,-26.938 V 116 h 43.5 l 3.11,20.031" /><path
         id="path40"
         style="fill:#000000;fill-opacity:1;fill-rule:nonzero;stroke:none"
         d="m 1701.25,214.203 c 2.59,0 5.53,0 5.53,2.766 0,2.234 -1.73,2.234 -4.84,2.234 h -27.97 c 4.31,15.719 14.5,25.219 29.87,25.219 h 5.02 c 2.92,0 5.52,0 5.52,2.766 0,2.25 -1.9,2.25 -5,2.25 h -5.88 c -21.25,0 -44.56,-16.938 -44.56,-44.047 0,-19.172 12.95,-32.125 30.06,-32.125 11.05,0 21.92,6.922 21.92,8.64 0,1.032 -0.51,2.078 -1.54,2.078 -0.52,0 -0.88,-0.171 -1.74,-0.875 -6.56,-4.312 -12.95,-6.375 -18.12,-6.375 -9.16,0 -18.83,6.032 -18.83,22.782 0,3.281 0.34,7.781 1.9,14.687 h 28.66" /><path
         id="path42"
         style="fill:none;stroke:#009c82;stroke-width:17.9329;stroke-linecap:butt;stroke-linejoin:round;stroke-miterlimit:10;stroke-dasharray:none;stroke-opacity:1"
         d="M 49.8086,404.148 H 1006.51 v 708.672 h 637.8 V 404.148 h 956.7" /><path
         id="path44"
         style="fill:#000000;fill-opacity:1;fill-rule:nonzero;stroke:none"
         d="m 907.328,1214.41 c 0,2.75 0,2.86 -2.375,2.86 -2.875,-3.22 -8.828,-7.63 -21.109,-7.63 v -3.45 c 2.75,0 8.703,0 15.265,3.09 v -62.11 c 0,-4.28 -0.359,-5.72 -10.843,-5.72 h -3.703 V 1138 c 3.218,0.23 14.781,0.23 18.718,0.23 3.938,0 15.375,0 18.594,-0.23 v 3.45 h -3.703 c -10.484,0 -10.844,1.44 -10.844,5.72 v 67.24" /><path
         id="path46"
         style="fill:none;stroke:#000000;stroke-width:3.985;stroke-linecap:butt;stroke-linejoin:miter;stroke-miterlimit:10;stroke-dasharray:none;stroke-opacity:1"
         d="m 872.941,1113.13 h 58.528" /><path
         id="path48"
         style="fill:#000000;fill-opacity:1;fill-rule:nonzero;stroke:none"
         d="m 913.688,1038.06 c 1.796,0 3.812,0 3.812,1.91 0,1.55 -1.187,1.55 -3.328,1.55 h -19.313 c 2.969,10.84 10.016,17.4 20.625,17.4 h 3.454 c 2.015,0 3.812,0 3.812,1.91 0,1.55 -1.312,1.55 -3.453,1.55 h -4.063 c -14.656,0 -30.75,-11.69 -30.75,-30.4 0,-13.23 8.938,-22.17 20.735,-22.17 7.64,0 15.14,4.77 15.14,5.96 0,0.71 -0.359,1.43 -1.062,1.43 -0.359,0 -0.609,-0.12 -1.203,-0.59 -4.531,-2.98 -8.938,-4.42 -12.516,-4.42 -6.312,0 -12.984,4.17 -12.984,15.73 0,2.27 0.234,5.38 1.312,10.14 h 19.782" /><path
         id="path50"
         style="fill:none;stroke:#db0651;stroke-width:9.9628;stroke-linecap:butt;stroke-linejoin:miter;stroke-miterlimit:10;stroke-dasharray:none;stroke-opacity:1"
         d="m 1052.84,545.883 h 545.13" /><path
         id="path52"
         style="fill:#db0651;fill-opacity:1;fill-rule:nonzero;stroke:none"
         d="m 1020.7,545.883 44.44,-16.828 -14.78,16.828 14.78,16.832 z" /><path
         id="path54"
         style="fill:none;stroke:#db0651;stroke-width:9.9628;stroke-linecap:butt;stroke-linejoin:miter;stroke-miterlimit:10;stroke-dasharray:none;stroke-opacity:1"
         d="m 1020.7,545.883 44.44,-16.828 -14.78,16.828 14.78,16.832 z" /><path
         id="path56"
         style="fill:#db0651;fill-opacity:1;fill-rule:nonzero;stroke:none"
         d="m 1630.12,545.883 -44.44,16.832 14.78,-16.832 -14.78,-16.828 z" /><path
         id="path58"
         style="fill:none;stroke:#db0651;stroke-width:9.9628;stroke-linecap:butt;stroke-linejoin:miter;stroke-miterlimit:10;stroke-dasharray:none;stroke-opacity:1"
         d="m 1630.12,545.883 -44.44,16.832 14.78,-16.832 -14.78,-16.828 z" /><path
         id="path60"
         style="fill:#000000;fill-opacity:1;fill-rule:nonzero;stroke:none"
         d="m 1469.25,648.203 c 2.59,0 5.53,0 5.53,2.766 0,2.234 -1.73,2.234 -4.84,2.234 h -27.97 c 4.31,15.719 14.5,25.219 29.87,25.219 h 5.02 c 2.92,0 5.52,0 5.52,2.766 0,2.25 -1.9,2.25 -5,2.25 h -5.88 c -21.25,0 -44.56,-16.938 -44.56,-44.047 0,-19.172 12.95,-32.125 30.06,-32.125 11.05,0 21.92,6.922 21.92,8.64 0,1.032 -0.51,2.078 -1.54,2.078 -0.52,0 -0.88,-0.171 -1.74,-0.875 -6.56,-4.312 -12.95,-6.375 -18.12,-6.375 -9.16,0 -18.83,6.032 -18.83,22.782 0,3.281 0.34,7.781 1.9,14.687 h 28.66" /><path
         id="path62"
         style="fill:#000000;fill-opacity:1;fill-rule:nonzero;stroke:none"
         d="m 2511.72,536.422 h 15.87 c 3.29,0 5.02,0 5.02,3.109 0,1.907 -1.03,1.907 -4.48,1.907 h -15.21 l 6.39,25.203 c 0.69,2.422 0.69,2.765 0.69,3.968 0,2.766 -2.25,4.329 -4.48,4.329 -1.39,0 -5.36,-0.516 -6.74,-6.047 l -6.73,-27.453 h -16.24 c -3.45,0 -5.01,0 -5.01,-3.282 0,-1.734 1.22,-1.734 4.5,-1.734 h 15.36 l -11.39,-45.594 c -1.39,-6.047 -1.91,-7.765 -1.91,-10.015 0,-8.11 5.7,-15.547 15.37,-15.547 17.44,0 26.77,25.218 26.77,26.422 0,1.046 -0.69,1.562 -1.73,1.562 -0.35,0 -1.04,0 -1.38,-0.687 -0.17,-0.172 -0.34,-0.344 -1.55,-3.11 -3.64,-8.64 -11.57,-20.719 -21.59,-20.719 -5.19,0 -5.53,4.313 -5.53,8.11 0,0.172 0,3.453 0.51,5.531 l 13.49,54.047" /></g></g></svg>
