<?xml version="1.0" encoding="UTF-8" standalone="no"?>
<svg
   xmlns:dc="http://purl.org/dc/elements/1.1/"
   xmlns:cc="http://creativecommons.org/ns#"
   xmlns:rdf="http://www.w3.org/1999/02/22-rdf-syntax-ns#"
   xmlns:svg="http://www.w3.org/2000/svg"
   xmlns="http://www.w3.org/2000/svg"
   viewBox="0 0 353.44 202.25333"
   height="202.25333"
   width="353.44"
   xml:space="preserve"
   id="svg2"
   version="1.1"><metadata
     id="metadata8"><rdf:RDF><cc:Work
         rdf:about=""><dc:format>image/svg+xml</dc:format><dc:type
           rdf:resource="http://purl.org/dc/dcmitype/StillImage" /></cc:Work></rdf:RDF></metadata><defs
     id="defs6" /><g
     transform="matrix(1.3333333,0,0,-1.3333333,0,202.25333)"
     id="g10"><g
       transform="scale(0.1)"
       id="g12"><path
         id="path14"
         style="fill:none;stroke:#808080;stroke-width:1.9925;stroke-linecap:butt;stroke-linejoin:miter;stroke-miterlimit:10;stroke-dasharray:none;stroke-opacity:1"
         d="m 49.8086,737.207 v 42.52 m 318.8944,-42.52 v 42.52 m 318.891,-42.52 v 42.52 m 318.886,-42.52 v 42.52 m 637.79,-42.52 v 42.52 m 318.89,-42.52 v 42.52 m 318.89,-42.52 v 42.52 m 318.9,-42.52 v 42.52" /><path
         id="path16"
         style="fill:none;stroke:#000000;stroke-width:9.9628;stroke-linecap:butt;stroke-linejoin:miter;stroke-miterlimit:10;stroke-dasharray:none;stroke-opacity:1"
         d="M 49.8086,758.469 H 2572.05" /><path
         id="path18"
         style="fill:#000000;fill-opacity:1;fill-rule:nonzero;stroke:none"
         d="m 2600.95,758.469 -46.23,23.113 17.33,-23.113 -17.33,-23.114" /><path
         id="path20"
         style="fill:none;stroke:#000000;stroke-width:9.9628;stroke-linecap:butt;stroke-linejoin:miter;stroke-miterlimit:10;stroke-dasharray:none;stroke-opacity:1"
         d="M 1325.38,49.8125 V 1438.23" /><path
         id="path22"
         style="fill:#000000;fill-opacity:1;fill-rule:nonzero;stroke:none"
         d="m 1325.38,1467.12 -23.11,-46.23 23.11,17.34 23.11,-17.34" /><path
         id="path24"
         style="fill:#000000;fill-opacity:1;fill-rule:nonzero;stroke:none"
         d="m 56.8125,602.719 c 2.9219,0 6.0313,0 6.0313,3.453 0,3.453 -3.1094,3.453 -6.0313,3.453 H -36.625 c -2.9375,0 -6.0469,0 -6.0469,-3.453 0,-3.453 3.1094,-3.453 6.0469,-3.453 h 93.4375" /><path
         id="path26"
         style="fill:#000000;fill-opacity:1;fill-rule:nonzero;stroke:none"
         d="m 135.031,674.734 c 0,3.625 -0.172,3.797 -3.281,3.797 L 80.4531,596.844 v -4.485 h 44.5629 v -16.921 c 0,-6.219 -0.36,-7.954 -12.438,-7.954 h -3.281 V 563 c 5.516,0.344 14.844,0.344 20.719,0.344 5.875,0 15.203,0 20.718,-0.344 v 4.484 h -3.281 c -12.078,0 -12.422,1.735 -12.422,7.954 v 16.921 h 17.61 v 4.485 h -17.61 z m -9.5,-11.406 V 596.844 H 83.9063 Z" /><path
         id="path28"
         style="fill:#000000;fill-opacity:1;fill-rule:nonzero;stroke:none"
         d="m 375.813,602.719 c 2.921,0 6.031,0 6.031,3.453 0,3.453 -3.11,3.453 -6.031,3.453 h -93.438 c -2.937,0 -6.047,0 -6.047,-3.453 0,-3.453 3.11,-3.453 6.047,-3.453 h 93.438" /><path
         id="path30"
         style="fill:#000000;fill-opacity:1;fill-rule:nonzero;stroke:none"
         d="m 434.172,621.719 c 15.359,0 22.094,-13.297 22.094,-28.672 0,-20.719 -11.047,-28.672 -21.063,-28.672 -9.156,0 -24,4.5 -28.672,17.797 0.86,-0.344 1.735,-0.344 2.594,-0.344 4.141,0 7.25,2.766 7.25,7.25 0,5 -3.797,7.25 -7.25,7.25 -2.937,0 -7.422,-1.375 -7.422,-7.765 0,-15.891 15.531,-28.329 33.844,-28.329 19.172,0 33.844,15.032 33.844,32.641 0,16.75 -13.813,28.844 -30.219,30.734 13.125,2.766 25.734,14.516 25.734,30.235 0,13.469 -13.64,23.312 -29.187,23.312 -15.719,0 -29.531,-9.672 -29.531,-23.484 0,-6.047 4.484,-7.094 6.734,-7.094 3.625,0 6.734,2.25 6.734,6.735 0,4.5 -3.109,6.734 -6.734,6.734 -0.688,0 -1.547,0 -2.25,-0.344 5.016,11.406 18.656,13.469 24.703,13.469 6.047,0 17.438,-2.922 17.438,-19.5 0,-4.844 -0.688,-13.484 -6.563,-21.078 -5.172,-6.735 -11.047,-7.078 -16.75,-7.594 -0.859,0 -4.828,-0.344 -5.531,-0.344 -1.203,-0.172 -1.891,-0.343 -1.891,-1.562 0,-1.203 0.172,-1.375 3.625,-1.375 h 8.469" /><path
         id="path32"
         style="fill:#000000;fill-opacity:1;fill-rule:nonzero;stroke:none"
         d="m 694.813,602.719 c 2.921,0 6.031,0 6.031,3.453 0,3.453 -3.11,3.453 -6.031,3.453 h -93.438 c -2.937,0 -6.047,0 -6.047,-3.453 0,-3.453 3.11,-3.453 6.047,-3.453 h 93.438" /><path
         id="path34"
         style="fill:#000000;fill-opacity:1;fill-rule:nonzero;stroke:none"
         d="m 787.016,589.766 h -3.11 c -1.734,-12.266 -3.109,-14.328 -3.797,-15.375 -0.875,-1.375 -13.296,-1.375 -15.718,-1.375 h -33.157 c 6.219,6.734 18.297,19 32.985,33.156 10.531,10.016 22.797,21.766 22.797,38.859 0,20.375 -16.235,32.125 -34.375,32.125 -18.985,0 -30.563,-16.75 -30.563,-32.297 0,-6.734 5.016,-7.593 7.078,-7.593 1.735,0 6.907,1.031 6.907,7.078 0,5.344 -4.485,6.906 -6.907,6.906 -1.031,0 -2.062,-0.172 -2.765,-0.516 3.281,14.672 13.297,21.922 23.843,21.922 15.016,0 24.86,-11.906 24.86,-27.625 0,-15.031 -8.797,-27.984 -18.641,-39.203 L 722.078,566.969 V 563 h 60.797 l 4.141,26.766" /><path
         id="path36"
         style="fill:#000000;fill-opacity:1;fill-rule:nonzero;stroke:none"
         d="m 1013.81,602.719 c 2.92,0 6.03,0 6.03,3.453 0,3.453 -3.11,3.453 -6.03,3.453 h -93.435 c -2.937,0 -6.047,0 -6.047,-3.453 0,-3.453 3.11,-3.453 6.047,-3.453 h 93.435" /><path
         id="path38"
         style="fill:#000000;fill-opacity:1;fill-rule:nonzero;stroke:none"
         d="m 1079.94,673.344 c 0,3.64 -0.17,3.812 -2.6,3.812 -6.73,-8.125 -16.92,-10.718 -26.59,-11.062 -0.52,0 -1.37,0 -1.55,-0.344 -0.17,-0.344 -0.17,-0.687 -0.17,-4.312 5.35,0 14.33,1.031 21.24,5.171 v -91 c 0,-6.046 -0.35,-8.125 -15.21,-8.125 h -5.17 V 563 c 8.28,0.172 16.92,0.344 25.2,0.344 8.3,0 16.94,-0.172 25.22,-0.344 v 4.484 h -5.17 c -14.86,0 -15.2,1.907 -15.2,8.125 v 97.735" /><path
         id="path40"
         style="fill:#000000;fill-opacity:1;fill-rule:nonzero;stroke:none"
         d="m 1650.94,673.344 c 0,3.64 -0.17,3.812 -2.6,3.812 -6.73,-8.125 -16.92,-10.718 -26.59,-11.062 -0.52,0 -1.37,0 -1.55,-0.344 -0.17,-0.344 -0.17,-0.687 -0.17,-4.312 5.35,0 14.33,1.031 21.24,5.171 v -91 c 0,-6.046 -0.35,-8.125 -15.21,-8.125 h -5.17 V 563 c 8.28,0.172 16.92,0.344 25.2,0.344 8.3,0 16.94,-0.172 25.22,-0.344 v 4.484 h -5.17 c -14.86,0 -15.2,1.907 -15.2,8.125 v 97.735" /><path
         id="path42"
         style="fill:#000000;fill-opacity:1;fill-rule:nonzero;stroke:none"
         d="m 1996.02,589.766 h -3.11 c -1.74,-12.266 -3.11,-14.328 -3.8,-15.375 -0.88,-1.375 -13.3,-1.375 -15.72,-1.375 h -33.16 c 6.22,6.734 18.3,19 32.99,33.156 10.53,10.016 22.8,21.766 22.8,38.859 0,20.375 -16.24,32.125 -34.38,32.125 -18.98,0 -30.56,-16.75 -30.56,-32.297 0,-6.734 5.01,-7.593 7.08,-7.593 1.73,0 6.9,1.031 6.9,7.078 0,5.344 -4.48,6.906 -6.9,6.906 -1.03,0 -2.07,-0.172 -2.77,-0.516 3.28,14.672 13.3,21.922 23.84,21.922 15.02,0 24.86,-11.906 24.86,-27.625 0,-15.031 -8.79,-27.984 -18.64,-39.203 l -34.37,-38.859 V 563 h 60.8 l 4.14,26.766" /><path
         id="path44"
         style="fill:#000000;fill-opacity:1;fill-rule:nonzero;stroke:none"
         d="m 2281.17,621.719 c 15.36,0 22.1,-13.297 22.1,-28.672 0,-20.719 -11.05,-28.672 -21.07,-28.672 -9.15,0 -24,4.5 -28.67,17.797 0.86,-0.344 1.74,-0.344 2.6,-0.344 4.14,0 7.25,2.766 7.25,7.25 0,5 -3.8,7.25 -7.25,7.25 -2.94,0 -7.43,-1.375 -7.43,-7.765 0,-15.891 15.53,-28.329 33.85,-28.329 19.17,0 33.84,15.032 33.84,32.641 0,16.75 -13.81,28.844 -30.22,30.734 13.13,2.766 25.74,14.516 25.74,30.235 0,13.469 -13.64,23.312 -29.19,23.312 -15.72,0 -29.53,-9.672 -29.53,-23.484 0,-6.047 4.48,-7.094 6.73,-7.094 3.63,0 6.74,2.25 6.74,6.735 0,4.5 -3.11,6.734 -6.74,6.734 -0.69,0 -1.54,0 -2.25,-0.344 5.02,11.406 18.66,13.469 24.71,13.469 6.04,0 17.43,-2.922 17.43,-19.5 0,-4.844 -0.68,-13.484 -6.56,-21.078 -5.17,-6.735 -11.05,-7.078 -16.75,-7.594 -0.86,0 -4.83,-0.344 -5.53,-0.344 -1.2,-0.172 -1.89,-0.343 -1.89,-1.562 0,-1.203 0.17,-1.375 3.62,-1.375 h 8.47" /><path
         id="path46"
         style="fill:#000000;fill-opacity:1;fill-rule:nonzero;stroke:none"
         d="m 2619.03,674.734 c 0,3.625 -0.17,3.797 -3.28,3.797 l -51.3,-81.687 v -4.485 h 44.57 v -16.921 c 0,-6.219 -0.36,-7.954 -12.44,-7.954 h -3.28 V 563 c 5.51,0.344 14.84,0.344 20.72,0.344 5.87,0 15.2,0 20.71,-0.344 v 4.484 h -3.28 c -12.07,0 -12.42,1.735 -12.42,7.954 v 16.921 h 17.61 v 4.485 h -17.61 z m -9.5,-11.406 v -66.484 h -41.62 z" /><path
         id="path48"
         style="fill:none;stroke:#009c82;stroke-width:17.9329;stroke-linecap:butt;stroke-linejoin:round;stroke-miterlimit:10;stroke-dasharray:none;stroke-opacity:1"
         d="M 49.8086,758.469 V 1112.8 M 368.703,758.469 V 935.633 M 687.594,758.469 V 1112.8 M 1006.48,758.469 v 177.164 m 318.9,-177.164 V 1112.8 M 1644.27,758.469 V 935.633 M 1963.16,758.469 V 1112.8 m 318.89,-354.331 v 177.164 m 318.9,-177.164 V 1112.8" /><path
         id="path50"
         style="fill:#009c82;fill-opacity:1;fill-rule:nonzero;stroke:none"
         d="m 69.7344,1112.8 c 0,11 -8.918,19.92 -19.9258,19.92 -11.0039,0 -19.9258,-8.92 -19.9258,-19.92 0,-11.01 8.9219,-19.93 19.9258,-19.93 11.0078,0 19.9258,8.92 19.9258,19.93 z" /><path
         id="path52"
         style="fill:none;stroke:#009c82;stroke-width:17.9329;stroke-linecap:butt;stroke-linejoin:round;stroke-miterlimit:10;stroke-dasharray:none;stroke-opacity:1"
         d="m 69.7344,1112.8 c 0,11 -8.918,19.92 -19.9258,19.92 -11.0039,0 -19.9258,-8.92 -19.9258,-19.92 0,-11.01 8.9219,-19.93 19.9258,-19.93 11.0078,0 19.9258,8.92 19.9258,19.93 z" /><path
         id="path54"
         style="fill:#009c82;fill-opacity:1;fill-rule:nonzero;stroke:none"
         d="m 388.629,935.633 c 0,11.004 -8.922,19.926 -19.926,19.926 -11.008,0 -19.926,-8.922 -19.926,-19.926 0,-11.008 8.918,-19.926 19.926,-19.926 11.004,0 19.926,8.918 19.926,19.926 z" /><path
         id="path56"
         style="fill:none;stroke:#009c82;stroke-width:17.9329;stroke-linecap:butt;stroke-linejoin:round;stroke-miterlimit:10;stroke-dasharray:none;stroke-opacity:1"
         d="m 388.629,935.633 c 0,11.004 -8.922,19.926 -19.926,19.926 -11.008,0 -19.926,-8.922 -19.926,-19.926 0,-11.008 8.918,-19.926 19.926,-19.926 11.004,0 19.926,8.918 19.926,19.926 z" /><path
         id="path58"
         style="fill:#009c82;fill-opacity:1;fill-rule:nonzero;stroke:none"
         d="m 707.52,1112.8 c 0,11 -8.922,19.92 -19.926,19.92 -11.004,0 -19.926,-8.92 -19.926,-19.92 0,-11.01 8.922,-19.93 19.926,-19.93 11.004,0 19.926,8.92 19.926,19.93 z" /><path
         id="path60"
         style="fill:none;stroke:#009c82;stroke-width:17.9329;stroke-linecap:butt;stroke-linejoin:round;stroke-miterlimit:10;stroke-dasharray:none;stroke-opacity:1"
         d="m 707.52,1112.8 c 0,11 -8.922,19.92 -19.926,19.92 -11.004,0 -19.926,-8.92 -19.926,-19.92 0,-11.01 8.922,-19.93 19.926,-19.93 11.004,0 19.926,8.92 19.926,19.93 z" /><path
         id="path62"
         style="fill:#009c82;fill-opacity:1;fill-rule:nonzero;stroke:none"
         d="m 1026.41,935.633 c 0,11.004 -8.92,19.926 -19.93,19.926 -11,0 -19.921,-8.922 -19.921,-19.926 0,-11.008 8.921,-19.926 19.921,-19.926 11.01,0 19.93,8.918 19.93,19.926 z" /><path
         id="path64"
         style="fill:none;stroke:#009c82;stroke-width:17.9329;stroke-linecap:butt;stroke-linejoin:round;stroke-miterlimit:10;stroke-dasharray:none;stroke-opacity:1"
         d="m 1026.41,935.633 c 0,11.004 -8.92,19.926 -19.93,19.926 -11,0 -19.921,-8.922 -19.921,-19.926 0,-11.008 8.921,-19.926 19.921,-19.926 11.01,0 19.93,8.918 19.93,19.926 z" /><path
         id="path66"
         style="fill:#009c82;fill-opacity:1;fill-rule:nonzero;stroke:none"
         d="m 1345.3,1112.8 c 0,11 -8.92,19.92 -19.92,19.92 -11.01,0 -19.93,-8.92 -19.93,-19.92 0,-11.01 8.92,-19.93 19.93,-19.93 11,0 19.92,8.92 19.92,19.93 z" /><path
         id="path68"
         style="fill:none;stroke:#009c82;stroke-width:17.9329;stroke-linecap:butt;stroke-linejoin:round;stroke-miterlimit:10;stroke-dasharray:none;stroke-opacity:1"
         d="m 1345.3,1112.8 c 0,11 -8.92,19.92 -19.92,19.92 -11.01,0 -19.93,-8.92 -19.93,-19.92 0,-11.01 8.92,-19.93 19.93,-19.93 11,0 19.92,8.92 19.92,19.93 z" /><path
         id="path70"
         style="fill:#009c82;fill-opacity:1;fill-rule:nonzero;stroke:none"
         d="m 1664.2,935.633 c 0,11.004 -8.93,19.926 -19.93,19.926 -11,0 -19.93,-8.922 -19.93,-19.926 0,-11.008 8.93,-19.926 19.93,-19.926 11,0 19.93,8.918 19.93,19.926 z" /><path
         id="path72"
         style="fill:none;stroke:#009c82;stroke-width:17.9329;stroke-linecap:butt;stroke-linejoin:round;stroke-miterlimit:10;stroke-dasharray:none;stroke-opacity:1"
         d="m 1664.2,935.633 c 0,11.004 -8.93,19.926 -19.93,19.926 -11,0 -19.93,-8.922 -19.93,-19.926 0,-11.008 8.93,-19.926 19.93,-19.926 11,0 19.93,8.918 19.93,19.926 z" /><path
         id="path74"
         style="fill:#009c82;fill-opacity:1;fill-rule:nonzero;stroke:none"
         d="m 1983.09,1112.8 c 0,11 -8.92,19.92 -19.93,19.92 -11,0 -19.93,-8.92 -19.93,-19.92 0,-11.01 8.93,-19.93 19.93,-19.93 11.01,0 19.93,8.92 19.93,19.93 z" /><path
         id="path76"
         style="fill:none;stroke:#009c82;stroke-width:17.9329;stroke-linecap:butt;stroke-linejoin:round;stroke-miterlimit:10;stroke-dasharray:none;stroke-opacity:1"
         d="m 1983.09,1112.8 c 0,11 -8.92,19.92 -19.93,19.92 -11,0 -19.93,-8.92 -19.93,-19.92 0,-11.01 8.93,-19.93 19.93,-19.93 11.01,0 19.93,8.92 19.93,19.93 z" /><path
         id="path78"
         style="fill:#009c82;fill-opacity:1;fill-rule:nonzero;stroke:none"
         d="m 2301.98,935.633 c 0,11.004 -8.92,19.926 -19.93,19.926 -11,0 -19.92,-8.922 -19.92,-19.926 0,-11.008 8.92,-19.926 19.92,-19.926 11.01,0 19.93,8.918 19.93,19.926 z" /><path
         id="path80"
         style="fill:none;stroke:#009c82;stroke-width:17.9329;stroke-linecap:butt;stroke-linejoin:round;stroke-miterlimit:10;stroke-dasharray:none;stroke-opacity:1"
         d="m 2301.98,935.633 c 0,11.004 -8.92,19.926 -19.93,19.926 -11,0 -19.92,-8.922 -19.92,-19.926 0,-11.008 8.92,-19.926 19.92,-19.926 11.01,0 19.93,8.918 19.93,19.926 z" /><path
         id="path82"
         style="fill:#009c82;fill-opacity:1;fill-rule:nonzero;stroke:none"
         d="m 2620.87,1112.8 c 0,11 -8.92,19.92 -19.92,19.92 -11.01,0 -19.93,-8.92 -19.93,-19.92 0,-11.01 8.92,-19.93 19.93,-19.93 11,0 19.92,8.92 19.92,19.93 z" /><path
         id="path84"
         style="fill:none;stroke:#009c82;stroke-width:17.9329;stroke-linecap:butt;stroke-linejoin:round;stroke-miterlimit:10;stroke-dasharray:none;stroke-opacity:1"
         d="m 2620.87,1112.8 c 0,11 -8.92,19.92 -19.92,19.92 -11.01,0 -19.93,-8.92 -19.93,-19.92 0,-11.01 8.92,-19.93 19.93,-19.93 11,0 19.92,8.92 19.92,19.93 z" /><path
         id="path86"
         style="fill:#000000;fill-opacity:1;fill-rule:nonzero;stroke:none"
         d="m 2492.53,937.531 c 0.17,0.688 0.52,1.735 0.52,2.594 0,1.719 -1.74,1.719 -2.08,1.719 -0.17,0 -6.39,-0.516 -9.5,-0.86 -2.94,-0.171 -5.52,-0.515 -8.63,-0.687 -4.15,-0.344 -5.36,-0.516 -5.36,-3.625 0,-1.734 1.74,-1.734 3.46,-1.734 8.81,0 8.81,-1.547 8.81,-3.282 0,-0.687 0,-1.031 -0.86,-4.14 l -24.7,-98.782 c -0.69,-2.593 -0.69,-2.937 -0.69,-3.968 0,-3.797 2.94,-4.5 4.66,-4.5 4.84,0 5.87,3.812 7.25,9.156 l 8.12,32.297 c 12.44,-1.375 19.86,-6.563 19.86,-14.844 0,-1.047 0,-1.734 -0.51,-4.328 -0.69,-2.594 -0.69,-4.656 -0.69,-5.516 0,-10.015 6.56,-16.765 15.36,-16.765 7.95,0 12.09,7.265 13.47,9.672 3.62,6.39 5.87,16.062 5.87,16.75 0,0.875 -0.69,1.562 -1.72,1.562 -1.56,0 -1.73,-0.687 -2.42,-3.453 -2.42,-8.984 -6.05,-21.063 -14.86,-21.063 -3.45,0 -5.69,1.719 -5.69,8.282 0,3.281 0.69,7.078 1.38,9.672 0.69,3.109 0.69,3.281 0.69,5.359 0,10.187 -9.14,15.875 -25.04,17.953 6.22,3.797 12.43,10.531 14.85,13.125 9.84,11.047 16.58,16.578 24.53,16.578 3.97,0 5,-1.031 6.22,-2.078 -6.39,-0.687 -8.81,-5.172 -8.81,-8.625 0,-4.141 3.28,-5.531 5.7,-5.531 4.66,0 8.8,3.969 8.8,9.5 0,5.015 -3.97,10.187 -11.74,10.187 -9.5,0 -17.28,-6.734 -29.53,-20.547 -1.73,-2.078 -8.12,-8.64 -14.52,-11.046 l 17.8,70.968" /></g></g></svg>
