<?xml version="1.0" encoding="UTF-8" standalone="no"?>
<svg
   xmlns:dc="http://purl.org/dc/elements/1.1/"
   xmlns:cc="http://creativecommons.org/ns#"
   xmlns:rdf="http://www.w3.org/1999/02/22-rdf-syntax-ns#"
   xmlns:svg="http://www.w3.org/2000/svg"
   xmlns="http://www.w3.org/2000/svg"
   viewBox="0 0 353.44 145.57333"
   height="145.57333"
   width="353.44"
   xml:space="preserve"
   id="svg2"
   version="1.1"><metadata
     id="metadata8"><rdf:RDF><cc:Work
         rdf:about=""><dc:format>image/svg+xml</dc:format><dc:type
           rdf:resource="http://purl.org/dc/dcmitype/StillImage" /></cc:Work></rdf:RDF></metadata><defs
     id="defs6"><clipPath
       id="clipPath28"
       clipPathUnits="userSpaceOnUse"><path
         id="path26"
         d="m 49.8086,49.8086 h 2551.2 v 992.109 h -2551.2 z" /></clipPath></defs><g
     transform="matrix(1.3333333,0,0,-1.3333333,0,145.57333)"
     id="g10"><g
       transform="scale(0.1)"
       id="g12"><path
         id="path14"
         style="fill:none;stroke:#000000;stroke-width:9.9628;stroke-linecap:butt;stroke-linejoin:miter;stroke-miterlimit:10;stroke-dasharray:none;stroke-opacity:1"
         d="M 49.8086,545.863 H 2572.11" /><path
         id="path16"
         style="fill:#000000;fill-opacity:1;fill-rule:nonzero;stroke:none"
         d="m 2601.01,545.863 -46.23,23.114 17.33,-23.114 -17.33,-23.113" /><path
         id="path18"
         style="fill:none;stroke:#000000;stroke-width:9.9628;stroke-linecap:butt;stroke-linejoin:miter;stroke-miterlimit:10;stroke-dasharray:none;stroke-opacity:1"
         d="M 1325.41,49.8086 V 1013.03" /><path
         id="path20"
         style="fill:#000000;fill-opacity:1;fill-rule:nonzero;stroke:none"
         d="m 1325.41,1041.92 -23.12,-46.229 23.12,17.339 23.11,-17.339" /><g
         id="g22"><g
           clip-path="url(#clipPath28)"
           id="g24"><path
             id="path30"
             style="fill:none;stroke:#009c82;stroke-width:17.9329;stroke-linecap:butt;stroke-linejoin:round;stroke-miterlimit:10;stroke-dasharray:none;stroke-opacity:1"
             d="m 49.8086,2067.11 c 0,0 76.8044,-478.53 106.3004,-628.9 29.5,-150.37 76.801,-348.26 106.301,-454.847 29.496,-106.586 76.801,-241.941 106.301,-313.351 29.496,-71.407 76.801,-157.336 106.297,-201.309 29.5,-43.973 76.805,-92.195 106.301,-115.617 29.5,-23.422 76.8,-44.289 106.3,-53.18 29.496,-8.89 76.801,-11.375 106.301,-10.894 29.496,0.476 76.801,8.793 106.297,14.336 29.5,5.547 76.805,18.453 106.303,25.621 29.5,7.168 76.8,19.84 106.3,26.051 29.49,6.214 76.8,15.195 106.3,18.73 29.5,3.539 76.8,6.762 106.3,6.762 29.5,0 76.8,-3.223 106.3,-6.762 29.5,-3.535 76.8,-12.516 106.3,-18.73 29.49,-6.211 76.8,-18.883 106.3,-26.051 29.49,-7.168 76.8,-20.074 106.3,-25.621 29.5,-5.543 76.8,-13.86 106.3,-14.336 29.5,-0.481 76.8,2.004 106.3,10.894 29.49,8.891 76.8,29.758 106.3,53.18 29.49,23.422 76.8,71.644 106.3,115.617 29.49,43.973 76.8,129.902 106.3,201.309 29.5,71.41 76.8,206.765 106.3,313.351 29.49,106.587 76.8,304.477 106.3,454.847 29.49,150.37 106.3,628.9 106.3,628.9" /></g></g><path
         id="path32"
         style="fill:#000000;fill-opacity:1;fill-rule:nonzero;stroke:none"
         d="m 2511.72,678.422 h 15.87 c 3.29,0 5.02,0 5.02,3.109 0,1.907 -1.03,1.907 -4.48,1.907 h -15.21 l 6.39,25.203 c 0.69,2.422 0.69,2.765 0.69,3.968 0,2.766 -2.25,4.329 -4.48,4.329 -1.39,0 -5.36,-0.516 -6.74,-6.047 l -6.73,-27.453 h -16.24 c -3.45,0 -5.01,0 -5.01,-3.282 0,-1.734 1.22,-1.734 4.5,-1.734 h 15.36 l -11.39,-45.594 c -1.39,-6.047 -1.91,-7.765 -1.91,-10.015 0,-8.11 5.7,-15.547 15.37,-15.547 17.44,0 26.77,25.218 26.77,26.422 0,1.046 -0.69,1.562 -1.73,1.562 -0.35,0 -1.04,0 -1.38,-0.687 -0.17,-0.172 -0.34,-0.344 -1.55,-3.11 -3.64,-8.64 -11.57,-20.719 -21.59,-20.719 -5.19,0 -5.53,4.313 -5.53,8.11 0,0.172 0,3.453 0.51,5.531 l 13.49,54.047" /></g></g></svg>
