<?xml version="1.0" encoding="UTF-8" standalone="no"?>
<svg
   xmlns:dc="http://purl.org/dc/elements/1.1/"
   xmlns:cc="http://creativecommons.org/ns#"
   xmlns:rdf="http://www.w3.org/1999/02/22-rdf-syntax-ns#"
   xmlns:svg="http://www.w3.org/2000/svg"
   xmlns="http://www.w3.org/2000/svg"
   id="svg22"
   version="1.2"
   viewBox="0 0 265.08 109.18"
   height="109.18pt"
   width="265.08pt">
  <metadata
     id="metadata26">
    <rdf:RDF>
      <cc:Work
         rdf:about="">
        <dc:format>image/svg+xml</dc:format>
        <dc:type
           rdf:resource="http://purl.org/dc/dcmitype/StillImage" />
      </cc:Work>
    </rdf:RDF>
  </metadata>
  <defs
     id="defs5">
    <clipPath
       id="clip1">
      <path
         id="path2"
         d="M 4.980469 20 L 260.101563 20 L 260.101563 89 L 4.980469 89 Z M 4.980469 20 " />
    </clipPath>
  </defs>
  <g
     id="surface1">
    <path
       id="path7"
       transform="matrix(0.1,0,0,-0.1,0,109.18)"
       d="M 49.804688 545.8625 L 2572.109375 545.8625 "
       style="fill:none;stroke-width:9.9628;stroke-linecap:butt;stroke-linejoin:miter;stroke:rgb(0%,0%,0%);stroke-opacity:1;stroke-miterlimit:10;" />
    <path
       id="path9"
       d="M 260.101563 54.59375 L 255.476563 52.28125 L 257.210938 54.59375 L 255.476563 56.90625 "
       style=" stroke:none;fill-rule:nonzero;fill:rgb(0%,0%,0%);fill-opacity:1;" />
    <path
       id="path11"
       transform="matrix(0.1,0,0,-0.1,0,109.18)"
       d="M 1325.390625 49.807812 L 1325.390625 1013.010938 "
       style="fill:none;stroke-width:9.9628;stroke-linecap:butt;stroke-linejoin:miter;stroke:rgb(0%,0%,0%);stroke-opacity:1;stroke-miterlimit:10;" />
    <path
       id="path13"
       d="M 132.539063 4.988281 L 130.230469 9.609375 L 132.539063 7.878906 L 134.851563 9.609375 "
       style=" stroke:none;fill-rule:nonzero;fill:rgb(0%,0%,0%);fill-opacity:1;" />
    <g
       id="g17"
       clip-rule="nonzero"
       clip-path="url(#clip1)">
      <path
         id="path15"
         transform="matrix(0.1,0,0,-0.1,0,109.18)"
         d="M 49.804688 380.510937 L 475 215.159375 L 475 711.214062 L 900.195313 876.565625 L 900.195313 380.510937 L 1325.390625 215.159375 L 1325.390625 711.214062 L 1750.625 876.565625 L 1750.625 380.510937 L 2175.820313 215.159375 L 2175.820313 711.214062 L 2601.015625 876.565625 "
         style="fill:none;stroke-width:17.9329;stroke-linecap:butt;stroke-linejoin:round;stroke:rgb(52.146912%,80.859375%,89.451599%);stroke-opacity:1;stroke-miterlimit:10;" />
    </g>
    <path
       id="path19"
       d="M 251.171875 41.335938 L 252.757813 41.335938 C 253.089844 41.335938 253.261719 41.335938 253.261719 41.027344 C 253.261719 40.835938 253.15625 40.835938 252.8125 40.835938 L 251.292969 40.835938 L 251.929688 38.316406 C 252 38.074219 252 38.039063 252 37.917969 C 252 37.640625 251.773438 37.484375 251.550781 37.484375 C 251.414063 37.484375 251.015625 37.539063 250.878906 38.089844 L 250.203125 40.835938 L 248.582031 40.835938 C 248.234375 40.835938 248.078125 40.835938 248.078125 41.164063 C 248.078125 41.335938 248.203125 41.335938 248.53125 41.335938 L 250.066406 41.335938 L 248.925781 45.898438 C 248.789063 46.5 248.734375 46.671875 248.734375 46.898438 C 248.734375 47.710938 249.304688 48.453125 250.273438 48.453125 C 252.015625 48.453125 252.949219 45.929688 252.949219 45.8125 C 252.949219 45.707031 252.882813 45.65625 252.777344 45.65625 C 252.742188 45.65625 252.671875 45.65625 252.640625 45.722656 C 252.621094 45.742188 252.605469 45.757813 252.484375 46.035156 C 252.121094 46.898438 251.328125 48.105469 250.324219 48.105469 C 249.804688 48.105469 249.773438 47.675781 249.773438 47.296875 C 249.773438 47.277344 249.773438 46.949219 249.824219 46.742188 L 251.171875 41.335938 "
       style=" stroke:none;fill-rule:nonzero;fill:rgb(0%,0%,0%);fill-opacity:1;" />
  </g>
</svg>
