<?xml version="1.0" encoding="UTF-8" standalone="no"?>
<svg
   xmlns:dc="http://purl.org/dc/elements/1.1/"
   xmlns:cc="http://creativecommons.org/ns#"
   xmlns:rdf="http://www.w3.org/1999/02/22-rdf-syntax-ns#"
   xmlns:svg="http://www.w3.org/2000/svg"
   xmlns="http://www.w3.org/2000/svg"
   viewBox="0 0 353.44 145.57333"
   height="145.57333"
   width="353.44"
   xml:space="preserve"
   id="svg2"
   version="1.1"><metadata
     id="metadata8"><rdf:RDF><cc:Work
         rdf:about=""><dc:format>image/svg+xml</dc:format><dc:type
           rdf:resource="http://purl.org/dc/dcmitype/StillImage" /></cc:Work></rdf:RDF></metadata><defs
     id="defs6"><clipPath
       id="clipPath28"
       clipPathUnits="userSpaceOnUse"><path
         id="path26"
         d="m 49.8086,49.8086 h 2551.2 v 992.109 h -2551.2 z" /></clipPath></defs><g
     transform="matrix(1.3333333,0,0,-1.3333333,0,145.57333)"
     id="g10"><g
       transform="scale(0.1)"
       id="g12"><path
         id="path14"
         style="fill:none;stroke:#000000;stroke-width:9.9628;stroke-linecap:butt;stroke-linejoin:miter;stroke-miterlimit:10;stroke-dasharray:none;stroke-opacity:1"
         d="M 49.8086,545.863 H 2572.11" /><path
         id="path16"
         style="fill:#000000;fill-opacity:1;fill-rule:nonzero;stroke:none"
         d="m 2601.01,545.863 -46.23,23.114 17.33,-23.114 -17.33,-23.113" /><path
         id="path18"
         style="fill:none;stroke:#000000;stroke-width:9.9628;stroke-linecap:butt;stroke-linejoin:miter;stroke-miterlimit:10;stroke-dasharray:none;stroke-opacity:1"
         d="M 1325.41,49.8086 V 1013.03" /><path
         id="path20"
         style="fill:#000000;fill-opacity:1;fill-rule:nonzero;stroke:none"
         d="m 1325.41,1041.92 -23.12,-46.229 23.12,17.339 23.11,-17.339" /><g
         id="g22"><g
           clip-path="url(#clipPath28)"
           id="g24"><path
             id="path30"
             style="fill:none;stroke:#009c82;stroke-width:17.9329;stroke-linecap:butt;stroke-linejoin:round;stroke-miterlimit:10;stroke-dasharray:none;stroke-opacity:1"
             d="m 49.8086,215.16 c 0,0 36.8672,10.801 51.0234,23.238 14.16,12.438 36.867,43.278 51.027,66.403 14.157,23.125 36.864,69.699 51.024,100.265 14.156,30.567 36.863,86.325 51.023,120.039 14.157,33.715 36.864,90.825 51.024,122.954 14.16,32.125 36.863,82.566 51.023,108.593 14.16,26.028 36.867,62.723 51.024,78.996 14.16,16.278 36.867,34.067 51.023,38.301 14.16,4.235 36.867,0.614 51.023,-7.785 14.161,-8.398 36.868,-32.898 51.028,-52.754 14.156,-19.855 36.863,-61.832 51.023,-90.355 14.156,-28.524 36.864,-82.047 51.024,-115.231 14.16,-33.183 36.863,-90.738 51.023,-123.922 14.16,-33.179 36.863,-86.707 51.024,-115.23 14.16,-28.524 36.867,-70.5 51.023,-90.356 14.16,-19.855 36.867,-44.351 51.023,-52.753 14.161,-8.399 36.868,-12.016 51.024,-7.786 14.16,4.235 36.867,22.024 51.027,38.301 14.156,16.277 36.868,52.977 51.028,79.004 14.15,26.027 36.86,76.461 51.02,108.586 14.16,32.129 36.86,89.238 51.02,122.953 14.16,33.715 36.87,89.473 51.03,120.039 14.16,30.567 36.86,77.141 51.02,100.266 14.16,23.125 36.87,53.961 51.02,66.398 14.16,12.438 36.87,23.242 51.03,23.242 14.16,0 36.86,-10.804 51.02,-23.242 14.16,-12.437 36.87,-43.273 51.03,-66.398 14.15,-23.125 36.86,-69.699 51.02,-100.266 14.16,-30.566 36.86,-86.324 51.02,-120.039 14.16,-33.715 36.87,-90.824 51.03,-122.953 14.16,-32.125 36.86,-82.559 51.02,-108.586 14.16,-26.027 36.87,-62.727 51.02,-79.004 14.16,-16.277 36.87,-34.066 51.03,-38.301 14.16,-4.23 36.86,-0.613 51.03,7.786 14.15,8.402 36.86,32.898 51.02,52.753 14.15,19.856 36.86,61.832 51.02,90.356 14.16,28.523 36.87,82.051 51.03,115.23 14.16,33.184 36.86,90.739 51.02,123.922 14.16,33.184 36.87,86.707 51.02,115.231 14.16,28.523 36.87,70.5 51.03,90.355 14.16,19.856 36.86,44.356 51.02,52.754 14.16,8.399 36.87,12.02 51.03,7.785 14.15,-4.234 36.86,-22.023 51.02,-38.301 14.16,-16.273 36.86,-52.968 51.02,-78.996 14.16,-26.027 36.87,-76.468 51.03,-108.593 14.16,-32.129 36.86,-89.239 51.02,-122.954 14.16,-33.714 36.87,-89.472 51.02,-120.039 14.16,-30.566 36.87,-77.14 51.03,-100.265 14.16,-23.125 36.86,-53.965 51.02,-66.403 14.16,-12.437 51.03,-23.238 51.03,-23.238" /></g></g><path
         id="path32"
         style="fill:#000000;fill-opacity:1;fill-rule:nonzero;stroke:none"
         d="m 2511.72,678.422 h 15.87 c 3.29,0 5.02,0 5.02,3.109 0,1.907 -1.03,1.907 -4.48,1.907 h -15.21 l 6.39,25.203 c 0.69,2.422 0.69,2.765 0.69,3.968 0,2.766 -2.25,4.329 -4.48,4.329 -1.39,0 -5.36,-0.516 -6.74,-6.047 l -6.73,-27.453 h -16.24 c -3.45,0 -5.01,0 -5.01,-3.282 0,-1.734 1.22,-1.734 4.5,-1.734 h 15.36 l -11.39,-45.594 c -1.39,-6.047 -1.91,-7.765 -1.91,-10.015 0,-8.11 5.7,-15.547 15.37,-15.547 17.44,0 26.77,25.218 26.77,26.422 0,1.046 -0.69,1.562 -1.73,1.562 -0.35,0 -1.04,0 -1.38,-0.687 -0.17,-0.172 -0.34,-0.344 -1.55,-3.11 -3.64,-8.64 -11.57,-20.719 -21.59,-20.719 -5.19,0 -5.53,4.313 -5.53,8.11 0,0.172 0,3.453 0.51,5.531 l 13.49,54.047" /></g></g></svg>
