<?xml version="1.0" encoding="UTF-8" standalone="no"?>
<svg
   xmlns:dc="http://purl.org/dc/elements/1.1/"
   xmlns:cc="http://creativecommons.org/ns#"
   xmlns:rdf="http://www.w3.org/1999/02/22-rdf-syntax-ns#"
   xmlns:svg="http://www.w3.org/2000/svg"
   xmlns="http://www.w3.org/2000/svg"
   viewBox="0 0 353.44 145.57333"
   height="145.57333"
   width="353.44"
   xml:space="preserve"
   id="svg2"
   version="1.1"><metadata
     id="metadata8"><rdf:RDF><cc:Work
         rdf:about=""><dc:format>image/svg+xml</dc:format><dc:type
           rdf:resource="http://purl.org/dc/dcmitype/StillImage" /></cc:Work></rdf:RDF></metadata><defs
     id="defs6"><clipPath
       id="clipPath28"
       clipPathUnits="userSpaceOnUse"><path
         id="path26"
         d="m 49.8086,49.8086 h 2551.2 v 992.109 h -2551.2 z" /></clipPath></defs><g
     transform="matrix(1.3333333,0,0,-1.3333333,0,145.57333)"
     id="g10"><g
       transform="scale(0.1)"
       id="g12"><path
         id="path14"
         style="fill:none;stroke:#000000;stroke-width:9.9628;stroke-linecap:butt;stroke-linejoin:miter;stroke-miterlimit:10;stroke-dasharray:none;stroke-opacity:1"
         d="M 49.8086,545.863 H 2572.11" /><path
         id="path16"
         style="fill:#000000;fill-opacity:1;fill-rule:nonzero;stroke:none"
         d="m 2601.01,545.863 -46.23,23.114 17.33,-23.114 -17.33,-23.113" /><path
         id="path18"
         style="fill:none;stroke:#000000;stroke-width:9.9628;stroke-linecap:butt;stroke-linejoin:miter;stroke-miterlimit:10;stroke-dasharray:none;stroke-opacity:1"
         d="M 1325.41,49.8086 V 1013.03" /><path
         id="path20"
         style="fill:#000000;fill-opacity:1;fill-rule:nonzero;stroke:none"
         d="m 1325.41,1041.92 -23.12,-46.229 23.12,17.339 23.11,-17.339" /><g
         id="g22"><g
           clip-path="url(#clipPath28)"
           id="g24"><path
             id="path30"
             style="fill:none;stroke:#db0651;stroke-width:17.9329;stroke-linecap:butt;stroke-linejoin:round;stroke-miterlimit:10;stroke-dasharray:none;stroke-opacity:1"
             d="m 49.8086,545.863 c 0,0 36.8672,-90.32 51.0234,-121.726 14.16,-31.41 36.867,-80.016 51.027,-104.645 14.157,-24.625 36.864,-58.465 51.024,-72.847 14.156,-14.383 36.863,-28.692 51.023,-30.813 14.157,-2.125 36.864,5.07 51.024,15.508 14.16,10.441 36.863,38.187 51.023,59.723 14.16,21.535 36.867,65.886 51.024,95.488 14.16,29.601 36.867,84.355 51.023,117.867 14.16,33.516 36.867,90.957 51.023,123.68 14.161,32.718 36.868,84.816 51.028,112.148 14.156,27.328 36.863,66.723 51.023,84.824 14.156,18.102 36.864,39.297 51.024,45.629 14.16,6.328 36.863,6.328 51.023,0 14.16,-6.332 36.863,-27.527 51.024,-45.629 14.16,-18.101 36.867,-57.496 51.023,-84.824 14.16,-27.332 36.867,-79.43 51.023,-112.148 14.161,-32.723 36.868,-90.164 51.024,-123.68 14.16,-33.512 36.867,-88.266 51.027,-117.867 14.156,-29.602 36.868,-73.953 51.028,-95.488 14.15,-21.536 36.86,-49.282 51.02,-59.723 14.16,-10.438 36.86,-17.633 51.02,-15.508 14.16,2.121 36.87,16.43 51.03,30.813 14.16,14.382 36.86,48.222 51.02,72.847 14.16,24.629 36.87,73.231 51.02,104.641 14.16,31.406 36.87,87.949 51.03,121.73 14.16,33.782 36.86,90.325 51.02,121.735 14.16,31.406 36.87,80.011 51.03,104.636 14.15,24.625 36.86,58.465 51.02,72.848 14.16,14.383 36.86,28.691 51.02,30.813 14.16,2.125 36.87,-5.071 51.03,-15.508 14.16,-10.438 36.86,-38.188 51.02,-59.723 14.16,-21.535 36.87,-65.883 51.02,-95.488 14.16,-29.602 36.87,-84.356 51.03,-117.867 14.16,-33.516 36.86,-90.957 51.03,-123.676 14.15,-32.723 36.86,-84.82 51.02,-112.149 14.15,-27.332 36.86,-66.726 51.02,-84.828 14.16,-18.097 36.87,-39.297 51.03,-45.625 14.16,-6.332 36.86,-6.332 51.02,0 14.16,6.328 36.87,27.528 51.02,45.625 14.16,18.102 36.87,57.496 51.03,84.828 14.16,27.329 36.86,79.426 51.02,112.149 14.16,32.719 36.87,90.16 51.03,123.676 14.15,33.511 36.86,88.265 51.02,117.867 14.16,29.605 36.86,73.953 51.02,95.488 14.16,21.535 36.87,49.285 51.03,59.723 14.16,10.437 36.86,17.633 51.02,15.508 14.16,-2.122 36.87,-16.426 51.02,-30.809 14.16,-14.383 36.87,-48.227 51.03,-72.852 14.16,-24.629 36.86,-73.234 51.02,-104.64 14.16,-31.41 51.03,-121.731 51.03,-121.731" /></g></g><path
         id="path32"
         style="fill:#000000;fill-opacity:1;fill-rule:nonzero;stroke:none"
         d="m 2511.72,678.422 h 15.87 c 3.29,0 5.02,0 5.02,3.109 0,1.907 -1.03,1.907 -4.48,1.907 h -15.21 l 6.39,25.203 c 0.69,2.422 0.69,2.765 0.69,3.968 0,2.766 -2.25,4.329 -4.48,4.329 -1.39,0 -5.36,-0.516 -6.74,-6.047 l -6.73,-27.453 h -16.24 c -3.45,0 -5.01,0 -5.01,-3.282 0,-1.734 1.22,-1.734 4.5,-1.734 h 15.36 l -11.39,-45.594 c -1.39,-6.047 -1.91,-7.765 -1.91,-10.015 0,-8.11 5.7,-15.547 15.37,-15.547 17.44,0 26.77,25.218 26.77,26.422 0,1.046 -0.69,1.562 -1.73,1.562 -0.35,0 -1.04,0 -1.38,-0.687 -0.17,-0.172 -0.34,-0.344 -1.55,-3.11 -3.64,-8.64 -11.57,-20.719 -21.59,-20.719 -5.19,0 -5.53,4.313 -5.53,8.11 0,0.172 0,3.453 0.51,5.531 l 13.49,54.047" /></g></g></svg>
