<?xml version="1.0" encoding="UTF-8" standalone="no"?>
<svg
   xmlns:dc="http://purl.org/dc/elements/1.1/"
   xmlns:cc="http://creativecommons.org/ns#"
   xmlns:rdf="http://www.w3.org/1999/02/22-rdf-syntax-ns#"
   xmlns:svg="http://www.w3.org/2000/svg"
   xmlns="http://www.w3.org/2000/svg"
   viewBox="0 0 353.44 145.57333"
   height="145.57333"
   width="353.44"
   xml:space="preserve"
   id="svg2"
   version="1.1"><metadata
     id="metadata8"><rdf:RDF><cc:Work
         rdf:about=""><dc:format>image/svg+xml</dc:format><dc:type
           rdf:resource="http://purl.org/dc/dcmitype/StillImage" /></cc:Work></rdf:RDF></metadata><defs
     id="defs6"><clipPath
       id="clipPath28"
       clipPathUnits="userSpaceOnUse"><path
         id="path26"
         d="m 49.8086,49.8086 h 2551.2 v 992.133 h -2551.2 z" /></clipPath></defs><g
     transform="matrix(1.3333333,0,0,-1.3333333,0,145.57333)"
     id="g10"><g
       transform="scale(0.1)"
       id="g12"><path
         id="path14"
         style="fill:none;stroke:#000000;stroke-width:9.9628;stroke-linecap:butt;stroke-linejoin:miter;stroke-miterlimit:10;stroke-dasharray:none;stroke-opacity:1"
         d="M 49.8086,545.875 H 2572.11" /><path
         id="path16"
         style="fill:#000000;fill-opacity:1;fill-rule:nonzero;stroke:none"
         d="m 2601.01,545.875 -46.23,23.113 17.33,-23.113 -17.33,-23.113" /><path
         id="path18"
         style="fill:none;stroke:#000000;stroke-width:9.9628;stroke-linecap:butt;stroke-linejoin:miter;stroke-miterlimit:10;stroke-dasharray:none;stroke-opacity:1"
         d="M 1325.41,49.8086 V 1013.05" /><path
         id="path20"
         style="fill:#000000;fill-opacity:1;fill-rule:nonzero;stroke:none"
         d="m 1325.41,1041.94 -23.12,-46.225 23.12,17.335 23.11,-17.335" /><g
         id="g22"><g
           clip-path="url(#clipPath28)"
           id="g24"><path
             id="path30"
             style="fill:none;stroke:#db0651;stroke-width:17.9329;stroke-linecap:butt;stroke-linejoin:round;stroke-miterlimit:10;stroke-dasharray:none;stroke-opacity:1"
             d="m 49.8086,-3025.81 c 0,0 76.8044,1403.31 106.3004,1809.26 29.5,405.945 76.801,875.237 106.301,1116.503 29.496,241.266 76.801,496.047 106.301,622.379 29.496,126.328 76.801,237.199 106.297,288.113 29.5,50.91 76.805,72.953 106.301,78.832 29.5,5.879 76.8,-19.621 106.3,-36.461 29.496,-16.839 76.801,-60.671 106.301,-84.906 29.496,-24.234 76.801,-67.535 106.297,-89.75 29.5,-22.219 76.805,-54.746 106.303,-70.375 29.5,-15.629 76.8,-34.039 106.3,-42.273 29.49,-8.239 76.8,-14.364 106.3,-17.086 29.5,-2.723 76.8,-1.844 106.3,-2.551 29.5,-0.707 76.8,0.172 106.3,-2.551 29.5,-2.726 76.8,-8.851 106.3,-17.086 29.49,-8.234 76.8,-26.644 106.3,-42.273 29.49,-15.633 76.8,-48.16 106.3,-70.375 29.5,-22.219 76.8,-65.516 106.3,-89.75 29.5,-24.235 76.8,-68.067 106.3,-84.906 29.49,-16.84 76.8,-42.34 106.3,-36.461 29.49,5.879 76.8,27.918 106.3,78.832 29.49,50.914 76.8,161.785 106.3,288.113 29.5,126.328 76.8,381.109 106.3,622.382 29.49,241.26 76.8,710.56 106.3,1116.5 29.49,405.94 106.3,1809.26 106.3,1809.26" /></g></g><path
         id="path32"
         style="fill:#000000;fill-opacity:1;fill-rule:nonzero;stroke:none"
         d="m 2511.72,678.422 h 15.87 c 3.29,0 5.02,0 5.02,3.109 0,1.907 -1.03,1.907 -4.48,1.907 h -15.21 l 6.39,25.203 c 0.69,2.422 0.69,2.765 0.69,3.968 0,2.766 -2.25,4.329 -4.48,4.329 -1.39,0 -5.36,-0.516 -6.74,-6.047 l -6.73,-27.453 h -16.24 c -3.45,0 -5.01,0 -5.01,-3.282 0,-1.734 1.22,-1.734 4.5,-1.734 h 15.36 l -11.39,-45.594 c -1.39,-6.047 -1.91,-7.765 -1.91,-10.015 0,-8.11 5.7,-15.547 15.37,-15.547 17.44,0 26.77,25.218 26.77,26.422 0,1.046 -0.69,1.562 -1.73,1.562 -0.35,0 -1.04,0 -1.38,-0.687 -0.17,-0.172 -0.34,-0.344 -1.55,-3.11 -3.64,-8.64 -11.57,-20.719 -21.59,-20.719 -5.19,0 -5.53,4.313 -5.53,8.11 0,0.172 0,3.453 0.51,5.531 l 13.49,54.047" /></g></g></svg>
