<?xml version="1.0" encoding="UTF-8" standalone="no"?>
<svg
   xmlns:dc="http://purl.org/dc/elements/1.1/"
   xmlns:cc="http://creativecommons.org/ns#"
   xmlns:rdf="http://www.w3.org/1999/02/22-rdf-syntax-ns#"
   xmlns:svg="http://www.w3.org/2000/svg"
   xmlns="http://www.w3.org/2000/svg"
   id="svg59"
   version="1.2"
   viewBox="0 0 391.49 75.01"
   height="75.01pt"
   width="391.49pt">
  <metadata
     id="metadata65">
    <rdf:RDF>
      <cc:Work
         rdf:about="">
        <dc:format>image/svg+xml</dc:format>
        <dc:type
           rdf:resource="http://purl.org/dc/dcmitype/StillImage" />
      </cc:Work>
    </rdf:RDF>
  </metadata>
  <defs
     id="defs63" />
  <g
     id="surface1">
    <path
       id="path2"
       d="M 102.476563 37.78125 C 102.476563 37.28125 102.441406 37.28125 101.886719 37.28125 C 100.609375 38.386719 98.695313 38.386719 98.3125 38.386719 L 97.984375 38.386719 L 97.984375 39.128906 L 98.3125 39.128906 C 98.917969 39.128906 99.832031 39.027344 100.523438 38.800781 L 100.523438 47.867188 L 98.125 47.867188 L 98.125 48.609375 C 98.847656 48.574219 100.664063 48.574219 101.472656 48.574219 C 102.285156 48.574219 104.117188 48.574219 104.839844 48.609375 L 104.839844 47.867188 L 102.476563 47.867188 L 102.476563 37.78125 "
       style=" stroke:none;fill-rule:nonzero;fill:rgb(0%,0%,0%);fill-opacity:1;" />
    <path
       id="path4"
       d="M 121.257813 57.617188 C 121.257813 57.117188 121.121094 56.476563 120.515625 56.476563 C 120.171875 56.476563 119.773438 56.910156 119.773438 57.253906 C 119.773438 57.410156 119.84375 57.511719 119.980469 57.667969 C 120.238281 57.960938 120.566406 58.429688 120.566406 59.238281 C 120.566406 59.863281 120.1875 60.847656 119.910156 61.382813 C 119.429688 62.332031 118.632813 63.144531 117.734375 63.144531 C 116.648438 63.144531 116.234375 62.453125 116.042969 61.484375 C 116.234375 61.035156 116.628906 59.914063 116.628906 59.464844 C 116.628906 59.273438 116.5625 59.121094 116.335938 59.121094 C 116.214844 59.121094 116.078125 59.1875 115.992188 59.324219 C 115.746094 59.707031 115.523438 61.070313 115.542969 61.433594 C 115.214844 62.074219 114.28125 63.144531 113.175781 63.144531 C 112.019531 63.144531 111.707031 62.125 111.707031 61.140625 C 111.707031 59.34375 112.832031 57.773438 113.140625 57.339844 C 113.3125 57.082031 113.433594 56.910156 113.433594 56.875 C 113.433594 56.753906 113.367188 56.5625 113.210938 56.5625 C 112.933594 56.5625 112.847656 56.789063 112.710938 56.996094 C 111.828125 58.359375 111.207031 60.277344 111.207031 61.933594 C 111.207031 63.003906 111.605469 64.285156 112.898438 64.285156 C 114.332031 64.285156 115.230469 63.058594 115.59375 62.402344 C 115.730469 63.367188 116.25 64.285156 117.511719 64.285156 C 118.824219 64.285156 119.652344 63.125 120.273438 61.726563 C 120.722656 60.726563 121.257813 58.566406 121.257813 57.617188 "
       style=" stroke:none;fill-rule:nonzero;fill:rgb(0%,0%,100%);fill-opacity:1;" />
    <path
       id="path6"
       d="M 124.933594 59.070313 C 124.933594 58.792969 124.933594 58.785156 124.695313 58.785156 C 124.40625 59.105469 123.8125 59.546875 122.585938 59.546875 L 122.585938 59.890625 C 122.859375 59.890625 123.453125 59.890625 124.109375 59.582031 L 124.109375 65.792969 C 124.109375 66.222656 124.074219 66.363281 123.027344 66.363281 L 122.65625 66.363281 L 122.65625 66.710938 C 122.976563 66.6875 124.132813 66.6875 124.527344 66.6875 C 124.921875 66.6875 126.066406 66.6875 126.386719 66.710938 L 126.386719 66.363281 L 126.015625 66.363281 C 124.96875 66.363281 124.933594 66.222656 124.933594 65.792969 L 124.933594 59.070313 "
       style=" stroke:none;fill-rule:nonzero;fill:rgb(0%,0%,100%);fill-opacity:1;" />
    <path
       id="path8"
       d="M 272.574219 37.78125 C 272.574219 37.28125 272.539063 37.28125 271.988281 37.28125 C 270.710938 38.386719 268.792969 38.386719 268.414063 38.386719 L 268.085938 38.386719 L 268.085938 39.128906 L 268.414063 39.128906 C 269.015625 39.128906 269.933594 39.027344 270.621094 38.800781 L 270.621094 47.867188 L 268.222656 47.867188 L 268.222656 48.609375 C 268.949219 48.574219 270.761719 48.574219 271.574219 48.574219 C 272.386719 48.574219 274.214844 48.574219 274.941406 48.609375 L 274.941406 47.867188 L 272.574219 47.867188 L 272.574219 37.78125 "
       style=" stroke:none;fill-rule:nonzero;fill:rgb(0%,0%,0%);fill-opacity:1;" />
    <path
       id="path10"
       d="M 288.890625 57.652344 C 288.890625 56.5625 288.339844 56.496094 288.203125 56.496094 C 287.789063 56.496094 287.40625 56.910156 287.40625 57.253906 C 287.40625 57.460938 287.527344 57.582031 287.597656 57.652344 C 287.769531 57.808594 288.21875 58.273438 288.21875 59.171875 C 288.21875 59.894531 287.183594 63.9375 285.109375 63.9375 C 284.054688 63.9375 283.851563 63.058594 283.851563 62.417969 C 283.851563 61.554688 284.246094 60.347656 284.714844 59.101563 C 284.988281 58.394531 285.058594 58.222656 285.058594 57.875 C 285.058594 57.152344 284.539063 56.496094 283.695313 56.496094 C 282.105469 56.496094 281.464844 58.996094 281.464844 59.136719 C 281.464844 59.207031 281.535156 59.292969 281.65625 59.292969 C 281.8125 59.292969 281.828125 59.222656 281.898438 58.980469 C 282.3125 57.496094 282.984375 56.839844 283.640625 56.839844 C 283.796875 56.839844 284.089844 56.839844 284.089844 57.410156 C 284.089844 57.859375 283.902344 58.359375 283.640625 59.015625 C 282.8125 61.226563 282.8125 61.761719 282.8125 62.175781 C 282.8125 62.554688 282.867188 63.261719 283.398438 63.746094 C 284.023438 64.285156 284.886719 64.285156 285.039063 64.285156 C 287.90625 64.285156 288.890625 58.636719 288.890625 57.652344 "
       style=" stroke:none;fill-rule:nonzero;fill:rgb(0%,0%,100%);fill-opacity:1;" />
    <path
       id="path12"
       d="M 291.394531 62.429688 C 291.191406 62.441406 291.144531 62.453125 291.144531 62.5625 C 291.144531 62.679688 291.203125 62.679688 291.417969 62.679688 L 291.964844 62.679688 C 292.976563 62.679688 293.429688 63.515625 293.429688 64.660156 C 293.429688 66.222656 292.621094 66.636719 292.039063 66.636719 C 291.464844 66.636719 290.488281 66.363281 290.140625 65.578125 C 290.523438 65.636719 290.867188 65.421875 290.867188 64.992188 C 290.867188 64.648438 290.617188 64.410156 290.285156 64.410156 C 289.996094 64.410156 289.6875 64.574219 289.6875 65.027344 C 289.6875 66.089844 290.75 66.960938 292.074219 66.960938 C 293.492188 66.960938 294.539063 65.875 294.539063 64.671875 C 294.539063 63.574219 293.65625 62.714844 292.515625 62.515625 C 293.550781 62.214844 294.21875 61.347656 294.21875 60.417969 C 294.21875 59.472656 293.242188 58.785156 292.085938 58.785156 C 290.890625 58.785156 290.011719 59.511719 290.011719 60.378906 C 290.011719 60.855469 290.378906 60.953125 290.558594 60.953125 C 290.808594 60.953125 291.09375 60.773438 291.09375 60.417969 C 291.09375 60.035156 290.808594 59.867188 290.546875 59.867188 C 290.476563 59.867188 290.453125 59.867188 290.414063 59.878906 C 290.867188 59.070313 291.988281 59.070313 292.046875 59.070313 C 292.441406 59.070313 293.21875 59.246094 293.21875 60.417969 C 293.21875 60.644531 293.179688 61.308594 292.835938 61.824219 C 292.476563 62.347656 292.074219 62.382813 291.753906 62.394531 L 291.394531 62.429688 "
       style=" stroke:none;fill-rule:nonzero;fill:rgb(0%,0%,100%);fill-opacity:1;" />
    <path
       id="path14"
       d="M 185.933594 37.21875 L 174.554688 37.21875 L 174.207031 41.3125 L 174.933594 41.3125 C 175.089844 39.429688 175.226563 37.960938 177.714844 37.960938 L 179.113281 37.960938 L 179.113281 48.167969 L 176.503906 48.167969 L 176.503906 48.910156 C 177.886719 48.875 179.664063 48.875 180.253906 48.875 C 181.304688 48.875 182.617188 48.875 184 48.910156 L 184 48.167969 L 181.390625 48.167969 L 181.390625 37.960938 L 182.773438 37.960938 C 185.261719 37.960938 185.398438 39.410156 185.554688 41.3125 L 186.28125 41.3125 L 185.933594 37.21875 "
       style=" stroke:none;fill-rule:nonzero;fill:rgb(0%,0%,0%);fill-opacity:1;" />
    <path
       id="path16"
       d="M 197.878906 37.148438 L 187.65625 37.148438 L 187.65625 37.894531 L 189.488281 37.894531 L 189.488281 48.167969 L 187.65625 48.167969 L 187.65625 48.910156 C 188.15625 48.875 190.125 48.875 190.765625 48.875 C 191.679688 48.875 193.21875 48.875 194.0625 48.910156 L 194.0625 48.167969 L 191.765625 48.167969 L 191.765625 43.402344 L 192.714844 43.402344 C 194.371094 43.402344 194.511719 44.160156 194.511719 45.421875 L 195.238281 45.421875 L 195.238281 40.636719 L 194.511719 40.636719 C 194.511719 41.898438 194.371094 42.660156 192.714844 42.660156 L 191.765625 42.660156 L 191.765625 37.894531 L 194.234375 37.894531 C 196.980469 37.894531 197.414063 39.152344 197.65625 41.242188 L 198.382813 41.242188 L 197.878906 37.148438 "
       style=" stroke:none;fill-rule:nonzero;fill:rgb(0%,0%,0%);fill-opacity:1;" />
    <path
       id="path18"
       d="M 186.832031 8.371094 C 186.832031 8.09375 186.832031 8.082031 186.59375 8.082031 C 186.308594 8.40625 185.714844 8.847656 184.484375 8.847656 L 184.484375 9.191406 C 184.757813 9.191406 185.355469 9.191406 186.011719 8.882813 L 186.011719 15.09375 C 186.011719 15.519531 185.976563 15.664063 184.925781 15.664063 L 184.554688 15.664063 L 184.554688 16.011719 C 184.878906 15.988281 186.035156 15.988281 186.429688 15.988281 C 186.820313 15.988281 187.964844 15.988281 188.289063 16.011719 L 188.289063 15.664063 L 187.917969 15.664063 C 186.867188 15.664063 186.832031 15.519531 186.832031 15.09375 L 186.832031 8.371094 "
       style=" stroke:none;fill-rule:nonzero;fill:rgb(0%,0%,100%);fill-opacity:1;" />
    <path
       id="path20"
       transform="matrix(0.1,0,0,-0.1,0,75.01)"
       d="M 1815.585938 565.25625 L 1911.523438 565.25625 "
       style="fill:none;stroke-width:6.886;stroke-linecap:butt;stroke-linejoin:miter;stroke:rgb(0%,0%,100%);stroke-opacity:1;stroke-miterlimit:10;" />
    <path
       id="path22"
       d="M 186.238281 23.835938 C 185.867188 23.90625 185.675781 24.167969 185.675781 24.429688 C 185.675781 24.714844 185.902344 24.8125 186.070313 24.8125 C 186.40625 24.8125 186.679688 24.527344 186.679688 24.167969 C 186.679688 23.785156 186.308594 23.453125 185.714844 23.453125 C 185.234375 23.453125 184.6875 23.667969 184.1875 24.394531 C 184.101563 23.761719 183.628906 23.453125 183.148438 23.453125 C 182.683594 23.453125 182.445313 23.808594 182.304688 24.074219 C 182.101563 24.503906 181.921875 25.21875 181.921875 25.277344 C 181.921875 25.324219 181.96875 25.382813 182.054688 25.382813 C 182.148438 25.382813 182.160156 25.371094 182.230469 25.097656 C 182.410156 24.382813 182.636719 23.691406 183.113281 23.691406 C 183.398438 23.691406 183.484375 23.894531 183.484375 24.238281 C 183.484375 24.503906 183.363281 24.964844 183.28125 25.335938 L 182.945313 26.625 C 182.898438 26.851563 182.769531 27.386719 182.710938 27.601563 C 182.625 27.910156 182.492188 28.472656 182.492188 28.53125 C 182.492188 28.699219 182.625 28.828125 182.804688 28.828125 C 182.933594 28.828125 183.160156 28.746094 183.234375 28.507813 C 183.269531 28.410156 183.710938 26.613281 183.78125 26.339844 C 183.839844 26.074219 183.914063 25.824219 183.972656 25.5625 C 184.019531 25.394531 184.066406 25.207031 184.101563 25.050781 C 184.140625 24.941406 184.460938 24.359375 184.757813 24.097656 C 184.902344 23.964844 185.214844 23.691406 185.699219 23.691406 C 185.890625 23.691406 186.082031 23.726563 186.238281 23.835938 "
       style=" stroke:none;fill-rule:nonzero;fill:rgb(0%,0%,100%);fill-opacity:1;" />
    <path
       id="path24"
       d="M 190.574219 27.003906 C 190.574219 26.945313 190.527344 26.898438 190.453125 26.898438 C 190.347656 26.898438 190.335938 26.933594 190.273438 27.136719 C 189.964844 28.222656 189.476563 28.589844 189.082031 28.589844 C 188.941406 28.589844 188.773438 28.554688 188.773438 28.199219 C 188.773438 27.875 188.917969 27.519531 189.046875 27.160156 L 189.882813 24.941406 C 189.917969 24.847656 190.003906 24.632813 190.003906 24.40625 C 190.003906 23.90625 189.644531 23.453125 189.058594 23.453125 C 187.964844 23.453125 187.523438 25.183594 187.523438 25.277344 C 187.523438 25.324219 187.570313 25.382813 187.652344 25.382813 C 187.761719 25.382813 187.773438 25.335938 187.820313 25.167969 C 188.105469 24.167969 188.558594 23.691406 189.023438 23.691406 C 189.132813 23.691406 189.335938 23.703125 189.335938 24.085938 C 189.335938 24.394531 189.179688 24.789063 189.082031 25.050781 L 188.246094 27.269531 C 188.179688 27.457031 188.105469 27.648438 188.105469 27.863281 C 188.105469 28.402344 188.476563 28.828125 189.046875 28.828125 C 190.144531 28.828125 190.574219 27.089844 190.574219 27.003906 Z M 190.476563 21.269531 C 190.476563 21.09375 190.335938 20.878906 190.074219 20.878906 C 189.796875 20.878906 189.488281 21.140625 189.488281 21.449219 C 189.488281 21.75 189.738281 21.84375 189.882813 21.84375 C 190.203125 21.84375 190.476563 21.535156 190.476563 21.269531 "
       style=" stroke:none;fill-rule:nonzero;fill:rgb(0%,0%,100%);fill-opacity:1;" />
    <path
       id="path26"
       d="M 183.382813 32.144531 C 182.949219 32.144531 182.671875 32.488281 182.671875 32.851563 C 182.671875 33.195313 182.949219 33.558594 183.382813 33.558594 C 183.8125 33.558594 184.089844 33.214844 184.089844 32.851563 C 184.089844 32.503906 183.8125 32.144531 183.382813 32.144531 Z M 189.390625 32.144531 C 188.960938 32.144531 188.683594 32.488281 188.683594 32.851563 C 188.683594 33.195313 188.960938 33.558594 189.390625 33.558594 C 189.824219 33.558594 190.101563 33.214844 190.101563 32.851563 C 190.101563 32.503906 189.824219 32.144531 189.390625 32.144531 "
       style=" stroke:none;fill-rule:nonzero;fill:rgb(0%,0%,100%);fill-opacity:1;" />
    <path
       id="path28"
       d="M 357.546875 37.804688 L 359.484375 37.804688 L 359.484375 37.0625 C 358.859375 37.097656 357.132813 37.097656 356.410156 37.097656 C 355.683594 37.097656 353.957031 37.097656 353.335938 37.0625 L 353.335938 37.804688 L 355.269531 37.804688 L 355.269531 48.167969 L 353.335938 48.167969 L 353.335938 48.910156 C 353.957031 48.875 355.683594 48.875 356.410156 48.875 C 357.132813 48.875 358.859375 48.875 359.484375 48.910156 L 359.484375 48.167969 L 357.546875 48.167969 L 357.546875 37.804688 "
       style=" stroke:none;fill-rule:nonzero;fill:rgb(0%,0%,0%);fill-opacity:1;" />
    <path
       id="path30"
       d="M 371.957031 41.652344 C 371.992188 41.546875 372.421875 40.683594 373.0625 40.128906 C 373.511719 39.714844 374.097656 39.441406 374.773438 39.441406 C 375.464844 39.441406 375.703125 39.957031 375.703125 40.648438 C 375.703125 40.753906 375.703125 41.097656 375.496094 41.910156 L 375.066406 43.6875 C 374.929688 44.207031 374.601563 45.484375 374.566406 45.675781 C 374.496094 45.933594 374.390625 46.382813 374.390625 46.449219 C 374.390625 46.691406 374.582031 46.882813 374.84375 46.882813 C 375.359375 46.882813 375.445313 46.484375 375.601563 45.863281 L 376.636719 41.738281 C 376.671875 41.597656 377.570313 39.441406 379.46875 39.441406 C 380.160156 39.441406 380.402344 39.957031 380.402344 40.648438 C 380.402344 41.617188 379.726563 43.496094 379.347656 44.535156 C 379.195313 44.949219 379.105469 45.171875 379.105469 45.484375 C 379.105469 46.261719 379.640625 46.882813 380.472656 46.882813 C 382.078125 46.882813 382.679688 44.34375 382.679688 44.242188 C 382.679688 44.152344 382.613281 44.085938 382.507813 44.085938 C 382.351563 44.085938 382.335938 44.136719 382.25 44.429688 C 381.851563 45.8125 381.214844 46.535156 380.523438 46.535156 C 380.351563 46.535156 380.074219 46.519531 380.074219 45.96875 C 380.074219 45.519531 380.28125 44.964844 380.351563 44.777344 C 380.660156 43.949219 381.4375 41.910156 381.4375 40.90625 C 381.4375 39.871094 380.835938 39.09375 379.523438 39.09375 C 378.363281 39.09375 377.429688 39.75 376.742188 40.769531 C 376.6875 39.835938 376.117188 39.09375 374.824219 39.09375 C 373.289063 39.09375 372.476563 40.183594 372.164063 40.613281 C 372.113281 39.628906 371.40625 39.09375 370.644531 39.09375 C 370.144531 39.09375 369.746094 39.335938 369.417969 39.992188 C 369.109375 40.613281 368.867188 41.667969 368.867188 41.738281 C 368.867188 41.804688 368.9375 41.890625 369.054688 41.890625 C 369.195313 41.890625 369.210938 41.875 369.316406 41.476563 C 369.574219 40.457031 369.902344 39.441406 370.59375 39.441406 C 370.992188 39.441406 371.128906 39.714844 371.128906 40.234375 C 371.128906 40.613281 370.957031 41.289063 370.835938 41.824219 L 370.351563 43.6875 C 370.28125 44.015625 370.09375 44.792969 370.007813 45.105469 C 369.886719 45.550781 369.695313 46.363281 369.695313 46.449219 C 369.695313 46.691406 369.886719 46.882813 370.144531 46.882813 C 370.351563 46.882813 370.59375 46.777344 370.730469 46.519531 C 370.765625 46.433594 370.921875 45.828125 371.007813 45.484375 L 371.386719 43.929688 L 371.957031 41.652344 "
       style=" stroke:none;fill-rule:nonzero;fill:rgb(0%,0%,100%);fill-opacity:1;" />
    <path
       id="path32"
       d="M 365.066406 39.992188 C 365.066406 39.558594 364.722656 39.285156 364.359375 39.285156 C 364.015625 39.285156 363.648438 39.558594 363.648438 39.992188 C 363.648438 40.425781 363.996094 40.699219 364.359375 40.699219 C 364.703125 40.699219 365.066406 40.425781 365.066406 39.992188 Z M 365.066406 46.003906 C 365.066406 45.570313 364.722656 45.292969 364.359375 45.292969 C 364.015625 45.292969 363.648438 45.570313 363.648438 46.003906 C 363.648438 46.433594 363.996094 46.710938 364.359375 46.710938 C 364.703125 46.710938 365.066406 46.433594 365.066406 46.003906 "
       style=" stroke:none;fill-rule:nonzero;fill:rgb(0%,0%,100%);fill-opacity:1;" />
    <path
       id="path34"
       d="M 10.886719 41.3125 C 9.175781 40.933594 9.125 39.6875 9.125 39.445313 C 9.125 38.566406 9.695313 37.546875 11.371094 37.546875 C 13.046875 37.546875 14.546875 38.359375 14.910156 40.621094 C 14.960938 40.984375 14.960938 41 15.289063 41 C 15.652344 41 15.652344 40.949219 15.652344 40.550781 L 15.652344 37.304688 C 15.652344 36.976563 15.652344 36.855469 15.394531 36.855469 C 15.273438 36.855469 15.21875 36.871094 15.066406 37.046875 L 14.324219 37.894531 C 13.890625 37.527344 13.027344 36.855469 11.351563 36.855469 C 8.882813 36.855469 7.570313 38.410156 7.570313 40.292969 C 7.570313 41.449219 8.191406 42.261719 8.433594 42.503906 C 9.332031 43.402344 9.816406 43.503906 11.613281 43.902344 C 13.339844 44.28125 13.546875 44.316406 13.925781 44.679688 C 14.148438 44.902344 14.652344 45.386719 14.652344 46.269531 C 14.652344 47.011719 14.289063 48.375 12.355469 48.375 C 10.835938 48.375 8.433594 47.855469 8.296875 45.335938 C 8.277344 45.023438 8.277344 44.972656 7.933594 44.972656 C 7.570313 44.972656 7.570313 45.023438 7.570313 45.421875 L 7.570313 48.667969 C 7.570313 48.996094 7.570313 49.117188 7.828125 49.117188 C 7.949219 49.117188 7.96875 49.101563 8.140625 48.945313 C 8.332031 48.753906 8.484375 48.53125 8.917969 48.097656 C 9.917969 48.894531 11.335938 49.117188 12.371094 49.117188 C 15.066406 49.117188 16.203125 47.285156 16.203125 45.457031 C 16.203125 43.832031 15.132813 42.277344 13.25 41.847656 L 10.886719 41.3125 "
       style=" stroke:none;fill-rule:nonzero;fill:rgb(0%,0%,0%);fill-opacity:1;" />
    <path
       id="path36"
       d="M 25.007813 45.09375 C 25.402344 45.09375 25.507813 45.09375 25.507813 44.660156 C 25.507813 44.144531 25.386719 42.847656 24.589844 42.035156 C 23.867188 41.3125 22.898438 41.085938 21.898438 41.085938 C 19.203125 41.085938 17.734375 42.847656 17.734375 45.023438 C 17.734375 47.441406 19.515625 49.011719 22.121094 49.011719 C 24.730469 49.011719 25.507813 47.183594 25.507813 46.890625 C 25.507813 46.628906 25.246094 46.628906 25.144531 46.628906 C 24.867188 46.628906 24.851563 46.683594 24.746094 46.90625 C 24.296875 48.027344 23.15625 48.390625 22.328125 48.390625 C 19.824219 48.390625 19.808594 46.058594 19.808594 45.09375 Z M 19.808594 44.59375 C 19.84375 43.886719 19.859375 43.210938 20.222656 42.589844 C 20.550781 42.035156 21.15625 41.65625 21.898438 41.65625 C 23.746094 41.65625 23.898438 43.730469 23.917969 44.59375 L 19.808594 44.59375 "
       style=" stroke:none;fill-rule:nonzero;fill:rgb(0%,0%,0%);fill-opacity:1;" />
    <path
       id="path38"
       d="M 16.65625 22.199219 L 19.523438 22.199219 C 19.746094 22.199219 20.316406 22.199219 20.316406 21.648438 C 20.316406 21.265625 19.988281 21.265625 19.679688 21.265625 L 14.929688 21.265625 C 14.53125 21.265625 13.945313 21.265625 13.148438 22.113281 C 12.703125 22.613281 12.148438 23.527344 12.148438 23.632813 C 12.148438 23.738281 12.234375 23.769531 12.339844 23.769531 C 12.460938 23.769531 12.476563 23.71875 12.5625 23.617188 C 13.460938 22.199219 14.359375 22.199219 14.789063 22.199219 L 16.226563 22.199219 L 14.429688 28.121094 C 14.34375 28.382813 14.34375 28.417969 14.34375 28.46875 C 14.34375 28.660156 14.460938 28.902344 14.808594 28.902344 C 15.34375 28.902344 15.429688 28.433594 15.480469 28.175781 L 16.65625 22.199219 "
       style=" stroke:none;fill-rule:nonzero;fill:rgb(0%,0%,100%);fill-opacity:1;" />
    <path
       id="path40"
       d="M 13.28125 32.144531 C 12.851563 32.144531 12.574219 32.488281 12.574219 32.851563 C 12.574219 33.195313 12.851563 33.558594 13.28125 33.558594 C 13.714844 33.558594 13.992188 33.214844 13.992188 32.851563 C 13.992188 32.503906 13.714844 32.144531 13.28125 32.144531 Z M 19.292969 32.144531 C 18.859375 32.144531 18.585938 32.488281 18.585938 32.851563 C 18.585938 33.195313 18.859375 33.558594 19.292969 33.558594 C 19.722656 33.558594 20 33.214844 20 32.851563 C 20 32.503906 19.722656 32.144531 19.292969 32.144531 "
       style=" stroke:none;fill-rule:nonzero;fill:rgb(0%,0%,100%);fill-opacity:1;" />
    <path
       id="path42"
       transform="matrix(0.1,0,0,-0.1,0,75.01)"
       d="M 2815.195313 319.7875 L 3437.65625 319.7875 "
       style="fill:none;stroke-width:15.9404;stroke-linecap:butt;stroke-linejoin:miter;stroke:rgb(0%,0%,0%);stroke-opacity:1;stroke-miterlimit:10;" />
    <path
       id="path44"
       transform="matrix(0.1,0,0,-0.1,0,75.01)"
       d="M 3437.65625 319.7875 L 3453.59375 319.7875 L 3384.882813 262.13125 "
       style="fill:none;stroke-width:15.9404;stroke-linecap:butt;stroke-linejoin:miter;stroke:rgb(0%,0%,0%);stroke-opacity:1;stroke-miterlimit:10;" />
    <path
       id="path46"
       transform="matrix(0.1,0,0,-0.1,0,75.01)"
       d="M 313.515625 319.7875 L 874.0625 319.7875 "
       style="fill:none;stroke-width:15.9404;stroke-linecap:butt;stroke-linejoin:miter;stroke:rgb(0%,0%,0%);stroke-opacity:1;stroke-miterlimit:10;" />
    <path
       id="path48"
       transform="matrix(0.1,0,0,-0.1,0,75.01)"
       d="M 874.0625 319.7875 L 890.039063 319.7875 L 821.328125 262.13125 "
       style="fill:none;stroke-width:15.9404;stroke-linecap:butt;stroke-linejoin:miter;stroke:rgb(0%,0%,0%);stroke-opacity:1;stroke-miterlimit:10;" />
    <path
       id="path50"
       transform="matrix(0.1,0,0,-0.1,0,75.01)"
       d="M 2612.734375 319.7875 L 2082.421875 319.7875 "
       style="fill:none;stroke-width:15.9404;stroke-linecap:butt;stroke-linejoin:miter;stroke:rgb(0%,0%,0%);stroke-opacity:1;stroke-miterlimit:10;" />
    <path
       id="path52"
       transform="matrix(0.1,0,0,-0.1,0,75.01)"
       d="M 2082.421875 319.7875 L 2066.484375 319.7875 L 2135.195313 262.13125 "
       style="fill:none;stroke-width:15.9404;stroke-linecap:butt;stroke-linejoin:miter;stroke:rgb(0%,0%,0%);stroke-opacity:1;stroke-miterlimit:10;" />
    <path
       id="path54"
       transform="matrix(0.1,0,0,-0.1,0,75.01)"
       d="M 1682.539063 319.7875 L 1152.226563 319.7875 "
       style="fill:none;stroke-width:15.9404;stroke-linecap:butt;stroke-linejoin:miter;stroke:rgb(0%,0%,0%);stroke-opacity:1;stroke-miterlimit:10;" />
    <path
       id="path56"
       transform="matrix(0.1,0,0,-0.1,0,75.01)"
       d="M 1152.226563 319.7875 L 1136.289063 319.7875 L 1204.960938 262.13125 "
       style="fill:none;stroke-width:15.9404;stroke-linecap:butt;stroke-linejoin:miter;stroke:rgb(0%,0%,0%);stroke-opacity:1;stroke-miterlimit:10;" />
  </g>
</svg>
