<?xml version="1.0" encoding="UTF-8" standalone="no"?>
<svg
   xmlns:dc="http://purl.org/dc/elements/1.1/"
   xmlns:cc="http://creativecommons.org/ns#"
   xmlns:rdf="http://www.w3.org/1999/02/22-rdf-syntax-ns#"
   xmlns:svg="http://www.w3.org/2000/svg"
   xmlns="http://www.w3.org/2000/svg"
   id="svg99"
   version="1.2"
   viewBox="0 0 328.71 174.61"
   height="174.61pt"
   width="328.71pt">
  <metadata
     id="metadata105">
    <rdf:RDF>
      <cc:Work
         rdf:about="">
        <dc:format>image/svg+xml</dc:format>
        <dc:type
           rdf:resource="http://purl.org/dc/dcmitype/StillImage" />
      </cc:Work>
    </rdf:RDF>
  </metadata>
  <defs
     id="defs103" />
  <g
     id="surface1">
    <path
       id="path2"
       transform="matrix(0.1,0,0,-0.1,0,174.61)"
       d="M 90.976563 1053.053125 L 544.53125 1053.053125 L 544.53125 1506.607812 L 90.976563 1506.607812 Z M 90.976563 1053.053125 "
       style="fill:none;stroke-width:15.9404;stroke-linecap:butt;stroke-linejoin:miter;stroke:rgb(0%,0%,0%);stroke-opacity:1;stroke-miterlimit:10;" />
    <path
       id="path4"
       d="M 27.992188 45.003906 C 28.457031 45.003906 29.632813 44.96875 30.460938 44.65625 C 31.773438 44.15625 31.894531 43.15625 31.894531 42.84375 C 31.894531 42.085938 31.238281 41.394531 30.097656 41.394531 C 28.285156 41.394531 25.675781 43.035156 25.675781 46.109375 C 25.675781 47.921875 26.714844 49.183594 28.285156 49.183594 C 30.632813 49.183594 32.117188 47.351563 32.117188 47.128906 C 32.117188 47.023438 32.015625 46.9375 31.945313 46.9375 C 31.894531 46.9375 31.875 46.953125 31.722656 47.109375 C 30.617188 48.578125 28.976563 48.835938 28.320313 48.835938 C 27.335938 48.835938 26.816406 48.058594 26.816406 46.78125 C 26.816406 46.539063 26.816406 46.109375 27.078125 45.003906 Z M 27.164063 44.65625 C 27.90625 42 29.546875 41.738281 30.097656 41.738281 C 30.859375 41.738281 31.375 42.1875 31.375 42.84375 C 31.375 44.65625 28.613281 44.65625 27.886719 44.65625 L 27.164063 44.65625 "
       style=" stroke:none;fill-rule:nonzero;fill:rgb(0%,0%,100%);fill-opacity:1;" />
    <path
       id="path6"
       d="M 35.417969 49.226563 C 35.621094 49.261719 35.941406 49.332031 36.015625 49.34375 C 36.167969 49.394531 36.703125 49.582031 36.703125 50.15625 C 36.703125 50.527344 36.371094 51.492188 34.988281 51.492188 C 34.738281 51.492188 33.84375 51.453125 33.605469 50.800781 C 34.082031 50.859375 34.320313 50.488281 34.320313 50.226563 C 34.320313 49.976563 34.15625 49.847656 33.914063 49.847656 C 33.652344 49.847656 33.308594 50.050781 33.308594 50.585938 C 33.308594 51.289063 34.023438 51.730469 34.976563 51.730469 C 36.789063 51.730469 37.324219 50.394531 37.324219 49.773438 C 37.324219 49.597656 37.324219 49.261719 36.945313 48.878906 C 36.644531 48.59375 36.359375 48.535156 35.714844 48.402344 C 35.394531 48.332031 34.882813 48.222656 34.882813 47.6875 C 34.882813 47.449219 35.09375 46.589844 36.226563 46.589844 C 36.730469 46.589844 37.21875 46.78125 37.335938 47.210938 C 36.8125 47.210938 36.789063 47.664063 36.789063 47.675781 C 36.789063 47.925781 37.015625 47.996094 37.121094 47.996094 C 37.289063 47.996094 37.625 47.867188 37.625 47.367188 C 37.625 46.867188 37.171875 46.355469 36.242188 46.355469 C 34.679688 46.355469 34.261719 47.578125 34.261719 48.070313 C 34.261719 48.976563 35.144531 49.164063 35.417969 49.226563 "
       style=" stroke:none;fill-rule:nonzero;fill:rgb(0%,0%,100%);fill-opacity:1;" />
    <path
       id="path8"
       d="M 32.15625 12.5 L 35.023438 12.5 C 35.246094 12.5 35.816406 12.5 35.816406 11.945313 C 35.816406 11.566406 35.488281 11.566406 35.179688 11.566406 L 30.429688 11.566406 C 30.03125 11.566406 29.445313 11.566406 28.648438 12.414063 C 28.203125 12.914063 27.648438 13.828125 27.648438 13.933594 C 27.648438 14.035156 27.734375 14.070313 27.839844 14.070313 C 27.960938 14.070313 27.976563 14.019531 28.0625 13.914063 C 28.960938 12.5 29.859375 12.5 30.289063 12.5 L 31.726563 12.5 L 29.929688 18.421875 C 29.84375 18.683594 29.84375 18.714844 29.84375 18.769531 C 29.84375 18.957031 29.960938 19.199219 30.308594 19.199219 C 30.84375 19.199219 30.929688 18.734375 30.980469 18.472656 L 32.15625 12.5 "
       style=" stroke:none;fill-rule:nonzero;fill:rgb(0%,0%,100%);fill-opacity:1;" />
    <path
       id="path10"
       d="M 83.191406 49.464844 L 83.191406 43.792969 L 90.332031 46.628906 "
       style=" stroke:none;fill-rule:nonzero;fill:rgb(0%,0%,0%);fill-opacity:1;" />
    <path
       id="path12"
       transform="matrix(0.1,0,0,-0.1,0,174.61)"
       d="M 831.914063 1251.451562 L 831.914063 1308.170312 L 903.320313 1279.810937 Z M 831.914063 1251.451562 "
       style="fill:none;stroke-width:15.9404;stroke-linecap:butt;stroke-linejoin:miter;stroke:rgb(0%,0%,0%);stroke-opacity:1;stroke-miterlimit:10;" />
    <path
       id="path14"
       transform="matrix(0.1,0,0,-0.1,0,174.61)"
       d="M 831.914063 1279.810937 L 911.289063 1279.810937 "
       style="fill:none;stroke-width:15.9404;stroke-linecap:butt;stroke-linejoin:miter;stroke:rgb(0%,0%,0%);stroke-opacity:1;stroke-miterlimit:10;" />
    <path
       id="path16"
       d="M 83.191406 33.105469 C 83.65625 33.105469 84.832031 33.070313 85.660156 32.757813 C 86.972656 32.257813 87.09375 31.253906 87.09375 30.945313 C 87.09375 30.183594 86.4375 29.492188 85.296875 29.492188 C 83.484375 29.492188 80.875 31.136719 80.875 34.207031 C 80.875 36.023438 81.914063 37.28125 83.484375 37.28125 C 85.832031 37.28125 87.320313 35.453125 87.320313 35.226563 C 87.320313 35.125 87.214844 35.039063 87.144531 35.039063 C 87.09375 35.039063 87.078125 35.054688 86.921875 35.210938 C 85.816406 36.679688 84.175781 36.9375 83.519531 36.9375 C 82.535156 36.9375 82.015625 36.160156 82.015625 34.882813 C 82.015625 34.640625 82.015625 34.207031 82.277344 33.105469 Z M 82.363281 32.757813 C 83.105469 30.097656 84.746094 29.839844 85.296875 29.839844 C 86.058594 29.839844 86.578125 30.289063 86.578125 30.945313 C 86.578125 32.757813 83.8125 32.757813 83.085938 32.757813 L 82.363281 32.757813 "
       style=" stroke:none;fill-rule:nonzero;fill:rgb(0%,0%,100%);fill-opacity:1;" />
    <path
       id="path18"
       d="M 91.332031 32.070313 C 91.332031 31.792969 91.332031 31.78125 91.09375 31.78125 C 90.808594 32.105469 90.210938 32.546875 88.984375 32.546875 L 88.984375 32.890625 C 89.257813 32.890625 89.855469 32.890625 90.511719 32.582031 L 90.511719 38.792969 C 90.511719 39.222656 90.476563 39.363281 89.425781 39.363281 L 89.054688 39.363281 L 89.054688 39.710938 C 89.378906 39.6875 90.535156 39.6875 90.929688 39.6875 C 91.320313 39.6875 92.464844 39.6875 92.789063 39.710938 L 92.789063 39.363281 L 92.417969 39.363281 C 91.367188 39.363281 91.332031 39.222656 91.332031 38.792969 L 91.332031 32.070313 "
       style=" stroke:none;fill-rule:nonzero;fill:rgb(0%,0%,100%);fill-opacity:1;" />
    <path
       id="path20"
       transform="matrix(0.1,0,0,-0.1,0,174.61)"
       d="M 1198.671875 1053.053125 L 1652.1875 1053.053125 L 1652.1875 1506.607812 L 1198.671875 1506.607812 Z M 1198.671875 1053.053125 "
       style="fill:none;stroke-width:15.9404;stroke-linecap:butt;stroke-linejoin:miter;stroke:rgb(0%,0%,0%);stroke-opacity:1;stroke-miterlimit:10;" />
    <path
       id="path22"
       d="M 143.03125 36.46875 C 143.03125 36.195313 143.03125 36.183594 142.796875 36.183594 C 142.507813 36.503906 141.914063 36.945313 140.683594 36.945313 L 140.683594 37.289063 C 140.960938 37.289063 141.554688 37.289063 142.210938 36.980469 L 142.210938 43.191406 C 142.210938 43.621094 142.175781 43.765625 141.128906 43.765625 L 140.757813 43.765625 L 140.757813 44.109375 C 141.078125 44.085938 142.234375 44.085938 142.628906 44.085938 C 143.023438 44.085938 144.164063 44.085938 144.488281 44.109375 L 144.488281 43.765625 L 144.117188 43.765625 C 143.070313 43.765625 143.03125 43.621094 143.03125 43.191406 L 143.03125 36.46875 "
       style=" stroke:none;fill-rule:nonzero;fill:rgb(0%,0%,100%);fill-opacity:1;" />
    <path
       id="path24"
       transform="matrix(0.1,0,0,-0.1,0,174.61)"
       d="M 1377.460938 1280.123437 L 1473.398438 1280.123437 "
       style="fill:none;stroke-width:6.886;stroke-linecap:butt;stroke-linejoin:miter;stroke:rgb(0%,0%,100%);stroke-opacity:1;stroke-miterlimit:10;" />
    <path
       id="path26"
       d="M 142.339844 51.933594 C 141.96875 52.003906 141.777344 52.269531 141.777344 52.53125 C 141.777344 52.816406 142.003906 52.910156 142.171875 52.910156 C 142.503906 52.910156 142.777344 52.625 142.777344 52.269531 C 142.777344 51.886719 142.40625 51.554688 141.8125 51.554688 C 141.335938 51.554688 140.789063 51.769531 140.289063 52.492188 C 140.203125 51.863281 139.726563 51.554688 139.25 51.554688 C 138.785156 51.554688 138.546875 51.910156 138.402344 52.171875 C 138.199219 52.601563 138.023438 53.316406 138.023438 53.378906 C 138.023438 53.425781 138.070313 53.484375 138.152344 53.484375 C 138.246094 53.484375 138.261719 53.472656 138.332031 53.195313 C 138.511719 52.484375 138.738281 51.789063 139.214844 51.789063 C 139.5 51.789063 139.582031 51.992188 139.582031 52.339844 C 139.582031 52.601563 139.464844 53.066406 139.382813 53.4375 L 139.046875 54.722656 C 139 54.949219 138.867188 55.488281 138.808594 55.699219 C 138.726563 56.011719 138.59375 56.570313 138.59375 56.632813 C 138.59375 56.796875 138.726563 56.929688 138.90625 56.929688 C 139.035156 56.929688 139.261719 56.847656 139.332031 56.605469 C 139.367188 56.511719 139.808594 54.710938 139.882813 54.4375 C 139.941406 54.175781 140.011719 53.925781 140.070313 53.664063 C 140.121094 53.496094 140.167969 53.304688 140.203125 53.152344 C 140.238281 53.042969 140.5625 52.457031 140.859375 52.195313 C 141.003906 52.066406 141.3125 51.789063 141.800781 51.789063 C 141.992188 51.789063 142.183594 51.828125 142.339844 51.933594 "
       style=" stroke:none;fill-rule:nonzero;fill:rgb(0%,0%,100%);fill-opacity:1;" />
    <path
       id="path28"
       d="M 146.671875 55.105469 C 146.671875 55.046875 146.628906 54.996094 146.554688 54.996094 C 146.445313 54.996094 146.433594 55.03125 146.375 55.238281 C 146.066406 56.320313 145.578125 56.691406 145.183594 56.691406 C 145.039063 56.691406 144.871094 56.65625 144.871094 56.296875 C 144.871094 55.976563 145.015625 55.617188 145.148438 55.261719 L 145.984375 53.042969 C 146.015625 52.945313 146.101563 52.734375 146.101563 52.507813 C 146.101563 52.003906 145.742188 51.554688 145.160156 51.554688 C 144.0625 51.554688 143.621094 53.28125 143.621094 53.378906 C 143.621094 53.425781 143.671875 53.484375 143.753906 53.484375 C 143.859375 53.484375 143.871094 53.4375 143.921875 53.269531 C 144.207031 52.269531 144.660156 51.789063 145.121094 51.789063 C 145.230469 51.789063 145.433594 51.804688 145.433594 52.183594 C 145.433594 52.492188 145.277344 52.886719 145.183594 53.152344 L 144.347656 55.367188 C 144.277344 55.558594 144.207031 55.75 144.207031 55.964844 C 144.207031 56.5 144.574219 56.929688 145.148438 56.929688 C 146.242188 56.929688 146.671875 55.1875 146.671875 55.105469 Z M 146.578125 49.371094 C 146.578125 49.191406 146.433594 48.980469 146.171875 48.980469 C 145.898438 48.980469 145.589844 49.242188 145.589844 49.550781 C 145.589844 49.847656 145.839844 49.945313 145.984375 49.945313 C 146.304688 49.945313 146.578125 49.632813 146.578125 49.371094 "
       style=" stroke:none;fill-rule:nonzero;fill:rgb(0%,0%,100%);fill-opacity:1;" />
    <path
       id="path30"
       d="M 193.960938 49.464844 L 193.960938 43.792969 L 201.101563 46.628906 "
       style=" stroke:none;fill-rule:nonzero;fill:rgb(0%,0%,0%);fill-opacity:1;" />
    <path
       id="path32"
       transform="matrix(0.1,0,0,-0.1,0,174.61)"
       d="M 1939.609375 1251.451562 L 1939.609375 1308.170312 L 2011.015625 1279.810937 Z M 1939.609375 1251.451562 "
       style="fill:none;stroke-width:15.9404;stroke-linecap:butt;stroke-linejoin:miter;stroke:rgb(0%,0%,0%);stroke-opacity:1;stroke-miterlimit:10;" />
    <path
       id="path34"
       transform="matrix(0.1,0,0,-0.1,0,174.61)"
       d="M 1939.609375 1279.810937 L 2018.945313 1279.810937 "
       style="fill:none;stroke-width:15.9404;stroke-linecap:butt;stroke-linejoin:miter;stroke:rgb(0%,0%,0%);stroke-opacity:1;stroke-miterlimit:10;" />
    <path
       id="path36"
       d="M 193.890625 33.105469 C 194.359375 33.105469 195.53125 33.070313 196.359375 32.757813 C 197.671875 32.257813 197.792969 31.253906 197.792969 30.945313 C 197.792969 30.183594 197.136719 29.492188 195.996094 29.492188 C 194.183594 29.492188 191.578125 31.136719 191.578125 34.207031 C 191.578125 36.023438 192.613281 37.28125 194.183594 37.28125 C 196.53125 37.28125 198.019531 35.453125 198.019531 35.226563 C 198.019531 35.125 197.914063 35.039063 197.84375 35.039063 C 197.792969 35.039063 197.777344 35.054688 197.621094 35.210938 C 196.515625 36.679688 194.875 36.9375 194.21875 36.9375 C 193.234375 36.9375 192.71875 36.160156 192.71875 34.882813 C 192.71875 34.640625 192.71875 34.207031 192.976563 33.105469 Z M 193.0625 32.757813 C 193.804688 30.097656 195.445313 29.839844 195.996094 29.839844 C 196.757813 29.839844 197.277344 30.289063 197.277344 30.945313 C 197.277344 32.757813 194.511719 32.757813 193.789063 32.757813 L 193.0625 32.757813 "
       style=" stroke:none;fill-rule:nonzero;fill:rgb(0%,0%,100%);fill-opacity:1;" />
    <path
       id="path38"
       d="M 203.945313 37.707031 L 203.683594 37.707031 C 203.648438 37.910156 203.550781 38.566406 203.433594 38.757813 C 203.347656 38.863281 202.667969 38.863281 202.3125 38.863281 L 200.105469 38.863281 C 200.429688 38.589844 201.15625 37.828125 201.464844 37.539063 C 203.277344 35.871094 203.945313 35.253906 203.945313 34.070313 C 203.945313 32.699219 202.859375 31.78125 201.476563 31.78125 C 200.09375 31.78125 199.285156 32.964844 199.285156 33.988281 C 199.285156 34.597656 199.808594 34.597656 199.84375 34.597656 C 200.09375 34.597656 200.40625 34.417969 200.40625 34.035156 C 200.40625 33.703125 200.179688 33.476563 199.84375 33.476563 C 199.738281 33.476563 199.714844 33.476563 199.679688 33.488281 C 199.90625 32.675781 200.546875 32.128906 201.320313 32.128906 C 202.335938 32.128906 202.957031 32.976563 202.957031 34.070313 C 202.957031 35.085938 202.371094 35.964844 201.691406 36.730469 L 199.285156 39.425781 L 199.285156 39.710938 L 203.632813 39.710938 L 203.945313 37.707031 "
       style=" stroke:none;fill-rule:nonzero;fill:rgb(0%,0%,100%);fill-opacity:1;" />
    <path
       id="path40"
       transform="matrix(0.1,0,0,-0.1,0,174.61)"
       d="M 2306.367188 1053.053125 L 2759.882813 1053.053125 L 2759.882813 1506.607812 L 2306.367188 1506.607812 Z M 2306.367188 1053.053125 "
       style="fill:none;stroke-width:15.9404;stroke-linecap:butt;stroke-linejoin:miter;stroke:rgb(0%,0%,0%);stroke-opacity:1;stroke-miterlimit:10;" />
    <path
       id="path42"
       d="M 246.496094 65.105469 C 247.046875 65.070313 247.34375 64.691406 247.34375 64.261719 C 247.34375 63.691406 246.910156 63.414063 246.515625 63.414063 C 246.097656 63.414063 245.667969 63.671875 245.667969 64.277344 C 245.667969 65.15625 246.53125 65.882813 247.585938 65.882813 C 250.210938 65.882813 251.195313 61.839844 252.417969 56.832031 C 253.746094 51.375 254.871094 45.867188 255.804688 40.324219 C 256.445313 36.644531 257.082031 33.191406 257.667969 30.964844 C 257.878906 30.117188 258.464844 27.890625 259.136719 27.890625 C 259.671875 27.890625 260.105469 28.21875 260.171875 28.285156 C 259.601563 28.320313 259.308594 28.703125 259.308594 29.132813 C 259.308594 29.703125 259.742188 29.980469 260.140625 29.980469 C 260.554688 29.980469 260.984375 29.722656 260.984375 29.117188 C 260.984375 28.183594 260.054688 27.511719 259.101563 27.511719 C 257.789063 27.511719 256.824219 29.394531 255.871094 32.914063 C 255.820313 33.105469 253.472656 41.773438 251.574219 53.070313 C 251.121094 55.710938 250.621094 58.59375 250.054688 60.996094 C 249.742188 62.253906 248.949219 65.503906 247.550781 65.503906 C 246.929688 65.503906 246.515625 65.105469 246.496094 65.105469 "
       style=" stroke:none;fill-rule:nonzero;fill:rgb(0%,0%,100%);fill-opacity:1;" />
    <path
       id="path44"
       d="M 298.84375 83.335938 L 304.511719 83.335938 L 301.679688 90.476563 "
       style=" stroke:none;fill-rule:nonzero;fill:rgb(0%,0%,0%);fill-opacity:1;" />
    <path
       id="path46"
       transform="matrix(0.1,0,0,-0.1,0,174.61)"
       d="M 2988.4375 912.740625 L 3045.117188 912.740625 L 3016.796875 841.334375 Z M 2988.4375 912.740625 "
       style="fill:none;stroke-width:15.9404;stroke-linecap:butt;stroke-linejoin:miter;stroke:rgb(0%,0%,0%);stroke-opacity:1;stroke-miterlimit:10;" />
    <path
       id="path48"
       transform="matrix(0.1,0,0,-0.1,0,174.61)"
       d="M 3016.796875 912.740625 L 3016.796875 833.365625 "
       style="fill:none;stroke-width:15.9404;stroke-linecap:butt;stroke-linejoin:miter;stroke:rgb(0%,0%,0%);stroke-opacity:1;stroke-miterlimit:10;" />
    <path
       id="path50"
       d="M 309.34375 91.503906 C 309.222656 92.019531 309.152344 92.160156 308.445313 92.160156 C 308.238281 92.160156 308.0625 92.160156 308.0625 92.488281 C 308.0625 92.523438 308.082031 92.660156 308.273438 92.660156 C 308.496094 92.660156 308.738281 92.625 308.964844 92.625 L 309.703125 92.625 C 310.066406 92.625 310.949219 92.660156 311.3125 92.660156 C 311.414063 92.660156 311.621094 92.660156 311.621094 92.347656 C 311.621094 92.160156 311.503906 92.160156 311.207031 92.160156 C 310.414063 92.160156 310.359375 92.039063 310.359375 91.902344 C 310.359375 91.691406 311.140625 88.722656 311.242188 88.324219 C 311.433594 88.808594 311.898438 89.484375 312.796875 89.484375 C 314.746094 89.484375 316.855469 86.945313 316.855469 84.40625 C 316.855469 82.816406 315.957031 81.695313 314.660156 81.695313 C 313.554688 81.695313 312.621094 82.765625 312.433594 83.007813 C 312.296875 82.144531 311.621094 81.695313 310.929688 81.695313 C 310.429688 81.695313 310.03125 81.9375 309.703125 82.59375 C 309.394531 83.214844 309.152344 84.269531 309.152344 84.335938 C 309.152344 84.40625 309.222656 84.492188 309.34375 84.492188 C 309.480469 84.492188 309.496094 84.472656 309.601563 84.078125 C 309.859375 83.058594 310.1875 82.039063 310.878906 82.039063 C 311.277344 82.039063 311.414063 82.316406 311.414063 82.832031 C 311.414063 83.25 311.363281 83.421875 311.292969 83.730469 Z M 312.328125 83.921875 C 312.453125 83.4375 312.933594 82.9375 313.210938 82.695313 C 313.402344 82.523438 313.96875 82.039063 314.628906 82.039063 C 315.386719 82.039063 315.734375 82.800781 315.734375 83.699219 C 315.734375 84.527344 315.246094 86.476563 314.816406 87.375 C 314.386719 88.308594 313.589844 89.136719 312.796875 89.136719 C 311.621094 89.136719 311.433594 87.652344 311.433594 87.582031 C 311.433594 87.53125 311.46875 87.394531 311.484375 87.308594 L 312.328125 83.921875 "
       style=" stroke:none;fill-rule:nonzero;fill:rgb(0%,0%,100%);fill-opacity:1;" />
    <path
       id="path52"
       transform="matrix(0.1,0,0,-0.1,0,174.61)"
       d="M 147.65625 147.6625 L 487.8125 147.6625 L 487.8125 487.81875 L 147.65625 487.81875 Z M 147.65625 147.6625 "
       style="fill:none;stroke-width:15.9404;stroke-linecap:butt;stroke-linejoin:miter;stroke:rgb(0%,0%,0%);stroke-opacity:1;stroke-miterlimit:10;" />
    <path
       id="path54"
       transform="matrix(0.1,0,0,-0.1,0,174.61)"
       d="M 487.8125 317.740625 L 204.296875 317.740625 M 431.171875 204.303125 L 204.296875 204.303125 L 204.296875 431.178125 L 431.171875 431.178125 "
       style="fill:none;stroke-width:15.9404;stroke-linecap:butt;stroke-linejoin:miter;stroke:rgb(0%,0%,0%);stroke-opacity:1;stroke-miterlimit:10;" />
    <path
       id="path56"
       d="M 91.128906 140 L 91.128906 145.667969 L 83.988281 142.835938 "
       style=" stroke:none;fill-rule:nonzero;fill:rgb(0%,0%,0%);fill-opacity:1;" />
    <path
       id="path58"
       transform="matrix(0.1,0,0,-0.1,0,174.61)"
       d="M 911.289063 346.1 L 911.289063 289.420312 L 839.882813 317.740625 Z M 911.289063 346.1 "
       style="fill:none;stroke-width:15.9404;stroke-linecap:butt;stroke-linejoin:miter;stroke:rgb(0%,0%,0%);stroke-opacity:1;stroke-miterlimit:10;" />
    <path
       id="path60"
       transform="matrix(0.1,0,0,-0.1,0,174.61)"
       d="M 911.289063 317.740625 L 831.914063 317.740625 "
       style="fill:none;stroke-width:15.9404;stroke-linecap:butt;stroke-linejoin:miter;stroke:rgb(0%,0%,0%);stroke-opacity:1;stroke-miterlimit:10;" />
    <path
       id="path62"
       d="M 87.5 125.566406 C 87.847656 125.566406 87.984375 125.566406 87.984375 125.238281 C 87.984375 125.066406 87.847656 125.066406 87.535156 125.066406 L 86.136719 125.066406 C 86.464844 123.289063 86.707031 122.0625 86.84375 121.511719 C 86.949219 121.09375 87.3125 120.699219 87.761719 120.699219 C 88.125 120.699219 88.484375 120.855469 88.660156 121.007813 C 87.984375 121.078125 87.777344 121.578125 87.777344 121.871094 C 87.777344 122.21875 88.039063 122.425781 88.367188 122.425781 C 88.710938 122.425781 89.230469 122.132813 89.230469 121.476563 C 89.230469 120.75 88.503906 120.351563 87.742188 120.351563 C 87 120.351563 86.277344 120.90625 85.929688 121.578125 C 85.621094 122.183594 85.445313 122.804688 85.050781 125.066406 L 83.890625 125.066406 C 83.5625 125.066406 83.390625 125.066406 83.390625 125.378906 C 83.390625 125.566406 83.496094 125.566406 83.839844 125.566406 L 84.945313 125.566406 C 84.636719 127.175781 83.929688 131.078125 83.53125 132.925781 C 83.234375 134.425781 82.976563 135.6875 82.113281 135.6875 C 82.0625 135.6875 81.5625 135.6875 81.25 135.359375 C 82.132813 135.289063 82.132813 134.53125 82.132813 134.511719 C 82.132813 134.167969 81.871094 133.960938 81.542969 133.960938 C 81.199219 133.960938 80.679688 134.253906 80.679688 134.910156 C 80.679688 135.652344 81.441406 136.035156 82.113281 136.035156 C 83.875 136.035156 84.601563 132.871094 84.789063 132.007813 C 85.101563 130.679688 85.949219 126.085938 86.035156 125.566406 L 87.5 125.566406 "
       style=" stroke:none;fill-rule:nonzero;fill:rgb(0%,0%,100%);fill-opacity:1;" />
    <path
       id="path64"
       d="M 91.53125 127.46875 C 91.53125 127.195313 91.53125 127.183594 91.296875 127.183594 C 91.007813 127.503906 90.414063 127.945313 89.183594 127.945313 L 89.183594 128.292969 C 89.460938 128.292969 90.054688 128.292969 90.710938 127.980469 L 90.710938 134.191406 C 90.710938 134.621094 90.675781 134.765625 89.625 134.765625 L 89.257813 134.765625 L 89.257813 135.109375 C 89.578125 135.085938 90.734375 135.085938 91.128906 135.085938 C 91.523438 135.085938 92.664063 135.085938 92.988281 135.109375 L 92.988281 134.765625 L 92.617188 134.765625 C 91.570313 134.765625 91.53125 134.621094 91.53125 134.191406 L 91.53125 127.46875 "
       style=" stroke:none;fill-rule:nonzero;fill:rgb(0%,0%,100%);fill-opacity:1;" />
    <path
       id="path66"
       transform="matrix(0.1,0,0,-0.1,0,174.61)"
       d="M 1198.671875 90.982812 L 1652.1875 90.982812 L 1652.1875 544.5375 L 1198.671875 544.5375 Z M 1198.671875 90.982812 "
       style="fill:none;stroke-width:15.9404;stroke-linecap:butt;stroke-linejoin:miter;stroke:rgb(0%,0%,0%);stroke-opacity:1;stroke-miterlimit:10;" />
    <path
       id="path68"
       d="M 143.03125 132.667969 C 143.03125 132.394531 143.03125 132.382813 142.796875 132.382813 C 142.507813 132.707031 141.914063 133.144531 140.683594 133.144531 L 140.683594 133.492188 C 140.960938 133.492188 141.554688 133.492188 142.210938 133.183594 L 142.210938 139.394531 C 142.210938 139.820313 142.175781 139.964844 141.128906 139.964844 L 140.757813 139.964844 L 140.757813 140.308594 C 141.078125 140.285156 142.234375 140.285156 142.628906 140.285156 C 143.023438 140.285156 144.164063 140.285156 144.488281 140.308594 L 144.488281 139.964844 L 144.117188 139.964844 C 143.070313 139.964844 143.03125 139.820313 143.03125 139.394531 L 143.03125 132.667969 "
       style=" stroke:none;fill-rule:nonzero;fill:rgb(0%,0%,100%);fill-opacity:1;" />
    <path
       id="path70"
       transform="matrix(0.1,0,0,-0.1,0,174.61)"
       d="M 1377.460938 318.053125 L 1473.398438 318.053125 "
       style="fill:none;stroke-width:6.886;stroke-linecap:butt;stroke-linejoin:miter;stroke:rgb(0%,0%,100%);stroke-opacity:1;stroke-miterlimit:10;" />
    <path
       id="path72"
       d="M 142.339844 148.136719 C 141.96875 148.207031 141.777344 148.46875 141.777344 148.730469 C 141.777344 149.015625 142.003906 149.113281 142.171875 149.113281 C 142.503906 149.113281 142.777344 148.824219 142.777344 148.46875 C 142.777344 148.085938 142.40625 147.753906 141.8125 147.753906 C 141.335938 147.753906 140.789063 147.96875 140.289063 148.695313 C 140.203125 148.0625 139.726563 147.753906 139.25 147.753906 C 138.785156 147.753906 138.546875 148.109375 138.402344 148.371094 C 138.199219 148.800781 138.023438 149.519531 138.023438 149.578125 C 138.023438 149.625 138.070313 149.683594 138.152344 149.683594 C 138.246094 149.683594 138.261719 149.671875 138.332031 149.398438 C 138.511719 148.683594 138.738281 147.992188 139.214844 147.992188 C 139.5 147.992188 139.582031 148.195313 139.582031 148.539063 C 139.582031 148.800781 139.464844 149.265625 139.382813 149.636719 L 139.046875 150.925781 C 139 151.152344 138.867188 151.6875 138.808594 151.902344 C 138.726563 152.210938 138.59375 152.769531 138.59375 152.832031 C 138.59375 152.996094 138.726563 153.128906 138.90625 153.128906 C 139.035156 153.128906 139.261719 153.046875 139.332031 152.808594 C 139.367188 152.710938 139.808594 150.910156 139.882813 150.636719 C 139.941406 150.375 140.011719 150.125 140.070313 149.863281 C 140.121094 149.695313 140.167969 149.503906 140.203125 149.351563 C 140.238281 149.242188 140.5625 148.660156 140.859375 148.398438 C 141.003906 148.265625 141.3125 147.992188 141.800781 147.992188 C 141.992188 147.992188 142.183594 148.027344 142.339844 148.136719 "
       style=" stroke:none;fill-rule:nonzero;fill:rgb(0%,0%,100%);fill-opacity:1;" />
    <path
       id="path74"
       d="M 146.671875 151.304688 C 146.671875 151.246094 146.628906 151.199219 146.554688 151.199219 C 146.445313 151.199219 146.433594 151.234375 146.375 151.4375 C 146.066406 152.519531 145.578125 152.890625 145.183594 152.890625 C 145.039063 152.890625 144.871094 152.855469 144.871094 152.496094 C 144.871094 152.175781 145.015625 151.816406 145.148438 151.460938 L 145.984375 149.242188 C 146.015625 149.148438 146.101563 148.933594 146.101563 148.707031 C 146.101563 148.207031 145.742188 147.753906 145.160156 147.753906 C 144.0625 147.753906 143.621094 149.480469 143.621094 149.578125 C 143.621094 149.625 143.671875 149.683594 143.753906 149.683594 C 143.859375 149.683594 143.871094 149.636719 143.921875 149.46875 C 144.207031 148.46875 144.660156 147.992188 145.121094 147.992188 C 145.230469 147.992188 145.433594 148.003906 145.433594 148.386719 C 145.433594 148.695313 145.277344 149.089844 145.183594 149.351563 L 144.347656 151.566406 C 144.277344 151.757813 144.207031 151.949219 144.207031 152.164063 C 144.207031 152.699219 144.574219 153.128906 145.148438 153.128906 C 146.242188 153.128906 146.671875 151.386719 146.671875 151.304688 Z M 146.578125 145.570313 C 146.578125 145.394531 146.433594 145.179688 146.171875 145.179688 C 145.898438 145.179688 145.589844 145.441406 145.589844 145.75 C 145.589844 146.050781 145.839844 146.144531 145.984375 146.144531 C 146.304688 146.144531 146.578125 145.832031 146.578125 145.570313 "
       style=" stroke:none;fill-rule:nonzero;fill:rgb(0%,0%,100%);fill-opacity:1;" />
    <path
       id="path76"
       d="M 201.894531 140 L 201.894531 145.667969 L 194.757813 142.835938 "
       style=" stroke:none;fill-rule:nonzero;fill:rgb(0%,0%,0%);fill-opacity:1;" />
    <path
       id="path78"
       transform="matrix(0.1,0,0,-0.1,0,174.61)"
       d="M 2018.945313 346.1 L 2018.945313 289.420312 L 1947.578125 317.740625 Z M 2018.945313 346.1 "
       style="fill:none;stroke-width:15.9404;stroke-linecap:butt;stroke-linejoin:miter;stroke:rgb(0%,0%,0%);stroke-opacity:1;stroke-miterlimit:10;" />
    <path
       id="path80"
       transform="matrix(0.1,0,0,-0.1,0,174.61)"
       d="M 2018.945313 317.740625 L 1939.609375 317.740625 "
       style="fill:none;stroke-width:15.9404;stroke-linecap:butt;stroke-linejoin:miter;stroke:rgb(0%,0%,0%);stroke-opacity:1;stroke-miterlimit:10;" />
    <path
       id="path82"
       d="M 198.300781 125.566406 C 198.648438 125.566406 198.785156 125.566406 198.785156 125.238281 C 198.785156 125.066406 198.648438 125.066406 198.335938 125.066406 L 196.9375 125.066406 C 197.265625 123.289063 197.507813 122.0625 197.644531 121.511719 C 197.75 121.09375 198.113281 120.699219 198.5625 120.699219 C 198.921875 120.699219 199.285156 120.855469 199.460938 121.007813 C 198.785156 121.078125 198.578125 121.578125 198.578125 121.871094 C 198.578125 122.21875 198.839844 122.425781 199.164063 122.425781 C 199.511719 122.425781 200.03125 122.132813 200.03125 121.476563 C 200.03125 120.75 199.304688 120.351563 198.542969 120.351563 C 197.800781 120.351563 197.078125 120.90625 196.730469 121.578125 C 196.421875 122.183594 196.246094 122.804688 195.851563 125.066406 L 194.691406 125.066406 C 194.363281 125.066406 194.191406 125.066406 194.191406 125.378906 C 194.191406 125.566406 194.296875 125.566406 194.640625 125.566406 L 195.746094 125.566406 C 195.4375 127.175781 194.726563 131.078125 194.328125 132.925781 C 194.035156 134.425781 193.777344 135.6875 192.914063 135.6875 C 192.863281 135.6875 192.359375 135.6875 192.050781 135.359375 C 192.929688 135.289063 192.929688 134.53125 192.929688 134.511719 C 192.929688 134.167969 192.671875 133.960938 192.34375 133.960938 C 191.996094 133.960938 191.480469 134.253906 191.480469 134.910156 C 191.480469 135.652344 192.242188 136.035156 192.914063 136.035156 C 194.675781 136.035156 195.402344 132.871094 195.589844 132.007813 C 195.902344 130.679688 196.746094 126.085938 196.835938 125.566406 L 198.300781 125.566406 "
       style=" stroke:none;fill-rule:nonzero;fill:rgb(0%,0%,100%);fill-opacity:1;" />
    <path
       id="path84"
       d="M 204.144531 133.105469 L 203.882813 133.105469 C 203.847656 133.308594 203.753906 133.964844 203.632813 134.15625 C 203.546875 134.261719 202.867188 134.261719 202.511719 134.261719 L 200.304688 134.261719 C 200.628906 133.988281 201.355469 133.226563 201.664063 132.941406 C 203.476563 131.269531 204.144531 130.652344 204.144531 129.472656 C 204.144531 128.101563 203.0625 127.183594 201.679688 127.183594 C 200.296875 127.183594 199.484375 128.363281 199.484375 129.386719 C 199.484375 129.996094 200.007813 129.996094 200.042969 129.996094 C 200.296875 129.996094 200.605469 129.816406 200.605469 129.4375 C 200.605469 129.101563 200.378906 128.875 200.042969 128.875 C 199.9375 128.875 199.914063 128.875 199.878906 128.886719 C 200.105469 128.078125 200.746094 127.527344 201.523438 127.527344 C 202.535156 127.527344 203.15625 128.375 203.15625 129.472656 C 203.15625 130.484375 202.570313 131.367188 201.890625 132.128906 L 199.484375 134.824219 L 199.484375 135.109375 L 203.835938 135.109375 L 204.144531 133.105469 "
       style=" stroke:none;fill-rule:nonzero;fill:rgb(0%,0%,100%);fill-opacity:1;" />
    <path
       id="path86"
       transform="matrix(0.1,0,0,-0.1,0,174.61)"
       d="M 2306.367188 90.982812 L 2759.882813 90.982812 L 2759.882813 544.5375 L 2306.367188 544.5375 Z M 2306.367188 90.982812 "
       style="fill:none;stroke-width:15.9404;stroke-linecap:butt;stroke-linejoin:miter;stroke:rgb(0%,0%,0%);stroke-opacity:1;stroke-miterlimit:10;" />
    <path
       id="path88"
       d="M 253.832031 132.667969 C 253.832031 132.394531 253.832031 132.382813 253.59375 132.382813 C 253.308594 132.707031 252.714844 133.144531 251.484375 133.144531 L 251.484375 133.492188 C 251.757813 133.492188 252.355469 133.492188 253.011719 133.183594 L 253.011719 139.394531 C 253.011719 139.820313 252.976563 139.964844 251.925781 139.964844 L 251.554688 139.964844 L 251.554688 140.308594 C 251.878906 140.285156 253.035156 140.285156 253.429688 140.285156 C 253.820313 140.285156 254.964844 140.285156 255.289063 140.308594 L 255.289063 139.964844 L 254.917969 139.964844 C 253.867188 139.964844 253.832031 139.820313 253.832031 139.394531 L 253.832031 132.667969 "
       style=" stroke:none;fill-rule:nonzero;fill:rgb(0%,0%,100%);fill-opacity:1;" />
    <path
       id="path90"
       transform="matrix(0.1,0,0,-0.1,0,174.61)"
       d="M 2502.617188 318.053125 L 2563.632813 318.053125 "
       style="fill:none;stroke-width:6.886;stroke-linecap:butt;stroke-linejoin:miter;stroke:rgb(0%,0%,100%);stroke-opacity:1;stroke-miterlimit:10;" />
    <path
       id="path92"
       d="M 254.6875 145.75 C 254.792969 145.332031 254.816406 145.214844 255.6875 145.214844 C 255.949219 145.214844 256.046875 145.214844 256.046875 144.988281 C 256.046875 144.867188 255.914063 144.867188 255.878906 144.867188 C 255.664063 144.867188 255.402344 144.894531 255.1875 144.894531 L 253.722656 144.894531 C 253.484375 144.894531 253.207031 144.867188 252.96875 144.867188 C 252.875 144.867188 252.742188 144.867188 252.742188 145.09375 C 252.742188 145.214844 252.839844 145.214844 253.078125 145.214844 C 253.816406 145.214844 253.816406 145.308594 253.816406 145.441406 C 253.816406 145.523438 253.792969 145.597656 253.769531 145.703125 L 252.160156 152.128906 C 252.050781 152.542969 252.027344 152.664063 251.15625 152.664063 C 250.894531 152.664063 250.789063 152.664063 250.789063 152.890625 C 250.789063 153.011719 250.90625 153.011719 250.96875 153.011719 C 251.183594 153.011719 251.445313 152.988281 251.660156 152.988281 L 253.125 152.988281 C 253.363281 152.988281 253.628906 153.011719 253.863281 153.011719 C 253.960938 153.011719 254.101563 153.011719 254.101563 152.796875 C 254.101563 152.664063 254.03125 152.664063 253.769531 152.664063 C 253.03125 152.664063 253.03125 152.570313 253.03125 152.425781 C 253.03125 152.402344 253.03125 152.34375 253.078125 152.152344 L 254.6875 145.75 "
       style=" stroke:none;fill-rule:nonzero;fill:rgb(0%,0%,100%);fill-opacity:1;" />
    <path
       id="path94"
       d="M 249.457031 110.152344 C 249.492188 110.046875 249.921875 109.183594 250.5625 108.628906 C 251.011719 108.214844 251.597656 107.941406 252.273438 107.941406 C 252.964844 107.941406 253.203125 108.457031 253.203125 109.148438 C 253.203125 109.253906 253.203125 109.597656 252.996094 110.410156 L 252.566406 112.1875 C 252.429688 112.707031 252.101563 113.984375 252.066406 114.175781 C 251.996094 114.433594 251.890625 114.882813 251.890625 114.949219 C 251.890625 115.191406 252.082031 115.382813 252.34375 115.382813 C 252.859375 115.382813 252.945313 114.984375 253.101563 114.363281 L 254.136719 110.238281 C 254.171875 110.097656 255.070313 107.941406 256.96875 107.941406 C 257.660156 107.941406 257.902344 108.457031 257.902344 109.148438 C 257.902344 110.117188 257.226563 111.996094 256.847656 113.035156 C 256.695313 113.449219 256.605469 113.671875 256.605469 113.984375 C 256.605469 114.761719 257.140625 115.382813 257.972656 115.382813 C 259.578125 115.382813 260.179688 112.84375 260.179688 112.742188 C 260.179688 112.652344 260.113281 112.585938 260.007813 112.585938 C 259.851563 112.585938 259.835938 112.636719 259.75 112.929688 C 259.351563 114.3125 258.714844 115.035156 258.023438 115.035156 C 257.851563 115.035156 257.574219 115.019531 257.574219 114.46875 C 257.574219 114.019531 257.78125 113.464844 257.851563 113.277344 C 258.160156 112.449219 258.9375 110.410156 258.9375 109.40625 C 258.9375 108.371094 258.335938 107.59375 257.023438 107.59375 C 255.863281 107.59375 254.929688 108.25 254.242188 109.269531 C 254.1875 108.335938 253.617188 107.59375 252.324219 107.59375 C 250.789063 107.59375 249.976563 108.683594 249.664063 109.113281 C 249.613281 108.128906 248.90625 107.59375 248.144531 107.59375 C 247.644531 107.59375 247.246094 107.835938 246.917969 108.492188 C 246.609375 109.113281 246.367188 110.167969 246.367188 110.238281 C 246.367188 110.304688 246.4375 110.390625 246.554688 110.390625 C 246.695313 110.390625 246.710938 110.375 246.816406 109.976563 C 247.074219 108.957031 247.402344 107.941406 248.09375 107.941406 C 248.492188 107.941406 248.628906 108.214844 248.628906 108.734375 C 248.628906 109.113281 248.457031 109.789063 248.335938 110.324219 L 247.851563 112.1875 C 247.78125 112.515625 247.59375 113.292969 247.507813 113.605469 C 247.386719 114.050781 247.195313 114.863281 247.195313 114.949219 C 247.195313 115.191406 247.386719 115.382813 247.644531 115.382813 C 247.851563 115.382813 248.09375 115.277344 248.230469 115.019531 C 248.265625 114.933594 248.421875 114.328125 248.507813 113.984375 L 248.886719 112.429688 L 249.457031 110.152344 "
       style=" stroke:none;fill-rule:nonzero;fill:rgb(0%,0%,100%);fill-opacity:1;" />
    <path
       id="path96"
       transform="matrix(0.1,0,0,-0.1,0,174.61)"
       d="M 552.5 1279.810937 L 831.914063 1279.810937 M 911.289063 1279.810937 L 1190.703125 1279.810937 M 1660.195313 1279.810937 L 2298.398438 1279.810937 M 2767.890625 1279.810937 L 3016.796875 1279.810937 L 3016.796875 912.740625 M 3016.796875 833.365625 L 3016.796875 317.740625 L 2767.890625 317.740625 M 2298.398438 317.740625 L 2018.984375 317.740625 M 1939.609375 317.740625 L 1660.195313 317.740625 M 1190.703125 317.740625 L 911.289063 317.740625 M 831.914063 317.740625 L 495.78125 317.740625 "
       style="fill:none;stroke-width:15.9404;stroke-linecap:butt;stroke-linejoin:miter;stroke:rgb(0%,0%,0%);stroke-opacity:1;stroke-miterlimit:10;" />
  </g>
</svg>
