<?xml version="1.0" encoding="UTF-8" standalone="no"?>
<svg
   xmlns:dc="http://purl.org/dc/elements/1.1/"
   xmlns:cc="http://creativecommons.org/ns#"
   xmlns:rdf="http://www.w3.org/1999/02/22-rdf-syntax-ns#"
   xmlns:svg="http://www.w3.org/2000/svg"
   xmlns="http://www.w3.org/2000/svg"
   viewBox="0 0 748.74664 100.01333"
   height="100.01333"
   width="748.74664"
   xml:space="preserve"
   id="svg2"
   version="1.1"><metadata
     id="metadata8"><rdf:RDF><cc:Work
         rdf:about=""><dc:format>image/svg+xml</dc:format><dc:type
           rdf:resource="http://purl.org/dc/dcmitype/StillImage" /></cc:Work></rdf:RDF></metadata><defs
     id="defs6" /><g
     transform="matrix(1.3333333,0,0,-1.3333333,0,100.01333)"
     id="g10"><g
       transform="scale(0.1)"
       id="g12"><path
         id="path14"
         style="fill:#000000;fill-opacity:1;fill-rule:nonzero;stroke:none"
         d="m 1024.75,372.281 c 0,5 -0.34,5 -5.87,5 -12.79,-11.047 -31.942,-11.047 -35.739,-11.047 h -3.282 v -7.421 h 3.282 c 6.031,0 15.187,1.031 22.089,3.281 V 271.422 H 981.234 V 264 c 7.25,0.344 25.396,0.344 33.496,0.344 8.13,0 26.43,0 33.68,-0.344 v 7.422 h -23.66 v 100.859" /><path
         id="path16"
         style="fill:#0000ff;fill-opacity:1;fill-rule:nonzero;stroke:none"
         d="m 1212.58,173.938 c 0,5 -1.38,11.39 -7.42,11.39 -3.46,0 -7.43,-4.312 -7.43,-7.765 0,-1.563 0.69,-2.594 2.07,-4.141 2.59,-2.938 5.87,-7.609 5.87,-15.719 0,-6.219 -3.79,-16.062 -6.56,-21.422 -4.83,-9.5 -12.78,-17.609 -21.77,-17.609 -10.87,0 -15.01,6.906 -16.92,16.578 1.91,4.484 5.88,15.719 5.88,20.203 0,1.906 -0.69,3.453 -2.94,3.453 -1.2,0 -2.59,-0.687 -3.45,-2.062 -2.43,-3.813 -4.66,-17.453 -4.49,-21.078 -3.28,-6.391 -12.61,-17.094 -23.65,-17.094 -11.58,0 -14.69,10.187 -14.69,20.031 0,17.953 11.23,33.672 14.33,38 1.73,2.578 2.93,4.313 2.93,4.656 0,1.204 -0.68,3.11 -2.23,3.11 -2.77,0 -3.63,-2.25 -5.02,-4.313 -8.79,-13.656 -15.01,-32.812 -15.01,-49.39 0,-10.719 3.97,-23.5 16.92,-23.5 14.33,0 23.31,12.265 26.94,18.828 1.37,-9.672 6.56,-18.828 19.17,-18.828 13.12,0 21.41,11.578 27.62,25.562 4.5,10.016 9.85,31.61 9.85,41.11" /><path
         id="path18"
         style="fill:#0000ff;fill-opacity:1;fill-rule:nonzero;stroke:none"
         d="m 1249.33,159.406 c 0,2.75 0,2.86 -2.38,2.86 -2.87,-3.219 -8.82,-7.625 -21.11,-7.625 v -3.453 c 2.75,0 8.71,0 15.27,3.093 V 92.1719 c 0,-4.2813 -0.36,-5.7188 -10.84,-5.7188 h -3.71 V 83 c 3.22,0.2344 14.78,0.2344 18.72,0.2344 3.94,0 15.38,0 18.6,-0.2344 v 3.4531 h -3.71 c -10.48,0 -10.84,1.4375 -10.84,5.7188 v 67.2341" /><path
         id="path20"
         style="fill:#000000;fill-opacity:1;fill-rule:nonzero;stroke:none"
         d="m 2725.75,372.281 c 0,5 -0.34,5 -5.87,5 -12.79,-11.047 -31.94,-11.047 -35.74,-11.047 h -3.28 v -7.421 h 3.28 c 6.03,0 15.19,1.031 22.09,3.281 v -90.672 h -24 V 264 c 7.25,0.344 25.4,0.344 33.5,0.344 8.13,0 26.43,0 33.68,-0.344 v 7.422 h -23.66 v 100.859" /><path
         id="path22"
         style="fill:#0000ff;fill-opacity:1;fill-rule:nonzero;stroke:none"
         d="m 2912.58,173.938 c 0,5 -1.38,11.39 -7.42,11.39 -3.46,0 -7.43,-4.312 -7.43,-7.765 0,-1.563 0.69,-2.594 2.07,-4.141 2.59,-2.938 5.87,-7.609 5.87,-15.719 0,-6.219 -3.79,-16.062 -6.56,-21.422 -4.83,-9.5 -12.78,-17.609 -21.77,-17.609 -10.87,0 -15.01,6.906 -16.92,16.578 1.91,4.484 5.88,15.719 5.88,20.203 0,1.906 -0.69,3.453 -2.94,3.453 -1.2,0 -2.59,-0.687 -3.45,-2.062 -2.43,-3.813 -4.66,-17.453 -4.49,-21.078 -3.28,-6.391 -12.61,-17.094 -23.65,-17.094 -11.58,0 -14.69,10.187 -14.69,20.031 0,17.953 11.23,33.672 14.33,38 1.73,2.578 2.93,4.313 2.93,4.656 0,1.204 -0.68,3.11 -2.23,3.11 -2.77,0 -3.63,-2.25 -5.02,-4.313 -8.79,-13.656 -15.01,-32.812 -15.01,-49.39 0,-10.719 3.97,-23.5 16.92,-23.5 14.33,0 23.31,12.265 26.94,18.828 1.37,-9.672 6.56,-18.828 19.17,-18.828 13.12,0 21.41,11.578 27.62,25.562 4.5,10.016 9.85,31.61 9.85,41.11" /><path
         id="path24"
         style="fill:#0000ff;fill-opacity:1;fill-rule:nonzero;stroke:none"
         d="m 2967.45,103.031 h -2.62 c -0.36,-2.031 -1.31,-8.5935 -2.5,-10.4997 -0.85,-1.0625 -7.64,-1.0625 -11.2,-1.0625 h -22.07 c 3.22,2.7343 10.5,10.3592 13.6,13.2192 18.12,16.703 24.79,22.89 24.79,34.703 0,13.703 -10.84,22.875 -24.67,22.875 -13.83,0 -21.94,-11.797 -21.94,-22.047 0,-6.078 5.25,-6.078 5.6,-6.078 2.51,0 5.61,1.781 5.61,5.593 0,3.344 -2.27,5.61 -5.61,5.61 -1.06,0 -1.31,0 -1.66,-0.125 2.27,8.109 8.7,13.594 16.44,13.594 10.14,0 16.34,-8.469 16.34,-19.422 0,-10.141 -5.84,-18.953 -12.64,-26.594 L 2920.84,85.8594 V 83 h 43.5 l 3.11,20.031" /><path
         id="path26"
         style="fill:#000000;fill-opacity:1;fill-rule:nonzero;stroke:none"
         d="m 4425.75,372.281 c 0,5 -0.34,5 -5.87,5 -12.79,-11.047 -31.94,-11.047 -35.74,-11.047 h -3.28 v -7.421 h 3.28 c 6.03,0 15.19,1.031 22.09,3.281 v -90.672 h -24 V 264 c 7.25,0.344 25.4,0.344 33.5,0.344 8.13,0 26.43,0 33.68,-0.344 v 7.422 h -23.66 v 100.859" /><path
         id="path28"
         style="fill:#0000ff;fill-opacity:1;fill-rule:nonzero;stroke:none"
         d="m 4589.92,173.594 c 0,10.875 -5.53,11.562 -6.9,11.562 -4.14,0 -7.96,-4.14 -7.96,-7.593 0,-2.079 1.22,-3.282 1.91,-3.969 1.73,-1.563 6.22,-6.219 6.22,-15.203 0,-7.25 -10.36,-47.657 -31.1,-47.657 -10.53,0 -12.59,8.797 -12.59,15.188 0,8.641 3.97,20.719 8.63,33.156 2.76,7.078 3.45,8.813 3.45,12.266 0,7.25 -5.17,13.812 -13.64,13.812 -15.89,0 -22.28,-25.031 -22.28,-26.422 0,-0.687 0.7,-1.546 1.9,-1.546 1.55,0 1.74,0.687 2.42,3.109 4.15,14.844 10.88,21.406 17.44,21.406 1.55,0 4.49,0 4.49,-5.703 0,-4.484 -1.89,-9.5 -4.49,-16.062 -8.28,-22.094 -8.28,-27.454 -8.28,-31.594 0,-3.797 0.52,-10.875 5.86,-15.719 6.22,-5.359 14.86,-5.359 16.41,-5.359 28.67,0 38.51,56.484 38.51,66.328" /><path
         id="path30"
         style="fill:#0000ff;fill-opacity:1;fill-rule:nonzero;stroke:none"
         d="m 4614.94,125.797 c -2.03,-0.125 -2.5,-0.234 -2.5,-1.313 0,-1.187 0.59,-1.187 2.73,-1.187 h 5.49 c 10.12,0 14.65,-8.344 14.65,-19.797 0,-15.6094 -8.09,-19.7812 -13.93,-19.7812 -5.72,0 -15.5,2.7343 -18.96,10.6093 3.81,-0.5937 7.27,1.5469 7.27,5.8439 0,3.453 -2.5,5.828 -5.85,5.828 -2.86,0 -5.95,-1.656 -5.95,-6.1875 0,-10.6094 10.61,-19.3125 23.84,-19.3125 14.18,0 24.68,10.8438 24.68,22.891 0,10.953 -8.83,19.547 -20.27,21.562 10.38,2.985 17.05,11.688 17.05,20.985 0,9.421 -9.78,16.328 -21.35,16.328 -11.92,0 -20.73,-7.266 -20.73,-15.969 0,-4.766 3.69,-5.719 5.48,-5.719 2.5,0 5.36,1.781 5.36,5.36 0,3.812 -2.86,5.484 -5.48,5.484 -0.72,0 -0.95,0 -1.31,-0.125 4.53,8.109 15.73,8.109 16.32,8.109 3.94,0 11.69,-1.781 11.69,-13.468 0,-2.266 -0.36,-8.938 -3.81,-14.063 -3.58,-5.25 -7.63,-5.609 -10.84,-5.719 l -3.58,-0.359" /><path
         id="path32"
         style="fill:#000000;fill-opacity:1;fill-rule:nonzero;stroke:none"
         d="m 1859.34,377.906 h -113.81 l -3.45,-40.922 h 7.25 c 1.56,18.829 2.94,33.5 27.81,33.5 h 13.99 V 268.422 h -26.08 V 261 c 13.81,0.344 31.61,0.344 37.47,0.344 10.54,0 23.67,0 37.48,-0.344 v 7.422 h -26.08 v 102.062 h 13.81 c 24.88,0 26.25,-14.5 27.82,-33.5 h 7.25 l -3.46,40.922" /><path
         id="path34"
         style="fill:#000000;fill-opacity:1;fill-rule:nonzero;stroke:none"
         d="m 1978.8,378.609 h -102.24 v -7.437 h 18.32 v -102.75 h -18.32 V 261 c 5.02,0.344 24.69,0.344 31.08,0.344 9.16,0 24.53,0 32.99,-0.344 v 7.422 h -22.97 v 47.672 h 9.5 c 16.57,0 17.97,-7.61 17.97,-20.203 h 7.25 v 47.828 h -7.25 c 0,-12.61 -1.4,-20.203 -17.97,-20.203 h -9.5 v 47.656 h 24.7 c 27.45,0 31.78,-12.594 34.19,-33.5 h 7.26 l -5.01,40.937" /><path
         id="path36"
         style="fill:#0000ff;fill-opacity:1;fill-rule:nonzero;stroke:none"
         d="m 1868.33,666.406 c 0,2.75 0,2.86 -2.38,2.86 -2.87,-3.219 -8.82,-7.625 -21.11,-7.625 v -3.453 c 2.75,0 8.71,0 15.27,3.093 v -62.109 c 0,-4.281 -0.36,-5.719 -10.84,-5.719 h -3.71 V 590 c 3.22,0.234 14.78,0.234 18.72,0.234 3.94,0 15.38,0 18.6,-0.234 v 3.453 h -3.71 c -10.48,0 -10.84,1.438 -10.84,5.719 v 67.234" /><path
         id="path38"
         style="fill:none;stroke:#0000ff;stroke-width:6.886;stroke-linecap:butt;stroke-linejoin:miter;stroke-miterlimit:10;stroke-dasharray:none;stroke-opacity:1"
         d="m 1834.28,565.25 h 58.53" /><path
         id="path40"
         style="fill:#0000ff;fill-opacity:1;fill-rule:nonzero;stroke:none"
         d="m 1877.73,480.047 c 0,0.594 -0.46,1.078 -1.18,1.078 -1.08,0 -1.21,-0.359 -1.8,-2.391 -3.09,-10.843 -7.98,-14.546 -11.92,-14.546 -1.42,0 -3.1,0.359 -3.1,3.937 0,3.219 1.44,6.797 2.75,10.375 l 8.35,22.172 c 0.34,0.953 1.19,3.094 1.19,5.359 0,5.016 -3.58,9.532 -9.43,9.532 -10.96,0 -15.37,-17.282 -15.37,-18.235 0,-0.469 0.48,-1.062 1.31,-1.062 1.08,0 1.19,0.468 1.67,2.14 2.86,10.016 7.39,14.782 12.03,14.782 1.08,0 3.11,-0.125 3.11,-3.938 0,-3.094 -1.56,-7.031 -2.51,-9.656 l -8.35,-22.172 c -0.7,-1.906 -1.42,-3.813 -1.42,-5.953 0,-5.375 3.69,-9.656 9.42,-9.656 10.96,0 15.25,17.406 15.25,18.234 z m -0.95,57.344 c 0,1.781 -1.44,3.922 -4.05,3.922 -2.75,0 -5.84,-2.625 -5.84,-5.719 0,-2.985 2.5,-3.938 3.94,-3.938 3.22,0 5.95,3.11 5.95,5.735" /><path
         id="path42"
         style="fill:#0000ff;fill-opacity:1;fill-rule:nonzero;stroke:none"
         d="m 1833.83,428.672 c -4.33,0 -7.1,-3.453 -7.1,-7.078 0,-3.453 2.77,-7.094 7.1,-7.094 4.31,0 7.08,3.453 7.08,7.094 0,3.453 -2.77,7.078 -7.08,7.078 z m 60.09,0 c -4.31,0 -7.08,-3.453 -7.08,-7.078 0,-3.453 2.77,-7.094 7.08,-7.094 4.31,0 7.08,3.453 7.08,7.094 0,3.453 -2.77,7.078 -7.08,7.078" /><path
         id="path44"
         style="fill:#000000;fill-opacity:1;fill-rule:nonzero;stroke:none"
         d="m 3560.34,377.906 h -113.81 l -3.45,-40.922 h 7.25 c 1.56,18.829 2.94,33.5 27.81,33.5 h 13.99 V 268.422 h -26.08 V 261 c 13.81,0.344 31.61,0.344 37.47,0.344 10.54,0 23.67,0 37.48,-0.344 v 7.422 h -26.08 v 102.062 h 13.81 c 24.88,0 26.25,-14.5 27.82,-33.5 h 7.25 l -3.46,40.922" /><path
         id="path46"
         style="fill:#000000;fill-opacity:1;fill-rule:nonzero;stroke:none"
         d="m 3679.8,378.609 h -102.24 v -7.437 h 18.32 v -102.75 h -18.32 V 261 c 5.02,0.344 24.69,0.344 31.08,0.344 9.16,0 24.53,0 32.99,-0.344 v 7.422 h -22.97 v 47.672 h 9.5 c 16.57,0 17.97,-7.61 17.97,-20.203 h 7.25 v 47.828 h -7.25 c 0,-12.61 -1.4,-20.203 -17.97,-20.203 h -9.5 v 47.656 h 24.7 c 27.45,0 31.78,-12.594 34.19,-33.5 h 7.26 l -5.01,40.937" /><path
         id="path48"
         style="fill:#0000ff;fill-opacity:1;fill-rule:nonzero;stroke:none"
         d="m 3569.33,666.406 c 0,2.75 0,2.86 -2.38,2.86 -2.87,-3.219 -8.82,-7.625 -21.11,-7.625 v -3.453 c 2.75,0 8.71,0 15.27,3.093 v -62.109 c 0,-4.281 -0.36,-5.719 -10.84,-5.719 h -3.71 V 590 c 3.22,0.234 14.78,0.234 18.72,0.234 3.94,0 15.38,0 18.6,-0.234 v 3.453 h -3.71 c -10.48,0 -10.84,1.438 -10.84,5.719 v 67.234" /><path
         id="path50"
         style="fill:none;stroke:#0000ff;stroke-width:6.886;stroke-linecap:butt;stroke-linejoin:miter;stroke-miterlimit:10;stroke-dasharray:none;stroke-opacity:1"
         d="m 3535.09,565.25 h 58.53" /><path
         id="path52"
         style="fill:#0000ff;fill-opacity:1;fill-rule:nonzero;stroke:none"
         d="m 3582.38,511.75 c -3.71,-0.703 -5.61,-3.328 -5.61,-5.953 0,-2.859 2.26,-3.813 3.93,-3.813 3.35,0 6.08,2.86 6.08,6.438 0,3.812 -3.7,7.141 -9.65,7.141 -4.77,0 -10.25,-2.141 -15.25,-9.407 -0.85,6.313 -5.61,9.407 -10.38,9.407 -4.66,0 -7.03,-3.563 -8.47,-6.188 -2.03,-4.297 -3.81,-11.453 -3.81,-12.047 0,-0.469 0.48,-1.062 1.31,-1.062 0.95,0 1.08,0.109 1.78,2.859 1.8,7.141 4.07,14.063 8.83,14.063 2.86,0 3.69,-2.032 3.69,-5.485 0,-2.625 -1.19,-7.265 -2.02,-10.969 l -3.34,-12.875 c -0.47,-2.265 -1.78,-7.625 -2.38,-9.765 -0.84,-3.11 -2.15,-8.703 -2.15,-9.313 0,-1.656 1.31,-2.968 3.11,-2.968 1.29,0 3.56,0.828 4.28,3.218 0.36,0.953 4.76,18.953 5.48,21.688 0.6,2.625 1.32,5.125 1.91,7.75 0.48,1.672 0.95,3.578 1.31,5.125 0.36,1.078 3.58,6.922 6.56,9.531 1.43,1.313 4.54,4.063 9.41,4.063 1.91,0 3.83,-0.36 5.38,-1.438" /><path
         id="path54"
         style="fill:#0000ff;fill-opacity:1;fill-rule:nonzero;stroke:none"
         d="m 3533.83,428.672 c -4.33,0 -7.1,-3.453 -7.1,-7.078 0,-3.453 2.77,-7.094 7.1,-7.094 4.31,0 7.08,3.453 7.08,7.094 0,3.453 -2.77,7.078 -7.08,7.078 z m 60.09,0 c -4.31,0 -7.08,-3.453 -7.08,-7.078 0,-3.453 2.77,-7.094 7.08,-7.094 4.31,0 7.08,3.453 7.08,7.094 0,3.453 -2.77,7.078 -7.08,7.078" /><path
         id="path56"
         style="fill:#000000;fill-opacity:1;fill-rule:nonzero;stroke:none"
         d="m 5276.48,372.047 h 19.35 v 7.422 c -6.22,-0.344 -23.49,-0.344 -30.74,-0.344 -7.25,0 -24.51,0 -30.73,0.344 v -7.422 h 19.33 V 268.422 h -19.33 V 261 c 6.22,0.344 23.48,0.344 30.73,0.344 7.25,0 24.52,0 30.74,-0.344 v 7.422 h -19.35 v 103.625" /><path
         id="path58"
         style="fill:#0000ff;fill-opacity:1;fill-rule:nonzero;stroke:none"
         d="m 5420.58,333.594 c 0.34,1.047 4.65,9.672 11.05,15.203 4.5,4.141 10.35,6.906 17.09,6.906 6.91,0 9.33,-5.187 9.33,-12.094 0,-1.031 0,-4.484 -2.07,-12.593 l -4.32,-17.797 c -1.38,-5.172 -4.66,-17.953 -5,-19.86 -0.71,-2.593 -1.74,-7.078 -1.74,-7.765 0,-2.422 1.91,-4.328 4.5,-4.328 5.17,0 6.03,3.984 7.6,10.203 l 10.36,41.265 c 0.34,1.391 9.32,22.969 28.32,22.969 6.91,0 9.32,-5.187 9.32,-12.094 0,-9.671 -6.74,-28.484 -10.54,-38.843 -1.54,-4.157 -2.42,-6.391 -2.42,-9.5 0,-7.782 5.36,-14 13.66,-14 16.05,0 22.09,25.39 22.09,26.422 0,0.875 -0.68,1.562 -1.72,1.562 -1.56,0 -1.73,-0.516 -2.59,-3.453 -3.97,-13.813 -10.36,-21.063 -17.27,-21.063 -1.73,0 -4.5,0.172 -4.5,5.688 0,4.5 2.08,10.016 2.77,11.922 3.11,8.281 10.89,28.672 10.89,38.687 0,10.36 -6.05,18.125 -19.17,18.125 -11.58,0 -20.91,-6.562 -27.81,-16.75 -0.52,9.328 -6.22,16.75 -19.18,16.75 -15.35,0 -23.48,-10.875 -26.59,-15.203 -0.51,9.844 -7.59,15.203 -15.19,15.203 -5.01,0 -8.98,-2.422 -12.26,-8.984 -3.11,-6.219 -5.53,-16.75 -5.53,-17.438 0,-0.687 0.7,-1.546 1.9,-1.546 1.38,0 1.55,0.171 2.6,4.14 2.59,10.188 5.87,20.375 12.78,20.375 3.97,0 5.34,-2.765 5.34,-7.937 0,-3.813 -1.72,-10.547 -2.94,-15.891 l -4.82,-18.656 c -0.69,-3.281 -2.6,-11.047 -3.46,-14.156 -1.2,-4.485 -3.11,-12.61 -3.11,-13.469 0,-2.422 1.91,-4.328 4.49,-4.328 2.08,0 4.5,1.047 5.87,3.64 0.35,0.86 1.91,6.907 2.77,10.36 l 3.8,15.531 5.7,22.797" /><path
         id="path60"
         style="fill:#0000ff;fill-opacity:1;fill-rule:nonzero;stroke:none"
         d="m 5351.67,350.172 c 0,4.328 -3.45,7.094 -7.08,7.094 -3.45,0 -7.09,-2.766 -7.09,-7.094 0,-4.313 3.45,-7.078 7.09,-7.078 3.46,0 7.08,2.765 7.08,7.078 z m 0,-60.094 c 0,4.313 -3.45,7.078 -7.08,7.078 -3.45,0 -7.09,-2.765 -7.09,-7.078 0,-4.312 3.45,-7.078 7.09,-7.078 3.46,0 7.08,2.766 7.08,7.078" /><path
         id="path62"
         style="fill:#000000;fill-opacity:1;fill-rule:nonzero;stroke:none"
         d="m 108.859,336.984 c -17.0934,3.797 -17.609,16.235 -17.609,18.657 0,8.797 5.7031,18.984 22.453,18.984 16.75,0 31.766,-8.109 35.406,-30.734 0.516,-3.625 0.516,-3.797 3.797,-3.797 3.625,0 3.625,0.515 3.625,4.484 v 32.469 c 0,3.281 0,4.5 -2.593,4.5 -1.204,0 -1.735,-0.172 -3.282,-1.906 l -7.422,-8.469 c -4.328,3.641 -12.953,10.375 -29.703,10.375 -24.7029,0 -37.8279,-15.547 -37.8279,-34.375 0,-11.563 6.2188,-19.688 8.6407,-22.109 8.9843,-8.969 13.8125,-10.016 31.7812,-13.985 17.266,-3.797 19.328,-4.14 23.141,-7.765 2.234,-2.25 7.25,-7.079 7.25,-15.891 0,-7.422 -3.625,-21.063 -22.969,-21.063 -15.203,0 -39.2032,5.172 -40.5939,30.391 -0.1718,3.109 -0.1718,3.625 -3.625,3.625 -3.625,0 -3.625,-0.516 -3.625,-4.484 v -32.469 c 0,-3.281 0,-4.5 2.5938,-4.5 1.2031,0 1.375,0.172 3.1094,1.734 1.9062,1.891 3.4531,4.141 7.7656,8.453 10.0156,-7.937 24.1871,-10.187 34.5471,-10.187 26.937,0 38.328,18.312 38.328,36.609 0,16.235 -10.703,31.782 -29.531,36.094 l -23.657,5.359" /><path
         id="path64"
         style="fill:#000000;fill-opacity:1;fill-rule:nonzero;stroke:none"
         d="m 250.063,299.172 c 3.968,0 5,0 5,4.312 0,5.172 -1.204,18.125 -9.157,26.25 -7.25,7.25 -16.922,9.5 -26.937,9.5 -26.938,0 -41.61,-17.625 -41.61,-39.375 0,-24.187 17.782,-39.89 43.86,-39.89 26.078,0 33.844,18.297 33.844,21.234 0,2.594 -2.594,2.594 -3.625,2.594 -2.766,0 -2.938,-0.516 -3.969,-2.766 -4.485,-11.218 -15.891,-14.843 -24.172,-14.843 -25.047,0 -25.219,23.312 -25.219,32.984 z m -51.985,5 c 0.344,7.078 0.516,13.812 4.141,20.031 3.281,5.531 9.328,9.328 16.75,9.328 18.484,0 20.031,-20.718 20.203,-29.359 h -41.094" /><path
         id="path66"
         style="fill:#0000ff;fill-opacity:1;fill-rule:nonzero;stroke:none"
         d="m 166.563,528.109 h 28.671 c 2.235,0 7.938,0 7.938,5.516 0,3.813 -3.281,3.813 -6.391,3.813 h -47.484 c -3.969,0 -9.844,0 -17.797,-8.469 -4.484,-5.016 -10.016,-14.156 -10.016,-15.203 0,-1.032 0.875,-1.375 1.907,-1.375 1.203,0 1.375,0.515 2.25,1.547 8.968,14.171 17.953,14.171 22.265,14.171 h 14.344 l -17.969,-59.234 c -0.859,-2.594 -0.859,-2.937 -0.859,-3.453 0,-1.906 1.203,-4.328 4.656,-4.328 5.36,0 6.219,4.672 6.735,7.265 l 11.75,59.75" /><path
         id="path68"
         style="fill:#0000ff;fill-opacity:1;fill-rule:nonzero;stroke:none"
         d="m 132.828,428.672 c -4.328,0 -7.094,-3.453 -7.094,-7.078 0,-3.453 2.766,-7.094 7.094,-7.094 4.313,0 7.078,3.453 7.078,7.094 0,3.453 -2.765,7.078 -7.078,7.078 z m 60.094,0 c -4.313,0 -7.078,-3.453 -7.078,-7.078 0,-3.453 2.765,-7.094 7.078,-7.094 4.312,0 7.078,3.453 7.078,7.094 0,3.453 -2.766,7.078 -7.078,7.078" /><path
         id="path70"
         style="fill:none;stroke:#000000;stroke-width:15.9404;stroke-linecap:butt;stroke-linejoin:miter;stroke-miterlimit:10;stroke-dasharray:none;stroke-opacity:1"
         d="m 4515.98,319.781 h 622.48" /><path
         id="path72"
         style="fill:none;stroke:#000000;stroke-width:15.9404;stroke-linecap:butt;stroke-linejoin:miter;stroke-miterlimit:10;stroke-dasharray:none;stroke-opacity:1"
         d="m 5138.46,319.781 h 15.94 l -68.71,-57.656" /><path
         id="path74"
         style="fill:none;stroke:#000000;stroke-width:15.9404;stroke-linecap:butt;stroke-linejoin:miter;stroke-miterlimit:10;stroke-dasharray:none;stroke-opacity:1"
         d="M 313.527,319.781 H 874.082" /><path
         id="path76"
         style="fill:none;stroke:#000000;stroke-width:15.9404;stroke-linecap:butt;stroke-linejoin:miter;stroke-miterlimit:10;stroke-dasharray:none;stroke-opacity:1"
         d="M 874.082,319.781 H 890.02 L 821.316,262.125" /><path
         id="path78"
         style="fill:none;stroke:#000000;stroke-width:15.9404;stroke-linecap:butt;stroke-linejoin:miter;stroke-miterlimit:10;stroke-dasharray:none;stroke-opacity:1"
         d="M 4313.54,319.781 H 3783.22" /><path
         id="path80"
         style="fill:none;stroke:#000000;stroke-width:15.9404;stroke-linecap:butt;stroke-linejoin:miter;stroke-miterlimit:10;stroke-dasharray:none;stroke-opacity:1"
         d="m 3783.22,319.781 h -15.94 l 68.71,-57.656" /><path
         id="path82"
         style="fill:none;stroke:#000000;stroke-width:15.9404;stroke-linecap:butt;stroke-linejoin:miter;stroke-miterlimit:10;stroke-dasharray:none;stroke-opacity:1"
         d="M 3383.33,319.781 H 2853.02" /><path
         id="path84"
         style="fill:none;stroke:#000000;stroke-width:15.9404;stroke-linecap:butt;stroke-linejoin:miter;stroke-miterlimit:10;stroke-dasharray:none;stroke-opacity:1"
         d="m 2853.02,319.781 h -15.95 l 68.71,-57.656" /><path
         id="path86"
         style="fill:none;stroke:#000000;stroke-width:15.9404;stroke-linecap:butt;stroke-linejoin:miter;stroke-miterlimit:10;stroke-dasharray:none;stroke-opacity:1"
         d="M 2612.73,319.781 H 2082.41" /><path
         id="path88"
         style="fill:none;stroke:#000000;stroke-width:15.9404;stroke-linecap:butt;stroke-linejoin:miter;stroke-miterlimit:10;stroke-dasharray:none;stroke-opacity:1"
         d="m 2082.41,319.781 h -15.94 l 68.71,-57.656" /><path
         id="path90"
         style="fill:none;stroke:#000000;stroke-width:15.9404;stroke-linecap:butt;stroke-linejoin:miter;stroke-miterlimit:10;stroke-dasharray:none;stroke-opacity:1"
         d="M 1682.52,319.781 H 1152.21" /><path
         id="path92"
         style="fill:none;stroke:#000000;stroke-width:15.9404;stroke-linecap:butt;stroke-linejoin:miter;stroke-miterlimit:10;stroke-dasharray:none;stroke-opacity:1"
         d="m 1152.21,319.781 h -15.94 l 68.7,-57.656" /></g></g></svg>
