<?xml version="1.0" encoding="UTF-8" standalone="no"?>
<svg
   xmlns:dc="http://purl.org/dc/elements/1.1/"
   xmlns:cc="http://creativecommons.org/ns#"
   xmlns:rdf="http://www.w3.org/1999/02/22-rdf-syntax-ns#"
   xmlns:svg="http://www.w3.org/2000/svg"
   xmlns="http://www.w3.org/2000/svg"
   id="svg73"
   version="1.2"
   viewBox="0 0 476.52 75.01"
   height="75.01pt"
   width="476.52pt">
  <metadata
     id="metadata79">
    <rdf:RDF>
      <cc:Work
         rdf:about="">
        <dc:format>image/svg+xml</dc:format>
        <dc:type
           rdf:resource="http://purl.org/dc/dcmitype/StillImage" />
      </cc:Work>
    </rdf:RDF>
  </metadata>
  <defs
     id="defs77" />
  <g
     id="surface1">
    <path
       id="path2"
       d="M 102.476563 37.78125 C 102.476563 37.28125 102.441406 37.28125 101.886719 37.28125 C 100.609375 38.386719 98.695313 38.386719 98.3125 38.386719 L 97.984375 38.386719 L 97.984375 39.128906 L 98.3125 39.128906 C 98.917969 39.128906 99.832031 39.027344 100.523438 38.800781 L 100.523438 47.867188 L 98.125 47.867188 L 98.125 48.609375 C 98.847656 48.574219 100.664063 48.574219 101.472656 48.574219 C 102.285156 48.574219 104.117188 48.574219 104.839844 48.609375 L 104.839844 47.867188 L 102.476563 47.867188 L 102.476563 37.78125 "
       style=" stroke:none;fill-rule:nonzero;fill:rgb(0%,0%,0%);fill-opacity:1;" />
    <path
       id="path4"
       d="M 121.257813 57.617188 C 121.257813 57.117188 121.121094 56.476563 120.515625 56.476563 C 120.171875 56.476563 119.773438 56.910156 119.773438 57.253906 C 119.773438 57.410156 119.84375 57.511719 119.980469 57.667969 C 120.238281 57.960938 120.566406 58.429688 120.566406 59.238281 C 120.566406 59.863281 120.1875 60.847656 119.910156 61.382813 C 119.429688 62.332031 118.632813 63.144531 117.734375 63.144531 C 116.648438 63.144531 116.234375 62.453125 116.042969 61.484375 C 116.234375 61.035156 116.628906 59.914063 116.628906 59.464844 C 116.628906 59.273438 116.5625 59.121094 116.335938 59.121094 C 116.214844 59.121094 116.078125 59.1875 115.992188 59.324219 C 115.746094 59.707031 115.523438 61.070313 115.542969 61.433594 C 115.214844 62.074219 114.28125 63.144531 113.175781 63.144531 C 112.019531 63.144531 111.707031 62.125 111.707031 61.140625 C 111.707031 59.34375 112.832031 57.773438 113.140625 57.339844 C 113.3125 57.082031 113.433594 56.910156 113.433594 56.875 C 113.433594 56.753906 113.367188 56.5625 113.210938 56.5625 C 112.933594 56.5625 112.847656 56.789063 112.710938 56.996094 C 111.828125 58.359375 111.207031 60.277344 111.207031 61.933594 C 111.207031 63.003906 111.605469 64.285156 112.898438 64.285156 C 114.332031 64.285156 115.230469 63.058594 115.59375 62.402344 C 115.730469 63.367188 116.25 64.285156 117.511719 64.285156 C 118.824219 64.285156 119.652344 63.125 120.273438 61.726563 C 120.722656 60.726563 121.257813 58.566406 121.257813 57.617188 "
       style=" stroke:none;fill-rule:nonzero;fill:rgb(0%,0%,100%);fill-opacity:1;" />
    <path
       id="path6"
       d="M 124.933594 59.070313 C 124.933594 58.792969 124.933594 58.785156 124.695313 58.785156 C 124.40625 59.105469 123.8125 59.546875 122.585938 59.546875 L 122.585938 59.890625 C 122.859375 59.890625 123.453125 59.890625 124.109375 59.582031 L 124.109375 65.792969 C 124.109375 66.222656 124.074219 66.363281 123.027344 66.363281 L 122.65625 66.363281 L 122.65625 66.710938 C 122.976563 66.6875 124.132813 66.6875 124.527344 66.6875 C 124.921875 66.6875 126.066406 66.6875 126.386719 66.710938 L 126.386719 66.363281 L 126.015625 66.363281 C 124.96875 66.363281 124.933594 66.222656 124.933594 65.792969 L 124.933594 59.070313 "
       style=" stroke:none;fill-rule:nonzero;fill:rgb(0%,0%,100%);fill-opacity:1;" />
    <path
       id="path8"
       d="M 357.574219 37.78125 C 357.574219 37.28125 357.539063 37.28125 356.988281 37.28125 C 355.710938 38.386719 353.792969 38.386719 353.414063 38.386719 L 353.085938 38.386719 L 353.085938 39.128906 L 353.414063 39.128906 C 354.015625 39.128906 354.933594 39.027344 355.621094 38.800781 L 355.621094 47.867188 L 353.222656 47.867188 L 353.222656 48.609375 C 353.949219 48.574219 355.761719 48.574219 356.574219 48.574219 C 357.386719 48.574219 359.214844 48.574219 359.941406 48.609375 L 359.941406 47.867188 L 357.574219 47.867188 L 357.574219 37.78125 "
       style=" stroke:none;fill-rule:nonzero;fill:rgb(0%,0%,0%);fill-opacity:1;" />
    <path
       id="path10"
       d="M 373.992188 57.652344 C 373.992188 56.5625 373.4375 56.496094 373.300781 56.496094 C 372.886719 56.496094 372.507813 56.910156 372.507813 57.253906 C 372.507813 57.460938 372.628906 57.582031 372.695313 57.652344 C 372.871094 57.808594 373.320313 58.273438 373.320313 59.171875 C 373.320313 59.894531 372.28125 63.9375 370.210938 63.9375 C 369.15625 63.9375 368.949219 63.058594 368.949219 62.417969 C 368.949219 61.554688 369.347656 60.347656 369.8125 59.101563 C 370.089844 58.394531 370.15625 58.222656 370.15625 57.875 C 370.15625 57.152344 369.640625 56.496094 368.792969 56.496094 C 367.203125 56.496094 366.566406 58.996094 366.566406 59.136719 C 366.566406 59.207031 366.636719 59.292969 366.757813 59.292969 C 366.910156 59.292969 366.929688 59.222656 366.996094 58.980469 C 367.414063 57.496094 368.085938 56.839844 368.742188 56.839844 C 368.898438 56.839844 369.191406 56.839844 369.191406 57.410156 C 369.191406 57.859375 369.003906 58.359375 368.742188 59.015625 C 367.914063 61.226563 367.914063 61.761719 367.914063 62.175781 C 367.914063 62.554688 367.964844 63.261719 368.5 63.746094 C 369.121094 64.285156 369.984375 64.285156 370.140625 64.285156 C 373.007813 64.285156 373.992188 58.636719 373.992188 57.652344 "
       style=" stroke:none;fill-rule:nonzero;fill:rgb(0%,0%,100%);fill-opacity:1;" />
    <path
       id="path12"
       d="M 376.394531 62.429688 C 376.191406 62.441406 376.144531 62.453125 376.144531 62.5625 C 376.144531 62.679688 376.203125 62.679688 376.417969 62.679688 L 376.964844 62.679688 C 377.976563 62.679688 378.429688 63.515625 378.429688 64.660156 C 378.429688 66.222656 377.621094 66.636719 377.039063 66.636719 C 376.464844 66.636719 375.488281 66.363281 375.140625 65.578125 C 375.523438 65.636719 375.867188 65.421875 375.867188 64.992188 C 375.867188 64.648438 375.617188 64.410156 375.285156 64.410156 C 374.996094 64.410156 374.6875 64.574219 374.6875 65.027344 C 374.6875 66.089844 375.75 66.960938 377.074219 66.960938 C 378.492188 66.960938 379.539063 65.875 379.539063 64.671875 C 379.539063 63.574219 378.65625 62.714844 377.515625 62.515625 C 378.550781 62.214844 379.21875 61.347656 379.21875 60.417969 C 379.21875 59.472656 378.242188 58.785156 377.085938 58.785156 C 375.890625 58.785156 375.011719 59.511719 375.011719 60.378906 C 375.011719 60.855469 375.378906 60.953125 375.558594 60.953125 C 375.808594 60.953125 376.09375 60.773438 376.09375 60.417969 C 376.09375 60.035156 375.808594 59.867188 375.546875 59.867188 C 375.476563 59.867188 375.453125 59.867188 375.414063 59.878906 C 375.867188 59.070313 376.988281 59.070313 377.046875 59.070313 C 377.441406 59.070313 378.21875 59.246094 378.21875 60.417969 C 378.21875 60.644531 378.179688 61.308594 377.835938 61.824219 C 377.476563 62.347656 377.074219 62.382813 376.753906 62.394531 L 376.394531 62.429688 "
       style=" stroke:none;fill-rule:nonzero;fill:rgb(0%,0%,100%);fill-opacity:1;" />
    <path
       id="path14"
       d="M 185.933594 37.21875 L 174.554688 37.21875 L 174.207031 41.3125 L 174.933594 41.3125 C 175.089844 39.429688 175.226563 37.960938 177.714844 37.960938 L 179.113281 37.960938 L 179.113281 48.167969 L 176.503906 48.167969 L 176.503906 48.910156 C 177.886719 48.875 179.664063 48.875 180.253906 48.875 C 181.304688 48.875 182.617188 48.875 184 48.910156 L 184 48.167969 L 181.390625 48.167969 L 181.390625 37.960938 L 182.773438 37.960938 C 185.261719 37.960938 185.398438 39.410156 185.554688 41.3125 L 186.28125 41.3125 L 185.933594 37.21875 "
       style=" stroke:none;fill-rule:nonzero;fill:rgb(0%,0%,0%);fill-opacity:1;" />
    <path
       id="path16"
       d="M 197.878906 37.148438 L 187.65625 37.148438 L 187.65625 37.894531 L 189.488281 37.894531 L 189.488281 48.167969 L 187.65625 48.167969 L 187.65625 48.910156 C 188.15625 48.875 190.125 48.875 190.765625 48.875 C 191.679688 48.875 193.21875 48.875 194.0625 48.910156 L 194.0625 48.167969 L 191.765625 48.167969 L 191.765625 43.402344 L 192.714844 43.402344 C 194.371094 43.402344 194.511719 44.160156 194.511719 45.421875 L 195.238281 45.421875 L 195.238281 40.636719 L 194.511719 40.636719 C 194.511719 41.898438 194.371094 42.660156 192.714844 42.660156 L 191.765625 42.660156 L 191.765625 37.894531 L 194.234375 37.894531 C 196.980469 37.894531 197.414063 39.152344 197.65625 41.242188 L 198.382813 41.242188 L 197.878906 37.148438 "
       style=" stroke:none;fill-rule:nonzero;fill:rgb(0%,0%,0%);fill-opacity:1;" />
    <path
       id="path18"
       d="M 186.832031 8.371094 C 186.832031 8.09375 186.832031 8.082031 186.59375 8.082031 C 186.308594 8.40625 185.714844 8.847656 184.484375 8.847656 L 184.484375 9.191406 C 184.757813 9.191406 185.355469 9.191406 186.011719 8.882813 L 186.011719 15.09375 C 186.011719 15.519531 185.976563 15.664063 184.925781 15.664063 L 184.554688 15.664063 L 184.554688 16.011719 C 184.878906 15.988281 186.035156 15.988281 186.429688 15.988281 C 186.820313 15.988281 187.964844 15.988281 188.289063 16.011719 L 188.289063 15.664063 L 187.917969 15.664063 C 186.867188 15.664063 186.832031 15.519531 186.832031 15.09375 L 186.832031 8.371094 "
       style=" stroke:none;fill-rule:nonzero;fill:rgb(0%,0%,100%);fill-opacity:1;" />
    <path
       id="path20"
       transform="matrix(0.1,0,0,-0.1,0,75.01)"
       d="M 1834.296875 565.25625 L 1892.8125 565.25625 "
       style="fill:none;stroke-width:6.886;stroke-linecap:butt;stroke-linejoin:miter;stroke:rgb(0%,0%,100%);stroke-opacity:1;stroke-miterlimit:10;" />
    <path
       id="path22"
       d="M 187.773438 27.003906 C 187.773438 26.945313 187.726563 26.898438 187.65625 26.898438 C 187.546875 26.898438 187.535156 26.933594 187.476563 27.136719 C 187.164063 28.222656 186.675781 28.589844 186.28125 28.589844 C 186.140625 28.589844 185.972656 28.554688 185.972656 28.199219 C 185.972656 27.875 186.117188 27.519531 186.246094 27.160156 L 187.082031 24.941406 C 187.117188 24.847656 187.203125 24.632813 187.203125 24.40625 C 187.203125 23.90625 186.84375 23.453125 186.257813 23.453125 C 185.164063 23.453125 184.722656 25.183594 184.722656 25.277344 C 184.722656 25.324219 184.769531 25.382813 184.851563 25.382813 C 184.960938 25.382813 184.972656 25.335938 185.019531 25.167969 C 185.304688 24.167969 185.757813 23.691406 186.222656 23.691406 C 186.332031 23.691406 186.535156 23.703125 186.535156 24.085938 C 186.535156 24.394531 186.378906 24.789063 186.28125 25.050781 L 185.449219 27.269531 C 185.378906 27.457031 185.304688 27.648438 185.304688 27.863281 C 185.304688 28.402344 185.675781 28.828125 186.246094 28.828125 C 187.34375 28.828125 187.773438 27.089844 187.773438 27.003906 Z M 187.679688 21.269531 C 187.679688 21.09375 187.535156 20.878906 187.273438 20.878906 C 186.996094 20.878906 186.6875 21.140625 186.6875 21.449219 C 186.6875 21.75 186.9375 21.84375 187.082031 21.84375 C 187.40625 21.84375 187.679688 21.535156 187.679688 21.269531 "
       style=" stroke:none;fill-rule:nonzero;fill:rgb(0%,0%,100%);fill-opacity:1;" />
    <path
       id="path24"
       d="M 183.382813 32.144531 C 182.949219 32.144531 182.671875 32.488281 182.671875 32.851563 C 182.671875 33.195313 182.949219 33.558594 183.382813 33.558594 C 183.8125 33.558594 184.089844 33.214844 184.089844 32.851563 C 184.089844 32.503906 183.8125 32.144531 183.382813 32.144531 Z M 189.390625 32.144531 C 188.960938 32.144531 188.683594 32.488281 188.683594 32.851563 C 188.683594 33.195313 188.960938 33.558594 189.390625 33.558594 C 189.824219 33.558594 190.101563 33.214844 190.101563 32.851563 C 190.101563 32.503906 189.824219 32.144531 189.390625 32.144531 "
       style=" stroke:none;fill-rule:nonzero;fill:rgb(0%,0%,100%);fill-opacity:1;" />
    <path
       id="path26"
       d="M 271.035156 37.21875 L 259.652344 37.21875 L 259.308594 41.3125 L 260.03125 41.3125 C 260.1875 39.429688 260.328125 37.960938 262.8125 37.960938 L 264.214844 37.960938 L 264.214844 48.167969 L 261.605469 48.167969 L 261.605469 48.910156 C 262.984375 48.875 264.765625 48.875 265.351563 48.875 C 266.40625 48.875 267.71875 48.875 269.101563 48.910156 L 269.101563 48.167969 L 266.492188 48.167969 L 266.492188 37.960938 L 267.871094 37.960938 C 270.359375 37.960938 270.496094 39.410156 270.65625 41.3125 L 271.378906 41.3125 L 271.035156 37.21875 "
       style=" stroke:none;fill-rule:nonzero;fill:rgb(0%,0%,0%);fill-opacity:1;" />
    <path
       id="path28"
       d="M 282.878906 37.148438 L 272.65625 37.148438 L 272.65625 37.894531 L 274.488281 37.894531 L 274.488281 48.167969 L 272.65625 48.167969 L 272.65625 48.910156 C 273.15625 48.875 275.125 48.875 275.765625 48.875 C 276.679688 48.875 278.21875 48.875 279.0625 48.910156 L 279.0625 48.167969 L 276.765625 48.167969 L 276.765625 43.402344 L 277.714844 43.402344 C 279.371094 43.402344 279.511719 44.160156 279.511719 45.421875 L 280.238281 45.421875 L 280.238281 40.636719 L 279.511719 40.636719 C 279.511719 41.898438 279.371094 42.660156 277.714844 42.660156 L 276.765625 42.660156 L 276.765625 37.894531 L 279.234375 37.894531 C 281.980469 37.894531 282.414063 39.152344 282.65625 41.242188 L 283.382813 41.242188 L 282.878906 37.148438 "
       style=" stroke:none;fill-rule:nonzero;fill:rgb(0%,0%,0%);fill-opacity:1;" />
    <path
       id="path30"
       d="M 271.933594 8.371094 C 271.933594 8.09375 271.933594 8.082031 271.695313 8.082031 C 271.40625 8.40625 270.8125 8.847656 269.585938 8.847656 L 269.585938 9.191406 C 269.859375 9.191406 270.453125 9.191406 271.109375 8.882813 L 271.109375 15.09375 C 271.109375 15.519531 271.074219 15.664063 270.027344 15.664063 L 269.65625 15.664063 L 269.65625 16.011719 C 269.976563 15.988281 271.132813 15.988281 271.527344 15.988281 C 271.921875 15.988281 273.066406 15.988281 273.386719 16.011719 L 273.386719 15.664063 L 273.015625 15.664063 C 271.96875 15.664063 271.933594 15.519531 271.933594 15.09375 L 271.933594 8.371094 "
       style=" stroke:none;fill-rule:nonzero;fill:rgb(0%,0%,100%);fill-opacity:1;" />
    <path
       id="path32"
       transform="matrix(0.1,0,0,-0.1,0,75.01)"
       d="M 2684.6875 565.25625 L 2743.203125 565.25625 "
       style="fill:none;stroke-width:6.886;stroke-linecap:butt;stroke-linejoin:miter;stroke:rgb(0%,0%,100%);stroke-opacity:1;stroke-miterlimit:10;" />
    <path
       id="path34"
       d="M 273.238281 23.835938 C 272.867188 23.90625 272.675781 24.167969 272.675781 24.429688 C 272.675781 24.714844 272.902344 24.8125 273.070313 24.8125 C 273.40625 24.8125 273.679688 24.527344 273.679688 24.167969 C 273.679688 23.785156 273.308594 23.453125 272.714844 23.453125 C 272.234375 23.453125 271.6875 23.667969 271.1875 24.394531 C 271.101563 23.761719 270.628906 23.453125 270.148438 23.453125 C 269.683594 23.453125 269.445313 23.808594 269.304688 24.074219 C 269.101563 24.503906 268.921875 25.21875 268.921875 25.277344 C 268.921875 25.324219 268.96875 25.382813 269.054688 25.382813 C 269.148438 25.382813 269.160156 25.371094 269.230469 25.097656 C 269.410156 24.382813 269.636719 23.691406 270.113281 23.691406 C 270.398438 23.691406 270.484375 23.894531 270.484375 24.238281 C 270.484375 24.503906 270.363281 24.964844 270.28125 25.335938 L 269.945313 26.625 C 269.898438 26.851563 269.769531 27.386719 269.710938 27.601563 C 269.625 27.910156 269.492188 28.472656 269.492188 28.53125 C 269.492188 28.699219 269.625 28.828125 269.804688 28.828125 C 269.933594 28.828125 270.160156 28.746094 270.234375 28.507813 C 270.269531 28.410156 270.710938 26.613281 270.78125 26.339844 C 270.839844 26.074219 270.914063 25.824219 270.972656 25.5625 C 271.019531 25.394531 271.066406 25.207031 271.101563 25.050781 C 271.140625 24.941406 271.460938 24.359375 271.757813 24.097656 C 271.902344 23.964844 272.214844 23.691406 272.699219 23.691406 C 272.890625 23.691406 273.082031 23.726563 273.238281 23.835938 "
       style=" stroke:none;fill-rule:nonzero;fill:rgb(0%,0%,100%);fill-opacity:1;" />
    <path
       id="path36"
       d="M 268.382813 32.144531 C 267.949219 32.144531 267.671875 32.488281 267.671875 32.851563 C 267.671875 33.195313 267.949219 33.558594 268.382813 33.558594 C 268.8125 33.558594 269.089844 33.214844 269.089844 32.851563 C 269.089844 32.503906 268.8125 32.144531 268.382813 32.144531 Z M 274.390625 32.144531 C 273.960938 32.144531 273.683594 32.488281 273.683594 32.851563 C 273.683594 33.195313 273.960938 33.558594 274.390625 33.558594 C 274.824219 33.558594 275.101563 33.214844 275.101563 32.851563 C 275.101563 32.503906 274.824219 32.144531 274.390625 32.144531 "
       style=" stroke:none;fill-rule:nonzero;fill:rgb(0%,0%,100%);fill-opacity:1;" />
    <path
       id="path38"
       d="M 442.648438 37.804688 L 444.582031 37.804688 L 444.582031 37.0625 C 443.960938 37.097656 442.234375 37.097656 441.507813 37.097656 C 440.785156 37.097656 439.058594 37.097656 438.4375 37.0625 L 438.4375 37.804688 L 440.367188 37.804688 L 440.367188 48.167969 L 438.4375 48.167969 L 438.4375 48.910156 C 439.058594 48.875 440.785156 48.875 441.507813 48.875 C 442.234375 48.875 443.960938 48.875 444.582031 48.910156 L 444.582031 48.167969 L 442.648438 48.167969 L 442.648438 37.804688 "
       style=" stroke:none;fill-rule:nonzero;fill:rgb(0%,0%,0%);fill-opacity:1;" />
    <path
       id="path40"
       d="M 457.058594 41.652344 C 457.09375 41.546875 457.523438 40.683594 458.164063 40.128906 C 458.613281 39.714844 459.199219 39.441406 459.871094 39.441406 C 460.5625 39.441406 460.804688 39.957031 460.804688 40.648438 C 460.804688 40.753906 460.804688 41.097656 460.597656 41.910156 L 460.164063 43.6875 C 460.027344 44.207031 459.699219 45.484375 459.664063 45.675781 C 459.59375 45.933594 459.492188 46.382813 459.492188 46.449219 C 459.492188 46.691406 459.683594 46.882813 459.941406 46.882813 C 460.460938 46.882813 460.546875 46.484375 460.703125 45.863281 L 461.738281 41.738281 C 461.773438 41.597656 462.671875 39.441406 464.570313 39.441406 C 465.261719 39.441406 465.503906 39.957031 465.503906 40.648438 C 465.503906 41.617188 464.828125 43.496094 464.449219 44.535156 C 464.292969 44.949219 464.207031 45.171875 464.207031 45.484375 C 464.207031 46.261719 464.742188 46.882813 465.570313 46.882813 C 467.175781 46.882813 467.78125 44.34375 467.78125 44.242188 C 467.78125 44.152344 467.714844 44.085938 467.609375 44.085938 C 467.453125 44.085938 467.4375 44.136719 467.351563 44.429688 C 466.953125 45.8125 466.3125 46.535156 465.621094 46.535156 C 465.449219 46.535156 465.171875 46.519531 465.171875 45.96875 C 465.171875 45.519531 465.382813 44.964844 465.449219 44.777344 C 465.761719 43.949219 466.539063 41.910156 466.539063 40.90625 C 466.539063 39.871094 465.933594 39.09375 464.621094 39.09375 C 463.464844 39.09375 462.53125 39.75 461.839844 40.769531 C 461.789063 39.835938 461.21875 39.09375 459.921875 39.09375 C 458.386719 39.09375 457.574219 40.183594 457.265625 40.613281 C 457.214844 39.628906 456.503906 39.09375 455.746094 39.09375 C 455.242188 39.09375 454.847656 39.335938 454.519531 39.992188 C 454.207031 40.613281 453.964844 41.667969 453.964844 41.738281 C 453.964844 41.804688 454.035156 41.890625 454.15625 41.890625 C 454.292969 41.890625 454.3125 41.875 454.414063 41.476563 C 454.675781 40.457031 455.003906 39.441406 455.695313 39.441406 C 456.089844 39.441406 456.226563 39.714844 456.226563 40.234375 C 456.226563 40.613281 456.054688 41.289063 455.933594 41.824219 L 455.453125 43.6875 C 455.382813 44.015625 455.191406 44.792969 455.105469 45.105469 C 454.984375 45.550781 454.796875 46.363281 454.796875 46.449219 C 454.796875 46.691406 454.984375 46.882813 455.242188 46.882813 C 455.453125 46.882813 455.695313 46.777344 455.832031 46.519531 C 455.867188 46.433594 456.023438 45.828125 456.109375 45.484375 L 456.488281 43.929688 L 457.058594 41.652344 "
       style=" stroke:none;fill-rule:nonzero;fill:rgb(0%,0%,100%);fill-opacity:1;" />
    <path
       id="path42"
       d="M 450.066406 39.992188 C 450.066406 39.558594 449.722656 39.285156 449.359375 39.285156 C 449.015625 39.285156 448.648438 39.558594 448.648438 39.992188 C 448.648438 40.425781 448.996094 40.699219 449.359375 40.699219 C 449.703125 40.699219 450.066406 40.425781 450.066406 39.992188 Z M 450.066406 46.003906 C 450.066406 45.570313 449.722656 45.292969 449.359375 45.292969 C 449.015625 45.292969 448.648438 45.570313 448.648438 46.003906 C 448.648438 46.433594 448.996094 46.710938 449.359375 46.710938 C 449.703125 46.710938 450.066406 46.433594 450.066406 46.003906 "
       style=" stroke:none;fill-rule:nonzero;fill:rgb(0%,0%,100%);fill-opacity:1;" />
    <path
       id="path44"
       d="M 10.886719 41.3125 C 9.175781 40.933594 9.125 39.6875 9.125 39.445313 C 9.125 38.566406 9.695313 37.546875 11.371094 37.546875 C 13.046875 37.546875 14.546875 38.359375 14.910156 40.621094 C 14.960938 40.984375 14.960938 41 15.289063 41 C 15.652344 41 15.652344 40.949219 15.652344 40.550781 L 15.652344 37.304688 C 15.652344 36.976563 15.652344 36.855469 15.394531 36.855469 C 15.273438 36.855469 15.21875 36.871094 15.066406 37.046875 L 14.324219 37.894531 C 13.890625 37.527344 13.027344 36.855469 11.351563 36.855469 C 8.882813 36.855469 7.570313 38.410156 7.570313 40.292969 C 7.570313 41.449219 8.191406 42.261719 8.433594 42.503906 C 9.332031 43.402344 9.816406 43.503906 11.613281 43.902344 C 13.339844 44.28125 13.546875 44.316406 13.925781 44.679688 C 14.148438 44.902344 14.652344 45.386719 14.652344 46.269531 C 14.652344 47.011719 14.289063 48.375 12.355469 48.375 C 10.835938 48.375 8.433594 47.855469 8.296875 45.335938 C 8.277344 45.023438 8.277344 44.972656 7.933594 44.972656 C 7.570313 44.972656 7.570313 45.023438 7.570313 45.421875 L 7.570313 48.667969 C 7.570313 48.996094 7.570313 49.117188 7.828125 49.117188 C 7.949219 49.117188 7.96875 49.101563 8.140625 48.945313 C 8.332031 48.753906 8.484375 48.53125 8.917969 48.097656 C 9.917969 48.894531 11.335938 49.117188 12.371094 49.117188 C 15.066406 49.117188 16.203125 47.285156 16.203125 45.457031 C 16.203125 43.832031 15.132813 42.277344 13.25 41.847656 L 10.886719 41.3125 "
       style=" stroke:none;fill-rule:nonzero;fill:rgb(0%,0%,0%);fill-opacity:1;" />
    <path
       id="path46"
       d="M 25.007813 45.09375 C 25.402344 45.09375 25.507813 45.09375 25.507813 44.660156 C 25.507813 44.144531 25.386719 42.847656 24.589844 42.035156 C 23.867188 41.3125 22.898438 41.085938 21.898438 41.085938 C 19.203125 41.085938 17.734375 42.847656 17.734375 45.023438 C 17.734375 47.441406 19.515625 49.011719 22.121094 49.011719 C 24.730469 49.011719 25.507813 47.183594 25.507813 46.890625 C 25.507813 46.628906 25.246094 46.628906 25.144531 46.628906 C 24.867188 46.628906 24.851563 46.683594 24.746094 46.90625 C 24.296875 48.027344 23.15625 48.390625 22.328125 48.390625 C 19.824219 48.390625 19.808594 46.058594 19.808594 45.09375 Z M 19.808594 44.59375 C 19.84375 43.886719 19.859375 43.210938 20.222656 42.589844 C 20.550781 42.035156 21.15625 41.65625 21.898438 41.65625 C 23.746094 41.65625 23.898438 43.730469 23.917969 44.59375 L 19.808594 44.59375 "
       style=" stroke:none;fill-rule:nonzero;fill:rgb(0%,0%,0%);fill-opacity:1;" />
    <path
       id="path48"
       d="M 16.65625 22.199219 L 19.523438 22.199219 C 19.746094 22.199219 20.316406 22.199219 20.316406 21.648438 C 20.316406 21.265625 19.988281 21.265625 19.679688 21.265625 L 14.929688 21.265625 C 14.53125 21.265625 13.945313 21.265625 13.148438 22.113281 C 12.703125 22.613281 12.148438 23.527344 12.148438 23.632813 C 12.148438 23.738281 12.234375 23.769531 12.339844 23.769531 C 12.460938 23.769531 12.476563 23.71875 12.5625 23.617188 C 13.460938 22.199219 14.359375 22.199219 14.789063 22.199219 L 16.226563 22.199219 L 14.429688 28.121094 C 14.34375 28.382813 14.34375 28.417969 14.34375 28.46875 C 14.34375 28.660156 14.460938 28.902344 14.808594 28.902344 C 15.34375 28.902344 15.429688 28.433594 15.480469 28.175781 L 16.65625 22.199219 "
       style=" stroke:none;fill-rule:nonzero;fill:rgb(0%,0%,100%);fill-opacity:1;" />
    <path
       id="path50"
       d="M 13.28125 32.144531 C 12.851563 32.144531 12.574219 32.488281 12.574219 32.851563 C 12.574219 33.195313 12.851563 33.558594 13.28125 33.558594 C 13.714844 33.558594 13.992188 33.214844 13.992188 32.851563 C 13.992188 32.503906 13.714844 32.144531 13.28125 32.144531 Z M 19.292969 32.144531 C 18.859375 32.144531 18.585938 32.488281 18.585938 32.851563 C 18.585938 33.195313 18.859375 33.558594 19.292969 33.558594 C 19.722656 33.558594 20 33.214844 20 32.851563 C 20 32.503906 19.722656 32.144531 19.292969 32.144531 "
       style=" stroke:none;fill-rule:nonzero;fill:rgb(0%,0%,100%);fill-opacity:1;" />
    <path
       id="path52"
       transform="matrix(0.1,0,0,-0.1,0,75.01)"
       d="M 3665.585938 319.7875 L 4288.046875 319.7875 "
       style="fill:none;stroke-width:15.9404;stroke-linecap:butt;stroke-linejoin:miter;stroke:rgb(0%,0%,0%);stroke-opacity:1;stroke-miterlimit:10;" />
    <path
       id="path54"
       transform="matrix(0.1,0,0,-0.1,0,75.01)"
       d="M 4288.046875 319.7875 L 4303.984375 319.7875 L 4235.273438 262.13125 "
       style="fill:none;stroke-width:15.9404;stroke-linecap:butt;stroke-linejoin:miter;stroke:rgb(0%,0%,0%);stroke-opacity:1;stroke-miterlimit:10;" />
    <path
       id="path56"
       transform="matrix(0.1,0,0,-0.1,0,75.01)"
       d="M 313.515625 319.7875 L 874.0625 319.7875 "
       style="fill:none;stroke-width:15.9404;stroke-linecap:butt;stroke-linejoin:miter;stroke:rgb(0%,0%,0%);stroke-opacity:1;stroke-miterlimit:10;" />
    <path
       id="path58"
       transform="matrix(0.1,0,0,-0.1,0,75.01)"
       d="M 874.0625 319.7875 L 890.039063 319.7875 L 821.328125 262.13125 "
       style="fill:none;stroke-width:15.9404;stroke-linecap:butt;stroke-linejoin:miter;stroke:rgb(0%,0%,0%);stroke-opacity:1;stroke-miterlimit:10;" />
    <path
       id="path60"
       transform="matrix(0.1,0,0,-0.1,0,75.01)"
       d="M 3463.125 319.7875 L 2932.8125 319.7875 "
       style="fill:none;stroke-width:15.9404;stroke-linecap:butt;stroke-linejoin:miter;stroke:rgb(0%,0%,0%);stroke-opacity:1;stroke-miterlimit:10;" />
    <path
       id="path62"
       transform="matrix(0.1,0,0,-0.1,0,75.01)"
       d="M 2932.8125 319.7875 L 2916.875 319.7875 L 2985.585938 262.13125 "
       style="fill:none;stroke-width:15.9404;stroke-linecap:butt;stroke-linejoin:miter;stroke:rgb(0%,0%,0%);stroke-opacity:1;stroke-miterlimit:10;" />
    <path
       id="path64"
       transform="matrix(0.1,0,0,-0.1,0,75.01)"
       d="M 2532.929688 319.7875 L 2082.421875 319.7875 "
       style="fill:none;stroke-width:15.9404;stroke-linecap:butt;stroke-linejoin:miter;stroke:rgb(0%,0%,0%);stroke-opacity:1;stroke-miterlimit:10;" />
    <path
       id="path66"
       transform="matrix(0.1,0,0,-0.1,0,75.01)"
       d="M 2082.421875 319.7875 L 2066.484375 319.7875 L 2135.195313 262.13125 "
       style="fill:none;stroke-width:15.9404;stroke-linecap:butt;stroke-linejoin:miter;stroke:rgb(0%,0%,0%);stroke-opacity:1;stroke-miterlimit:10;" />
    <path
       id="path68"
       transform="matrix(0.1,0,0,-0.1,0,75.01)"
       d="M 1682.539063 319.7875 L 1152.226563 319.7875 "
       style="fill:none;stroke-width:15.9404;stroke-linecap:butt;stroke-linejoin:miter;stroke:rgb(0%,0%,0%);stroke-opacity:1;stroke-miterlimit:10;" />
    <path
       id="path70"
       transform="matrix(0.1,0,0,-0.1,0,75.01)"
       d="M 1152.226563 319.7875 L 1136.289063 319.7875 L 1204.960938 262.13125 "
       style="fill:none;stroke-width:15.9404;stroke-linecap:butt;stroke-linejoin:miter;stroke:rgb(0%,0%,0%);stroke-opacity:1;stroke-miterlimit:10;" />
  </g>
</svg>
