<?xml version="1.0" encoding="UTF-8" standalone="no"?>
<svg
   xmlns:dc="http://purl.org/dc/elements/1.1/"
   xmlns:cc="http://creativecommons.org/ns#"
   xmlns:rdf="http://www.w3.org/1999/02/22-rdf-syntax-ns#"
   xmlns:svg="http://www.w3.org/2000/svg"
   xmlns="http://www.w3.org/2000/svg"
   viewBox="0 0 742.14667 196.05333"
   height="196.05333"
   width="742.14667"
   xml:space="preserve"
   id="svg2"
   version="1.1"><metadata
     id="metadata8"><rdf:RDF><cc:Work
         rdf:about=""><dc:format>image/svg+xml</dc:format><dc:type
           rdf:resource="http://purl.org/dc/dcmitype/StillImage" /></cc:Work></rdf:RDF></metadata><defs
     id="defs6" /><g
     transform="matrix(1.3333333,0,0,-1.3333333,0,196.05333)"
     id="g10"><g
       transform="scale(0.1)"
       id="g12"><path
         id="path14"
         style="fill:#000000;fill-opacity:1;fill-rule:nonzero;stroke:none"
         d="m 124.75,372.281 c 0,5 -0.344,5 -5.875,5 -12.781,-11.047 -31.9375,-11.047 -35.7344,-11.047 h -3.2812 v -7.421 h 3.2812 c 6.0313,0 15.1875,1.031 22.0934,3.281 V 271.422 H 81.2344 V 264 c 7.25,0.344 25.3906,0.344 33.4996,0.344 8.125,0 26.422,0 33.672,-0.344 v 7.422 H 124.75 v 100.859" /><path
         id="path16"
         style="fill:#0000ff;fill-opacity:1;fill-rule:nonzero;stroke:none"
         d="m 312.578,173.938 c 0,5 -1.375,11.39 -7.422,11.39 -3.453,0 -7.422,-4.312 -7.422,-7.765 0,-1.563 0.688,-2.594 2.063,-4.141 2.594,-2.938 5.875,-7.609 5.875,-15.719 0,-6.219 -3.797,-16.062 -6.563,-21.422 -4.828,-9.5 -12.781,-17.609 -21.765,-17.609 -10.875,0 -15.016,6.906 -16.922,16.578 1.906,4.484 5.875,15.719 5.875,20.203 0,1.906 -0.688,3.453 -2.938,3.453 -1.203,0 -2.593,-0.687 -3.453,-2.062 -2.422,-3.813 -4.656,-17.453 -4.484,-21.078 -3.281,-6.391 -12.609,-17.094 -23.656,-17.094 -11.578,0 -14.688,10.187 -14.688,20.031 0,17.953 11.235,33.672 14.328,38 1.735,2.578 2.938,4.313 2.938,4.656 0,1.204 -0.688,3.11 -2.235,3.11 -2.765,0 -3.625,-2.25 -5.015,-4.313 -8.797,-13.656 -15.016,-32.812 -15.016,-49.39 0,-10.719 3.969,-23.5 16.922,-23.5 14.328,0 23.313,12.265 26.938,18.828 1.375,-9.672 6.562,-18.828 19.171,-18.828 13.125,0 21.407,11.578 27.625,25.562 4.5,10.016 9.844,31.61 9.844,41.11" /><path
         id="path18"
         style="fill:#0000ff;fill-opacity:1;fill-rule:nonzero;stroke:none"
         d="m 368.406,121.141 c 0,9.906 -0.593,19.547 -4.89,28.609 -4.891,9.906 -13.469,12.516 -19.313,12.516 -6.906,0 -15.375,-3.453 -19.781,-13.344 -3.344,-7.516 -4.531,-14.906 -4.531,-27.781 0,-11.563 0.828,-20.266 5.125,-28.7191 4.64,-9.0625 12.875,-11.9219 19.062,-11.9219 10.375,0 16.344,6.2031 19.797,13.1094 4.297,8.9376 4.531,20.6246 4.531,27.5316 z M 344.078,82.875 c -3.812,0 -11.562,2.1563 -13.812,15.1406 -1.313,7.1564 -1.313,16.2184 -1.313,24.5624 0,9.766 0,18.594 1.906,25.625 2.016,7.985 8.094,11.688 13.219,11.688 4.531,0 11.453,-2.75 13.719,-13 1.547,-6.797 1.547,-16.203 1.547,-24.313 0,-7.984 0,-17.047 -1.313,-24.3124 -2.265,-13.125 -9.765,-15.3906 -13.953,-15.3906" /><path
         id="path20"
         style="fill:#000000;fill-opacity:1;fill-rule:nonzero;stroke:none"
         d="m 974.75,372.281 c 0,5 -0.344,5 -5.875,5 -12.781,-11.047 -31.937,-11.047 -35.734,-11.047 h -3.282 v -7.421 h 3.282 c 6.031,0 15.187,1.031 22.093,3.281 v -90.672 h -24 V 264 c 7.25,0.344 25.391,0.344 33.5,0.344 8.125,0 26.422,0 33.672,-0.344 v 7.422 H 974.75 v 100.859" /><path
         id="path22"
         style="fill:#0000ff;fill-opacity:1;fill-rule:nonzero;stroke:none"
         d="m 1162.58,173.938 c 0,5 -1.38,11.39 -7.42,11.39 -3.46,0 -7.43,-4.312 -7.43,-7.765 0,-1.563 0.69,-2.594 2.07,-4.141 2.59,-2.938 5.87,-7.609 5.87,-15.719 0,-6.219 -3.79,-16.062 -6.56,-21.422 -4.83,-9.5 -12.78,-17.609 -21.77,-17.609 -10.87,0 -15.01,6.906 -16.92,16.578 1.91,4.484 5.88,15.719 5.88,20.203 0,1.906 -0.69,3.453 -2.94,3.453 -1.2,0 -2.59,-0.687 -3.45,-2.062 -2.43,-3.813 -4.66,-17.453 -4.49,-21.078 -3.28,-6.391 -12.61,-17.094 -23.65,-17.094 -11.58,0 -14.69,10.187 -14.69,20.031 0,17.953 11.23,33.672 14.33,38 1.73,2.578 2.93,4.313 2.93,4.656 0,1.204 -0.68,3.11 -2.23,3.11 -2.77,0 -3.63,-2.25 -5.02,-4.313 -8.79,-13.656 -15.01,-32.812 -15.01,-49.39 0,-10.719 3.97,-23.5 16.92,-23.5 14.33,0 23.31,12.265 26.94,18.828 1.37,-9.672 6.56,-18.828 19.17,-18.828 13.12,0 21.41,11.578 27.62,25.562 4.5,10.016 9.85,31.61 9.85,41.11" /><path
         id="path24"
         style="fill:#0000ff;fill-opacity:1;fill-rule:nonzero;stroke:none"
         d="m 1199.33,159.406 c 0,2.75 0,2.86 -2.38,2.86 -2.87,-3.219 -8.82,-7.625 -21.11,-7.625 v -3.453 c 2.75,0 8.71,0 15.27,3.093 V 92.1719 c 0,-4.2813 -0.36,-5.7188 -10.84,-5.7188 h -3.71 V 83 c 3.22,0.2344 14.78,0.2344 18.72,0.2344 3.94,0 15.38,0 18.6,-0.2344 v 3.4531 h -3.71 c -10.48,0 -10.84,1.4375 -10.84,5.7188 v 67.2341" /><path
         id="path26"
         style="fill:#000000;fill-opacity:1;fill-rule:nonzero;stroke:none"
         d="m 2675.75,372.281 c 0,5 -0.34,5 -5.87,5 -12.79,-11.047 -31.94,-11.047 -35.74,-11.047 h -3.28 v -7.421 h 3.28 c 6.03,0 15.19,1.031 22.09,3.281 v -90.672 h -24 V 264 c 7.25,0.344 25.4,0.344 33.5,0.344 8.13,0 26.43,0 33.68,-0.344 v 7.422 h -23.66 v 100.859" /><path
         id="path28"
         style="fill:#0000ff;fill-opacity:1;fill-rule:nonzero;stroke:none"
         d="m 2863.58,173.938 c 0,5 -1.38,11.39 -7.42,11.39 -3.46,0 -7.43,-4.312 -7.43,-7.765 0,-1.563 0.69,-2.594 2.07,-4.141 2.59,-2.938 5.87,-7.609 5.87,-15.719 0,-6.219 -3.79,-16.062 -6.56,-21.422 -4.83,-9.5 -12.78,-17.609 -21.77,-17.609 -10.87,0 -15.01,6.906 -16.92,16.578 1.91,4.484 5.88,15.719 5.88,20.203 0,1.906 -0.69,3.453 -2.94,3.453 -1.2,0 -2.59,-0.687 -3.45,-2.062 -2.43,-3.813 -4.66,-17.453 -4.49,-21.078 -3.28,-6.391 -12.61,-17.094 -23.65,-17.094 -11.58,0 -14.69,10.187 -14.69,20.031 0,17.953 11.23,33.672 14.33,38 1.73,2.578 2.93,4.313 2.93,4.656 0,1.204 -0.68,3.11 -2.23,3.11 -2.77,0 -3.63,-2.25 -5.02,-4.313 -8.79,-13.656 -15.01,-32.812 -15.01,-49.39 0,-10.719 3.97,-23.5 16.92,-23.5 14.33,0 23.31,12.265 26.94,18.828 1.37,-9.672 6.56,-18.828 19.17,-18.828 13.12,0 21.41,11.578 27.62,25.562 4.5,10.016 9.85,31.61 9.85,41.11" /><path
         id="path30"
         style="fill:#0000ff;fill-opacity:1;fill-rule:nonzero;stroke:none"
         d="m 2918.45,103.031 h -2.62 c -0.36,-2.031 -1.31,-8.5935 -2.5,-10.4997 -0.85,-1.0625 -7.64,-1.0625 -11.2,-1.0625 h -22.07 c 3.22,2.7343 10.5,10.3592 13.6,13.2192 18.12,16.703 24.79,22.89 24.79,34.703 0,13.703 -10.84,22.875 -24.67,22.875 -13.83,0 -21.94,-11.797 -21.94,-22.047 0,-6.078 5.25,-6.078 5.6,-6.078 2.51,0 5.61,1.781 5.61,5.593 0,3.344 -2.27,5.61 -5.61,5.61 -1.06,0 -1.31,0 -1.66,-0.125 2.27,8.109 8.7,13.594 16.44,13.594 10.14,0 16.34,-8.469 16.34,-19.422 0,-10.141 -5.84,-18.953 -12.64,-26.594 L 2871.84,85.8594 V 83 h 43.5 l 3.11,20.031" /><path
         id="path32"
         style="fill:#000000;fill-opacity:1;fill-rule:nonzero;stroke:none"
         d="m 4376.75,372.281 c 0,5 -0.34,5 -5.87,5 -12.79,-11.047 -31.94,-11.047 -35.74,-11.047 h -3.28 v -7.421 h 3.28 c 6.03,0 15.19,1.031 22.09,3.281 v -90.672 h -24 V 264 c 7.25,0.344 25.4,0.344 33.5,0.344 8.13,0 26.43,0 33.68,-0.344 v 7.422 h -23.66 v 100.859" /><path
         id="path34"
         style="fill:#0000ff;fill-opacity:1;fill-rule:nonzero;stroke:none"
         d="m 4540.92,173.594 c 0,10.875 -5.53,11.562 -6.9,11.562 -4.14,0 -7.96,-4.14 -7.96,-7.593 0,-2.079 1.22,-3.282 1.91,-3.969 1.73,-1.563 6.22,-6.219 6.22,-15.203 0,-7.25 -10.36,-47.657 -31.1,-47.657 -10.53,0 -12.59,8.797 -12.59,15.188 0,8.641 3.97,20.719 8.63,33.156 2.76,7.078 3.45,8.813 3.45,12.266 0,7.25 -5.17,13.812 -13.64,13.812 -15.89,0 -22.28,-25.031 -22.28,-26.422 0,-0.687 0.7,-1.546 1.9,-1.546 1.55,0 1.74,0.687 2.42,3.109 4.15,14.844 10.88,21.406 17.44,21.406 1.55,0 4.49,0 4.49,-5.703 0,-4.484 -1.89,-9.5 -4.49,-16.062 -8.28,-22.094 -8.28,-27.454 -8.28,-31.594 0,-3.797 0.52,-10.875 5.86,-15.719 6.22,-5.359 14.86,-5.359 16.41,-5.359 28.67,0 38.51,56.484 38.51,66.328" /><path
         id="path36"
         style="fill:#0000ff;fill-opacity:1;fill-rule:nonzero;stroke:none"
         d="m 4564.94,125.797 c -2.03,-0.125 -2.5,-0.234 -2.5,-1.313 0,-1.187 0.59,-1.187 2.73,-1.187 h 5.49 c 10.12,0 14.65,-8.344 14.65,-19.797 0,-15.6094 -8.09,-19.7812 -13.93,-19.7812 -5.72,0 -15.5,2.7343 -18.96,10.6093 3.81,-0.5937 7.27,1.5469 7.27,5.8439 0,3.453 -2.5,5.828 -5.85,5.828 -2.86,0 -5.95,-1.656 -5.95,-6.1875 0,-10.6094 10.61,-19.3125 23.84,-19.3125 14.18,0 24.68,10.8438 24.68,22.891 0,10.953 -8.83,19.547 -20.27,21.562 10.38,2.985 17.05,11.688 17.05,20.985 0,9.421 -9.78,16.328 -21.35,16.328 -11.92,0 -20.73,-7.266 -20.73,-15.969 0,-4.766 3.69,-5.719 5.48,-5.719 2.5,0 5.36,1.781 5.36,5.36 0,3.812 -2.86,5.484 -5.48,5.484 -0.72,0 -0.95,0 -1.31,-0.125 4.53,8.109 15.73,8.109 16.32,8.109 3.94,0 11.69,-1.781 11.69,-13.468 0,-2.266 -0.36,-8.938 -3.81,-14.063 -3.58,-5.25 -7.63,-5.609 -10.84,-5.719 l -3.58,-0.359" /><path
         id="path38"
         style="fill:#000000;fill-opacity:1;fill-rule:nonzero;stroke:none"
         d="m 1810.34,377.906 h -113.81 l -3.45,-40.922 h 7.25 c 1.56,18.829 2.94,33.5 27.81,33.5 h 13.99 V 268.422 h -26.08 V 261 c 13.81,0.344 31.61,0.344 37.47,0.344 10.54,0 23.67,0 37.48,-0.344 v 7.422 h -26.08 v 102.062 h 13.81 c 24.88,0 26.25,-14.5 27.82,-33.5 h 7.25 l -3.46,40.922" /><path
         id="path40"
         style="fill:#000000;fill-opacity:1;fill-rule:nonzero;stroke:none"
         d="m 1928.8,378.609 h -102.24 v -7.437 h 18.32 v -102.75 h -18.32 V 261 c 5.02,0.344 24.69,0.344 31.08,0.344 9.16,0 24.53,0 32.99,-0.344 v 7.422 h -22.97 v 47.672 h 9.5 c 16.57,0 17.97,-7.61 17.97,-20.203 h 7.25 v 47.828 h -7.25 c 0,-12.61 -1.4,-20.203 -17.97,-20.203 h -9.5 v 47.656 h 24.7 c 27.45,0 31.78,-12.594 34.19,-33.5 h 7.26 l -5.01,40.937" /><path
         id="path42"
         style="fill:#000000;fill-opacity:1;fill-rule:nonzero;stroke:none"
         d="m 3511.34,377.906 h -113.81 l -3.45,-40.922 h 7.25 c 1.56,18.829 2.94,33.5 27.81,33.5 h 13.99 V 268.422 h -26.08 V 261 c 13.81,0.344 31.61,0.344 37.47,0.344 10.54,0 23.67,0 37.48,-0.344 v 7.422 h -26.08 v 102.062 h 13.81 c 24.88,0 26.25,-14.5 27.82,-33.5 h 7.25 l -3.46,40.922" /><path
         id="path44"
         style="fill:#000000;fill-opacity:1;fill-rule:nonzero;stroke:none"
         d="m 3629.8,378.609 h -102.24 v -7.437 h 18.32 v -102.75 h -18.32 V 261 c 5.02,0.344 24.69,0.344 31.08,0.344 9.16,0 24.53,0 32.99,-0.344 v 7.422 h -22.97 v 47.672 h 9.5 c 16.57,0 17.97,-7.61 17.97,-20.203 h 7.25 v 47.828 h -7.25 c 0,-12.61 -1.4,-20.203 -17.97,-20.203 h -9.5 v 47.656 h 24.7 c 27.45,0 31.78,-12.594 34.19,-33.5 h 7.26 l -5.01,40.937" /><path
         id="path46"
         style="fill:#000000;fill-opacity:1;fill-rule:nonzero;stroke:none"
         d="m 5227.48,372.047 h 19.35 v 7.422 c -6.22,-0.344 -23.49,-0.344 -30.74,-0.344 -7.25,0 -24.51,0 -30.73,0.344 v -7.422 h 19.33 V 268.422 h -19.33 V 261 c 6.22,0.344 23.48,0.344 30.73,0.344 7.25,0 24.52,0 30.74,-0.344 v 7.422 h -19.35 v 103.625" /><path
         id="path48"
         style="fill:#0000ff;fill-opacity:1;fill-rule:nonzero;stroke:none"
         d="m 5371.58,333.594 c 0.34,1.047 4.65,9.672 11.05,15.203 4.5,4.141 10.35,6.906 17.09,6.906 6.91,0 9.33,-5.187 9.33,-12.094 0,-1.031 0,-4.484 -2.07,-12.593 l -4.32,-17.797 c -1.38,-5.172 -4.66,-17.953 -5,-19.86 -0.71,-2.593 -1.74,-7.078 -1.74,-7.765 0,-2.422 1.91,-4.328 4.5,-4.328 5.17,0 6.03,3.984 7.6,10.203 l 10.36,41.265 c 0.34,1.391 9.32,22.969 28.32,22.969 6.91,0 9.32,-5.187 9.32,-12.094 0,-9.671 -6.74,-28.484 -10.54,-38.843 -1.54,-4.157 -2.42,-6.391 -2.42,-9.5 0,-7.782 5.36,-14 13.66,-14 16.05,0 22.09,25.39 22.09,26.422 0,0.875 -0.68,1.562 -1.72,1.562 -1.56,0 -1.73,-0.516 -2.59,-3.453 -3.97,-13.813 -10.36,-21.063 -17.27,-21.063 -1.73,0 -4.5,0.172 -4.5,5.688 0,4.5 2.08,10.016 2.77,11.922 3.11,8.281 10.89,28.672 10.89,38.687 0,10.36 -6.05,18.125 -19.17,18.125 -11.58,0 -20.91,-6.562 -27.81,-16.75 -0.52,9.328 -6.22,16.75 -19.18,16.75 -15.35,0 -23.48,-10.875 -26.59,-15.203 -0.51,9.844 -7.59,15.203 -15.19,15.203 -5.01,0 -8.98,-2.422 -12.26,-8.984 -3.11,-6.219 -5.53,-16.75 -5.53,-17.438 0,-0.687 0.7,-1.546 1.9,-1.546 1.38,0 1.55,0.171 2.6,4.14 2.59,10.188 5.87,20.375 12.78,20.375 3.97,0 5.34,-2.765 5.34,-7.937 0,-3.813 -1.72,-10.547 -2.94,-15.891 l -4.82,-18.656 c -0.69,-3.281 -2.6,-11.047 -3.46,-14.156 -1.2,-4.485 -3.11,-12.61 -3.11,-13.469 0,-2.422 1.91,-4.328 4.49,-4.328 2.08,0 4.5,1.047 5.87,3.64 0.35,0.86 1.91,6.907 2.77,10.36 l 3.8,15.531 5.7,22.797" /><path
         id="path50"
         style="fill:#0000ff;fill-opacity:1;fill-rule:nonzero;stroke:none"
         d="m 5301.67,350.172 c 0,4.328 -3.45,7.094 -7.08,7.094 -3.45,0 -7.09,-2.766 -7.09,-7.094 0,-4.313 3.45,-7.078 7.09,-7.078 3.46,0 7.08,2.765 7.08,7.078 z m 0,-60.094 c 0,4.313 -3.45,7.078 -7.08,7.078 -3.45,0 -7.09,-2.765 -7.09,-7.078 0,-4.312 3.45,-7.078 7.09,-7.078 3.46,0 7.08,2.766 7.08,7.078" /><path
         id="path52"
         style="fill:#000000;fill-opacity:1;fill-rule:nonzero;stroke:none"
         d="m 909.859,1186.98 c -17.093,3.8 -17.609,16.24 -17.609,18.66 0,8.8 5.703,18.99 22.453,18.99 16.75,0 31.766,-8.11 35.406,-30.74 0.516,-3.62 0.516,-3.8 3.797,-3.8 3.625,0 3.625,0.52 3.625,4.49 v 32.47 c 0,3.28 0,4.5 -2.593,4.5 -1.204,0 -1.735,-0.17 -3.282,-1.91 l -7.422,-8.47 c -4.328,3.64 -12.953,10.38 -29.703,10.38 -24.703,0 -37.828,-15.55 -37.828,-34.38 0,-11.56 6.219,-19.69 8.641,-22.11 8.984,-8.97 13.812,-10.01 31.781,-13.98 17.266,-3.8 19.328,-4.14 23.141,-7.77 2.234,-2.25 7.25,-7.08 7.25,-15.89 0,-7.42 -3.625,-21.06 -22.969,-21.06 -15.203,0 -39.203,5.17 -40.594,30.39 -0.172,3.11 -0.172,3.63 -3.625,3.63 -3.625,0 -3.625,-0.52 -3.625,-4.49 v -32.47 c 0,-3.28 0,-4.5 2.594,-4.5 1.203,0 1.375,0.17 3.109,1.74 1.907,1.89 3.453,4.14 7.766,8.45 10.016,-7.94 24.187,-10.19 34.547,-10.19 26.937,0 38.328,18.31 38.328,36.61 0,16.24 -10.703,31.78 -29.531,36.1 l -23.657,5.35" /><path
         id="path54"
         style="fill:#000000;fill-opacity:1;fill-rule:nonzero;stroke:none"
         d="m 1051.06,1149.17 c 3.97,0 5,0 5,4.31 0,5.18 -1.2,18.13 -9.15,26.25 -7.25,7.25 -16.93,9.5 -26.94,9.5 -26.939,0 -41.611,-17.62 -41.611,-39.37 0,-24.19 17.782,-39.89 43.861,-39.89 26.08,0 33.84,18.3 33.84,21.23 0,2.6 -2.59,2.6 -3.62,2.6 -2.77,0 -2.94,-0.52 -3.97,-2.77 -4.49,-11.22 -15.89,-14.84 -24.17,-14.84 -25.05,0 -25.222,23.31 -25.222,32.98 z m -51.982,5 c 0.344,7.08 0.516,13.81 4.142,20.03 3.28,5.53 9.33,9.33 16.75,9.33 18.48,0 20.03,-20.72 20.2,-29.36 h -41.092" /><path
         id="path56"
         style="fill:#0000ff;fill-opacity:1;fill-rule:nonzero;stroke:none"
         d="m 966.563,1378.11 h 28.671 c 2.235,0 7.936,0 7.936,5.52 0,3.81 -3.279,3.81 -6.389,3.81 h -47.484 c -3.969,0 -9.844,0 -17.797,-8.47 -4.484,-5.02 -10.016,-14.16 -10.016,-15.2 0,-1.04 0.875,-1.38 1.907,-1.38 1.203,0 1.375,0.52 2.25,1.55 8.968,14.17 17.953,14.17 22.265,14.17 h 14.344 l -17.969,-59.23 c -0.859,-2.6 -0.859,-2.94 -0.859,-3.46 0,-1.9 1.203,-4.33 4.656,-4.33 5.36,0 6.219,4.68 6.735,7.27 l 11.75,59.75" /><path
         id="path58"
         style="fill:#0000ff;fill-opacity:1;fill-rule:nonzero;stroke:none"
         d="m 933.828,1279.67 c -4.328,0 -7.094,-3.45 -7.094,-7.08 0,-3.45 2.766,-7.09 7.094,-7.09 4.313,0 7.078,3.45 7.078,7.09 0,3.46 -2.765,7.08 -7.078,7.08 z m 60.094,0 c -4.313,0 -7.078,-3.45 -7.078,-7.08 0,-3.45 2.765,-7.09 7.078,-7.09 4.312,0 7.078,3.45 7.078,7.09 0,3.46 -2.766,7.08 -7.078,7.08" /><path
         id="path60"
         style="fill:none;stroke:#000000;stroke-width:15.9404;stroke-linecap:butt;stroke-linejoin:miter;stroke-miterlimit:10;stroke-dasharray:none;stroke-opacity:1"
         d="M 4466.42,319.781 H 5088.9" /><path
         id="path62"
         style="fill:none;stroke:#000000;stroke-width:15.9404;stroke-linecap:butt;stroke-linejoin:miter;stroke-miterlimit:10;stroke-dasharray:none;stroke-opacity:1"
         d="m 5088.9,319.781 h 15.94 l -68.71,-57.656" /><path
         id="path64"
         style="fill:none;stroke:#000000;stroke-width:15.9404;stroke-linecap:butt;stroke-linejoin:miter;stroke-miterlimit:10;stroke-dasharray:none;stroke-opacity:1"
         d="M 963.586,1058.32 V 465.898" /><path
         id="path66"
         style="fill:none;stroke:#000000;stroke-width:15.9404;stroke-linecap:butt;stroke-linejoin:miter;stroke-miterlimit:10;stroke-dasharray:none;stroke-opacity:1"
         d="m 963.586,465.898 v -15.941 l 57.654,68.703" /></g></g></svg>
