<?xml version="1.0" encoding="UTF-8" standalone="no"?>
<svg
   xmlns:dc="http://purl.org/dc/elements/1.1/"
   xmlns:cc="http://creativecommons.org/ns#"
   xmlns:rdf="http://www.w3.org/1999/02/22-rdf-syntax-ns#"
   xmlns:svg="http://www.w3.org/2000/svg"
   xmlns="http://www.w3.org/2000/svg"
   viewBox="0 0 295.21332 61.706669"
   height="61.706669"
   width="295.21332"
   xml:space="preserve"
   id="svg2"
   version="1.1"><metadata
     id="metadata8"><rdf:RDF><cc:Work
         rdf:about=""><dc:format>image/svg+xml</dc:format><dc:type
           rdf:resource="http://purl.org/dc/dcmitype/StillImage" /></cc:Work></rdf:RDF></metadata><defs
     id="defs6" /><g
     transform="matrix(1.3333333,0,0,-1.3333333,0,61.706667)"
     id="g10"><g
       transform="scale(0.1)"
       id="g12"><path
         id="path14"
         style="fill:#000000;fill-opacity:1;fill-rule:nonzero;stroke:none"
         d="M 1009.34,181.906 H 895.531 l -3.453,-40.922 h 7.25 c 1.563,18.829 2.938,33.5 27.813,33.5 h 13.984 V 72.4219 H 915.047 V 65 c 13.812,0.3438 31.609,0.3438 37.469,0.3438 10.547,0 23.672,0 37.484,-0.3438 v 7.4219 H 963.922 V 174.484 h 13.812 c 24.876,0 26.246,-14.5 27.816,-33.5 h 7.25 l -3.46,40.922" /><path
         id="path16"
         style="fill:#000000;fill-opacity:1;fill-rule:nonzero;stroke:none"
         d="m 1128.8,182.609 h -102.24 v -7.437 h 18.32 V 72.4219 h -18.32 V 65 c 5.02,0.3438 24.69,0.3438 31.08,0.3438 9.16,0 24.53,0 32.99,-0.3438 v 7.4219 h -22.97 v 47.6721 h 9.5 c 16.57,0 17.97,-7.61 17.97,-20.2034 h 7.25 v 47.8284 h -7.25 c 0,-12.61 -1.4,-20.203 -17.97,-20.203 h -9.5 v 47.656 h 24.7 c 27.45,0 31.78,-12.594 34.19,-33.5 h 7.26 l -5.01,40.937" /><path
         id="path18"
         style="fill:#0000ff;fill-opacity:1;fill-rule:nonzero;stroke:none"
         d="m 1011.17,337.625 c -5.34,-1.031 -8.11,-4.828 -8.11,-8.625 0,-4.141 3.28,-5.531 5.71,-5.531 4.82,0 8.79,4.14 8.79,9.328 0,5.531 -5.34,10.359 -13.98,10.359 -6.908,0 -14.846,-3.109 -22.111,-13.64 -1.203,9.156 -8.11,13.64 -15.016,13.64 -6.734,0 -10.187,-5.172 -12.265,-8.984 -2.938,-6.219 -5.532,-16.578 -5.532,-17.438 0,-0.687 0.703,-1.546 1.907,-1.546 1.375,0 1.546,0.171 2.593,4.14 2.594,10.36 5.875,20.375 12.782,20.375 4.14,0 5.343,-2.937 5.343,-7.937 0,-3.813 -1.718,-10.547 -2.937,-15.891 l -4.828,-18.656 c -0.688,-3.281 -2.594,-11.047 -3.453,-14.156 -1.204,-4.485 -3.11,-12.61 -3.11,-13.469 0,-2.422 1.906,-4.328 4.485,-4.328 1.906,0 5.187,1.218 6.218,4.672 0.516,1.375 6.907,27.453 7.953,31.421 0.86,3.813 1.891,7.438 2.75,11.235 0.704,2.422 1.391,5.172 1.907,7.422 0.515,1.562 5.187,10.015 9.5,13.812 2.078,1.906 6.562,5.875 13.644,5.875 2.76,0 5.53,-0.515 7.76,-2.078" /><path
         id="path20"
         style="fill:#0000ff;fill-opacity:1;fill-rule:nonzero;stroke:none"
         d="m 1073.88,291.688 c 0,0.875 -0.69,1.562 -1.74,1.562 -1.55,0 -1.72,-0.516 -2.58,-3.453 -4.5,-15.719 -11.58,-21.063 -17.28,-21.063 -2.06,0 -4.48,0.516 -4.48,5.688 0,4.672 2.08,9.844 3.97,15.031 l 12.09,32.125 c 0.52,1.375 1.72,4.485 1.72,7.766 0,7.25 -5.17,13.812 -13.64,13.812 -15.89,0 -22.28,-25.031 -22.28,-26.422 0,-0.687 0.7,-1.546 1.9,-1.546 1.55,0 1.74,0.687 2.42,3.109 4.15,14.5 10.71,21.406 17.44,21.406 1.55,0 4.49,-0.172 4.49,-5.703 0,-4.484 -2.24,-10.187 -3.63,-13.984 l -12.08,-32.125 c -1.04,-2.75 -2.07,-5.516 -2.07,-8.625 0,-7.782 5.35,-14 13.64,-14 15.89,0 22.11,25.218 22.11,26.422 z m -1.4,83.078 c 0,2.578 -2.06,5.687 -5.85,5.687 -3.99,0 -8.47,-3.797 -8.47,-8.281 0,-4.313 3.62,-5.703 5.7,-5.703 4.66,0 8.62,4.5 8.62,8.297" /><path
         id="path22"
         style="fill:#0000ff;fill-opacity:1;fill-rule:nonzero;stroke:none"
         d="m 982.828,232.672 c -4.328,0 -7.094,-3.453 -7.094,-7.078 0,-3.453 2.766,-7.094 7.094,-7.094 4.313,0 7.078,3.453 7.078,7.094 0,3.453 -2.765,7.078 -7.078,7.078 z m 60.092,0 c -4.31,0 -7.08,-3.453 -7.08,-7.078 0,-3.453 2.77,-7.094 7.08,-7.094 4.31,0 7.08,3.453 7.08,7.094 0,3.453 -2.77,7.078 -7.08,7.078" /><path
         id="path24"
         style="fill:#000000;fill-opacity:1;fill-rule:nonzero;stroke:none"
         d="m 1874.48,176.047 h 19.35 v 7.422 c -6.22,-0.344 -23.49,-0.344 -30.74,-0.344 -7.25,0 -24.51,0 -30.73,0.344 v -7.422 h 19.33 V 72.4219 h -19.33 V 65 c 6.22,0.3438 23.48,0.3438 30.73,0.3438 7.25,0 24.52,0 30.74,-0.3438 v 7.4219 h -19.35 V 176.047" /><path
         id="path26"
         style="fill:#0000ff;fill-opacity:1;fill-rule:nonzero;stroke:none"
         d="m 2019.58,137.594 c 0.34,1.047 4.65,9.672 11.05,15.203 4.5,4.141 10.35,6.906 17.09,6.906 6.91,0 9.33,-5.187 9.33,-12.094 0,-1.031 0,-4.484 -2.07,-12.593 l -4.32,-17.797 c -1.38,-5.172 -4.66,-17.9534 -5,-19.8596 -0.71,-2.5938 -1.74,-7.0781 -1.74,-7.7656 0,-2.4219 1.91,-4.3282 4.5,-4.3282 5.17,0 6.03,3.9844 7.6,10.2032 l 10.36,41.2652 c 0.34,1.391 9.32,22.969 28.32,22.969 6.91,0 9.32,-5.187 9.32,-12.094 0,-9.671 -6.74,-28.484 -10.54,-38.843 -1.54,-4.157 -2.42,-6.391 -2.42,-9.5004 0,-7.7812 5.36,-14 13.66,-14 16.05,0 22.09,25.3904 22.09,26.4224 0,0.875 -0.68,1.562 -1.72,1.562 -1.56,0 -1.73,-0.516 -2.59,-3.453 -3.97,-13.8126 -10.36,-21.0626 -17.27,-21.0626 -1.73,0 -4.5,0.1719 -4.5,5.6875 0,4.5 2.08,10.0161 2.77,11.9221 3.11,8.281 10.89,28.672 10.89,38.687 0,10.36 -6.05,18.125 -19.17,18.125 -11.58,0 -20.91,-6.562 -27.81,-16.75 -0.52,9.328 -6.22,16.75 -19.18,16.75 -15.35,0 -23.48,-10.875 -26.59,-15.203 -0.51,9.844 -7.59,15.203 -15.19,15.203 -5.01,0 -8.98,-2.422 -12.26,-8.984 -3.11,-6.219 -5.53,-16.75 -5.53,-17.438 0,-0.687 0.7,-1.546 1.9,-1.546 1.38,0 1.55,0.171 2.6,4.14 2.59,10.188 5.87,20.375 12.78,20.375 3.97,0 5.34,-2.765 5.34,-7.937 0,-3.813 -1.72,-10.547 -2.94,-15.891 l -4.82,-18.656 c -0.69,-3.281 -2.6,-11.047 -3.46,-14.156 -1.2,-4.4849 -3.11,-12.6099 -3.11,-13.4692 0,-2.4219 1.91,-4.3282 4.49,-4.3282 2.08,0 4.5,1.0469 5.87,3.6407 0.35,0.8593 1.91,6.9062 2.77,10.3593 l 3.8,15.5314 5.7,22.797" /><path
         id="path28"
         style="fill:#0000ff;fill-opacity:1;fill-rule:nonzero;stroke:none"
         d="m 1949.67,154.172 c 0,4.328 -3.45,7.094 -7.08,7.094 -3.45,0 -7.09,-2.766 -7.09,-7.094 0,-4.313 3.45,-7.078 7.09,-7.078 3.46,0 7.08,2.765 7.08,7.078 z m 0,-60.0939 c 0,4.3125 -3.45,7.0779 -7.08,7.0779 -3.45,0 -7.09,-2.7654 -7.09,-7.0779 0,-4.3125 3.45,-7.0781 7.09,-7.0781 3.46,0 7.08,2.7656 7.08,7.0781" /><path
         id="path30"
         style="fill:#000000;fill-opacity:1;fill-rule:nonzero;stroke:none"
         d="m 108.859,140.984 c -17.0934,3.797 -17.609,16.235 -17.609,18.657 0,8.797 5.7031,18.984 22.453,18.984 16.75,0 31.766,-8.109 35.406,-30.734 0.516,-3.625 0.516,-3.797 3.797,-3.797 3.625,0 3.625,0.515 3.625,4.484 v 32.469 c 0,3.281 0,4.5 -2.593,4.5 -1.204,0 -1.735,-0.172 -3.282,-1.906 l -7.422,-8.469 c -4.328,3.641 -12.953,10.375 -29.703,10.375 -24.7029,0 -37.8279,-15.547 -37.8279,-34.375 0,-11.563 6.2188,-19.688 8.6407,-22.109 8.9843,-8.969 13.8125,-10.016 31.7812,-13.985 17.266,-3.797 19.328,-4.14 23.141,-7.765 2.234,-2.25 7.25,-7.079 7.25,-15.8911 0,-7.4219 -3.625,-21.0625 -22.969,-21.0625 -15.203,0 -39.2032,5.1719 -40.5939,30.3906 -0.1718,3.109 -0.1718,3.625 -3.625,3.625 -3.625,0 -3.625,-0.516 -3.625,-4.4844 V 67.4219 c 0,-3.2813 0,-4.5 2.5938,-4.5 1.2031,0 1.375,0.1719 3.1094,1.7344 1.9062,1.8906 3.4531,4.1406 7.7656,8.4531 10.0156,-7.9375 24.1871,-10.1875 34.5471,-10.1875 26.937,0 38.328,18.3125 38.328,36.6094 0,16.2347 -10.703,31.7817 -29.531,36.0937 l -23.657,5.359" /><path
         id="path32"
         style="fill:#000000;fill-opacity:1;fill-rule:nonzero;stroke:none"
         d="m 250.063,103.172 c 3.968,0 5,0 5,4.312 0,5.172 -1.204,18.125 -9.157,26.25 -7.25,7.25 -16.922,9.5 -26.937,9.5 -26.938,0 -41.61,-17.625 -41.61,-39.375 0,-24.1871 17.782,-39.8902 43.86,-39.8902 26.078,0 33.844,18.2968 33.844,21.2343 0,2.5938 -2.594,2.5938 -3.625,2.5938 -2.766,0 -2.938,-0.5156 -3.969,-2.7656 -4.485,-11.2188 -15.891,-14.8438 -24.172,-14.8438 -25.047,0 -25.219,23.3125 -25.219,32.9845 z m -51.985,5 c 0.344,7.078 0.516,13.812 4.141,20.031 3.281,5.531 9.328,9.328 16.75,9.328 18.484,0 20.031,-20.718 20.203,-29.359 h -41.094" /><path
         id="path34"
         style="fill:#0000ff;fill-opacity:1;fill-rule:nonzero;stroke:none"
         d="m 166.563,332.109 h 28.671 c 2.235,0 7.938,0 7.938,5.516 0,3.813 -3.281,3.813 -6.391,3.813 h -47.484 c -3.969,0 -9.844,0 -17.797,-8.469 -4.484,-5.016 -10.016,-14.156 -10.016,-15.203 0,-1.032 0.875,-1.375 1.907,-1.375 1.203,0 1.375,0.515 2.25,1.547 8.968,14.171 17.953,14.171 22.265,14.171 h 14.344 l -17.969,-59.234 c -0.859,-2.594 -0.859,-2.937 -0.859,-3.453 0,-1.906 1.203,-4.328 4.656,-4.328 5.36,0 6.219,4.672 6.735,7.265 l 11.75,59.75" /><path
         id="path36"
         style="fill:#0000ff;fill-opacity:1;fill-rule:nonzero;stroke:none"
         d="m 132.828,232.672 c -4.328,0 -7.094,-3.453 -7.094,-7.078 0,-3.453 2.766,-7.094 7.094,-7.094 4.313,0 7.078,3.453 7.078,7.094 0,3.453 -2.765,7.078 -7.078,7.078 z m 60.094,0 c -4.313,0 -7.078,-3.453 -7.078,-7.078 0,-3.453 2.765,-7.094 7.078,-7.094 4.312,0 7.078,3.453 7.078,7.094 0,3.453 -2.766,7.078 -7.078,7.078" /><path
         id="path38"
         style="fill:none;stroke:#000000;stroke-width:15.9404;stroke-linecap:butt;stroke-linejoin:miter;stroke-miterlimit:10;stroke-dasharray:none;stroke-opacity:1"
         d="M 1194.17,123.82 H 1720.9" /><path
         id="path40"
         style="fill:none;stroke:#000000;stroke-width:15.9404;stroke-linecap:butt;stroke-linejoin:miter;stroke-miterlimit:10;stroke-dasharray:none;stroke-opacity:1"
         d="m 1720.9,123.82 h 15.94 l -68.71,-57.6559" /><path
         id="path42"
         style="fill:none;stroke:#000000;stroke-width:15.9404;stroke-linecap:butt;stroke-linejoin:miter;stroke-miterlimit:10;stroke-dasharray:none;stroke-opacity:1"
         d="M 1766.71,187.582 V 60.0586" /><path
         id="path44"
         style="fill:none;stroke:#000000;stroke-width:15.9404;stroke-linecap:butt;stroke-linejoin:miter;stroke-miterlimit:10;stroke-dasharray:none;stroke-opacity:1"
         d="M 313.527,123.82 H 778.34" /><path
         id="path46"
         style="fill:none;stroke:#000000;stroke-width:15.9404;stroke-linecap:butt;stroke-linejoin:miter;stroke-miterlimit:10;stroke-dasharray:none;stroke-opacity:1"
         d="m 778.34,123.82 h 15.937 L 725.574,66.1641" /><path
         id="path48"
         style="fill:none;stroke:#000000;stroke-width:15.9404;stroke-linecap:butt;stroke-linejoin:miter;stroke-miterlimit:10;stroke-dasharray:none;stroke-opacity:1"
         d="M 824.152,187.582 V 60.0586" /></g></g></svg>
