<?xml version="1.0" encoding="UTF-8" standalone="no"?>
<svg
   xmlns:dc="http://purl.org/dc/elements/1.1/"
   xmlns:cc="http://creativecommons.org/ns#"
   xmlns:rdf="http://www.w3.org/1999/02/22-rdf-syntax-ns#"
   xmlns:svg="http://www.w3.org/2000/svg"
   xmlns="http://www.w3.org/2000/svg"
   viewBox="0 0 585.97333 196.01334"
   height="196.01334"
   width="585.97333"
   xml:space="preserve"
   id="svg2"
   version="1.1"><metadata
     id="metadata8"><rdf:RDF><cc:Work
         rdf:about=""><dc:format>image/svg+xml</dc:format><dc:type
           rdf:resource="http://purl.org/dc/dcmitype/StillImage" /></cc:Work></rdf:RDF></metadata><defs
     id="defs6" /><g
     transform="matrix(1.3333333,0,0,-1.3333333,0,196.01333)"
     id="g10"><g
       transform="scale(0.1)"
       id="g12"><path
         id="path14"
         style="fill:none;stroke:#000000;stroke-width:15.9404;stroke-linecap:butt;stroke-linejoin:miter;stroke-miterlimit:10;stroke-dasharray:none;stroke-opacity:1"
         d="m 90.9648,925.566 h 453.551 v 453.547 H 90.9648 Z" /><path
         id="path16"
         style="fill:#0000ff;fill-opacity:1;fill-rule:nonzero;stroke:none"
         d="m 279.906,1168.06 c 4.672,0 16.407,0.35 24.703,3.46 13.125,5.01 14.329,15.03 14.329,18.14 0,7.59 -6.563,14.5 -17.954,14.5 -18.14,0 -44.218,-16.41 -44.218,-47.14 0,-18.14 10.375,-30.75 26.078,-30.75 23.484,0 38.344,18.31 38.344,20.56 0,1.03 -1.032,1.89 -1.735,1.89 -0.515,0 -0.687,-0.17 -2.234,-1.72 -11.063,-14.69 -27.469,-17.27 -34.031,-17.27 -9.844,0 -15.016,7.77 -15.016,20.55 0,2.41 0,6.74 2.594,17.78 z m -8.281,3.46 c 7.422,26.59 23.828,29.18 29.359,29.18 7.594,0 12.782,-4.48 12.782,-11.04 0,-18.14 -27.641,-18.14 -34.891,-18.14 h -7.25" /><path
         id="path18"
         style="fill:#0000ff;fill-opacity:1;fill-rule:nonzero;stroke:none"
         d="m 354.172,1125.84 c 2.031,-0.36 5.25,-1.07 5.969,-1.18 1.547,-0.49 6.906,-2.39 6.906,-8.11 0,-3.71 -3.328,-13.36 -17.156,-13.36 -2.5,0 -11.453,0.36 -13.828,6.92 4.765,-0.59 7.156,3.09 7.156,5.72 0,2.5 -1.672,3.81 -4.063,3.81 -2.625,0 -6.078,-2.03 -6.078,-7.39 0,-7.03 7.156,-11.44 16.688,-11.44 18.125,0 23.484,13.35 23.484,19.55 0,1.78 0,5.12 -3.812,8.94 -2.985,2.86 -5.844,3.45 -12.282,4.76 -3.218,0.72 -8.343,1.8 -8.343,7.16 0,2.39 2.14,10.97 13.468,10.97 5.016,0 9.891,-1.91 11.094,-6.21 -5.25,0 -5.484,-4.53 -5.484,-4.64 0,-2.51 2.265,-3.21 3.328,-3.21 1.672,0 5.015,1.31 5.015,6.31 0,5 -4.531,10.12 -13.828,10.12 -15.625,0 -19.797,-12.26 -19.797,-17.15 0,-9.07 8.829,-10.97 11.563,-11.57" /><path
         id="path20"
         style="fill:#000000;fill-opacity:1;fill-rule:nonzero;stroke:none"
         d="m 831.895,1123.99 v 56.7 l 71.402,-28.35" /><path
         id="path22"
         style="fill:none;stroke:#000000;stroke-width:15.9404;stroke-linecap:butt;stroke-linejoin:miter;stroke-miterlimit:10;stroke-dasharray:none;stroke-opacity:1"
         d="m 831.895,1123.99 v 56.7 l 71.402,-28.35 z" /><path
         id="path24"
         style="fill:none;stroke:#000000;stroke-width:15.9404;stroke-linecap:butt;stroke-linejoin:miter;stroke-miterlimit:10;stroke-dasharray:none;stroke-opacity:1"
         d="m 831.895,1152.34 h 79.371" /><path
         id="path26"
         style="fill:#0000ff;fill-opacity:1;fill-rule:nonzero;stroke:none"
         d="m 831.906,1288.06 c 4.672,0 16.407,0.35 24.703,3.46 13.125,5.01 14.329,15.03 14.329,18.14 0,7.59 -6.563,14.5 -17.954,14.5 -18.14,0 -44.218,-16.41 -44.218,-47.14 0,-18.14 10.375,-30.75 26.078,-30.75 23.484,0 38.344,18.31 38.344,20.56 0,1.03 -1.032,1.89 -1.735,1.89 -0.515,0 -0.687,-0.17 -2.234,-1.72 -11.063,-14.69 -27.469,-17.27 -34.031,-17.27 -9.844,0 -15.016,7.77 -15.016,20.55 0,2.41 0,6.74 2.594,17.78 z m -8.281,3.46 c 7.422,26.59 23.828,29.18 29.359,29.18 7.594,0 12.782,-4.48 12.782,-11.04 0,-18.14 -27.641,-18.14 -34.891,-18.14 h -7.25" /><path
         id="path28"
         style="fill:#0000ff;fill-opacity:1;fill-rule:nonzero;stroke:none"
         d="m 913.328,1298.41 c 0,2.75 0,2.86 -2.375,2.86 -2.875,-3.22 -8.828,-7.63 -21.109,-7.63 v -3.45 c 2.75,0 8.703,0 15.265,3.09 v -62.11 c 0,-4.28 -0.359,-5.72 -10.843,-5.72 h -3.703 V 1222 c 3.218,0.23 14.781,0.23 18.718,0.23 3.938,0 15.375,0 18.594,-0.23 v 3.45 h -3.703 c -10.484,0 -10.844,1.44 -10.844,5.72 v 67.24" /><path
         id="path30"
         style="fill:none;stroke:#000000;stroke-width:15.9404;stroke-linecap:butt;stroke-linejoin:miter;stroke-miterlimit:10;stroke-dasharray:none;stroke-opacity:1"
         d="m 1198.66,925.566 h 453.547 v 453.547 H 1198.66 Z" /><path
         id="path32"
         style="fill:#0000ff;fill-opacity:1;fill-rule:nonzero;stroke:none"
         d="m 1430.33,1265.41 c 0,2.75 0,2.86 -2.38,2.86 -2.87,-3.22 -8.82,-7.63 -21.11,-7.63 v -3.45 c 2.75,0 8.71,0 15.27,3.09 v -62.11 c 0,-4.28 -0.36,-5.72 -10.84,-5.72 h -3.71 V 1189 c 3.22,0.23 14.78,0.23 18.72,0.23 3.94,0 15.38,0 18.6,-0.23 v 3.45 h -3.71 c -10.48,0 -10.84,1.44 -10.84,5.72 v 67.24" /><path
         id="path34"
         style="fill:none;stroke:#0000ff;stroke-width:6.886;stroke-linecap:butt;stroke-linejoin:miter;stroke-miterlimit:10;stroke-dasharray:none;stroke-opacity:1"
         d="m 1363.09,1164.16 h 124.67" /><path
         id="path36"
         style="fill:#0000ff;fill-opacity:1;fill-rule:nonzero;stroke:none"
         d="m 1387.56,1096.92 c 0.24,0.72 3.22,6.69 7.63,10.5 3.09,2.86 7.15,4.77 11.79,4.77 4.77,0 6.44,-3.58 6.44,-8.35 0,-6.79 -4.89,-20.39 -7.26,-26.82 -1.08,-2.86 -1.68,-4.41 -1.68,-6.55 0,-5.38 3.69,-9.66 9.43,-9.66 11.07,0 15.25,17.52 15.25,18.24 0,0.59 -0.47,1.08 -1.19,1.08 -1.08,0 -1.19,-0.36 -1.8,-2.4 -2.73,-9.78 -7.26,-14.54 -11.9,-14.54 -1.21,0 -3.11,0.12 -3.11,3.94 0,2.98 1.31,6.56 2.03,8.21 2.37,6.57 7.39,19.93 7.39,26.71 0,7.15 -4.17,12.51 -13.24,12.51 -10.61,0 -16.21,-7.5 -18.36,-10.48 -0.35,6.8 -5.25,10.48 -10.48,10.48 -3.81,0 -6.44,-2.26 -8.47,-6.31 -2.14,-4.3 -3.81,-11.44 -3.81,-11.92 0,-0.47 0.48,-1.06 1.31,-1.06 0.95,0 1.08,0.11 1.78,2.86 1.91,7.26 4.07,14.06 8.83,14.06 2.74,0 3.69,-1.91 3.69,-5.49 0,-2.62 -1.19,-7.26 -2.02,-10.97 l -3.34,-12.87 c -0.47,-2.27 -1.78,-7.63 -2.38,-9.77 -0.84,-3.11 -2.15,-8.7 -2.15,-9.31 0,-1.65 1.31,-2.97 3.11,-2.97 1.42,0 3.09,0.71 4.04,2.5 0.24,0.6 1.32,4.77 1.91,7.16 l 2.63,10.72 3.93,15.73" /><path
         id="path38"
         style="fill:#0000ff;fill-opacity:1;fill-rule:nonzero;stroke:none"
         d="m 1462.2,1102.58 c 0,2.37 0,2.58 -2.28,2.58 -6.15,-6.36 -14.9,-6.36 -18.08,-6.36 v -3.08 c 1.99,0 7.85,0 13.02,2.58 v -51.46 c 0,-3.57 -0.3,-4.76 -9.25,-4.76 h -3.17 V 1039 c 3.47,0.3 12.12,0.3 16.09,0.3 3.97,0 12.61,0 16.1,-0.3 v 3.08 h -3.19 c -8.94,0 -9.24,1.09 -9.24,4.76 v 55.74" /><path
         id="path40"
         style="fill:#000000;fill-opacity:1;fill-rule:nonzero;stroke:none"
         d="m 1939.59,1123.99 v 56.7 l 71.39,-28.35" /><path
         id="path42"
         style="fill:none;stroke:#000000;stroke-width:15.9404;stroke-linecap:butt;stroke-linejoin:miter;stroke-miterlimit:10;stroke-dasharray:none;stroke-opacity:1"
         d="m 1939.59,1123.99 v 56.7 l 71.39,-28.35 z" /><path
         id="path44"
         style="fill:none;stroke:#000000;stroke-width:15.9404;stroke-linecap:butt;stroke-linejoin:miter;stroke-miterlimit:10;stroke-dasharray:none;stroke-opacity:1"
         d="m 1939.59,1152.34 h 79.36" /><path
         id="path46"
         style="fill:#0000ff;fill-opacity:1;fill-rule:nonzero;stroke:none"
         d="m 1938.91,1288.06 c 4.67,0 16.4,0.35 24.7,3.46 13.12,5.01 14.33,15.03 14.33,18.14 0,7.59 -6.56,14.5 -17.96,14.5 -18.14,0 -44.21,-16.41 -44.21,-47.14 0,-18.14 10.37,-30.75 26.07,-30.75 23.49,0 38.35,18.31 38.35,20.56 0,1.03 -1.03,1.89 -1.74,1.89 -0.51,0 -0.68,-0.17 -2.23,-1.72 -11.06,-14.69 -27.47,-17.27 -34.03,-17.27 -9.85,0 -15.02,7.77 -15.02,20.55 0,2.41 0,6.74 2.6,17.78 z m -8.28,3.46 c 7.42,26.59 23.82,29.18 29.35,29.18 7.6,0 12.79,-4.48 12.79,-11.04 0,-18.14 -27.64,-18.14 -34.89,-18.14 h -7.25" /><path
         id="path48"
         style="fill:#0000ff;fill-opacity:1;fill-rule:nonzero;stroke:none"
         d="m 2039.45,1242.03 h -2.62 c -0.36,-2.03 -1.31,-8.59 -2.5,-10.5 -0.85,-1.06 -7.64,-1.06 -11.2,-1.06 h -22.07 c 3.22,2.73 10.5,10.36 13.6,13.22 18.12,16.7 24.79,22.89 24.79,34.7 0,13.7 -10.84,22.88 -24.67,22.88 -13.83,0 -21.94,-11.8 -21.94,-22.05 0,-6.08 5.25,-6.08 5.6,-6.08 2.51,0 5.61,1.78 5.61,5.59 0,3.35 -2.27,5.61 -5.61,5.61 -1.06,0 -1.31,0 -1.66,-0.12 2.27,8.11 8.7,13.59 16.44,13.59 10.14,0 16.34,-8.47 16.34,-19.42 0,-10.14 -5.84,-18.95 -12.64,-26.59 l -24.08,-26.94 V 1222 h 43.5 l 3.11,20.03" /><path
         id="path50"
         style="fill:none;stroke:#000000;stroke-width:15.9404;stroke-linecap:butt;stroke-linejoin:miter;stroke-miterlimit:10;stroke-dasharray:none;stroke-opacity:1"
         d="m 2306.35,925.566 h 453.547 v 453.547 H 2306.35 Z" /><path
         id="path52"
         style="fill:#0000ff;fill-opacity:1;fill-rule:nonzero;stroke:none"
         d="m 2538.33,1265.41 c 0,2.75 0,2.86 -2.38,2.86 -2.87,-3.22 -8.82,-7.63 -21.11,-7.63 v -3.45 c 2.75,0 8.71,0 15.27,3.09 v -62.11 c 0,-4.28 -0.36,-5.72 -10.84,-5.72 h -3.71 V 1189 c 3.22,0.23 14.78,0.23 18.72,0.23 3.94,0 15.38,0 18.6,-0.23 v 3.45 h -3.71 c -10.48,0 -10.84,1.44 -10.84,5.72 v 67.24" /><path
         id="path54"
         style="fill:none;stroke:#0000ff;stroke-width:6.886;stroke-linecap:butt;stroke-linejoin:miter;stroke-miterlimit:10;stroke-dasharray:none;stroke-opacity:1"
         d="m 2470.78,1164.16 h 124.67" /><path
         id="path56"
         style="fill:#0000ff;fill-opacity:1;fill-rule:nonzero;stroke:none"
         d="m 2495.56,1096.92 c 0.24,0.72 3.22,6.69 7.63,10.5 3.09,2.86 7.15,4.77 11.79,4.77 4.77,0 6.44,-3.58 6.44,-8.35 0,-6.79 -4.89,-20.39 -7.26,-26.82 -1.08,-2.86 -1.68,-4.41 -1.68,-6.55 0,-5.38 3.69,-9.66 9.43,-9.66 11.07,0 15.25,17.52 15.25,18.24 0,0.59 -0.47,1.08 -1.19,1.08 -1.08,0 -1.19,-0.36 -1.8,-2.4 -2.73,-9.78 -7.26,-14.54 -11.9,-14.54 -1.21,0 -3.11,0.12 -3.11,3.94 0,2.98 1.31,6.56 2.03,8.21 2.37,6.57 7.39,19.93 7.39,26.71 0,7.15 -4.17,12.51 -13.24,12.51 -10.61,0 -16.21,-7.5 -18.36,-10.48 -0.35,6.8 -5.25,10.48 -10.48,10.48 -3.81,0 -6.44,-2.26 -8.47,-6.31 -2.14,-4.3 -3.81,-11.44 -3.81,-11.92 0,-0.47 0.48,-1.06 1.31,-1.06 0.95,0 1.08,0.11 1.78,2.86 1.91,7.26 4.07,14.06 8.83,14.06 2.74,0 3.69,-1.91 3.69,-5.49 0,-2.62 -1.19,-7.26 -2.02,-10.97 l -3.34,-12.87 c -0.47,-2.27 -1.78,-7.63 -2.38,-9.77 -0.84,-3.11 -2.15,-8.7 -2.15,-9.31 0,-1.65 1.31,-2.97 3.11,-2.97 1.42,0 3.09,0.71 4.04,2.5 0.24,0.6 1.32,4.77 1.91,7.16 l 2.63,10.72 3.93,15.73" /><path
         id="path58"
         style="fill:#0000ff;fill-opacity:1;fill-rule:nonzero;stroke:none"
         d="m 2553.61,1046.66 10.53,10.22 c 15.5,13.71 21.47,19.07 21.47,29.01 0,11.33 -8.95,19.27 -21.06,19.27 -11.24,0 -18.58,-9.14 -18.58,-17.99 0,-5.56 4.97,-5.56 5.26,-5.56 1.69,0 5.16,1.2 5.16,5.27 0,2.59 -1.78,5.17 -5.26,5.17 -0.79,0 -0.99,0 -1.29,-0.1 2.29,6.46 7.64,10.13 13.41,10.13 9.05,0 13.31,-8.05 13.31,-16.19 0,-7.95 -4.97,-15.8 -10.43,-21.95 l -19.07,-21.27 c -1.09,-1.09 -1.09,-1.28 -1.09,-3.67 h 36.86 l 2.78,17.28 h -2.48 c -0.5,-2.98 -1.21,-7.34 -2.19,-8.84 -0.71,-0.78 -7.25,-0.78 -9.44,-0.78 h -17.89" /><path
         id="path60"
         style="fill:#000000;fill-opacity:1;fill-rule:nonzero;stroke:none"
         d="m 3047.27,1123.99 v 56.7 l 71.41,-28.35" /><path
         id="path62"
         style="fill:none;stroke:#000000;stroke-width:15.9404;stroke-linecap:butt;stroke-linejoin:miter;stroke-miterlimit:10;stroke-dasharray:none;stroke-opacity:1"
         d="m 3047.27,1123.99 v 56.7 l 71.41,-28.35 z" /><path
         id="path64"
         style="fill:none;stroke:#000000;stroke-width:15.9404;stroke-linecap:butt;stroke-linejoin:miter;stroke-miterlimit:10;stroke-dasharray:none;stroke-opacity:1"
         d="m 3047.27,1152.34 h 79.37" /><path
         id="path66"
         style="fill:#0000ff;fill-opacity:1;fill-rule:nonzero;stroke:none"
         d="m 3046.91,1288.06 c 4.67,0 16.4,0.35 24.7,3.46 13.12,5.01 14.33,15.03 14.33,18.14 0,7.59 -6.56,14.5 -17.96,14.5 -18.14,0 -44.21,-16.41 -44.21,-47.14 0,-18.14 10.37,-30.75 26.07,-30.75 23.49,0 38.35,18.31 38.35,20.56 0,1.03 -1.03,1.89 -1.74,1.89 -0.51,0 -0.68,-0.17 -2.23,-1.72 -11.06,-14.69 -27.47,-17.27 -34.03,-17.27 -9.85,0 -15.02,7.77 -15.02,20.55 0,2.41 0,6.74 2.6,17.78 z m -8.28,3.46 c 7.42,26.59 23.82,29.18 29.35,29.18 7.6,0 12.79,-4.48 12.79,-11.04 0,-18.14 -27.64,-18.14 -34.89,-18.14 h -7.25" /><path
         id="path68"
         style="fill:#0000ff;fill-opacity:1;fill-rule:nonzero;stroke:none"
         d="m 3115.94,1264.8 c -2.03,-0.13 -2.5,-0.24 -2.5,-1.32 0,-1.18 0.59,-1.18 2.73,-1.18 h 5.49 c 10.12,0 14.65,-8.35 14.65,-19.8 0,-15.61 -8.09,-19.78 -13.93,-19.78 -5.72,0 -15.5,2.73 -18.96,10.61 3.81,-0.6 7.27,1.55 7.27,5.84 0,3.46 -2.5,5.83 -5.85,5.83 -2.86,0 -5.95,-1.66 -5.95,-6.19 0,-10.61 10.61,-19.31 23.84,-19.31 14.18,0 24.68,10.84 24.68,22.89 0,10.95 -8.83,19.55 -20.27,21.56 10.38,2.99 17.05,11.69 17.05,20.99 0,9.42 -9.78,16.33 -21.35,16.33 -11.92,0 -20.73,-7.27 -20.73,-15.97 0,-4.77 3.69,-5.72 5.48,-5.72 2.5,0 5.36,1.78 5.36,5.36 0,3.81 -2.86,5.48 -5.48,5.48 -0.72,0 -0.95,0 -1.31,-0.12 4.53,8.11 15.73,8.11 16.32,8.11 3.94,0 11.69,-1.78 11.69,-13.47 0,-2.27 -0.36,-8.94 -3.81,-14.06 -3.58,-5.25 -7.63,-5.61 -10.84,-5.72 l -3.58,-0.36" /><path
         id="path70"
         style="fill:none;stroke:#000000;stroke-width:15.9404;stroke-linecap:butt;stroke-linejoin:miter;stroke-miterlimit:10;stroke-dasharray:none;stroke-opacity:1"
         d="m 3414.03,925.566 h 453.547 v 453.547 H 3414.03 Z" /><path
         id="path72"
         style="fill:#0000ff;fill-opacity:1;fill-rule:nonzero;stroke:none"
         d="m 3572.95,968.047 c 5.53,0.344 8.47,4.141 8.47,8.453 0,5.703 -4.31,8.469 -8.28,8.469 -4.16,0 -8.47,-2.594 -8.47,-8.641 0,-8.797 8.64,-16.047 19.17,-16.047 26.25,0 36.1,40.409 48.35,90.489 13.29,54.57 24.53,109.65 33.86,165.09 6.39,36.78 12.78,71.33 18.64,93.61 2.08,8.45 7.95,30.73 14.69,30.73 5.34,0 9.67,-3.28 10.35,-3.97 -5.7,-0.34 -8.64,-4.15 -8.64,-8.46 0,-5.71 4.33,-8.46 8.3,-8.46 4.14,0 8.45,2.58 8.45,8.63 0,9.33 -9.31,16.06 -18.81,16.06 -13.12,0 -22.8,-18.83 -32.3,-54.05 -0.51,-1.9 -24,-88.59 -43,-201.54 -4.5,-26.43 -9.5,-55.25 -15.2,-79.27 -3.11,-12.593 -11.05,-45.062 -25.03,-45.062 -6.22,0 -10.36,3.969 -10.55,3.969" /><path
         id="path74"
         style="fill:#000000;fill-opacity:1;fill-rule:nonzero;stroke:none"
         d="m 4096.11,785.234 h 56.7 l -28.35,-71.398" /><path
         id="path76"
         style="fill:none;stroke:#000000;stroke-width:15.9404;stroke-linecap:butt;stroke-linejoin:miter;stroke-miterlimit:10;stroke-dasharray:none;stroke-opacity:1"
         d="m 4096.11,785.234 h 56.7 l -28.35,-71.398 z" /><path
         id="path78"
         style="fill:none;stroke:#000000;stroke-width:15.9404;stroke-linecap:butt;stroke-linejoin:miter;stroke-miterlimit:10;stroke-dasharray:none;stroke-opacity:1"
         d="M 4124.46,785.234 V 705.863" /><path
         id="path80"
         style="fill:#0000ff;fill-opacity:1;fill-rule:nonzero;stroke:none"
         d="m 4201.42,703.063 c -1.2,-5.172 -1.89,-6.563 -8.97,-6.563 -2.07,0 -3.81,0 -3.81,-3.281 0,-0.344 0.17,-1.719 2.08,-1.719 2.25,0 4.66,0.344 6.91,0.344 h 7.42 c 3.62,0 12.43,-0.344 16.06,-0.344 1.05,0 3.11,0 3.11,3.109 0,1.891 -1.2,1.891 -4.14,1.891 -7.94,0 -8.47,1.219 -8.47,2.594 0,2.078 7.78,31.781 8.81,35.75 1.91,-4.828 6.56,-11.578 15.55,-11.578 19.51,0 40.58,25.39 40.58,50.781 0,15.891 -8.99,27.109 -21.94,27.109 -11.05,0 -20.38,-10.703 -22.27,-13.125 -1.39,8.641 -8.12,13.125 -15.03,13.125 -5,0 -8.98,-2.422 -12.26,-8.984 -3.11,-6.219 -5.52,-16.75 -5.52,-17.438 0,-0.687 0.69,-1.546 1.89,-1.546 1.39,0 1.56,0.171 2.6,4.14 2.59,10.188 5.87,20.375 12.78,20.375 3.97,0 5.36,-2.765 5.36,-7.937 0,-4.157 -0.53,-5.875 -1.22,-8.985 z m 29.88,75.812 c 1.22,4.844 6.04,9.844 8.81,12.266 1.91,1.734 7.59,6.562 14.16,6.562 7.61,0 11.06,-7.594 11.06,-16.578 0,-8.281 -4.85,-27.797 -9.16,-36.781 -4.31,-9.328 -12.26,-17.61 -20.2,-17.61 -11.75,0 -13.64,14.844 -13.64,15.532 0,0.515 0.34,1.906 0.51,2.765 l 8.46,33.844" /><path
         id="path82"
         style="fill:none;stroke:#000000;stroke-width:15.9404;stroke-linecap:butt;stroke-linejoin:miter;stroke-miterlimit:10;stroke-dasharray:none;stroke-opacity:1"
         d="m 147.66,168.691 h 340.16 v 340.16 H 147.66 Z" /><path
         id="path84"
         style="fill:none;stroke:#000000;stroke-width:15.9404;stroke-linecap:butt;stroke-linejoin:miter;stroke-miterlimit:10;stroke-dasharray:none;stroke-opacity:1"
         d="M 487.82,338.77 H 204.297 M 431.184,225.324 H 204.297 v 226.891 h 226.887" /><path
         id="path86"
         style="fill:#000000;fill-opacity:1;fill-rule:nonzero;stroke:none"
         d="M 911.266,367.117 V 310.422 L 839.863,338.77" /><path
         id="path88"
         style="fill:none;stroke:#000000;stroke-width:15.9404;stroke-linecap:butt;stroke-linejoin:miter;stroke-miterlimit:10;stroke-dasharray:none;stroke-opacity:1"
         d="M 911.266,367.117 V 310.422 L 839.863,338.77 Z" /><path
         id="path90"
         style="fill:none;stroke:#000000;stroke-width:15.9404;stroke-linecap:butt;stroke-linejoin:miter;stroke-miterlimit:10;stroke-dasharray:none;stroke-opacity:1"
         d="M 911.266,338.77 H 831.895" /><path
         id="path92"
         style="fill:#0000ff;fill-opacity:1;fill-rule:nonzero;stroke:none"
         d="m 875.016,219.422 c 3.453,0 4.843,0 4.843,3.281 0,1.735 -1.39,1.735 -4.5,1.735 h -13.984 c 3.281,17.781 5.703,30.046 7.078,35.562 1.047,4.156 4.672,8.125 9.156,8.125 3.625,0 7.25,-1.562 8.985,-3.109 -6.735,-0.688 -8.813,-5.703 -8.813,-8.641 0,-3.453 2.594,-5.516 5.875,-5.516 3.453,0 8.641,2.922 8.641,9.485 0,7.265 -7.266,11.234 -14.859,11.234 -7.422,0 -14.672,-5.531 -18.125,-12.265 -3.11,-6.047 -4.844,-12.266 -8.813,-34.875 h -11.578 c -3.281,0 -5,0 -5,-3.11 0,-1.906 1.031,-1.906 4.484,-1.906 h 11.063 c -3.11,-16.063 -10.188,-55.094 -14.172,-73.563 -2.938,-15.031 -5.516,-27.64 -14.156,-27.64 -0.516,0 -5.532,0 -8.641,3.281 8.813,0.703 8.813,8.297 8.813,8.469 0,3.453 -2.594,5.531 -5.875,5.531 -3.454,0 -8.625,-2.937 -8.625,-9.5 0,-7.437 7.593,-11.234 14.328,-11.234 17.609,0 24.875,31.609 26.765,40.25 3.11,13.297 11.578,59.218 12.438,64.406 h 14.672" /><path
         id="path94"
         style="fill:#0000ff;fill-opacity:1;fill-rule:nonzero;stroke:none"
         d="m 915.328,200.406 c 0,2.75 0,2.86 -2.375,2.86 -2.875,-3.219 -8.828,-7.625 -21.109,-7.625 v -3.453 c 2.75,0 8.703,0 15.265,3.093 v -62.109 c 0,-4.281 -0.359,-5.719 -10.843,-5.719 h -3.703 V 124 c 3.218,0.234 14.781,0.234 18.718,0.234 3.938,0 15.375,0 18.594,-0.234 v 3.453 h -3.703 c -10.484,0 -10.844,1.438 -10.844,5.719 v 67.234" /><path
         id="path96"
         style="fill:none;stroke:#000000;stroke-width:15.9404;stroke-linecap:butt;stroke-linejoin:miter;stroke-miterlimit:10;stroke-dasharray:none;stroke-opacity:1"
         d="m 1198.66,111.996 h 453.547 V 565.543 H 1198.66 Z" /><path
         id="path98"
         style="fill:#0000ff;fill-opacity:1;fill-rule:nonzero;stroke:none"
         d="m 1430.33,451.406 c 0,2.75 0,2.86 -2.38,2.86 -2.87,-3.219 -8.82,-7.625 -21.11,-7.625 v -3.453 c 2.75,0 8.71,0 15.27,3.093 v -62.109 c 0,-4.281 -0.36,-5.719 -10.84,-5.719 h -3.71 V 375 c 3.22,0.234 14.78,0.234 18.72,0.234 3.94,0 15.38,0 18.6,-0.234 v 3.453 h -3.71 c -10.48,0 -10.84,1.438 -10.84,5.719 v 67.234" /><path
         id="path100"
         style="fill:none;stroke:#0000ff;stroke-width:6.886;stroke-linecap:butt;stroke-linejoin:miter;stroke-miterlimit:10;stroke-dasharray:none;stroke-opacity:1"
         d="m 1363.09,350.59 h 124.67" /><path
         id="path102"
         style="fill:#0000ff;fill-opacity:1;fill-rule:nonzero;stroke:none"
         d="m 1387.56,282.922 c 0.24,0.719 3.22,6.687 7.63,10.5 3.09,2.859 7.15,4.766 11.79,4.766 4.77,0 6.44,-3.579 6.44,-8.344 0,-6.797 -4.89,-20.391 -7.26,-26.828 -1.08,-2.86 -1.68,-4.407 -1.68,-6.547 0,-5.375 3.69,-9.656 9.43,-9.656 11.07,0 15.25,17.515 15.25,18.234 0,0.594 -0.47,1.078 -1.19,1.078 -1.08,0 -1.19,-0.359 -1.8,-2.391 -2.73,-9.781 -7.26,-14.546 -11.9,-14.546 -1.21,0 -3.11,0.125 -3.11,3.937 0,2.984 1.31,6.563 2.03,8.219 2.37,6.562 7.39,19.922 7.39,26.703 0,7.156 -4.17,12.516 -13.24,12.516 -10.61,0 -16.21,-7.5 -18.36,-10.485 -0.35,6.797 -5.25,10.485 -10.48,10.485 -3.81,0 -6.44,-2.266 -8.47,-6.313 -2.14,-4.297 -3.81,-11.437 -3.81,-11.922 0,-0.469 0.48,-1.062 1.31,-1.062 0.95,0 1.08,0.109 1.78,2.859 1.91,7.266 4.07,14.063 8.83,14.063 2.74,0 3.69,-1.907 3.69,-5.485 0,-2.625 -1.19,-7.265 -2.02,-10.969 l -3.34,-12.875 c -0.47,-2.265 -1.78,-7.625 -2.38,-9.765 -0.84,-3.11 -2.15,-8.703 -2.15,-9.313 0,-1.656 1.31,-2.968 3.11,-2.968 1.42,0 3.09,0.703 4.04,2.5 0.24,0.593 1.32,4.765 1.91,7.156 l 2.63,10.719 3.93,15.734" /><path
         id="path104"
         style="fill:#0000ff;fill-opacity:1;fill-rule:nonzero;stroke:none"
         d="m 1462.2,288.578 c 0,2.375 0,2.578 -2.28,2.578 -6.15,-6.359 -14.9,-6.359 -18.08,-6.359 v -3.078 c 1.99,0 7.85,0 13.02,2.578 v -51.453 c 0,-3.578 -0.3,-4.766 -9.25,-4.766 h -3.17 V 225 c 3.47,0.297 12.12,0.297 16.09,0.297 3.97,0 12.61,0 16.1,-0.297 v 3.078 h -3.19 c -8.94,0 -9.24,1.094 -9.24,4.766 v 55.734" /><path
         id="path106"
         style="fill:#000000;fill-opacity:1;fill-rule:nonzero;stroke:none"
         d="m 2018.95,367.117 v -56.695 l -71.4,28.348" /><path
         id="path108"
         style="fill:none;stroke:#000000;stroke-width:15.9404;stroke-linecap:butt;stroke-linejoin:miter;stroke-miterlimit:10;stroke-dasharray:none;stroke-opacity:1"
         d="m 2018.95,367.117 v -56.695 l -71.4,28.348 z" /><path
         id="path110"
         style="fill:none;stroke:#000000;stroke-width:15.9404;stroke-linecap:butt;stroke-linejoin:miter;stroke-miterlimit:10;stroke-dasharray:none;stroke-opacity:1"
         d="m 2018.95,338.77 h -79.36" /><path
         id="path112"
         style="fill:#0000ff;fill-opacity:1;fill-rule:nonzero;stroke:none"
         d="m 1983.02,219.422 c 3.45,0 4.84,0 4.84,3.281 0,1.735 -1.39,1.735 -4.5,1.735 h -13.98 c 3.28,17.781 5.7,30.046 7.07,35.562 1.05,4.156 4.68,8.125 9.16,8.125 3.62,0 7.25,-1.562 8.98,-3.109 -6.73,-0.688 -8.81,-5.703 -8.81,-8.641 0,-3.453 2.6,-5.516 5.88,-5.516 3.45,0 8.64,2.922 8.64,9.485 0,7.265 -7.27,11.234 -14.86,11.234 -7.42,0 -14.67,-5.531 -18.13,-12.265 -3.11,-6.047 -4.84,-12.266 -8.81,-34.875 h -11.58 c -3.28,0 -5,0 -5,-3.11 0,-1.906 1.03,-1.906 4.49,-1.906 h 11.06 c -3.11,-16.063 -10.19,-55.094 -14.17,-73.563 -2.94,-15.031 -5.52,-27.64 -14.16,-27.64 -0.51,0 -5.53,0 -8.64,3.281 8.81,0.703 8.81,8.297 8.81,8.469 0,3.453 -2.59,5.531 -5.87,5.531 -3.46,0 -8.63,-2.937 -8.63,-9.5 0,-7.437 7.6,-11.234 14.33,-11.234 17.61,0 24.88,31.609 26.77,40.25 3.11,13.297 11.57,59.218 12.43,64.406 h 14.68" /><path
         id="path114"
         style="fill:#0000ff;fill-opacity:1;fill-rule:nonzero;stroke:none"
         d="m 2041.45,144.031 h -2.62 c -0.36,-2.031 -1.31,-8.593 -2.5,-10.5 -0.85,-1.062 -7.64,-1.062 -11.2,-1.062 h -22.07 c 3.22,2.734 10.5,10.359 13.6,13.219 18.12,16.703 24.79,22.89 24.79,34.703 0,13.703 -10.84,22.875 -24.67,22.875 -13.83,0 -21.94,-11.797 -21.94,-22.047 0,-6.078 5.25,-6.078 5.6,-6.078 2.51,0 5.61,1.781 5.61,5.593 0,3.344 -2.27,5.61 -5.61,5.61 -1.06,0 -1.31,0 -1.66,-0.125 2.27,8.109 8.7,13.594 16.44,13.594 10.14,0 16.34,-8.469 16.34,-19.422 0,-10.141 -5.84,-18.953 -12.64,-26.594 l -24.08,-26.938 V 124 h 43.5 l 3.11,20.031" /><path
         id="path116"
         style="fill:none;stroke:#000000;stroke-width:15.9404;stroke-linecap:butt;stroke-linejoin:miter;stroke-miterlimit:10;stroke-dasharray:none;stroke-opacity:1"
         d="m 2306.35,111.996 h 453.547 V 565.543 H 2306.35 Z" /><path
         id="path118"
         style="fill:#0000ff;fill-opacity:1;fill-rule:nonzero;stroke:none"
         d="m 2538.33,451.406 c 0,2.75 0,2.86 -2.38,2.86 -2.87,-3.219 -8.82,-7.625 -21.11,-7.625 v -3.453 c 2.75,0 8.71,0 15.27,3.093 v -62.109 c 0,-4.281 -0.36,-5.719 -10.84,-5.719 h -3.71 V 375 c 3.22,0.234 14.78,0.234 18.72,0.234 3.94,0 15.38,0 18.6,-0.234 v 3.453 h -3.71 c -10.48,0 -10.84,1.438 -10.84,5.719 v 67.234" /><path
         id="path120"
         style="fill:none;stroke:#0000ff;stroke-width:6.886;stroke-linecap:butt;stroke-linejoin:miter;stroke-miterlimit:10;stroke-dasharray:none;stroke-opacity:1"
         d="m 2470.78,350.59 h 124.67" /><path
         id="path122"
         style="fill:#0000ff;fill-opacity:1;fill-rule:nonzero;stroke:none"
         d="m 2495.56,282.922 c 0.24,0.719 3.22,6.687 7.63,10.5 3.09,2.859 7.15,4.766 11.79,4.766 4.77,0 6.44,-3.579 6.44,-8.344 0,-6.797 -4.89,-20.391 -7.26,-26.828 -1.08,-2.86 -1.68,-4.407 -1.68,-6.547 0,-5.375 3.69,-9.656 9.43,-9.656 11.07,0 15.25,17.515 15.25,18.234 0,0.594 -0.47,1.078 -1.19,1.078 -1.08,0 -1.19,-0.359 -1.8,-2.391 -2.73,-9.781 -7.26,-14.546 -11.9,-14.546 -1.21,0 -3.11,0.125 -3.11,3.937 0,2.984 1.31,6.563 2.03,8.219 2.37,6.562 7.39,19.922 7.39,26.703 0,7.156 -4.17,12.516 -13.24,12.516 -10.61,0 -16.21,-7.5 -18.36,-10.485 -0.35,6.797 -5.25,10.485 -10.48,10.485 -3.81,0 -6.44,-2.266 -8.47,-6.313 -2.14,-4.297 -3.81,-11.437 -3.81,-11.922 0,-0.469 0.48,-1.062 1.31,-1.062 0.95,0 1.08,0.109 1.78,2.859 1.91,7.266 4.07,14.063 8.83,14.063 2.74,0 3.69,-1.907 3.69,-5.485 0,-2.625 -1.19,-7.265 -2.02,-10.969 l -3.34,-12.875 c -0.47,-2.265 -1.78,-7.625 -2.38,-9.765 -0.84,-3.11 -2.15,-8.703 -2.15,-9.313 0,-1.656 1.31,-2.968 3.11,-2.968 1.42,0 3.09,0.703 4.04,2.5 0.24,0.593 1.32,4.765 1.91,7.156 l 2.63,10.719 3.93,15.734" /><path
         id="path124"
         style="fill:#0000ff;fill-opacity:1;fill-rule:nonzero;stroke:none"
         d="m 2553.61,232.656 10.53,10.219 c 15.5,13.719 21.47,19.078 21.47,29.016 0,11.328 -8.95,19.265 -21.06,19.265 -11.24,0 -18.58,-9.14 -18.58,-17.984 0,-5.563 4.97,-5.563 5.26,-5.563 1.69,0 5.16,1.204 5.16,5.266 0,2.594 -1.78,5.172 -5.26,5.172 -0.79,0 -0.99,0 -1.29,-0.094 2.29,6.453 7.64,10.125 13.41,10.125 9.05,0 13.31,-8.047 13.31,-16.187 0,-7.953 -4.97,-15.797 -10.43,-21.953 l -19.07,-21.266 c -1.09,-1.094 -1.09,-1.281 -1.09,-3.672 h 36.86 l 2.78,17.281 h -2.48 c -0.5,-2.984 -1.21,-7.343 -2.19,-8.843 -0.71,-0.782 -7.25,-0.782 -9.44,-0.782 h -17.89" /><path
         id="path126"
         style="fill:#000000;fill-opacity:1;fill-rule:nonzero;stroke:none"
         d="m 3126.64,367.117 v -56.695 l -71.39,28.348" /><path
         id="path128"
         style="fill:none;stroke:#000000;stroke-width:15.9404;stroke-linecap:butt;stroke-linejoin:miter;stroke-miterlimit:10;stroke-dasharray:none;stroke-opacity:1"
         d="m 3126.64,367.117 v -56.695 l -71.39,28.348 z" /><path
         id="path130"
         style="fill:none;stroke:#000000;stroke-width:15.9404;stroke-linecap:butt;stroke-linejoin:miter;stroke-miterlimit:10;stroke-dasharray:none;stroke-opacity:1"
         d="m 3126.64,338.77 h -79.37" /><path
         id="path132"
         style="fill:#0000ff;fill-opacity:1;fill-rule:nonzero;stroke:none"
         d="m 3091.02,219.422 c 3.45,0 4.84,0 4.84,3.281 0,1.735 -1.39,1.735 -4.5,1.735 h -13.98 c 3.28,17.781 5.7,30.046 7.07,35.562 1.05,4.156 4.68,8.125 9.16,8.125 3.62,0 7.25,-1.562 8.98,-3.109 -6.73,-0.688 -8.81,-5.703 -8.81,-8.641 0,-3.453 2.6,-5.516 5.88,-5.516 3.45,0 8.64,2.922 8.64,9.485 0,7.265 -7.27,11.234 -14.86,11.234 -7.42,0 -14.67,-5.531 -18.13,-12.265 -3.11,-6.047 -4.84,-12.266 -8.81,-34.875 h -11.58 c -3.28,0 -5,0 -5,-3.11 0,-1.906 1.03,-1.906 4.49,-1.906 h 11.06 c -3.11,-16.063 -10.19,-55.094 -14.17,-73.563 -2.94,-15.031 -5.52,-27.64 -14.16,-27.64 -0.51,0 -5.53,0 -8.64,3.281 8.81,0.703 8.81,8.297 8.81,8.469 0,3.453 -2.59,5.531 -5.87,5.531 -3.46,0 -8.63,-2.937 -8.63,-9.5 0,-7.437 7.6,-11.234 14.33,-11.234 17.61,0 24.88,31.609 26.77,40.25 3.11,13.297 11.57,59.218 12.43,64.406 h 14.68" /><path
         id="path134"
         style="fill:#0000ff;fill-opacity:1;fill-rule:nonzero;stroke:none"
         d="m 3118.94,166.797 c -2.03,-0.125 -2.5,-0.234 -2.5,-1.313 0,-1.187 0.59,-1.187 2.73,-1.187 h 5.49 c 10.12,0 14.65,-8.344 14.65,-19.797 0,-15.609 -8.09,-19.781 -13.93,-19.781 -5.72,0 -15.5,2.734 -18.96,10.609 3.81,-0.594 7.27,1.547 7.27,5.844 0,3.453 -2.5,5.828 -5.85,5.828 -2.86,0 -5.95,-1.656 -5.95,-6.187 0,-10.61 10.61,-19.313 23.84,-19.313 14.18,0 24.68,10.844 24.68,22.891 0,10.953 -8.83,19.547 -20.27,21.562 10.38,2.985 17.05,11.688 17.05,20.985 0,9.421 -9.78,16.328 -21.35,16.328 -11.92,0 -20.73,-7.266 -20.73,-15.969 0,-4.766 3.69,-5.719 5.48,-5.719 2.5,0 5.36,1.781 5.36,5.36 0,3.812 -2.86,5.484 -5.48,5.484 -0.72,0 -0.95,0 -1.31,-0.125 4.53,8.109 15.73,8.109 16.32,8.109 3.94,0 11.69,-1.781 11.69,-13.468 0,-2.266 -0.36,-8.938 -3.81,-14.063 -3.58,-5.25 -7.63,-5.609 -10.84,-5.719 l -3.58,-0.359" /><path
         id="path136"
         style="fill:none;stroke:#000000;stroke-width:15.9404;stroke-linecap:butt;stroke-linejoin:miter;stroke-miterlimit:10;stroke-dasharray:none;stroke-opacity:1"
         d="m 3414.03,111.996 h 453.547 V 565.543 H 3414.03 Z" /><path
         id="path138"
         style="fill:#0000ff;fill-opacity:1;fill-rule:nonzero;stroke:none"
         d="m 3646.33,440.406 c 0,2.75 0,2.86 -2.38,2.86 -2.87,-3.219 -8.82,-7.625 -21.11,-7.625 v -3.453 c 2.75,0 8.71,0 15.27,3.093 v -62.109 c 0,-4.281 -0.36,-5.719 -10.84,-5.719 h -3.71 V 364 c 3.22,0.234 14.78,0.234 18.72,0.234 3.94,0 15.38,0 18.6,-0.234 v 3.453 h -3.71 c -10.48,0 -10.84,1.438 -10.84,5.719 v 67.234" /><path
         id="path140"
         style="fill:none;stroke:#0000ff;stroke-width:6.886;stroke-linecap:butt;stroke-linejoin:miter;stroke-miterlimit:10;stroke-dasharray:none;stroke-opacity:1"
         d="m 3610.29,339.078 h 61.03" /><path
         id="path142"
         style="fill:#0000ff;fill-opacity:1;fill-rule:nonzero;stroke:none"
         d="m 3653.88,309.594 c 1.06,4.172 1.29,5.359 10,5.359 2.62,0 3.57,0 3.57,2.266 0,1.203 -1.31,1.203 -1.67,1.203 -2.14,0 -4.76,-0.25 -6.9,-0.25 h -14.66 c -2.39,0 -5.14,0.25 -7.52,0.25 -0.95,0 -2.26,0 -2.26,-2.266 0,-1.203 0.95,-1.203 3.34,-1.203 7.39,0 7.39,-0.953 7.39,-2.265 0,-0.829 -0.25,-1.547 -0.48,-2.61 l -16.1,-64.25 c -1.07,-4.172 -1.31,-5.375 -10.01,-5.375 -2.63,0 -3.69,0 -3.69,-2.265 0,-1.188 1.19,-1.188 1.78,-1.188 2.16,0 4.77,0.234 6.92,0.234 h 14.66 c 2.39,0 5.02,-0.234 7.39,-0.234 0.95,0 2.39,0 2.39,2.141 0,1.312 -0.72,1.312 -3.34,1.312 -7.39,0 -7.39,0.953 -7.39,2.391 0,0.234 0,0.828 0.48,2.734 l 16.1,64.016" /><path
         id="path144"
         style="fill:none;stroke:#000000;stroke-width:15.9404;stroke-linecap:butt;stroke-linejoin:miter;stroke-miterlimit:10;stroke-dasharray:none;stroke-opacity:1"
         d="m 552.484,1152.34 h 279.422 m 79.371,0 H 1190.7 m 469.49,0 h 279.42 m 79.37,0 h 279.42 m 469.49,0 h 279.42 m 79.37,0 h 279.43 m 469.48,0 h 248.92 V 785.242 m 0,-79.371 V 338.766 h -248.92 m -469.48,0 h -279.43 m -79.37,0 h -279.42 m -469.49,0 h -279.42 m -79.37,0 h -279.42 m -469.49,0 H 911.277 m -79.371,0 H 495.793" /></g></g></svg>
