<?xml version="1.0" encoding="UTF-8" standalone="no"?>
<svg
   xmlns:dc="http://purl.org/dc/elements/1.1/"
   xmlns:cc="http://creativecommons.org/ns#"
   xmlns:rdf="http://www.w3.org/1999/02/22-rdf-syntax-ns#"
   xmlns:svg="http://www.w3.org/2000/svg"
   xmlns="http://www.w3.org/2000/svg"
   id="svg47"
   version="1.2"
   viewBox="0 0 326.2 134.57"
   height="134.57pt"
   width="326.2pt">
  <metadata
     id="metadata53">
    <rdf:RDF>
      <cc:Work
         rdf:about="">
        <dc:format>image/svg+xml</dc:format>
        <dc:type
           rdf:resource="http://purl.org/dc/dcmitype/StillImage" />
      </cc:Work>
    </rdf:RDF>
  </metadata>
  <defs
     id="defs51" />
  <g
     id="surface1">
    <path
       id="path2"
       transform="matrix(0.1,0,0,-0.1,0,134.57)"
       d="M 142.8125 969.371875 L 142.8125 515.817187 M 142.8125 926.832812 L 57.773438 841.79375 M 142.8125 863.04375 L 57.773438 778.004687 M 142.8125 799.29375 L 57.773438 714.254687 M 142.8125 735.504687 L 57.773438 650.465625 M 142.8125 671.715625 L 57.773438 586.676562 M 142.8125 607.926562 L 57.773438 522.8875 "
       style="fill:none;stroke-width:15.9404;stroke-linecap:round;stroke-linejoin:miter;stroke:rgb(0%,0%,0%);stroke-opacity:1;stroke-miterlimit:10;" />
    <path
       id="path4"
       transform="matrix(0.1,0,0,-0.1,0,134.57)"
       d="M 199.53125 742.575 L 335.585938 742.575 M 516.992188 742.575 L 653.046875 742.575 M 199.53125 799.29375 L 256.210938 742.575 L 199.53125 685.895312 M 596.367188 799.29375 L 653.046875 742.575 L 596.367188 685.895312 "
       style="fill:none;stroke-width:15.9404;stroke-linecap:round;stroke-linejoin:miter;stroke:rgb(0%,0%,0%);stroke-opacity:1;stroke-miterlimit:10;" />
    <path
       id="path6"
       transform="matrix(0.1,0,0,-0.1,0,134.57)"
       d="M 256.210938 799.29375 L 312.890625 742.575 L 256.210938 685.895312 "
       style="fill:none;stroke-width:15.9404;stroke-linecap:round;stroke-linejoin:miter;stroke:rgb(0%,0%,0%);stroke-opacity:1;stroke-miterlimit:10;" />
    <path
       id="path8"
       transform="matrix(0.1,0,0,-0.1,0,134.57)"
       d="M 539.6875 799.29375 L 596.367188 742.575 L 539.6875 685.895312 "
       style="fill:none;stroke-width:15.9404;stroke-linecap:round;stroke-linejoin:miter;stroke:rgb(0%,0%,0%);stroke-opacity:1;stroke-miterlimit:10;" />
    <path
       id="path10"
       d="M 47.640625 54.425781 L 37.675781 54.425781 L 37.382813 58.242188 L 37.695313 58.242188 C 37.917969 55.375 38.160156 54.875 40.820313 54.875 C 41.132813 54.875 41.632813 54.875 41.769531 54.894531 C 42.097656 54.945313 42.097656 55.152344 42.097656 55.550781 L 42.097656 64.910156 C 42.097656 65.53125 42.046875 65.722656 40.613281 65.722656 L 40.128906 65.722656 L 40.128906 66.171875 C 40.957031 66.152344 41.820313 66.136719 42.667969 66.136719 C 43.515625 66.136719 44.378906 66.152344 45.207031 66.171875 L 45.207031 65.722656 L 44.722656 65.722656 C 43.289063 65.722656 43.238281 65.53125 43.238281 64.910156 L 43.238281 55.550781 C 43.238281 55.171875 43.238281 54.960938 43.546875 54.894531 C 43.6875 54.875 44.1875 54.875 44.5 54.875 C 47.140625 54.875 47.398438 55.375 47.625 58.242188 L 47.933594 58.242188 L 47.640625 54.425781 "
       style=" stroke:none;fill-rule:nonzero;fill:rgb(0%,0%,0%);fill-opacity:1;" />
    <path
       id="path12"
       d="M 42.957031 43.257813 L 45.824219 43.257813 C 46.046875 43.257813 46.617188 43.257813 46.617188 42.707031 C 46.617188 42.328125 46.289063 42.328125 45.976563 42.328125 L 41.230469 42.328125 C 40.832031 42.328125 40.246094 42.328125 39.449219 43.171875 C 39 43.675781 38.449219 44.589844 38.449219 44.695313 C 38.449219 44.796875 38.535156 44.832031 38.640625 44.832031 C 38.757813 44.832031 38.777344 44.78125 38.863281 44.675781 C 39.761719 43.257813 40.660156 43.257813 41.089844 43.257813 L 42.523438 43.257813 L 40.726563 49.183594 C 40.640625 49.441406 40.640625 49.476563 40.640625 49.527344 C 40.640625 49.71875 40.761719 49.960938 41.109375 49.960938 C 41.644531 49.960938 41.730469 49.492188 41.78125 49.234375 L 42.957031 43.257813 "
       style=" stroke:none;fill-rule:nonzero;fill:rgb(0%,0%,100%);fill-opacity:1;" />
    <path
       id="path14"
       transform="matrix(0.1,0,0,-0.1,0,134.57)"
       d="M 1106.601563 870.153125 L 1191.640625 870.153125 M 1149.140625 870.153125 L 1149.140625 615.035937 M 1106.601563 615.035937 L 1191.640625 615.035937 "
       style="fill:none;stroke-width:24.9069;stroke-linecap:butt;stroke-linejoin:miter;stroke:rgb(0%,0%,0%);stroke-opacity:1;stroke-miterlimit:10;" />
    <path
       id="path16"
       transform="matrix(0.1,0,0,-0.1,0,134.57)"
       d="M 1106.601563 572.496875 L 1191.640625 572.496875 M 1149.140625 572.496875 L 1149.140625 62.2625 M 1106.601563 62.2625 L 1191.640625 62.2625 "
       style="fill:none;stroke-width:24.9069;stroke-linecap:butt;stroke-linejoin:miter;stroke:rgb(0%,0%,0%);stroke-opacity:1;stroke-miterlimit:10;" />
    <path
       id="path18"
       transform="matrix(0.1,0,0,-0.1,0,134.57)"
       d="M 1361.71875 444.957812 L 1446.757813 444.957812 M 1404.257813 444.957812 L 1404.257813 189.801562 M 1361.71875 189.840625 L 1446.757813 189.840625 "
       style="fill:none;stroke-width:24.9069;stroke-linecap:butt;stroke-linejoin:miter;stroke:rgb(0%,0%,0%);stroke-opacity:1;stroke-miterlimit:10;" />
    <path
       id="path20"
       transform="matrix(0.1,0,0,-0.1,0,134.57)"
       d="M 1361.71875 997.73125 L 1446.757813 997.73125 M 1404.257813 997.73125 L 1404.257813 487.457812 M 1361.71875 487.457812 L 1446.757813 487.457812 "
       style="fill:none;stroke-width:24.9069;stroke-linecap:butt;stroke-linejoin:miter;stroke:rgb(0%,0%,0%);stroke-opacity:1;stroke-miterlimit:10;" />
    <path
       id="path22"
       transform="matrix(0.1,0,0,-0.1,0,134.57)"
       d="M 1149.101563 317.340625 L 1404.257813 317.340625 "
       style="fill:none;stroke-width:15.9404;stroke-linecap:butt;stroke-linejoin:miter;stroke:rgb(0%,0%,0%);stroke-opacity:1;stroke-miterlimit:10;" />
    <path
       id="path24"
       d="M 129.6875 21 C 129.6875 20.914063 129.617188 20.84375 129.515625 20.84375 C 129.359375 20.84375 129.34375 20.898438 129.257813 21.191406 C 128.804688 22.761719 128.097656 23.296875 127.527344 23.296875 C 127.320313 23.296875 127.078125 23.246094 127.078125 22.726563 C 127.078125 22.261719 127.289063 21.742188 127.476563 21.226563 L 128.6875 18.011719 C 128.738281 17.875 128.859375 17.5625 128.859375 17.234375 C 128.859375 16.511719 128.339844 15.855469 127.492188 15.855469 C 125.90625 15.855469 125.265625 18.355469 125.265625 18.496094 C 125.265625 18.566406 125.335938 18.652344 125.457031 18.652344 C 125.609375 18.652344 125.628906 18.582031 125.699219 18.339844 C 126.113281 16.890625 126.769531 16.199219 127.441406 16.199219 C 127.597656 16.199219 127.890625 16.21875 127.890625 16.769531 C 127.890625 17.21875 127.667969 17.789063 127.527344 18.167969 L 126.320313 21.382813 C 126.214844 21.65625 126.113281 21.933594 126.113281 22.242188 C 126.113281 23.023438 126.648438 23.644531 127.476563 23.644531 C 129.066406 23.644531 129.6875 21.121094 129.6875 21 Z M 129.546875 12.691406 C 129.546875 12.4375 129.34375 12.125 128.964844 12.125 C 128.5625 12.125 128.117188 12.503906 128.117188 12.953125 C 128.117188 13.382813 128.476563 13.523438 128.6875 13.523438 C 129.152344 13.523438 129.546875 13.074219 129.546875 12.691406 "
       style=" stroke:none;fill-rule:nonzero;fill:rgb(0%,0%,100%);fill-opacity:1;" />
    <path
       id="path26"
       transform="matrix(0.1,0,0,-0.1,0,134.57)"
       d="M 2297.1875 742.575 C 2297.1875 836.520312 2221.015625 912.653125 2127.109375 912.653125 C 2033.164063 912.653125 1957.03125 836.520312 1957.03125 742.575 C 1957.03125 648.66875 2033.164063 572.496875 2127.109375 572.496875 C 2221.015625 572.496875 2297.1875 648.66875 2297.1875 742.575 Z M 2297.1875 742.575 "
       style="fill:none;stroke-width:15.9404;stroke-linecap:butt;stroke-linejoin:miter;stroke:rgb(0%,0%,0%);stroke-opacity:1;stroke-miterlimit:10;" />
    <path
       id="path28"
       transform="matrix(0.1,0,0,-0.1,0,134.57)"
       d="M 2144.101563 742.575 C 2144.101563 751.989062 2136.484375 759.60625 2127.109375 759.60625 C 2117.695313 759.60625 2110.078125 751.989062 2110.078125 742.575 C 2110.078125 733.2 2117.695313 725.582812 2127.109375 725.582812 C 2136.484375 725.582812 2144.101563 733.2 2144.101563 742.575 Z M 2144.101563 742.575 "
       style="fill:none;stroke-width:15.9404;stroke-linecap:butt;stroke-linejoin:miter;stroke:rgb(0%,0%,0%);stroke-opacity:1;stroke-miterlimit:10;" />
    <path
       id="path30"
       d="M 212.710938 60.3125 L 199.953125 85.824219 L 225.464844 85.824219 "
       style=" stroke:none;fill-rule:nonzero;fill:rgb(100%,100%,100%);fill-opacity:1;" />
    <path
       id="path32"
       transform="matrix(0.1,0,0,-0.1,0,134.57)"
       d="M 2127.109375 742.575 L 1999.53125 487.457812 L 2254.648438 487.457812 Z M 2127.109375 742.575 "
       style="fill:none;stroke-width:15.9404;stroke-linecap:butt;stroke-linejoin:miter;stroke:rgb(0%,0%,0%);stroke-opacity:1;stroke-miterlimit:10;" />
    <path
       id="path34"
       transform="matrix(0.1,0,0,-0.1,0,134.57)"
       d="M 1900.3125 487.457812 L 2353.867188 487.457812 M 1942.851563 487.457812 L 2027.890625 402.41875 M 2006.601563 487.457812 L 2091.640625 402.41875 M 2070.390625 487.457812 L 2155.429688 402.41875 M 2134.179688 487.457812 L 2219.21875 402.41875 M 2197.96875 487.457812 L 2283.007813 402.41875 M 2261.757813 487.457812 L 2346.796875 402.41875 "
       style="fill:none;stroke-width:15.9404;stroke-linecap:round;stroke-linejoin:miter;stroke:rgb(0%,0%,0%);stroke-opacity:1;stroke-miterlimit:10;" />
    <path
       id="path36"
       d="M 215.417969 22.90625 C 214.882813 23.011719 214.605469 23.390625 214.605469 23.769531 C 214.605469 24.183594 214.933594 24.324219 215.175781 24.324219 C 215.660156 24.324219 216.054688 23.910156 216.054688 23.390625 C 216.054688 22.835938 215.523438 22.355469 214.65625 22.355469 C 213.96875 22.355469 213.171875 22.664063 212.445313 23.71875 C 212.328125 22.804688 211.636719 22.355469 210.945313 22.355469 C 210.273438 22.355469 209.925781 22.871094 209.71875 23.253906 C 209.425781 23.875 209.164063 24.910156 209.164063 24.996094 C 209.164063 25.066406 209.234375 25.152344 209.355469 25.152344 C 209.492188 25.152344 209.511719 25.132813 209.617188 24.738281 C 209.875 23.699219 210.203125 22.699219 210.894531 22.699219 C 211.308594 22.699219 211.429688 22.992188 211.429688 23.492188 C 211.429688 23.875 211.257813 24.546875 211.132813 25.082031 L 210.652344 26.949219 C 210.582031 27.277344 210.390625 28.054688 210.304688 28.363281 C 210.1875 28.8125 209.996094 29.625 209.996094 29.710938 C 209.996094 29.953125 210.1875 30.144531 210.445313 30.144531 C 210.632813 30.144531 210.964844 30.023438 211.066406 29.675781 C 211.117188 29.539063 211.757813 26.929688 211.859375 26.535156 C 211.945313 26.152344 212.050781 25.789063 212.136719 25.410156 C 212.207031 25.167969 212.273438 24.894531 212.328125 24.667969 C 212.378906 24.511719 212.84375 23.667969 213.277344 23.285156 C 213.484375 23.097656 213.933594 22.699219 214.640625 22.699219 C 214.917969 22.699219 215.195313 22.75 215.417969 22.90625 "
       style=" stroke:none;fill-rule:nonzero;fill:rgb(0%,0%,100%);fill-opacity:1;" />
    <path
       id="path38"
       transform="matrix(0.1,0,0,-0.1,0,134.57)"
       d="M 2750.742188 685.895312 L 3204.257813 685.895312 L 3204.257813 1139.45 L 2750.742188 1139.45 Z M 2750.742188 685.895312 "
       style="fill:none;stroke-width:15.9404;stroke-linecap:butt;stroke-linejoin:miter;stroke:rgb(0%,0%,0%);stroke-opacity:1;stroke-miterlimit:10;" />
    <path
       id="path40"
       d="M 293.957031 41.910156 C 293.992188 41.804688 294.421875 40.945313 295.0625 40.390625 C 295.511719 39.976563 296.097656 39.699219 296.773438 39.699219 C 297.464844 39.699219 297.703125 40.21875 297.703125 40.910156 C 297.703125 41.011719 297.703125 41.359375 297.496094 42.167969 L 297.066406 43.949219 C 296.929688 44.464844 296.601563 45.742188 296.566406 45.933594 C 296.496094 46.195313 296.390625 46.640625 296.390625 46.710938 C 296.390625 46.953125 296.582031 47.144531 296.84375 47.144531 C 297.359375 47.144531 297.445313 46.746094 297.601563 46.125 L 298.636719 41.996094 C 298.671875 41.859375 299.570313 39.699219 301.46875 39.699219 C 302.160156 39.699219 302.402344 40.21875 302.402344 40.910156 C 302.402344 41.875 301.726563 43.757813 301.347656 44.792969 C 301.195313 45.210938 301.105469 45.433594 301.105469 45.742188 C 301.105469 46.523438 301.640625 47.144531 302.472656 47.144531 C 304.078125 47.144531 304.679688 44.605469 304.679688 44.5 C 304.679688 44.414063 304.613281 44.34375 304.507813 44.34375 C 304.351563 44.34375 304.335938 44.398438 304.25 44.691406 C 303.851563 46.070313 303.214844 46.796875 302.523438 46.796875 C 302.351563 46.796875 302.074219 46.78125 302.074219 46.226563 C 302.074219 45.777344 302.28125 45.226563 302.351563 45.035156 C 302.660156 44.207031 303.4375 42.167969 303.4375 41.167969 C 303.4375 40.132813 302.835938 39.355469 301.523438 39.355469 C 300.363281 39.355469 299.429688 40.011719 298.742188 41.03125 C 298.6875 40.097656 298.117188 39.355469 296.824219 39.355469 C 295.289063 39.355469 294.476563 40.441406 294.164063 40.875 C 294.113281 39.890625 293.40625 39.355469 292.644531 39.355469 C 292.144531 39.355469 291.746094 39.597656 291.417969 40.253906 C 291.109375 40.875 290.867188 41.929688 290.867188 41.996094 C 290.867188 42.066406 290.9375 42.152344 291.054688 42.152344 C 291.195313 42.152344 291.210938 42.132813 291.316406 41.738281 C 291.574219 40.71875 291.902344 39.699219 292.59375 39.699219 C 292.992188 39.699219 293.128906 39.976563 293.128906 40.492188 C 293.128906 40.875 292.957031 41.546875 292.835938 42.082031 L 292.351563 43.949219 C 292.28125 44.277344 292.09375 45.054688 292.007813 45.363281 C 291.886719 45.8125 291.695313 46.625 291.695313 46.710938 C 291.695313 46.953125 291.886719 47.144531 292.144531 47.144531 C 292.351563 47.144531 292.59375 47.039063 292.730469 46.78125 C 292.765625 46.695313 292.921875 46.089844 293.007813 45.742188 L 293.386719 44.191406 L 293.957031 41.910156 "
       style=" stroke:none;fill-rule:nonzero;fill:rgb(0%,0%,0%);fill-opacity:1;" />
    <path
       id="path42"
       d="M 293.957031 10.609375 C 293.992188 10.507813 294.421875 9.644531 295.0625 9.089844 C 295.511719 8.675781 296.097656 8.398438 296.773438 8.398438 C 297.464844 8.398438 297.703125 8.917969 297.703125 9.609375 C 297.703125 9.710938 297.703125 10.058594 297.496094 10.867188 L 297.066406 12.648438 C 296.929688 13.164063 296.601563 14.441406 296.566406 14.632813 C 296.496094 14.894531 296.390625 15.34375 296.390625 15.410156 C 296.390625 15.652344 296.582031 15.84375 296.84375 15.84375 C 297.359375 15.84375 297.445313 15.445313 297.601563 14.824219 L 298.636719 10.695313 C 298.671875 10.558594 299.570313 8.398438 301.46875 8.398438 C 302.160156 8.398438 302.402344 8.917969 302.402344 9.609375 C 302.402344 10.574219 301.726563 12.457031 301.347656 13.492188 C 301.195313 13.910156 301.105469 14.132813 301.105469 14.441406 C 301.105469 15.222656 301.640625 15.84375 302.472656 15.84375 C 304.078125 15.84375 304.679688 13.304688 304.679688 13.199219 C 304.679688 13.113281 304.613281 13.046875 304.507813 13.046875 C 304.351563 13.046875 304.335938 13.097656 304.25 13.390625 C 303.851563 14.773438 303.214844 15.496094 302.523438 15.496094 C 302.351563 15.496094 302.074219 15.480469 302.074219 14.929688 C 302.074219 14.476563 302.28125 13.925781 302.351563 13.734375 C 302.660156 12.90625 303.4375 10.867188 303.4375 9.867188 C 303.4375 8.832031 302.835938 8.054688 301.523438 8.054688 C 300.363281 8.054688 299.429688 8.710938 298.742188 9.730469 C 298.6875 8.796875 298.117188 8.054688 296.824219 8.054688 C 295.289063 8.054688 294.476563 9.140625 294.164063 9.574219 C 294.113281 8.589844 293.40625 8.054688 292.644531 8.054688 C 292.144531 8.054688 291.746094 8.296875 291.417969 8.953125 C 291.109375 9.574219 290.867188 10.628906 290.867188 10.695313 C 290.867188 10.765625 290.9375 10.851563 291.054688 10.851563 C 291.195313 10.851563 291.210938 10.835938 291.316406 10.4375 C 291.574219 9.417969 291.902344 8.398438 292.59375 8.398438 C 292.992188 8.398438 293.128906 8.675781 293.128906 9.191406 C 293.128906 9.574219 292.957031 10.246094 292.835938 10.78125 L 292.351563 12.648438 C 292.28125 12.976563 292.09375 13.753906 292.007813 14.0625 C 291.886719 14.511719 291.695313 15.324219 291.695313 15.410156 C 291.695313 15.652344 291.886719 15.84375 292.144531 15.84375 C 292.351563 15.84375 292.59375 15.738281 292.730469 15.480469 C 292.765625 15.394531 292.921875 14.789063 293.007813 14.441406 L 293.386719 12.890625 L 293.957031 10.609375 "
       style=" stroke:none;fill-rule:nonzero;fill:rgb(0%,0%,100%);fill-opacity:1;" />
    <path
       id="path44"
       transform="matrix(0.1,0,0,-0.1,0,134.57)"
       d="M 142.8125 742.575 L 199.53125 742.575 M 653.046875 742.575 L 1149.140625 742.575 M 1404.257813 742.575 L 2127.109375 742.575 M 2127.109375 912.653125 L 2742.773438 912.653125 "
       style="fill:none;stroke-width:15.9404;stroke-linecap:round;stroke-linejoin:miter;stroke:rgb(0%,0%,0%);stroke-opacity:1;stroke-miterlimit:10;" />
  </g>
</svg>
