<?xml version="1.0" encoding="UTF-8" standalone="no"?>
<svg
   xmlns:dc="http://purl.org/dc/elements/1.1/"
   xmlns:cc="http://creativecommons.org/ns#"
   xmlns:rdf="http://www.w3.org/1999/02/22-rdf-syntax-ns#"
   xmlns:svg="http://www.w3.org/2000/svg"
   xmlns="http://www.w3.org/2000/svg"
   id="svg57"
   version="1.2"
   viewBox="0 0 243.07 238.82"
   height="238.82pt"
   width="243.07pt">
  <metadata
     id="metadata63">
    <rdf:RDF>
      <cc:Work
         rdf:about="">
        <dc:format>image/svg+xml</dc:format>
        <dc:type
           rdf:resource="http://purl.org/dc/dcmitype/StillImage" />
      </cc:Work>
    </rdf:RDF>
  </metadata>
  <defs
     id="defs61" />
  <g
     id="surface1">
    <path
       id="path2"
       d="M 30.6875 117.722656 C 28.976563 117.34375 28.925781 116.097656 28.925781 115.855469 C 28.925781 114.976563 29.496094 113.957031 31.171875 113.957031 C 32.84375 113.957031 34.347656 114.769531 34.710938 117.03125 C 34.761719 117.394531 34.761719 117.410156 35.089844 117.410156 C 35.453125 117.410156 35.453125 117.359375 35.453125 116.960938 L 35.453125 113.714844 C 35.453125 113.386719 35.453125 113.265625 35.195313 113.265625 C 35.074219 113.265625 35.019531 113.28125 34.867188 113.457031 L 34.125 114.304688 C 33.691406 113.9375 32.828125 113.265625 31.152344 113.265625 C 28.683594 113.265625 27.371094 114.820313 27.371094 116.703125 C 27.371094 117.859375 27.992188 118.671875 28.234375 118.914063 C 29.132813 119.8125 29.617188 119.914063 31.414063 120.3125 C 33.140625 120.691406 33.34375 120.726563 33.726563 121.089844 C 33.949219 121.3125 34.453125 121.796875 34.453125 122.679688 C 34.453125 123.421875 34.089844 124.785156 32.15625 124.785156 C 30.632813 124.785156 28.234375 124.265625 28.09375 121.746094 C 28.078125 121.433594 28.078125 121.382813 27.734375 121.382813 C 27.371094 121.382813 27.371094 121.433594 27.371094 121.832031 L 27.371094 125.078125 C 27.371094 125.40625 27.371094 125.527344 27.628906 125.527344 C 27.75 125.527344 27.765625 125.511719 27.941406 125.355469 C 28.132813 125.164063 28.285156 124.941406 28.71875 124.507813 C 29.71875 125.304688 31.136719 125.527344 32.171875 125.527344 C 34.867188 125.527344 36.003906 123.695313 36.003906 121.867188 C 36.003906 120.242188 34.933594 118.6875 33.050781 118.257813 L 30.6875 117.722656 "
       style=" stroke:none;fill-rule:nonzero;fill:rgb(0%,0%,0%);fill-opacity:1;" />
    <path
       id="path4"
       d="M 44.90625 121.503906 C 45.304688 121.503906 45.40625 121.503906 45.40625 121.070313 C 45.40625 120.554688 45.285156 119.257813 44.492188 118.445313 C 43.765625 117.722656 42.796875 117.496094 41.796875 117.496094 C 39.101563 117.496094 37.636719 119.257813 37.636719 121.433594 C 37.636719 123.851563 39.414063 125.421875 42.023438 125.421875 C 44.628906 125.421875 45.40625 123.59375 45.40625 123.300781 C 45.40625 123.039063 45.148438 123.039063 45.042969 123.039063 C 44.765625 123.039063 44.75 123.09375 44.648438 123.316406 C 44.199219 124.4375 43.058594 124.800781 42.230469 124.800781 C 39.726563 124.800781 39.707031 122.46875 39.707031 121.503906 Z M 39.707031 121.003906 C 39.742188 120.296875 39.757813 119.621094 40.121094 119 C 40.449219 118.445313 41.054688 118.066406 41.796875 118.066406 C 43.644531 118.066406 43.800781 120.140625 43.816406 121.003906 L 39.707031 121.003906 "
       style=" stroke:none;fill-rule:nonzero;fill:rgb(0%,0%,0%);fill-opacity:1;" />
    <path
       id="path6"
       d="M 14.1875 122.117188 C 14.414063 123.085938 15.242188 123.292969 15.65625 123.292969 C 16.210938 123.292969 16.625 122.929688 16.898438 122.34375 C 17.195313 121.722656 17.417969 120.703125 17.417969 120.652344 C 17.417969 120.5625 17.347656 120.496094 17.246094 120.496094 C 17.089844 120.496094 17.074219 120.582031 17.003906 120.839844 C 16.691406 122.03125 16.382813 122.945313 15.691406 122.945313 C 15.171875 122.945313 15.171875 122.378906 15.171875 122.152344 C 15.171875 121.757813 15.226563 121.582031 15.398438 120.855469 C 15.519531 120.390625 15.640625 119.925781 15.742188 119.441406 L 16.453125 116.625 C 16.570313 116.195313 16.570313 116.160156 16.570313 116.109375 C 16.570313 115.851563 16.363281 115.675781 16.105469 115.675781 C 15.605469 115.675781 15.484375 116.109375 15.378906 116.539063 C 15.207031 117.214844 14.273438 120.925781 14.15625 121.53125 C 14.136719 121.53125 13.464844 122.945313 12.203125 122.945313 C 11.304688 122.945313 11.132813 122.171875 11.132813 121.53125 C 11.132813 120.546875 11.617188 119.164063 12.0625 118.007813 C 12.273438 117.457031 12.359375 117.230469 12.359375 116.886719 C 12.359375 116.144531 11.824219 115.503906 10.992188 115.503906 C 9.40625 115.503906 8.765625 118.007813 8.765625 118.148438 C 8.765625 118.214844 8.835938 118.300781 8.957031 118.300781 C 9.109375 118.300781 9.128906 118.230469 9.199219 117.988281 C 9.613281 116.507813 10.285156 115.851563 10.941406 115.851563 C 11.117188 115.851563 11.390625 115.867188 11.390625 116.421875 C 11.390625 116.867188 11.203125 117.371094 10.941406 118.027344 C 10.183594 120.082031 10.09375 120.738281 10.09375 121.253906 C 10.09375 123.015625 11.425781 123.292969 12.132813 123.292969 C 13.238281 123.292969 13.84375 122.53125 14.1875 122.117188 "
       style=" stroke:none;fill-rule:nonzero;fill:rgb(0%,0%,100%);fill-opacity:1;" />
    <path
       id="path8"
       d="M 22.765625 116.402344 C 22.765625 115.96875 22.421875 115.691406 22.058594 115.691406 C 21.714844 115.691406 21.351563 115.96875 21.351563 116.402344 C 21.351563 116.835938 21.695313 117.109375 22.058594 117.109375 C 22.40625 117.109375 22.765625 116.835938 22.765625 116.402344 Z M 22.765625 122.410156 C 22.765625 121.980469 22.421875 121.703125 22.058594 121.703125 C 21.714844 121.703125 21.351563 121.980469 21.351563 122.410156 C 21.351563 122.84375 21.695313 123.121094 22.058594 123.121094 C 22.40625 123.121094 22.765625 122.84375 22.765625 122.410156 "
       style=" stroke:none;fill-rule:nonzero;fill:rgb(0%,0%,100%);fill-opacity:1;" />
    <path
       id="path10"
       d="M 122.273438 114.09375 C 122.273438 113.59375 122.242188 113.59375 121.6875 113.59375 C 120.410156 114.695313 118.492188 114.695313 118.113281 114.695313 L 117.785156 114.695313 L 117.785156 115.4375 L 118.113281 115.4375 C 118.71875 115.4375 119.632813 115.335938 120.324219 115.109375 L 120.324219 124.179688 L 117.921875 124.179688 L 117.921875 124.921875 C 118.648438 124.886719 120.464844 124.886719 121.273438 124.886719 C 122.085938 124.886719 123.914063 124.886719 124.640625 124.921875 L 124.640625 124.179688 L 122.273438 124.179688 L 122.273438 114.09375 "
       style=" stroke:none;fill-rule:nonzero;fill:rgb(0%,0%,0%);fill-opacity:1;" />
    <path
       id="path12"
       d="M 135.6875 141.953125 C 135.6875 141.863281 135.617188 141.796875 135.515625 141.796875 C 135.359375 141.796875 135.34375 141.847656 135.257813 142.140625 C 134.804688 143.710938 134.097656 144.246094 133.527344 144.246094 C 133.320313 144.246094 133.078125 144.195313 133.078125 143.679688 C 133.078125 143.210938 133.289063 142.695313 133.476563 142.175781 L 134.6875 138.960938 C 134.738281 138.824219 134.859375 138.515625 134.859375 138.1875 C 134.859375 137.460938 134.339844 136.804688 133.492188 136.804688 C 131.90625 136.804688 131.265625 139.308594 131.265625 139.445313 C 131.265625 139.515625 131.335938 139.601563 131.457031 139.601563 C 131.609375 139.601563 131.628906 139.53125 131.699219 139.289063 C 132.113281 137.839844 132.769531 137.148438 133.441406 137.148438 C 133.597656 137.148438 133.890625 137.167969 133.890625 137.71875 C 133.890625 138.167969 133.667969 138.738281 133.527344 139.117188 L 132.320313 142.332031 C 132.214844 142.605469 132.113281 142.882813 132.113281 143.195313 C 132.113281 143.972656 132.648438 144.59375 133.476563 144.59375 C 135.066406 144.59375 135.6875 142.070313 135.6875 141.953125 Z M 135.546875 133.644531 C 135.546875 133.386719 135.34375 133.074219 134.964844 133.074219 C 134.5625 133.074219 134.117188 133.453125 134.117188 133.902344 C 134.117188 134.335938 134.476563 134.472656 134.6875 134.472656 C 135.152344 134.472656 135.546875 134.023438 135.546875 133.644531 "
       style=" stroke:none;fill-rule:nonzero;fill:rgb(0%,0%,100%);fill-opacity:1;" />
    <path
       id="path14"
       d="M 127.035156 28.714844 C 127.035156 28.316406 127.035156 28.265625 126.65625 28.265625 L 125.359375 29.507813 C 124.390625 28.679688 123.234375 28.265625 121.957031 28.265625 C 117.828125 28.265625 115.171875 30.769531 115.171875 34.398438 C 115.171875 37.953125 117.742188 40.527344 121.976563 40.527344 C 125.046875 40.527344 127.035156 38.421875 127.035156 36.382813 C 127.035156 36.089844 126.929688 36.070313 126.671875 36.070313 C 126.5 36.070313 126.328125 36.070313 126.308594 36.261719 C 126.15625 38.886719 123.925781 39.785156 122.371094 39.785156 C 121.25 39.785156 119.730469 39.472656 118.761719 38.386719 C 118.15625 37.730469 117.605469 36.777344 117.605469 34.398438 C 117.605469 32.703125 117.863281 31.441406 118.675781 30.476563 C 119.78125 29.179688 121.507813 29.007813 122.339844 29.007813 C 123.632813 29.007813 125.722656 29.734375 126.242188 32.773438 C 126.273438 32.929688 126.429688 32.929688 126.636719 32.929688 C 127.035156 32.929688 127.035156 32.894531 127.035156 32.480469 L 127.035156 28.714844 "
       style=" stroke:none;fill-rule:nonzero;fill:rgb(0%,0%,0%);fill-opacity:1;" />
    <path
       id="path16"
       d="M 127.398438 8.019531 C 127.398438 7.863281 127.28125 7.863281 127.246094 7.863281 C 127.210938 7.863281 127.140625 7.863281 127.003906 8.035156 L 125.8125 9.484375 C 125.207031 8.449219 124.257813 7.863281 122.964844 7.863281 C 119.230469 7.863281 115.363281 11.644531 115.363281 15.703125 C 115.363281 18.585938 117.382813 20.382813 119.90625 20.382813 C 121.289063 20.382813 122.496094 19.796875 123.496094 18.949219 C 125 17.6875 125.449219 16.015625 125.449219 15.875 C 125.449219 15.71875 125.3125 15.71875 125.257813 15.71875 C 125.101563 15.71875 125.085938 15.824219 125.050781 15.890625 C 124.257813 18.585938 121.925781 19.882813 120.199219 19.882813 C 118.367188 19.882813 116.78125 18.707031 116.78125 16.257813 C 116.78125 15.703125 116.953125 12.699219 118.902344 10.4375 C 119.851563 9.332031 121.476563 8.363281 123.117188 8.363281 C 125.015625 8.363281 125.863281 9.933594 125.863281 11.695313 C 125.863281 12.144531 125.8125 12.523438 125.8125 12.59375 C 125.8125 12.75 125.984375 12.75 126.035156 12.75 C 126.226563 12.75 126.242188 12.730469 126.3125 12.421875 L 127.398438 8.019531 "
       style=" stroke:none;fill-rule:nonzero;fill:rgb(0%,0%,100%);fill-opacity:1;" />
    <path
       id="path18"
       d="M 118.082031 23.453125 C 117.648438 23.453125 117.371094 23.796875 117.371094 24.160156 C 117.371094 24.507813 117.648438 24.871094 118.082031 24.871094 C 118.515625 24.871094 118.789063 24.523438 118.789063 24.160156 C 118.789063 23.816406 118.515625 23.453125 118.082031 23.453125 Z M 124.09375 23.453125 C 123.660156 23.453125 123.382813 23.796875 123.382813 24.160156 C 123.382813 24.507813 123.660156 24.871094 124.09375 24.871094 C 124.523438 24.871094 124.800781 24.523438 124.800781 24.160156 C 124.800781 23.816406 124.523438 23.453125 124.09375 23.453125 "
       style=" stroke:none;fill-rule:nonzero;fill:rgb(0%,0%,100%);fill-opacity:1;" />
    <path
       id="path20"
       d="M 208.136719 119.449219 C 210.46875 118.824219 211.039063 117.585938 211.039063 116.652344 C 211.039063 114.921875 209.222656 113.472656 206.027344 113.472656 L 199.65625 113.472656 L 199.65625 114.214844 L 201.488281 114.214844 L 201.488281 124.578125 L 199.65625 124.578125 L 199.65625 125.320313 C 200.15625 125.285156 201.953125 125.285156 202.574219 125.285156 C 203.195313 125.285156 205.007813 125.285156 205.511719 125.320313 L 205.511719 124.578125 L 203.679688 124.578125 L 203.679688 119.671875 L 205.734375 119.671875 C 206.425781 119.671875 206.976563 119.878906 207.359375 120.328125 C 207.878906 120.917969 207.878906 121.296875 207.878906 122.453125 C 207.878906 123.609375 207.878906 124.316406 208.757813 124.90625 C 209.65625 125.511719 211.070313 125.527344 211.453125 125.527344 C 213.214844 125.527344 213.421875 123.972656 213.421875 123.730469 C 213.421875 123.4375 213.28125 123.386719 213.058594 123.386719 C 212.730469 123.386719 212.714844 123.507813 212.695313 123.730469 C 212.609375 124.59375 212.074219 124.957031 211.589844 124.957031 C 210.484375 124.957031 210.363281 123.800781 210.226563 122.210938 C 210.121094 121.296875 210 120.019531 208.136719 119.449219 Z M 205.699219 119.101563 L 203.679688 119.101563 L 203.679688 114.214844 L 205.734375 114.214844 C 208.550781 114.214844 208.601563 115.632813 208.601563 116.652344 C 208.601563 117.601563 208.585938 119.101563 205.699219 119.101563 "
       style=" stroke:none;fill-rule:nonzero;fill:rgb(0%,0%,0%);fill-opacity:1;" />
    <path
       id="path22"
       d="M 228.15625 114.699219 C 228.3125 114.0625 228.378906 114.027344 229.054688 114.027344 L 230.296875 114.027344 C 231.78125 114.027344 232.886719 114.476563 232.886719 115.820313 C 232.886719 116.703125 232.4375 119.242188 228.96875 119.242188 L 227.015625 119.242188 Z M 230.554688 119.449219 C 232.695313 118.980469 234.371094 117.601563 234.371094 116.113281 C 234.371094 114.769531 233.007813 113.523438 230.609375 113.523438 L 225.929688 113.523438 C 225.582031 113.523438 225.425781 113.523438 225.425781 113.851563 C 225.425781 114.027344 225.546875 114.027344 225.875 114.027344 C 226.914063 114.027344 226.914063 114.164063 226.914063 114.355469 C 226.914063 114.390625 226.914063 114.492188 226.84375 114.75 L 224.511719 124.042969 C 224.355469 124.648438 224.320313 124.816406 223.128906 124.816406 C 222.734375 124.816406 222.609375 124.816406 222.609375 125.148438 C 222.609375 125.320313 222.800781 125.320313 222.851563 125.320313 C 223.164063 125.320313 223.527344 125.285156 223.855469 125.285156 L 225.890625 125.285156 C 226.203125 125.285156 226.566406 125.320313 226.878906 125.320313 C 227.015625 125.320313 227.203125 125.320313 227.203125 124.992188 C 227.203125 124.816406 227.050781 124.816406 226.789063 124.816406 C 225.738281 124.816406 225.738281 124.679688 225.738281 124.507813 C 225.738281 124.488281 225.738281 124.371094 225.773438 124.230469 L 226.929688 119.585938 L 229.003906 119.585938 C 230.640625 119.585938 230.953125 120.621094 230.953125 121.191406 C 230.953125 121.449219 230.78125 122.125 230.660156 122.574219 C 230.46875 123.367188 230.417969 123.558594 230.417969 123.886719 C 230.417969 125.113281 231.417969 125.683594 232.578125 125.683594 C 233.976563 125.683594 234.578125 123.972656 234.578125 123.730469 C 234.578125 123.609375 234.492188 123.558594 234.390625 123.558594 C 234.253906 123.558594 234.21875 123.660156 234.183594 123.800781 C 233.765625 125.027344 233.058594 125.335938 232.628906 125.335938 C 232.195313 125.335938 231.921875 125.148438 231.921875 124.371094 C 231.921875 123.957031 232.128906 122.382813 232.144531 122.296875 C 232.230469 121.660156 232.230469 121.589844 232.230469 121.449219 C 232.230469 120.191406 231.214844 119.65625 230.554688 119.449219 "
       style=" stroke:none;fill-rule:nonzero;fill:rgb(0%,0%,100%);fill-opacity:1;" />
    <path
       id="path24"
       d="M 218.367188 116.402344 C 218.367188 115.96875 218.023438 115.691406 217.660156 115.691406 C 217.3125 115.691406 216.949219 115.96875 216.949219 116.402344 C 216.949219 116.835938 217.296875 117.109375 217.660156 117.109375 C 218.003906 117.109375 218.367188 116.835938 218.367188 116.402344 Z M 218.367188 122.410156 C 218.367188 121.980469 218.023438 121.703125 217.660156 121.703125 C 217.3125 121.703125 216.949219 121.980469 216.949219 122.410156 C 216.949219 122.84375 217.296875 123.121094 217.660156 123.121094 C 218.003906 123.121094 218.367188 122.84375 218.367188 122.410156 "
       style=" stroke:none;fill-rule:nonzero;fill:rgb(0%,0%,100%);fill-opacity:1;" />
    <path
       id="path26"
       d="M 122.246094 199.214844 L 124.183594 199.214844 L 124.183594 198.472656 C 123.5625 198.507813 121.835938 198.507813 121.109375 198.507813 C 120.382813 198.507813 118.65625 198.507813 118.035156 198.472656 L 118.035156 199.214844 L 119.96875 199.214844 L 119.96875 209.578125 L 118.035156 209.578125 L 118.035156 210.320313 C 118.65625 210.285156 120.382813 210.285156 121.109375 210.285156 C 121.835938 210.285156 123.5625 210.285156 124.183594 210.320313 L 124.183594 209.578125 L 122.246094 209.578125 L 122.246094 199.214844 "
       style=" stroke:none;fill-rule:nonzero;fill:rgb(0%,0%,0%);fill-opacity:1;" />
    <path
       id="path28"
       d="M 121.738281 220.054688 C 121.894531 219.398438 121.945313 219.226563 123.464844 219.226563 C 123.929688 219.226563 124.050781 219.226563 124.050781 218.898438 C 124.050781 218.726563 123.863281 218.726563 123.792969 218.726563 C 123.445313 218.726563 123.050781 218.757813 122.703125 218.757813 L 120.390625 218.757813 C 120.0625 218.757813 119.683594 218.726563 119.355469 218.726563 C 119.21875 218.726563 119.027344 218.726563 119.027344 219.054688 C 119.027344 219.226563 119.179688 219.226563 119.441406 219.226563 C 120.492188 219.226563 120.492188 219.363281 120.492188 219.554688 C 120.492188 219.589844 120.492188 219.691406 120.425781 219.953125 L 118.09375 229.242188 C 117.9375 229.847656 117.90625 230.019531 116.695313 230.019531 C 116.367188 230.019531 116.195313 230.019531 116.195313 230.328125 C 116.195313 230.519531 116.296875 230.519531 116.644531 230.519531 L 124.378906 230.519531 C 124.757813 230.519531 124.777344 230.503906 124.898438 230.191406 L 126.226563 226.515625 C 126.261719 226.429688 126.296875 226.324219 126.296875 226.273438 C 126.296875 226.167969 126.210938 226.101563 126.125 226.101563 C 126.105469 226.101563 126.019531 226.101563 125.984375 226.167969 C 125.953125 226.1875 125.953125 226.21875 125.8125 226.546875 C 125.261719 228.070313 124.484375 230.019531 121.566406 230.019531 L 119.90625 230.019531 C 119.664063 230.019531 119.632813 230.019531 119.527344 230 C 119.339844 229.984375 119.320313 229.949219 119.320313 229.8125 C 119.320313 229.691406 119.355469 229.585938 119.390625 229.433594 L 121.738281 220.054688 "
       style=" stroke:none;fill-rule:nonzero;fill:rgb(0%,0%,100%);fill-opacity:1;" />
    <path
       id="path30"
       d="M 124.117188 215.386719 C 124.550781 215.386719 124.828125 215.042969 124.828125 214.679688 C 124.828125 214.335938 124.550781 213.96875 124.117188 213.96875 C 123.6875 213.96875 123.410156 214.316406 123.410156 214.679688 C 123.410156 215.023438 123.6875 215.386719 124.117188 215.386719 Z M 118.109375 215.386719 C 118.539063 215.386719 118.816406 215.042969 118.816406 214.679688 C 118.816406 214.335938 118.539063 213.96875 118.109375 213.96875 C 117.675781 213.96875 117.398438 214.316406 117.398438 214.679688 C 117.398438 215.023438 117.675781 215.386719 118.109375 215.386719 "
       style=" stroke:none;fill-rule:nonzero;fill:rgb(0%,0%,100%);fill-opacity:1;" />
    <path
       id="path32"
       transform="matrix(0.1,0,0,-0.1,0,238.82)"
       d="M 511.71875 1194.1375 L 1056.367188 1194.1375 "
       style="fill:none;stroke-width:15.9404;stroke-linecap:butt;stroke-linejoin:miter;stroke:rgb(0%,0%,0%);stroke-opacity:1;stroke-miterlimit:10;" />
    <path
       id="path34"
       transform="matrix(0.1,0,0,-0.1,0,238.82)"
       d="M 1056.367188 1194.1375 L 1072.304688 1194.1375 L 1003.59375 1136.48125 "
       style="fill:none;stroke-width:15.9404;stroke-linecap:butt;stroke-linejoin:miter;stroke:rgb(0%,0%,0%);stroke-opacity:1;stroke-miterlimit:10;" />
    <path
       id="path36"
       transform="matrix(0.1,0,0,-0.1,0,238.82)"
       d="M 1102.148438 1257.8875 L 1102.148438 1130.3875 "
       style="fill:none;stroke-width:15.9404;stroke-linecap:butt;stroke-linejoin:miter;stroke:rgb(0%,0%,0%);stroke-opacity:1;stroke-miterlimit:10;" />
    <path
       id="path38"
       transform="matrix(0.1,0,0,-0.1,0,238.82)"
       d="M 1211.367188 1314.371875 L 1211.367188 1894.840625 "
       style="fill:none;stroke-width:15.9404;stroke-linecap:butt;stroke-linejoin:miter;stroke:rgb(0%,0%,0%);stroke-opacity:1;stroke-miterlimit:10;" />
    <path
       id="path40"
       transform="matrix(0.1,0,0,-0.1,0,238.82)"
       d="M 1275.117188 1310.3875 L 1147.578125 1310.3875 "
       style="fill:none;stroke-width:15.9404;stroke-linecap:butt;stroke-linejoin:miter;stroke:rgb(0%,0%,0%);stroke-opacity:1;stroke-miterlimit:10;" />
    <path
       id="path42"
       transform="matrix(0.1,0,0,-0.1,0,238.82)"
       d="M 1211.367188 1894.840625 L 1211.367188 1910.778125 L 1269.023438 1842.067188 "
       style="fill:none;stroke-width:15.9404;stroke-linecap:butt;stroke-linejoin:miter;stroke:rgb(0%,0%,0%);stroke-opacity:1;stroke-miterlimit:10;" />
    <path
       id="path44"
       transform="matrix(0.1,0,0,-0.1,0,238.82)"
       d="M 1324.53125 1194.1375 L 1898.867188 1194.1375 "
       style="fill:none;stroke-width:15.9404;stroke-linecap:butt;stroke-linejoin:miter;stroke:rgb(0%,0%,0%);stroke-opacity:1;stroke-miterlimit:10;" />
    <path
       id="path46"
       transform="matrix(0.1,0,0,-0.1,0,238.82)"
       d="M 1320.546875 1130.3875 L 1320.546875 1257.8875 "
       style="fill:none;stroke-width:15.9404;stroke-linecap:butt;stroke-linejoin:miter;stroke:rgb(0%,0%,0%);stroke-opacity:1;stroke-miterlimit:10;" />
    <path
       id="path48"
       transform="matrix(0.1,0,0,-0.1,0,238.82)"
       d="M 1898.867188 1194.1375 L 1914.804688 1194.1375 L 1846.09375 1136.48125 "
       style="fill:none;stroke-width:15.9404;stroke-linecap:butt;stroke-linejoin:miter;stroke:rgb(0%,0%,0%);stroke-opacity:1;stroke-miterlimit:10;" />
    <path
       id="path50"
       transform="matrix(0.1,0,0,-0.1,0,238.82)"
       d="M 1211.367188 1085.85625 L 1211.367188 509.371875 "
       style="fill:none;stroke-width:15.9404;stroke-linecap:butt;stroke-linejoin:miter;stroke:rgb(0%,0%,0%);stroke-opacity:1;stroke-miterlimit:10;" />
    <path
       id="path52"
       transform="matrix(0.1,0,0,-0.1,0,238.82)"
       d="M 1211.367188 509.371875 L 1211.367188 493.434375 L 1269.023438 562.145313 "
       style="fill:none;stroke-width:15.9404;stroke-linecap:butt;stroke-linejoin:miter;stroke:rgb(0%,0%,0%);stroke-opacity:1;stroke-miterlimit:10;" />
    <path
       id="path54"
       transform="matrix(0.1,0,0,-0.1,0,238.82)"
       d="M 1275.117188 463.551563 L 1147.578125 463.551563 "
       style="fill:none;stroke-width:15.9404;stroke-linecap:butt;stroke-linejoin:miter;stroke:rgb(0%,0%,0%);stroke-opacity:1;stroke-miterlimit:10;" />
  </g>
</svg>
