<?xml version="1.0" encoding="UTF-8" standalone="no"?>
<svg
   xmlns:dc="http://purl.org/dc/elements/1.1/"
   xmlns:cc="http://creativecommons.org/ns#"
   xmlns:rdf="http://www.w3.org/1999/02/22-rdf-syntax-ns#"
   xmlns:svg="http://www.w3.org/2000/svg"
   xmlns="http://www.w3.org/2000/svg"
   viewBox="0 0 254.30667 254.53333"
   height="254.53333"
   width="254.30667"
   xml:space="preserve"
   id="svg2"
   version="1.1"><metadata
     id="metadata8"><rdf:RDF><cc:Work
         rdf:about=""><dc:format>image/svg+xml</dc:format><dc:type
           rdf:resource="http://purl.org/dc/dcmitype/StillImage" /></cc:Work></rdf:RDF></metadata><defs
     id="defs6" /><g
     transform="matrix(1.3333333,0,0,-1.3333333,0,254.53333)"
     id="g10"><g
       transform="scale(0.1)"
       id="g12"><path
         id="path14"
         style="fill:none;stroke:#000000;stroke-width:15.9404;stroke-linecap:butt;stroke-linejoin:miter;stroke-miterlimit:10;stroke-dasharray:none;stroke-opacity:1"
         d="m 398.176,1100.2 c -62.625,0 -113.391,-50.77 -113.391,-113.391 0,-62.621 50.766,-113.387 113.391,-113.387 62.621,0 113.387,50.766 113.387,113.387 0,62.621 -50.766,113.391 -113.387,113.391 z" /><path
         id="path16"
         style="fill:none;stroke:#000000;stroke-width:15.9404;stroke-linecap:butt;stroke-linejoin:miter;stroke-miterlimit:10;stroke-dasharray:none;stroke-opacity:1"
         d="M 398.176,873.422 V 1100.2" /><path
         id="path18"
         style="fill:none;stroke:#000000;stroke-width:15.9404;stroke-linecap:butt;stroke-linejoin:miter;stroke-miterlimit:10;stroke-dasharray:none;stroke-opacity:1"
         d="M 239.023,870.145 V 1128.54" /><path
         id="path20"
         style="fill:#000000;fill-opacity:1;fill-rule:nonzero;stroke:none"
         d="M 258.211,895.211 239.023,845.078 219.84,895.211" /><path
         id="path22"
         style="fill:none;stroke:#000000;stroke-width:15.9404;stroke-linecap:butt;stroke-linejoin:round;stroke-miterlimit:10;stroke-dasharray:none;stroke-opacity:1"
         d="M 258.211,895.211 239.023,845.078 219.84,895.211 Z" /><path
         id="path24"
         style="fill:#0000ff;fill-opacity:1;fill-rule:nonzero;stroke:none"
         d="m 141.891,960.016 c 2.25,-9.672 10.531,-11.75 14.672,-11.75 5.531,0 9.671,3.64 12.437,9.5 2.938,6.218 5.188,16.406 5.188,16.922 0,0.875 -0.704,1.562 -1.735,1.562 -1.547,0 -1.719,-0.859 -2.422,-3.453 -3.109,-11.922 -6.203,-21.063 -13.125,-21.063 -5.172,0 -5.172,5.688 -5.172,7.938 0,3.969 0.516,5.703 2.25,12.953 1.204,4.656 2.407,9.328 3.454,14.156 l 7.078,28.159 c 1.203,4.31 1.203,4.65 1.203,5.17 0,2.59 -2.078,4.33 -4.656,4.33 -5.016,0 -6.219,-4.33 -7.266,-8.64 -1.719,-6.74 -11.047,-43.862 -12.25,-49.909 -0.172,0 -6.906,-14.157 -19.516,-14.157 -8.984,0 -10.703,7.766 -10.703,14.157 0,9.843 4.828,23.656 9.313,35.239 2.078,5.51 2.937,7.76 2.937,11.21 0,7.43 -5.344,13.82 -13.64,13.82 -15.8911,0 -22.2817,-25.03 -22.2817,-26.426 0,-0.687 0.7031,-1.546 1.9062,-1.546 1.5469,0 1.7344,0.687 2.4219,3.112 4.1406,14.84 10.8746,21.4 17.4376,21.4 1.734,0 4.484,-0.17 4.484,-5.7 0,-4.48 -1.89,-9.5 -4.484,-16.06 -7.594,-20.549 -8.469,-27.112 -8.469,-32.284 0,-17.625 13.297,-20.39 20.391,-20.39 11.047,0 17.094,7.609 20.547,11.75" /><path
         id="path26"
         style="fill:none;stroke:#000000;stroke-width:15.9404;stroke-linecap:round;stroke-linejoin:miter;stroke-miterlimit:10;stroke-dasharray:none;stroke-opacity:1"
         d="m 738.336,1553.75 c 0,31.31 25.383,56.69 56.695,56.69 31.309,0 56.692,-25.38 56.692,-56.69 0,31.31 25.382,56.69 56.695,56.69 31.309,0 56.691,-25.38 56.691,-56.69 0,31.31 25.383,56.69 56.691,56.69 31.32,0 56.7,-25.38 56.7,-56.69 0,31.31 25.38,56.69 56.69,56.69 31.31,0 56.69,-25.38 56.69,-56.69 h 0.01" /><path
         id="path28"
         style="fill:none;stroke:#000000;stroke-width:15.9404;stroke-linecap:butt;stroke-linejoin:miter;stroke-miterlimit:10;stroke-dasharray:none;stroke-opacity:1"
         d="M 823.379,1648.23 H 1081.78" /><path
         id="path30"
         style="fill:#000000;fill-opacity:1;fill-rule:nonzero;stroke:none"
         d="m 1056.71,1667.42 50.13,-19.19 -50.13,-19.19" /><path
         id="path32"
         style="fill:none;stroke:#000000;stroke-width:15.9404;stroke-linecap:butt;stroke-linejoin:round;stroke-miterlimit:10;stroke-dasharray:none;stroke-opacity:1"
         d="m 1056.71,1667.42 50.13,-19.19 -50.13,-19.19 z" /><path
         id="path34"
         style="fill:#0000ff;fill-opacity:1;fill-rule:nonzero;stroke:none"
         d="m 971.375,1812.66 c 1.563,6.56 2.078,8.28 17.266,8.28 4.672,0 5.875,0 5.875,3.28 0,1.73 -1.891,1.73 -2.594,1.73 -3.453,0 -7.422,-0.34 -10.875,-0.34 h -23.141 c -3.281,0 -7.078,0.34 -10.359,0.34 -1.375,0 -3.281,0 -3.281,-3.28 0,-1.73 1.547,-1.73 4.14,-1.73 10.532,0 10.532,-1.38 10.532,-3.28 0,-0.35 0,-1.38 -0.688,-3.97 l -23.312,-92.91 c -1.547,-6.05 -1.891,-7.76 -13.985,-7.76 -3.281,0 -5.015,0 -5.015,-3.11 0,-1.91 1.046,-1.91 4.5,-1.91 h 77.359 c 3.793,0 3.973,0.17 5.183,3.28 l 13.3,36.78 c 0.35,0.86 0.69,1.91 0.69,2.42 0,1.04 -0.86,1.72 -1.72,1.72 -0.19,0 -1.05,0 -1.39,-0.68 -0.34,-0.18 -0.34,-0.52 -1.72,-3.8 -5.53,-15.2 -13.296,-34.7 -42.484,-34.7 h -16.578 c -2.422,0 -2.765,0 -3.797,0.17 -1.906,0.17 -2.078,0.51 -2.078,1.89 0,1.22 0.344,2.25 0.688,3.8 l 23.484,93.78" /><path
         id="path36"
         style="fill:none;stroke:#000000;stroke-width:15.9404;stroke-linecap:butt;stroke-linejoin:miter;stroke-miterlimit:10;stroke-dasharray:none;stroke-opacity:1"
         d="m 1475.36,760.027 h 113.387 v 453.551 H 1475.36 Z" /><path
         id="path38"
         style="fill:none;stroke:#000000;stroke-width:15.9404;stroke-linecap:butt;stroke-linejoin:miter;stroke-miterlimit:10;stroke-dasharray:none;stroke-opacity:1"
         d="M 1634.5,1128.54 V 870.137" /><path
         id="path40"
         style="fill:#000000;fill-opacity:1;fill-rule:nonzero;stroke:none"
         d="m 1653.69,895.207 -19.19,-50.137 -19.18,50.137" /><path
         id="path42"
         style="fill:none;stroke:#000000;stroke-width:15.9404;stroke-linecap:butt;stroke-linejoin:round;stroke-miterlimit:10;stroke-dasharray:none;stroke-opacity:1"
         d="m 1653.69,895.207 -19.19,-50.137 -19.18,50.137 z" /><path
         id="path44"
         style="fill:#0000ff;fill-opacity:1;fill-rule:nonzero;stroke:none"
         d="m 1758.55,1034.2 c 1.56,6.39 2.25,6.74 8.98,6.74 h 12.44 c 14.84,0 25.91,-4.49 25.91,-17.96 0,-8.81 -4.5,-34.199 -39.21,-34.199 h -19.51 z m 24.01,-47.481 c 21.41,4.656 38.16,18.471 38.16,33.331 0,13.47 -13.64,25.9 -37.64,25.9 h -46.8 c -3.47,0 -5.01,0 -5.01,-3.28 0,-1.73 1.2,-1.73 4.48,-1.73 10.38,0 10.38,-1.38 10.38,-3.28 0,-0.35 0,-1.38 -0.71,-3.97 l -23.31,-92.909 c -1.55,-6.047 -1.89,-7.765 -13.81,-7.765 -3.97,0 -5.19,0 -5.19,-3.282 0,-1.734 1.91,-1.734 2.42,-1.734 3.11,0 6.74,0.344 10.02,0.344 h 20.37 c 3.11,0 6.74,-0.344 9.85,-0.344 1.39,0 3.28,0 3.28,3.281 0,1.735 -1.55,1.735 -4.14,1.735 -10.53,0 -10.53,1.375 -10.53,3.093 0,0.188 0,1.391 0.34,2.766 l 11.58,46.453 h 20.72 c 16.4,0 19.51,-10.359 19.51,-16.047 0,-2.593 -1.73,-9.328 -2.94,-13.828 -1.9,-7.937 -2.42,-9.844 -2.42,-13.125 0,-12.25 10.02,-17.953 21.6,-17.953 13.98,0 20.03,17.094 20.03,19.516 0,1.203 -0.86,1.718 -1.91,1.718 -1.37,0 -1.72,-1.031 -2.06,-2.406 -4.16,-12.265 -11.24,-15.375 -15.55,-15.375 -4.31,0 -7.08,1.906 -7.08,9.672 0,4.141 2.07,19.859 2.24,20.719 0.87,6.39 0.87,7.078 0.87,8.469 0,12.609 -10.18,17.953 -16.75,20.031" /><path
         id="path46"
         style="fill:none;stroke:#000000;stroke-width:15.9404;stroke-linecap:butt;stroke-linejoin:miter;stroke-miterlimit:10;stroke-dasharray:none;stroke-opacity:1"
         d="M 1276.93,533.262 V 306.488 m -56.7,226.774 V 306.488" /><path
         id="path48"
         style="fill:none;stroke:#000000;stroke-width:15.9404;stroke-linecap:butt;stroke-linejoin:miter;stroke-miterlimit:10;stroke-dasharray:none;stroke-opacity:1"
         d="m 1390.31,260.727 h -258.4" /><path
         id="path50"
         style="fill:#000000;fill-opacity:1;fill-rule:nonzero;stroke:none"
         d="m 1156.98,241.539 -50.14,19.188 50.14,19.183" /><path
         id="path52"
         style="fill:none;stroke:#000000;stroke-width:15.9404;stroke-linecap:butt;stroke-linejoin:round;stroke-miterlimit:10;stroke-dasharray:none;stroke-opacity:1"
         d="m 1156.98,241.539 -50.14,19.188 50.14,19.183 z" /><path
         id="path54"
         style="fill:#0000ff;fill-opacity:1;fill-rule:nonzero;stroke:none"
         d="m 1311,203.016 c 0,1.562 -1.2,1.562 -1.55,1.562 -0.34,0 -1.04,0 -2.42,-1.734 l -11.92,-14.5 c -6.05,10.359 -15.53,16.234 -28.48,16.234 -37.32,0 -75.99,-37.828 -75.99,-78.406 0,-28.8439 20.2,-46.797 45.41,-46.797 13.83,0 25.9,5.875 35.92,14.3281 15.03,12.6099 19.51,29.3599 19.51,30.7499 0,1.547 -1.37,1.547 -1.89,1.547 -1.56,0 -1.73,-1.031 -2.07,-1.719 -7.94,-26.9529 -31.25,-39.906 -48.54,-39.906 -18.29,0 -34.18,11.75 -34.18,36.266 0,5.531 1.72,35.578 21.23,58.203 9.5,11.047 25.74,20.719 42.14,20.719 19,0 27.46,-15.704 27.46,-33.329 0,-4.484 -0.52,-8.281 -0.52,-8.968 0,-1.563 1.73,-1.563 2.25,-1.563 1.91,0 2.08,0.172 2.77,3.281 l 10.87,44.032" /><path
         id="path56"
         style="fill:#000000;fill-opacity:1;fill-rule:nonzero;stroke:none"
         d="m 709.988,419.875 c 0,15.656 -12.691,28.344 -28.347,28.344 -15.657,0 -28.344,-12.688 -28.344,-28.344 0,-15.656 12.687,-28.348 28.344,-28.348 15.656,0 28.347,12.692 28.347,28.348 z" /><path
         id="path58"
         style="fill:none;stroke:#000000;stroke-width:15.9404;stroke-linecap:butt;stroke-linejoin:miter;stroke-miterlimit:10;stroke-dasharray:none;stroke-opacity:1"
         d="m 709.988,419.875 c 0,15.656 -12.691,28.344 -28.347,28.344 -15.657,0 -28.344,-12.688 -28.344,-28.344 0,-15.656 12.687,-28.348 28.344,-28.348 15.656,0 28.347,12.692 28.347,28.348 z" /><path
         id="path60"
         style="fill:none;stroke:#000000;stroke-width:15.9404;stroke-linecap:round;stroke-linejoin:miter;stroke-miterlimit:10;stroke-dasharray:none;stroke-opacity:1"
         d="m 398.176,419.875 v 445.578 m 0,242.717 v 445.58 h 340.16 m 453.554,0 h 340.16 v 0 -332.2 m 0,-469.491 V 419.875 h -247.16 m -72.63,0 H 713.973 m -64.664,0 H 398.176 v 0" /><path
         id="path62"
         style="fill:none;stroke:#000000;stroke-width:15.9404;stroke-linecap:round;stroke-linejoin:miter;stroke-miterlimit:10;stroke-dasharray:none;stroke-opacity:1"
         d="M 681.641,387.543 V 186.895" /><path
         id="path64"
         style="fill:none;stroke:#000000;stroke-width:15.9404;stroke-linecap:round;stroke-linejoin:miter;stroke-miterlimit:10;stroke-dasharray:none;stroke-opacity:1"
         d="m 568.254,178.926 h 226.773 m -188.98,-42.52 H 757.234 M 643.84,93.8867 h 75.601" /></g></g></svg>
