<?xml version="1.0" encoding="UTF-8" standalone="no"?>
<svg
   xmlns:dc="http://purl.org/dc/elements/1.1/"
   xmlns:cc="http://creativecommons.org/ns#"
   xmlns:rdf="http://www.w3.org/1999/02/22-rdf-syntax-ns#"
   xmlns:svg="http://www.w3.org/2000/svg"
   xmlns="http://www.w3.org/2000/svg"
   viewBox="0 0 334.51999 333.25333"
   height="333.25333"
   width="334.51999"
   xml:space="preserve"
   id="svg2"
   version="1.1"><metadata
     id="metadata8"><rdf:RDF><cc:Work
         rdf:about=""><dc:format>image/svg+xml</dc:format><dc:type
           rdf:resource="http://purl.org/dc/dcmitype/StillImage" /></cc:Work></rdf:RDF></metadata><defs
     id="defs6" /><g
     transform="matrix(1.3333333,0,0,-1.3333333,0,333.25333)"
     id="g10"><g
       transform="scale(0.1)"
       id="g12"><path
         id="path14"
         style="fill:#000000;fill-opacity:1;fill-rule:nonzero;stroke:none"
         d="m 739.195,2170.92 c 0,15.65 -12.691,28.35 -28.343,28.35 -15.657,0 -28.348,-12.7 -28.348,-28.35 0,-15.65 12.691,-28.35 28.348,-28.35 15.652,0 28.343,12.7 28.343,28.35 z" /><path
         id="path16"
         style="fill:none;stroke:#000000;stroke-width:15.9404;stroke-linecap:butt;stroke-linejoin:miter;stroke-miterlimit:10;stroke-dasharray:none;stroke-opacity:1"
         d="m 739.195,2170.92 c 0,15.65 -12.691,28.35 -28.343,28.35 -15.657,0 -28.348,-12.7 -28.348,-28.35 0,-15.65 12.691,-28.35 28.348,-28.35 15.652,0 28.343,12.7 28.343,28.35 z" /><path
         id="path18"
         style="fill:#0000ff;fill-opacity:1;fill-rule:nonzero;stroke:none"
         d="m 679.891,2280.02 c 2.25,-9.68 10.531,-11.75 14.672,-11.75 5.531,0 9.671,3.64 12.437,9.5 2.938,6.21 5.188,16.4 5.188,16.92 0,0.87 -0.704,1.56 -1.735,1.56 -1.547,0 -1.719,-0.86 -2.422,-3.45 -3.109,-11.92 -6.203,-21.07 -13.125,-21.07 -5.172,0 -5.172,5.69 -5.172,7.94 0,3.97 0.516,5.71 2.25,12.96 1.204,4.65 2.407,9.32 3.454,14.15 l 7.078,28.16 c 1.203,4.31 1.203,4.65 1.203,5.17 0,2.59 -2.078,4.33 -4.656,4.33 -5.016,0 -6.219,-4.33 -7.266,-8.64 -1.719,-6.74 -11.047,-43.86 -12.25,-49.91 -0.172,0 -6.906,-14.16 -19.516,-14.16 -8.984,0 -10.703,7.77 -10.703,14.16 0,9.84 4.828,23.66 9.313,35.24 2.078,5.51 2.937,7.76 2.937,11.21 0,7.43 -5.344,13.82 -13.64,13.82 -15.891,0 -22.282,-25.03 -22.282,-26.43 0,-0.68 0.703,-1.54 1.907,-1.54 1.546,0 1.734,0.69 2.421,3.11 4.141,14.84 10.875,21.4 17.438,21.4 1.734,0 4.484,-0.17 4.484,-5.7 0,-4.48 -1.89,-9.5 -4.484,-16.06 -7.594,-20.55 -8.469,-27.11 -8.469,-32.28 0,-17.63 13.297,-20.39 20.391,-20.39 11.047,0 17.094,7.61 20.547,11.75" /><path
         id="path20"
         style="fill:#0000ff;fill-opacity:1;fill-rule:nonzero;stroke:none"
         d="m 760.75,2316.23 c 1.078,4.54 1.422,5.72 11.922,5.72 3.219,0 4.047,0 4.047,2.27 0,1.2 -1.313,1.2 -1.781,1.2 -2.391,0 -5.125,-0.25 -7.516,-0.25 h -15.969 c -2.265,0 -4.89,0.25 -7.156,0.25 -0.953,0 -2.266,0 -2.266,-2.26 0,-1.21 1.078,-1.21 2.86,-1.21 7.281,0 7.281,-0.95 7.281,-2.26 0,-0.24 0,-0.96 -0.484,-2.74 l -16.094,-64.12 c -1.078,-4.17 -1.313,-5.38 -9.656,-5.38 -2.266,0 -3.454,0 -3.454,-2.14 0,-1.31 0.719,-1.31 3.094,-1.31 h 53.406 c 2.625,0 2.75,0.13 3.579,2.27 l 9.171,25.39 c 0.25,0.59 0.485,1.31 0.485,1.67 0,0.72 -0.594,1.19 -1.188,1.19 -0.125,0 -0.718,0 -0.953,-0.47 -0.25,-0.13 -0.25,-0.36 -1.203,-2.63 -3.812,-10.5 -9.172,-23.97 -29.312,-23.97 h -11.454 c -1.671,0 -1.906,0 -2.625,0.13 -1.312,0.12 -1.421,0.36 -1.421,1.31 0,0.83 0.234,1.55 0.468,2.63 l 16.219,64.71" /><path
         id="path22"
         style="fill:#000000;fill-opacity:1;fill-rule:nonzero;stroke:none"
         d="m 1731.33,2170.92 c 0,15.65 -12.69,28.35 -28.35,28.35 -15.66,0 -28.35,-12.7 -28.35,-28.35 0,-15.65 12.69,-28.35 28.35,-28.35 15.66,0 28.35,12.7 28.35,28.35 z" /><path
         id="path24"
         style="fill:none;stroke:#000000;stroke-width:15.9404;stroke-linecap:butt;stroke-linejoin:miter;stroke-miterlimit:10;stroke-dasharray:none;stroke-opacity:1"
         d="m 1731.33,2170.92 c 0,15.65 -12.69,28.35 -28.35,28.35 -15.66,0 -28.35,-12.7 -28.35,-28.35 0,-15.65 12.69,-28.35 28.35,-28.35 15.66,0 28.35,12.7 28.35,28.35 z" /><path
         id="path26"
         style="fill:#0000ff;fill-opacity:1;fill-rule:nonzero;stroke:none"
         d="m 1680.88,2294.69 c 0,0.87 -0.69,1.56 -1.74,1.56 -1.55,0 -1.72,-0.52 -2.58,-3.45 -4.5,-15.72 -11.58,-21.07 -17.28,-21.07 -2.06,0 -4.48,0.52 -4.48,5.69 0,4.67 2.08,9.85 3.97,15.03 l 12.09,32.13 c 0.52,1.37 1.72,4.48 1.72,7.76 0,7.25 -5.17,13.82 -13.64,13.82 -15.89,0 -22.28,-25.03 -22.28,-26.43 0,-0.68 0.7,-1.54 1.9,-1.54 1.55,0 1.74,0.69 2.42,3.11 4.15,14.5 10.71,21.4 17.44,21.4 1.55,0 4.49,-0.17 4.49,-5.7 0,-4.48 -2.24,-10.19 -3.63,-13.98 l -12.08,-32.13 c -1.04,-2.75 -2.07,-5.51 -2.07,-8.62 0,-7.79 5.35,-14 13.64,-14 15.89,0 22.11,25.21 22.11,26.42 z m -1.4,83.08 c 0,2.57 -2.06,5.68 -5.85,5.68 -3.99,0 -8.47,-3.79 -8.47,-8.28 0,-4.31 3.62,-5.7 5.7,-5.7 4.66,0 8.62,4.5 8.62,8.3" /><path
         id="path28"
         style="fill:#0000ff;fill-opacity:1;fill-rule:nonzero;stroke:none"
         d="m 1732.75,2316.23 c 1.08,4.54 1.42,5.72 11.92,5.72 3.22,0 4.05,0 4.05,2.27 0,1.2 -1.31,1.2 -1.78,1.2 -2.39,0 -5.13,-0.25 -7.52,-0.25 h -15.97 c -2.26,0 -4.89,0.25 -7.15,0.25 -0.96,0 -2.27,0 -2.27,-2.26 0,-1.21 1.08,-1.21 2.86,-1.21 7.28,0 7.28,-0.95 7.28,-2.26 0,-0.24 0,-0.96 -0.48,-2.74 l -16.1,-64.12 c -1.07,-4.17 -1.31,-5.38 -9.65,-5.38 -2.27,0 -3.46,0 -3.46,-2.14 0,-1.31 0.72,-1.31 3.1,-1.31 h 53.4 c 2.63,0 2.75,0.13 3.58,2.27 l 9.17,25.39 c 0.25,0.59 0.49,1.31 0.49,1.67 0,0.72 -0.59,1.19 -1.19,1.19 -0.12,0 -0.72,0 -0.95,-0.47 -0.25,-0.13 -0.25,-0.36 -1.2,-2.63 -3.82,-10.5 -9.18,-23.97 -29.32,-23.97 h -11.45 c -1.67,0 -1.91,0 -2.63,0.13 -1.31,0.12 -1.42,0.36 -1.42,1.31 0,0.83 0.24,1.55 0.47,2.63 l 16.22,64.71" /><path
         id="path30"
         style="fill:#000000;fill-opacity:1;fill-rule:nonzero;stroke:none"
         d="m 313.996,1745.73 c 0,15.66 -12.691,28.35 -28.348,28.35 -15.652,0 -28.343,-12.69 -28.343,-28.35 0,-15.66 12.691,-28.35 28.343,-28.35 15.657,0 28.348,12.69 28.348,28.35 z" /><path
         id="path32"
         style="fill:none;stroke:#000000;stroke-width:15.9404;stroke-linecap:butt;stroke-linejoin:miter;stroke-miterlimit:10;stroke-dasharray:none;stroke-opacity:1"
         d="m 313.996,1745.73 c 0,15.66 -12.691,28.35 -28.348,28.35 -15.652,0 -28.343,-12.69 -28.343,-28.35 0,-15.66 12.691,-28.35 28.343,-28.35 15.657,0 28.348,12.69 28.348,28.35 z" /><path
         id="path34"
         style="fill:#0000ff;fill-opacity:1;fill-rule:nonzero;stroke:none"
         d="m 174.891,1719.02 c 2.25,-9.68 10.531,-11.75 14.672,-11.75 5.531,0 9.671,3.64 12.437,9.5 2.938,6.21 5.188,16.4 5.188,16.92 0,0.87 -0.704,1.56 -1.735,1.56 -1.547,0 -1.719,-0.86 -2.422,-3.45 -3.109,-11.92 -6.203,-21.07 -13.125,-21.07 -5.172,0 -5.172,5.69 -5.172,7.94 0,3.97 0.516,5.71 2.25,12.96 1.204,4.65 2.407,9.32 3.454,14.15 l 7.078,28.16 c 1.203,4.31 1.203,4.65 1.203,5.17 0,2.59 -2.078,4.33 -4.656,4.33 -5.016,0 -6.219,-4.33 -7.266,-8.64 -1.719,-6.74 -11.047,-43.86 -12.25,-49.91 -0.172,0 -6.906,-14.16 -19.516,-14.16 -8.984,0 -10.703,7.77 -10.703,14.16 0,9.84 4.828,23.66 9.313,35.24 2.078,5.51 2.937,7.76 2.937,11.21 0,7.43 -5.344,13.82 -13.64,13.82 -15.891,0 -22.282,-25.03 -22.282,-26.43 0,-0.68 0.703,-1.54 1.907,-1.54 1.546,0 1.734,0.69 2.421,3.11 4.141,14.84 10.875,21.4 17.438,21.4 1.734,0 4.484,-0.17 4.484,-5.7 0,-4.48 -1.89,-9.5 -4.484,-16.06 -7.594,-20.55 -8.469,-27.11 -8.469,-32.28 0,-17.63 13.297,-20.39 20.391,-20.39 11.047,0 17.094,7.61 20.547,11.75" /><path
         id="path36"
         style="fill:none;stroke:#000000;stroke-width:15.9404;stroke-linecap:butt;stroke-linejoin:miter;stroke-miterlimit:10;stroke-dasharray:none;stroke-opacity:1"
         d="m 880.93,1745.73 c 0,93.93 -76.145,170.08 -170.078,170.08 -93.938,0 -170.082,-76.15 -170.082,-170.08 0,-93.93 76.144,-170.08 170.082,-170.08 93.933,0 170.078,76.15 170.078,170.08 z" /><path
         id="path38"
         style="fill:#0000ff;fill-opacity:1;fill-rule:nonzero;stroke:none"
         d="m 708.781,1743.81 c 1.203,1.39 1.203,1.74 1.203,2.25 0,0.69 -0.687,1.72 -0.859,2.08 l -34.016,52.31 h 41.782 c 28.672,0 37.312,-6.2 40.25,-33.67 h 3.109 l -4.156,38.17 H 664.75 c -3.641,0 -3.812,-0.17 -3.812,-3.79 l 39.906,-61.49 -38.516,-49.39 c -1.219,-1.55 -1.219,-1.73 -1.219,-2.08 0,-1.2 1.047,-1.2 3.641,-1.2 h 91.344 l 4.156,39.55 h -3.109 c -2.766,-27.97 -12.61,-33.67 -40.594,-33.67 h -47.656 l 39.89,50.93" /><path
         id="path40"
         style="fill:none;stroke:#000000;stroke-width:15.9404;stroke-linecap:round;stroke-linejoin:miter;stroke-miterlimit:10;stroke-dasharray:none;stroke-opacity:1"
         d="m 1702.98,1802.42 c 31.31,0 56.69,-25.38 56.69,-56.69 0,-31.31 -25.38,-56.69 -56.69,-56.69 v 0" /><path
         id="path42"
         style="fill:#000000;fill-opacity:1;fill-rule:nonzero;stroke:none"
         d="m 2156.52,1745.73 c 0,15.66 -12.7,28.35 -28.35,28.35 -15.65,0 -28.35,-12.69 -28.35,-28.35 0,-15.66 12.7,-28.35 28.35,-28.35 15.65,0 28.35,12.69 28.35,28.35 z" /><path
         id="path44"
         style="fill:none;stroke:#000000;stroke-width:15.9404;stroke-linecap:butt;stroke-linejoin:miter;stroke-miterlimit:10;stroke-dasharray:none;stroke-opacity:1"
         d="m 2156.52,1745.73 c 0,15.66 -12.7,28.35 -28.35,28.35 -15.65,0 -28.35,-12.69 -28.35,-28.35 0,-15.66 12.7,-28.35 28.35,-28.35 15.65,0 28.35,12.69 28.35,28.35 z" /><path
         id="path46"
         style="fill:#0000ff;fill-opacity:1;fill-rule:nonzero;stroke:none"
         d="m 2260.89,1732.02 c 2.25,-9.68 10.53,-11.75 14.67,-11.75 5.53,0 9.67,3.64 12.44,9.5 2.94,6.21 5.19,16.4 5.19,16.92 0,0.87 -0.71,1.56 -1.74,1.56 -1.54,0 -1.72,-0.86 -2.42,-3.45 -3.11,-11.92 -6.2,-21.07 -13.12,-21.07 -5.18,0 -5.18,5.69 -5.18,7.94 0,3.97 0.52,5.71 2.25,12.96 1.21,4.65 2.41,9.32 3.46,14.15 l 7.08,28.16 c 1.2,4.31 1.2,4.65 1.2,5.17 0,2.59 -2.08,4.33 -4.66,4.33 -5.01,0 -6.22,-4.33 -7.26,-8.64 -1.72,-6.74 -11.05,-43.86 -12.25,-49.91 -0.17,0 -6.91,-14.16 -19.52,-14.16 -8.98,0 -10.7,7.77 -10.7,14.16 0,9.84 4.83,23.66 9.31,35.24 2.08,5.51 2.94,7.76 2.94,11.21 0,7.43 -5.35,13.82 -13.64,13.82 -15.89,0 -22.28,-25.03 -22.28,-26.43 0,-0.68 0.7,-1.54 1.9,-1.54 1.55,0 1.74,0.69 2.42,3.11 4.15,14.84 10.88,21.4 17.44,21.4 1.74,0 4.49,-0.17 4.49,-5.7 0,-4.48 -1.89,-9.5 -4.49,-16.06 -7.59,-20.55 -8.47,-27.11 -8.47,-32.28 0,-17.63 13.3,-20.39 20.39,-20.39 11.05,0 17.1,7.61 20.55,11.75" /><path
         id="path48"
         style="fill:#0000ff;fill-opacity:1;fill-rule:nonzero;stroke:none"
         d="m 2341.88,1769.31 c 1.06,4.41 1.54,4.64 6.18,4.64 h 8.6 c 10.25,0 17.87,-3.09 17.87,-12.39 0,-6.08 -3.09,-23.61 -27.06,-23.61 H 2334 Z m 16.56,-32.78 c 14.78,3.22 26.34,12.75 26.34,23 0,9.3 -9.42,17.89 -25.98,17.89 h -32.32 c -2.37,0 -3.45,0 -3.45,-2.26 0,-1.21 0.85,-1.21 3.1,-1.21 7.15,0 7.15,-0.95 7.15,-2.26 0,-0.24 0,-0.96 -0.47,-2.74 l -16.09,-64.12 c -1.08,-4.17 -1.31,-5.38 -9.55,-5.38 -2.73,0 -3.56,0 -3.56,-2.26 0,-1.19 1.3,-1.19 1.66,-1.19 2.15,0 4.65,0.23 6.92,0.23 h 14.06 c 2.14,0 4.66,-0.23 6.8,-0.23 0.95,0 2.26,0 2.26,2.27 0,1.18 -1.08,1.18 -2.86,1.18 -7.28,0 -7.28,0.96 -7.28,2.16 0,0.11 0,0.95 0.25,1.91 l 7.99,32.06 h 14.29 c 11.33,0 13.47,-7.16 13.47,-11.1 0,-1.78 -1.19,-6.43 -2.01,-9.53 -1.32,-5.48 -1.68,-6.79 -1.68,-9.06 0,-8.45 6.91,-12.39 14.91,-12.39 9.66,0 13.83,11.8 13.83,13.47 0,0.83 -0.61,1.19 -1.31,1.19 -0.96,0 -1.21,-0.72 -1.44,-1.68 -2.86,-8.45 -7.75,-10.6 -10.74,-10.6 -2.96,0 -4.87,1.31 -4.87,6.68 0,2.86 1.42,13.71 1.55,14.3 0.59,4.41 0.59,4.89 0.59,5.84 0,8.71 -7.03,12.39 -11.56,13.83" /><path
         id="path50"
         style="fill:#000000;fill-opacity:1;fill-rule:nonzero;stroke:none"
         d="m 313.996,753.602 c 0,15.652 -12.691,28.343 -28.348,28.343 -15.652,0 -28.343,-12.691 -28.343,-28.343 0,-15.657 12.691,-28.348 28.343,-28.348 15.657,0 28.348,12.691 28.348,28.348 z" /><path
         id="path52"
         style="fill:none;stroke:#000000;stroke-width:15.9404;stroke-linecap:butt;stroke-linejoin:miter;stroke-miterlimit:10;stroke-dasharray:none;stroke-opacity:1"
         d="m 313.996,753.602 c 0,15.652 -12.691,28.343 -28.348,28.343 -15.652,0 -28.343,-12.691 -28.343,-28.343 0,-15.657 12.691,-28.348 28.343,-28.348 15.657,0 28.348,12.691 28.348,28.348 z" /><path
         id="path54"
         style="fill:#0000ff;fill-opacity:1;fill-rule:nonzero;stroke:none"
         d="m 203.875,721.688 c 0,0.875 -0.687,1.562 -1.734,1.562 -1.547,0 -1.719,-0.516 -2.578,-3.453 -4.5,-15.719 -11.579,-21.063 -17.282,-21.063 -2.062,0 -4.484,0.516 -4.484,5.688 0,4.672 2.078,9.844 3.969,15.031 l 12.093,32.125 c 0.516,1.375 1.719,4.485 1.719,7.766 0,7.25 -5.172,13.812 -13.64,13.812 -15.891,0 -22.282,-25.031 -22.282,-26.422 0,-0.687 0.703,-1.546 1.907,-1.546 1.546,0 1.734,0.687 2.421,3.109 4.141,14.5 10.704,21.406 17.438,21.406 1.547,0 4.484,-0.172 4.484,-5.703 0,-4.484 -2.234,-10.187 -3.625,-13.984 l -12.078,-32.125 c -1.047,-2.75 -2.078,-5.516 -2.078,-8.625 0,-7.782 5.359,-14 13.641,-14 15.89,0 22.109,25.218 22.109,26.422 z m -1.391,83.078 c 0,2.578 -2.062,5.687 -5.859,5.687 -3.984,0 -8.469,-3.797 -8.469,-8.281 0,-4.313 3.625,-5.703 5.703,-5.703 4.657,0 8.625,4.5 8.625,8.297" /><path
         id="path56"
         style="fill:none;stroke:#000000;stroke-width:15.9404;stroke-linecap:round;stroke-linejoin:miter;stroke-miterlimit:10;stroke-dasharray:none;stroke-opacity:1"
         d="m 710.852,810.293 c 31.308,0 56.691,-25.383 56.691,-56.691 0,-31.313 -25.383,-56.696 -56.691,-56.696 v 0" /><path
         id="path58"
         style="fill:#000000;fill-opacity:1;fill-rule:nonzero;stroke:none"
         d="m 1731.33,753.602 c 0,15.652 -12.69,28.343 -28.35,28.343 -15.66,0 -28.35,-12.691 -28.35,-28.343 0,-15.657 12.69,-28.348 28.35,-28.348 15.66,0 28.35,12.691 28.35,28.348 z" /><path
         id="path60"
         style="fill:none;stroke:#000000;stroke-width:15.9404;stroke-linecap:butt;stroke-linejoin:miter;stroke-miterlimit:10;stroke-dasharray:none;stroke-opacity:1"
         d="m 1731.33,753.602 c 0,15.652 -12.69,28.343 -28.35,28.343 -15.66,0 -28.35,-12.691 -28.35,-28.343 0,-15.657 12.69,-28.348 28.35,-28.348 15.66,0 28.35,12.691 28.35,28.348 z" /><path
         id="path62"
         style="fill:#000000;fill-opacity:1;fill-rule:nonzero;stroke:none"
         d="m 2156.52,753.602 c 0,15.652 -12.7,28.343 -28.35,28.343 -15.65,0 -28.35,-12.691 -28.35,-28.343 0,-15.657 12.7,-28.348 28.35,-28.348 15.65,0 28.35,12.691 28.35,28.348 z" /><path
         id="path64"
         style="fill:none;stroke:#000000;stroke-width:15.9404;stroke-linecap:butt;stroke-linejoin:miter;stroke-miterlimit:10;stroke-dasharray:none;stroke-opacity:1"
         d="m 2156.52,753.602 c 0,15.652 -12.7,28.343 -28.35,28.343 -15.65,0 -28.35,-12.691 -28.35,-28.343 0,-15.657 12.7,-28.348 28.35,-28.348 15.65,0 28.35,12.691 28.35,28.348 z" /><path
         id="path66"
         style="fill:#0000ff;fill-opacity:1;fill-rule:nonzero;stroke:none"
         d="m 2250.88,734.688 c 0,0.875 -0.69,1.562 -1.74,1.562 -1.55,0 -1.72,-0.516 -2.58,-3.453 -4.5,-15.719 -11.58,-21.063 -17.28,-21.063 -2.06,0 -4.48,0.516 -4.48,5.688 0,4.672 2.08,9.844 3.97,15.031 l 12.09,32.125 c 0.52,1.375 1.72,4.485 1.72,7.766 0,7.25 -5.17,13.812 -13.64,13.812 -15.89,0 -22.28,-25.031 -22.28,-26.422 0,-0.687 0.7,-1.546 1.9,-1.546 1.55,0 1.74,0.687 2.42,3.109 4.15,14.5 10.71,21.406 17.44,21.406 1.55,0 4.49,-0.172 4.49,-5.703 0,-4.484 -2.24,-10.187 -3.63,-13.984 l -12.08,-32.125 c -1.04,-2.75 -2.07,-5.516 -2.07,-8.625 0,-7.782 5.35,-14 13.64,-14 15.89,0 22.11,25.218 22.11,26.422 z m -1.4,83.078 c 0,2.578 -2.06,5.687 -5.85,5.687 -3.99,0 -8.47,-3.797 -8.47,-8.281 0,-4.313 3.62,-5.703 5.7,-5.703 4.66,0 8.62,4.5 8.62,8.297" /><path
         id="path68"
         style="fill:#0000ff;fill-opacity:1;fill-rule:nonzero;stroke:none"
         d="m 2302.88,757.313 c 1.06,4.406 1.54,4.64 6.18,4.64 h 8.6 c 10.25,0 17.87,-3.094 17.87,-12.39 0,-6.079 -3.09,-23.61 -27.06,-23.61 H 2295 Z m 16.56,-32.782 c 14.78,3.219 26.34,12.75 26.34,23 0,9.297 -9.42,17.891 -25.98,17.891 h -32.32 c -2.37,0 -3.45,0 -3.45,-2.266 0,-1.203 0.85,-1.203 3.1,-1.203 7.15,0 7.15,-0.953 7.15,-2.265 0,-0.235 0,-0.954 -0.47,-2.735 l -16.09,-64.125 c -1.08,-4.172 -1.31,-5.375 -9.55,-5.375 -2.73,0 -3.56,0 -3.56,-2.265 0,-1.188 1.3,-1.188 1.66,-1.188 2.15,0 4.65,0.234 6.92,0.234 h 14.06 c 2.14,0 4.66,-0.234 6.8,-0.234 0.95,0 2.26,0 2.26,2.266 0,1.187 -1.08,1.187 -2.86,1.187 -7.28,0 -7.28,0.953 -7.28,2.156 0,0.11 0,0.954 0.25,1.907 l 7.99,32.062 h 14.29 c 11.33,0 13.47,-7.156 13.47,-11.094 0,-1.781 -1.19,-6.437 -2.01,-9.531 -1.32,-5.484 -1.68,-6.797 -1.68,-9.062 0,-8.453 6.91,-12.391 14.91,-12.391 9.66,0 13.83,11.797 13.83,13.469 0,0.828 -0.61,1.187 -1.31,1.187 -0.96,0 -1.21,-0.718 -1.44,-1.672 -2.86,-8.453 -7.75,-10.609 -10.74,-10.609 -2.96,0 -4.87,1.313 -4.87,6.688 0,2.859 1.42,13.703 1.55,14.296 0.59,4.407 0.59,4.891 0.59,5.844 0,8.703 -7.03,12.391 -11.56,13.828" /><path
         id="path70"
         style="fill:#000000;fill-opacity:1;fill-rule:nonzero;stroke:none"
         d="m 739.195,328.398 c 0,15.657 -12.691,28.348 -28.343,28.348 -15.657,0 -28.348,-12.691 -28.348,-28.348 0,-15.652 12.691,-28.343 28.348,-28.343 15.652,0 28.343,12.691 28.343,28.343 z" /><path
         id="path72"
         style="fill:none;stroke:#000000;stroke-width:15.9404;stroke-linecap:butt;stroke-linejoin:miter;stroke-miterlimit:10;stroke-dasharray:none;stroke-opacity:1"
         d="m 739.195,328.398 c 0,15.657 -12.691,28.348 -28.343,28.348 -15.657,0 -28.348,-12.691 -28.348,-28.348 0,-15.652 12.691,-28.343 28.348,-28.343 15.652,0 28.343,12.691 28.343,28.343 z" /><path
         id="path74"
         style="fill:#0000ff;fill-opacity:1;fill-rule:nonzero;stroke:none"
         d="m 672.891,191.016 c 2.25,-9.672 10.531,-11.75 14.672,-11.75 5.531,0 9.671,3.64 12.437,9.5 2.938,6.218 5.188,16.406 5.188,16.922 0,0.875 -0.704,1.562 -1.735,1.562 -1.547,0 -1.719,-0.859 -2.422,-3.453 -3.109,-11.922 -6.203,-21.063 -13.125,-21.063 -5.172,0 -5.172,5.688 -5.172,7.938 0,3.969 0.516,5.703 2.25,12.953 1.204,4.656 2.407,9.328 3.454,14.156 l 7.078,28.157 c 1.203,4.312 1.203,4.656 1.203,5.171 0,2.594 -2.078,4.329 -4.656,4.329 -5.016,0 -6.219,-4.329 -7.266,-8.641 -1.719,-6.734 -11.047,-43.859 -12.25,-49.906 -0.172,0 -6.906,-14.157 -19.516,-14.157 -8.984,0 -10.703,7.766 -10.703,14.157 0,9.843 4.828,23.656 9.313,35.234 2.078,5.516 2.937,7.766 2.937,11.219 0,7.422 -5.344,13.812 -13.64,13.812 -15.891,0 -22.282,-25.031 -22.282,-26.422 0,-0.687 0.703,-1.546 1.907,-1.546 1.546,0 1.734,0.687 2.421,3.109 4.141,14.844 10.875,21.406 17.438,21.406 1.734,0 4.484,-0.172 4.484,-5.703 0,-4.484 -1.89,-9.5 -4.484,-16.062 -7.594,-20.547 -8.469,-27.11 -8.469,-32.282 0,-17.625 13.297,-20.39 20.391,-20.39 11.047,0 17.094,7.609 20.547,11.75" /><path
         id="path76"
         style="fill:#0000ff;fill-opacity:1;fill-rule:nonzero;stroke:none"
         d="m 799.047,237.844 c 0,1.078 -0.828,1.078 -1.078,1.078 -0.235,0 -0.719,0 -1.672,-1.188 l -8.219,-10.015 c -4.172,7.14 -10.734,11.203 -19.672,11.203 -25.75,0 -52.453,-26.109 -52.453,-54.125 0,-19.906 13.953,-32.297 31.36,-32.297 9.531,0 17.875,4.047 24.796,9.891 10.36,8.703 13.469,20.265 13.469,21.218 0,1.079 -0.953,1.079 -1.312,1.079 -1.078,0 -1.188,-0.719 -1.438,-1.204 -5.484,-18.593 -21.562,-27.531 -33.484,-27.531 -12.641,0 -23.61,8.11 -23.61,25.031 0,3.813 1.188,24.563 14.657,40.172 6.562,7.625 17.765,14.313 29.093,14.313 13.11,0 18.954,-10.86 18.954,-23.016 0,-3.094 -0.36,-5.719 -0.36,-6.187 0,-1.078 1.188,-1.078 1.547,-1.078 1.313,0 1.438,0.109 1.906,2.265 l 7.516,30.391" /><path
         id="path78"
         style="fill:#000000;fill-opacity:1;fill-rule:nonzero;stroke:none"
         d="m 1731.33,328.398 c 0,15.657 -12.69,28.348 -28.35,28.348 -15.66,0 -28.35,-12.691 -28.35,-28.348 0,-15.652 12.69,-28.343 28.35,-28.343 15.66,0 28.35,12.691 28.35,28.343 z" /><path
         id="path80"
         style="fill:none;stroke:#000000;stroke-width:15.9404;stroke-linecap:butt;stroke-linejoin:miter;stroke-miterlimit:10;stroke-dasharray:none;stroke-opacity:1"
         d="m 1731.33,328.398 c 0,15.657 -12.69,28.348 -28.35,28.348 -15.66,0 -28.35,-12.691 -28.35,-28.348 0,-15.652 12.69,-28.343 28.35,-28.343 15.66,0 28.35,12.691 28.35,28.343 z" /><path
         id="path82"
         style="fill:#0000ff;fill-opacity:1;fill-rule:nonzero;stroke:none"
         d="m 1674.88,166.688 c 0,0.875 -0.69,1.562 -1.74,1.562 -1.55,0 -1.72,-0.516 -2.58,-3.453 -4.5,-15.719 -11.58,-21.063 -17.28,-21.063 -2.06,0 -4.48,0.516 -4.48,5.688 0,4.672 2.08,9.844 3.97,15.031 l 12.09,32.125 c 0.52,1.375 1.72,4.485 1.72,7.766 0,7.25 -5.17,13.812 -13.64,13.812 -15.89,0 -22.28,-25.031 -22.28,-26.422 0,-0.687 0.7,-1.546 1.9,-1.546 1.55,0 1.74,0.687 2.42,3.109 4.15,14.5 10.71,21.406 17.44,21.406 1.55,0 4.49,-0.172 4.49,-5.703 0,-4.484 -2.24,-10.187 -3.63,-13.984 l -12.08,-32.125 c -1.04,-2.75 -2.07,-5.516 -2.07,-8.625 0,-7.782 5.35,-14 13.64,-14 15.89,0 22.11,25.218 22.11,26.422 z m -1.4,83.078 c 0,2.578 -2.06,5.687 -5.85,5.687 -3.99,0 -8.47,-3.797 -8.47,-8.281 0,-4.313 3.62,-5.703 5.7,-5.703 4.66,0 8.62,4.5 8.62,8.297" /><path
         id="path84"
         style="fill:#0000ff;fill-opacity:1;fill-rule:nonzero;stroke:none"
         d="m 1772.05,198.844 c 0,1.078 -0.83,1.078 -1.08,1.078 -0.24,0 -0.72,0 -1.67,-1.188 l -8.22,-10.015 c -4.17,7.14 -10.74,11.203 -19.67,11.203 -25.75,0 -52.46,-26.109 -52.46,-54.125 0,-19.906 13.96,-32.297 31.36,-32.297 9.53,0 17.88,4.047 24.8,9.891 10.36,8.703 13.47,20.265 13.47,21.218 0,1.079 -0.95,1.079 -1.31,1.079 -1.08,0 -1.19,-0.719 -1.44,-1.204 -5.49,-18.593 -21.56,-27.531 -33.49,-27.531 -12.64,0 -23.61,8.11 -23.61,25.031 0,3.813 1.19,24.563 14.66,40.172 6.56,7.625 17.77,14.313 29.09,14.313 13.11,0 18.96,-10.86 18.96,-23.016 0,-3.094 -0.36,-5.719 -0.36,-6.187 0,-1.078 1.19,-1.078 1.55,-1.078 1.31,0 1.43,0.109 1.9,2.265 l 7.52,30.391" /><path
         id="path86"
         style="fill:none;stroke:#000000;stroke-width:15.9404;stroke-linecap:butt;stroke-linejoin:miter;stroke-miterlimit:10;stroke-dasharray:none;stroke-opacity:1"
         d="m 317.988,1745.74 h 214.817 m 178.05,178.05 v 214.82 m 0,-570.92 V 810.293 m 0,-113.387 V 360.73 M 888.906,1745.74 H 2095.87" /><path
         id="path88"
         style="fill:none;stroke:#000000;stroke-width:15.9404;stroke-linecap:butt;stroke-linejoin:miter;stroke-miterlimit:10;stroke-dasharray:none;stroke-opacity:1"
         d="m 1703,785.934 v 903.116 m 0,113.38 v 336.18 m 0,-1417.34 V 360.73 m 32.33,392.872 h 360.54 m -425.21,0 H 317.988" /></g></g></svg>
