<?xml version="1.0" encoding="UTF-8" standalone="no"?>
<svg
   xmlns:dc="http://purl.org/dc/elements/1.1/"
   xmlns:cc="http://creativecommons.org/ns#"
   xmlns:rdf="http://www.w3.org/1999/02/22-rdf-syntax-ns#"
   xmlns:svg="http://www.w3.org/2000/svg"
   xmlns="http://www.w3.org/2000/svg"
   viewBox="0 0 80.373337 45.253334"
   height="45.253334"
   width="80.373337"
   xml:space="preserve"
   id="svg2"
   version="1.1"><metadata
     id="metadata8"><rdf:RDF><cc:Work
         rdf:about=""><dc:format>image/svg+xml</dc:format><dc:type
           rdf:resource="http://purl.org/dc/dcmitype/StillImage" /></cc:Work></rdf:RDF></metadata><defs
     id="defs6" /><g
     transform="matrix(1.3333333,0,0,-1.3333333,0,45.253333)"
     id="g10"><g
       transform="scale(0.1)"
       id="g12"><path
         id="path14"
         style="fill:none;stroke:#000000;stroke-width:15.9404;stroke-linecap:butt;stroke-linejoin:miter;stroke-miterlimit:10;stroke-dasharray:none;stroke-opacity:1"
         d="M 47.8164,169.711 H 517.137" /><path
         id="path16"
         style="fill:none;stroke:#000000;stroke-width:15.9404;stroke-linecap:butt;stroke-linejoin:miter;stroke-miterlimit:10;stroke-dasharray:none;stroke-opacity:1"
         d="m 517.137,169.711 h 15.941 l -68.707,-57.656" /><path
         id="path18"
         style="fill:#008000;fill-opacity:1;fill-rule:nonzero;stroke:none"
         d="m 214.516,226.188 c 0,0.718 -0.594,1.187 -1.313,1.187 -0.953,0 -1.187,-0.594 -1.422,-1.187 -3.109,-10.016 -11.093,-12.75 -16.093,-12.75 -5.016,0 -17.047,3.328 -17.047,23.953 v 2.265 h 33.015 c 2.625,0 2.86,0 2.86,2.266 0,12.031 -6.438,23.25 -20.86,23.25 -13.593,0 -24.078,-12.281 -24.078,-27.063 0,-15.734 12.156,-27.296 25.391,-27.296 14.187,0 19.547,12.875 19.547,15.375 z m -7.391,15.734 H 178.75 c 0.953,18.719 11.453,20.859 14.781,20.859 12.766,0 13.469,-16.812 13.594,-20.859" /><path
         id="path20"
         style="fill:#008000;fill-opacity:1;fill-rule:nonzero;stroke:none"
         d="m 290.594,288.047 c 0,4.297 -4.172,7.875 -10.125,7.875 -4.781,0 -9.297,-2.141 -12.281,-5.016 -3.11,4.422 -9.782,5.016 -13,5.016 -11.438,0 -24.797,-6.203 -24.797,-18.844 v -13.703 h -9.297 v -3.453 h 9.297 v -39.094 c 0,-5.375 -1.297,-5.375 -9.047,-5.375 V 212 c 3.328,0.234 9.172,0.234 12.75,0.234 3.578,0 9.531,0 12.875,-0.234 v 3.453 c -7.625,0 -9.063,0 -9.063,5.375 v 39.094 h 24.797 v -39.094 c 0,-5.375 -1.312,-5.375 -9.062,-5.375 V 212 c 3.343,0.234 9.89,0.234 13.468,0.234 3.219,0 11.688,0 14.422,-0.234 v 3.453 h -2.375 c -8.703,0 -8.937,1.313 -8.937,5.61 v 38.859 h 13.578 v 3.453 h -13.828 v 13.953 c 0,10.25 5.25,16.203 10.5,16.203 1.781,0 3.453,-0.593 4.172,-0.953 -0.485,-0.109 -3.469,-1.187 -3.469,-4.64 0,-2.75 1.906,-4.657 4.656,-4.657 2.86,0 4.766,1.907 4.766,4.766 z m -26.11,2.984 c -3.218,-0.593 -4.171,-2.859 -4.171,-4.64 0,-2.032 1.078,-3.703 2.859,-4.422 -0.469,-1.781 -0.469,-3.328 -0.469,-4.641 v -13.953 h -25.031 v 13.469 c 0,12.156 10.125,16.687 17.281,16.687 0.828,0 6.078,0 9.531,-2.5" /><path
         id="path22"
         style="fill:#008000;fill-opacity:1;fill-rule:nonzero;stroke:none"
         d="m 341.719,237.516 c 0,15.375 -11.688,27.656 -25.516,27.656 -14.297,0 -25.625,-12.641 -25.625,-27.656 0,-15.266 11.922,-26.703 25.5,-26.703 14.078,0 25.641,11.671 25.641,26.703 z m -9.063,1.062 c 0,-4.172 0,-11.562 -3.093,-17.156 -3.344,-5.719 -8.829,-7.984 -13.36,-7.984 -4.406,0 -9.765,1.906 -13.234,7.734 -3.219,5.375 -3.328,12.406 -3.328,17.406 0,4.531 0,11.813 3.687,17.172 3.344,5.125 8.578,7.031 12.75,7.031 4.656,0 9.656,-2.14 12.875,-6.797 3.703,-5.484 3.703,-12.984 3.703,-17.406" /><path
         id="path24"
         style="fill:#008000;fill-opacity:1;fill-rule:nonzero;stroke:none"
         d="m 387.078,257.656 c 0,3.578 -3.219,6.907 -8.344,6.907 -10.125,0 -13.593,-10.954 -14.296,-13.219 h -0.125 v 13.219 l -15.969,-1.297 v -3.469 c 8.094,0 9.047,-0.828 9.047,-6.672 v -32.297 c 0,-5.375 -1.297,-5.375 -9.047,-5.375 V 212 c 3.328,0.234 9.89,0.234 13.469,0.234 3.218,0 11.671,0 14.421,-0.234 v 3.453 h -2.39 c -8.703,0 -8.938,1.313 -8.938,5.61 v 18.718 c 0,11.563 4.766,22.407 13.953,22.407 0.954,0 1.188,0 1.657,-0.125 -0.953,-0.469 -2.86,-1.188 -2.86,-4.407 0,-3.453 2.75,-4.765 4.657,-4.765 2.375,0 4.765,1.547 4.765,4.765" /><path
         id="path26"
         style="fill:#008000;fill-opacity:1;fill-rule:nonzero;stroke:none"
         d="m 429.859,226.781 v 6.797 h -2.625 v -6.562 c 0,-8.578 -3.453,-13.578 -8.109,-13.578 -8.094,0 -8.094,11.078 -8.094,13.109 v 33.375 h 16.797 v 3.453 h -16.797 v 21.938 h -2.625 C 408.281,274.109 404,262.656 393.141,262.297 v -2.375 h 10.14 v -33.141 c 0,-13.234 8.813,-15.968 15.141,-15.968 7.5,0 11.437,7.39 11.437,15.968" /><path
         id="path28"
         style="fill:#008000;fill-opacity:1;fill-rule:nonzero;stroke:none"
         d="m 260.391,44 v 3.4531 c -7.625,0 -9.063,0 -9.063,5.375 v 73.9059 c -0.828,-0.125 -3.328,-0.718 -4.047,-0.718 0,0 -0.484,0 -1.078,0.359 -4.047,1.547 -7.75,1.547 -9.656,1.547 -12.391,0 -25.156,-6.563 -25.156,-18.844 V 95.375 h -9.297 v -3.4531 h 9.297 V 52.8281 c 0,-5.375 -1.297,-5.375 -9.047,-5.375 V 44 c 3.328,0.2344 9.172,0.2344 12.75,0.2344 3.578,0 9.531,0 12.875,-0.2344 v 3.4531 c -7.625,0 -9.063,0 -9.063,5.375 v 39.0938 h 24.922 V 52.8281 c 0,-5.375 -1.312,-5.375 -9.062,-5.375 V 44 c 3.328,0.2344 9.172,0.2344 12.75,0.2344 3.578,0 9.531,0 12.875,-0.2344 z m -16.563,51.375 h -25.156 v 13.469 c 0,11.328 9.062,16.687 17.766,16.687 4.171,0 4.406,0 7.265,-0.828 v -0.594 c -1.312,-1.078 -2.265,-2.265 -2.265,-4.171 0,-0.954 0.359,-2.985 2.39,-4.063 v -20.5" /><path
         id="path30"
         style="fill:#008000;fill-opacity:1;fill-rule:nonzero;stroke:none"
         d="m 318.719,69.5156 c 0,15.375 -11.688,27.6563 -25.516,27.6563 -14.297,0 -25.625,-12.6406 -25.625,-27.6563 0,-15.2656 11.922,-26.7031 25.5,-26.7031 14.078,0 25.641,11.6719 25.641,26.7031 z m -9.063,1.0625 c 0,-4.1718 0,-11.5625 -3.093,-17.1562 -3.344,-5.7188 -8.829,-7.9844 -13.36,-7.9844 -4.406,0 -9.765,1.9063 -13.234,7.7344 -3.219,5.375 -3.328,12.4062 -3.328,17.4062 0,4.5313 0,11.8125 3.687,17.1719 3.344,5.125 8.578,7.0313 12.75,7.0313 4.656,0 9.656,-2.1407 12.875,-6.7969 C 309.656,82.5 309.656,75 309.656,70.5781" /><path
         id="path32"
         style="fill:#008000;fill-opacity:1;fill-rule:nonzero;stroke:none"
         d="m 401.016,91.9219 v 3.4531 c -2.985,-0.2344 -5.125,-0.2344 -8.828,-0.2344 l -10.125,0.2344 v -3.4531 c 5.359,-0.2344 6.796,-3.4531 6.796,-5.7188 0,0 0,-0.9531 -0.484,-2.1562 L 377.406,52.8281 365.484,86.5625 c -0.593,1.4219 -0.593,1.6563 -0.593,2.0156 0,3.3438 4.406,3.3438 6.922,3.3438 v 3.4531 c -3.344,-0.2344 -8.235,-0.2344 -11.688,-0.2344 l -10.734,0.2344 v -3.4531 c 4.531,0 6.093,-0.2344 7.39,-1.7969 0.61,-0.7031 2.032,-4.6406 2.875,-7.0312 l -10.14,-29.0782 -11.438,32.4219 c -0.594,1.5469 -0.594,1.7813 -0.594,2.2656 0,3.2188 4.641,3.2188 6.907,3.2188 v 3.4531 c -2.985,-0.2344 -8.938,-0.2344 -12.157,-0.2344 l -11.093,0.2344 v -3.4531 c 6.078,0 7.281,-0.4844 8.593,-4.2969 L 344.75,44.9531 c 0.469,-1.3125 0.828,-2.1406 2.141,-2.1406 1.078,0 1.672,0.3594 2.265,2.2656 L 361.078,79.0469 373,45.0781 c 0.594,-1.9062 1.188,-2.2656 2.266,-2.2656 1.312,0 1.672,0.8281 2.14,2.1406 l 13.719,39.0938 c 2.609,7.5156 7.859,7.75 9.891,7.875" /></g></g></svg>
