<?xml version="1.0" encoding="UTF-8" standalone="no"?>
<svg
   xmlns:dc="http://purl.org/dc/elements/1.1/"
   xmlns:cc="http://creativecommons.org/ns#"
   xmlns:rdf="http://www.w3.org/1999/02/22-rdf-syntax-ns#"
   xmlns:svg="http://www.w3.org/2000/svg"
   xmlns="http://www.w3.org/2000/svg"
   viewBox="0 0 80.373337 43.52"
   height="43.52"
   width="80.373337"
   xml:space="preserve"
   id="svg2"
   version="1.1"><metadata
     id="metadata8"><rdf:RDF><cc:Work
         rdf:about=""><dc:format>image/svg+xml</dc:format><dc:type
           rdf:resource="http://purl.org/dc/dcmitype/StillImage" /></cc:Work></rdf:RDF></metadata><defs
     id="defs6" /><g
     transform="matrix(1.3333333,0,0,-1.3333333,0,43.52)"
     id="g10"><g
       transform="scale(0.1)"
       id="g12"><path
         id="path14"
         style="fill:none;stroke:#000000;stroke-width:15.9404;stroke-linecap:butt;stroke-linejoin:miter;stroke-miterlimit:10;stroke-dasharray:none;stroke-opacity:1"
         d="M 47.8164,190.609 H 501.195" /><path
         id="path16"
         style="fill:none;stroke:#000000;stroke-width:15.9404;stroke-linecap:butt;stroke-linejoin:miter;stroke-miterlimit:10;stroke-dasharray:none;stroke-opacity:1"
         d="m 501.195,190.609 h 15.942 L 448.43,132.953" /><path
         id="path18"
         style="fill:none;stroke:#000000;stroke-width:15.9404;stroke-linecap:butt;stroke-linejoin:miter;stroke-miterlimit:10;stroke-dasharray:none;stroke-opacity:1"
         d="M 547.008,254.371 V 126.848" /><path
         id="path20"
         style="fill:#008000;fill-opacity:1;fill-rule:nonzero;stroke:none"
         d="m 219.344,259.656 c 3.219,0 11.312,0.235 17.047,2.391 9.047,3.453 9.89,10.359 9.89,12.516 0,5.234 -4.531,10 -12.406,10 -12.516,0 -30.516,-11.313 -30.516,-32.532 0,-12.515 7.157,-21.218 18,-21.218 16.219,0 26.469,12.625 26.469,14.187 0,0.703 -0.719,1.297 -1.187,1.297 -0.36,0 -0.485,-0.109 -1.563,-1.188 -7.625,-10.125 -18.953,-11.921 -23.469,-11.921 -6.796,0 -10.375,5.375 -10.375,14.187 0,1.672 0,4.656 1.782,12.281 z m -5.735,2.391 c 5.125,18.344 16.454,20.141 20.266,20.141 5.25,0 8.828,-3.11 8.828,-7.625 0,-12.516 -19.078,-12.516 -24.078,-12.516 h -5.016" /><path
         id="path22"
         style="fill:#008000;fill-opacity:1;fill-rule:nonzero;stroke:none"
         d="m 384.422,259.422 c -6.563,-5.016 -9.781,-9.906 -10.734,-11.453 -5.36,-8.219 -6.313,-15.735 -6.313,-15.844 0,-1.437 1.422,-1.437 2.375,-1.437 2.031,0 2.156,0.234 2.625,2.39 2.75,11.672 9.781,21.688 23.25,27.172 1.422,0.484 1.781,0.719 1.781,1.547 0,0.844 -0.718,1.203 -0.953,1.312 -5.234,2.032 -19.672,7.985 -24.203,28.016 -0.344,1.438 -0.469,1.781 -2.5,1.781 -0.953,0 -2.375,0 -2.375,-1.422 0,-0.234 1.063,-7.75 6.078,-15.734 2.375,-3.578 5.844,-7.75 10.969,-11.562 h -88.578 c -2.141,0 -4.281,0 -4.281,-2.391 0,-2.375 2.14,-2.375 4.281,-2.375 h 88.578" /><path
         id="path24"
         style="fill:#008000;fill-opacity:1;fill-rule:nonzero;stroke:none"
         d="m 298.234,93.4219 c 2.157,0 4.297,0 4.297,2.375 0,2.3906 -2.14,2.3906 -4.297,2.3906 h -88.562 c 6.547,5.0005 9.766,9.8905 10.719,11.4375 5.375,8.234 6.328,15.734 6.328,15.859 0,1.422 -1.438,1.422 -2.391,1.422 -2.031,0 -2.14,-0.234 -2.625,-2.375 -2.734,-11.687 -9.765,-21.578 -23.234,-27.1872 -1.313,-0.4688 -1.797,-0.7032 -1.797,-1.5469 0,-0.8281 0.594,-1.0625 1.797,-1.5469 12.39,-5.125 20.375,-14.4219 23.359,-27.7656 0.36,-1.4375 0.469,-1.7969 2.5,-1.7969 0.953,0 2.391,0 2.391,1.4375 0,0.2344 -1.078,7.75 -6.078,15.7344 -2.391,3.5781 -5.844,7.75 -10.969,11.5625 h 88.562" /><path
         id="path26"
         style="fill:#008000;fill-opacity:1;fill-rule:nonzero;stroke:none"
         d="m 396.172,113.922 c 2.375,0 3.328,0 3.328,2.266 0,1.187 -0.953,1.187 -3.094,1.187 h -9.656 c 2.266,12.281 3.938,20.75 4.891,24.563 0.703,2.859 3.218,5.593 6.312,5.593 2.5,0 5,-1.062 6.203,-2.14 -4.656,-0.485 -6.078,-3.938 -6.078,-5.953 0,-2.391 1.781,-3.829 4.047,-3.829 2.391,0 5.953,2.032 5.953,6.563 0,5 -5,7.75 -10.25,7.75 -5.125,0 -10.125,-3.813 -12.515,-8.469 -2.141,-4.172 -3.329,-8.453 -6.079,-24.078 h -7.984 c -2.266,0 -3.453,0 -3.453,-2.141 0,-1.312 0.719,-1.312 3.094,-1.312 h 7.625 c -2.141,-11.094 -7.032,-38.0314 -9.766,-50.7814 -2.031,-10.375 -3.812,-19.0781 -9.781,-19.0781 -0.36,0 -3.813,0 -5.953,2.2656 6.078,0.4844 6.078,5.7188 6.078,5.8438 0,2.3906 -1.797,3.8125 -4.047,3.8125 -2.391,0 -5.969,-2.0313 -5.969,-6.5469 0,-5.125 5.25,-7.75 9.891,-7.75 12.156,0 17.172,21.8125 18.484,27.7656 2.141,9.1875 7.985,40.8909 8.578,44.4689 h 10.141" /></g></g></svg>
