<?xml version="1.0" encoding="UTF-8" standalone="no"?>
<svg
   xmlns:dc="http://purl.org/dc/elements/1.1/"
   xmlns:cc="http://creativecommons.org/ns#"
   xmlns:rdf="http://www.w3.org/1999/02/22-rdf-syntax-ns#"
   xmlns:svg="http://www.w3.org/2000/svg"
   xmlns="http://www.w3.org/2000/svg"
   viewBox="0 0 90.626663 22.386667"
   height="22.386667"
   width="90.626663"
   xml:space="preserve"
   id="svg2"
   version="1.1"><metadata
     id="metadata8"><rdf:RDF><cc:Work
         rdf:about=""><dc:format>image/svg+xml</dc:format><dc:type
           rdf:resource="http://purl.org/dc/dcmitype/StillImage" /></cc:Work></rdf:RDF></metadata><defs
     id="defs6" /><g
     transform="matrix(1.3333333,0,0,-1.3333333,0,22.386667)"
     id="g10"><g
       transform="scale(0.1)"
       id="g12"><path
         id="path14"
         style="fill:#000000;fill-opacity:1;fill-rule:nonzero;stroke:none"
         d="m 644.344,141.047 c 0,3.969 0,4.5 -3.797,4.5 l -12.953,-12.438 c -9.672,8.282 -21.235,12.438 -34.016,12.438 -41.281,0 -67.875,-25.047 -67.875,-61.3126 0,-35.5781 25.735,-61.3125 68.047,-61.3125 30.734,0 50.594,21.0781 50.594,41.4531 0,2.9375 -1.031,3.1094 -3.625,3.1094 -1.719,0 -3.453,0 -3.625,-1.9063 -1.547,-26.25 -23.828,-35.2187 -39.375,-35.2187 -11.219,0 -26.422,3.1094 -36.094,13.9844 -6.047,6.5625 -11.562,16.0625 -11.562,39.8906 0,16.9216 2.578,29.5316 10.703,39.2036 11.047,12.953 28.312,14.671 36.609,14.671 12.953,0 33.844,-7.25 39.031,-37.64 0.344,-1.5627 1.891,-1.5627 3.969,-1.5627 3.969,0 3.969,0.3593 3.969,4.4997 v 37.641" /><path
         id="path16"
         style="fill:none;stroke:#000000;stroke-width:15.9404;stroke-linecap:butt;stroke-linejoin:miter;stroke-miterlimit:10;stroke-dasharray:none;stroke-opacity:1"
         d="M 47.8164,83.9609 H 408.344" /><path
         id="path18"
         style="fill:none;stroke:#000000;stroke-width:15.9404;stroke-linecap:butt;stroke-linejoin:miter;stroke-miterlimit:10;stroke-dasharray:none;stroke-opacity:1"
         d="m 408.344,83.9609 h 15.937 L 355.578,26.3047" /><path
         id="path20"
         style="fill:none;stroke:#ff8000;stroke-width:15.9404;stroke-linecap:butt;stroke-linejoin:miter;stroke-miterlimit:10;stroke-dasharray:none;stroke-opacity:1"
         d="M 454.156,147.723 V 20.1992" /></g></g></svg>
