<?xml version="1.0" encoding="UTF-8" standalone="no"?>
<svg
   xmlns:dc="http://purl.org/dc/elements/1.1/"
   xmlns:cc="http://creativecommons.org/ns#"
   xmlns:rdf="http://www.w3.org/1999/02/22-rdf-syntax-ns#"
   xmlns:svg="http://www.w3.org/2000/svg"
   xmlns="http://www.w3.org/2000/svg"
   id="svg24"
   version="1.2"
   viewBox="0 0 60.28 32.64"
   height="32.64pt"
   width="60.28pt">
  <metadata
     id="metadata28">
    <rdf:RDF>
      <cc:Work
         rdf:about="">
        <dc:format>image/svg+xml</dc:format>
        <dc:type
           rdf:resource="http://purl.org/dc/dcmitype/StillImage" />
      </cc:Work>
    </rdf:RDF>
  </metadata>
  <defs
     id="defs5">
    <clipPath
       id="clip1">
      <path
         id="path2"
         d="M 23 0 L 60.28125 0 L 60.28125 32.640625 L 23 32.640625 Z M 23 0 " />
    </clipPath>
  </defs>
  <g
     id="surface1">
    <path
       id="path7"
       transform="matrix(0.1,0,0,-0.1,0,32.64)"
       d="M 59.765625 190.61875 L 517.148438 190.61875 "
       style="fill:none;stroke-width:15.9404;stroke-linecap:butt;stroke-linejoin:miter;stroke:rgb(0%,0%,0%);stroke-opacity:1;stroke-miterlimit:10;" />
    <path
       id="path9"
       transform="matrix(0.1,0,0,-0.1,0,32.64)"
       d="M 55.78125 126.829687 L 55.78125 254.36875 "
       style="fill:none;stroke-width:15.9404;stroke-linecap:butt;stroke-linejoin:miter;stroke:rgb(0%,0%,0%);stroke-opacity:1;stroke-miterlimit:10;" />
    <g
       id="g13"
       clip-rule="nonzero"
       clip-path="url(#clip1)">
      <path
         id="path11"
         transform="matrix(0.1,0,0,-0.1,0,32.64)"
         d="M 517.148438 190.61875 L 533.085938 190.61875 L 464.375 132.9625 "
         style="fill:none;stroke-width:15.9404;stroke-linecap:butt;stroke-linejoin:miter;stroke:rgb(0%,0%,0%);stroke-opacity:1;stroke-miterlimit:10;" />
    </g>
    <path
       id="path15"
       d="M 30.625 6.699219 C 30.839844 6.699219 31.054688 6.699219 31.054688 6.460938 C 31.054688 6.222656 30.839844 6.222656 30.625 6.222656 L 21.765625 6.222656 C 22.421875 5.722656 22.742188 5.230469 22.839844 5.078125 C 23.375 4.253906 23.472656 3.503906 23.472656 3.492188 C 23.472656 3.347656 23.328125 3.347656 23.234375 3.347656 C 23.03125 3.347656 23.019531 3.371094 22.96875 3.585938 C 22.695313 4.753906 21.992188 5.746094 20.648438 6.304688 C 20.515625 6.351563 20.46875 6.375 20.46875 6.460938 C 20.46875 6.542969 20.527344 6.566406 20.648438 6.613281 C 21.886719 7.128906 22.683594 8.058594 22.984375 9.390625 C 23.019531 9.535156 23.03125 9.570313 23.234375 9.570313 C 23.328125 9.570313 23.472656 9.570313 23.472656 9.425781 C 23.472656 9.402344 23.363281 8.652344 22.863281 7.855469 C 22.625 7.496094 22.28125 7.078125 21.765625 6.699219 L 30.625 6.699219 "
       style=" stroke:none;fill-rule:nonzero;fill:rgb(0%,50%,0%);fill-opacity:1;" />
    <path
       id="path17"
       d="M 37.234375 6.675781 C 37.554688 6.675781 38.367188 6.652344 38.9375 6.433594 C 39.84375 6.089844 39.929688 5.398438 39.929688 5.183594 C 39.929688 4.660156 39.476563 4.183594 38.6875 4.183594 C 37.4375 4.183594 35.636719 5.316406 35.636719 7.4375 C 35.636719 8.6875 36.351563 9.558594 37.4375 9.558594 C 39.058594 9.558594 40.082031 8.296875 40.082031 8.140625 C 40.082031 8.070313 40.011719 8.011719 39.964844 8.011719 C 39.929688 8.011719 39.914063 8.019531 39.808594 8.128906 C 39.046875 9.140625 37.914063 9.320313 37.460938 9.320313 C 36.78125 9.320313 36.421875 8.785156 36.421875 7.902344 C 36.421875 7.734375 36.421875 7.4375 36.601563 6.675781 Z M 36.660156 6.433594 C 37.171875 4.601563 38.304688 4.421875 38.6875 4.421875 C 39.210938 4.421875 39.570313 4.730469 39.570313 5.183594 C 39.570313 6.433594 37.664063 6.433594 37.164063 6.433594 L 36.660156 6.433594 "
       style=" stroke:none;fill-rule:nonzero;fill:rgb(0%,50%,0%);fill-opacity:1;" />
    <path
       id="path19"
       d="M 24.316406 21.246094 C 24.554688 21.246094 24.648438 21.246094 24.648438 21.019531 C 24.648438 20.902344 24.554688 20.902344 24.339844 20.902344 L 23.375 20.902344 C 23.601563 19.675781 23.769531 18.828125 23.863281 18.445313 C 23.933594 18.160156 24.1875 17.886719 24.496094 17.886719 C 24.746094 17.886719 24.996094 17.992188 25.117188 18.101563 C 24.648438 18.148438 24.507813 18.496094 24.507813 18.695313 C 24.507813 18.933594 24.6875 19.078125 24.914063 19.078125 C 25.152344 19.078125 25.507813 18.875 25.507813 18.421875 C 25.507813 17.921875 25.007813 17.648438 24.484375 17.648438 C 23.96875 17.648438 23.46875 18.027344 23.230469 18.496094 C 23.015625 18.910156 22.898438 19.339844 22.625 20.902344 L 21.824219 20.902344 C 21.597656 20.902344 21.480469 20.902344 21.480469 21.117188 C 21.480469 21.246094 21.550781 21.246094 21.789063 21.246094 L 22.550781 21.246094 C 22.335938 22.355469 21.847656 25.050781 21.574219 26.324219 C 21.371094 27.363281 21.195313 28.234375 20.597656 28.234375 C 20.5625 28.234375 20.214844 28.234375 20 28.007813 C 20.609375 27.957031 20.609375 27.433594 20.609375 27.421875 C 20.609375 27.183594 20.429688 27.042969 20.203125 27.042969 C 19.964844 27.042969 19.609375 27.246094 19.609375 27.695313 C 19.609375 28.207031 20.132813 28.472656 20.597656 28.472656 C 21.8125 28.472656 22.3125 26.289063 22.445313 25.695313 C 22.660156 24.777344 23.242188 21.605469 23.304688 21.246094 L 24.316406 21.246094 "
       style=" stroke:none;fill-rule:nonzero;fill:rgb(0%,50%,0%);fill-opacity:1;" />
    <path
       id="path21"
       d="M 39.242188 23.296875 C 38.585938 23.800781 38.265625 24.289063 38.167969 24.441406 C 37.632813 25.265625 37.539063 26.015625 37.539063 26.027344 C 37.539063 26.171875 37.679688 26.171875 37.773438 26.171875 C 37.976563 26.171875 37.992188 26.148438 38.039063 25.933594 C 38.3125 24.765625 39.015625 23.761719 40.363281 23.214844 C 40.503906 23.167969 40.539063 23.144531 40.539063 23.058594 C 40.539063 22.976563 40.46875 22.941406 40.445313 22.929688 C 39.921875 22.726563 38.476563 22.128906 38.023438 20.128906 C 37.992188 19.984375 37.976563 19.949219 37.773438 19.949219 C 37.679688 19.949219 37.539063 19.949219 37.539063 20.089844 C 37.539063 20.113281 37.644531 20.867188 38.144531 21.664063 C 38.382813 22.023438 38.730469 22.441406 39.242188 22.820313 L 30.382813 22.820313 C 30.171875 22.820313 29.957031 22.820313 29.957031 23.058594 C 29.957031 23.296875 30.171875 23.296875 30.382813 23.296875 L 39.242188 23.296875 "
       style=" stroke:none;fill-rule:nonzero;fill:rgb(0%,50%,0%);fill-opacity:1;" />
  </g>
</svg>
