<?xml version="1.0" encoding="UTF-8" standalone="no"?>
<svg
   xmlns:dc="http://purl.org/dc/elements/1.1/"
   xmlns:cc="http://creativecommons.org/ns#"
   xmlns:rdf="http://www.w3.org/1999/02/22-rdf-syntax-ns#"
   xmlns:svg="http://www.w3.org/2000/svg"
   xmlns="http://www.w3.org/2000/svg"
   id="svg45"
   version="1.2"
   viewBox="0 0 151.38 128.81"
   height="128.81pt"
   width="151.38pt">
  <metadata
     id="metadata49">
    <rdf:RDF>
      <cc:Work
         rdf:about="">
        <dc:format>image/svg+xml</dc:format>
        <dc:type
           rdf:resource="http://purl.org/dc/dcmitype/StillImage" />
      </cc:Work>
    </rdf:RDF>
  </metadata>
  <defs
     id="defs8">
    <clipPath
       id="clip1">
      <path
         id="path2"
         d="M 114 6 L 151.378906 6 L 151.378906 58 L 114 58 Z M 114 6 " />
    </clipPath>
    <clipPath
       id="clip2">
      <path
         id="path5"
         d="M 114 72 L 151.378906 72 L 151.378906 124 L 114 124 Z M 114 72 " />
    </clipPath>
  </defs>
  <g
     id="surface1">
    <path
       id="path10"
       transform="matrix(0.1,0,0,-0.1,0,128.81)"
       d="M 303.554688 743.56875 L 757.109375 743.56875 L 757.109375 1197.123437 L 303.554688 1197.123437 Z M 303.554688 743.56875 "
       style="fill:none;stroke-width:15.9404;stroke-linecap:butt;stroke-linejoin:miter;stroke:rgb(0%,0%,0%);stroke-opacity:1;stroke-miterlimit:10;" />
    <path
       id="path12"
       d="M 52.855469 26.988281 C 53.011719 26.351563 53.078125 26.316406 53.753906 26.316406 L 54.996094 26.316406 C 56.480469 26.316406 57.585938 26.765625 57.585938 28.113281 C 57.585938 28.992188 57.136719 31.53125 53.667969 31.53125 L 51.714844 31.53125 Z M 55.257813 31.738281 C 57.398438 31.273438 59.070313 29.890625 59.070313 28.40625 C 59.070313 27.058594 57.707031 25.816406 55.308594 25.816406 L 50.628906 25.816406 C 50.28125 25.816406 50.125 25.816406 50.125 26.144531 C 50.125 26.316406 50.246094 26.316406 50.574219 26.316406 C 51.613281 26.316406 51.613281 26.453125 51.613281 26.644531 C 51.613281 26.679688 51.613281 26.78125 51.542969 27.039063 L 49.210938 36.332031 C 49.054688 36.9375 49.023438 37.109375 47.828125 37.109375 C 47.433594 37.109375 47.3125 37.109375 47.3125 37.4375 C 47.3125 37.609375 47.5 37.609375 47.554688 37.609375 C 47.863281 37.609375 48.226563 37.574219 48.554688 37.574219 L 50.59375 37.574219 C 50.902344 37.574219 51.265625 37.609375 51.578125 37.609375 C 51.714844 37.609375 51.90625 37.609375 51.90625 37.28125 C 51.90625 37.109375 51.75 37.109375 51.492188 37.109375 C 50.4375 37.109375 50.4375 36.972656 50.4375 36.800781 C 50.4375 36.78125 50.4375 36.660156 50.472656 36.523438 L 51.628906 31.878906 L 53.703125 31.878906 C 55.34375 31.878906 55.652344 32.914063 55.652344 33.480469 C 55.652344 33.742188 55.480469 34.414063 55.359375 34.863281 C 55.167969 35.660156 55.117188 35.847656 55.117188 36.175781 C 55.117188 37.402344 56.117188 37.972656 57.277344 37.972656 C 58.675781 37.972656 59.28125 36.261719 59.28125 36.019531 C 59.28125 35.902344 59.195313 35.847656 59.089844 35.847656 C 58.953125 35.847656 58.917969 35.953125 58.882813 36.089844 C 58.46875 37.316406 57.757813 37.628906 57.328125 37.628906 C 56.898438 37.628906 56.621094 37.4375 56.621094 36.660156 C 56.621094 36.246094 56.828125 34.675781 56.84375 34.589844 C 56.929688 33.949219 56.929688 33.878906 56.929688 33.742188 C 56.929688 32.480469 55.914063 31.945313 55.257813 31.738281 "
       style=" stroke:none;fill-rule:nonzero;fill:rgb(0%,0%,100%);fill-opacity:1;" />
    <path
       id="path14"
       d="M 102.195313 34.609375 L 102.195313 28.941406 L 109.335938 31.773438 "
       style=" stroke:none;fill-rule:nonzero;fill:rgb(0%,0%,0%);fill-opacity:1;" />
    <path
       id="path16"
       transform="matrix(0.1,0,0,-0.1,0,128.81)"
       d="M 1021.953125 942.00625 L 1021.953125 998.685937 L 1093.359375 970.365625 Z M 1021.953125 942.00625 "
       style="fill:none;stroke-width:15.9404;stroke-linecap:butt;stroke-linejoin:miter;stroke:rgb(0%,0%,0%);stroke-opacity:1;stroke-miterlimit:10;" />
    <path
       id="path18"
       transform="matrix(0.1,0,0,-0.1,0,128.81)"
       d="M 1021.953125 970.365625 L 1101.328125 970.365625 "
       style="fill:none;stroke-width:15.9404;stroke-linecap:butt;stroke-linejoin:miter;stroke:rgb(0%,0%,0%);stroke-opacity:1;stroke-miterlimit:10;" />
    <path
       id="path20"
       d="M 105.390625 20.804688 C 105.859375 20.804688 107.03125 20.769531 107.859375 20.457031 C 109.171875 19.957031 109.292969 18.953125 109.292969 18.644531 C 109.292969 17.886719 108.636719 17.195313 107.496094 17.195313 C 105.683594 17.195313 103.078125 18.835938 103.078125 21.90625 C 103.078125 23.722656 104.113281 24.984375 105.683594 24.984375 C 108.03125 24.984375 109.519531 23.152344 109.519531 22.925781 C 109.519531 22.824219 109.414063 22.738281 109.34375 22.738281 C 109.292969 22.738281 109.277344 22.753906 109.121094 22.910156 C 108.015625 24.378906 106.375 24.636719 105.71875 24.636719 C 104.734375 24.636719 104.21875 23.859375 104.21875 22.582031 C 104.21875 22.339844 104.21875 21.90625 104.476563 20.804688 Z M 104.5625 20.457031 C 105.304688 17.800781 106.945313 17.539063 107.496094 17.539063 C 108.257813 17.539063 108.777344 17.988281 108.777344 18.644531 C 108.777344 20.457031 106.011719 20.457031 105.289063 20.457031 L 104.5625 20.457031 "
       style=" stroke:none;fill-rule:nonzero;fill:rgb(0%,0%,100%);fill-opacity:1;" />
    <path
       id="path22"
       d="M 142.285156 31.773438 C 142.285156 30.210938 141.015625 28.941406 139.449219 28.941406 C 137.882813 28.941406 136.613281 30.210938 136.613281 31.773438 C 136.613281 33.339844 137.882813 34.609375 139.449219 34.609375 C 141.015625 34.609375 142.285156 33.339844 142.285156 31.773438 Z M 142.285156 31.773438 "
       style=" stroke:none;fill-rule:nonzero;fill:rgb(0%,0%,0%);fill-opacity:1;" />
    <g
       id="g26"
       clip-rule="nonzero"
       clip-path="url(#clip1)">
      <path
         id="path24"
         transform="matrix(0.1,0,0,-0.1,0,128.81)"
         d="M 1422.851563 970.365625 C 1422.851563 985.990625 1410.15625 998.685937 1394.492188 998.685937 C 1378.828125 998.685937 1366.132813 985.990625 1366.132813 970.365625 C 1366.132813 954.701562 1378.828125 942.00625 1394.492188 942.00625 C 1410.15625 942.00625 1422.851563 954.701562 1422.851563 970.365625 Z M 1422.851563 970.365625 "
         style="fill:none;stroke-width:15.9404;stroke-linecap:butt;stroke-linejoin:miter;stroke:rgb(0%,0%,0%);stroke-opacity:1;stroke-miterlimit:10;" />
    </g>
    <path
       id="path28"
       d="M 110.132813 94.996094 L 110.132813 100.667969 L 102.992188 97.832031 "
       style=" stroke:none;fill-rule:nonzero;fill:rgb(0%,0%,0%);fill-opacity:1;" />
    <path
       id="path30"
       transform="matrix(0.1,0,0,-0.1,0,128.81)"
       d="M 1101.328125 338.139062 L 1101.328125 281.420312 L 1029.921875 309.779687 Z M 1101.328125 338.139062 "
       style="fill:none;stroke-width:15.9404;stroke-linecap:butt;stroke-linejoin:miter;stroke:rgb(0%,0%,0%);stroke-opacity:1;stroke-miterlimit:10;" />
    <path
       id="path32"
       transform="matrix(0.1,0,0,-0.1,0,128.81)"
       d="M 1101.328125 309.779687 L 1021.953125 309.779687 "
       style="fill:none;stroke-width:15.9404;stroke-linecap:butt;stroke-linejoin:miter;stroke:rgb(0%,0%,0%);stroke-opacity:1;stroke-miterlimit:10;" />
    <path
       id="path34"
       d="M 108.800781 80.566406 C 109.148438 80.566406 109.285156 80.566406 109.285156 80.238281 C 109.285156 80.066406 109.148438 80.066406 108.835938 80.066406 L 107.4375 80.066406 C 107.765625 78.289063 108.007813 77.0625 108.144531 76.511719 C 108.25 76.09375 108.613281 75.699219 109.0625 75.699219 C 109.421875 75.699219 109.785156 75.855469 109.960938 76.007813 C 109.285156 76.078125 109.078125 76.578125 109.078125 76.871094 C 109.078125 77.21875 109.339844 77.425781 109.664063 77.425781 C 110.011719 77.425781 110.53125 77.132813 110.53125 76.476563 C 110.53125 75.75 109.804688 75.351563 109.042969 75.351563 C 108.300781 75.351563 107.578125 75.90625 107.230469 76.578125 C 106.921875 77.183594 106.746094 77.804688 106.351563 80.066406 L 105.191406 80.066406 C 104.863281 80.066406 104.691406 80.066406 104.691406 80.378906 C 104.691406 80.566406 104.796875 80.566406 105.140625 80.566406 L 106.246094 80.566406 C 105.9375 82.175781 105.226563 86.078125 104.828125 87.925781 C 104.535156 89.425781 104.277344 90.6875 103.414063 90.6875 C 103.363281 90.6875 102.859375 90.6875 102.550781 90.359375 C 103.429688 90.289063 103.429688 89.53125 103.429688 89.511719 C 103.429688 89.167969 103.171875 88.960938 102.84375 88.960938 C 102.496094 88.960938 101.980469 89.253906 101.980469 89.910156 C 101.980469 90.652344 102.742188 91.035156 103.414063 91.035156 C 105.175781 91.035156 105.902344 87.871094 106.089844 87.007813 C 106.402344 85.679688 107.246094 81.085938 107.335938 80.566406 L 108.800781 80.566406 "
       style=" stroke:none;fill-rule:nonzero;fill:rgb(0%,0%,100%);fill-opacity:1;" />
    <path
       id="path36"
       d="M 142.285156 97.832031 C 142.285156 96.265625 141.015625 94.996094 139.449219 94.996094 C 137.882813 94.996094 136.613281 96.265625 136.613281 97.832031 C 136.613281 99.398438 137.882813 100.667969 139.449219 100.667969 C 141.015625 100.667969 142.285156 99.398438 142.285156 97.832031 Z M 142.285156 97.832031 "
       style=" stroke:none;fill-rule:nonzero;fill:rgb(0%,0%,0%);fill-opacity:1;" />
    <g
       id="g40"
       clip-rule="nonzero"
       clip-path="url(#clip2)">
      <path
         id="path38"
         transform="matrix(0.1,0,0,-0.1,0,128.81)"
         d="M 1422.851563 309.779687 C 1422.851563 325.44375 1410.15625 338.139062 1394.492188 338.139062 C 1378.828125 338.139062 1366.132813 325.44375 1366.132813 309.779687 C 1366.132813 294.115625 1378.828125 281.420312 1394.492188 281.420312 C 1410.15625 281.420312 1422.851563 294.115625 1422.851563 309.779687 Z M 1422.851563 309.779687 "
         style="fill:none;stroke-width:15.9404;stroke-linecap:butt;stroke-linejoin:miter;stroke:rgb(0%,0%,0%);stroke-opacity:1;stroke-miterlimit:10;" />
    </g>
    <path
       id="path42"
       transform="matrix(0.1,0,0,-0.1,0,128.81)"
       d="M 1362.148438 970.365625 L 1101.328125 970.365625 M 1021.953125 970.365625 L 765.117188 970.365625 M 295.625 970.365625 L 83.007813 970.365625 L 83.007813 309.779687 L 1021.953125 309.779687 M 1101.328125 309.779687 L 1362.148438 309.779687 "
       style="fill:none;stroke-width:15.9404;stroke-linecap:butt;stroke-linejoin:miter;stroke:rgb(0%,0%,0%);stroke-opacity:1;stroke-miterlimit:10;" />
  </g>
</svg>
