<?xml version="1.0" encoding="UTF-8" standalone="no"?>
<svg
   xmlns:dc="http://purl.org/dc/elements/1.1/"
   xmlns:cc="http://creativecommons.org/ns#"
   xmlns:rdf="http://www.w3.org/1999/02/22-rdf-syntax-ns#"
   xmlns:svg="http://www.w3.org/2000/svg"
   xmlns="http://www.w3.org/2000/svg"
   viewBox="0 0 359.33334 172.81332"
   height="172.81332"
   width="359.33334"
   xml:space="preserve"
   id="svg2"
   version="1.1"><metadata
     id="metadata8"><rdf:RDF><cc:Work
         rdf:about=""><dc:format>image/svg+xml</dc:format><dc:type
           rdf:resource="http://purl.org/dc/dcmitype/StillImage" /></cc:Work></rdf:RDF></metadata><defs
     id="defs6" /><g
     transform="matrix(1.3333333,0,0,-1.3333333,0,172.81333)"
     id="g10"><g
       transform="scale(0.1)"
       id="g12"><path
         id="path14"
         style="fill:#000000;fill-opacity:1;fill-rule:nonzero;stroke:none"
         d="m 147.668,978.328 c 0,15.656 -12.691,28.352 -28.348,28.352 -15.656,0 -28.3473,-12.696 -28.3473,-28.352 0,-15.652 12.6913,-28.344 28.3473,-28.344 15.657,0 28.348,12.692 28.348,28.344 z" /><path
         id="path16"
         style="fill:none;stroke:#000000;stroke-width:15.9404;stroke-linecap:butt;stroke-linejoin:miter;stroke-miterlimit:10;stroke-dasharray:none;stroke-opacity:1"
         d="m 147.668,978.328 c 0,15.656 -12.691,28.352 -28.348,28.352 -15.656,0 -28.3473,-12.696 -28.3473,-28.352 0,-15.652 12.6913,-28.344 28.3473,-28.344 15.657,0 28.348,12.692 28.348,28.344 z" /><path
         id="path18"
         style="fill:#000000;fill-opacity:1;fill-rule:nonzero;stroke:none"
         d="m 435.055,949.984 v 56.696 l 71.398,-28.352" /><path
         id="path20"
         style="fill:none;stroke:#000000;stroke-width:15.9404;stroke-linecap:butt;stroke-linejoin:miter;stroke-miterlimit:10;stroke-dasharray:none;stroke-opacity:1"
         d="m 435.055,949.984 v 56.696 l 71.398,-28.352 z" /><path
         id="path22"
         style="fill:none;stroke:#000000;stroke-width:15.9404;stroke-linecap:butt;stroke-linejoin:miter;stroke-miterlimit:10;stroke-dasharray:none;stroke-opacity:1"
         d="m 435.055,978.328 h 79.371" /><path
         id="path24"
         style="fill:#0000ff;fill-opacity:1;fill-rule:nonzero;stroke:none"
         d="m 434.906,1114.06 c 4.672,0 16.407,0.35 24.703,3.46 13.125,5.01 14.329,15.03 14.329,18.14 0,7.59 -6.563,14.5 -17.954,14.5 -18.14,0 -44.218,-16.41 -44.218,-47.14 0,-18.14 10.375,-30.75 26.078,-30.75 23.484,0 38.344,18.31 38.344,20.56 0,1.03 -1.032,1.89 -1.735,1.89 -0.515,0 -0.687,-0.17 -2.234,-1.72 -11.063,-14.69 -27.469,-17.27 -34.031,-17.27 -9.844,0 -15.016,7.77 -15.016,20.55 0,2.41 0,6.74 2.594,17.78 z m -8.281,3.46 c 7.422,26.59 23.828,29.18 29.359,29.18 7.594,0 12.782,-4.48 12.782,-11.04 0,-18.14 -27.641,-18.14 -34.891,-18.14 h -7.25" /><path
         id="path26"
         style="fill:#0000ff;fill-opacity:1;fill-rule:nonzero;stroke:none"
         d="m 516.328,1124.41 c 0,2.75 0,2.86 -2.375,2.86 -2.875,-3.22 -8.828,-7.63 -21.109,-7.63 v -3.45 c 2.75,0 8.703,0 15.265,3.09 v -62.11 c 0,-4.28 -0.359,-5.72 -10.843,-5.72 h -3.703 V 1048 c 3.218,0.23 14.781,0.23 18.718,0.23 3.938,0 15.375,0 18.594,-0.23 v 3.45 h -3.703 c -10.484,0 -10.844,1.44 -10.844,5.72 v 67.24" /><path
         id="path28"
         style="fill:none;stroke:#000000;stroke-width:15.9404;stroke-linecap:butt;stroke-linejoin:miter;stroke-miterlimit:10;stroke-dasharray:none;stroke-opacity:1"
         d="m 801.816,751.555 h 453.547 v 453.551 H 801.816 Z" /><path
         id="path30"
         style="fill:#0000ff;fill-opacity:1;fill-rule:nonzero;stroke:none"
         d="m 1033.33,1079.41 c 0,2.75 0,2.86 -2.38,2.86 -2.87,-3.22 -8.82,-7.63 -21.11,-7.63 v -3.45 c 2.75,0 8.71,0 15.27,3.09 v -62.11 c 0,-4.28 -0.36,-5.72 -10.84,-5.72 h -3.71 V 1003 c 3.22,0.23 14.78,0.23 18.72,0.23 3.94,0 15.38,0 18.6,-0.23 v 3.45 h -3.71 c -10.48,0 -10.84,1.44 -10.84,5.72 v 67.24" /><path
         id="path32"
         style="fill:none;stroke:#0000ff;stroke-width:3.985;stroke-linecap:butt;stroke-linejoin:miter;stroke-miterlimit:10;stroke-dasharray:none;stroke-opacity:1"
         d="m 999.32,978.629 h 58.53" /><path
         id="path34"
         style="fill:#0000ff;fill-opacity:1;fill-rule:nonzero;stroke:none"
         d="m 1047.38,924.75 c -3.71,-0.703 -5.61,-3.328 -5.61,-5.953 0,-2.859 2.26,-3.813 3.93,-3.813 3.35,0 6.08,2.86 6.08,6.438 0,3.812 -3.7,7.141 -9.65,7.141 -4.77,0 -10.25,-2.141 -15.25,-9.407 -0.85,6.313 -5.61,9.407 -10.38,9.407 -4.66,0 -7.03,-3.563 -8.47,-6.188 -2.03,-4.297 -3.81,-11.453 -3.81,-12.047 0,-0.469 0.48,-1.062 1.31,-1.062 0.95,0 1.08,0.109 1.78,2.859 1.8,7.141 4.07,14.063 8.83,14.063 2.86,0 3.69,-2.032 3.69,-5.485 0,-2.625 -1.19,-7.265 -2.02,-10.969 l -3.34,-12.875 c -0.47,-2.265 -1.78,-7.625 -2.38,-9.765 -0.84,-3.11 -2.15,-8.703 -2.15,-9.313 0,-1.656 1.31,-2.968 3.11,-2.968 1.29,0 3.56,0.828 4.28,3.218 0.36,0.953 4.76,18.953 5.48,21.688 0.6,2.625 1.32,5.125 1.91,7.75 0.48,1.672 0.95,3.578 1.31,5.125 0.36,1.078 3.58,6.922 6.56,9.531 1.43,1.313 4.54,4.063 9.41,4.063 1.91,0 3.83,-0.36 5.38,-1.438" /><path
         id="path36"
         style="fill:#000000;fill-opacity:1;fill-rule:nonzero;stroke:none"
         d="m 2259.91,1006.68 v -56.696 l -71.39,28.344" /><path
         id="path38"
         style="fill:none;stroke:#000000;stroke-width:15.9404;stroke-linecap:butt;stroke-linejoin:miter;stroke-miterlimit:10;stroke-dasharray:none;stroke-opacity:1"
         d="m 2259.91,1006.68 v -56.696 l -71.39,28.344 z" /><path
         id="path40"
         style="fill:none;stroke:#000000;stroke-width:15.9404;stroke-linecap:butt;stroke-linejoin:miter;stroke-miterlimit:10;stroke-dasharray:none;stroke-opacity:1"
         d="m 2259.91,978.328 h -79.37" /><path
         id="path42"
         style="fill:#0000ff;fill-opacity:1;fill-rule:nonzero;stroke:none"
         d="m 2179.91,1114.06 c 4.67,0 16.4,0.35 24.7,3.46 13.12,5.01 14.33,15.03 14.33,18.14 0,7.59 -6.56,14.5 -17.96,14.5 -18.14,0 -44.21,-16.41 -44.21,-47.14 0,-18.14 10.37,-30.75 26.07,-30.75 23.49,0 38.35,18.31 38.35,20.56 0,1.03 -1.03,1.89 -1.74,1.89 -0.51,0 -0.68,-0.17 -2.23,-1.72 -11.06,-14.69 -27.47,-17.27 -34.03,-17.27 -9.85,0 -15.02,7.77 -15.02,20.55 0,2.41 0,6.74 2.6,17.78 z m -8.28,3.46 c 7.42,26.59 23.82,29.18 29.35,29.18 7.6,0 12.79,-4.48 12.79,-11.04 0,-18.14 -27.64,-18.14 -34.89,-18.14 h -7.25" /><path
         id="path44"
         style="fill:#0000ff;fill-opacity:1;fill-rule:nonzero;stroke:none"
         d="m 2280.45,1068.03 h -2.62 c -0.36,-2.03 -1.31,-8.59 -2.5,-10.5 -0.85,-1.06 -7.64,-1.06 -11.2,-1.06 h -22.07 c 3.22,2.73 10.5,10.36 13.6,13.22 18.12,16.7 24.79,22.89 24.79,34.7 0,13.7 -10.84,22.88 -24.67,22.88 -13.83,0 -21.94,-11.8 -21.94,-22.05 0,-6.08 5.25,-6.08 5.6,-6.08 2.51,0 5.61,1.78 5.61,5.59 0,3.35 -2.27,5.61 -5.61,5.61 -1.06,0 -1.31,0 -1.66,-0.12 2.27,8.11 8.7,13.59 16.44,13.59 10.14,0 16.34,-8.47 16.34,-19.42 0,-10.14 -5.84,-18.95 -12.64,-26.59 l -24.08,-26.94 V 1048 h 43.5 l 3.11,20.03" /><path
         id="path46"
         style="fill:#000000;fill-opacity:1;fill-rule:nonzero;stroke:none"
         d="m 2604,978.328 c 0,15.656 -12.7,28.352 -28.35,28.352 -15.65,0 -28.35,-12.696 -28.35,-28.352 0,-15.652 12.7,-28.344 28.35,-28.344 15.65,0 28.35,12.692 28.35,28.344 z" /><path
         id="path48"
         style="fill:none;stroke:#000000;stroke-width:15.9404;stroke-linecap:butt;stroke-linejoin:miter;stroke-miterlimit:10;stroke-dasharray:none;stroke-opacity:1"
         d="m 2604,978.328 c 0,15.656 -12.7,28.352 -28.35,28.352 -15.65,0 -28.35,-12.696 -28.35,-28.352 0,-15.652 12.7,-28.344 28.35,-28.344 15.65,0 28.35,12.692 28.35,28.344 z" /><path
         id="path50"
         style="fill:#000000;fill-opacity:1;fill-rule:nonzero;stroke:none"
         d="m 147.668,317.75 c 0,15.656 -12.691,28.348 -28.348,28.348 -15.656,0 -28.3473,-12.692 -28.3473,-28.348 0,-15.656 12.6913,-28.348 28.3473,-28.348 15.657,0 28.348,12.692 28.348,28.348 z" /><path
         id="path52"
         style="fill:none;stroke:#000000;stroke-width:15.9404;stroke-linecap:butt;stroke-linejoin:miter;stroke-miterlimit:10;stroke-dasharray:none;stroke-opacity:1"
         d="m 147.668,317.75 c 0,15.656 -12.691,28.348 -28.348,28.348 -15.656,0 -28.3473,-12.692 -28.3473,-28.348 0,-15.656 12.6913,-28.348 28.3473,-28.348 15.657,0 28.348,12.692 28.348,28.348 z" /><path
         id="path54"
         style="fill:#000000;fill-opacity:1;fill-rule:nonzero;stroke:none"
         d="M 514.426,346.098 V 289.402 L 443.023,317.75" /><path
         id="path56"
         style="fill:none;stroke:#000000;stroke-width:15.9404;stroke-linecap:butt;stroke-linejoin:miter;stroke-miterlimit:10;stroke-dasharray:none;stroke-opacity:1"
         d="M 514.426,346.098 V 289.402 L 443.023,317.75 Z" /><path
         id="path58"
         style="fill:none;stroke:#000000;stroke-width:15.9404;stroke-linecap:butt;stroke-linejoin:miter;stroke-miterlimit:10;stroke-dasharray:none;stroke-opacity:1"
         d="M 514.426,317.75 H 435.055" /><path
         id="path60"
         style="fill:#0000ff;fill-opacity:1;fill-rule:nonzero;stroke:none"
         d="m 478.016,490.422 c 3.453,0 4.843,0 4.843,3.281 0,1.735 -1.39,1.735 -4.5,1.735 h -13.984 c 3.281,17.781 5.703,30.046 7.078,35.562 1.047,4.156 4.672,8.125 9.156,8.125 3.625,0 7.25,-1.562 8.985,-3.109 -6.735,-0.688 -8.813,-5.703 -8.813,-8.641 0,-3.453 2.594,-5.516 5.875,-5.516 3.453,0 8.641,2.922 8.641,9.485 0,7.265 -7.266,11.234 -14.859,11.234 -7.422,0 -14.672,-5.531 -18.125,-12.265 -3.11,-6.047 -4.844,-12.266 -8.813,-34.875 h -11.578 c -3.281,0 -5,0 -5,-3.11 0,-1.906 1.031,-1.906 4.484,-1.906 h 11.063 c -3.11,-16.063 -10.188,-55.094 -14.172,-73.563 -2.938,-15.031 -5.516,-27.64 -14.156,-27.64 -0.516,0 -5.532,0 -8.641,3.281 8.813,0.703 8.813,8.297 8.813,8.469 0,3.453 -2.594,5.531 -5.875,5.531 -3.454,0 -8.625,-2.937 -8.625,-9.5 0,-7.437 7.593,-11.234 14.328,-11.234 17.609,0 24.875,31.609 26.765,40.25 3.11,13.297 11.578,59.218 12.438,64.406 h 14.672" /><path
         id="path62"
         style="fill:#0000ff;fill-opacity:1;fill-rule:nonzero;stroke:none"
         d="m 519.328,471.406 c 0,2.75 0,2.86 -2.375,2.86 -2.875,-3.219 -8.828,-7.625 -21.109,-7.625 v -3.453 c 2.75,0 8.703,0 15.265,3.093 v -62.109 c 0,-4.281 -0.359,-5.719 -10.843,-5.719 h -3.703 V 395 c 3.218,0.234 14.781,0.234 18.718,0.234 3.938,0 15.375,0 18.594,-0.234 v 3.453 h -3.703 c -10.484,0 -10.844,1.438 -10.844,5.719 v 67.234" /><path
         id="path64"
         style="fill:none;stroke:#000000;stroke-width:15.9404;stroke-linecap:butt;stroke-linejoin:miter;stroke-miterlimit:10;stroke-dasharray:none;stroke-opacity:1"
         d="m 801.816,90.9766 h 453.547 v 453.547 H 801.816 Z" /><path
         id="path66"
         style="fill:#0000ff;fill-opacity:1;fill-rule:nonzero;stroke:none"
         d="m 1033.33,419.406 c 0,2.75 0,2.86 -2.38,2.86 -2.87,-3.219 -8.82,-7.625 -21.11,-7.625 v -3.453 c 2.75,0 8.71,0 15.27,3.093 v -62.109 c 0,-4.281 -0.36,-5.719 -10.84,-5.719 h -3.71 V 343 c 3.22,0.234 14.78,0.234 18.72,0.234 3.94,0 15.38,0 18.6,-0.234 v 3.453 h -3.71 c -10.48,0 -10.84,1.438 -10.84,5.719 v 67.234" /><path
         id="path68"
         style="fill:none;stroke:#0000ff;stroke-width:3.985;stroke-linecap:butt;stroke-linejoin:miter;stroke-miterlimit:10;stroke-dasharray:none;stroke-opacity:1"
         d="m 999.32,318.059 h 58.53" /><path
         id="path70"
         style="fill:#0000ff;fill-opacity:1;fill-rule:nonzero;stroke:none"
         d="m 1047.38,264.75 c -3.71,-0.703 -5.61,-3.328 -5.61,-5.953 0,-2.859 2.26,-3.813 3.93,-3.813 3.35,0 6.08,2.86 6.08,6.438 0,3.812 -3.7,7.141 -9.65,7.141 -4.77,0 -10.25,-2.141 -15.25,-9.407 -0.85,6.313 -5.61,9.407 -10.38,9.407 -4.66,0 -7.03,-3.563 -8.47,-6.188 -2.03,-4.297 -3.81,-11.453 -3.81,-12.047 0,-0.469 0.48,-1.062 1.31,-1.062 0.95,0 1.08,0.109 1.78,2.859 1.8,7.141 4.07,14.063 8.83,14.063 2.86,0 3.69,-2.032 3.69,-5.485 0,-2.625 -1.19,-7.265 -2.02,-10.969 l -3.34,-12.875 c -0.47,-2.265 -1.78,-7.625 -2.38,-9.765 -0.84,-3.11 -2.15,-8.703 -2.15,-9.313 0,-1.656 1.31,-2.968 3.11,-2.968 1.29,0 3.56,0.828 4.28,3.218 0.36,0.953 4.76,18.953 5.48,21.688 0.6,2.625 1.32,5.125 1.91,7.75 0.48,1.672 0.95,3.578 1.31,5.125 0.36,1.078 3.58,6.922 6.56,9.531 1.43,1.313 4.54,4.063 9.41,4.063 1.91,0 3.83,-0.36 5.38,-1.438" /><path
         id="path72"
         style="fill:#000000;fill-opacity:1;fill-rule:nonzero;stroke:none"
         d="m 2180.54,289.402 v 56.696 l 71.41,-28.348" /><path
         id="path74"
         style="fill:none;stroke:#000000;stroke-width:15.9404;stroke-linecap:butt;stroke-linejoin:miter;stroke-miterlimit:10;stroke-dasharray:none;stroke-opacity:1"
         d="m 2180.54,289.402 v 56.696 l 71.41,-28.348 z" /><path
         id="path76"
         style="fill:none;stroke:#000000;stroke-width:15.9404;stroke-linecap:butt;stroke-linejoin:miter;stroke-miterlimit:10;stroke-dasharray:none;stroke-opacity:1"
         d="m 2180.54,317.75 h 79.37" /><path
         id="path78"
         style="fill:#0000ff;fill-opacity:1;fill-rule:nonzero;stroke:none"
         d="m 2224.02,490.422 c 3.45,0 4.84,0 4.84,3.281 0,1.735 -1.39,1.735 -4.5,1.735 h -13.98 c 3.28,17.781 5.7,30.046 7.07,35.562 1.05,4.156 4.68,8.125 9.16,8.125 3.62,0 7.25,-1.562 8.98,-3.109 -6.73,-0.688 -8.81,-5.703 -8.81,-8.641 0,-3.453 2.6,-5.516 5.88,-5.516 3.45,0 8.64,2.922 8.64,9.485 0,7.265 -7.27,11.234 -14.86,11.234 -7.42,0 -14.67,-5.531 -18.13,-12.265 -3.11,-6.047 -4.84,-12.266 -8.81,-34.875 h -11.58 c -3.28,0 -5,0 -5,-3.11 0,-1.906 1.03,-1.906 4.49,-1.906 h 11.06 c -3.11,-16.063 -10.19,-55.094 -14.17,-73.563 -2.94,-15.031 -5.52,-27.64 -14.16,-27.64 -0.51,0 -5.53,0 -8.64,3.281 8.81,0.703 8.81,8.297 8.81,8.469 0,3.453 -2.59,5.531 -5.87,5.531 -3.46,0 -8.63,-2.937 -8.63,-9.5 0,-7.437 7.6,-11.234 14.33,-11.234 17.61,0 24.88,31.609 26.77,40.25 3.11,13.297 11.57,59.218 12.43,64.406 h 14.68" /><path
         id="path80"
         style="fill:#0000ff;fill-opacity:1;fill-rule:nonzero;stroke:none"
         d="m 2282.45,415.031 h -2.62 c -0.36,-2.031 -1.31,-8.593 -2.5,-10.5 -0.85,-1.062 -7.64,-1.062 -11.2,-1.062 h -22.07 c 3.22,2.734 10.5,10.359 13.6,13.219 18.12,16.703 24.79,22.89 24.79,34.703 0,13.703 -10.84,22.875 -24.67,22.875 -13.83,0 -21.94,-11.797 -21.94,-22.047 0,-6.078 5.25,-6.078 5.6,-6.078 2.51,0 5.61,1.781 5.61,5.593 0,3.344 -2.27,5.61 -5.61,5.61 -1.06,0 -1.31,0 -1.66,-0.125 2.27,8.109 8.7,13.594 16.44,13.594 10.14,0 16.34,-8.469 16.34,-19.422 0,-10.141 -5.84,-18.953 -12.64,-26.594 l -24.08,-26.938 V 395 h 43.5 l 3.11,20.031" /><path
         id="path82"
         style="fill:#000000;fill-opacity:1;fill-rule:nonzero;stroke:none"
         d="m 2604,317.75 c 0,15.656 -12.7,28.348 -28.35,28.348 -15.65,0 -28.35,-12.692 -28.35,-28.348 0,-15.656 12.7,-28.348 28.35,-28.348 15.65,0 28.35,12.692 28.35,28.348 z" /><path
         id="path84"
         style="fill:none;stroke:#000000;stroke-width:15.9404;stroke-linecap:butt;stroke-linejoin:miter;stroke-miterlimit:10;stroke-dasharray:none;stroke-opacity:1"
         d="m 2604,317.75 c 0,15.656 -12.7,28.348 -28.35,28.348 -15.65,0 -28.35,-12.692 -28.35,-28.348 0,-15.656 12.7,-28.348 28.35,-28.348 15.65,0 28.35,12.692 28.35,28.348 z" /><path
         id="path86"
         style="fill:none;stroke:#000000;stroke-width:15.9404;stroke-linecap:butt;stroke-linejoin:miter;stroke-miterlimit:10;stroke-dasharray:none;stroke-opacity:1"
         d="m 151.656,978.332 h 283.407 m 79.371,0 h 279.421 m 469.485,0 h 212.61 L 1901.14,317.75 h 279.43 m 79.37,0 h 283.41" /><path
         id="path88"
         style="fill:none;stroke:#000000;stroke-width:15.9404;stroke-linecap:round;stroke-linejoin:miter;stroke-miterlimit:10;stroke-dasharray:none;stroke-opacity:1"
         d="m 1657.51,599.828 c -26.33,16.949 -33.94,52.027 -16.99,78.356 16.95,26.328 52.03,33.933 78.36,16.984 v 0" /><path
         id="path90"
         style="fill:none;stroke:#000000;stroke-width:15.9404;stroke-linecap:butt;stroke-linejoin:miter;stroke-miterlimit:10;stroke-dasharray:none;stroke-opacity:1"
         d="m 151.656,317.75 h 283.407 m 79.371,0 h 279.421 m 469.485,0 h 212.61 l 181.56,282.086 m 61.36,95.328 182.24,283.113 0.04,0.055 h 279.42 m 79.37,0 h 283.41" /></g></g></svg>
