<?xml version="1.0" encoding="UTF-8" standalone="no"?>
<svg
   xmlns:dc="http://purl.org/dc/elements/1.1/"
   xmlns:cc="http://creativecommons.org/ns#"
   xmlns:rdf="http://www.w3.org/1999/02/22-rdf-syntax-ns#"
   xmlns:svg="http://www.w3.org/2000/svg"
   xmlns="http://www.w3.org/2000/svg"
   id="svg79"
   version="1.2"
   viewBox="0 0 205.72 129.61"
   height="129.61pt"
   width="205.72pt">
  <metadata
     id="metadata83">
    <rdf:RDF>
      <cc:Work
         rdf:about="">
        <dc:format>image/svg+xml</dc:format>
        <dc:type
           rdf:resource="http://purl.org/dc/dcmitype/StillImage" />
      </cc:Work>
    </rdf:RDF>
  </metadata>
  <defs
     id="defs8">
    <clipPath
       id="clip1">
      <path
         id="path2"
         d="M 168 6 L 205.71875 6 L 205.71875 58 L 168 58 Z M 168 6 " />
    </clipPath>
    <clipPath
       id="clip2">
      <path
         id="path5"
         d="M 168 72 L 205.71875 72 L 205.71875 124 L 168 124 Z M 168 72 " />
    </clipPath>
  </defs>
  <g
     id="surface1">
    <path
       id="path10"
       transform="matrix(0.1,0,0,-0.1,0,129.61)"
       d="M 147.695313 978.326562 C 147.695313 993.990625 135 1006.685937 119.335938 1006.685937 C 103.671875 1006.685937 90.976563 993.990625 90.976563 978.326562 C 90.976563 962.6625 103.671875 949.967187 119.335938 949.967187 C 135 949.967187 147.695313 962.6625 147.695313 978.326562 Z M 147.695313 978.326562 "
       style="fill-rule:nonzero;fill:rgb(0%,0%,0%);fill-opacity:1;stroke-width:15.9404;stroke-linecap:butt;stroke-linejoin:miter;stroke:rgb(0%,0%,0%);stroke-opacity:1;stroke-miterlimit:10;" />
    <path
       id="path12"
       d="M 51.445313 28.941406 L 51.445313 34.613281 L 44.304688 31.777344 "
       style=" stroke:none;fill-rule:nonzero;fill:rgb(0%,0%,0%);fill-opacity:1;" />
    <path
       id="path14"
       transform="matrix(0.1,0,0,-0.1,0,129.61)"
       d="M 514.453125 1006.685937 L 514.453125 949.967187 L 443.046875 978.326562 Z M 514.453125 1006.685937 "
       style="fill:none;stroke-width:15.9404;stroke-linecap:butt;stroke-linejoin:miter;stroke:rgb(0%,0%,0%);stroke-opacity:1;stroke-miterlimit:10;" />
    <path
       id="path16"
       transform="matrix(0.1,0,0,-0.1,0,129.61)"
       d="M 514.453125 978.326562 L 435.078125 978.326562 "
       style="fill:none;stroke-width:15.9404;stroke-linecap:butt;stroke-linejoin:miter;stroke:rgb(0%,0%,0%);stroke-opacity:1;stroke-miterlimit:10;" />
    <path
       id="path18"
       d="M 43.492188 18.203125 C 43.957031 18.203125 45.132813 18.167969 45.960938 17.859375 C 47.273438 17.355469 47.394531 16.355469 47.394531 16.042969 C 47.394531 15.285156 46.738281 14.59375 45.597656 14.59375 C 43.785156 14.59375 41.175781 16.234375 41.175781 19.308594 C 41.175781 21.121094 42.214844 22.382813 43.785156 22.382813 C 46.132813 22.382813 47.617188 20.550781 47.617188 20.328125 C 47.617188 20.222656 47.515625 20.136719 47.445313 20.136719 C 47.394531 20.136719 47.375 20.15625 47.222656 20.308594 C 46.117188 21.777344 44.476563 22.035156 43.820313 22.035156 C 42.835938 22.035156 42.316406 21.261719 42.316406 19.980469 C 42.316406 19.742188 42.316406 19.308594 42.578125 18.203125 Z M 42.664063 17.859375 C 43.40625 15.199219 45.046875 14.941406 45.597656 14.941406 C 46.359375 14.941406 46.875 15.386719 46.875 16.042969 C 46.875 17.859375 44.113281 17.859375 43.386719 17.859375 L 42.664063 17.859375 "
       style=" stroke:none;fill-rule:nonzero;fill:rgb(0%,0%,100%);fill-opacity:1;" />
    <path
       id="path20"
       d="M 51.632813 17.167969 C 51.632813 16.894531 51.632813 16.882813 51.394531 16.882813 C 51.109375 17.203125 50.511719 17.644531 49.285156 17.644531 L 49.285156 17.992188 C 49.558594 17.992188 50.15625 17.992188 50.8125 17.683594 L 50.8125 23.894531 C 50.8125 24.320313 50.773438 24.464844 49.726563 24.464844 L 49.355469 24.464844 L 49.355469 24.808594 C 49.679688 24.785156 50.835938 24.785156 51.226563 24.785156 C 51.621094 24.785156 52.765625 24.785156 53.085938 24.808594 L 53.085938 24.464844 L 52.71875 24.464844 C 51.667969 24.464844 51.632813 24.320313 51.632813 23.894531 L 51.632813 17.167969 "
       style=" stroke:none;fill-rule:nonzero;fill:rgb(0%,0%,100%);fill-opacity:1;" />
    <path
       id="path22"
       transform="matrix(0.1,0,0,-0.1,0,129.61)"
       d="M 801.796875 751.56875 L 1255.351563 751.56875 L 1255.351563 1205.123437 L 801.796875 1205.123437 Z M 801.796875 751.56875 "
       style="fill:none;stroke-width:15.9404;stroke-linecap:butt;stroke-linejoin:miter;stroke:rgb(0%,0%,0%);stroke-opacity:1;stroke-miterlimit:10;" />
    <path
       id="path24"
       d="M 101.359375 30.449219 C 101.390625 30.347656 101.824219 29.484375 102.464844 28.929688 C 102.914063 28.515625 103.496094 28.238281 104.171875 28.238281 C 104.863281 28.238281 105.105469 28.757813 105.105469 29.449219 C 105.105469 30.433594 104.398438 32.402344 104.050781 33.332031 C 103.894531 33.75 103.808594 33.972656 103.808594 34.285156 C 103.808594 35.0625 104.34375 35.683594 105.171875 35.683594 C 106.78125 35.683594 107.382813 33.144531 107.382813 33.042969 C 107.382813 32.953125 107.316406 32.886719 107.214844 32.886719 C 107.054688 32.886719 107.039063 32.9375 106.953125 33.230469 C 106.554688 34.644531 105.898438 35.335938 105.226563 35.335938 C 105.054688 35.335938 104.777344 35.320313 104.777344 34.769531 C 104.777344 34.335938 104.96875 33.816406 105.070313 33.574219 C 105.414063 32.625 106.140625 30.691406 106.140625 29.707031 C 106.140625 28.671875 105.535156 27.894531 104.222656 27.894531 C 102.6875 27.894531 101.875 28.980469 101.5625 29.414063 C 101.511719 28.429688 100.804688 27.894531 100.046875 27.894531 C 99.492188 27.894531 99.113281 28.222656 98.820313 28.808594 C 98.507813 29.433594 98.265625 30.46875 98.265625 30.535156 C 98.265625 30.605469 98.335938 30.691406 98.457031 30.691406 C 98.59375 30.691406 98.609375 30.675781 98.714844 30.277344 C 98.992188 29.222656 99.304688 28.238281 99.992188 28.238281 C 100.390625 28.238281 100.527344 28.515625 100.527344 29.03125 C 100.527344 29.414063 100.355469 30.089844 100.234375 30.621094 L 99.75 32.488281 C 99.683594 32.816406 99.492188 33.59375 99.40625 33.902344 C 99.285156 34.351563 99.09375 35.164063 99.09375 35.25 C 99.09375 35.492188 99.285156 35.683594 99.542969 35.683594 C 99.75 35.683594 99.992188 35.578125 100.132813 35.320313 C 100.164063 35.234375 100.320313 34.628906 100.40625 34.285156 L 100.789063 32.730469 L 101.359375 30.449219 "
       style=" stroke:none;fill-rule:nonzero;fill:rgb(0%,0%,100%);fill-opacity:1;" />
    <path
       id="path26"
       d="M 162.210938 28.941406 L 162.210938 34.613281 L 155.070313 31.777344 "
       style=" stroke:none;fill-rule:nonzero;fill:rgb(0%,0%,0%);fill-opacity:1;" />
    <path
       id="path28"
       transform="matrix(0.1,0,0,-0.1,0,129.61)"
       d="M 1622.109375 1006.685937 L 1622.109375 949.967187 L 1550.703125 978.326562 Z M 1622.109375 1006.685937 "
       style="fill:none;stroke-width:15.9404;stroke-linecap:butt;stroke-linejoin:miter;stroke:rgb(0%,0%,0%);stroke-opacity:1;stroke-miterlimit:10;" />
    <path
       id="path30"
       transform="matrix(0.1,0,0,-0.1,0,129.61)"
       d="M 1622.109375 978.326562 L 1542.734375 978.326562 "
       style="fill:none;stroke-width:15.9404;stroke-linecap:butt;stroke-linejoin:miter;stroke:rgb(0%,0%,0%);stroke-opacity:1;stroke-miterlimit:10;" />
    <path
       id="path32"
       d="M 154.289063 18.203125 C 154.757813 18.203125 155.929688 18.167969 156.761719 17.859375 C 158.074219 17.355469 158.195313 16.355469 158.195313 16.042969 C 158.195313 15.285156 157.539063 14.59375 156.398438 14.59375 C 154.585938 14.59375 151.976563 16.234375 151.976563 19.308594 C 151.976563 21.121094 153.015625 22.382813 154.585938 22.382813 C 156.933594 22.382813 158.417969 20.550781 158.417969 20.328125 C 158.417969 20.222656 158.316406 20.136719 158.246094 20.136719 C 158.195313 20.136719 158.175781 20.15625 158.023438 20.308594 C 156.914063 21.777344 155.273438 22.035156 154.617188 22.035156 C 153.632813 22.035156 153.117188 21.261719 153.117188 19.980469 C 153.117188 19.742188 153.117188 19.308594 153.378906 18.203125 Z M 153.464844 17.859375 C 154.203125 15.199219 155.84375 14.941406 156.398438 14.941406 C 157.15625 14.941406 157.675781 15.386719 157.675781 16.042969 C 157.675781 17.859375 154.914063 17.859375 154.1875 17.859375 L 153.464844 17.859375 "
       style=" stroke:none;fill-rule:nonzero;fill:rgb(0%,0%,100%);fill-opacity:1;" />
    <path
       id="path34"
       d="M 164.246094 22.808594 L 163.984375 22.808594 C 163.945313 23.011719 163.851563 23.664063 163.734375 23.855469 C 163.648438 23.964844 162.96875 23.964844 162.613281 23.964844 L 160.40625 23.964844 C 160.726563 23.691406 161.457031 22.925781 161.765625 22.640625 C 163.578125 20.972656 164.246094 20.351563 164.246094 19.171875 C 164.246094 17.800781 163.160156 16.882813 161.777344 16.882813 C 160.394531 16.882813 159.585938 18.0625 159.585938 19.089844 C 159.585938 19.695313 160.109375 19.695313 160.144531 19.695313 C 160.394531 19.695313 160.703125 19.519531 160.703125 19.136719 C 160.703125 18.800781 160.476563 18.574219 160.144531 18.574219 C 160.039063 18.574219 160.011719 18.574219 159.976563 18.589844 C 160.203125 17.777344 160.847656 17.230469 161.621094 17.230469 C 162.636719 17.230469 163.257813 18.074219 163.257813 19.171875 C 163.257813 20.183594 162.671875 21.066406 161.992188 21.828125 L 159.585938 24.523438 L 159.585938 24.808594 L 163.933594 24.808594 L 164.246094 22.808594 "
       style=" stroke:none;fill-rule:nonzero;fill:rgb(0%,0%,100%);fill-opacity:1;" />
    <path
       id="path36"
       d="M 196.621094 31.777344 C 196.621094 30.210938 195.351563 28.941406 193.785156 28.941406 C 192.21875 28.941406 190.949219 30.210938 190.949219 31.777344 C 190.949219 33.34375 192.21875 34.613281 193.785156 34.613281 C 195.351563 34.613281 196.621094 33.34375 196.621094 31.777344 Z M 196.621094 31.777344 "
       style=" stroke:none;fill-rule:nonzero;fill:rgb(0%,0%,0%);fill-opacity:1;" />
    <g
       id="g40"
       clip-rule="nonzero"
       clip-path="url(#clip1)">
      <path
         id="path38"
         transform="matrix(0.1,0,0,-0.1,0,129.61)"
         d="M 1966.210938 978.326562 C 1966.210938 993.990625 1953.515625 1006.685937 1937.851563 1006.685937 C 1922.1875 1006.685937 1909.492188 993.990625 1909.492188 978.326562 C 1909.492188 962.6625 1922.1875 949.967187 1937.851563 949.967187 C 1953.515625 949.967187 1966.210938 962.6625 1966.210938 978.326562 Z M 1966.210938 978.326562 "
         style="fill:none;stroke-width:15.9404;stroke-linecap:butt;stroke-linejoin:miter;stroke:rgb(0%,0%,0%);stroke-opacity:1;stroke-miterlimit:10;" />
    </g>
    <path
       id="path42"
       transform="matrix(0.1,0,0,-0.1,0,129.61)"
       d="M 147.695313 317.740625 C 147.695313 333.404687 135 346.1 119.335938 346.1 C 103.671875 346.1 90.976563 333.404687 90.976563 317.740625 C 90.976563 302.076562 103.671875 289.420312 119.335938 289.420312 C 135 289.420312 147.695313 302.076562 147.695313 317.740625 Z M 147.695313 317.740625 "
       style="fill-rule:nonzero;fill:rgb(0%,0%,0%);fill-opacity:1;stroke-width:15.9404;stroke-linecap:butt;stroke-linejoin:miter;stroke:rgb(0%,0%,0%);stroke-opacity:1;stroke-miterlimit:10;" />
    <path
       id="path44"
       d="M 43.507813 100.667969 L 43.507813 95 L 50.648438 97.835938 "
       style=" stroke:none;fill-rule:nonzero;fill:rgb(0%,0%,0%);fill-opacity:1;" />
    <path
       id="path46"
       transform="matrix(0.1,0,0,-0.1,0,129.61)"
       d="M 435.078125 289.420312 L 435.078125 346.1 L 506.484375 317.740625 Z M 435.078125 289.420312 "
       style="fill:none;stroke-width:15.9404;stroke-linecap:butt;stroke-linejoin:miter;stroke:rgb(0%,0%,0%);stroke-opacity:1;stroke-miterlimit:10;" />
    <path
       id="path48"
       transform="matrix(0.1,0,0,-0.1,0,129.61)"
       d="M 435.078125 317.740625 L 514.453125 317.740625 "
       style="fill:none;stroke-width:15.9404;stroke-linecap:butt;stroke-linejoin:miter;stroke:rgb(0%,0%,0%);stroke-opacity:1;stroke-miterlimit:10;" />
    <path
       id="path50"
       d="M 47.800781 80.566406 C 48.148438 80.566406 48.285156 80.566406 48.285156 80.238281 C 48.285156 80.066406 48.148438 80.066406 47.835938 80.066406 L 46.4375 80.066406 C 46.765625 78.289063 47.007813 77.0625 47.144531 76.511719 C 47.25 76.09375 47.613281 75.699219 48.0625 75.699219 C 48.421875 75.699219 48.785156 75.855469 48.960938 76.007813 C 48.285156 76.078125 48.078125 76.578125 48.078125 76.871094 C 48.078125 77.21875 48.335938 77.425781 48.664063 77.425781 C 49.011719 77.425781 49.53125 77.132813 49.53125 76.476563 C 49.53125 75.75 48.804688 75.351563 48.042969 75.351563 C 47.300781 75.351563 46.578125 75.90625 46.230469 76.578125 C 45.921875 77.183594 45.746094 77.804688 45.351563 80.066406 L 44.191406 80.066406 C 43.863281 80.066406 43.691406 80.066406 43.691406 80.378906 C 43.691406 80.566406 43.796875 80.566406 44.140625 80.566406 L 45.246094 80.566406 C 44.9375 82.175781 44.226563 86.078125 43.828125 87.925781 C 43.535156 89.425781 43.277344 90.6875 42.414063 90.6875 C 42.363281 90.6875 41.859375 90.6875 41.550781 90.359375 C 42.429688 90.289063 42.429688 89.53125 42.429688 89.511719 C 42.429688 89.167969 42.171875 88.960938 41.84375 88.960938 C 41.5 88.960938 40.980469 89.253906 40.980469 89.910156 C 40.980469 90.652344 41.742188 91.035156 42.414063 91.035156 C 44.175781 91.035156 44.902344 87.871094 45.089844 87.007813 C 45.402344 85.679688 46.25 81.085938 46.335938 80.566406 L 47.800781 80.566406 "
       style=" stroke:none;fill-rule:nonzero;fill:rgb(0%,0%,100%);fill-opacity:1;" />
    <path
       id="path52"
       d="M 51.933594 82.46875 C 51.933594 82.195313 51.933594 82.183594 51.695313 82.183594 C 51.40625 82.503906 50.8125 82.945313 49.585938 82.945313 L 49.585938 83.292969 C 49.859375 83.292969 50.453125 83.292969 51.109375 82.980469 L 51.109375 89.191406 C 51.109375 89.621094 51.074219 89.765625 50.027344 89.765625 L 49.65625 89.765625 L 49.65625 90.109375 C 49.976563 90.085938 51.132813 90.085938 51.527344 90.085938 C 51.921875 90.085938 53.066406 90.085938 53.386719 90.109375 L 53.386719 89.765625 L 53.015625 89.765625 C 51.96875 89.765625 51.933594 89.621094 51.933594 89.191406 L 51.933594 82.46875 "
       style=" stroke:none;fill-rule:nonzero;fill:rgb(0%,0%,100%);fill-opacity:1;" />
    <path
       id="path54"
       transform="matrix(0.1,0,0,-0.1,0,129.61)"
       d="M 801.796875 90.982812 L 1255.351563 90.982812 L 1255.351563 544.5375 L 801.796875 544.5375 Z M 801.796875 90.982812 "
       style="fill:none;stroke-width:15.9404;stroke-linecap:butt;stroke-linejoin:miter;stroke:rgb(0%,0%,0%);stroke-opacity:1;stroke-miterlimit:10;" />
    <path
       id="path56"
       d="M 101.359375 96.449219 C 101.390625 96.347656 101.824219 95.484375 102.464844 94.929688 C 102.914063 94.515625 103.496094 94.238281 104.171875 94.238281 C 104.863281 94.238281 105.105469 94.757813 105.105469 95.449219 C 105.105469 96.433594 104.398438 98.402344 104.050781 99.332031 C 103.894531 99.75 103.808594 99.972656 103.808594 100.285156 C 103.808594 101.0625 104.34375 101.683594 105.171875 101.683594 C 106.78125 101.683594 107.382813 99.144531 107.382813 99.042969 C 107.382813 98.953125 107.316406 98.886719 107.214844 98.886719 C 107.054688 98.886719 107.039063 98.9375 106.953125 99.230469 C 106.554688 100.644531 105.898438 101.335938 105.226563 101.335938 C 105.054688 101.335938 104.777344 101.320313 104.777344 100.769531 C 104.777344 100.335938 104.96875 99.816406 105.070313 99.574219 C 105.414063 98.625 106.140625 96.691406 106.140625 95.707031 C 106.140625 94.671875 105.535156 93.894531 104.222656 93.894531 C 102.6875 93.894531 101.875 94.980469 101.5625 95.414063 C 101.511719 94.429688 100.804688 93.894531 100.046875 93.894531 C 99.492188 93.894531 99.113281 94.222656 98.820313 94.808594 C 98.507813 95.433594 98.265625 96.46875 98.265625 96.535156 C 98.265625 96.605469 98.335938 96.691406 98.457031 96.691406 C 98.59375 96.691406 98.609375 96.675781 98.714844 96.277344 C 98.992188 95.222656 99.304688 94.238281 99.992188 94.238281 C 100.390625 94.238281 100.527344 94.515625 100.527344 95.035156 C 100.527344 95.414063 100.355469 96.089844 100.234375 96.621094 L 99.75 98.488281 C 99.683594 98.816406 99.492188 99.59375 99.40625 99.902344 C 99.285156 100.351563 99.09375 101.164063 99.09375 101.25 C 99.09375 101.492188 99.285156 101.683594 99.542969 101.683594 C 99.75 101.683594 99.992188 101.578125 100.132813 101.320313 C 100.164063 101.234375 100.320313 100.628906 100.40625 100.285156 L 100.789063 98.730469 L 101.359375 96.449219 "
       style=" stroke:none;fill-rule:nonzero;fill:rgb(0%,0%,100%);fill-opacity:1;" />
    <path
       id="path58"
       d="M 154.273438 100.667969 L 154.273438 95 L 161.414063 97.835938 "
       style=" stroke:none;fill-rule:nonzero;fill:rgb(0%,0%,0%);fill-opacity:1;" />
    <path
       id="path60"
       transform="matrix(0.1,0,0,-0.1,0,129.61)"
       d="M 1542.734375 289.420312 L 1542.734375 346.1 L 1614.140625 317.740625 Z M 1542.734375 289.420312 "
       style="fill:none;stroke-width:15.9404;stroke-linecap:butt;stroke-linejoin:miter;stroke:rgb(0%,0%,0%);stroke-opacity:1;stroke-miterlimit:10;" />
    <path
       id="path62"
       transform="matrix(0.1,0,0,-0.1,0,129.61)"
       d="M 1542.734375 317.740625 L 1622.109375 317.740625 "
       style="fill:none;stroke-width:15.9404;stroke-linecap:butt;stroke-linejoin:miter;stroke:rgb(0%,0%,0%);stroke-opacity:1;stroke-miterlimit:10;" />
    <path
       id="path64"
       d="M 158.601563 80.566406 C 158.945313 80.566406 159.085938 80.566406 159.085938 80.238281 C 159.085938 80.066406 158.945313 80.066406 158.636719 80.066406 L 157.238281 80.066406 C 157.566406 78.289063 157.808594 77.0625 157.945313 76.511719 C 158.050781 76.09375 158.414063 75.699219 158.859375 75.699219 C 159.222656 75.699219 159.585938 75.855469 159.757813 76.007813 C 159.085938 76.078125 158.878906 76.578125 158.878906 76.871094 C 158.878906 77.21875 159.136719 77.425781 159.464844 77.425781 C 159.8125 77.425781 160.328125 77.132813 160.328125 76.476563 C 160.328125 75.75 159.601563 75.351563 158.84375 75.351563 C 158.101563 75.351563 157.378906 75.90625 157.03125 76.578125 C 156.71875 77.183594 156.546875 77.804688 156.148438 80.066406 L 154.992188 80.066406 C 154.664063 80.066406 154.492188 80.066406 154.492188 80.378906 C 154.492188 80.566406 154.59375 80.566406 154.941406 80.566406 L 156.046875 80.566406 C 155.734375 82.175781 155.027344 86.078125 154.628906 87.925781 C 154.335938 89.425781 154.078125 90.6875 153.214844 90.6875 C 153.164063 90.6875 152.660156 90.6875 152.351563 90.359375 C 153.230469 90.289063 153.230469 89.53125 153.230469 89.511719 C 153.230469 89.167969 152.972656 88.960938 152.644531 88.960938 C 152.296875 88.960938 151.78125 89.253906 151.78125 89.910156 C 151.78125 90.652344 152.539063 91.035156 153.214844 91.035156 C 154.976563 91.035156 155.703125 87.871094 155.890625 87.007813 C 156.203125 85.679688 157.046875 81.085938 157.132813 80.566406 L 158.601563 80.566406 "
       style=" stroke:none;fill-rule:nonzero;fill:rgb(0%,0%,100%);fill-opacity:1;" />
    <path
       id="path66"
       d="M 164.445313 88.105469 L 164.183594 88.105469 C 164.148438 88.308594 164.050781 88.964844 163.933594 89.15625 C 163.847656 89.261719 163.167969 89.261719 162.8125 89.261719 L 160.605469 89.261719 C 160.929688 88.988281 161.65625 88.226563 161.964844 87.941406 C 163.777344 86.269531 164.445313 85.652344 164.445313 84.472656 C 164.445313 83.101563 163.359375 82.183594 161.976563 82.183594 C 160.59375 82.183594 159.785156 83.363281 159.785156 84.386719 C 159.785156 84.996094 160.308594 84.996094 160.34375 84.996094 C 160.59375 84.996094 160.90625 84.816406 160.90625 84.4375 C 160.90625 84.101563 160.679688 83.875 160.34375 83.875 C 160.238281 83.875 160.214844 83.875 160.179688 83.886719 C 160.40625 83.078125 161.046875 82.527344 161.820313 82.527344 C 162.835938 82.527344 163.457031 83.375 163.457031 84.472656 C 163.457031 85.484375 162.871094 86.367188 162.191406 87.128906 L 159.785156 89.824219 L 159.785156 90.109375 L 164.132813 90.109375 L 164.445313 88.105469 "
       style=" stroke:none;fill-rule:nonzero;fill:rgb(0%,0%,100%);fill-opacity:1;" />
    <path
       id="path68"
       d="M 196.621094 97.835938 C 196.621094 96.269531 195.351563 95 193.785156 95 C 192.21875 95 190.949219 96.269531 190.949219 97.835938 C 190.949219 99.402344 192.21875 100.667969 193.785156 100.667969 C 195.351563 100.667969 196.621094 99.402344 196.621094 97.835938 Z M 196.621094 97.835938 "
       style=" stroke:none;fill-rule:nonzero;fill:rgb(0%,0%,0%);fill-opacity:1;" />
    <g
       id="g72"
       clip-rule="nonzero"
       clip-path="url(#clip2)">
      <path
         id="path70"
         transform="matrix(0.1,0,0,-0.1,0,129.61)"
         d="M 1966.210938 317.740625 C 1966.210938 333.404687 1953.515625 346.1 1937.851563 346.1 C 1922.1875 346.1 1909.492188 333.404687 1909.492188 317.740625 C 1909.492188 302.076562 1922.1875 289.420312 1937.851563 289.420312 C 1953.515625 289.420312 1966.210938 302.076562 1966.210938 317.740625 Z M 1966.210938 317.740625 "
         style="fill:none;stroke-width:15.9404;stroke-linecap:butt;stroke-linejoin:miter;stroke:rgb(0%,0%,0%);stroke-opacity:1;stroke-miterlimit:10;" />
    </g>
    <path
       id="path74"
       transform="matrix(0.1,0,0,-0.1,0,129.61)"
       d="M 1905.546875 978.326562 L 1622.148438 978.326562 M 1542.773438 978.326562 L 1263.359375 978.326562 M 793.867188 978.326562 L 514.453125 978.326562 M 435.078125 978.326562 L 151.640625 978.326562 "
       style="fill:none;stroke-width:15.9404;stroke-linecap:butt;stroke-linejoin:miter;stroke:rgb(0%,0%,0%);stroke-opacity:1;stroke-miterlimit:10;" />
    <path
       id="path76"
       transform="matrix(0.1,0,0,-0.1,0,129.61)"
       d="M 1905.546875 317.740625 L 1622.148438 317.740625 M 1542.773438 317.740625 L 1263.359375 317.740625 M 793.867188 317.740625 L 514.453125 317.740625 M 435.078125 317.740625 L 151.640625 317.740625 "
       style="fill:none;stroke-width:15.9404;stroke-linecap:butt;stroke-linejoin:miter;stroke:rgb(0%,0%,0%);stroke-opacity:1;stroke-miterlimit:10;" />
  </g>
</svg>
