<?xml version="1.0" encoding="UTF-8" standalone="no"?>
<svg
   xmlns:dc="http://purl.org/dc/elements/1.1/"
   xmlns:cc="http://creativecommons.org/ns#"
   xmlns:rdf="http://www.w3.org/1999/02/22-rdf-syntax-ns#"
   xmlns:svg="http://www.w3.org/2000/svg"
   xmlns="http://www.w3.org/2000/svg"
   id="svg58"
   version="1.2"
   viewBox="0 0 130.12 123.94"
   height="123.94pt"
   width="130.12pt">
  <metadata
     id="metadata62">
    <rdf:RDF>
      <cc:Work
         rdf:about="">
        <dc:format>image/svg+xml</dc:format>
        <dc:type
           rdf:resource="http://purl.org/dc/dcmitype/StillImage" />
      </cc:Work>
    </rdf:RDF>
  </metadata>
  <defs
     id="defs11">
    <clipPath
       id="clip1">
      <path
         id="path2"
         d="M 92 6 L 130.121094 6 L 130.121094 58 L 92 58 Z M 92 6 " />
    </clipPath>
    <clipPath
       id="clip2">
      <path
         id="path5"
         d="M 59 72 L 112 72 L 112 123.941406 L 59 123.941406 Z M 59 72 " />
    </clipPath>
    <clipPath
       id="clip3">
      <path
         id="path8"
         d="M 92 72 L 130.121094 72 L 130.121094 123.941406 L 92 123.941406 Z M 92 72 " />
    </clipPath>
  </defs>
  <g
     id="surface1">
    <path
       id="path13"
       transform="matrix(0.1,0,0,-0.1,0,123.94)"
       d="M 90.976563 694.86875 L 544.53125 694.86875 L 544.53125 1148.384375 L 90.976563 1148.384375 Z M 90.976563 694.86875 "
       style="fill:none;stroke-width:15.9404;stroke-linecap:butt;stroke-linejoin:miter;stroke:rgb(0%,0%,0%);stroke-opacity:1;stroke-miterlimit:10;" />
    <path
       id="path15"
       d="M 27.992188 30.234375 C 28.457031 30.234375 29.632813 30.199219 30.460938 29.886719 C 31.773438 29.386719 31.894531 28.386719 31.894531 28.074219 C 31.894531 27.316406 31.238281 26.625 30.097656 26.625 C 28.285156 26.625 25.675781 28.265625 25.675781 31.339844 C 25.675781 33.152344 26.714844 34.414063 28.285156 34.414063 C 30.632813 34.414063 32.117188 32.582031 32.117188 32.355469 C 32.117188 32.253906 32.015625 32.167969 31.945313 32.167969 C 31.894531 32.167969 31.875 32.183594 31.722656 32.339844 C 30.617188 33.808594 28.976563 34.066406 28.320313 34.066406 C 27.335938 34.066406 26.816406 33.289063 26.816406 32.011719 C 26.816406 31.769531 26.816406 31.339844 27.078125 30.234375 Z M 27.164063 29.886719 C 27.90625 27.230469 29.546875 26.96875 30.097656 26.96875 C 30.859375 26.96875 31.375 27.417969 31.375 28.074219 C 31.375 29.886719 28.613281 29.886719 27.886719 29.886719 L 27.164063 29.886719 "
       style=" stroke:none;fill-rule:nonzero;fill:rgb(0%,0%,100%);fill-opacity:1;" />
    <path
       id="path17"
       d="M 35.417969 34.355469 C 35.621094 34.390625 35.941406 34.464844 36.015625 34.472656 C 36.167969 34.523438 36.703125 34.714844 36.703125 35.285156 C 36.703125 35.65625 36.371094 36.621094 34.988281 36.621094 C 34.738281 36.621094 33.84375 36.585938 33.605469 35.929688 C 34.082031 35.988281 34.320313 35.621094 34.320313 35.355469 C 34.320313 35.105469 34.15625 34.976563 33.914063 34.976563 C 33.652344 34.976563 33.308594 35.179688 33.308594 35.714844 C 33.308594 36.417969 34.023438 36.859375 34.976563 36.859375 C 36.789063 36.859375 37.324219 35.523438 37.324219 34.902344 C 37.324219 34.726563 37.324219 34.390625 36.945313 34.011719 C 36.644531 33.722656 36.359375 33.664063 35.714844 33.535156 C 35.394531 33.460938 34.882813 33.355469 34.882813 32.816406 C 34.882813 32.578125 35.09375 31.722656 36.226563 31.722656 C 36.730469 31.722656 37.21875 31.910156 37.335938 32.339844 C 36.8125 32.339844 36.789063 32.792969 36.789063 32.804688 C 36.789063 33.058594 37.015625 33.128906 37.121094 33.128906 C 37.289063 33.128906 37.625 32.996094 37.625 32.496094 C 37.625 31.996094 37.171875 31.484375 36.242188 31.484375 C 34.679688 31.484375 34.261719 32.710938 34.261719 33.199219 C 34.261719 34.105469 35.144531 34.296875 35.417969 34.355469 "
       style=" stroke:none;fill-rule:nonzero;fill:rgb(0%,0%,100%);fill-opacity:1;" />
    <path
       id="path19"
       d="M 80.933594 34.613281 L 80.933594 28.941406 L 88.074219 31.777344 "
       style=" stroke:none;fill-rule:nonzero;fill:rgb(0%,0%,0%);fill-opacity:1;" />
    <path
       id="path21"
       transform="matrix(0.1,0,0,-0.1,0,123.94)"
       d="M 809.335938 893.267188 L 809.335938 949.985938 L 880.742188 921.626563 Z M 809.335938 893.267188 "
       style="fill:none;stroke-width:15.9404;stroke-linecap:butt;stroke-linejoin:miter;stroke:rgb(0%,0%,0%);stroke-opacity:1;stroke-miterlimit:10;" />
    <path
       id="path23"
       transform="matrix(0.1,0,0,-0.1,0,123.94)"
       d="M 809.335938 921.626563 L 888.710938 921.626563 "
       style="fill:none;stroke-width:15.9404;stroke-linecap:butt;stroke-linejoin:miter;stroke:rgb(0%,0%,0%);stroke-opacity:1;stroke-miterlimit:10;" />
    <path
       id="path25"
       d="M 84.089844 20.835938 C 84.558594 20.835938 85.730469 20.800781 86.5625 20.488281 C 87.875 19.988281 87.992188 18.984375 87.992188 18.675781 C 87.992188 17.914063 87.335938 17.222656 86.199219 17.222656 C 84.382813 17.222656 81.777344 18.863281 81.777344 21.9375 C 81.777344 23.753906 82.8125 25.011719 84.382813 25.011719 C 86.734375 25.011719 88.21875 23.183594 88.21875 22.957031 C 88.21875 22.855469 88.117188 22.769531 88.046875 22.769531 C 87.992188 22.769531 87.976563 22.785156 87.820313 22.941406 C 86.714844 24.410156 85.074219 24.667969 84.417969 24.667969 C 83.433594 24.667969 82.917969 23.890625 82.917969 22.613281 C 82.917969 22.371094 82.917969 21.9375 83.175781 20.835938 Z M 83.261719 20.488281 C 84.003906 17.828125 85.644531 17.570313 86.199219 17.570313 C 86.957031 17.570313 87.476563 18.019531 87.476563 18.675781 C 87.476563 20.488281 84.710938 20.488281 83.988281 20.488281 L 83.261719 20.488281 "
       style=" stroke:none;fill-rule:nonzero;fill:rgb(0%,0%,100%);fill-opacity:1;" />
    <path
       id="path27"
       d="M 121.023438 31.777344 C 121.023438 30.210938 119.753906 28.941406 118.1875 28.941406 C 116.621094 28.941406 115.355469 30.210938 115.355469 31.777344 C 115.355469 33.34375 116.621094 34.613281 118.1875 34.613281 C 119.753906 34.613281 121.023438 33.34375 121.023438 31.777344 Z M 121.023438 31.777344 "
       style=" stroke:none;fill-rule:nonzero;fill:rgb(0%,0%,0%);fill-opacity:1;" />
    <g
       id="g31"
       clip-rule="nonzero"
       clip-path="url(#clip1)">
      <path
         id="path29"
         transform="matrix(0.1,0,0,-0.1,0,123.94)"
         d="M 1210.234375 921.626563 C 1210.234375 937.290625 1197.539063 949.985938 1181.875 949.985938 C 1166.210938 949.985938 1153.554688 937.290625 1153.554688 921.626563 C 1153.554688 905.9625 1166.210938 893.267188 1181.875 893.267188 C 1197.539063 893.267188 1210.234375 905.9625 1210.234375 921.626563 Z M 1210.234375 921.626563 "
         style="fill:none;stroke-width:15.9404;stroke-linecap:butt;stroke-linejoin:miter;stroke:rgb(0%,0%,0%);stroke-opacity:1;stroke-miterlimit:10;" />
    </g>
    <path
       id="path33"
       transform="matrix(0.1,0,0,-0.1,0,123.94)"
       d="M 147.695313 90.9625 L 487.851563 90.9625 L 487.851563 431.157813 L 147.695313 431.157813 Z M 147.695313 90.9625 "
       style="fill:none;stroke-width:15.9404;stroke-linecap:butt;stroke-linejoin:miter;stroke:rgb(0%,0%,0%);stroke-opacity:1;stroke-miterlimit:10;" />
    <path
       id="path35"
       transform="matrix(0.1,0,0,-0.1,0,123.94)"
       d="M 487.851563 261.040625 L 204.296875 261.040625 M 431.210938 147.603125 L 204.296875 147.603125 L 204.296875 374.517188 L 431.210938 374.517188 "
       style="fill:none;stroke-width:15.9404;stroke-linecap:butt;stroke-linejoin:miter;stroke:rgb(0%,0%,0%);stroke-opacity:1;stroke-miterlimit:10;" />
    <path
       id="path37"
       d="M 88.871094 95 L 88.871094 100.667969 L 81.730469 97.835938 "
       style=" stroke:none;fill-rule:nonzero;fill:rgb(0%,0%,0%);fill-opacity:1;" />
    <g
       id="g41"
       clip-rule="nonzero"
       clip-path="url(#clip2)">
      <path
         id="path39"
         transform="matrix(0.1,0,0,-0.1,0,123.94)"
         d="M 888.710938 289.4 L 888.710938 232.720313 L 817.304688 261.040625 Z M 888.710938 289.4 "
         style="fill:none;stroke-width:15.9404;stroke-linecap:butt;stroke-linejoin:miter;stroke:rgb(0%,0%,0%);stroke-opacity:1;stroke-miterlimit:10;" />
    </g>
    <path
       id="path43"
       transform="matrix(0.1,0,0,-0.1,0,123.94)"
       d="M 888.710938 261.040625 L 809.335938 261.040625 "
       style="fill:none;stroke-width:15.9404;stroke-linecap:butt;stroke-linejoin:miter;stroke:rgb(0%,0%,0%);stroke-opacity:1;stroke-miterlimit:10;" />
    <path
       id="path45"
       d="M 87.5 80.597656 C 87.847656 80.597656 87.984375 80.597656 87.984375 80.269531 C 87.984375 80.097656 87.847656 80.097656 87.535156 80.097656 L 86.136719 80.097656 C 86.464844 78.316406 86.707031 77.089844 86.84375 76.539063 C 86.949219 76.125 87.3125 75.726563 87.761719 75.726563 C 88.125 75.726563 88.484375 75.882813 88.660156 76.039063 C 87.984375 76.105469 87.777344 76.609375 87.777344 76.902344 C 87.777344 77.246094 88.039063 77.453125 88.367188 77.453125 C 88.710938 77.453125 89.230469 77.160156 89.230469 76.503906 C 89.230469 75.777344 88.503906 75.382813 87.742188 75.382813 C 87 75.382813 86.277344 75.933594 85.929688 76.609375 C 85.621094 77.214844 85.445313 77.835938 85.050781 80.097656 L 83.890625 80.097656 C 83.5625 80.097656 83.390625 80.097656 83.390625 80.40625 C 83.390625 80.597656 83.496094 80.597656 83.839844 80.597656 L 84.945313 80.597656 C 84.636719 82.203125 83.929688 86.105469 83.53125 87.953125 C 83.234375 89.457031 82.976563 90.71875 82.113281 90.71875 C 82.0625 90.71875 81.5625 90.71875 81.25 90.390625 C 82.132813 90.320313 82.132813 89.558594 82.132813 89.542969 C 82.132813 89.199219 81.871094 88.988281 81.542969 88.988281 C 81.199219 88.988281 80.679688 89.285156 80.679688 89.941406 C 80.679688 90.683594 81.441406 91.0625 82.113281 91.0625 C 83.875 91.0625 84.601563 87.902344 84.789063 87.039063 C 85.101563 85.707031 85.949219 81.117188 86.035156 80.597656 L 87.5 80.597656 "
       style=" stroke:none;fill-rule:nonzero;fill:rgb(0%,0%,100%);fill-opacity:1;" />
    <path
       id="path47"
       d="M 121.023438 97.835938 C 121.023438 96.269531 119.753906 95 118.1875 95 C 116.621094 95 115.355469 96.269531 115.355469 97.835938 C 115.355469 99.398438 116.621094 100.667969 118.1875 100.667969 C 119.753906 100.667969 121.023438 99.398438 121.023438 97.835938 Z M 121.023438 97.835938 "
       style=" stroke:none;fill-rule:nonzero;fill:rgb(0%,0%,0%);fill-opacity:1;" />
    <g
       id="g51"
       clip-rule="nonzero"
       clip-path="url(#clip3)">
      <path
         id="path49"
         transform="matrix(0.1,0,0,-0.1,0,123.94)"
         d="M 1210.234375 261.040625 C 1210.234375 276.704688 1197.539063 289.4 1181.875 289.4 C 1166.210938 289.4 1153.554688 276.704688 1153.554688 261.040625 C 1153.554688 245.415625 1166.210938 232.720313 1181.875 232.720313 C 1197.539063 232.720313 1210.234375 245.415625 1210.234375 261.040625 Z M 1210.234375 261.040625 "
         style="fill:none;stroke-width:15.9404;stroke-linecap:butt;stroke-linejoin:miter;stroke:rgb(0%,0%,0%);stroke-opacity:1;stroke-miterlimit:10;" />
    </g>
    <path
       id="path53"
       transform="matrix(0.1,0,0,-0.1,0,123.94)"
       d="M 552.5 921.626563 L 809.335938 921.626563 M 888.710938 921.626563 L 1149.570313 921.626563 "
       style="fill:none;stroke-width:15.9404;stroke-linecap:butt;stroke-linejoin:miter;stroke:rgb(0%,0%,0%);stroke-opacity:1;stroke-miterlimit:10;" />
    <path
       id="path55"
       transform="matrix(0.1,0,0,-0.1,0,123.94)"
       d="M 1149.570313 261.079688 L 888.710938 261.079688 M 809.335938 261.079688 L 495.820313 261.079688 "
       style="fill:none;stroke-width:15.9404;stroke-linecap:butt;stroke-linejoin:miter;stroke:rgb(0%,0%,0%);stroke-opacity:1;stroke-miterlimit:10;" />
  </g>
</svg>
