<?xml version="1.0" encoding="UTF-8" standalone="no"?>
<svg
   xmlns:dc="http://purl.org/dc/elements/1.1/"
   xmlns:cc="http://creativecommons.org/ns#"
   xmlns:rdf="http://www.w3.org/1999/02/22-rdf-syntax-ns#"
   xmlns:svg="http://www.w3.org/2000/svg"
   xmlns="http://www.w3.org/2000/svg"
   viewBox="0 0 173.49333 157.69333"
   height="157.69333"
   width="173.49333"
   xml:space="preserve"
   id="svg2"
   version="1.1"><metadata
     id="metadata8"><rdf:RDF><cc:Work
         rdf:about=""><dc:format>image/svg+xml</dc:format><dc:type
           rdf:resource="http://purl.org/dc/dcmitype/StillImage" /></cc:Work></rdf:RDF></metadata><defs
     id="defs6" /><g
     transform="matrix(1.3333333,0,0,-1.3333333,0,157.69333)"
     id="g10"><g
       transform="scale(0.1)"
       id="g12"><path
         id="path14"
         style="fill:none;stroke:#000000;stroke-width:15.9404;stroke-linecap:butt;stroke-linejoin:miter;stroke-miterlimit:10;stroke-dasharray:none;stroke-opacity:1"
         d="m 147.68,751.559 h 340.16 v 340.16 H 147.68 Z" /><path
         id="path16"
         style="fill:none;stroke:#000000;stroke-width:15.9404;stroke-linecap:butt;stroke-linejoin:miter;stroke-miterlimit:10;stroke-dasharray:none;stroke-opacity:1"
         d="M 487.84,921.641 H 204.316 M 431.203,808.195 H 204.316 v 226.895 h 226.887" /><path
         id="path18"
         style="fill:#000000;fill-opacity:1;fill-rule:nonzero;stroke:none"
         d="m 888.727,949.988 v -56.695 l -71.403,28.348" /><path
         id="path20"
         style="fill:none;stroke:#000000;stroke-width:15.9404;stroke-linecap:butt;stroke-linejoin:miter;stroke-miterlimit:10;stroke-dasharray:none;stroke-opacity:1"
         d="m 888.727,949.988 v -56.695 l -71.403,28.348 z" /><path
         id="path22"
         style="fill:none;stroke:#000000;stroke-width:15.9404;stroke-linecap:butt;stroke-linejoin:miter;stroke-miterlimit:10;stroke-dasharray:none;stroke-opacity:1"
         d="M 888.727,921.641 H 809.355" /><path
         id="path24"
         style="fill:#0000ff;fill-opacity:1;fill-rule:nonzero;stroke:none"
         d="m 840.906,1031.06 c 4.672,0 16.407,0.35 24.703,3.46 13.125,5.01 14.329,15.03 14.329,18.14 0,7.59 -6.563,14.5 -17.954,14.5 -18.14,0 -44.218,-16.41 -44.218,-47.14 0,-18.14 10.375,-30.754 26.078,-30.754 23.484,0 38.344,18.314 38.344,20.564 0,1.03 -1.032,1.89 -1.735,1.89 -0.515,0 -0.687,-0.17 -2.234,-1.72 -11.063,-14.687 -27.469,-17.266 -34.031,-17.266 -9.844,0 -15.016,7.766 -15.016,20.546 0,2.41 0,6.74 2.594,17.78 z m -8.281,3.46 c 7.422,26.59 23.828,29.18 29.359,29.18 7.594,0 12.782,-4.48 12.782,-11.04 0,-18.14 -27.641,-18.14 -34.891,-18.14 h -7.25" /><path
         id="path26"
         style="fill:#000000;fill-opacity:1;fill-rule:nonzero;stroke:none"
         d="m 1210.24,921.641 c 0,15.656 -12.69,28.347 -28.35,28.347 -15.66,0 -28.35,-12.691 -28.35,-28.347 0,-15.657 12.69,-28.348 28.35,-28.348 15.66,0 28.35,12.691 28.35,28.348 z" /><path
         id="path28"
         style="fill:none;stroke:#000000;stroke-width:15.9404;stroke-linecap:butt;stroke-linejoin:miter;stroke-miterlimit:10;stroke-dasharray:none;stroke-opacity:1"
         d="m 1210.24,921.641 c 0,15.656 -12.69,28.347 -28.35,28.347 -15.66,0 -28.35,-12.691 -28.35,-28.347 0,-15.657 12.69,-28.348 28.35,-28.348 15.66,0 28.35,12.691 28.35,28.348 z" /><path
         id="path30"
         style="fill:none;stroke:#000000;stroke-width:15.9404;stroke-linecap:butt;stroke-linejoin:miter;stroke-miterlimit:10;stroke-dasharray:none;stroke-opacity:1"
         d="m 90.9844,90.9844 h 453.551 v 453.551 H 90.9844 Z" /><path
         id="path32"
         style="fill:#0000ff;fill-opacity:1;fill-rule:nonzero;stroke:none"
         d="m 323.016,344.422 c 3.453,0 4.843,0 4.843,3.281 0,1.735 -1.39,1.735 -4.5,1.735 h -13.984 c 3.281,17.781 5.703,30.046 7.078,35.562 1.047,4.156 4.672,8.125 9.156,8.125 3.625,0 7.25,-1.562 8.985,-3.109 -6.735,-0.688 -8.813,-5.703 -8.813,-8.641 0,-3.453 2.594,-5.516 5.875,-5.516 3.453,0 8.641,2.922 8.641,9.485 0,7.265 -7.266,11.234 -14.859,11.234 -7.422,0 -14.672,-5.531 -18.125,-12.265 -3.11,-6.047 -4.844,-12.266 -8.813,-34.875 h -11.578 c -3.281,0 -5,0 -5,-3.11 0,-1.906 1.031,-1.906 4.484,-1.906 h 11.063 c -3.11,-16.063 -10.188,-55.094 -14.172,-73.563 -2.938,-15.031 -5.516,-27.64 -14.156,-27.64 -0.516,0 -5.532,0 -8.641,3.281 8.813,0.703 8.813,8.297 8.813,8.469 0,3.453 -2.594,5.531 -5.875,5.531 -3.454,0 -8.625,-2.937 -8.625,-9.5 0,-7.437 7.593,-11.234 14.328,-11.234 17.609,0 24.875,31.609 26.765,40.25 3.11,13.297 11.578,59.218 12.438,64.406 h 14.672" /><path
         id="path34"
         style="fill:#0000ff;fill-opacity:1;fill-rule:nonzero;stroke:none"
         d="m 356.172,272.844 c 2.031,-0.36 5.25,-1.078 5.969,-1.188 1.547,-0.484 6.906,-2.39 6.906,-8.109 0,-3.703 -3.328,-13.359 -17.156,-13.359 -2.5,0 -11.453,0.359 -13.828,6.921 4.765,-0.593 7.156,3.094 7.156,5.719 0,2.5 -1.672,3.813 -4.063,3.813 -2.625,0 -6.078,-2.032 -6.078,-7.391 0,-7.031 7.156,-11.437 16.688,-11.437 18.125,0 23.484,13.343 23.484,19.546 0,1.782 0,5.125 -3.812,8.938 -2.985,2.859 -5.844,3.453 -12.282,4.766 -3.218,0.718 -8.343,1.796 -8.343,7.156 0,2.39 2.14,10.969 13.468,10.969 5.016,0 9.891,-1.907 11.094,-6.204 -5.25,0 -5.484,-4.531 -5.484,-4.64 0,-2.516 2.265,-3.219 3.328,-3.219 1.672,0 5.015,1.313 5.015,6.313 0,5 -4.531,10.125 -13.828,10.125 -15.625,0 -19.797,-12.266 -19.797,-17.157 0,-9.062 8.829,-10.968 11.563,-11.562" /><path
         id="path36"
         style="fill:#000000;fill-opacity:1;fill-rule:nonzero;stroke:none"
         d="m 809.355,289.414 v 56.691 l 71.399,-28.343" /><path
         id="path38"
         style="fill:none;stroke:#000000;stroke-width:15.9404;stroke-linecap:butt;stroke-linejoin:miter;stroke-miterlimit:10;stroke-dasharray:none;stroke-opacity:1"
         d="m 809.355,289.414 v 56.691 l 71.399,-28.343 z" /><path
         id="path40"
         style="fill:none;stroke:#000000;stroke-width:15.9404;stroke-linecap:butt;stroke-linejoin:miter;stroke-miterlimit:10;stroke-dasharray:none;stroke-opacity:1"
         d="m 809.355,317.762 h 79.372" /><path
         id="path42"
         style="fill:#0000ff;fill-opacity:1;fill-rule:nonzero;stroke:none"
         d="m 875.016,490.422 c 3.453,0 4.843,0 4.843,3.281 0,1.735 -1.39,1.735 -4.5,1.735 h -13.984 c 3.281,17.781 5.703,30.046 7.078,35.562 1.047,4.156 4.672,8.125 9.156,8.125 3.625,0 7.25,-1.562 8.985,-3.109 -6.735,-0.688 -8.813,-5.703 -8.813,-8.641 0,-3.453 2.594,-5.516 5.875,-5.516 3.453,0 8.641,2.922 8.641,9.485 0,7.265 -7.266,11.234 -14.859,11.234 -7.422,0 -14.672,-5.531 -18.125,-12.265 -3.11,-6.047 -4.844,-12.266 -8.813,-34.875 h -11.578 c -3.281,0 -5,0 -5,-3.11 0,-1.906 1.031,-1.906 4.484,-1.906 h 11.063 c -3.11,-16.063 -10.188,-55.094 -14.172,-73.563 -2.938,-15.031 -5.516,-27.64 -14.156,-27.64 -0.516,0 -5.532,0 -8.641,3.281 8.813,0.703 8.813,8.297 8.813,8.469 0,3.453 -2.594,5.531 -5.875,5.531 -3.454,0 -8.625,-2.937 -8.625,-9.5 0,-7.437 7.593,-11.234 14.328,-11.234 17.609,0 24.875,31.609 26.765,40.25 3.11,13.297 11.578,59.218 12.438,64.406 h 14.672" /><path
         id="path44"
         style="fill:#000000;fill-opacity:1;fill-rule:nonzero;stroke:none"
         d="m 1210.24,317.762 c 0,15.652 -12.69,28.343 -28.35,28.343 -15.66,0 -28.35,-12.691 -28.35,-28.343 0,-15.657 12.69,-28.348 28.35,-28.348 15.66,0 28.35,12.691 28.35,28.348 z" /><path
         id="path46"
         style="fill:none;stroke:#000000;stroke-width:15.9404;stroke-linecap:butt;stroke-linejoin:miter;stroke-miterlimit:10;stroke-dasharray:none;stroke-opacity:1"
         d="m 1210.24,317.762 c 0,15.652 -12.69,28.343 -28.35,28.343 -15.66,0 -28.35,-12.691 -28.35,-28.343 0,-15.657 12.69,-28.348 28.35,-28.348 15.66,0 28.35,12.691 28.35,28.348 z" /><path
         id="path48"
         style="fill:none;stroke:#000000;stroke-width:15.9404;stroke-linecap:butt;stroke-linejoin:miter;stroke-miterlimit:10;stroke-dasharray:none;stroke-opacity:1"
         d="m 495.801,921.652 h 313.551 m 79.371,0 h 260.847" /><path
         id="path50"
         style="fill:none;stroke:#000000;stroke-width:15.9404;stroke-linecap:butt;stroke-linejoin:miter;stroke-miterlimit:10;stroke-dasharray:none;stroke-opacity:1"
         d="M 1149.57,317.762 H 888.723 m -79.371,0 H 552.496" /></g></g></svg>
