<?xml version="1.0" encoding="UTF-8" standalone="no"?>
<svg
   xmlns:dc="http://purl.org/dc/elements/1.1/"
   xmlns:cc="http://creativecommons.org/ns#"
   xmlns:rdf="http://www.w3.org/1999/02/22-rdf-syntax-ns#"
   xmlns:svg="http://www.w3.org/2000/svg"
   xmlns="http://www.w3.org/2000/svg"
   id="svg49"
   version="1.2"
   viewBox="0 0 151.38 128.02"
   height="128.02pt"
   width="151.38pt">
  <metadata
     id="metadata53">
    <rdf:RDF>
      <cc:Work
         rdf:about="">
        <dc:format>image/svg+xml</dc:format>
        <dc:type
           rdf:resource="http://purl.org/dc/dcmitype/StillImage" />
      </cc:Work>
    </rdf:RDF>
  </metadata>
  <defs
     id="defs8">
    <clipPath
       id="clip1">
      <path
         id="path2"
         d="M 114 5 L 151.378906 5 L 151.378906 57 L 114 57 Z M 114 5 " />
    </clipPath>
    <clipPath
       id="clip2">
      <path
         id="path5"
         d="M 114 70 L 151.378906 70 L 151.378906 122 L 114 122 Z M 114 70 " />
    </clipPath>
  </defs>
  <g
     id="surface1">
    <path
       id="path10"
       d="M 110.132813 28.148438 L 110.132813 33.820313 L 102.992188 30.984375 "
       style=" stroke:none;fill-rule:nonzero;fill:rgb(0%,0%,0%);fill-opacity:1;" />
    <path
       id="path12"
       transform="matrix(0.1,0,0,-0.1,0,128.02)"
       d="M 1101.328125 998.715625 L 1101.328125 941.996875 L 1029.921875 970.35625 Z M 1101.328125 998.715625 "
       style="fill:none;stroke-width:15.9404;stroke-linecap:butt;stroke-linejoin:miter;stroke:rgb(0%,0%,0%);stroke-opacity:1;stroke-miterlimit:10;" />
    <path
       id="path14"
       transform="matrix(0.1,0,0,-0.1,0,128.02)"
       d="M 1101.328125 970.35625 L 1021.953125 970.35625 "
       style="fill:none;stroke-width:15.9404;stroke-linecap:butt;stroke-linejoin:miter;stroke:rgb(0%,0%,0%);stroke-opacity:1;stroke-miterlimit:10;" />
    <path
       id="path16"
       d="M 105.390625 20.015625 C 105.859375 20.015625 107.03125 19.980469 107.859375 19.667969 C 109.171875 19.167969 109.292969 18.164063 109.292969 17.855469 C 109.292969 17.09375 108.636719 16.402344 107.496094 16.402344 C 105.683594 16.402344 103.078125 18.046875 103.078125 21.117188 C 103.078125 22.933594 104.113281 24.191406 105.683594 24.191406 C 108.03125 24.191406 109.519531 22.363281 109.519531 22.136719 C 109.519531 22.035156 109.414063 21.949219 109.34375 21.949219 C 109.292969 21.949219 109.277344 21.964844 109.121094 22.121094 C 108.015625 23.589844 106.375 23.847656 105.71875 23.847656 C 104.734375 23.847656 104.21875 23.070313 104.21875 21.792969 C 104.21875 21.550781 104.21875 21.117188 104.476563 20.015625 Z M 104.5625 19.667969 C 105.304688 17.007813 106.945313 16.75 107.496094 16.75 C 108.257813 16.75 108.777344 17.199219 108.777344 17.855469 C 108.777344 19.667969 106.011719 19.667969 105.289063 19.667969 L 104.5625 19.667969 "
       style=" stroke:none;fill-rule:nonzero;fill:rgb(0%,0%,100%);fill-opacity:1;" />
    <path
       id="path18"
       d="M 142.285156 30.984375 C 142.285156 29.417969 141.015625 28.148438 139.449219 28.148438 C 137.882813 28.148438 136.613281 29.417969 136.613281 30.984375 C 136.613281 32.550781 137.882813 33.820313 139.449219 33.820313 C 141.015625 33.820313 142.285156 32.550781 142.285156 30.984375 Z M 142.285156 30.984375 "
       style=" stroke:none;fill-rule:nonzero;fill:rgb(0%,0%,0%);fill-opacity:1;" />
    <g
       id="g22"
       clip-rule="nonzero"
       clip-path="url(#clip1)">
      <path
         id="path20"
         transform="matrix(0.1,0,0,-0.1,0,128.02)"
         d="M 1422.851563 970.35625 C 1422.851563 986.020313 1410.15625 998.715625 1394.492188 998.715625 C 1378.828125 998.715625 1366.132813 986.020313 1366.132813 970.35625 C 1366.132813 954.692188 1378.828125 941.996875 1394.492188 941.996875 C 1410.15625 941.996875 1422.851563 954.692188 1422.851563 970.35625 Z M 1422.851563 970.35625 "
         style="fill:none;stroke-width:15.9404;stroke-linecap:butt;stroke-linejoin:miter;stroke:rgb(0%,0%,0%);stroke-opacity:1;stroke-miterlimit:10;" />
    </g>
    <path
       id="path24"
       transform="matrix(0.1,0,0,-0.1,0,128.02)"
       d="M 303.554688 90.98125 L 757.109375 90.98125 L 757.109375 544.535938 L 303.554688 544.535938 Z M 303.554688 90.98125 "
       style="fill:none;stroke-width:15.9404;stroke-linecap:butt;stroke-linejoin:miter;stroke:rgb(0%,0%,0%);stroke-opacity:1;stroke-miterlimit:10;" />
    <path
       id="path26"
       d="M 53.53125 86.078125 C 53.53125 85.804688 53.53125 85.792969 53.296875 85.792969 C 53.007813 86.117188 52.414063 86.554688 51.183594 86.554688 L 51.183594 86.902344 C 51.460938 86.902344 52.054688 86.902344 52.710938 86.59375 L 52.710938 92.804688 C 52.710938 93.230469 52.675781 93.375 51.625 93.375 L 51.257813 93.375 L 51.257813 93.71875 C 51.578125 93.695313 52.734375 93.695313 53.128906 93.695313 C 53.523438 93.695313 54.664063 93.695313 54.988281 93.71875 L 54.988281 93.375 L 54.617188 93.375 C 53.570313 93.375 53.53125 93.230469 53.53125 92.804688 L 53.53125 86.078125 "
       style=" stroke:none;fill-rule:nonzero;fill:rgb(0%,0%,100%);fill-opacity:1;" />
    <path
       id="path28"
       transform="matrix(0.1,0,0,-0.1,0,128.02)"
       d="M 485.3125 318.051563 L 575.390625 318.051563 "
       style="fill:none;stroke-width:3.985;stroke-linecap:butt;stroke-linejoin:miter;stroke:rgb(0%,0%,100%);stroke-opacity:1;stroke-miterlimit:10;" />
    <path
       id="path30"
       d="M 52.886719 99.089844 C 52.992188 98.648438 53.042969 98.625 53.507813 98.625 L 54.367188 98.625 C 55.390625 98.625 56.152344 98.933594 56.152344 99.863281 C 56.152344 100.472656 55.84375 102.226563 53.445313 102.226563 L 52.101563 102.226563 Z M 54.542969 102.367188 C 56.023438 102.046875 57.179688 101.09375 57.179688 100.066406 C 57.179688 99.136719 56.234375 98.277344 54.578125 98.277344 L 51.347656 98.277344 C 51.109375 98.277344 51.003906 98.277344 51.003906 98.503906 C 51.003906 98.625 51.085938 98.625 51.3125 98.625 C 52.027344 98.625 52.027344 98.71875 52.027344 98.851563 C 52.027344 98.875 52.027344 98.945313 51.980469 99.125 L 50.371094 105.539063 C 50.265625 105.953125 50.242188 106.074219 49.417969 106.074219 C 49.144531 106.074219 49.0625 106.074219 49.0625 106.300781 C 49.0625 106.421875 49.191406 106.421875 49.226563 106.421875 C 49.441406 106.421875 49.691406 106.398438 49.917969 106.398438 L 51.324219 106.398438 C 51.539063 106.398438 51.789063 106.421875 52.003906 106.421875 C 52.101563 106.421875 52.230469 106.421875 52.230469 106.195313 C 52.230469 106.074219 52.125 106.074219 51.945313 106.074219 C 51.21875 106.074219 51.21875 105.980469 51.21875 105.859375 C 51.21875 105.847656 51.21875 105.765625 51.242188 105.667969 L 52.039063 102.460938 L 53.46875 102.460938 C 54.601563 102.460938 54.816406 103.179688 54.816406 103.570313 C 54.816406 103.75 54.699219 104.214844 54.617188 104.523438 C 54.484375 105.074219 54.449219 105.203125 54.449219 105.429688 C 54.449219 106.277344 55.140625 106.671875 55.9375 106.671875 C 56.90625 106.671875 57.320313 105.492188 57.320313 105.324219 C 57.320313 105.242188 57.261719 105.203125 57.191406 105.203125 C 57.09375 105.203125 57.070313 105.277344 57.046875 105.371094 C 56.761719 106.21875 56.273438 106.433594 55.972656 106.433594 C 55.675781 106.433594 55.484375 106.300781 55.484375 105.765625 C 55.484375 105.476563 55.628906 104.394531 55.640625 104.335938 C 55.699219 103.894531 55.699219 103.84375 55.699219 103.75 C 55.699219 102.878906 54.996094 102.511719 54.542969 102.367188 "
       style=" stroke:none;fill-rule:nonzero;fill:rgb(0%,0%,100%);fill-opacity:1;" />
    <path
       id="path32"
       d="M 102.195313 99.078125 L 102.195313 93.410156 L 109.335938 96.246094 "
       style=" stroke:none;fill-rule:nonzero;fill:rgb(0%,0%,0%);fill-opacity:1;" />
    <path
       id="path34"
       transform="matrix(0.1,0,0,-0.1,0,128.02)"
       d="M 1021.953125 289.41875 L 1021.953125 346.098438 L 1093.359375 317.739063 Z M 1021.953125 289.41875 "
       style="fill:none;stroke-width:15.9404;stroke-linecap:butt;stroke-linejoin:miter;stroke:rgb(0%,0%,0%);stroke-opacity:1;stroke-miterlimit:10;" />
    <path
       id="path36"
       transform="matrix(0.1,0,0,-0.1,0,128.02)"
       d="M 1021.953125 317.739063 L 1101.328125 317.739063 "
       style="fill:none;stroke-width:15.9404;stroke-linecap:butt;stroke-linejoin:miter;stroke:rgb(0%,0%,0%);stroke-opacity:1;stroke-miterlimit:10;" />
    <path
       id="path38"
       d="M 108.800781 78.976563 C 109.148438 78.976563 109.285156 78.976563 109.285156 78.648438 C 109.285156 78.476563 109.148438 78.476563 108.835938 78.476563 L 107.4375 78.476563 C 107.765625 76.699219 108.007813 75.472656 108.144531 74.921875 C 108.25 74.503906 108.613281 74.109375 109.0625 74.109375 C 109.421875 74.109375 109.785156 74.265625 109.960938 74.417969 C 109.285156 74.488281 109.078125 74.988281 109.078125 75.28125 C 109.078125 75.628906 109.339844 75.835938 109.664063 75.835938 C 110.011719 75.835938 110.53125 75.542969 110.53125 74.886719 C 110.53125 74.160156 109.804688 73.761719 109.042969 73.761719 C 108.300781 73.761719 107.578125 74.316406 107.230469 74.988281 C 106.921875 75.59375 106.746094 76.214844 106.351563 78.476563 L 105.191406 78.476563 C 104.863281 78.476563 104.691406 78.476563 104.691406 78.789063 C 104.691406 78.976563 104.796875 78.976563 105.140625 78.976563 L 106.246094 78.976563 C 105.9375 80.585938 105.226563 84.488281 104.828125 86.335938 C 104.535156 87.835938 104.277344 89.097656 103.414063 89.097656 C 103.363281 89.097656 102.859375 89.097656 102.550781 88.769531 C 103.429688 88.699219 103.429688 87.941406 103.429688 87.921875 C 103.429688 87.578125 103.171875 87.371094 102.84375 87.371094 C 102.496094 87.371094 101.980469 87.664063 101.980469 88.320313 C 101.980469 89.0625 102.742188 89.445313 103.414063 89.445313 C 105.175781 89.445313 105.902344 86.28125 106.089844 85.417969 C 106.402344 84.089844 107.246094 79.496094 107.335938 78.976563 L 108.800781 78.976563 "
       style=" stroke:none;fill-rule:nonzero;fill:rgb(0%,0%,100%);fill-opacity:1;" />
    <path
       id="path40"
       d="M 142.285156 96.246094 C 142.285156 94.679688 141.015625 93.410156 139.449219 93.410156 C 137.882813 93.410156 136.613281 94.679688 136.613281 96.246094 C 136.613281 97.8125 137.882813 99.078125 139.449219 99.078125 C 141.015625 99.078125 142.285156 97.8125 142.285156 96.246094 Z M 142.285156 96.246094 "
       style=" stroke:none;fill-rule:nonzero;fill:rgb(0%,0%,0%);fill-opacity:1;" />
    <g
       id="g44"
       clip-rule="nonzero"
       clip-path="url(#clip2)">
      <path
         id="path42"
         transform="matrix(0.1,0,0,-0.1,0,128.02)"
         d="M 1422.851563 317.739063 C 1422.851563 333.403125 1410.15625 346.098438 1394.492188 346.098438 C 1378.828125 346.098438 1366.132813 333.403125 1366.132813 317.739063 C 1366.132813 302.075 1378.828125 289.41875 1394.492188 289.41875 C 1410.15625 289.41875 1422.851563 302.075 1422.851563 317.739063 Z M 1422.851563 317.739063 "
         style="fill:none;stroke-width:15.9404;stroke-linecap:butt;stroke-linejoin:miter;stroke:rgb(0%,0%,0%);stroke-opacity:1;stroke-miterlimit:10;" />
    </g>
    <path
       id="path46"
       transform="matrix(0.1,0,0,-0.1,0,128.02)"
       d="M 1362.148438 970.35625 L 1101.328125 970.35625 M 1021.953125 970.35625 L 83.007813 970.35625 L 83.007813 317.739063 L 295.625 317.739063 M 765.117188 317.739063 L 1021.953125 317.739063 M 1101.328125 317.739063 L 1362.148438 317.739063 "
       style="fill:none;stroke-width:15.9404;stroke-linecap:butt;stroke-linejoin:miter;stroke:rgb(0%,0%,0%);stroke-opacity:1;stroke-miterlimit:10;" />
  </g>
</svg>
