<?xml version="1.0" encoding="UTF-8" standalone="no"?>
<svg
   xmlns:dc="http://purl.org/dc/elements/1.1/"
   xmlns:cc="http://creativecommons.org/ns#"
   xmlns:rdf="http://www.w3.org/1999/02/22-rdf-syntax-ns#"
   xmlns:svg="http://www.w3.org/2000/svg"
   xmlns="http://www.w3.org/2000/svg"
   viewBox="0 0 231.17332 196.01334"
   height="196.01334"
   width="231.17332"
   xml:space="preserve"
   id="svg2"
   version="1.1"><metadata
     id="metadata8"><rdf:RDF><cc:Work
         rdf:about=""><dc:format>image/svg+xml</dc:format><dc:type
           rdf:resource="http://purl.org/dc/dcmitype/StillImage" /></cc:Work></rdf:RDF></metadata><defs
     id="defs6" /><g
     transform="matrix(1.3333333,0,0,-1.3333333,0,196.01333)"
     id="g10"><g
       transform="scale(0.1)"
       id="g12"><path
         id="path14"
         style="fill:none;stroke:#000000;stroke-width:15.9404;stroke-linecap:butt;stroke-linejoin:miter;stroke-miterlimit:10;stroke-dasharray:none;stroke-opacity:1"
         d="m 523.535,925.555 h 453.551 v 453.551 H 523.535 Z" /><path
         id="path16"
         style="fill:#0000ff;fill-opacity:1;fill-rule:nonzero;stroke:none"
         d="m 755.328,1253.41 c 0,2.75 0,2.86 -2.375,2.86 -2.875,-3.22 -8.828,-7.63 -21.109,-7.63 v -3.45 c 2.75,0 8.703,0 15.265,3.09 v -62.11 c 0,-4.28 -0.359,-5.72 -10.843,-5.72 h -3.703 V 1177 c 3.218,0.23 14.781,0.23 18.718,0.23 3.938,0 15.375,0 18.594,-0.23 v 3.45 h -3.703 c -10.484,0 -10.844,1.44 -10.844,5.72 v 67.24" /><path
         id="path18"
         style="fill:none;stroke:#0000ff;stroke-width:3.985;stroke-linecap:butt;stroke-linejoin:miter;stroke-miterlimit:10;stroke-dasharray:none;stroke-opacity:1"
         d="M 704.148,1152.64 H 796.48" /><path
         id="path20"
         style="fill:#0000ff;fill-opacity:1;fill-rule:nonzero;stroke:none"
         d="m 793.047,1132.84 c 0,1.08 -0.828,1.08 -1.078,1.08 -0.235,0 -0.719,0 -1.672,-1.19 l -8.219,-10.01 c -4.172,7.14 -10.734,11.2 -19.672,11.2 -25.75,0 -52.453,-26.11 -52.453,-54.12 0,-19.91 13.953,-32.3 31.36,-32.3 9.531,0 17.875,4.05 24.796,9.89 10.36,8.7 13.469,20.27 13.469,21.22 0,1.08 -0.953,1.08 -1.312,1.08 -1.078,0 -1.188,-0.72 -1.438,-1.21 -5.484,-18.59 -21.562,-27.53 -33.484,-27.53 -12.641,0 -23.61,8.11 -23.61,25.03 0,3.82 1.188,24.57 14.657,40.18 6.562,7.62 17.765,14.31 29.093,14.31 13.11,0 18.954,-10.86 18.954,-23.02 0,-3.09 -0.36,-5.72 -0.36,-6.18 0,-1.08 1.188,-1.08 1.547,-1.08 1.313,0 1.438,0.11 1.906,2.26 l 7.516,30.39" /><path
         id="path22"
         style="fill:#000000;fill-opacity:1;fill-rule:nonzero;stroke:none"
         d="m 1241.91,1123.98 v 56.7 l 71.39,-28.35" /><path
         id="path24"
         style="fill:none;stroke:#000000;stroke-width:15.9404;stroke-linecap:butt;stroke-linejoin:miter;stroke-miterlimit:10;stroke-dasharray:none;stroke-opacity:1"
         d="m 1241.91,1123.98 v 56.7 l 71.39,-28.35 z" /><path
         id="path26"
         style="fill:none;stroke:#000000;stroke-width:15.9404;stroke-linecap:butt;stroke-linejoin:miter;stroke-miterlimit:10;stroke-dasharray:none;stroke-opacity:1"
         d="m 1241.91,1152.33 h 79.36" /><path
         id="path28"
         style="fill:#0000ff;fill-opacity:1;fill-rule:nonzero;stroke:none"
         d="m 1273.91,1262.06 c 4.67,0 16.4,0.35 24.7,3.46 13.12,5.01 14.33,15.03 14.33,18.14 0,7.59 -6.56,14.5 -17.96,14.5 -18.14,0 -44.21,-16.41 -44.21,-47.14 0,-18.14 10.37,-30.75 26.07,-30.75 23.49,0 38.35,18.31 38.35,20.56 0,1.03 -1.03,1.89 -1.74,1.89 -0.51,0 -0.68,-0.17 -2.23,-1.72 -11.06,-14.69 -27.47,-17.27 -34.03,-17.27 -9.85,0 -15.02,7.77 -15.02,20.55 0,2.41 0,6.74 2.6,17.78 z m -8.28,3.46 c 7.42,26.59 23.82,29.18 29.35,29.18 7.6,0 12.79,-4.48 12.79,-11.04 0,-18.14 -27.64,-18.14 -34.89,-18.14 h -7.25" /><path
         id="path30"
         style="fill:#000000;fill-opacity:1;fill-rule:nonzero;stroke:none"
         d="m 1642.8,1152.33 c 0,15.65 -12.69,28.35 -28.35,28.35 -15.66,0 -28.35,-12.7 -28.35,-28.35 0,-15.65 12.69,-28.35 28.35,-28.35 15.66,0 28.35,12.7 28.35,28.35 z" /><path
         id="path32"
         style="fill:none;stroke:#000000;stroke-width:15.9404;stroke-linecap:butt;stroke-linejoin:miter;stroke-miterlimit:10;stroke-dasharray:none;stroke-opacity:1"
         d="m 1642.8,1152.33 c 0,15.65 -12.69,28.35 -28.35,28.35 -15.66,0 -28.35,-12.7 -28.35,-28.35 0,-15.65 12.69,-28.35 28.35,-28.35 15.66,0 28.35,12.7 28.35,28.35 z" /><path
         id="path34"
         style="fill:#000000;fill-opacity:1;fill-rule:nonzero;stroke:none"
         d="m 295.008,705.863 h -56.695 l 28.347,71.403" /><path
         id="path36"
         style="fill:none;stroke:#000000;stroke-width:15.9404;stroke-linecap:butt;stroke-linejoin:miter;stroke-miterlimit:10;stroke-dasharray:none;stroke-opacity:1"
         d="m 295.008,705.863 h -56.695 l 28.347,71.403 z" /><path
         id="path38"
         style="fill:none;stroke:#000000;stroke-width:15.9404;stroke-linecap:butt;stroke-linejoin:miter;stroke-miterlimit:10;stroke-dasharray:none;stroke-opacity:1"
         d="m 266.66,705.863 v 79.371" /><path
         id="path40"
         style="fill:#0000ff;fill-opacity:1;fill-rule:nonzero;stroke:none"
         d="m 192.156,799.438 c 0,0.859 -0.687,1.546 -1.547,1.546 -1.39,0 -8.125,-6.218 -11.406,-12.265 -3.109,7.781 -8.453,12.437 -15.89,12.437 -19.516,0 -40.579,-25.218 -40.579,-50.765 0,-17.094 10.016,-27.125 21.766,-27.125 9.141,0 16.75,6.922 20.375,10.89 l 0.172,-0.172 -6.563,-25.906 -1.562,-6.219 c -1.547,-5.187 -4.141,-5.187 -12.25,-5.359 -1.906,0 -3.625,0 -3.625,-3.281 0,-1.203 1.031,-1.719 2.234,-1.719 2.422,0 5.532,0.344 7.953,0.344 h 17.61 c 2.594,0 5.531,-0.344 8.109,-0.344 1.047,0 3.11,0 3.11,3.281 0,1.719 -1.375,1.719 -3.969,1.719 -8.11,0 -8.625,1.219 -8.625,2.594 0,0.859 0.172,1.031 0.687,3.281 z m -24.343,-53.891 c -0.875,-2.938 -0.875,-3.281 -3.282,-6.563 -3.797,-4.828 -11.406,-12.25 -19.515,-12.25 -7.078,0 -11.063,6.375 -11.063,16.579 0,9.484 5.36,28.828 8.641,36.093 5.875,12.078 13.984,18.297 20.719,18.297 11.406,0 13.64,-14.156 13.64,-15.547 0,-0.172 -0.515,-2.406 -0.687,-2.75 l -8.453,-33.859" /><path
         id="path42"
         style="fill:none;stroke:#000000;stroke-width:15.9404;stroke-linecap:butt;stroke-linejoin:miter;stroke-miterlimit:10;stroke-dasharray:none;stroke-opacity:1"
         d="m 523.535,90.9766 h 453.551 v 453.547 H 523.535 Z" /><path
         id="path44"
         style="fill:#0000ff;fill-opacity:1;fill-rule:nonzero;stroke:none"
         d="m 711.328,211.75 c 3.188,0.188 4.875,2.375 4.875,4.859 0,3.282 -2.484,4.875 -4.765,4.875 -2.391,0 -4.875,-1.5 -4.875,-4.968 0,-5.078 4.968,-9.25 11.031,-9.25 15.094,0 20.75,23.25 27.812,52.062 7.641,31.391 14.11,63.078 19.469,94.969 3.672,21.156 7.344,41.016 10.734,53.828 1.188,4.875 4.563,17.688 8.438,17.688 3.078,0 5.562,-1.891 5.953,-2.282 -3.266,-0.203 -4.953,-2.39 -4.953,-4.875 0,-3.265 2.469,-4.859 4.766,-4.859 2.375,0 4.859,1.484 4.859,4.969 0,5.359 -5.359,9.234 -10.828,9.234 -7.547,0 -13.11,-10.828 -18.578,-31.094 -0.297,-1.093 -13.797,-50.953 -24.735,-115.922 -2.578,-15.203 -5.453,-31.796 -8.734,-45.593 -1.797,-7.25 -6.359,-25.938 -14.406,-25.938 -3.578,0 -5.953,2.297 -6.063,2.297" /><path
         id="path46"
         style="fill:#000000;fill-opacity:1;fill-rule:nonzero;stroke:none"
         d="m 1321.27,346.098 v -56.696 l -71.39,28.348" /><path
         id="path48"
         style="fill:none;stroke:#000000;stroke-width:15.9404;stroke-linecap:butt;stroke-linejoin:miter;stroke-miterlimit:10;stroke-dasharray:none;stroke-opacity:1"
         d="m 1321.27,346.098 v -56.696 l -71.39,28.348 z" /><path
         id="path50"
         style="fill:none;stroke:#000000;stroke-width:15.9404;stroke-linecap:butt;stroke-linejoin:miter;stroke-miterlimit:10;stroke-dasharray:none;stroke-opacity:1"
         d="m 1321.27,317.75 h -79.36" /><path
         id="path52"
         style="fill:#0000ff;fill-opacity:1;fill-rule:nonzero;stroke:none"
         d="m 1308.02,490.422 c 3.45,0 4.84,0 4.84,3.281 0,1.735 -1.39,1.735 -4.5,1.735 h -13.98 c 3.28,17.781 5.7,30.046 7.07,35.562 1.05,4.156 4.68,8.125 9.16,8.125 3.62,0 7.25,-1.562 8.98,-3.109 -6.73,-0.688 -8.81,-5.703 -8.81,-8.641 0,-3.453 2.6,-5.516 5.88,-5.516 3.45,0 8.64,2.922 8.64,9.485 0,7.265 -7.27,11.234 -14.86,11.234 -7.42,0 -14.67,-5.531 -18.13,-12.265 -3.11,-6.047 -4.84,-12.266 -8.81,-34.875 h -11.58 c -3.28,0 -5,0 -5,-3.11 0,-1.906 1.03,-1.906 4.49,-1.906 h 11.06 c -3.11,-16.063 -10.19,-55.094 -14.17,-73.563 -2.94,-15.031 -5.52,-27.64 -14.16,-27.64 -0.51,0 -5.53,0 -8.64,3.281 8.81,0.703 8.81,8.297 8.81,8.469 0,3.453 -2.59,5.531 -5.87,5.531 -3.46,0 -8.63,-2.937 -8.63,-9.5 0,-7.437 7.6,-11.234 14.33,-11.234 17.61,0 24.88,31.609 26.77,40.25 3.11,13.297 11.57,59.218 12.43,64.406 h 14.68" /><path
         id="path54"
         style="fill:#000000;fill-opacity:1;fill-rule:nonzero;stroke:none"
         d="m 1642.8,317.75 c 0,15.656 -12.69,28.348 -28.35,28.348 -15.66,0 -28.35,-12.692 -28.35,-28.348 0,-15.656 12.69,-28.348 28.35,-28.348 15.66,0 28.35,12.692 28.35,28.348 z" /><path
         id="path56"
         style="fill:none;stroke:#000000;stroke-width:15.9404;stroke-linecap:butt;stroke-linejoin:miter;stroke-miterlimit:10;stroke-dasharray:none;stroke-opacity:1"
         d="m 1642.8,317.75 c 0,15.656 -12.69,28.348 -28.35,28.348 -15.66,0 -28.35,-12.692 -28.35,-28.348 0,-15.656 12.69,-28.348 28.35,-28.348 15.66,0 28.35,12.692 28.35,28.348 z" /><path
         id="path58"
         style="fill:none;stroke:#000000;stroke-width:15.9404;stroke-linecap:butt;stroke-linejoin:miter;stroke-miterlimit:10;stroke-dasharray:none;stroke-opacity:1"
         d="m 1582.13,1152.34 h -260.84 m -79.38,0 H 985.059 m -469.489,0 H 266.652 V 785.242 m 0,-79.371 V 317.754 H 515.57 m 469.489,0 h 256.851 m 79.38,0 h 260.84" /></g></g></svg>
