<?xml version="1.0" encoding="UTF-8" standalone="no"?>
<svg
   xmlns:dc="http://purl.org/dc/elements/1.1/"
   xmlns:cc="http://creativecommons.org/ns#"
   xmlns:rdf="http://www.w3.org/1999/02/22-rdf-syntax-ns#"
   xmlns:svg="http://www.w3.org/2000/svg"
   xmlns="http://www.w3.org/2000/svg"
   viewBox="0 0 231.66667 196.01334"
   height="196.01334"
   width="231.66667"
   xml:space="preserve"
   id="svg2"
   version="1.1"><metadata
     id="metadata8"><rdf:RDF><cc:Work
         rdf:about=""><dc:format>image/svg+xml</dc:format><dc:type
           rdf:resource="http://purl.org/dc/dcmitype/StillImage" /></cc:Work></rdf:RDF></metadata><defs
     id="defs6" /><g
     transform="matrix(1.3333333,0,0,-1.3333333,0,196.01333)"
     id="g10"><g
       transform="scale(0.1)"
       id="g12"><path
         id="path14"
         style="fill:none;stroke:#000000;stroke-width:15.9404;stroke-linecap:butt;stroke-linejoin:miter;stroke-miterlimit:10;stroke-dasharray:none;stroke-opacity:1"
         d="m 527.215,925.555 h 453.551 v 453.551 H 527.215 Z" /><path
         id="path16"
         style="fill:#0000ff;fill-opacity:1;fill-rule:nonzero;stroke:none"
         d="m 714.328,1046.75 c 3.188,0.19 4.875,2.38 4.875,4.86 0,3.28 -2.484,4.87 -4.765,4.87 -2.391,0 -4.875,-1.5 -4.875,-4.96 0,-5.08 4.968,-9.25 11.031,-9.25 15.094,0 20.75,23.25 27.812,52.06 7.641,31.39 14.11,63.08 19.469,94.97 3.672,21.15 7.344,41.01 10.734,53.83 1.188,4.87 4.563,17.68 8.438,17.68 3.078,0 5.562,-1.89 5.953,-2.28 -3.266,-0.2 -4.953,-2.39 -4.953,-4.87 0,-3.27 2.469,-4.86 4.766,-4.86 2.375,0 4.859,1.48 4.859,4.97 0,5.36 -5.359,9.23 -10.828,9.23 -7.547,0 -13.11,-10.83 -18.578,-31.09 -0.297,-1.1 -13.797,-50.96 -24.735,-115.93 -2.578,-15.2 -5.453,-31.79 -8.734,-45.59 -1.797,-7.25 -6.359,-25.94 -14.406,-25.94 -3.578,0 -5.953,2.3 -6.063,2.3" /><path
         id="path18"
         style="fill:#000000;fill-opacity:1;fill-rule:nonzero;stroke:none"
         d="m 1324.96,1180.68 v -56.7 l -71.41,28.35" /><path
         id="path20"
         style="fill:none;stroke:#000000;stroke-width:15.9404;stroke-linecap:butt;stroke-linejoin:miter;stroke-miterlimit:10;stroke-dasharray:none;stroke-opacity:1"
         d="m 1324.96,1180.68 v -56.7 l -71.41,28.35 z" /><path
         id="path22"
         style="fill:none;stroke:#000000;stroke-width:15.9404;stroke-linecap:butt;stroke-linejoin:miter;stroke-miterlimit:10;stroke-dasharray:none;stroke-opacity:1"
         d="m 1324.96,1152.33 h -79.37" /><path
         id="path24"
         style="fill:#0000ff;fill-opacity:1;fill-rule:nonzero;stroke:none"
         d="m 1276.91,1262.06 c 4.67,0 16.4,0.35 24.7,3.46 13.12,5.01 14.33,15.03 14.33,18.14 0,7.59 -6.56,14.5 -17.96,14.5 -18.14,0 -44.21,-16.41 -44.21,-47.14 0,-18.14 10.37,-30.75 26.07,-30.75 23.49,0 38.35,18.31 38.35,20.56 0,1.03 -1.03,1.89 -1.74,1.89 -0.51,0 -0.68,-0.17 -2.23,-1.72 -11.06,-14.69 -27.47,-17.27 -34.03,-17.27 -9.85,0 -15.02,7.77 -15.02,20.55 0,2.41 0,6.74 2.6,17.78 z m -8.28,3.46 c 7.42,26.59 23.82,29.18 29.35,29.18 7.6,0 12.79,-4.48 12.79,-11.04 0,-18.14 -27.64,-18.14 -34.89,-18.14 h -7.25" /><path
         id="path26"
         style="fill:#000000;fill-opacity:1;fill-rule:nonzero;stroke:none"
         d="m 1646.46,1152.33 c 0,15.65 -12.68,28.35 -28.34,28.35 -15.66,0 -28.35,-12.7 -28.35,-28.35 0,-15.65 12.69,-28.35 28.35,-28.35 15.66,0 28.34,12.7 28.34,28.35 z" /><path
         id="path28"
         style="fill:none;stroke:#000000;stroke-width:15.9404;stroke-linecap:butt;stroke-linejoin:miter;stroke-miterlimit:10;stroke-dasharray:none;stroke-opacity:1"
         d="m 1646.46,1152.33 c 0,15.65 -12.68,28.35 -28.34,28.35 -15.66,0 -28.35,-12.7 -28.35,-28.35 0,-15.65 12.69,-28.35 28.35,-28.35 15.66,0 28.34,12.7 28.34,28.35 z" /><path
         id="path30"
         style="fill:#000000;fill-opacity:1;fill-rule:nonzero;stroke:none"
         d="m 241.984,785.234 h 56.692 l -28.348,-71.398" /><path
         id="path32"
         style="fill:none;stroke:#000000;stroke-width:15.9404;stroke-linecap:butt;stroke-linejoin:miter;stroke-miterlimit:10;stroke-dasharray:none;stroke-opacity:1"
         d="m 241.984,785.234 h 56.692 l -28.348,-71.398 z" /><path
         id="path34"
         style="fill:none;stroke:#000000;stroke-width:15.9404;stroke-linecap:butt;stroke-linejoin:miter;stroke-miterlimit:10;stroke-dasharray:none;stroke-opacity:1"
         d="M 270.328,785.234 V 705.863" /><path
         id="path36"
         style="fill:#0000ff;fill-opacity:1;fill-rule:nonzero;stroke:none"
         d="m 123.422,703.063 c -1.203,-5.172 -1.891,-6.563 -8.969,-6.563 -2.078,0 -3.812,0 -3.812,-3.281 0,-0.344 0.172,-1.719 2.078,-1.719 2.25,0 4.656,0.344 6.906,0.344 h 7.422 c 3.625,0 12.437,-0.344 16.062,-0.344 1.047,0 3.11,0 3.11,3.109 0,1.891 -1.203,1.891 -4.141,1.891 -7.937,0 -8.469,1.219 -8.469,2.594 0,2.078 7.782,31.781 8.813,35.75 1.906,-4.828 6.562,-11.578 15.547,-11.578 19.515,0 40.578,25.39 40.578,50.781 0,15.891 -8.984,27.109 -21.938,27.109 -11.046,0 -20.375,-10.703 -22.265,-13.125 -1.391,8.641 -8.125,13.125 -15.031,13.125 -5,0 -8.985,-2.422 -12.266,-8.984 -3.109,-6.219 -5.516,-16.75 -5.516,-17.438 0,-0.687 0.688,-1.546 1.891,-1.546 1.391,0 1.562,0.171 2.594,4.14 2.593,10.188 5.875,20.375 12.781,20.375 3.969,0 5.359,-2.765 5.359,-7.937 0,-4.157 -0.531,-5.875 -1.218,-8.985 z m 29.875,75.812 c 1.219,4.844 6.047,9.844 8.812,12.266 1.907,1.734 7.594,6.562 14.157,6.562 7.609,0 11.062,-7.594 11.062,-16.578 0,-8.281 -4.844,-27.797 -9.156,-36.781 -4.313,-9.328 -12.266,-17.61 -20.203,-17.61 -11.75,0 -13.641,14.844 -13.641,15.532 0,0.515 0.344,1.906 0.516,2.765 l 8.453,33.844" /><path
         id="path38"
         style="fill:none;stroke:#000000;stroke-width:15.9404;stroke-linecap:butt;stroke-linejoin:miter;stroke-miterlimit:10;stroke-dasharray:none;stroke-opacity:1"
         d="m 527.215,90.9766 h 453.551 v 453.547 H 527.215 Z" /><path
         id="path40"
         style="fill:#0000ff;fill-opacity:1;fill-rule:nonzero;stroke:none"
         d="m 759.328,419.406 c 0,2.75 0,2.86 -2.375,2.86 -2.875,-3.219 -8.828,-7.625 -21.109,-7.625 v -3.453 c 2.75,0 8.703,0 15.265,3.093 v -62.109 c 0,-4.281 -0.359,-5.719 -10.843,-5.719 h -3.703 V 343 c 3.218,0.234 14.781,0.234 18.718,0.234 3.938,0 15.375,0 18.594,-0.234 v 3.453 h -3.703 c -10.484,0 -10.844,1.438 -10.844,5.719 v 67.234" /><path
         id="path42"
         style="fill:none;stroke:#0000ff;stroke-width:3.985;stroke-linecap:butt;stroke-linejoin:miter;stroke-miterlimit:10;stroke-dasharray:none;stroke-opacity:1"
         d="M 723.48,318.059 H 784.5" /><path
         id="path44"
         style="fill:#0000ff;fill-opacity:1;fill-rule:nonzero;stroke:none"
         d="m 766.875,288.594 c 1.063,4.172 1.297,5.359 10,5.359 2.625,0 3.578,0 3.578,2.266 0,1.203 -1.312,1.203 -1.672,1.203 -2.14,0 -4.765,-0.25 -6.906,-0.25 h -14.656 c -2.391,0 -5.141,0.25 -7.516,0.25 -0.953,0 -2.265,0 -2.265,-2.266 0,-1.203 0.953,-1.203 3.343,-1.203 7.391,0 7.391,-0.953 7.391,-2.265 0,-0.829 -0.25,-1.547 -0.484,-2.61 l -16.094,-64.25 c -1.078,-4.172 -1.313,-5.375 -10.016,-5.375 -2.625,0 -3.687,0 -3.687,-2.265 0,-1.188 1.187,-1.188 1.781,-1.188 2.156,0 4.766,0.234 6.922,0.234 h 14.656 c 2.391,0 5.016,-0.234 7.391,-0.234 0.953,0 2.39,0 2.39,2.141 0,1.312 -0.718,1.312 -3.343,1.312 -7.391,0 -7.391,0.953 -7.391,2.391 0,0.234 0,0.828 0.484,2.734 l 16.094,64.016" /><path
         id="path46"
         style="fill:#000000;fill-opacity:1;fill-rule:nonzero;stroke:none"
         d="m 1245.59,289.402 v 56.696 l 71.39,-28.348" /><path
         id="path48"
         style="fill:none;stroke:#000000;stroke-width:15.9404;stroke-linecap:butt;stroke-linejoin:miter;stroke-miterlimit:10;stroke-dasharray:none;stroke-opacity:1"
         d="m 1245.59,289.402 v 56.696 l 71.39,-28.348 z" /><path
         id="path50"
         style="fill:none;stroke:#000000;stroke-width:15.9404;stroke-linecap:butt;stroke-linejoin:miter;stroke-miterlimit:10;stroke-dasharray:none;stroke-opacity:1"
         d="m 1245.59,317.75 h 79.37" /><path
         id="path52"
         style="fill:#0000ff;fill-opacity:1;fill-rule:nonzero;stroke:none"
         d="m 1312.02,490.422 c 3.45,0 4.84,0 4.84,3.281 0,1.735 -1.39,1.735 -4.5,1.735 h -13.98 c 3.28,17.781 5.7,30.046 7.07,35.562 1.05,4.156 4.68,8.125 9.16,8.125 3.62,0 7.25,-1.562 8.98,-3.109 -6.73,-0.688 -8.81,-5.703 -8.81,-8.641 0,-3.453 2.6,-5.516 5.88,-5.516 3.45,0 8.64,2.922 8.64,9.485 0,7.265 -7.27,11.234 -14.86,11.234 -7.42,0 -14.67,-5.531 -18.13,-12.265 -3.11,-6.047 -4.84,-12.266 -8.81,-34.875 h -11.58 c -3.28,0 -5,0 -5,-3.11 0,-1.906 1.03,-1.906 4.49,-1.906 h 11.06 c -3.11,-16.063 -10.19,-55.094 -14.17,-73.563 -2.94,-15.031 -5.52,-27.64 -14.16,-27.64 -0.51,0 -5.53,0 -8.64,3.281 8.81,0.703 8.81,8.297 8.81,8.469 0,3.453 -2.59,5.531 -5.87,5.531 -3.46,0 -8.63,-2.937 -8.63,-9.5 0,-7.437 7.6,-11.234 14.33,-11.234 17.61,0 24.88,31.609 26.77,40.25 3.11,13.297 11.57,59.218 12.43,64.406 h 14.68" /><path
         id="path54"
         style="fill:#000000;fill-opacity:1;fill-rule:nonzero;stroke:none"
         d="m 1646.46,317.75 c 0,15.656 -12.68,28.348 -28.34,28.348 -15.66,0 -28.35,-12.692 -28.35,-28.348 0,-15.656 12.69,-28.348 28.35,-28.348 15.66,0 28.34,12.692 28.34,28.348 z" /><path
         id="path56"
         style="fill:none;stroke:#000000;stroke-width:15.9404;stroke-linecap:butt;stroke-linejoin:miter;stroke-miterlimit:10;stroke-dasharray:none;stroke-opacity:1"
         d="m 1646.46,317.75 c 0,15.656 -12.68,28.348 -28.34,28.348 -15.66,0 -28.35,-12.692 -28.35,-28.348 0,-15.656 12.69,-28.348 28.35,-28.348 15.66,0 28.34,12.692 28.34,28.348 z" /><path
         id="path58"
         style="fill:none;stroke:#000000;stroke-width:15.9404;stroke-linecap:butt;stroke-linejoin:miter;stroke-miterlimit:10;stroke-dasharray:none;stroke-opacity:1"
         d="m 1585.82,1152.34 h -260.84 m -79.37,0 H 988.75 m -469.488,0 H 270.344 V 785.242 m 0,-79.371 V 317.754 h 248.918 m 469.488,0 h 256.86 m 79.37,0 h 260.84" /></g></g></svg>
