<?xml version="1.0" encoding="UTF-8" standalone="no"?>
<svg
   xmlns:dc="http://purl.org/dc/elements/1.1/"
   xmlns:cc="http://creativecommons.org/ns#"
   xmlns:rdf="http://www.w3.org/1999/02/22-rdf-syntax-ns#"
   xmlns:svg="http://www.w3.org/2000/svg"
   xmlns="http://www.w3.org/2000/svg"
   viewBox="0 0 208.16 96.706665"
   height="96.706665"
   width="208.16"
   xml:space="preserve"
   id="svg2"
   version="1.1"><metadata
     id="metadata8"><rdf:RDF><cc:Work
         rdf:about=""><dc:format>image/svg+xml</dc:format><dc:type
           rdf:resource="http://purl.org/dc/dcmitype/StillImage" /></cc:Work></rdf:RDF></metadata><defs
     id="defs6" /><g
     transform="matrix(1.3333333,0,0,-1.3333333,0,96.706667)"
     id="g10"><g
       transform="scale(0.1)"
       id="g12"><path
         id="path14"
         style="fill:none;stroke:#000000;stroke-width:15.9404;stroke-linecap:round;stroke-linejoin:miter;stroke-miterlimit:10;stroke-dasharray:none;stroke-opacity:1"
         d="m 365.609,284.539 h 136.067 m 181.418,0 h 136.062 m -453.547,56.691 56.696,-56.691 -56.696,-56.695 m 396.856,113.386 56.691,-56.691 -56.691,-56.695" /><path
         id="path16"
         style="fill:#000000;fill-opacity:1;fill-rule:nonzero;stroke:none"
         d="m 634.953,343.609 h -85.14 v -4.5 c 11.906,0 13.812,0 13.812,-7.765 v -93.078 c 0,-7.782 -1.906,-7.782 -13.812,-7.782 V 226 c 5,0.344 14.671,0.344 20.031,0.344 7.078,0 15.359,0 22.453,-0.344 v 4.484 h -3.813 c -13.125,0 -13.468,1.735 -13.468,7.954 v 44.203 h 15.547 c 16.062,0 17.609,-5.703 17.609,-20.203 h 3.109 v 44.906 h -3.109 c 0,-14.516 -1.547,-20.203 -17.609,-20.203 h -15.547 v 45.234 c 0,5.875 0.343,6.734 7.265,6.734 h 22.266 c 26.078,0 29.016,-10.703 31.437,-33.671 h 3.11 l -4.141,38.171" /><path
         id="path18"
         style="fill:#0000ff;fill-opacity:1;fill-rule:nonzero;stroke:none"
         d="m 577.297,446.297 h 16.578 c 13.125,0 14.156,-2.938 14.156,-7.938 0,-2.25 -0.343,-4.671 -1.203,-8.468 -0.359,-0.688 -0.531,-1.547 -0.531,-1.891 0,-1.219 0.703,-1.906 1.906,-1.906 1.375,0 1.547,0.687 2.25,3.453 l 10.016,40.234 c 0,0.688 -0.516,1.735 -1.735,1.735 -1.546,0 -1.718,-0.688 -2.421,-3.625 -3.625,-12.953 -7.079,-16.578 -22.094,-16.578 H 578.5 l 11.219,44.718 c 1.562,6.047 1.906,6.563 8.984,6.563 h 23.141 c 21.594,0 24.703,-6.391 24.703,-18.641 0,-1.047 0,-4.844 -0.531,-9.328 -0.172,-0.703 -0.516,-2.937 -0.516,-3.625 0,-1.391 0.875,-1.906 1.906,-1.906 1.203,0 1.891,0.687 2.25,3.797 l 3.625,30.218 c 0,0.516 0.344,2.25 0.344,2.594 0,1.906 -1.562,1.906 -4.672,1.906 h -81.859 c -3.281,0 -5,0 -5,-3.109 0,-1.906 1.203,-1.906 4.14,-1.906 10.704,0 10.704,-1.203 10.704,-3.11 0,-0.859 -0.172,-1.546 -0.688,-3.453 l -23.312,-93.25 c -1.547,-6.047 -1.891,-7.765 -13.985,-7.765 -3.281,0 -5.015,0 -5.015,-3.11 0,-1.906 1.562,-1.906 2.593,-1.906 3.282,0 6.735,0.344 10.016,0.344 H 569 c 3.797,0 7.938,-0.344 11.75,-0.344 1.547,0 3.625,0 3.625,3.109 0,1.907 -1.047,1.907 -4.844,1.907 -13.64,0 -13.984,1.203 -13.984,3.797 0,0.859 0.344,2.234 0.687,3.453 l 11.063,44.031" /><path
         id="path20"
         style="fill:none;stroke:#000000;stroke-width:15.9404;stroke-linecap:round;stroke-linejoin:miter;stroke-miterlimit:10;stroke-dasharray:none;stroke-opacity:1"
         d="m 142.82,284.539 h 222.789 m 453.547,0 h 222.794 v 0" /><path
         id="path22"
         style="fill:none;stroke:#000000;stroke-width:15.9404;stroke-linecap:round;stroke-linejoin:miter;stroke-miterlimit:10;stroke-dasharray:none;stroke-opacity:1"
         d="M 142.82,511.313 V 57.7617 m 0,411.0313 -85.0387,-85.039 M 142.82,405.012 57.7813,319.973 M 142.82,341.23 57.7813,256.191 M 142.82,277.453 57.7813,192.41 M 142.82,213.672 57.7813,128.633 M 142.82,149.891 57.7813,64.8516" /><path
         id="path24"
         style="fill:none;stroke:#000000;stroke-width:15.9404;stroke-linecap:round;stroke-linejoin:miter;stroke-miterlimit:10;stroke-dasharray:none;stroke-opacity:1"
         d="m 1049.92,57.7617 h 453.547 v 453.551 H 1049.92 Z" /><path
         id="path26"
         style="fill:#000000;fill-opacity:1;fill-rule:nonzero;stroke:none"
         d="m 1238.58,297.594 c 0.34,1.047 4.65,9.672 11.05,15.203 4.5,4.141 10.35,6.906 17.09,6.906 6.91,0 9.33,-5.187 9.33,-12.094 0,-1.031 0,-4.484 -2.07,-12.593 l -4.32,-17.797 c -1.38,-5.172 -4.66,-17.953 -5,-19.86 -0.71,-2.593 -1.74,-7.078 -1.74,-7.765 0,-2.422 1.91,-4.328 4.5,-4.328 5.17,0 6.03,3.984 7.6,10.203 l 10.36,41.265 c 0.34,1.391 9.32,22.969 28.32,22.969 6.91,0 9.32,-5.187 9.32,-12.094 0,-9.671 -6.74,-28.484 -10.54,-38.843 -1.54,-4.157 -2.42,-6.391 -2.42,-9.5 0,-7.782 5.36,-14 13.66,-14 16.05,0 22.09,25.39 22.09,26.422 0,0.875 -0.68,1.562 -1.72,1.562 -1.56,0 -1.73,-0.516 -2.59,-3.453 -3.97,-13.813 -10.36,-21.063 -17.27,-21.063 -1.73,0 -4.5,0.172 -4.5,5.688 0,4.5 2.08,10.016 2.77,11.922 3.11,8.281 10.89,28.672 10.89,38.687 0,10.36 -6.05,18.125 -19.17,18.125 -11.58,0 -20.91,-6.562 -27.81,-16.75 -0.52,9.328 -6.22,16.75 -19.18,16.75 -15.35,0 -23.48,-10.875 -26.59,-15.203 -0.51,9.844 -7.59,15.203 -15.19,15.203 -5.01,0 -8.98,-2.422 -12.26,-8.984 -3.11,-6.219 -5.53,-16.75 -5.53,-17.438 0,-0.687 0.7,-1.546 1.9,-1.546 1.38,0 1.55,0.171 2.6,4.14 2.59,10.188 5.87,20.375 12.78,20.375 3.97,0 5.34,-2.765 5.34,-7.937 0,-3.813 -1.72,-10.547 -2.94,-15.891 l -4.82,-18.656 c -0.69,-3.281 -2.6,-11.047 -3.46,-14.156 -1.2,-4.485 -3.11,-12.61 -3.11,-13.469 0,-2.422 1.91,-4.328 4.49,-4.328 2.08,0 4.5,1.047 5.87,3.64 0.35,0.86 1.91,6.907 2.77,10.36 l 3.8,15.531 5.7,22.797" /><path
         id="path28"
         style="fill:#0000ff;fill-opacity:1;fill-rule:nonzero;stroke:none"
         d="m 1240.02,624.938 v 7.593 c 0,0.172 -5.71,6.047 -8.64,8.985 l -19.18,-16.063 2.08,-2.078 7.42,4.141 4.5,-4.485 c 0.52,-10.875 0.69,-21.578 0.69,-32.468 0,-6.735 -0.34,-13.641 -1.22,-20.547 l 8.47,-13.813 14.33,12.094 c -8.8,11.047 -8.45,9.844 -8.45,17.953 v 34.016 l 10.53,7.25 c 5.87,-1.547 13.81,-3.797 18.14,-7.594 0.69,-5.703 0.86,-11.391 0.86,-17.094 0,-20.89 -0.86,-28.156 -2.42,-34.89 3.1,-3.454 7.07,-7.938 9.32,-12.422 l 14.85,12.593 c -7.6,9.844 -8.63,12.094 -8.63,15.204 v 37.64 c 3.63,2.422 7.25,4.5 11.22,6.563 5.19,-1.375 16.58,-3.797 17.27,-8.453 0.34,-3.11 0.53,-7.25 0.53,-11.75 0,-24 -0.88,-29.704 -1.91,-36.954 3.45,-4.312 8.47,-10.359 10.19,-13.64 l 21.76,18.484 -2.07,2.938 c -3.28,-2.766 -4.66,-3.282 -8.11,-4.5 -2.42,2.422 -4.5,5.359 -6.39,8.125 v 20.89 c 0,9.844 0,19.688 0.68,29.532 -6.21,1.718 -14.15,6.046 -20.89,9.671 -7.09,-5.875 -14.68,-11.234 -22.28,-16.406 v 6.735 c -7.25,2.421 -14.17,5.875 -20.73,9.843 l -21.92,-17.093" /></g></g></svg>
