<?xml version="1.0" encoding="UTF-8" standalone="no"?>
<svg
   xmlns:dc="http://purl.org/dc/elements/1.1/"
   xmlns:cc="http://creativecommons.org/ns#"
   xmlns:rdf="http://www.w3.org/1999/02/22-rdf-syntax-ns#"
   xmlns:svg="http://www.w3.org/2000/svg"
   xmlns="http://www.w3.org/2000/svg"
   id="svg53"
   version="1.2"
   viewBox="0 0 206.71 157.54"
   height="157.54pt"
   width="206.71pt">
  <metadata
     id="metadata59">
    <rdf:RDF>
      <cc:Work
         rdf:about="">
        <dc:format>image/svg+xml</dc:format>
        <dc:type
           rdf:resource="http://purl.org/dc/dcmitype/StillImage" />
      </cc:Work>
    </rdf:RDF>
  </metadata>
  <defs
     id="defs57" />
  <g
     id="surface1">
    <path
       id="path2"
       transform="matrix(0.1,0,0,-0.1,0,157.54)"
       d="M 580.976563 1064.071875 C 518.359375 1064.071875 467.578125 1013.329687 467.578125 950.7125 C 467.578125 888.095312 518.359375 837.314062 580.976563 837.314062 C 643.59375 837.314062 694.375 888.095312 694.375 950.7125 C 694.375 1013.329687 643.59375 1064.071875 580.976563 1064.071875 Z M 580.976563 1064.071875 "
       style="fill:none;stroke-width:15.9404;stroke-linecap:butt;stroke-linejoin:miter;stroke:rgb(0%,0%,0%);stroke-opacity:1;stroke-miterlimit:10;" />
    <path
       id="path4"
       transform="matrix(0.1,0,0,-0.1,0,157.54)"
       d="M 580.976563 837.314062 L 580.976563 1064.071875 "
       style="fill:none;stroke-width:15.9404;stroke-linecap:butt;stroke-linejoin:miter;stroke:rgb(0%,0%,0%);stroke-opacity:1;stroke-miterlimit:10;" />
    <path
       id="path6"
       transform="matrix(0.1,0,0,-0.1,0,157.54)"
       d="M 421.835938 808.954687 L 421.835938 1067.353125 "
       style="fill:none;stroke-width:15.9404;stroke-linecap:butt;stroke-linejoin:miter;stroke:rgb(0%,0%,0%);stroke-opacity:1;stroke-miterlimit:10;" />
    <path
       id="path8"
       d="M 40.265625 53.308594 L 42.183594 48.296875 L 44.101563 53.308594 "
       style=" stroke:none;fill-rule:nonzero;fill:rgb(0%,0%,0%);fill-opacity:1;" />
    <path
       id="path10"
       transform="matrix(0.1,0,0,-0.1,0,157.54)"
       d="M 402.65625 1042.314062 L 421.835938 1092.43125 L 441.015625 1042.314062 Z M 402.65625 1042.314062 "
       style="fill:none;stroke-width:15.9404;stroke-linecap:butt;stroke-linejoin:round;stroke:rgb(0%,0%,0%);stroke-opacity:1;stroke-miterlimit:10;" />
    <path
       id="path12"
       d="M 14.1875 65.738281 C 14.414063 66.707031 15.242188 66.914063 15.65625 66.914063 C 16.210938 66.914063 16.625 66.550781 16.898438 65.964844 C 17.195313 65.339844 17.417969 64.324219 17.417969 64.269531 C 17.417969 64.183594 17.347656 64.113281 17.246094 64.113281 C 17.089844 64.113281 17.074219 64.199219 17.003906 64.460938 C 16.691406 65.652344 16.382813 66.566406 15.691406 66.566406 C 15.171875 66.566406 15.171875 65.996094 15.171875 65.773438 C 15.171875 65.375 15.226563 65.203125 15.398438 64.476563 C 15.519531 64.011719 15.640625 63.542969 15.742188 63.0625 L 16.453125 60.246094 C 16.570313 59.816406 16.570313 59.78125 16.570313 59.730469 C 16.570313 59.46875 16.363281 59.296875 16.105469 59.296875 C 15.605469 59.296875 15.484375 59.730469 15.378906 60.160156 C 15.207031 60.832031 14.273438 64.546875 14.15625 65.152344 C 14.136719 65.152344 13.464844 66.566406 12.203125 66.566406 C 11.304688 66.566406 11.132813 65.789063 11.132813 65.152344 C 11.132813 64.167969 11.617188 62.785156 12.0625 61.628906 C 12.273438 61.074219 12.359375 60.851563 12.359375 60.503906 C 12.359375 59.761719 11.824219 59.125 10.992188 59.125 C 9.40625 59.125 8.765625 61.628906 8.765625 61.765625 C 8.765625 61.835938 8.835938 61.921875 8.957031 61.921875 C 9.109375 61.921875 9.128906 61.851563 9.199219 61.609375 C 9.613281 60.125 10.285156 59.46875 10.941406 59.46875 C 11.117188 59.46875 11.390625 59.488281 11.390625 60.039063 C 11.390625 60.488281 11.203125 60.988281 10.941406 61.644531 C 10.183594 63.699219 10.09375 64.355469 10.09375 64.875 C 10.09375 66.636719 11.425781 66.914063 12.132813 66.914063 C 13.238281 66.914063 13.84375 66.152344 14.1875 65.738281 "
       style=" stroke:none;fill-rule:nonzero;fill:rgb(0%,0%,100%);fill-opacity:1;" />
    <path
       id="path14"
       d="M 23.183594 70.953125 C 23.183594 70.9375 23.183594 70.902344 23.132813 70.847656 C 22.335938 70.039063 20.214844 67.828125 20.214844 62.441406 C 20.214844 57.050781 22.304688 54.859375 23.148438 53.996094 C 23.148438 53.976563 23.183594 53.941406 23.183594 53.890625 C 23.183594 53.839844 23.132813 53.804688 23.0625 53.804688 C 22.875 53.804688 21.40625 55.085938 20.558594 56.980469 C 19.695313 58.898438 19.453125 60.765625 19.453125 62.421875 C 19.453125 63.667969 19.574219 65.773438 20.609375 68 C 21.441406 69.796875 22.855469 71.058594 23.0625 71.058594 C 23.148438 71.058594 23.183594 71.023438 23.183594 70.953125 "
       style=" stroke:none;fill-rule:nonzero;fill:rgb(0%,0%,100%);fill-opacity:1;" />
    <path
       id="path16"
       d="M 27.472656 59.796875 L 29.058594 59.796875 C 29.386719 59.796875 29.5625 59.796875 29.5625 59.488281 C 29.5625 59.296875 29.457031 59.296875 29.113281 59.296875 L 27.59375 59.296875 L 28.230469 56.777344 C 28.300781 56.535156 28.300781 56.5 28.300781 56.378906 C 28.300781 56.101563 28.074219 55.945313 27.851563 55.945313 C 27.710938 55.945313 27.316406 55.996094 27.179688 56.550781 L 26.503906 59.296875 L 24.882813 59.296875 C 24.535156 59.296875 24.378906 59.296875 24.378906 59.625 C 24.378906 59.796875 24.5 59.796875 24.828125 59.796875 L 26.367188 59.796875 L 25.226563 64.355469 C 25.085938 64.960938 25.035156 65.132813 25.035156 65.359375 C 25.035156 66.167969 25.605469 66.914063 26.574219 66.914063 C 28.316406 66.914063 29.25 64.390625 29.25 64.269531 C 29.25 64.167969 29.179688 64.113281 29.078125 64.113281 C 29.042969 64.113281 28.972656 64.113281 28.9375 64.183594 C 28.921875 64.199219 28.90625 64.21875 28.785156 64.496094 C 28.421875 65.359375 27.625 66.566406 26.625 66.566406 C 26.105469 66.566406 26.070313 66.136719 26.070313 65.753906 C 26.070313 65.738281 26.070313 65.410156 26.125 65.203125 L 27.472656 59.796875 "
       style=" stroke:none;fill-rule:nonzero;fill:rgb(0%,0%,100%);fill-opacity:1;" />
    <path
       id="path18"
       d="M 34.640625 62.441406 C 34.640625 61.195313 34.519531 59.089844 33.484375 56.863281 C 32.65625 55.066406 31.238281 53.804688 31.03125 53.804688 C 30.980469 53.804688 30.910156 53.824219 30.910156 53.910156 C 30.910156 53.941406 30.929688 53.960938 30.945313 53.996094 C 31.773438 54.859375 33.882813 57.050781 33.882813 62.421875 C 33.882813 67.808594 31.792969 70.003906 30.945313 70.867188 C 30.929688 70.902344 30.910156 70.917969 30.910156 70.953125 C 30.910156 71.039063 30.980469 71.058594 31.03125 71.058594 C 31.222656 71.058594 32.691406 69.777344 33.535156 67.878906 C 34.398438 65.964844 34.640625 64.097656 34.640625 62.441406 "
       style=" stroke:none;fill-rule:nonzero;fill:rgb(0%,0%,100%);fill-opacity:1;" />
    <path
       id="path20"
       transform="matrix(0.1,0,0,-0.1,0,157.54)"
       d="M 580.976563 1335.751562 L 580.976563 1416.064062 "
       style="fill:none;stroke-width:15.9404;stroke-linecap:butt;stroke-linejoin:miter;stroke:rgb(0%,0%,0%);stroke-opacity:1;stroke-miterlimit:10;" />
    <path
       id="path22"
       d="M 55.023438 23.964844 L 58.097656 15.933594 L 61.171875 23.964844 "
       style=" stroke:none;fill-rule:nonzero;fill:rgb(0%,0%,0%);fill-opacity:1;" />
    <path
       id="path24"
       transform="matrix(0.1,0,0,-0.1,0,157.54)"
       d="M 550.234375 1335.751562 L 580.976563 1416.064062 L 611.71875 1335.751562 Z M 550.234375 1335.751562 "
       style="fill:none;stroke-width:15.9404;stroke-linecap:butt;stroke-linejoin:round;stroke:rgb(0%,0%,0%);stroke-opacity:1;stroke-miterlimit:10;" />
    <path
       id="path26"
       d="M 31.789063 21.769531 C 31.789063 21.683594 31.71875 21.613281 31.613281 21.613281 C 31.460938 21.613281 31.441406 21.667969 31.355469 21.960938 C 30.90625 23.53125 30.199219 24.066406 29.628906 24.066406 C 29.421875 24.066406 29.179688 24.015625 29.179688 23.496094 C 29.179688 23.03125 29.386719 22.511719 29.578125 21.996094 L 30.785156 18.78125 C 30.835938 18.644531 30.957031 18.335938 30.957031 18.007813 C 30.957031 17.28125 30.441406 16.625 29.59375 16.625 C 28.003906 16.625 27.367188 19.128906 27.367188 19.265625 C 27.367188 19.335938 27.4375 19.421875 27.554688 19.421875 C 27.710938 19.421875 27.730469 19.351563 27.796875 19.109375 C 28.210938 17.660156 28.867188 16.96875 29.542969 16.96875 C 29.695313 16.96875 29.992188 16.988281 29.992188 17.539063 C 29.992188 17.988281 29.765625 18.558594 29.628906 18.9375 L 28.421875 22.152344 C 28.316406 22.425781 28.210938 22.703125 28.210938 23.011719 C 28.210938 23.792969 28.75 24.414063 29.578125 24.414063 C 31.164063 24.414063 31.789063 21.890625 31.789063 21.769531 Z M 31.648438 13.464844 C 31.648438 13.207031 31.441406 12.894531 31.0625 12.894531 C 30.664063 12.894531 30.214844 13.273438 30.214844 13.722656 C 30.214844 14.152344 30.578125 14.292969 30.785156 14.292969 C 31.25 14.292969 31.648438 13.84375 31.648438 13.464844 "
       style=" stroke:none;fill-rule:nonzero;fill:rgb(0%,0%,100%);fill-opacity:1;" />
    <path
       id="path28"
       d="M 37.882813 28.453125 C 37.882813 28.4375 37.882813 28.402344 37.832031 28.347656 C 37.039063 27.539063 34.914063 25.328125 34.914063 19.941406 C 34.914063 14.550781 37.003906 12.359375 37.851563 11.496094 C 37.851563 11.476563 37.882813 11.441406 37.882813 11.390625 C 37.882813 11.339844 37.832031 11.304688 37.765625 11.304688 C 37.574219 11.304688 36.105469 12.585938 35.257813 14.480469 C 34.394531 16.398438 34.15625 18.265625 34.15625 19.921875 C 34.15625 21.167969 34.273438 23.273438 35.3125 25.5 C 36.140625 27.296875 37.554688 28.558594 37.765625 28.558594 C 37.851563 28.558594 37.882813 28.523438 37.882813 28.453125 "
       style=" stroke:none;fill-rule:nonzero;fill:rgb(0%,0%,100%);fill-opacity:1;" />
    <path
       id="path30"
       d="M 42.171875 17.296875 L 43.757813 17.296875 C 44.085938 17.296875 44.261719 17.296875 44.261719 16.988281 C 44.261719 16.796875 44.15625 16.796875 43.8125 16.796875 L 42.292969 16.796875 L 42.929688 14.277344 C 43 14.035156 43 14 43 13.878906 C 43 13.601563 42.773438 13.445313 42.550781 13.445313 C 42.414063 13.445313 42.015625 13.496094 41.878906 14.050781 L 41.203125 16.796875 L 39.582031 16.796875 C 39.234375 16.796875 39.078125 16.796875 39.078125 17.125 C 39.078125 17.296875 39.203125 17.296875 39.53125 17.296875 L 41.066406 17.296875 L 39.925781 21.855469 C 39.789063 22.460938 39.734375 22.632813 39.734375 22.859375 C 39.734375 23.671875 40.304688 24.414063 41.273438 24.414063 C 43.015625 24.414063 43.949219 21.890625 43.949219 21.769531 C 43.949219 21.667969 43.882813 21.613281 43.777344 21.613281 C 43.742188 21.613281 43.671875 21.613281 43.640625 21.683594 C 43.621094 21.699219 43.605469 21.71875 43.484375 21.996094 C 43.121094 22.859375 42.328125 24.066406 41.324219 24.066406 C 40.804688 24.066406 40.773438 23.636719 40.773438 23.257813 C 40.773438 23.238281 40.773438 22.910156 40.824219 22.703125 L 42.171875 17.296875 "
       style=" stroke:none;fill-rule:nonzero;fill:rgb(0%,0%,100%);fill-opacity:1;" />
    <path
       id="path32"
       d="M 49.34375 19.941406 C 49.34375 18.695313 49.21875 16.589844 48.183594 14.363281 C 47.355469 12.566406 45.9375 11.304688 45.734375 11.304688 C 45.679688 11.304688 45.609375 11.324219 45.609375 11.410156 C 45.609375 11.441406 45.628906 11.460938 45.648438 11.496094 C 46.476563 12.359375 48.582031 14.550781 48.582031 19.921875 C 48.582031 25.308594 46.492188 27.503906 45.648438 28.367188 C 45.628906 28.402344 45.609375 28.421875 45.609375 28.453125 C 45.609375 28.539063 45.679688 28.558594 45.734375 28.558594 C 45.921875 28.558594 47.390625 27.277344 48.234375 25.378906 C 49.101563 23.464844 49.34375 21.597656 49.34375 19.941406 "
       style=" stroke:none;fill-rule:nonzero;fill:rgb(0%,0%,100%);fill-opacity:1;" />
    <path
       id="path34"
       transform="matrix(0.1,0,0,-0.1,0,157.54)"
       d="M 1714.84375 1177.470312 C 1746.171875 1177.470312 1771.523438 1152.079687 1771.523438 1120.790625 C 1771.523438 1089.4625 1746.171875 1064.071875 1714.84375 1064.071875 C 1746.171875 1064.071875 1771.523438 1038.68125 1771.523438 1007.392187 C 1771.523438 976.064062 1746.171875 950.7125 1714.84375 950.7125 C 1746.171875 950.7125 1771.523438 925.321875 1771.523438 893.99375 C 1771.523438 862.704687 1746.171875 837.314062 1714.84375 837.314062 C 1746.171875 837.314062 1771.523438 811.923437 1771.523438 780.634375 C 1771.523438 749.30625 1746.171875 723.915625 1714.84375 723.915625 "
       style="fill:none;stroke-width:15.9404;stroke-linecap:round;stroke-linejoin:miter;stroke:rgb(0%,0%,0%);stroke-opacity:1;stroke-miterlimit:10;" />
    <path
       id="path36"
       transform="matrix(0.1,0,0,-0.1,0,157.54)"
       d="M 1809.335938 1092.43125 L 1809.335938 834.032812 "
       style="fill:none;stroke-width:15.9404;stroke-linecap:butt;stroke-linejoin:miter;stroke:rgb(0%,0%,0%);stroke-opacity:1;stroke-miterlimit:10;" />
    <path
       id="path38"
       d="M 182.851563 71.628906 L 180.933594 76.644531 L 179.015625 71.628906 "
       style=" stroke:none;fill-rule:nonzero;fill:rgb(0%,0%,0%);fill-opacity:1;" />
    <path
       id="path40"
       transform="matrix(0.1,0,0,-0.1,0,157.54)"
       d="M 1828.515625 859.110937 L 1809.335938 808.954687 L 1790.15625 859.110937 Z M 1828.515625 859.110937 "
       style="fill:none;stroke-width:15.9404;stroke-linecap:butt;stroke-linejoin:round;stroke:rgb(0%,0%,0%);stroke-opacity:1;stroke-miterlimit:10;" />
    <path
       id="path42"
       d="M 193.238281 57.875 C 193.394531 57.21875 193.445313 57.046875 194.964844 57.046875 C 195.429688 57.046875 195.550781 57.046875 195.550781 56.71875 C 195.550781 56.546875 195.363281 56.546875 195.292969 56.546875 C 194.945313 56.546875 194.550781 56.578125 194.203125 56.578125 L 191.890625 56.578125 C 191.5625 56.578125 191.183594 56.546875 190.855469 56.546875 C 190.71875 56.546875 190.527344 56.546875 190.527344 56.871094 C 190.527344 57.046875 190.679688 57.046875 190.941406 57.046875 C 191.992188 57.046875 191.992188 57.183594 191.992188 57.375 C 191.992188 57.410156 191.992188 57.511719 191.925781 57.769531 L 189.59375 67.0625 C 189.4375 67.667969 189.40625 67.839844 188.195313 67.839844 C 187.867188 67.839844 187.695313 67.839844 187.695313 68.148438 C 187.695313 68.339844 187.796875 68.339844 188.144531 68.339844 L 195.878906 68.339844 C 196.257813 68.339844 196.277344 68.324219 196.398438 68.011719 L 197.726563 64.332031 C 197.761719 64.246094 197.796875 64.144531 197.796875 64.089844 C 197.796875 63.988281 197.710938 63.917969 197.625 63.917969 C 197.605469 63.917969 197.519531 63.917969 197.484375 63.988281 C 197.453125 64.003906 197.453125 64.039063 197.3125 64.367188 C 196.761719 65.886719 195.984375 67.839844 193.066406 67.839844 L 191.40625 67.839844 C 191.164063 67.839844 191.132813 67.839844 191.027344 67.820313 C 190.839844 67.804688 190.820313 67.769531 190.820313 67.632813 C 190.820313 67.511719 190.855469 67.40625 190.890625 67.253906 L 193.238281 57.875 "
       style=" stroke:none;fill-rule:nonzero;fill:rgb(0%,0%,100%);fill-opacity:1;" />
    <path
       id="path44"
       transform="matrix(0.1,0,0,-0.1,0,157.54)"
       d="M 1176.25 383.759375 C 1176.25 399.423437 1163.554688 412.11875 1147.890625 412.11875 C 1132.265625 412.11875 1119.570313 399.423437 1119.570313 383.759375 C 1119.570313 368.095312 1132.265625 355.4 1147.890625 355.4 C 1163.554688 355.4 1176.25 368.095312 1176.25 383.759375 Z M 1176.25 383.759375 "
       style="fill-rule:nonzero;fill:rgb(0%,0%,0%);fill-opacity:1;stroke-width:15.9404;stroke-linecap:butt;stroke-linejoin:miter;stroke:rgb(0%,0%,0%);stroke-opacity:1;stroke-miterlimit:10;" />
    <path
       id="path46"
       transform="matrix(0.1,0,0,-0.1,0,157.54)"
       d="M 580.976563 383.759375 L 580.976563 829.345312 M 580.976563 1072.040625 L 580.976563 1335.751562 M 580.976563 1416.064062 L 580.976563 1517.626562 L 1714.84375 1517.626562 L 1714.84375 1177.470312 M 1714.84375 723.915625 L 1714.84375 383.759375 L 1180.234375 383.759375 M 1115.585938 383.759375 L 580.976563 383.759375 "
       style="fill:none;stroke-width:15.9404;stroke-linecap:round;stroke-linejoin:miter;stroke:rgb(0%,0%,0%);stroke-opacity:1;stroke-miterlimit:10;" />
    <path
       id="path48"
       transform="matrix(0.1,0,0,-0.1,0,157.54)"
       d="M 1147.890625 351.415625 L 1147.890625 150.790625 "
       style="fill:none;stroke-width:15.9404;stroke-linecap:round;stroke-linejoin:miter;stroke:rgb(0%,0%,0%);stroke-opacity:1;stroke-miterlimit:10;" />
    <path
       id="path50"
       transform="matrix(0.1,0,0,-0.1,0,157.54)"
       d="M 1034.53125 142.821875 L 1261.289063 142.821875 M 1072.304688 100.282812 L 1223.515625 100.282812 M 1110.117188 57.782812 L 1185.703125 57.782812 "
       style="fill:none;stroke-width:15.9404;stroke-linecap:round;stroke-linejoin:miter;stroke:rgb(0%,0%,0%);stroke-opacity:1;stroke-miterlimit:10;" />
  </g>
</svg>
