<?xml version="1.0" encoding="UTF-8" standalone="no"?>
<svg
   xmlns:dc="http://purl.org/dc/elements/1.1/"
   xmlns:cc="http://creativecommons.org/ns#"
   xmlns:rdf="http://www.w3.org/1999/02/22-rdf-syntax-ns#"
   xmlns:svg="http://www.w3.org/2000/svg"
   xmlns="http://www.w3.org/2000/svg"
   id="svg58"
   version="1.2"
   viewBox="0 0 222.25 172.4"
   height="172.4pt"
   width="222.25pt">
  <metadata
     id="metadata62">
    <rdf:RDF>
      <cc:Work
         rdf:about="">
        <dc:format>image/svg+xml</dc:format>
        <dc:type
           rdf:resource="http://purl.org/dc/dcmitype/StillImage" />
      </cc:Work>
    </rdf:RDF>
  </metadata>
  <defs
     id="defs5">
    <clipPath
       id="clip1">
      <path
         id="path2"
         d="M 173 58 L 222.25 58 L 222.25 111 L 173 111 Z M 173 58 " />
    </clipPath>
  </defs>
  <g
     id="surface1">
    <path
       id="path7"
       transform="matrix(0.1,0,0,-0.1,0,172.4)"
       d="M 57.773438 1212.671875 L 511.328125 1212.671875 L 511.328125 1666.1875 L 57.773438 1666.1875 Z M 57.773438 1212.671875 "
       style="fill:none;stroke-width:15.9404;stroke-linecap:butt;stroke-linejoin:miter;stroke:rgb(0%,0%,0%);stroke-opacity:1;stroke-miterlimit:10;" />
    <path
       id="path9"
       d="M 24.589844 26.894531 C 25.058594 26.894531 26.230469 26.859375 27.0625 26.546875 C 28.375 26.046875 28.492188 25.046875 28.492188 24.734375 C 28.492188 23.976563 27.835938 23.285156 26.699219 23.285156 C 24.882813 23.285156 22.277344 24.925781 22.277344 27.996094 C 22.277344 29.8125 23.3125 31.074219 24.882813 31.074219 C 27.234375 31.074219 28.71875 29.242188 28.71875 29.015625 C 28.71875 28.914063 28.617188 28.828125 28.546875 28.828125 C 28.492188 28.828125 28.476563 28.84375 28.320313 29 C 27.214844 30.46875 25.574219 30.726563 24.917969 30.726563 C 23.933594 30.726563 23.417969 29.949219 23.417969 28.671875 C 23.417969 28.429688 23.417969 27.996094 23.675781 26.894531 Z M 23.761719 26.546875 C 24.503906 23.890625 26.144531 23.628906 26.699219 23.628906 C 27.457031 23.628906 27.976563 24.078125 27.976563 24.734375 C 27.976563 26.546875 25.210938 26.546875 24.488281 26.546875 L 23.761719 26.546875 "
       style=" stroke:none;fill-rule:nonzero;fill:rgb(0%,0%,100%);fill-opacity:1;" />
    <path
       id="path11"
       d="M 32.117188 31.117188 C 32.320313 31.152344 32.640625 31.222656 32.714844 31.234375 C 32.867188 31.28125 33.40625 31.472656 33.40625 32.046875 C 33.40625 32.414063 33.070313 33.382813 31.6875 33.382813 C 31.4375 33.382813 30.542969 33.34375 30.304688 32.6875 C 30.78125 32.746094 31.023438 32.378906 31.023438 32.117188 C 31.023438 31.867188 30.855469 31.734375 30.617188 31.734375 C 30.351563 31.734375 30.007813 31.9375 30.007813 32.476563 C 30.007813 33.179688 30.722656 33.617188 31.675781 33.617188 C 33.488281 33.617188 34.023438 32.285156 34.023438 31.664063 C 34.023438 31.484375 34.023438 31.152344 33.644531 30.769531 C 33.34375 30.484375 33.058594 30.425781 32.414063 30.292969 C 32.09375 30.222656 31.582031 30.113281 31.582031 29.578125 C 31.582031 29.339844 31.796875 28.480469 32.929688 28.480469 C 33.429688 28.480469 33.917969 28.671875 34.039063 29.101563 C 33.511719 29.101563 33.488281 29.554688 33.488281 29.566406 C 33.488281 29.816406 33.714844 29.886719 33.820313 29.886719 C 33.988281 29.886719 34.324219 29.757813 34.324219 29.257813 C 34.324219 28.757813 33.871094 28.242188 32.941406 28.242188 C 31.378906 28.242188 30.960938 29.46875 30.960938 29.960938 C 30.960938 30.867188 31.84375 31.054688 32.117188 31.117188 "
       style=" stroke:none;fill-rule:nonzero;fill:rgb(0%,0%,100%);fill-opacity:1;" />
    <path
       id="path13"
       d="M 81.179688 31.292969 L 81.179688 25.621094 L 88.320313 28.457031 "
       style=" stroke:none;fill-rule:nonzero;fill:rgb(0%,0%,0%);fill-opacity:1;" />
    <path
       id="path15"
       transform="matrix(0.1,0,0,-0.1,0,172.4)"
       d="M 811.796875 1411.070313 L 811.796875 1467.789063 L 883.203125 1439.429688 Z M 811.796875 1411.070313 "
       style="fill:none;stroke-width:15.9404;stroke-linecap:butt;stroke-linejoin:miter;stroke:rgb(0%,0%,0%);stroke-opacity:1;stroke-miterlimit:10;" />
    <path
       id="path17"
       transform="matrix(0.1,0,0,-0.1,0,172.4)"
       d="M 811.796875 1439.429688 L 891.171875 1439.429688 "
       style="fill:none;stroke-width:15.9404;stroke-linecap:butt;stroke-linejoin:miter;stroke:rgb(0%,0%,0%);stroke-opacity:1;stroke-miterlimit:10;" />
    <path
       id="path19"
       d="M 84.289063 17.492188 C 84.757813 17.492188 85.929688 17.460938 86.761719 17.148438 C 88.074219 16.648438 88.195313 15.644531 88.195313 15.335938 C 88.195313 14.574219 87.539063 13.882813 86.398438 13.882813 C 84.585938 13.882813 81.976563 15.523438 81.976563 18.597656 C 81.976563 20.410156 83.015625 21.671875 84.585938 21.671875 C 86.933594 21.671875 88.417969 19.84375 88.417969 19.617188 C 88.417969 19.515625 88.316406 19.429688 88.246094 19.429688 C 88.195313 19.429688 88.175781 19.445313 88.023438 19.601563 C 86.914063 21.070313 85.273438 21.328125 84.617188 21.328125 C 83.632813 21.328125 83.117188 20.550781 83.117188 19.273438 C 83.117188 19.03125 83.117188 18.597656 83.375 17.492188 Z M 83.460938 17.148438 C 84.203125 14.488281 85.84375 14.230469 86.398438 14.230469 C 87.15625 14.230469 87.675781 14.679688 87.675781 15.335938 C 87.675781 17.148438 84.914063 17.148438 84.1875 17.148438 L 83.460938 17.148438 "
       style=" stroke:none;fill-rule:nonzero;fill:rgb(0%,0%,100%);fill-opacity:1;" />
    <path
       id="path21"
       transform="matrix(0.1,0,0,-0.1,0,172.4)"
       d="M 1191.640625 1212.671875 L 1645.195313 1212.671875 L 1645.195313 1666.1875 L 1191.640625 1666.1875 Z M 1191.640625 1212.671875 "
       style="fill:none;stroke-width:15.9404;stroke-linecap:butt;stroke-linejoin:miter;stroke:rgb(0%,0%,0%);stroke-opacity:1;stroke-miterlimit:10;" />
    <path
       id="path23"
       d="M 134.996094 46.894531 C 135.546875 46.859375 135.84375 46.480469 135.84375 46.050781 C 135.84375 45.480469 135.410156 45.203125 135.015625 45.203125 C 134.597656 45.203125 134.167969 45.460938 134.167969 46.066406 C 134.167969 46.945313 135.03125 47.671875 136.085938 47.671875 C 138.710938 47.671875 139.695313 43.632813 140.917969 38.621094 C 142.246094 33.164063 143.371094 27.65625 144.304688 22.113281 C 144.945313 18.4375 145.582031 14.980469 146.167969 12.753906 C 146.378906 11.90625 146.964844 9.679688 147.636719 9.679688 C 148.171875 9.679688 148.605469 10.007813 148.671875 10.078125 C 148.101563 10.109375 147.808594 10.492188 147.808594 10.921875 C 147.808594 11.492188 148.242188 11.769531 148.640625 11.769531 C 149.054688 11.769531 149.484375 11.511719 149.484375 10.90625 C 149.484375 9.972656 148.554688 9.300781 147.601563 9.300781 C 146.289063 9.300781 145.324219 11.183594 144.371094 14.703125 C 144.320313 14.894531 141.972656 23.5625 140.074219 34.859375 C 139.621094 37.503906 139.121094 40.382813 138.554688 42.785156 C 138.242188 44.046875 137.449219 47.292969 136.050781 47.292969 C 135.429688 47.292969 135.015625 46.894531 134.996094 46.894531 "
       style=" stroke:none;fill-rule:nonzero;fill:rgb(0%,0%,100%);fill-opacity:1;" />
    <path
       id="path25"
       d="M 195.699219 81.183594 L 201.371094 81.183594 L 198.535156 88.324219 "
       style=" stroke:none;fill-rule:nonzero;fill:rgb(0%,0%,0%);fill-opacity:1;" />
    <g
       id="g29"
       clip-rule="nonzero"
       clip-path="url(#clip1)">
      <path
         id="path27"
         transform="matrix(0.1,0,0,-0.1,0,172.4)"
         d="M 1956.992188 912.164063 L 2013.710938 912.164063 L 1985.351563 840.757813 Z M 1956.992188 912.164063 "
         style="fill:none;stroke-width:15.9404;stroke-linecap:butt;stroke-linejoin:miter;stroke:rgb(0%,0%,0%);stroke-opacity:1;stroke-miterlimit:10;" />
    </g>
    <path
       id="path31"
       transform="matrix(0.1,0,0,-0.1,0,172.4)"
       d="M 1985.351563 912.164063 L 1985.351563 832.828125 "
       style="fill:none;stroke-width:15.9404;stroke-linecap:butt;stroke-linejoin:miter;stroke:rgb(0%,0%,0%);stroke-opacity:1;stroke-miterlimit:10;" />
    <path
       id="path33"
       d="M 206.242188 89.394531 C 206.121094 89.910156 206.054688 90.050781 205.34375 90.050781 C 205.136719 90.050781 204.964844 90.050781 204.964844 90.378906 C 204.964844 90.414063 204.980469 90.550781 205.171875 90.550781 C 205.398438 90.550781 205.636719 90.515625 205.863281 90.515625 L 206.605469 90.515625 C 206.96875 90.515625 207.847656 90.550781 208.210938 90.550781 C 208.316406 90.550781 208.523438 90.550781 208.523438 90.238281 C 208.523438 90.050781 208.402344 90.050781 208.109375 90.050781 C 207.3125 90.050781 207.261719 89.929688 207.261719 89.789063 C 207.261719 89.582031 208.039063 86.613281 208.140625 86.214844 C 208.332031 86.699219 208.796875 87.375 209.695313 87.375 C 211.648438 87.375 213.753906 84.835938 213.753906 82.296875 C 213.753906 80.707031 212.855469 79.585938 211.5625 79.585938 C 210.457031 79.585938 209.523438 80.65625 209.335938 80.898438 C 209.195313 80.03125 208.523438 79.585938 207.832031 79.585938 C 207.332031 79.585938 206.933594 79.828125 206.605469 80.484375 C 206.292969 81.105469 206.054688 82.15625 206.054688 82.226563 C 206.054688 82.296875 206.121094 82.382813 206.242188 82.382813 C 206.382813 82.382813 206.398438 82.363281 206.503906 81.96875 C 206.761719 80.949219 207.089844 79.929688 207.78125 79.929688 C 208.175781 79.929688 208.316406 80.207031 208.316406 80.722656 C 208.316406 81.140625 208.261719 81.3125 208.195313 81.621094 Z M 209.230469 81.8125 C 209.351563 81.328125 209.835938 80.828125 210.109375 80.585938 C 210.300781 80.414063 210.871094 79.929688 211.527344 79.929688 C 212.289063 79.929688 212.632813 80.6875 212.632813 81.585938 C 212.632813 82.414063 212.148438 84.367188 211.71875 85.265625 C 211.285156 86.199219 210.492188 87.027344 209.695313 87.027344 C 208.523438 87.027344 208.332031 85.542969 208.332031 85.472656 C 208.332031 85.421875 208.367188 85.28125 208.382813 85.195313 L 209.230469 81.8125 "
       style=" stroke:none;fill-rule:nonzero;fill:rgb(0%,0%,100%);fill-opacity:1;" />
    <path
       id="path35"
       transform="matrix(0.1,0,0,-0.1,0,172.4)"
       d="M 1191.640625 78.804688 L 1645.195313 78.804688 L 1645.195313 532.320313 L 1191.640625 532.320313 Z M 1191.640625 78.804688 "
       style="fill:none;stroke-width:15.9404;stroke-linecap:butt;stroke-linejoin:miter;stroke:rgb(0%,0%,0%);stroke-opacity:1;stroke-miterlimit:10;" />
    <path
       id="path37"
       d="M 142.332031 131.660156 C 142.332031 131.382813 142.332031 131.375 142.09375 131.375 C 141.808594 131.695313 141.214844 132.136719 139.984375 132.136719 L 139.984375 132.480469 C 140.257813 132.480469 140.855469 132.480469 141.511719 132.171875 L 141.511719 138.382813 C 141.511719 138.8125 141.476563 138.953125 140.425781 138.953125 L 140.054688 138.953125 L 140.054688 139.300781 C 140.378906 139.277344 141.535156 139.277344 141.929688 139.277344 C 142.320313 139.277344 143.464844 139.277344 143.789063 139.300781 L 143.789063 138.953125 L 143.417969 138.953125 C 142.367188 138.953125 142.332031 138.8125 142.332031 138.382813 L 142.332031 131.660156 "
       style=" stroke:none;fill-rule:nonzero;fill:rgb(0%,0%,100%);fill-opacity:1;" />
    <path
       id="path39"
       transform="matrix(0.1,0,0,-0.1,0,172.4)"
       d="M 1387.890625 305.875 L 1448.945313 305.875 "
       style="fill:none;stroke-width:6.886;stroke-linecap:butt;stroke-linejoin:miter;stroke:rgb(0%,0%,100%);stroke-opacity:1;stroke-miterlimit:10;" />
    <path
       id="path41"
       d="M 143.1875 144.839844 C 143.292969 144.421875 143.316406 144.304688 144.1875 144.304688 C 144.449219 144.304688 144.546875 144.304688 144.546875 144.078125 C 144.546875 143.957031 144.414063 143.957031 144.378906 143.957031 C 144.164063 143.957031 143.902344 143.984375 143.6875 143.984375 L 142.222656 143.984375 C 141.984375 143.984375 141.707031 143.957031 141.46875 143.957031 C 141.375 143.957031 141.242188 143.957031 141.242188 144.183594 C 141.242188 144.304688 141.339844 144.304688 141.578125 144.304688 C 142.316406 144.304688 142.316406 144.398438 142.316406 144.53125 C 142.316406 144.613281 142.292969 144.6875 142.269531 144.792969 L 140.660156 151.21875 C 140.550781 151.632813 140.527344 151.753906 139.65625 151.753906 C 139.394531 151.753906 139.289063 151.753906 139.289063 151.980469 C 139.289063 152.101563 139.40625 152.101563 139.46875 152.101563 C 139.683594 152.101563 139.945313 152.078125 140.160156 152.078125 L 141.625 152.078125 C 141.863281 152.078125 142.128906 152.101563 142.363281 152.101563 C 142.460938 152.101563 142.601563 152.101563 142.601563 151.886719 C 142.601563 151.753906 142.53125 151.753906 142.269531 151.753906 C 141.53125 151.753906 141.53125 151.660156 141.53125 151.515625 C 141.53125 151.492188 141.53125 151.433594 141.578125 151.242188 L 143.1875 144.839844 "
       style=" stroke:none;fill-rule:nonzero;fill:rgb(0%,0%,100%);fill-opacity:1;" />
    <path
       id="path43"
       d="M 89.117188 139.007813 L 89.117188 144.679688 L 81.976563 141.84375 "
       style=" stroke:none;fill-rule:nonzero;fill:rgb(0%,0%,0%);fill-opacity:1;" />
    <path
       id="path45"
       transform="matrix(0.1,0,0,-0.1,0,172.4)"
       d="M 891.171875 333.921875 L 891.171875 277.203125 L 819.765625 305.5625 Z M 891.171875 333.921875 "
       style="fill:none;stroke-width:15.9404;stroke-linecap:butt;stroke-linejoin:miter;stroke:rgb(0%,0%,0%);stroke-opacity:1;stroke-miterlimit:10;" />
    <path
       id="path47"
       transform="matrix(0.1,0,0,-0.1,0,172.4)"
       d="M 891.171875 305.5625 L 811.796875 305.5625 "
       style="fill:none;stroke-width:15.9404;stroke-linecap:butt;stroke-linejoin:miter;stroke:rgb(0%,0%,0%);stroke-opacity:1;stroke-miterlimit:10;" />
    <path
       id="path49"
       d="M 87.800781 153.859375 C 88.148438 153.859375 88.285156 153.859375 88.285156 153.53125 C 88.285156 153.355469 88.148438 153.355469 87.835938 153.355469 L 86.4375 153.355469 C 86.765625 151.578125 87.007813 150.351563 87.144531 149.800781 C 87.25 149.382813 87.613281 148.988281 88.0625 148.988281 C 88.421875 148.988281 88.785156 149.144531 88.960938 149.296875 C 88.285156 149.367188 88.078125 149.867188 88.078125 150.164063 C 88.078125 150.507813 88.335938 150.714844 88.664063 150.714844 C 89.011719 150.714844 89.53125 150.421875 89.53125 149.765625 C 89.53125 149.039063 88.804688 148.640625 88.042969 148.640625 C 87.300781 148.640625 86.578125 149.195313 86.230469 149.867188 C 85.921875 150.472656 85.746094 151.09375 85.351563 153.355469 L 84.191406 153.355469 C 83.863281 153.355469 83.691406 153.355469 83.691406 153.667969 C 83.691406 153.859375 83.796875 153.859375 84.140625 153.859375 L 85.246094 153.859375 C 84.9375 155.464844 84.226563 159.367188 83.828125 161.214844 C 83.535156 162.71875 83.277344 163.976563 82.414063 163.976563 C 82.363281 163.976563 81.859375 163.976563 81.550781 163.648438 C 82.429688 163.578125 82.429688 162.820313 82.429688 162.804688 C 82.429688 162.457031 82.171875 162.25 81.84375 162.25 C 81.5 162.25 80.980469 162.542969 80.980469 163.199219 C 80.980469 163.945313 81.742188 164.324219 82.414063 164.324219 C 84.175781 164.324219 84.902344 161.164063 85.089844 160.296875 C 85.402344 158.96875 86.25 154.375 86.335938 153.859375 L 87.800781 153.859375 "
       style=" stroke:none;fill-rule:nonzero;fill:rgb(0%,0%,100%);fill-opacity:1;" />
    <path
       id="path51"
       transform="matrix(0.1,0,0,-0.1,0,172.4)"
       d="M 114.453125 135.484375 L 454.648438 135.484375 L 454.648438 475.640625 L 114.453125 475.640625 Z M 114.453125 135.484375 "
       style="fill:none;stroke-width:15.9404;stroke-linecap:butt;stroke-linejoin:miter;stroke:rgb(0%,0%,0%);stroke-opacity:1;stroke-miterlimit:10;" />
    <path
       id="path53"
       transform="matrix(0.1,0,0,-0.1,0,172.4)"
       d="M 454.648438 305.5625 L 171.09375 305.5625 M 398.007813 192.125 L 171.09375 192.125 L 171.09375 419 L 398.007813 419 "
       style="fill:none;stroke-width:15.9404;stroke-linecap:butt;stroke-linejoin:miter;stroke:rgb(0%,0%,0%);stroke-opacity:1;stroke-miterlimit:10;" />
    <path
       id="path55"
       transform="matrix(0.1,0,0,-0.1,0,172.4)"
       d="M 519.296875 1439.429688 L 811.796875 1439.429688 M 891.171875 1439.429688 L 1183.671875 1439.429688 M 1653.164063 1439.429688 L 1985.351563 1439.429688 L 1985.351563 912.164063 M 1985.351563 832.828125 L 1985.351563 305.5625 L 1653.164063 305.5625 M 1183.671875 305.5625 L 891.171875 305.5625 M 811.796875 305.5625 L 462.617188 305.5625 "
       style="fill:none;stroke-width:15.9404;stroke-linecap:butt;stroke-linejoin:miter;stroke:rgb(0%,0%,0%);stroke-opacity:1;stroke-miterlimit:10;" />
  </g>
</svg>
