<?xml version="1.0" encoding="UTF-8" standalone="no"?>
<svg
   xmlns:dc="http://purl.org/dc/elements/1.1/"
   xmlns:cc="http://creativecommons.org/ns#"
   xmlns:rdf="http://www.w3.org/1999/02/22-rdf-syntax-ns#"
   xmlns:svg="http://www.w3.org/2000/svg"
   xmlns="http://www.w3.org/2000/svg"
   id="svg41"
   version="1.2"
   viewBox="0 0 396.85 396.87"
   height="396.87pt"
   width="396.85pt">
  <metadata
     id="metadata45">
    <rdf:RDF>
      <cc:Work
         rdf:about="">
        <dc:format>image/svg+xml</dc:format>
        <dc:type
           rdf:resource="http://purl.org/dc/dcmitype/StillImage" />
      </cc:Work>
    </rdf:RDF>
  </metadata>
  <defs
     id="defs14">
    <clipPath
       id="clip1">
      <path
         id="path2"
         d="M 27 0 L 269 0 L 269 396.871094 L 27 396.871094 Z M 27 0 " />
    </clipPath>
    <clipPath
       id="clip2">
      <path
         id="path5"
         d="M 40 257 L 215 257 L 215 396.871094 L 40 396.871094 Z M 40 257 " />
    </clipPath>
    <clipPath
       id="clip3">
      <path
         id="path8"
         d="M 0 242 L 147 242 L 147 396.871094 L 0 396.871094 Z M 0 242 " />
    </clipPath>
    <clipPath
       id="clip4">
      <path
         id="path11"
         d="M 0 290 L 101 290 L 101 396.871094 L 0 396.871094 Z M 0 290 " />
    </clipPath>
  </defs>
  <g
     id="surface1">
    <path
       id="path16"
       d="M 173.449219 255.527344 C 169.921875 260.671875 170.308594 260.855469 169.699219 263.453125 C 169.09375 266.054688 170.664063 279.050781 173 283.863281 C 175.335938 288.675781 183.03125 297.472656 188.007813 301.785156 C 192.988281 306.101563 203.054688 311.300781 208.363281 312.074219 C 213.675781 312.847656 221.363281 312.628906 224.738281 310.691406 C 228.109375 308.757813 231.152344 304.609375 231.761719 300.460938 C 232.371094 296.3125 232.757813 293.878906 231.761719 290.890625 C 230.765625 287.902344 231.265625 288.398438 230.214844 286.851563 M 177.664063 214.890625 C 173.988281 218.566406 169.148438 227.058594 168.371094 232.976563 C 167.597656 238.894531 170.144531 247.800781 171.914063 252.558594 C 173.683594 257.316406 179.046875 262.054688 182.589844 264.882813 C 186.128906 267.714844 203.664063 276.34375 209.773438 278.722656 C 215.886719 281.101563 224.570313 285.800781 230.214844 286.851563 C 235.855469 287.902344 241.496094 286.355469 245.09375 285.027344 C 248.6875 283.699219 251.953125 280.714844 253.277344 277.449219 C 254.605469 274.1875 254.441406 270.09375 253.277344 267.214844 C 252.117188 264.339844 250.550781 260.84375 247.746094 257.757813 C 244.945313 254.671875 247.027344 256.480469 243.988281 254.546875 M 200.800781 182.476563 C 190.828125 183.839844 187.511719 184.851563 183.640625 188.695313 C 179.769531 192.542969 177.664063 194.867188 177.664063 196.96875 C 177.664063 199.070313 175.5625 207.257813 177.664063 214.890625 C 179.769531 222.523438 186.296875 230.15625 192.601563 234.914063 C 198.90625 239.671875 216.605469 246.859375 222.027344 248.519531 C 227.445313 250.179688 238.953125 254.382813 246.695313 254.824219 C 254.441406 255.269531 260.96875 255.378906 264.894531 252.726563 C 268.820313 250.070313 270.8125 244.648438 269.707031 238.453125 C 268.601563 232.257813 268.621094 231.785156 264.285156 227.058594 C 261.429688 223.941406 260.492188 224.957031 260.492188 223.6875 M 210.078125 312.28125 C 219.445313 316.929688 231.097656 330.273438 235.671875 334.257813 C 240.242188 338.238281 257.722656 346.570313 267.164063 349.375 C 276.601563 352.175781 294.890625 352.839844 298.800781 354.980469 C 302.710938 357.117188 308.316406 363.535156 315.335938 367.386719 L 391.898438 336.292969 C 391.898438 336.292969 391.175781 324.960938 384.867188 308.699219 C 378.5625 292.4375 372.476563 286.132813 370.488281 275.511719 C 368.496094 264.894531 364.734375 244.589844 364.957031 233.945313 C 365.175781 223.296875 368.164063 216.660156 367.277344 208.140625 C 366.394531 199.625 362.851563 175.507813 362.851563 168.648438 C 362.851563 161.789063 363.628906 154.265625 364.402344 149.953125 C 365.175781 145.640625 364.511719 142.539063 364.957031 139.332031 C 365.398438 136.125 374.800781 119.308594 376.128906 116.984375 C 377.457031 114.664063 382.101563 107.359375 374.800781 101.496094 C 367.5 95.632813 358.316406 99.066406 355 101.496094 C 351.679688 103.933594 338.183594 112.78125 331.988281 121.632813 C 325.792969 130.480469 322.476563 161.015625 320.375 167.101563 C 318.273438 173.183594 317.054688 178.492188 311.855469 180.484375 C 306.65625 182.476563 299.90625 181.925781 294.152344 179.269531 C 288.402344 176.613281 278.890625 170.640625 271.585938 167.984375 C 264.285156 165.328125 232.316406 154.488281 222.800781 154.710938 C 213.289063 154.929688 210.300781 155.816406 206.648438 160.019531 C 203 164.222656 201.339844 167.210938 201.230469 172.300781 C 201.160156 175.519531 200.378906 178.519531 200.800781 182.476563 C 200.800781 182.476563 201.261719 186.394531 203.109375 190.550781 C 205.484375 195.894531 210.457031 200.378906 224.570313 209.46875 C 227.636719 211.445313 241.058594 219.984375 254.21875 223.296875 C 255.960938 223.734375 259.214844 224.464844 262.628906 223.074219 C 265.894531 221.742188 268.921875 218.625 269.59375 214.777344 C 269.734375 214 270.003906 211.890625 267.828125 206.816406 C 266.835938 204.507813 264.4375 199.472656 258.089844 192.433594 C 253.765625 187.632813 252.363281 187.882813 249.351563 184.027344 C 246.242188 180.046875 244.605469 176.101563 243.710938 173.40625 "
       style=" stroke:none;fill-rule:nonzero;fill:rgb(89.84375%,83.006287%,69.334412%);fill-opacity:1;" />
    <path
       id="path18"
       transform="matrix(0.1,0,0,-0.1,0,396.87)"
       d="M 1734.492188 1413.426562 C 1699.21875 1361.98125 1703.085938 1360.145312 1696.992188 1334.16875 C 1690.9375 1308.153125 1706.640625 1178.192187 1730 1130.067187 C 1753.359375 1081.942187 1830.3125 993.973437 1880.078125 950.848437 C 1929.882813 907.684375 2030.546875 855.692187 2083.632813 847.957812 C 2136.757813 840.223437 2213.632813 842.410937 2247.382813 861.785937 C 2281.09375 881.121875 2311.523438 922.60625 2317.617188 964.090625 C 2323.710938 1005.575 2327.578125 1029.910937 2317.617188 1059.79375 C 2307.65625 1089.676562 2312.65625 1084.715625 2302.148438 1100.184375 M 1776.640625 1819.79375 C 1739.882813 1783.035937 1691.484375 1698.114062 1683.710938 1638.934375 C 1675.976563 1579.754687 1701.445313 1490.692187 1719.140625 1443.114062 C 1736.835938 1395.535937 1790.46875 1348.153125 1825.898438 1319.871875 C 1861.289063 1291.551562 2036.640625 1205.2625 2097.734375 1181.473437 C 2158.867188 1157.684375 2245.703125 1110.692187 2302.148438 1100.184375 C 2358.554688 1089.676562 2414.960938 1105.145312 2450.9375 1118.426562 C 2486.875 1131.707812 2519.53125 1161.551562 2532.773438 1194.207812 C 2546.054688 1226.825 2544.414063 1267.7625 2532.773438 1296.551562 C 2521.171875 1325.301562 2505.507813 1360.2625 2477.460938 1391.121875 C 2449.453125 1421.98125 2470.273438 1403.895312 2439.882813 1423.23125 M 2008.007813 2143.934375 C 1908.28125 2130.301562 1875.117188 2120.184375 1836.40625 2081.746875 C 1797.695313 2043.270312 1776.640625 2020.028125 1776.640625 1999.0125 C 1776.640625 1977.996875 1755.625 1896.121875 1776.640625 1819.79375 C 1797.695313 1743.465625 1862.96875 1667.1375 1926.015625 1619.559375 C 1989.0625 1571.98125 2166.054688 1500.10625 2220.273438 1483.504687 C 2274.453125 1466.903125 2389.53125 1424.871875 2466.953125 1420.457812 C 2544.414063 1416.004687 2609.6875 1414.910937 2648.945313 1441.434375 C 2688.203125 1467.996875 2708.125 1522.215625 2697.070313 1584.16875 C 2686.015625 1646.121875 2686.210938 1650.848437 2642.851563 1698.114062 C 2614.296875 1729.285937 2604.921875 1719.129687 2604.921875 1731.825 M 2100.78125 845.8875 C 2194.453125 799.403125 2310.976563 665.965625 2356.71875 626.121875 C 2402.421875 586.317187 2577.226563 502.996875 2671.640625 474.95 C 2766.015625 446.942187 2948.90625 440.301562 2988.007813 418.895312 C 3027.109375 397.528125 3083.164063 333.348437 3153.359375 294.832812 M 3918.984375 605.770312 C 3918.984375 605.770312 3911.757813 719.090625 3848.671875 881.707812 C 3785.625 1044.325 3724.765625 1107.371875 3704.882813 1213.582812 C 3684.960938 1319.754687 3647.34375 1522.801562 3649.570313 1629.246875 C 3651.757813 1735.73125 3681.640625 1802.098437 3672.773438 1887.29375 C 3663.945313 1972.45 3628.515625 2213.621875 3628.515625 2282.215625 C 3628.515625 2350.809375 3636.289063 2426.04375 3644.023438 2469.16875 C 3651.757813 2512.29375 3645.117188 2543.309375 3649.570313 2575.379687 C 3653.984375 2607.45 3748.007813 2775.614062 3761.289063 2798.85625 C 3774.570313 2822.059375 3821.015625 2895.10625 3748.007813 2953.739062 C 3675 3012.371875 3583.164063 2978.035937 3550 2953.739062 C 3516.796875 2929.364062 3381.835938 2840.8875 3319.882813 2752.371875 C 3257.929688 2663.895312 3224.765625 2358.54375 3203.75 2297.684375 C 3182.734375 2236.864062 3170.546875 2183.778125 3118.554688 2163.85625 C 3066.5625 2143.934375 2999.0625 2149.442187 2941.523438 2176.004687 C 2884.023438 2202.567187 2788.90625 2262.29375 2715.859375 2288.85625 C 2642.851563 2315.41875 2323.164063 2423.817187 2228.007813 2421.590625 C 2132.890625 2419.403125 2103.007813 2410.535937 2066.484375 2368.504687 C 2030 2326.473437 2013.398438 2296.590625 2012.304688 2245.692187 C 2011.601563 2213.504687 2003.789063 2183.504687 2008.007813 2143.934375 C 2008.007813 2143.934375 2012.617188 2104.754687 2031.09375 2063.192187 C 2054.84375 2009.754687 2104.570313 1964.910937 2245.703125 1874.0125 C 2276.367188 1854.246875 2410.585938 1768.85625 2542.1875 1735.73125 C 2559.609375 1731.35625 2592.148438 1724.051562 2626.289063 1737.957812 C 2658.945313 1751.278125 2689.21875 1782.45 2695.9375 1820.926562 C 2697.34375 1828.7 2700.039063 1849.79375 2678.28125 1900.535937 C 2668.359375 1923.621875 2644.375 1973.973437 2580.898438 2044.364062 C 2537.65625 2092.371875 2523.632813 2089.871875 2493.515625 2128.426562 C 2462.421875 2168.23125 2446.054688 2207.684375 2437.109375 2234.6375 "
       style="fill:none;stroke-width:60.4756;stroke-linecap:butt;stroke-linejoin:round;stroke:rgb(0%,0%,0%);stroke-opacity:1;stroke-miterlimit:4;" />
    <g
       id="g22"
       clip-rule="nonzero"
       clip-path="url(#clip1)">
      <path
         id="path20"
         transform="matrix(0.1,0,0,-0.1,0,396.87)"
         d="M 837.070313 542.254687 L 2120.351563 3640.379687 "
         style="fill:none;stroke-width:39.851;stroke-linecap:round;stroke-linejoin:miter;stroke:rgb(0%,0%,0%);stroke-opacity:1;stroke-miterlimit:10;" />
    </g>
    <path
       id="path24"
       transform="matrix(0.1,0,0,-0.1,0,396.87)"
       d="M 2004.296875 3607.567187 L 2127.96875 3658.778125 L 2179.179688 3535.145312 "
       style="fill:none;stroke-width:39.8484;stroke-linecap:butt;stroke-linejoin:miter;stroke:rgb(0%,0%,0%);stroke-opacity:1;stroke-miterlimit:10;" />
    <g
       id="g28"
       clip-rule="nonzero"
       clip-path="url(#clip2)">
      <path
         id="path26"
         transform="matrix(0.1,0,0,-0.1,0,396.87)"
         d="M 965.546875 143.075 C 1370.703125 44.832812 1641.601563 143.895312 1570.625 364.364062 C 1520.703125 519.48125 1310.078125 700.653125 1030.664063 828.85625 "
         style="fill:none;stroke-width:39.851;stroke-linecap:round;stroke-linejoin:miter;stroke:rgb(0%,0%,0%);stroke-opacity:1;stroke-miterlimit:10;" />
    </g>
    <g
       id="g32"
       clip-rule="nonzero"
       clip-path="url(#clip3)">
      <path
         id="path30"
         transform="matrix(0.1,0,0,-0.1,0,396.87)"
         d="M 902.851563 881.785937 C 493.164063 1033.739062 131.601563 1004.910937 95.273438 817.410937 C 69.726563 685.496875 213.515625 503.465625 422.890625 375.848437 "
         style="fill:none;stroke-width:39.851;stroke-linecap:round;stroke-linejoin:miter;stroke:rgb(0%,0%,0%);stroke-opacity:1;stroke-miterlimit:10;" />
    </g>
    <g
       id="g36"
       clip-rule="nonzero"
       clip-path="url(#clip4)">
      <path
         id="path34"
         transform="matrix(0.1,0,0,-0.1,0,396.87)"
         d="M 408.359375 495.535937 L 439.921875 365.496875 L 309.84375 333.934375 "
         style="fill:none;stroke-width:39.8488;stroke-linecap:butt;stroke-linejoin:miter;stroke:rgb(0%,0%,0%);stroke-opacity:1;stroke-miterlimit:10;" />
    </g>
    <path
       id="path38"
       d="M 61.132813 368.125 L 67.695313 368.125 C 68.039063 368.125 68.460938 368.125 68.460938 367.707031 C 68.460938 367.257813 68.066406 367.257813 67.695313 367.257813 L 61.132813 367.257813 L 61.132813 360.699219 C 61.132813 360.351563 61.132813 359.929688 60.710938 359.929688 C 60.265625 359.929688 60.265625 360.328125 60.265625 360.699219 L 60.265625 367.257813 L 53.707031 367.257813 C 53.359375 367.257813 52.9375 367.257813 52.9375 367.679688 C 52.9375 368.125 53.335938 368.125 53.707031 368.125 L 60.265625 368.125 L 60.265625 374.6875 C 60.265625 375.035156 60.265625 375.453125 60.6875 375.453125 C 61.132813 375.453125 61.132813 375.058594 61.132813 374.6875 L 61.132813 368.125 "
       style=" stroke:none;fill-rule:nonzero;fill:rgb(0%,0%,0%);fill-opacity:1;" />
  </g>
</svg>
