<?xml version="1.0" encoding="UTF-8" standalone="no"?>
<svg
   xmlns:dc="http://purl.org/dc/elements/1.1/"
   xmlns:cc="http://creativecommons.org/ns#"
   xmlns:rdf="http://www.w3.org/1999/02/22-rdf-syntax-ns#"
   xmlns:svg="http://www.w3.org/2000/svg"
   xmlns="http://www.w3.org/2000/svg"
   id="svg105"
   version="1.2"
   viewBox="0 0 380.96 176.17"
   height="176.17pt"
   width="380.96pt">
  <metadata
     id="metadata111">
    <rdf:RDF>
      <cc:Work
         rdf:about="">
        <dc:format>image/svg+xml</dc:format>
        <dc:type
           rdf:resource="http://purl.org/dc/dcmitype/StillImage" />
      </cc:Work>
    </rdf:RDF>
  </metadata>
  <defs
     id="defs109" />
  <g
     id="surface1">
    <path
       id="path2"
       transform="matrix(0.1,0,0,-0.1,0,176.17)"
       d="M 69.726563 998.2625 L 3725.9375 998.2625 "
       style="fill:none;stroke-width:9.9628;stroke-linecap:butt;stroke-linejoin:miter;stroke:rgb(0%,0%,0%);stroke-opacity:1;stroke-miterlimit:10;" />
    <path
       id="path4"
       d="M 375.480469 76.34375 L 370.859375 74.03125 L 372.59375 76.34375 L 370.859375 78.65625 "
       style=" stroke:none;fill-rule:nonzero;fill:rgb(0%,0%,0%);fill-opacity:1;" />
    <path
       id="path6"
       transform="matrix(0.1,0,0,-0.1,0,176.17)"
       d="M 69.726563 289.590625 L 69.726563 1678.067187 "
       style="fill:none;stroke-width:9.9628;stroke-linecap:butt;stroke-linejoin:miter;stroke:rgb(0%,0%,0%);stroke-opacity:1;stroke-miterlimit:10;" />
    <path
       id="path8"
       d="M 6.972656 5.476563 L 4.660156 10.097656 L 6.972656 8.363281 L 9.285156 10.097656 "
       style=" stroke:none;fill-rule:nonzero;fill:rgb(0%,0%,0%);fill-opacity:1;" />
    <path
       id="path10"
       transform="matrix(0.1,0,0,-0.1,0,176.17)"
       d="M 69.726563 1470.723437 C 69.726563 1470.723437 120.429688 1469.04375 139.921875 1466.973437 C 159.414063 1464.903125 190.625 1459.942187 210.117188 1455.840625 C 229.609375 1451.778125 260.820313 1443.575 280.3125 1437.520312 C 299.765625 1431.465625 331.015625 1420.176562 350.507813 1412.246875 C 369.960938 1404.35625 401.210938 1390.1375 420.703125 1380.489062 C 440.15625 1370.840625 471.40625 1353.926562 490.898438 1342.676562 C 510.351563 1331.3875 541.601563 1312.051562 561.054688 1299.395312 C 580.546875 1286.739062 611.796875 1265.29375 631.25 1251.426562 C 650.742188 1237.559375 681.992188 1214.278125 701.445313 1199.395312 C 720.9375 1184.551562 752.1875 1159.903125 771.640625 1144.278125 C 791.132813 1128.653125 822.34375 1102.910937 841.835938 1086.778125 C 861.328125 1070.645312 892.578125 1044.317187 912.03125 1027.910937 C 931.523438 1011.54375 962.734375 985.020312 982.226563 968.614062 C 1001.71875 952.207812 1032.929688 925.879687 1052.421875 909.746875 C 1071.914063 893.614062 1103.125 867.910937 1122.617188 852.285937 C 1142.109375 836.660937 1173.320313 811.973437 1192.8125 797.129687 C 1212.265625 782.246875 1243.515625 759.004687 1263.007813 745.1375 C 1282.460938 731.270312 1313.710938 709.825 1333.203125 697.129687 C 1352.65625 684.473437 1383.90625 665.1375 1403.398438 653.8875 C 1422.851563 642.6375 1454.101563 625.723437 1473.554688 616.035937 C 1493.046875 606.3875 1524.296875 592.207812 1543.789063 584.278125 C 1563.242188 576.348437 1594.492188 565.059375 1613.945313 559.04375 C 1633.4375 552.989062 1664.6875 544.785937 1684.140625 540.684375 C 1703.632813 536.582812 1734.84375 531.621875 1754.335938 529.551562 C 1773.828125 527.520312 1805.039063 525.840625 1824.53125 525.840625 C 1844.023438 525.840625 1875.234375 527.520312 1894.726563 529.551562 C 1914.21875 531.621875 1945.429688 536.582812 1964.921875 540.684375 C 1984.375 544.785937 2015.625 552.989062 2035.117188 559.04375 C 2054.609375 565.059375 2085.820313 576.348437 2105.3125 584.278125 C 2124.765625 592.207812 2156.015625 606.3875 2175.507813 616.035937 C 2194.960938 625.723437 2226.210938 642.6375 2245.664063 653.8875 C 2265.15625 665.1375 2296.40625 684.473437 2315.898438 697.129687 C 2335.351563 709.825 2366.601563 731.270312 2386.054688 745.1375 C 2405.546875 759.004687 2436.796875 782.246875 2456.25 797.129687 C 2475.742188 811.973437 2506.992188 836.660937 2526.445313 852.285937 C 2545.9375 867.910937 2577.1875 893.614062 2596.640625 909.746875 C 2616.132813 925.879687 2647.34375 952.207812 2666.835938 968.614062 C 2686.328125 985.020312 2717.539063 1011.54375 2737.03125 1027.910937 C 2756.523438 1044.317187 2787.734375 1070.645312 2807.226563 1086.778125 C 2826.71875 1102.910937 2857.929688 1128.653125 2877.421875 1144.278125 C 2896.875 1159.903125 2928.125 1184.551562 2947.617188 1199.395312 C 2967.070313 1214.278125 2998.320313 1237.559375 3017.8125 1251.426562 C 3037.265625 1265.29375 3068.515625 1286.739062 3088.007813 1299.395312 C 3107.460938 1312.051562 3138.710938 1331.3875 3158.164063 1342.676562 C 3177.65625 1353.926562 3208.90625 1370.840625 3228.398438 1380.489062 C 3247.851563 1390.1375 3279.101563 1404.35625 3298.554688 1412.246875 C 3318.046875 1420.176562 3349.296875 1431.465625 3368.75 1437.520312 C 3388.242188 1443.575 3419.453125 1451.778125 3438.945313 1455.840625 C 3458.4375 1459.942187 3489.648438 1464.903125 3509.140625 1466.973437 C 3528.632813 1469.04375 3579.335938 1470.723437 3579.335938 1470.723437 "
       style="fill:none;stroke-width:17.9329;stroke-linecap:butt;stroke-linejoin:round;stroke:rgb(80.076599%,92.1875%,90.234375%);stroke-opacity:1;stroke-miterlimit:10;" />
    <path
       id="path12"
       transform="matrix(0.1,0,0,-0.1,0,176.17)"
       d="M 69.726563 1470.723437 C 69.726563 1470.723437 86.640625 1463.965625 93.125 1455.840625 C 99.609375 1447.754687 110.039063 1427.989062 116.523438 1412.246875 C 123.007813 1396.54375 133.4375 1364.98125 139.921875 1342.676562 C 146.40625 1320.332812 156.835938 1278.926562 163.320313 1251.426562 C 169.804688 1223.8875 180.234375 1175.254687 186.71875 1144.278125 C 193.203125 1113.2625 203.632813 1060.489062 210.117188 1027.910937 C 216.601563 995.410937 227.03125 941.778125 233.515625 909.746875 C 240 877.715625 250.429688 826.621875 256.914063 797.129687 C 263.398438 767.6375 273.828125 722.285937 280.3125 697.129687 C 286.796875 672.0125 297.1875 635.215625 303.710938 616.075 C 310.195313 596.895312 320.585938 571.035937 327.109375 559.04375 C 333.59375 547.0125 344.023438 533.653125 350.507813 529.551562 C 356.992188 525.489062 367.382813 525.489062 373.90625 529.551562 C 380.390625 533.653125 390.78125 547.0125 397.304688 559.004687 C 403.789063 570.996875 414.179688 596.895312 420.703125 616.035937 C 427.1875 635.215625 437.578125 672.0125 444.101563 697.129687 C 450.585938 722.246875 460.976563 767.598437 467.460938 797.090625 C 473.984375 826.582812 484.375 877.715625 490.898438 909.746875 C 497.382813 941.739062 507.773438 995.371875 514.257813 1027.910937 C 520.78125 1060.45 531.171875 1113.223437 537.65625 1144.239062 C 544.179688 1175.254687 554.570313 1223.848437 561.054688 1251.3875 C 567.578125 1278.926562 577.96875 1320.332812 584.453125 1342.6375 C 590.976563 1364.942187 601.367188 1396.54375 607.851563 1412.246875 C 614.335938 1427.95 624.765625 1447.715625 631.25 1455.840625 C 637.773438 1463.965625 648.164063 1470.723437 654.648438 1470.723437 C 661.132813 1470.723437 671.5625 1463.965625 678.046875 1455.840625 C 684.53125 1447.754687 694.960938 1427.989062 701.445313 1412.285937 C 707.929688 1396.582812 718.359375 1364.98125 724.84375 1342.676562 C 731.328125 1320.371875 741.757813 1278.965625 748.242188 1251.426562 C 754.726563 1223.8875 765.15625 1175.29375 771.640625 1144.278125 C 778.125 1113.301562 788.554688 1060.489062 795.039063 1027.95 C 801.523438 995.410937 811.953125 941.817187 818.4375 909.785937 C 824.921875 877.754687 835.351563 826.660937 841.835938 797.16875 C 848.320313 767.676562 858.75 722.285937 865.234375 697.16875 C 871.71875 672.051562 882.148438 635.254687 888.632813 616.075 C 895.117188 596.895312 905.546875 571.035937 912.03125 559.04375 C 918.515625 547.0125 928.945313 533.653125 935.429688 529.551562 C 941.914063 525.489062 952.34375 525.489062 958.828125 529.551562 C 965.3125 533.653125 975.742188 547.0125 982.226563 559.004687 C 988.710938 570.996875 999.101563 596.895312 1005.625 616.035937 C 1012.109375 635.176562 1022.539063 671.973437 1029.023438 697.090625 C 1035.507813 722.207812 1045.9375 767.598437 1052.421875 797.090625 C 1058.90625 826.582812 1069.296875 877.676562 1075.78125 909.707812 C 1082.304688 941.739062 1092.695313 995.332812 1099.21875 1027.871875 C 1105.703125 1060.410937 1116.09375 1113.184375 1122.617188 1144.2 C 1129.101563 1175.215625 1139.492188 1223.848437 1146.015625 1251.348437 C 1152.5 1278.8875 1162.890625 1320.29375 1169.375 1342.598437 C 1175.898438 1364.942187 1186.289063 1396.54375 1192.773438 1412.246875 C 1199.296875 1427.95 1209.6875 1447.715625 1216.171875 1455.840625 C 1222.695313 1463.965625 1233.085938 1470.684375 1239.609375 1470.723437 C 1246.09375 1470.723437 1256.484375 1463.965625 1262.96875 1455.879687 C 1269.492188 1447.754687 1279.882813 1427.989062 1286.367188 1412.285937 C 1292.890625 1396.582812 1303.28125 1365.020312 1309.765625 1342.715625 C 1316.289063 1320.371875 1326.679688 1279.004687 1333.164063 1251.465625 C 1339.6875 1223.926562 1350.078125 1175.332812 1356.5625 1144.317187 C 1363.085938 1113.301562 1373.476563 1060.528125 1379.960938 1027.989062 C 1386.445313 995.45 1396.875 941.85625 1403.359375 909.825 C 1409.84375 877.79375 1420.273438 826.7 1426.757813 797.16875 C 1433.242188 767.676562 1443.671875 722.325 1450.15625 697.207812 C 1456.640625 672.051562 1467.070313 635.254687 1473.554688 616.075 C 1480.039063 596.934375 1490.46875 571.035937 1496.953125 559.04375 C 1503.4375 547.051562 1513.867188 533.653125 1520.351563 529.590625 C 1526.835938 525.489062 1537.265625 525.45 1543.75 529.551562 C 1550.234375 533.614062 1560.664063 546.973437 1567.148438 559.004687 C 1573.632813 570.996875 1584.0625 596.85625 1590.546875 615.996875 C 1597.03125 635.176562 1607.460938 671.973437 1613.945313 697.090625 C 1620.429688 722.207812 1630.859375 767.559375 1637.34375 797.051562 C 1643.828125 826.54375 1654.257813 877.6375 1660.742188 909.66875 C 1667.226563 941.7 1677.65625 995.332812 1684.140625 1027.871875 C 1690.625 1060.371875 1701.054688 1113.184375 1707.539063 1144.160937 C 1714.023438 1175.176562 1724.414063 1223.809375 1730.9375 1251.348437 C 1737.421875 1278.848437 1747.8125 1320.29375 1754.335938 1342.598437 C 1760.820313 1364.903125 1771.210938 1396.504687 1777.734375 1412.207812 C 1784.21875 1427.910937 1794.648438 1447.715625 1801.132813 1455.840625 C 1807.617188 1463.965625 1818.007813 1470.684375 1824.53125 1470.723437 C 1831.015625 1470.723437 1841.40625 1463.965625 1847.890625 1455.879687 C 1854.414063 1447.754687 1864.804688 1427.989062 1871.328125 1412.285937 C 1877.8125 1396.582812 1888.203125 1365.020312 1894.726563 1342.715625 C 1901.210938 1320.410937 1911.601563 1279.004687 1918.085938 1251.465625 C 1924.609375 1223.965625 1935 1175.371875 1941.484375 1144.35625 C 1948.007813 1113.340625 1958.398438 1060.567187 1964.882813 1028.028125 C 1971.40625 995.489062 1981.796875 941.85625 1988.28125 909.864062 C 1994.804688 877.832812 2005.195313 826.7 2011.679688 797.207812 C 2018.164063 767.715625 2028.59375 722.325 2035.078125 697.207812 C 2041.5625 672.090625 2051.992188 635.29375 2058.476563 616.114062 C 2064.960938 596.934375 2075.390625 571.075 2081.875 559.04375 C 2088.398438 547.051562 2098.789063 533.653125 2105.273438 529.590625 C 2111.757813 525.489062 2122.1875 525.45 2128.671875 529.551562 C 2135.15625 533.614062 2145.585938 547.0125 2152.070313 559.004687 C 2158.554688 570.996875 2168.984375 596.85625 2175.46875 615.996875 C 2181.953125 635.1375 2192.382813 671.934375 2198.867188 697.051562 C 2205.351563 722.16875 2215.78125 767.520312 2222.265625 797.0125 C 2228.75 826.504687 2239.179688 877.6375 2245.664063 909.629687 C 2252.148438 941.660937 2262.578125 995.29375 2269.0625 1027.832812 C 2275.546875 1060.371875 2285.976563 1113.145312 2292.460938 1144.160937 C 2298.945313 1175.176562 2309.375 1223.770312 2315.859375 1251.309375 C 2322.34375 1278.848437 2332.773438 1320.254687 2339.257813 1342.598437 C 2345.742188 1364.903125 2356.171875 1396.504687 2362.65625 1412.207812 C 2369.140625 1427.910937 2379.53125 1447.715625 2386.054688 1455.801562 C 2392.539063 1463.926562 2402.96875 1470.684375 2409.453125 1470.723437 C 2415.9375 1470.723437 2426.367188 1463.965625 2432.851563 1455.879687 C 2439.335938 1447.79375 2449.726563 1428.028125 2456.25 1412.325 C 2462.734375 1396.621875 2473.125 1365.059375 2479.648438 1342.715625 C 2486.132813 1320.410937 2496.523438 1279.04375 2503.046875 1251.504687 C 2509.53125 1224.004687 2519.921875 1175.371875 2526.445313 1144.395312 C 2532.929688 1113.379687 2543.359375 1060.567187 2549.84375 1028.028125 C 2556.328125 995.489062 2566.71875 941.895312 2573.203125 909.864062 C 2579.726563 877.832812 2590.117188 826.739062 2596.601563 797.246875 C 2603.125 767.715625 2613.515625 722.364062 2620.039063 697.246875 C 2626.523438 672.129687 2636.914063 635.29375 2643.398438 616.114062 C 2649.921875 596.973437 2660.3125 571.075 2666.796875 559.082812 C 2673.28125 547.051562 2683.710938 533.692187 2690.195313 529.590625 C 2696.71875 525.489062 2707.109375 525.489062 2713.59375 529.551562 C 2720.117188 533.614062 2730.507813 546.973437 2736.992188 558.965625 C 2743.515625 570.957812 2753.90625 596.817187 2760.390625 615.996875 C 2766.875 635.1375 2777.304688 671.934375 2783.789063 697.051562 C 2790.273438 722.16875 2800.703125 767.520312 2807.1875 797.0125 C 2813.671875 826.504687 2824.101563 877.598437 2830.585938 909.629687 C 2837.109375 941.621875 2847.5 995.254687 2853.984375 1027.79375 C 2860.46875 1060.332812 2870.898438 1113.10625 2877.382813 1144.121875 C 2883.867188 1175.1375 2894.296875 1223.770312 2900.78125 1251.309375 C 2907.265625 1278.809375 2917.695313 1320.215625 2924.179688 1342.559375 C 2930.664063 1364.864062 2941.09375 1396.465625 2947.578125 1412.207812 C 2954.0625 1427.910937 2964.492188 1447.715625 2970.976563 1455.801562 C 2977.460938 1463.926562 2987.890625 1470.684375 2994.375 1470.723437 C 3000.859375 1470.723437 3011.289063 1463.965625 3017.773438 1455.879687 C 3024.257813 1447.79375 3034.6875 1428.028125 3041.171875 1412.325 C 3047.65625 1396.621875 3058.085938 1365.059375 3064.570313 1342.754687 C 3071.054688 1320.45 3081.445313 1279.082812 3087.96875 1251.54375 C 3094.453125 1224.004687 3104.84375 1175.410937 3111.367188 1144.395312 C 3117.851563 1113.41875 3128.242188 1060.60625 3134.765625 1028.067187 C 3141.25 995.528125 3151.640625 941.934375 3158.164063 909.903125 C 3164.648438 877.871875 3175.078125 826.778125 3181.5625 797.246875 C 3188.046875 767.754687 3198.4375 722.403125 3204.960938 697.246875 C 3211.445313 672.129687 3221.835938 635.332812 3228.359375 616.153125 C 3234.84375 596.973437 3245.234375 571.075 3251.757813 559.082812 C 3258.242188 547.051562 3268.632813 533.692187 3275.15625 529.590625 C 3281.640625 525.489062 3292.03125 525.45 3298.554688 529.551562 C 3305.039063 533.614062 3315.429688 546.973437 3321.914063 558.965625 C 3328.4375 570.957812 3338.828125 596.817187 3345.3125 615.957812 C 3351.835938 635.1375 3362.226563 671.895312 3368.710938 697.0125 C 3375.234375 722.129687 3385.625 767.48125 3392.109375 796.973437 C 3398.59375 826.465625 3409.023438 877.559375 3415.507813 909.590625 C 3421.992188 941.621875 3432.421875 995.215625 3438.90625 1027.754687 C 3445.390625 1060.29375 3455.820313 1113.067187 3462.304688 1144.082812 C 3468.828125 1175.098437 3479.21875 1223.73125 3485.703125 1251.270312 C 3492.1875 1278.809375 3502.617188 1320.215625 3509.101563 1342.559375 C 3515.585938 1364.864062 3526.015625 1396.465625 3532.5 1412.16875 C 3538.984375 1427.910937 3549.414063 1447.676562 3555.898438 1455.801562 C 3562.382813 1463.926562 3579.296875 1470.723437 3579.296875 1470.723437 "
       style="fill:none;stroke-width:17.9329;stroke-linecap:butt;stroke-linejoin:round;stroke:rgb(59.959412%,84.568787%,80.46875%);stroke-opacity:1;stroke-miterlimit:10;" />
    <path
       id="path14"
       transform="matrix(0.1,0,0,-0.1,0,176.17)"
       d="M 69.726563 1470.723437 C 69.726563 1470.723437 79.882813 1462.520312 83.75 1452.754687 C 87.65625 1442.989062 93.90625 1419.082812 97.8125 1400.29375 C 101.71875 1381.504687 107.929688 1343.692187 111.835938 1317.325 C 115.742188 1290.91875 121.992188 1242.090625 125.898438 1210.098437 C 129.765625 1178.10625 136.015625 1121.934375 139.921875 1086.778125 C 143.828125 1051.621875 150.078125 992.403125 153.945313 956.778125 C 157.851563 921.114062 164.101563 863.340625 168.007813 829.903125 C 171.914063 796.465625 178.125 744.473437 182.03125 715.801562 C 185.9375 687.129687 192.1875 644.903125 196.054688 623.184375 C 199.960938 601.426562 206.210938 572.207812 210.117188 559.04375 C 214.023438 545.840625 220.273438 531.817187 224.140625 528.223437 C 228.046875 524.629687 234.296875 526.85625 238.203125 533.145312 C 242.070313 539.395312 248.320313 557.715625 252.226563 573.379687 C 256.132813 589.004687 262.382813 622.051562 266.289063 645.879687 C 270.15625 669.707812 276.40625 714.903125 280.3125 745.1375 C 284.21875 775.332812 290.429688 829.317187 294.335938 863.614062 C 298.242188 897.910937 304.492188 956.54375 308.398438 992.325 C 312.265625 1028.10625 318.515625 1086.934375 322.421875 1121.504687 C 326.328125 1156.035937 332.578125 1210.645312 336.445313 1241.309375 C 340.351563 1272.0125 346.601563 1318.145312 350.507813 1342.676562 C 354.414063 1367.16875 360.625 1401.3875 364.53125 1417.832812 C 368.4375 1434.278125 374.6875 1454.04375 378.554688 1461.192187 C 382.460938 1468.301562 388.710938 1472.051562 392.617188 1469.35625 C 396.523438 1466.660937 402.773438 1454.082812 406.640625 1441.778125 C 410.546875 1429.434375 416.796875 1401.504687 420.703125 1380.489062 C 424.570313 1359.434375 430.820313 1318.301562 434.726563 1290.176562 C 438.632813 1262.0125 444.882813 1210.801562 448.75 1177.676562 C 452.65625 1144.590625 458.90625 1087.129687 462.8125 1051.582812 C 466.679688 1016.035937 472.929688 956.739062 476.835938 921.426562 C 480.742188 886.114062 486.992188 829.5125 490.898438 797.129687 C 494.765625 764.746875 501.015625 715.059375 504.921875 688.067187 C 508.828125 661.075 515.078125 622.129687 518.945313 602.598437 C 522.851563 583.028125 529.101563 557.79375 533.007813 547.16875 C 536.914063 536.54375 543.125 526.895312 547.03125 525.996875 C 550.9375 525.098437 557.1875 531.778125 561.054688 540.684375 C 564.960938 549.590625 571.210938 572.129687 575.117188 590.1375 C 579.023438 608.145312 585.273438 644.785937 589.140625 670.567187 C 593.046875 696.348437 599.296875 744.317187 603.203125 775.91875 C 607.070313 807.48125 613.320313 863.145312 617.226563 898.10625 C 621.132813 933.067187 627.382813 992.207812 631.25 1027.910937 C 635.15625 1063.653125 641.40625 1121.778125 645.3125 1155.489062 C 649.179688 1189.239062 655.429688 1241.934375 659.335938 1271.114062 C 663.242188 1300.332812 669.492188 1343.575 673.398438 1366.035937 C 677.265625 1388.496875 683.515625 1419.004687 687.421875 1433.028125 C 691.328125 1447.0125 697.578125 1462.48125 701.445313 1466.973437 C 705.351563 1471.465625 711.601563 1470.723437 715.507813 1465.332812 C 719.375 1459.942187 725.625 1443.067187 729.53125 1428.223437 C 733.4375 1413.379687 739.6875 1381.621875 743.554688 1358.457812 C 747.460938 1335.29375 753.710938 1291.075 757.617188 1261.348437 C 761.523438 1231.621875 767.773438 1178.301562 771.640625 1144.278125 C 775.546875 1110.215625 781.796875 1051.817187 785.703125 1016.075 C 789.570313 980.29375 795.820313 921.309375 799.726563 886.54375 C 803.632813 851.778125 809.882813 796.621875 813.75 765.489062 C 817.65625 734.35625 823.90625 687.285937 827.8125 662.129687 C 831.679688 636.973437 837.929688 601.504687 841.835938 584.278125 C 845.742188 567.051562 851.992188 545.879687 855.898438 537.871875 C 859.765625 529.825 866.015625 524.629687 869.921875 526.426562 C 873.828125 528.223437 880.078125 539.35625 883.945313 550.840625 C 887.851563 562.325 894.101563 588.926562 898.007813 609.2 C 901.875 629.5125 908.125 669.551562 912.03125 697.129687 C 915.9375 724.707812 922.1875 775.176562 926.054688 807.910937 C 929.960938 840.684375 936.210938 897.754687 940.117188 933.184375 C 944.023438 968.614062 950.273438 1027.910937 954.140625 1063.340625 C 958.046875 1098.809375 964.296875 1155.879687 968.203125 1188.614062 C 972.070313 1221.3875 978.320313 1271.817187 982.226563 1299.395312 C 986.132813 1326.973437 992.382813 1367.0125 996.25 1387.325 C 1000.15625 1407.6375 1006.40625 1434.239062 1010.3125 1445.723437 C 1014.21875 1457.207812 1020.46875 1468.301562 1024.335938 1470.098437 C 1028.242188 1471.895312 1034.492188 1466.7 1038.398438 1458.653125 C 1042.265625 1450.645312 1048.515625 1429.5125 1052.421875 1412.246875 C 1056.328125 1395.020312 1062.578125 1359.551562 1066.445313 1334.434375 C 1070.351563 1309.278125 1076.601563 1262.16875 1080.507813 1231.035937 C 1084.375 1199.903125 1090.625 1144.746875 1094.53125 1109.98125 C 1098.4375 1075.215625 1104.6875 1016.23125 1108.554688 980.489062 C 1112.460938 944.707812 1118.710938 886.309375 1122.617188 852.285937 C 1126.523438 818.2625 1132.734375 764.903125 1136.640625 735.176562 C 1140.546875 705.489062 1146.796875 661.23125 1150.703125 638.067187 C 1154.570313 614.942187 1160.820313 583.145312 1164.726563 568.301562 C 1168.632813 553.496875 1174.882813 536.582812 1178.789063 531.23125 C 1182.65625 525.840625 1188.90625 525.098437 1192.8125 529.551562 C 1196.71875 534.04375 1202.96875 549.5125 1206.835938 563.535937 C 1210.742188 577.520312 1216.992188 608.028125 1220.898438 630.489062 C 1224.765625 652.95 1231.015625 696.192187 1234.921875 725.410937 C 1238.828125 754.629687 1245.078125 807.285937 1248.945313 841.035937 C 1252.851563 874.785937 1259.101563 932.910937 1263.007813 968.614062 C 1266.875 1004.317187 1273.125 1063.457812 1277.03125 1098.41875 C 1280.9375 1133.379687 1287.1875 1189.082812 1291.054688 1220.645312 C 1294.960938 1252.207812 1301.210938 1300.215625 1305.117188 1325.957812 C 1309.023438 1351.739062 1315.234375 1388.379687 1319.140625 1406.426562 C 1323.046875 1424.434375 1329.296875 1446.973437 1333.203125 1455.840625 C 1337.070313 1464.746875 1343.320313 1471.426562 1347.226563 1470.528125 C 1351.132813 1469.629687 1357.382813 1459.98125 1361.289063 1449.35625 C 1365.15625 1438.73125 1371.40625 1413.496875 1375.3125 1393.965625 C 1379.21875 1374.395312 1385.46875 1335.45 1389.335938 1308.457812 C 1393.242188 1281.465625 1399.492188 1231.778125 1403.398438 1199.395312 C 1407.265625 1167.051562 1413.515625 1110.410937 1417.421875 1075.098437 C 1421.328125 1039.785937 1427.578125 980.528125 1431.445313 944.942187 C 1435.351563 909.395312 1441.601563 851.973437 1445.507813 818.848437 C 1449.375 785.7625 1455.625 734.5125 1459.53125 706.3875 C 1463.4375 678.223437 1469.6875 637.090625 1473.554688 616.075 C 1477.460938 595.020312 1483.710938 567.129687 1487.617188 554.785937 C 1491.523438 542.442187 1497.734375 529.903125 1501.640625 527.207812 C 1505.546875 524.5125 1511.796875 528.223437 1515.703125 535.371875 C 1519.570313 542.520312 1525.820313 562.246875 1529.726563 578.692187 C 1533.632813 595.1375 1539.882813 629.395312 1543.789063 653.8875 C 1547.65625 678.379687 1553.90625 724.551562 1557.8125 755.215625 C 1561.71875 785.91875 1567.96875 840.489062 1571.835938 875.059375 C 1575.742188 909.590625 1581.992188 968.41875 1585.898438 1004.2 C 1589.765625 1039.98125 1596.015625 1098.614062 1599.921875 1132.910937 C 1603.828125 1167.207812 1610.078125 1221.192187 1613.945313 1251.426562 C 1617.851563 1281.621875 1624.101563 1326.85625 1628.007813 1350.684375 C 1631.875 1374.5125 1638.125 1407.559375 1642.03125 1423.184375 C 1645.9375 1438.809375 1652.1875 1457.16875 1656.054688 1463.41875 C 1659.960938 1469.66875 1666.210938 1471.895312 1670.117188 1468.301562 C 1673.984375 1464.707812 1680.234375 1450.684375 1684.140625 1437.520312 C 1688.046875 1424.35625 1694.296875 1395.1375 1698.203125 1373.379687 C 1702.070313 1351.621875 1708.320313 1309.434375 1712.226563 1280.723437 C 1716.132813 1252.051562 1722.382813 1200.059375 1726.289063 1166.621875 C 1730.15625 1133.184375 1736.40625 1075.410937 1740.3125 1039.785937 C 1744.21875 1004.121875 1750.46875 944.903125 1754.335938 909.746875 C 1758.242188 874.590625 1764.492188 818.41875 1768.398438 786.426562 C 1772.265625 754.473437 1778.515625 705.60625 1782.421875 679.239062 C 1786.328125 652.832812 1792.578125 615.020312 1796.445313 596.23125 C 1800.351563 577.442187 1806.601563 553.535937 1810.507813 543.770312 C 1814.375 534.004687 1820.625 525.840625 1824.53125 525.840625 C 1828.4375 525.840625 1834.6875 534.004687 1838.554688 543.770312 C 1842.460938 553.535937 1848.710938 577.442187 1852.617188 596.23125 C 1856.484375 615.020312 1862.734375 652.832812 1866.640625 679.239062 C 1870.546875 705.60625 1876.796875 754.473437 1880.664063 786.426562 C 1884.570313 818.41875 1890.820313 874.590625 1894.726563 909.746875 C 1898.632813 944.903125 1904.882813 1004.121875 1908.75 1039.785937 C 1912.65625 1075.410937 1918.90625 1133.223437 1922.8125 1166.660937 C 1926.71875 1200.098437 1932.96875 1252.051562 1936.835938 1280.723437 C 1940.742188 1309.434375 1946.992188 1351.621875 1950.898438 1373.379687 C 1954.765625 1395.1375 1961.015625 1424.35625 1964.921875 1437.520312 C 1968.828125 1450.684375 1975.078125 1464.707812 1978.945313 1468.301562 C 1982.851563 1471.895312 1989.101563 1469.66875 1993.007813 1463.41875 C 1996.875 1457.16875 2003.125 1438.809375 2007.03125 1423.184375 C 2010.9375 1407.520312 2017.1875 1374.5125 2021.054688 1350.684375 C 2024.960938 1326.85625 2031.210938 1281.621875 2035.117188 1251.426562 C 2038.984375 1221.192187 2045.234375 1167.207812 2049.140625 1132.910937 C 2053.046875 1098.614062 2059.296875 1039.98125 2063.164063 1004.2 C 2067.070313 968.41875 2073.320313 909.590625 2077.226563 875.059375 C 2081.132813 840.489062 2087.382813 785.91875 2091.25 755.215625 C 2095.15625 724.551562 2101.40625 678.379687 2105.3125 653.8875 C 2109.21875 629.395312 2115.46875 595.1375 2119.335938 578.692187 C 2123.242188 562.246875 2129.492188 542.520312 2133.398438 535.371875 C 2137.265625 528.223437 2143.515625 524.5125 2147.421875 527.207812 C 2151.328125 529.903125 2157.578125 542.442187 2161.445313 554.785937 C 2165.351563 567.129687 2171.601563 595.020312 2175.507813 616.075 C 2179.375 637.090625 2185.625 678.2625 2189.53125 706.3875 C 2193.4375 734.5125 2199.6875 785.7625 2203.554688 818.848437 C 2207.460938 851.973437 2213.710938 909.434375 2217.617188 944.98125 C 2221.484375 980.528125 2227.734375 1039.785937 2231.640625 1075.098437 C 2235.546875 1110.410937 2241.796875 1167.051562 2245.664063 1199.434375 C 2249.570313 1231.817187 2255.820313 1281.504687 2259.726563 1308.496875 C 2263.632813 1335.489062 2269.882813 1374.395312 2273.75 1393.965625 C 2277.65625 1413.496875 2283.90625 1438.73125 2287.8125 1449.35625 C 2291.71875 1459.98125 2297.929688 1469.629687 2301.835938 1470.528125 C 2305.742188 1471.426562 2311.992188 1464.746875 2315.898438 1455.840625 C 2319.765625 1446.973437 2326.015625 1424.434375 2329.921875 1406.426562 C 2333.828125 1388.379687 2340.078125 1351.739062 2343.945313 1325.957812 C 2347.851563 1300.215625 2354.101563 1252.207812 2358.007813 1220.645312 C 2361.875 1189.04375 2368.125 1133.379687 2372.03125 1098.41875 C 2375.9375 1063.457812 2382.1875 1004.317187 2386.054688 968.614062 C 2389.960938 932.910937 2396.210938 874.785937 2400.117188 841.035937 C 2403.984375 807.285937 2410.234375 754.629687 2414.140625 725.410937 C 2418.046875 696.192187 2424.296875 652.95 2428.164063 630.489062 C 2432.070313 608.028125 2438.320313 577.520312 2442.226563 563.535937 C 2446.132813 549.5125 2452.382813 534.04375 2456.25 529.551562 C 2460.15625 525.098437 2466.40625 525.840625 2470.3125 531.192187 C 2474.21875 536.582812 2480.429688 553.496875 2484.335938 568.301562 C 2488.242188 583.145312 2494.492188 614.942187 2498.398438 638.067187 C 2502.265625 661.23125 2508.515625 705.45 2512.421875 735.176562 C 2516.328125 764.903125 2522.578125 818.2625 2526.445313 852.285937 C 2530.351563 886.309375 2536.601563 944.707812 2540.507813 980.489062 C 2544.375 1016.23125 2550.625 1075.215625 2554.53125 1109.98125 C 2558.4375 1144.746875 2564.6875 1199.903125 2568.554688 1231.035937 C 2572.460938 1262.207812 2578.710938 1309.278125 2582.617188 1334.395312 C 2586.484375 1359.551562 2592.734375 1395.020312 2596.640625 1412.246875 C 2600.546875 1429.5125 2606.796875 1450.645312 2610.664063 1458.653125 C 2614.570313 1466.7 2620.820313 1471.895312 2624.726563 1470.098437 C 2628.632813 1468.301562 2634.882813 1457.207812 2638.75 1445.684375 C 2642.65625 1434.2 2648.90625 1407.6375 2652.8125 1387.325 C 2656.71875 1367.0125 2662.929688 1326.973437 2666.835938 1299.395312 C 2670.742188 1271.817187 2676.992188 1221.348437 2680.898438 1188.614062 C 2684.765625 1155.840625 2691.015625 1098.809375 2694.921875 1063.340625 C 2698.828125 1027.910937 2705.078125 968.614062 2708.945313 933.184375 C 2712.851563 897.715625 2719.101563 840.684375 2723.007813 807.910937 C 2726.875 775.176562 2733.125 724.707812 2737.03125 697.129687 C 2740.9375 669.551562 2747.1875 629.5125 2751.054688 609.2 C 2754.960938 588.926562 2761.210938 562.325 2765.117188 550.840625 C 2768.984375 539.35625 2775.234375 528.223437 2779.140625 526.426562 C 2783.046875 524.629687 2789.296875 529.825 2793.164063 537.871875 C 2797.070313 545.879687 2803.320313 567.051562 2807.226563 584.278125 C 2811.132813 601.504687 2817.382813 636.973437 2821.25 662.129687 C 2825.15625 687.285937 2831.40625 734.35625 2835.3125 765.489062 C 2839.21875 796.621875 2845.429688 851.778125 2849.335938 886.54375 C 2853.242188 921.309375 2859.492188 980.29375 2863.398438 1016.075 C 2867.265625 1051.817187 2873.515625 1110.215625 2877.421875 1144.278125 C 2881.328125 1178.301562 2887.578125 1231.621875 2891.445313 1261.348437 C 2895.351563 1291.075 2901.601563 1335.29375 2905.507813 1358.457812 C 2909.375 1381.621875 2915.625 1413.41875 2919.53125 1428.223437 C 2923.4375 1443.067187 2929.6875 1459.942187 2933.554688 1465.332812 C 2937.460938 1470.723437 2943.710938 1471.465625 2947.617188 1466.973437 C 2951.484375 1462.48125 2957.734375 1447.0125 2961.640625 1433.028125 C 2965.546875 1419.004687 2971.796875 1388.496875 2975.664063 1366.035937 C 2979.570313 1343.575 2985.820313 1300.332812 2989.726563 1271.114062 C 2993.632813 1241.895312 2999.84375 1189.239062 3003.75 1155.489062 C 3007.65625 1121.778125 3013.90625 1063.653125 3017.8125 1027.910937 C 3021.71875 992.207812 3027.929688 933.067187 3031.835938 898.10625 C 3035.742188 863.145312 3041.992188 807.48125 3045.898438 775.91875 C 3049.765625 744.317187 3056.015625 696.348437 3059.921875 670.567187 C 3063.828125 644.785937 3070.039063 608.145312 3073.945313 590.1375 C 3077.851563 572.129687 3084.101563 549.590625 3088.007813 540.684375 C 3091.875 531.778125 3098.125 525.098437 3102.03125 525.996875 C 3105.9375 526.895312 3112.1875 536.54375 3116.054688 547.16875 C 3119.960938 557.79375 3126.210938 583.028125 3130.117188 602.598437 C 3133.984375 622.129687 3140.234375 661.075 3144.140625 688.067187 C 3148.046875 715.059375 3154.296875 764.746875 3158.164063 797.129687 C 3162.070313 829.5125 3168.320313 886.153125 3172.226563 921.465625 C 3176.132813 956.778125 3182.34375 1016.035937 3186.25 1051.582812 C 3190.15625 1087.129687 3196.40625 1144.590625 3200.3125 1177.676562 C 3204.179688 1210.801562 3210.429688 1262.0125 3214.335938 1290.176562 C 3218.242188 1318.301562 3224.492188 1359.434375 3228.398438 1380.489062 C 3232.265625 1401.504687 3238.515625 1429.434375 3242.421875 1441.778125 C 3246.328125 1454.082812 3252.539063 1466.660937 3256.445313 1469.35625 C 3260.351563 1472.051562 3266.601563 1468.301562 3270.507813 1461.192187 C 3274.375 1454.04375 3280.625 1434.278125 3284.53125 1417.832812 C 3288.4375 1401.3875 3294.6875 1367.16875 3298.554688 1342.676562 C 3302.460938 1318.145312 3308.710938 1271.973437 3312.617188 1241.309375 C 3316.484375 1210.60625 3322.734375 1156.035937 3326.640625 1121.504687 C 3330.546875 1086.934375 3336.796875 1028.10625 3340.664063 992.325 C 3344.570313 956.54375 3350.820313 897.910937 3354.726563 863.614062 C 3358.59375 829.317187 3364.84375 775.332812 3368.75 745.1375 C 3372.65625 714.903125 3378.90625 669.707812 3382.8125 645.879687 C 3386.679688 622.051562 3392.929688 589.004687 3396.835938 573.379687 C 3400.742188 557.715625 3406.992188 539.395312 3410.898438 533.10625 C 3414.765625 526.85625 3421.015625 524.629687 3424.921875 528.223437 C 3428.828125 531.817187 3435.039063 545.840625 3438.945313 559.04375 C 3442.851563 572.207812 3449.101563 601.426562 3453.007813 623.184375 C 3456.875 644.942187 3463.125 687.129687 3467.03125 715.801562 C 3470.9375 744.473437 3477.1875 796.465625 3481.054688 829.903125 C 3484.960938 863.340625 3491.210938 921.114062 3495.117188 956.778125 C 3498.984375 992.403125 3505.234375 1051.660937 3509.140625 1086.817187 C 3513.046875 1121.934375 3519.296875 1178.10625 3523.164063 1210.098437 C 3527.070313 1242.090625 3533.320313 1290.91875 3537.226563 1317.325 C 3541.09375 1343.692187 3547.34375 1381.504687 3551.25 1400.29375 C 3555.15625 1419.082812 3561.40625 1442.989062 3565.3125 1452.754687 C 3569.179688 1462.520312 3579.335938 1470.723437 3579.335938 1470.723437 "
       style="fill:none;stroke-width:17.9329;stroke-linecap:butt;stroke-linejoin:round;stroke:rgb(0%,61.131287%,50.976563%);stroke-opacity:1;stroke-miterlimit:10;" />
    <path
       id="path16"
       transform="matrix(0.1,0,0,-0.1,0,176.17)"
       d="M 69.726563 998.2625 L 69.726563 1470.723437 M 771.640625 998.2625 L 771.640625 1144.278125 M 1473.554688 998.2625 L 1473.554688 616.035937 M 2175.507813 998.2625 L 2175.507813 616.035937 M 2877.421875 998.2625 L 2877.421875 1144.278125 M 3579.335938 998.2625 L 3579.335938 1470.723437 "
       style="fill:none;stroke-width:17.9329;stroke-linecap:butt;stroke-linejoin:round;stroke:rgb(85.9375%,2.397156%,31.809998%);stroke-opacity:1;stroke-miterlimit:10;" />
    <path
       id="path18"
       transform="matrix(0.1,0,0,-0.1,0,176.17)"
       d="M 89.648438 1470.723437 C 89.648438 1481.739062 80.742188 1490.645312 69.726563 1490.645312 C 58.710938 1490.645312 49.804688 1481.739062 49.804688 1470.723437 C 49.804688 1459.707812 58.710938 1450.801562 69.726563 1450.801562 C 80.742188 1450.801562 89.648438 1459.707812 89.648438 1470.723437 Z M 89.648438 1470.723437 "
       style="fill-rule:nonzero;fill:rgb(85.9375%,2.397156%,31.809998%);fill-opacity:1;stroke-width:17.9329;stroke-linecap:butt;stroke-linejoin:round;stroke:rgb(85.9375%,2.397156%,31.809998%);stroke-opacity:1;stroke-miterlimit:10;" />
    <path
       id="path20"
       transform="matrix(0.1,0,0,-0.1,0,176.17)"
       d="M 791.5625 1144.278125 C 791.5625 1155.254687 782.65625 1164.2 771.640625 1164.2 C 760.664063 1164.2 751.71875 1155.254687 751.71875 1144.278125 C 751.71875 1133.2625 760.664063 1124.35625 771.640625 1124.35625 C 782.65625 1124.35625 791.5625 1133.2625 791.5625 1144.278125 Z M 791.5625 1144.278125 "
       style="fill-rule:nonzero;fill:rgb(85.9375%,2.397156%,31.809998%);fill-opacity:1;stroke-width:17.9329;stroke-linecap:butt;stroke-linejoin:round;stroke:rgb(85.9375%,2.397156%,31.809998%);stroke-opacity:1;stroke-miterlimit:10;" />
    <path
       id="path22"
       transform="matrix(0.1,0,0,-0.1,0,176.17)"
       d="M 1493.515625 616.035937 C 1493.515625 627.051562 1484.570313 635.957812 1473.554688 635.957812 C 1462.578125 635.957812 1453.632813 627.051562 1453.632813 616.035937 C 1453.632813 605.059375 1462.578125 596.114062 1473.554688 596.114062 C 1484.570313 596.114062 1493.515625 605.059375 1493.515625 616.035937 Z M 1493.515625 616.035937 "
       style="fill-rule:nonzero;fill:rgb(85.9375%,2.397156%,31.809998%);fill-opacity:1;stroke-width:17.9329;stroke-linecap:butt;stroke-linejoin:round;stroke:rgb(85.9375%,2.397156%,31.809998%);stroke-opacity:1;stroke-miterlimit:10;" />
    <path
       id="path24"
       transform="matrix(0.1,0,0,-0.1,0,176.17)"
       d="M 2195.429688 616.035937 C 2195.429688 627.051562 2186.484375 635.957812 2175.507813 635.957812 C 2164.492188 635.957812 2155.585938 627.051562 2155.585938 616.035937 C 2155.585938 605.059375 2164.492188 596.114062 2175.507813 596.114062 C 2186.484375 596.114062 2195.429688 605.059375 2195.429688 616.035937 Z M 2195.429688 616.035937 "
       style="fill-rule:nonzero;fill:rgb(85.9375%,2.397156%,31.809998%);fill-opacity:1;stroke-width:17.9329;stroke-linecap:butt;stroke-linejoin:round;stroke:rgb(85.9375%,2.397156%,31.809998%);stroke-opacity:1;stroke-miterlimit:10;" />
    <path
       id="path26"
       transform="matrix(0.1,0,0,-0.1,0,176.17)"
       d="M 2897.34375 1144.278125 C 2897.34375 1155.254687 2888.4375 1164.2 2877.421875 1164.2 C 2866.40625 1164.2 2857.5 1155.254687 2857.5 1144.278125 C 2857.5 1133.2625 2866.40625 1124.35625 2877.421875 1124.35625 C 2888.4375 1124.35625 2897.34375 1133.2625 2897.34375 1144.278125 Z M 2897.34375 1144.278125 "
       style="fill-rule:nonzero;fill:rgb(85.9375%,2.397156%,31.809998%);fill-opacity:1;stroke-width:17.9329;stroke-linecap:butt;stroke-linejoin:round;stroke:rgb(85.9375%,2.397156%,31.809998%);stroke-opacity:1;stroke-miterlimit:10;" />
    <path
       id="path28"
       transform="matrix(0.1,0,0,-0.1,0,176.17)"
       d="M 3599.257813 1470.723437 C 3599.257813 1481.739062 3590.351563 1490.645312 3579.335938 1490.645312 C 3568.320313 1490.645312 3559.414063 1481.739062 3559.414063 1470.723437 C 3559.414063 1459.707812 3568.320313 1450.801562 3579.335938 1450.801562 C 3590.351563 1450.801562 3599.257813 1459.707812 3599.257813 1470.723437 Z M 3599.257813 1470.723437 "
       style="fill-rule:nonzero;fill:rgb(85.9375%,2.397156%,31.809998%);fill-opacity:1;stroke-width:17.9329;stroke-linecap:butt;stroke-linejoin:round;stroke:rgb(85.9375%,2.397156%,31.809998%);stroke-opacity:1;stroke-miterlimit:10;" />
    <path
       id="path30"
       d="M 366.570313 63.128906 L 368.160156 63.128906 C 368.488281 63.128906 368.660156 63.128906 368.660156 62.816406 C 368.660156 62.625 368.558594 62.625 368.214844 62.625 L 366.691406 62.625 L 367.332031 60.105469 C 367.398438 59.863281 367.398438 59.828125 367.398438 59.710938 C 367.398438 59.433594 367.175781 59.277344 366.953125 59.277344 C 366.8125 59.277344 366.414063 59.328125 366.277344 59.882813 L 365.605469 62.625 L 363.980469 62.625 C 363.636719 62.625 363.480469 62.625 363.480469 62.953125 C 363.480469 63.128906 363.601563 63.128906 363.929688 63.128906 L 365.464844 63.128906 L 364.328125 67.6875 C 364.1875 68.292969 364.136719 68.464844 364.136719 68.6875 C 364.136719 69.5 364.707031 70.242188 365.671875 70.242188 C 367.417969 70.242188 368.351563 67.722656 368.351563 67.601563 C 368.351563 67.496094 368.28125 67.445313 368.175781 67.445313 C 368.140625 67.445313 368.074219 67.445313 368.039063 67.515625 C 368.023438 67.53125 368.003906 67.546875 367.882813 67.824219 C 367.519531 68.6875 366.726563 69.898438 365.726563 69.898438 C 365.207031 69.898438 365.171875 69.464844 365.171875 69.085938 C 365.171875 69.066406 365.171875 68.738281 365.222656 68.53125 L 366.570313 63.128906 "
       style=" stroke:none;fill-rule:nonzero;fill:rgb(0%,0%,0%);fill-opacity:1;" />
    <path
       id="path32"
       d="M 24.9375 171.191406 L 357.515625 171.191406 L 357.515625 147.707031 L 24.9375 147.707031 Z M 24.9375 171.191406 "
       style=" stroke:none;fill-rule:nonzero;fill:rgb(100%,100%,100%);fill-opacity:1;" />
    <path
       id="path34"
       transform="matrix(0.1,0,0,-0.1,0,176.17)"
       d="M 288.242188 167.207812 C 288.242188 167.207812 349.6875 167.207812 373.28125 167.207812 C 396.875 167.207812 458.320313 167.207812 458.320313 167.207812 "
       style="fill:none;stroke-width:17.9329;stroke-linecap:butt;stroke-linejoin:round;stroke:rgb(80.076599%,92.1875%,90.234375%);stroke-opacity:1;stroke-miterlimit:10;" />
    <path
       id="path36"
       d="M 56.886719 157.523438 C 56.332031 157.628906 56.125 158.042969 56.125 158.371094 C 56.125 158.785156 56.453125 158.921875 56.695313 158.921875 C 57.214844 158.921875 57.578125 158.476563 57.578125 158.007813 C 57.578125 157.28125 56.746094 156.953125 56.023438 156.953125 C 54.96875 156.953125 54.382813 157.992188 54.226563 158.320313 C 53.828125 157.023438 52.757813 156.953125 52.445313 156.953125 C 50.6875 156.953125 49.753906 159.21875 49.753906 159.597656 C 49.753906 159.664063 49.820313 159.75 49.945313 159.75 C 50.082031 159.75 50.117188 159.648438 50.148438 159.578125 C 50.738281 157.664063 51.894531 157.300781 52.394531 157.300781 C 53.171875 157.300781 53.328125 158.023438 53.328125 158.4375 C 53.328125 158.820313 53.226563 159.21875 53.015625 160.046875 L 52.429688 162.410156 C 52.171875 163.449219 51.671875 164.398438 50.753906 164.398438 C 50.667969 164.398438 50.238281 164.398438 49.875 164.171875 C 50.496094 164.050781 50.632813 163.535156 50.632813 163.328125 C 50.632813 162.980469 50.375 162.773438 50.046875 162.773438 C 49.632813 162.773438 49.183594 163.136719 49.183594 163.6875 C 49.183594 164.414063 49.996094 164.742188 50.738281 164.742188 C 51.566406 164.742188 52.152344 164.085938 52.515625 163.378906 C 52.792969 164.398438 53.65625 164.742188 54.296875 164.742188 C 56.054688 164.742188 56.988281 162.480469 56.988281 162.101563 C 56.988281 162.015625 56.921875 161.945313 56.816406 161.945313 C 56.660156 161.945313 56.644531 162.03125 56.59375 162.171875 C 56.125 163.6875 55.125 164.398438 54.347656 164.398438 C 53.742188 164.398438 53.414063 163.949219 53.414063 163.242188 C 53.414063 162.859375 53.484375 162.585938 53.757813 161.445313 L 54.363281 159.09375 C 54.625 158.058594 55.210938 157.300781 56.003906 157.300781 C 56.039063 157.300781 56.523438 157.300781 56.886719 157.523438 "
       style=" stroke:none;fill-rule:nonzero;fill:rgb(0%,0%,0%);fill-opacity:1;" />
    <path
       id="path38"
       d="M 63.585938 168.785156 C 63.585938 168.765625 63.585938 168.734375 63.53125 168.679688 C 62.738281 167.867188 60.613281 165.65625 60.613281 160.269531 C 60.613281 154.882813 62.703125 152.6875 63.550781 151.824219 C 63.550781 151.808594 63.585938 151.773438 63.585938 151.722656 C 63.585938 151.671875 63.53125 151.636719 63.464844 151.636719 C 63.273438 151.636719 61.804688 152.914063 60.960938 154.8125 C 60.09375 156.730469 59.855469 158.59375 59.855469 160.253906 C 59.855469 161.496094 59.976563 163.601563 61.011719 165.832031 C 61.839844 167.625 63.257813 168.886719 63.464844 168.886719 C 63.550781 168.886719 63.585938 168.851563 63.585938 168.785156 "
       style=" stroke:none;fill-rule:nonzero;fill:rgb(0%,0%,0%);fill-opacity:1;" />
    <path
       id="path40"
       d="M 67.871094 157.628906 L 69.460938 157.628906 C 69.789063 157.628906 69.960938 157.628906 69.960938 157.316406 C 69.960938 157.125 69.859375 157.125 69.511719 157.125 L 67.992188 157.125 L 68.632813 154.605469 C 68.699219 154.363281 68.699219 154.328125 68.699219 154.210938 C 68.699219 153.933594 68.476563 153.777344 68.25 153.777344 C 68.113281 153.777344 67.714844 153.828125 67.578125 154.382813 L 66.90625 157.125 L 65.28125 157.125 C 64.9375 157.125 64.78125 157.125 64.78125 157.453125 C 64.78125 157.628906 64.902344 157.628906 65.230469 157.628906 L 66.765625 157.628906 L 65.625 162.1875 C 65.488281 162.792969 65.4375 162.964844 65.4375 163.1875 C 65.4375 164 66.007813 164.742188 66.972656 164.742188 C 68.71875 164.742188 69.648438 162.222656 69.648438 162.101563 C 69.648438 161.996094 69.582031 161.945313 69.476563 161.945313 C 69.441406 161.945313 69.375 161.945313 69.339844 162.015625 C 69.320313 162.03125 69.304688 162.046875 69.183594 162.324219 C 68.820313 163.1875 68.027344 164.398438 67.023438 164.398438 C 66.507813 164.398438 66.472656 163.964844 66.472656 163.585938 C 66.472656 163.570313 66.472656 163.242188 66.523438 163.03125 L 67.871094 157.628906 "
       style=" stroke:none;fill-rule:nonzero;fill:rgb(0%,0%,0%);fill-opacity:1;" />
    <path
       id="path42"
       d="M 75.042969 160.269531 C 75.042969 159.027344 74.921875 156.921875 73.882813 154.691406 C 73.054688 152.898438 71.640625 151.636719 71.433594 151.636719 C 71.382813 151.636719 71.3125 151.652344 71.3125 151.738281 C 71.3125 151.773438 71.328125 151.789063 71.347656 151.824219 C 72.175781 152.6875 74.28125 154.882813 74.28125 160.253906 C 74.28125 165.640625 72.191406 167.835938 71.347656 168.699219 C 71.328125 168.734375 71.3125 168.75 71.3125 168.785156 C 71.3125 168.871094 71.382813 168.886719 71.433594 168.886719 C 71.621094 168.886719 73.089844 167.609375 73.9375 165.710938 C 74.800781 163.792969 75.042969 161.929688 75.042969 160.269531 "
       style=" stroke:none;fill-rule:nonzero;fill:rgb(0%,0%,0%);fill-opacity:1;" />
    <path
       id="path44"
       transform="matrix(0.1,0,0,-0.1,0,176.17)"
       d="M 794.6875 167.207812 C 794.6875 167.207812 856.132813 167.207812 879.726563 167.207812 C 903.320313 167.207812 964.765625 167.207812 964.765625 167.207812 "
       style="fill:none;stroke-width:17.9329;stroke-linecap:butt;stroke-linejoin:round;stroke:rgb(59.959412%,84.568787%,80.46875%);stroke-opacity:1;stroke-miterlimit:10;" />
    <path
       id="path46"
       d="M 107.585938 157.523438 C 107.03125 157.628906 106.828125 158.042969 106.828125 158.371094 C 106.828125 158.785156 107.15625 158.921875 107.394531 158.921875 C 107.914063 158.921875 108.277344 158.476563 108.277344 158.007813 C 108.277344 157.28125 107.445313 156.953125 106.722656 156.953125 C 105.667969 156.953125 105.082031 157.992188 104.925781 158.320313 C 104.53125 157.023438 103.457031 156.953125 103.148438 156.953125 C 101.386719 156.953125 100.453125 159.21875 100.453125 159.597656 C 100.453125 159.664063 100.523438 159.75 100.644531 159.75 C 100.78125 159.75 100.816406 159.648438 100.851563 159.578125 C 101.4375 157.664063 102.59375 157.300781 103.09375 157.300781 C 103.871094 157.300781 104.027344 158.023438 104.027344 158.4375 C 104.027344 158.820313 103.925781 159.21875 103.71875 160.046875 L 103.128906 162.410156 C 102.871094 163.449219 102.371094 164.398438 101.453125 164.398438 C 101.367188 164.398438 100.9375 164.398438 100.574219 164.171875 C 101.195313 164.050781 101.335938 163.535156 101.335938 163.328125 C 101.335938 162.980469 101.074219 162.773438 100.746094 162.773438 C 100.332031 162.773438 99.882813 163.136719 99.882813 163.6875 C 99.882813 164.414063 100.695313 164.742188 101.4375 164.742188 C 102.265625 164.742188 102.851563 164.085938 103.21875 163.378906 C 103.492188 164.398438 104.355469 164.742188 104.996094 164.742188 C 106.757813 164.742188 107.6875 162.480469 107.6875 162.101563 C 107.6875 162.015625 107.621094 161.945313 107.515625 161.945313 C 107.359375 161.945313 107.34375 162.03125 107.292969 162.171875 C 106.828125 163.6875 105.824219 164.398438 105.046875 164.398438 C 104.441406 164.398438 104.113281 163.949219 104.113281 163.242188 C 104.113281 162.859375 104.183594 162.585938 104.460938 161.445313 L 105.0625 159.09375 C 105.324219 158.058594 105.910156 157.300781 106.703125 157.300781 C 106.738281 157.300781 107.222656 157.300781 107.585938 157.523438 "
       style=" stroke:none;fill-rule:nonzero;fill:rgb(0%,0%,0%);fill-opacity:1;" />
    <path
       id="path48"
       d="M 114.144531 165.167969 L 113.882813 165.167969 C 113.847656 165.371094 113.753906 166.027344 113.632813 166.21875 C 113.546875 166.324219 112.867188 166.324219 112.511719 166.324219 L 110.304688 166.324219 C 110.628906 166.050781 111.355469 165.289063 111.664063 165 C 113.476563 163.332031 114.144531 162.710938 114.144531 161.53125 C 114.144531 160.160156 113.0625 159.242188 111.679688 159.242188 C 110.296875 159.242188 109.484375 160.421875 109.484375 161.449219 C 109.484375 162.054688 110.007813 162.054688 110.042969 162.054688 C 110.296875 162.054688 110.605469 161.878906 110.605469 161.496094 C 110.605469 161.164063 110.378906 160.9375 110.042969 160.9375 C 109.9375 160.9375 109.914063 160.9375 109.878906 160.949219 C 110.105469 160.136719 110.746094 159.589844 111.523438 159.589844 C 112.535156 159.589844 113.15625 160.4375 113.15625 161.53125 C 113.15625 162.546875 112.570313 163.425781 111.890625 164.191406 L 109.484375 166.882813 L 109.484375 167.171875 L 113.835938 167.171875 L 114.144531 165.167969 "
       style=" stroke:none;fill-rule:nonzero;fill:rgb(0%,0%,0%);fill-opacity:1;" />
    <path
       id="path50"
       d="M 120.585938 168.785156 C 120.585938 168.765625 120.585938 168.734375 120.53125 168.679688 C 119.738281 167.867188 117.613281 165.65625 117.613281 160.269531 C 117.613281 154.882813 119.703125 152.6875 120.550781 151.824219 C 120.550781 151.808594 120.585938 151.773438 120.585938 151.722656 C 120.585938 151.671875 120.53125 151.636719 120.464844 151.636719 C 120.273438 151.636719 118.804688 152.914063 117.960938 154.8125 C 117.09375 156.730469 116.855469 158.59375 116.855469 160.253906 C 116.855469 161.496094 116.976563 163.601563 118.011719 165.832031 C 118.839844 167.625 120.257813 168.886719 120.464844 168.886719 C 120.550781 168.886719 120.585938 168.851563 120.585938 168.785156 "
       style=" stroke:none;fill-rule:nonzero;fill:rgb(0%,0%,0%);fill-opacity:1;" />
    <path
       id="path52"
       d="M 124.871094 157.628906 L 126.460938 157.628906 C 126.789063 157.628906 126.960938 157.628906 126.960938 157.316406 C 126.960938 157.125 126.859375 157.125 126.511719 157.125 L 124.992188 157.125 L 125.632813 154.605469 C 125.699219 154.363281 125.699219 154.328125 125.699219 154.210938 C 125.699219 153.933594 125.476563 153.777344 125.253906 153.777344 C 125.113281 153.777344 124.714844 153.828125 124.578125 154.382813 L 123.90625 157.125 L 122.28125 157.125 C 121.9375 157.125 121.78125 157.125 121.78125 157.453125 C 121.78125 157.628906 121.902344 157.628906 122.230469 157.628906 L 123.765625 157.628906 L 122.628906 162.1875 C 122.488281 162.792969 122.4375 162.964844 122.4375 163.1875 C 122.4375 164 123.007813 164.742188 123.972656 164.742188 C 125.71875 164.742188 126.648438 162.222656 126.648438 162.101563 C 126.648438 161.996094 126.582031 161.945313 126.476563 161.945313 C 126.441406 161.945313 126.371094 161.945313 126.339844 162.015625 C 126.320313 162.03125 126.304688 162.046875 126.183594 162.324219 C 125.820313 163.1875 125.027344 164.398438 124.023438 164.398438 C 123.507813 164.398438 123.472656 163.964844 123.472656 163.585938 C 123.472656 163.570313 123.472656 163.242188 123.523438 163.03125 L 124.871094 157.628906 "
       style=" stroke:none;fill-rule:nonzero;fill:rgb(0%,0%,0%);fill-opacity:1;" />
    <path
       id="path54"
       d="M 132.042969 160.269531 C 132.042969 159.027344 131.921875 156.921875 130.882813 154.691406 C 130.054688 152.898438 128.640625 151.636719 128.433594 151.636719 C 128.382813 151.636719 128.3125 151.652344 128.3125 151.738281 C 128.3125 151.773438 128.328125 151.789063 128.347656 151.824219 C 129.175781 152.6875 131.28125 154.882813 131.28125 160.253906 C 131.28125 165.640625 129.191406 167.835938 128.347656 168.699219 C 128.328125 168.734375 128.3125 168.75 128.3125 168.785156 C 128.3125 168.871094 128.382813 168.886719 128.433594 168.886719 C 128.621094 168.886719 130.089844 167.609375 130.9375 165.710938 C 131.800781 163.792969 132.042969 161.929688 132.042969 160.269531 "
       style=" stroke:none;fill-rule:nonzero;fill:rgb(0%,0%,0%);fill-opacity:1;" />
    <path
       id="path56"
       transform="matrix(0.1,0,0,-0.1,0,176.17)"
       d="M 1364.648438 167.207812 C 1364.648438 167.207812 1426.09375 167.207812 1449.6875 167.207812 C 1473.28125 167.207812 1534.726563 167.207812 1534.726563 167.207812 "
       style="fill:none;stroke-width:17.9329;stroke-linecap:butt;stroke-linejoin:round;stroke:rgb(0%,61.131287%,50.976563%);stroke-opacity:1;stroke-miterlimit:10;" />
    <path
       id="path58"
       d="M 164.585938 157.523438 C 164.03125 157.628906 163.828125 158.042969 163.828125 158.371094 C 163.828125 158.785156 164.15625 158.921875 164.394531 158.921875 C 164.914063 158.921875 165.277344 158.476563 165.277344 158.007813 C 165.277344 157.28125 164.445313 156.953125 163.722656 156.953125 C 162.667969 156.953125 162.082031 157.992188 161.925781 158.320313 C 161.53125 157.023438 160.457031 156.953125 160.148438 156.953125 C 158.386719 156.953125 157.453125 159.21875 157.453125 159.597656 C 157.453125 159.664063 157.523438 159.75 157.644531 159.75 C 157.78125 159.75 157.816406 159.648438 157.851563 159.578125 C 158.4375 157.664063 159.59375 157.300781 160.09375 157.300781 C 160.871094 157.300781 161.027344 158.023438 161.027344 158.4375 C 161.027344 158.820313 160.925781 159.21875 160.71875 160.046875 L 160.128906 162.410156 C 159.871094 163.449219 159.371094 164.398438 158.453125 164.398438 C 158.367188 164.398438 157.9375 164.398438 157.574219 164.171875 C 158.195313 164.050781 158.335938 163.535156 158.335938 163.328125 C 158.335938 162.980469 158.074219 162.773438 157.746094 162.773438 C 157.332031 162.773438 156.882813 163.136719 156.882813 163.6875 C 156.882813 164.414063 157.695313 164.742188 158.4375 164.742188 C 159.265625 164.742188 159.851563 164.085938 160.21875 163.378906 C 160.492188 164.398438 161.355469 164.742188 161.996094 164.742188 C 163.757813 164.742188 164.6875 162.480469 164.6875 162.101563 C 164.6875 162.015625 164.621094 161.945313 164.515625 161.945313 C 164.359375 161.945313 164.34375 162.03125 164.292969 162.171875 C 163.828125 163.6875 162.824219 164.398438 162.046875 164.398438 C 161.441406 164.398438 161.113281 163.949219 161.113281 163.242188 C 161.113281 162.859375 161.183594 162.585938 161.460938 161.445313 L 162.0625 159.09375 C 162.324219 158.058594 162.910156 157.300781 163.703125 157.300781 C 163.738281 157.300781 164.222656 157.300781 164.585938 157.523438 "
       style=" stroke:none;fill-rule:nonzero;fill:rgb(0%,0%,0%);fill-opacity:1;" />
    <path
       id="path60"
       d="M 168.09375 162.890625 C 167.890625 162.902344 167.84375 162.914063 167.84375 163.023438 C 167.84375 163.140625 167.902344 163.140625 168.117188 163.140625 L 168.664063 163.140625 C 169.679688 163.140625 170.132813 163.976563 170.132813 165.121094 C 170.132813 166.679688 169.320313 167.097656 168.738281 167.097656 C 168.164063 167.097656 167.1875 166.824219 166.84375 166.039063 C 167.222656 166.097656 167.570313 165.882813 167.570313 165.453125 C 167.570313 165.109375 167.320313 164.871094 166.984375 164.871094 C 166.699219 164.871094 166.390625 165.035156 166.390625 165.488281 C 166.390625 166.550781 167.449219 167.421875 168.773438 167.421875 C 170.191406 167.421875 171.242188 166.335938 171.242188 165.132813 C 171.242188 164.035156 170.359375 163.175781 169.214844 162.976563 C 170.253906 162.675781 170.917969 161.804688 170.917969 160.875 C 170.917969 159.933594 169.941406 159.242188 168.785156 159.242188 C 167.59375 159.242188 166.710938 159.96875 166.710938 160.839844 C 166.710938 161.316406 167.078125 161.414063 167.257813 161.414063 C 167.507813 161.414063 167.796875 161.234375 167.796875 160.875 C 167.796875 160.496094 167.507813 160.328125 167.246094 160.328125 C 167.175781 160.328125 167.152344 160.328125 167.117188 160.339844 C 167.570313 159.53125 168.6875 159.53125 168.746094 159.53125 C 169.140625 159.53125 169.917969 159.707031 169.917969 160.875 C 169.917969 161.101563 169.882813 161.769531 169.535156 162.28125 C 169.179688 162.808594 168.773438 162.84375 168.453125 162.855469 L 168.09375 162.890625 "
       style=" stroke:none;fill-rule:nonzero;fill:rgb(0%,0%,0%);fill-opacity:1;" />
    <path
       id="path62"
       d="M 177.585938 168.785156 C 177.585938 168.765625 177.585938 168.734375 177.53125 168.679688 C 176.738281 167.867188 174.613281 165.65625 174.613281 160.269531 C 174.613281 154.882813 176.703125 152.6875 177.550781 151.824219 C 177.550781 151.808594 177.585938 151.773438 177.585938 151.722656 C 177.585938 151.671875 177.53125 151.636719 177.464844 151.636719 C 177.273438 151.636719 175.804688 152.914063 174.960938 154.8125 C 174.09375 156.730469 173.855469 158.59375 173.855469 160.253906 C 173.855469 161.496094 173.976563 163.601563 175.011719 165.832031 C 175.839844 167.625 177.257813 168.886719 177.464844 168.886719 C 177.550781 168.886719 177.585938 168.851563 177.585938 168.785156 "
       style=" stroke:none;fill-rule:nonzero;fill:rgb(0%,0%,0%);fill-opacity:1;" />
    <path
       id="path64"
       d="M 181.871094 157.628906 L 183.460938 157.628906 C 183.789063 157.628906 183.960938 157.628906 183.960938 157.316406 C 183.960938 157.125 183.859375 157.125 183.511719 157.125 L 181.992188 157.125 L 182.632813 154.605469 C 182.699219 154.363281 182.699219 154.328125 182.699219 154.210938 C 182.699219 153.933594 182.476563 153.777344 182.253906 153.777344 C 182.113281 153.777344 181.714844 153.828125 181.578125 154.382813 L 180.90625 157.125 L 179.28125 157.125 C 178.9375 157.125 178.78125 157.125 178.78125 157.453125 C 178.78125 157.628906 178.902344 157.628906 179.230469 157.628906 L 180.765625 157.628906 L 179.628906 162.1875 C 179.488281 162.792969 179.4375 162.964844 179.4375 163.1875 C 179.4375 164 180.007813 164.742188 180.972656 164.742188 C 182.71875 164.742188 183.648438 162.222656 183.648438 162.101563 C 183.648438 161.996094 183.582031 161.945313 183.476563 161.945313 C 183.441406 161.945313 183.371094 161.945313 183.339844 162.015625 C 183.320313 162.03125 183.304688 162.046875 183.183594 162.324219 C 182.820313 163.1875 182.027344 164.398438 181.023438 164.398438 C 180.507813 164.398438 180.472656 163.964844 180.472656 163.585938 C 180.472656 163.570313 180.472656 163.242188 180.523438 163.03125 L 181.871094 157.628906 "
       style=" stroke:none;fill-rule:nonzero;fill:rgb(0%,0%,0%);fill-opacity:1;" />
    <path
       id="path66"
       d="M 189.042969 160.269531 C 189.042969 159.027344 188.921875 156.921875 187.882813 154.691406 C 187.054688 152.898438 185.640625 151.636719 185.433594 151.636719 C 185.382813 151.636719 185.3125 151.652344 185.3125 151.738281 C 185.3125 151.773438 185.328125 151.789063 185.347656 151.824219 C 186.175781 152.6875 188.28125 154.882813 188.28125 160.253906 C 188.28125 165.640625 186.191406 167.835938 185.347656 168.699219 C 185.328125 168.734375 185.3125 168.75 185.3125 168.785156 C 185.3125 168.871094 185.382813 168.886719 185.433594 168.886719 C 185.621094 168.886719 187.089844 167.609375 187.9375 165.710938 C 188.800781 163.792969 189.042969 161.929688 189.042969 160.269531 "
       style=" stroke:none;fill-rule:nonzero;fill:rgb(0%,0%,0%);fill-opacity:1;" />
    <path
       id="path68"
       transform="matrix(0.1,0,0,-0.1,0,176.17)"
       d="M 1934.609375 167.207812 L 1934.609375 167.207812 M 2019.648438 167.207812 L 2019.648438 167.207812 M 2104.6875 167.207812 L 2104.6875 167.207812 "
       style="fill:none;stroke-width:17.9329;stroke-linecap:butt;stroke-linejoin:round;stroke:rgb(85.9375%,2.397156%,31.809998%);stroke-opacity:1;stroke-miterlimit:10;" />
    <path
       id="path70"
       transform="matrix(0.1,0,0,-0.1,0,176.17)"
       d="M 2039.609375 167.207812 C 2039.609375 178.223437 2030.664063 187.129687 2019.648438 187.129687 C 2008.671875 187.129687 1999.726563 178.223437 1999.726563 167.207812 C 1999.726563 156.192187 2008.671875 147.285937 2019.648438 147.285937 C 2030.664063 147.285937 2039.609375 156.192187 2039.609375 167.207812 Z M 2039.609375 167.207812 "
       style="fill-rule:nonzero;fill:rgb(85.9375%,2.397156%,31.809998%);fill-opacity:1;stroke-width:17.9329;stroke-linecap:butt;stroke-linejoin:round;stroke:rgb(85.9375%,2.397156%,31.809998%);stroke-opacity:1;stroke-miterlimit:10;" />
    <path
       id="path72"
       d="M 221.585938 157.523438 C 221.03125 157.628906 220.828125 158.042969 220.828125 158.371094 C 220.828125 158.785156 221.15625 158.921875 221.394531 158.921875 C 221.914063 158.921875 222.277344 158.476563 222.277344 158.007813 C 222.277344 157.28125 221.445313 156.953125 220.722656 156.953125 C 219.667969 156.953125 219.082031 157.992188 218.925781 158.320313 C 218.53125 157.023438 217.457031 156.953125 217.148438 156.953125 C 215.386719 156.953125 214.453125 159.21875 214.453125 159.597656 C 214.453125 159.664063 214.523438 159.75 214.644531 159.75 C 214.78125 159.75 214.816406 159.648438 214.851563 159.578125 C 215.4375 157.664063 216.59375 157.300781 217.09375 157.300781 C 217.871094 157.300781 218.027344 158.023438 218.027344 158.4375 C 218.027344 158.820313 217.925781 159.21875 217.71875 160.046875 L 217.128906 162.410156 C 216.871094 163.449219 216.371094 164.398438 215.453125 164.398438 C 215.367188 164.398438 214.9375 164.398438 214.574219 164.171875 C 215.195313 164.050781 215.335938 163.535156 215.335938 163.328125 C 215.335938 162.980469 215.074219 162.773438 214.746094 162.773438 C 214.332031 162.773438 213.882813 163.136719 213.882813 163.6875 C 213.882813 164.414063 214.695313 164.742188 215.4375 164.742188 C 216.265625 164.742188 216.851563 164.085938 217.21875 163.378906 C 217.492188 164.398438 218.355469 164.742188 218.996094 164.742188 C 220.757813 164.742188 221.6875 162.480469 221.6875 162.101563 C 221.6875 162.015625 221.621094 161.945313 221.515625 161.945313 C 221.359375 161.945313 221.34375 162.03125 221.292969 162.171875 C 220.828125 163.6875 219.824219 164.398438 219.046875 164.398438 C 218.441406 164.398438 218.113281 163.949219 218.113281 163.242188 C 218.113281 162.859375 218.183594 162.585938 218.460938 161.445313 L 219.0625 159.09375 C 219.324219 158.058594 219.910156 157.300781 220.703125 157.300781 C 220.738281 157.300781 221.222656 157.300781 221.585938 157.523438 "
       style=" stroke:none;fill-rule:nonzero;fill:rgb(0%,0%,0%);fill-opacity:1;" />
    <path
       id="path74"
       d="M 226.957031 168.871094 L 226.957031 168.265625 L 225.335938 168.265625 L 225.335938 152.242188 L 226.957031 152.242188 L 226.957031 151.636719 L 224.730469 151.636719 L 224.730469 168.871094 L 226.957031 168.871094 "
       style=" stroke:none;fill-rule:nonzero;fill:rgb(0%,0%,0%);fill-opacity:1;" />
    <path
       id="path76"
       d="M 232.054688 153.015625 C 232.070313 152.949219 232.105469 152.84375 232.105469 152.757813 C 232.105469 152.585938 231.929688 152.585938 231.898438 152.585938 C 231.878906 152.585938 231.257813 152.636719 230.945313 152.671875 C 230.652344 152.6875 230.394531 152.722656 230.085938 152.742188 C 229.667969 152.773438 229.546875 152.792969 229.546875 153.101563 C 229.546875 153.277344 229.722656 153.277344 229.894531 153.277344 C 230.773438 153.277344 230.773438 153.429688 230.773438 153.605469 C 230.773438 153.671875 230.773438 153.707031 230.6875 154.019531 L 228.21875 163.898438 C 228.148438 164.15625 228.148438 164.191406 228.148438 164.292969 C 228.148438 164.671875 228.445313 164.742188 228.617188 164.742188 C 229.101563 164.742188 229.203125 164.363281 229.339844 163.828125 L 230.152344 160.597656 C 231.398438 160.734375 232.140625 161.253906 232.140625 162.082031 C 232.140625 162.1875 232.140625 162.257813 232.089844 162.515625 C 232.019531 162.773438 232.019531 162.980469 232.019531 163.066406 C 232.019531 164.070313 232.675781 164.742188 233.554688 164.742188 C 234.351563 164.742188 234.765625 164.015625 234.902344 163.777344 C 235.265625 163.136719 235.488281 162.171875 235.488281 162.101563 C 235.488281 162.015625 235.421875 161.945313 235.316406 161.945313 C 235.160156 161.945313 235.144531 162.015625 235.074219 162.289063 C 234.832031 163.1875 234.46875 164.398438 233.589844 164.398438 C 233.242188 164.398438 233.019531 164.226563 233.019531 163.570313 C 233.019531 163.242188 233.089844 162.859375 233.15625 162.601563 C 233.226563 162.289063 233.226563 162.273438 233.226563 162.066406 C 233.226563 161.046875 232.3125 160.476563 230.722656 160.269531 C 231.34375 159.890625 231.964844 159.21875 232.207031 158.957031 C 233.191406 157.851563 233.867188 157.300781 234.660156 157.300781 C 235.058594 157.300781 235.160156 157.402344 235.28125 157.507813 C 234.644531 157.578125 234.402344 158.023438 234.402344 158.371094 C 234.402344 158.785156 234.730469 158.921875 234.972656 158.921875 C 235.4375 158.921875 235.851563 158.527344 235.851563 157.972656 C 235.851563 157.472656 235.453125 156.953125 234.679688 156.953125 C 233.726563 156.953125 232.949219 157.628906 231.726563 159.007813 C 231.550781 159.21875 230.914063 159.875 230.273438 160.113281 L 232.054688 153.015625 "
       style=" stroke:none;fill-rule:nonzero;fill:rgb(0%,0%,0%);fill-opacity:1;" />
    <path
       id="path78"
       d="M 239.070313 151.636719 L 236.84375 151.636719 L 236.84375 152.242188 L 238.464844 152.242188 L 238.464844 168.265625 L 236.84375 168.265625 L 236.84375 168.871094 L 239.070313 168.871094 L 239.070313 151.636719 "
       style=" stroke:none;fill-rule:nonzero;fill:rgb(0%,0%,0%);fill-opacity:1;" />
    <path
       id="path80"
       d="M 256.703125 159.027344 C 256.964844 159.027344 257.222656 159.027344 257.222656 158.734375 C 257.222656 158.421875 256.929688 158.421875 256.632813 158.421875 L 246.980469 158.421875 C 246.6875 158.421875 246.394531 158.421875 246.394531 158.734375 C 246.394531 159.027344 246.652344 159.027344 246.914063 159.027344 Z M 256.632813 162.101563 C 256.929688 162.101563 257.222656 162.101563 257.222656 161.789063 C 257.222656 161.496094 256.964844 161.496094 256.703125 161.496094 L 246.914063 161.496094 C 246.652344 161.496094 246.394531 161.496094 246.394531 161.789063 C 246.394531 162.101563 246.6875 162.101563 246.980469 162.101563 L 256.632813 162.101563 "
       style=" stroke:none;fill-rule:nonzero;fill:rgb(0%,0%,0%);fill-opacity:1;" />
    <path
       id="path82"
       d="M 270.984375 157.523438 C 270.433594 157.628906 270.226563 158.042969 270.226563 158.371094 C 270.226563 158.785156 270.554688 158.921875 270.796875 158.921875 C 271.3125 158.921875 271.675781 158.476563 271.675781 158.007813 C 271.675781 157.28125 270.847656 156.953125 270.121094 156.953125 C 269.070313 156.953125 268.480469 157.992188 268.328125 158.320313 C 267.929688 157.023438 266.859375 156.953125 266.546875 156.953125 C 264.785156 156.953125 263.851563 159.21875 263.851563 159.597656 C 263.851563 159.664063 263.921875 159.75 264.042969 159.75 C 264.179688 159.75 264.214844 159.648438 264.25 159.578125 C 264.839844 157.664063 265.996094 157.300781 266.496094 157.300781 C 267.273438 157.300781 267.429688 158.023438 267.429688 158.4375 C 267.429688 158.820313 267.324219 159.21875 267.117188 160.046875 L 266.53125 162.410156 C 266.273438 163.449219 265.769531 164.398438 264.855469 164.398438 C 264.769531 164.398438 264.339844 164.398438 263.976563 164.171875 C 264.59375 164.050781 264.734375 163.535156 264.734375 163.328125 C 264.734375 162.980469 264.476563 162.773438 264.148438 162.773438 C 263.734375 162.773438 263.28125 163.136719 263.28125 163.6875 C 263.28125 164.414063 264.09375 164.742188 264.839844 164.742188 C 265.667969 164.742188 266.253906 164.085938 266.617188 163.378906 C 266.890625 164.398438 267.757813 164.742188 268.394531 164.742188 C 270.15625 164.742188 271.089844 162.480469 271.089844 162.101563 C 271.089844 162.015625 271.019531 161.945313 270.917969 161.945313 C 270.761719 161.945313 270.742188 162.03125 270.691406 162.171875 C 270.226563 163.6875 269.222656 164.398438 268.445313 164.398438 C 267.84375 164.398438 267.515625 163.949219 267.515625 163.242188 C 267.515625 162.859375 267.585938 162.585938 267.859375 161.445313 L 268.464844 159.09375 C 268.722656 158.058594 269.3125 157.300781 270.105469 157.300781 C 270.140625 157.300781 270.621094 157.300781 270.984375 157.523438 "
       style=" stroke:none;fill-rule:nonzero;fill:rgb(0%,0%,0%);fill-opacity:1;" />
    <path
       id="path84"
       d="M 277.644531 165.167969 L 277.382813 165.167969 C 277.347656 165.371094 277.253906 166.027344 277.132813 166.21875 C 277.046875 166.324219 276.367188 166.324219 276.011719 166.324219 L 273.804688 166.324219 C 274.128906 166.050781 274.855469 165.289063 275.164063 165 C 276.976563 163.332031 277.644531 162.710938 277.644531 161.53125 C 277.644531 160.160156 276.5625 159.242188 275.179688 159.242188 C 273.796875 159.242188 272.984375 160.421875 272.984375 161.449219 C 272.984375 162.054688 273.507813 162.054688 273.542969 162.054688 C 273.796875 162.054688 274.105469 161.878906 274.105469 161.496094 C 274.105469 161.164063 273.878906 160.9375 273.542969 160.9375 C 273.4375 160.9375 273.414063 160.9375 273.378906 160.949219 C 273.605469 160.136719 274.246094 159.589844 275.023438 159.589844 C 276.035156 159.589844 276.65625 160.4375 276.65625 161.53125 C 276.65625 162.546875 276.070313 163.425781 275.390625 164.191406 L 272.984375 166.882813 L 272.984375 167.171875 L 277.335938 167.171875 L 277.644531 165.167969 "
       style=" stroke:none;fill-rule:nonzero;fill:rgb(0%,0%,0%);fill-opacity:1;" />
    <path
       id="path86"
       d="M 282.859375 168.871094 L 282.859375 168.265625 L 281.234375 168.265625 L 281.234375 152.242188 L 282.859375 152.242188 L 282.859375 151.636719 L 280.632813 151.636719 L 280.632813 168.871094 L 282.859375 168.871094 "
       style=" stroke:none;fill-rule:nonzero;fill:rgb(0%,0%,0%);fill-opacity:1;" />
    <path
       id="path88"
       d="M 287.953125 153.015625 C 287.96875 152.949219 288.003906 152.84375 288.003906 152.757813 C 288.003906 152.585938 287.832031 152.585938 287.796875 152.585938 C 287.78125 152.585938 287.15625 152.636719 286.847656 152.671875 C 286.554688 152.6875 286.296875 152.722656 285.984375 152.742188 C 285.570313 152.773438 285.449219 152.792969 285.449219 153.101563 C 285.449219 153.277344 285.621094 153.277344 285.792969 153.277344 C 286.675781 153.277344 286.675781 153.429688 286.675781 153.605469 C 286.675781 153.671875 286.675781 153.707031 286.589844 154.019531 L 284.117188 163.898438 C 284.050781 164.15625 284.050781 164.191406 284.050781 164.292969 C 284.050781 164.671875 284.34375 164.742188 284.515625 164.742188 C 285 164.742188 285.101563 164.363281 285.242188 163.828125 L 286.054688 160.597656 C 287.296875 160.734375 288.039063 161.253906 288.039063 162.082031 C 288.039063 162.1875 288.039063 162.257813 287.988281 162.515625 C 287.917969 162.773438 287.917969 162.980469 287.917969 163.066406 C 287.917969 164.070313 288.574219 164.742188 289.453125 164.742188 C 290.25 164.742188 290.664063 164.015625 290.800781 163.777344 C 291.164063 163.136719 291.390625 162.171875 291.390625 162.101563 C 291.390625 162.015625 291.320313 161.945313 291.21875 161.945313 C 291.0625 161.945313 291.042969 162.015625 290.976563 162.289063 C 290.734375 163.1875 290.371094 164.398438 289.488281 164.398438 C 289.144531 164.398438 288.921875 164.226563 288.921875 163.570313 C 288.921875 163.242188 288.988281 162.859375 289.058594 162.601563 C 289.128906 162.289063 289.128906 162.273438 289.128906 162.066406 C 289.128906 161.046875 288.214844 160.476563 286.621094 160.269531 C 287.246094 159.890625 287.867188 159.21875 288.109375 158.957031 C 289.09375 157.851563 289.765625 157.300781 290.5625 157.300781 C 290.957031 157.300781 291.0625 157.402344 291.183594 157.507813 C 290.542969 157.578125 290.300781 158.023438 290.300781 158.371094 C 290.300781 158.785156 290.628906 158.921875 290.871094 158.921875 C 291.339844 158.921875 291.753906 158.527344 291.753906 157.972656 C 291.753906 157.472656 291.355469 156.953125 290.578125 156.953125 C 289.628906 156.953125 288.851563 157.628906 287.625 159.007813 C 287.453125 159.21875 286.8125 159.875 286.171875 160.113281 L 287.953125 153.015625 "
       style=" stroke:none;fill-rule:nonzero;fill:rgb(0%,0%,0%);fill-opacity:1;" />
    <path
       id="path90"
       d="M 294.867188 151.636719 L 292.640625 151.636719 L 292.640625 152.242188 L 294.265625 152.242188 L 294.265625 168.265625 L 292.640625 168.265625 L 292.640625 168.871094 L 294.867188 168.871094 L 294.867188 151.636719 "
       style=" stroke:none;fill-rule:nonzero;fill:rgb(0%,0%,0%);fill-opacity:1;" />
    <path
       id="path92"
       d="M 312.605469 159.027344 C 312.863281 159.027344 313.121094 159.027344 313.121094 158.734375 C 313.121094 158.421875 312.828125 158.421875 312.535156 158.421875 L 302.882813 158.421875 C 302.589844 158.421875 302.292969 158.421875 302.292969 158.734375 C 302.292969 159.027344 302.554688 159.027344 302.8125 159.027344 Z M 312.535156 162.101563 C 312.828125 162.101563 313.121094 162.101563 313.121094 161.789063 C 313.121094 161.496094 312.863281 161.496094 312.605469 161.496094 L 302.8125 161.496094 C 302.554688 161.496094 302.292969 161.496094 302.292969 161.789063 C 302.292969 162.101563 302.589844 162.101563 302.882813 162.101563 L 312.535156 162.101563 "
       style=" stroke:none;fill-rule:nonzero;fill:rgb(0%,0%,0%);fill-opacity:1;" />
    <path
       id="path94"
       d="M 326.886719 157.523438 C 326.332031 157.628906 326.128906 158.042969 326.128906 158.371094 C 326.128906 158.785156 326.453125 158.921875 326.695313 158.921875 C 327.214844 158.921875 327.578125 158.476563 327.578125 158.007813 C 327.578125 157.28125 326.746094 156.953125 326.023438 156.953125 C 324.96875 156.953125 324.382813 157.992188 324.226563 158.320313 C 323.828125 157.023438 322.757813 156.953125 322.445313 156.953125 C 320.6875 156.953125 319.753906 159.21875 319.753906 159.597656 C 319.753906 159.664063 319.820313 159.75 319.945313 159.75 C 320.082031 159.75 320.117188 159.648438 320.148438 159.578125 C 320.738281 157.664063 321.894531 157.300781 322.394531 157.300781 C 323.171875 157.300781 323.328125 158.023438 323.328125 158.4375 C 323.328125 158.820313 323.226563 159.21875 323.015625 160.046875 L 322.429688 162.410156 C 322.171875 163.449219 321.671875 164.398438 320.753906 164.398438 C 320.667969 164.398438 320.238281 164.398438 319.875 164.171875 C 320.496094 164.050781 320.632813 163.535156 320.632813 163.328125 C 320.632813 162.980469 320.375 162.773438 320.046875 162.773438 C 319.632813 162.773438 319.183594 163.136719 319.183594 163.6875 C 319.183594 164.414063 319.996094 164.742188 320.738281 164.742188 C 321.566406 164.742188 322.152344 164.085938 322.515625 163.378906 C 322.792969 164.398438 323.65625 164.742188 324.296875 164.742188 C 326.054688 164.742188 326.988281 162.480469 326.988281 162.101563 C 326.988281 162.015625 326.921875 161.945313 326.816406 161.945313 C 326.660156 161.945313 326.644531 162.03125 326.59375 162.171875 C 326.128906 163.6875 325.121094 164.398438 324.347656 164.398438 C 323.742188 164.398438 323.414063 163.949219 323.414063 163.242188 C 323.414063 162.859375 323.484375 162.585938 323.757813 161.445313 L 324.363281 159.09375 C 324.621094 158.058594 325.210938 157.300781 326.003906 157.300781 C 326.039063 157.300781 326.523438 157.300781 326.886719 157.523438 "
       style=" stroke:none;fill-rule:nonzero;fill:rgb(0%,0%,0%);fill-opacity:1;" />
    <path
       id="path96"
       d="M 330.394531 162.890625 C 330.191406 162.902344 330.144531 162.914063 330.144531 163.023438 C 330.144531 163.140625 330.203125 163.140625 330.417969 163.140625 L 330.964844 163.140625 C 331.976563 163.140625 332.429688 163.976563 332.429688 165.121094 C 332.429688 166.679688 331.621094 167.097656 331.039063 167.097656 C 330.464844 167.097656 329.488281 166.824219 329.140625 166.039063 C 329.523438 166.097656 329.867188 165.882813 329.867188 165.453125 C 329.867188 165.109375 329.617188 164.871094 329.285156 164.871094 C 328.996094 164.871094 328.6875 165.035156 328.6875 165.488281 C 328.6875 166.550781 329.75 167.421875 331.074219 167.421875 C 332.492188 167.421875 333.539063 166.335938 333.539063 165.132813 C 333.539063 164.035156 332.65625 163.175781 331.515625 162.976563 C 332.550781 162.675781 333.21875 161.804688 333.21875 160.875 C 333.21875 159.933594 332.242188 159.242188 331.085938 159.242188 C 329.890625 159.242188 329.011719 159.96875 329.011719 160.839844 C 329.011719 161.316406 329.378906 161.414063 329.558594 161.414063 C 329.808594 161.414063 330.09375 161.234375 330.09375 160.875 C 330.09375 160.496094 329.808594 160.328125 329.546875 160.328125 C 329.476563 160.328125 329.453125 160.328125 329.414063 160.339844 C 329.867188 159.53125 330.988281 159.53125 331.046875 159.53125 C 331.441406 159.53125 332.21875 159.707031 332.21875 160.875 C 332.21875 161.101563 332.179688 161.769531 331.835938 162.28125 C 331.476563 162.808594 331.074219 162.84375 330.753906 162.855469 L 330.394531 162.890625 "
       style=" stroke:none;fill-rule:nonzero;fill:rgb(0%,0%,0%);fill-opacity:1;" />
    <path
       id="path98"
       d="M 338.65625 168.871094 L 338.65625 168.265625 L 337.035156 168.265625 L 337.035156 152.242188 L 338.65625 152.242188 L 338.65625 151.636719 L 336.429688 151.636719 L 336.429688 168.871094 L 338.65625 168.871094 "
       style=" stroke:none;fill-rule:nonzero;fill:rgb(0%,0%,0%);fill-opacity:1;" />
    <path
       id="path100"
       d="M 343.753906 153.015625 C 343.769531 152.949219 343.804688 152.84375 343.804688 152.757813 C 343.804688 152.585938 343.632813 152.585938 343.597656 152.585938 C 343.578125 152.585938 342.957031 152.636719 342.648438 152.671875 C 342.351563 152.6875 342.09375 152.722656 341.785156 152.742188 C 341.367188 152.773438 341.246094 152.792969 341.246094 153.101563 C 341.246094 153.277344 341.421875 153.277344 341.59375 153.277344 C 342.476563 153.277344 342.476563 153.429688 342.476563 153.605469 C 342.476563 153.671875 342.476563 153.707031 342.390625 154.019531 L 339.917969 163.898438 C 339.851563 164.15625 339.851563 164.191406 339.851563 164.292969 C 339.851563 164.671875 340.144531 164.742188 340.316406 164.742188 C 340.800781 164.742188 340.902344 164.363281 341.039063 163.828125 L 341.851563 160.597656 C 343.097656 160.734375 343.839844 161.253906 343.839844 162.082031 C 343.839844 162.1875 343.839844 162.257813 343.789063 162.515625 C 343.71875 162.773438 343.71875 162.980469 343.71875 163.066406 C 343.71875 164.070313 344.375 164.742188 345.253906 164.742188 C 346.050781 164.742188 346.464844 164.015625 346.601563 163.777344 C 346.964844 163.136719 347.1875 162.171875 347.1875 162.101563 C 347.1875 162.015625 347.121094 161.945313 347.015625 161.945313 C 346.859375 161.945313 346.84375 162.015625 346.773438 162.289063 C 346.53125 163.1875 346.171875 164.398438 345.289063 164.398438 C 344.945313 164.398438 344.71875 164.226563 344.71875 163.570313 C 344.71875 163.242188 344.789063 162.859375 344.859375 162.601563 C 344.925781 162.289063 344.925781 162.273438 344.925781 162.066406 C 344.925781 161.046875 344.011719 160.476563 342.421875 160.269531 C 343.046875 159.890625 343.664063 159.21875 343.90625 158.957031 C 344.890625 157.851563 345.566406 157.300781 346.359375 157.300781 C 346.757813 157.300781 346.859375 157.402344 346.984375 157.507813 C 346.34375 157.578125 346.101563 158.023438 346.101563 158.371094 C 346.101563 158.785156 346.429688 158.921875 346.671875 158.921875 C 347.136719 158.921875 347.550781 158.527344 347.550781 157.972656 C 347.550781 157.472656 347.15625 156.953125 346.378906 156.953125 C 345.429688 156.953125 344.648438 157.628906 343.425781 159.007813 C 343.253906 159.21875 342.613281 159.875 341.972656 160.113281 L 343.753906 153.015625 "
       style=" stroke:none;fill-rule:nonzero;fill:rgb(0%,0%,0%);fill-opacity:1;" />
    <path
       id="path102"
       d="M 350.667969 151.636719 L 348.441406 151.636719 L 348.441406 152.242188 L 350.066406 152.242188 L 350.066406 168.265625 L 348.441406 168.265625 L 348.441406 168.871094 L 350.667969 168.871094 L 350.667969 151.636719 "
       style=" stroke:none;fill-rule:nonzero;fill:rgb(0%,0%,0%);fill-opacity:1;" />
  </g>
</svg>
