<?xml version="1.0" encoding="UTF-8" standalone="no"?>
<svg
   xmlns:dc="http://purl.org/dc/elements/1.1/"
   xmlns:cc="http://creativecommons.org/ns#"
   xmlns:rdf="http://www.w3.org/1999/02/22-rdf-syntax-ns#"
   xmlns:svg="http://www.w3.org/2000/svg"
   xmlns="http://www.w3.org/2000/svg"
   viewBox="0 0 507.94666 234.89333"
   height="234.89333"
   width="507.94666"
   xml:space="preserve"
   id="svg2"
   version="1.1"><metadata
     id="metadata8"><rdf:RDF><cc:Work
         rdf:about=""><dc:format>image/svg+xml</dc:format><dc:type
           rdf:resource="http://purl.org/dc/dcmitype/StillImage" /></cc:Work></rdf:RDF></metadata><defs
     id="defs6" /><g
     transform="matrix(1.3333333,0,0,-1.3333333,0,234.89333)"
     id="g10"><g
       transform="scale(0.1)"
       id="g12"><path
         id="path14"
         style="fill:none;stroke:#000000;stroke-width:9.9628;stroke-linecap:butt;stroke-linejoin:miter;stroke-miterlimit:10;stroke-dasharray:none;stroke-opacity:1"
         d="M 69.7305,998.27 H 3725.92" /><path
         id="path16"
         style="fill:#000000;fill-opacity:1;fill-rule:nonzero;stroke:none"
         d="m 3754.82,998.27 -46.23,23.11 17.33,-23.11 -17.33,-23.114" /><path
         id="path18"
         style="fill:none;stroke:#000000;stroke-width:9.9628;stroke-linecap:butt;stroke-linejoin:miter;stroke-miterlimit:10;stroke-dasharray:none;stroke-opacity:1"
         d="M 69.7305,289.602 V 1678.05" /><path
         id="path20"
         style="fill:#000000;fill-opacity:1;fill-rule:nonzero;stroke:none"
         d="m 69.7305,1706.94 -23.1133,-46.23 23.1133,17.34 23.1133,-17.34" /><path
         id="path22"
         style="fill:none;stroke:#009c82;stroke-width:17.9329;stroke-linecap:butt;stroke-linejoin:round;stroke-miterlimit:10;stroke-dasharray:none;stroke-opacity:1"
         d="m 69.7305,1470.72 c 0,0 50.7145,-1.68 70.1915,-3.74 19.476,-2.07 50.715,-7.04 70.191,-11.12 19.481,-4.09 50.715,-12.3 70.192,-18.34 19.48,-6.06 50.715,-17.35 70.195,-25.26 19.477,-7.91 50.711,-22.11 70.191,-31.77 19.477,-9.66 50.715,-26.58 70.192,-37.83 19.476,-11.26 50.715,-30.61 70.191,-43.27 19.477,-12.66 50.715,-34.11 70.192,-47.98 19.48,-13.87 50.714,-37.13 70.191,-52 19.481,-14.86 50.715,-39.52 70.195,-55.14 19.477,-15.63 50.711,-41.34 70.192,-57.48 19.476,-16.15 50.715,-42.47 70.191,-58.86 19.477,-16.4 50.715,-42.918 70.192,-59.317 19.483,-16.394 50.713,-42.718 70.193,-58.859 19.48,-16.145 50.71,-41.852 70.19,-57.481 19.48,-15.625 50.71,-40.281 70.19,-55.148 19.48,-14.863 50.72,-38.121 70.2,-51.992 19.47,-13.871 50.71,-35.324 70.19,-47.985 19.47,-12.66 50.71,-32.011 70.19,-43.261 19.48,-11.254 50.71,-28.18 70.19,-37.836 19.48,-9.656 50.72,-23.86 70.2,-31.77 19.47,-7.914 50.71,-19.207 70.19,-25.254 19.47,-6.047 50.71,-14.254 70.19,-18.339 19.48,-4.09 50.71,-9.059 70.19,-11.122 19.48,-2.062 50.71,-3.742 70.19,-3.742 19.48,0 50.72,1.68 70.19,3.742 19.48,2.063 50.72,7.032 70.2,11.122 19.47,4.085 50.71,12.292 70.19,18.339 19.48,6.047 50.71,17.34 70.19,25.254 19.48,7.91 50.72,22.114 70.19,31.77 19.48,9.656 50.72,26.582 70.19,37.836 19.48,11.25 50.72,30.601 70.2,43.261 19.48,12.661 50.71,34.114 70.19,47.985 19.48,13.871 50.72,37.129 70.19,51.992 19.48,14.867 50.72,39.523 70.19,55.148 19.48,15.629 50.72,41.336 70.19,57.481 19.49,16.141 50.72,42.465 70.2,58.859 19.48,16.399 50.71,42.917 70.19,59.317 19.48,16.39 50.71,42.71 70.19,58.86 19.48,16.14 50.72,41.85 70.19,57.48 19.48,15.62 50.72,40.28 70.2,55.14 19.47,14.87 50.71,38.13 70.19,52 19.48,13.87 50.71,35.32 70.19,47.98 19.48,12.66 50.71,32.01 70.19,43.27 19.48,11.25 50.71,28.17 70.2,37.83 19.47,9.66 50.71,23.86 70.19,31.77 19.47,7.91 50.71,19.2 70.19,25.26 19.47,6.04 50.71,14.25 70.19,18.34 19.48,4.08 50.71,9.05 70.19,11.12 19.48,2.06 70.2,3.74 70.2,3.74" /><path
         id="path24"
         style="fill:none;stroke:#db0651;stroke-width:17.9329;stroke-linecap:butt;stroke-linejoin:round;stroke-miterlimit:10;stroke-dasharray:none;stroke-opacity:1"
         d="m 69.7305,998.27 v 472.45 M 771.652,998.27 v 146 m 701.918,-146 V 616.051 M 2175.49,998.27 V 616.051 m 701.92,382.219 v 146 m 701.93,-146 v 472.45" /><path
         id="path26"
         style="fill:#db0651;fill-opacity:1;fill-rule:nonzero;stroke:none"
         d="m 89.6563,1470.72 c 0,11 -8.9219,19.92 -19.9258,19.92 -11.0039,0 -19.9258,-8.92 -19.9258,-19.92 0,-11.01 8.9219,-19.93 19.9258,-19.93 11.0039,0 19.9258,8.92 19.9258,19.93 z" /><path
         id="path28"
         style="fill:none;stroke:#db0651;stroke-width:17.9329;stroke-linecap:butt;stroke-linejoin:round;stroke-miterlimit:10;stroke-dasharray:none;stroke-opacity:1"
         d="m 89.6563,1470.72 c 0,11 -8.9219,19.92 -19.9258,19.92 -11.0039,0 -19.9258,-8.92 -19.9258,-19.92 0,-11.01 8.9219,-19.93 19.9258,-19.93 11.0039,0 19.9258,8.92 19.9258,19.93 z" /><path
         id="path30"
         style="fill:#db0651;fill-opacity:1;fill-rule:nonzero;stroke:none"
         d="m 791.578,1144.27 c 0,11 -8.922,19.92 -19.926,19.92 -11.007,0 -19.925,-8.92 -19.925,-19.92 0,-11.01 8.918,-19.93 19.925,-19.93 11.004,0 19.926,8.92 19.926,19.93 z" /><path
         id="path32"
         style="fill:none;stroke:#db0651;stroke-width:17.9329;stroke-linecap:butt;stroke-linejoin:round;stroke-miterlimit:10;stroke-dasharray:none;stroke-opacity:1"
         d="m 791.578,1144.27 c 0,11 -8.922,19.92 -19.926,19.92 -11.007,0 -19.925,-8.92 -19.925,-19.92 0,-11.01 8.918,-19.93 19.925,-19.93 11.004,0 19.926,8.92 19.926,19.93 z" /><path
         id="path34"
         style="fill:#db0651;fill-opacity:1;fill-rule:nonzero;stroke:none"
         d="m 1493.5,616.051 c 0,11.004 -8.92,19.926 -19.93,19.926 -11,0 -19.93,-8.922 -19.93,-19.926 0,-11.004 8.93,-19.926 19.93,-19.926 11.01,0 19.93,8.922 19.93,19.926 z" /><path
         id="path36"
         style="fill:none;stroke:#db0651;stroke-width:17.9329;stroke-linecap:butt;stroke-linejoin:round;stroke-miterlimit:10;stroke-dasharray:none;stroke-opacity:1"
         d="m 1493.5,616.051 c 0,11.004 -8.92,19.926 -19.93,19.926 -11,0 -19.93,-8.922 -19.93,-19.926 0,-11.004 8.93,-19.926 19.93,-19.926 11.01,0 19.93,8.922 19.93,19.926 z" /><path
         id="path38"
         style="fill:#db0651;fill-opacity:1;fill-rule:nonzero;stroke:none"
         d="m 2195.42,616.051 c 0,11.004 -8.92,19.926 -19.93,19.926 -11,0 -19.92,-8.922 -19.92,-19.926 0,-11.004 8.92,-19.926 19.92,-19.926 11.01,0 19.93,8.922 19.93,19.926 z" /><path
         id="path40"
         style="fill:none;stroke:#db0651;stroke-width:17.9329;stroke-linecap:butt;stroke-linejoin:round;stroke-miterlimit:10;stroke-dasharray:none;stroke-opacity:1"
         d="m 2195.42,616.051 c 0,11.004 -8.92,19.926 -19.93,19.926 -11,0 -19.92,-8.922 -19.92,-19.926 0,-11.004 8.92,-19.926 19.92,-19.926 11.01,0 19.93,8.922 19.93,19.926 z" /><path
         id="path42"
         style="fill:#db0651;fill-opacity:1;fill-rule:nonzero;stroke:none"
         d="m 2897.34,1144.27 c 0,11 -8.92,19.92 -19.93,19.92 -11,0 -19.92,-8.92 -19.92,-19.92 0,-11.01 8.92,-19.93 19.92,-19.93 11.01,0 19.93,8.92 19.93,19.93 z" /><path
         id="path44"
         style="fill:none;stroke:#db0651;stroke-width:17.9329;stroke-linecap:butt;stroke-linejoin:round;stroke-miterlimit:10;stroke-dasharray:none;stroke-opacity:1"
         d="m 2897.34,1144.27 c 0,11 -8.92,19.92 -19.93,19.92 -11,0 -19.92,-8.92 -19.92,-19.92 0,-11.01 8.92,-19.93 19.92,-19.93 11.01,0 19.93,8.92 19.93,19.93 z" /><path
         id="path46"
         style="fill:#db0651;fill-opacity:1;fill-rule:nonzero;stroke:none"
         d="m 3599.26,1470.72 c 0,11 -8.92,19.92 -19.92,19.92 -11.01,0 -19.93,-8.92 -19.93,-19.92 0,-11.01 8.92,-19.93 19.93,-19.93 11,0 19.92,8.92 19.92,19.93 z" /><path
         id="path48"
         style="fill:none;stroke:#db0651;stroke-width:17.9329;stroke-linecap:butt;stroke-linejoin:round;stroke-miterlimit:10;stroke-dasharray:none;stroke-opacity:1"
         d="m 3599.26,1470.72 c 0,11 -8.92,19.92 -19.92,19.92 -11.01,0 -19.93,-8.92 -19.93,-19.92 0,-11.01 8.92,-19.93 19.93,-19.93 11,0 19.92,8.92 19.92,19.93 z" /><path
         id="path50"
         style="fill:#000000;fill-opacity:1;fill-rule:nonzero;stroke:none"
         d="m 3665.72,1130.42 h 15.87 c 3.29,0 5.02,0 5.02,3.11 0,1.91 -1.03,1.91 -4.48,1.91 h -15.21 l 6.39,25.2 c 0.69,2.42 0.69,2.77 0.69,3.97 0,2.77 -2.25,4.33 -4.48,4.33 -1.39,0 -5.36,-0.52 -6.74,-6.05 l -6.73,-27.45 h -16.24 c -3.45,0 -5.01,0 -5.01,-3.28 0,-1.74 1.22,-1.74 4.5,-1.74 h 15.36 l -11.39,-45.59 c -1.39,-6.05 -1.91,-7.77 -1.91,-10.02 0,-8.11 5.7,-15.54 15.37,-15.54 17.44,0 26.77,25.21 26.77,26.42 0,1.04 -0.69,1.56 -1.73,1.56 -0.35,0 -1.04,0 -1.38,-0.69 -0.17,-0.17 -0.34,-0.34 -1.55,-3.11 -3.64,-8.64 -11.57,-20.72 -21.59,-20.72 -5.19,0 -5.53,4.32 -5.53,8.11 0,0.18 0,3.46 0.51,5.54 l 13.49,54.04" /><path
         id="path52"
         style="fill:#ffffff;fill-opacity:1;fill-rule:nonzero;stroke:none"
         d="m 1377.62,49.8047 h 1069.3 v 234.813 h -1069.3 z" /><path
         id="path54"
         style="fill:none;stroke:#009c82;stroke-width:17.9329;stroke-linecap:butt;stroke-linejoin:round;stroke-miterlimit:10;stroke-dasharray:none;stroke-opacity:1"
         d="m 1416.48,167.211 c 0,0 61.44,0 85.04,0 23.6,0 85.04,0 85.04,0" /><path
         id="path56"
         style="fill:#000000;fill-opacity:1;fill-rule:nonzero;stroke:none"
         d="m 1696.86,186.453 c -5.53,-1.031 -7.59,-5.172 -7.59,-8.453 0,-4.141 3.28,-5.531 5.68,-5.531 5.19,0 8.82,4.484 8.82,9.156 0,7.25 -8.3,10.531 -15.55,10.531 -10.53,0 -16.41,-10.359 -17.95,-13.64 -3.97,12.953 -14.69,13.64 -17.8,13.64 -17.61,0 -26.94,-22.625 -26.94,-26.422 0,-0.687 0.69,-1.546 1.91,-1.546 1.37,0 1.72,1.031 2.06,1.718 5.88,19.172 17.45,22.797 22.45,22.797 7.78,0 9.33,-7.25 9.33,-11.39 0,-3.813 -1.03,-7.782 -3.11,-16.063 l -5.87,-23.656 c -2.58,-10.375 -7.6,-19.86 -16.75,-19.86 -0.86,0 -5.17,0 -8.8,2.235 6.2,1.219 7.59,6.39 7.59,8.469 0,3.453 -2.59,5.515 -5.87,5.515 -4.14,0 -8.64,-3.625 -8.64,-9.14 0,-7.266 8.12,-10.547 15.55,-10.547 8.29,0 14.15,6.562 17.79,13.656 2.75,-10.188 11.39,-13.656 17.78,-13.656 17.61,0 26.94,22.625 26.94,26.422 0,0.875 -0.69,1.562 -1.72,1.562 -1.56,0 -1.73,-0.859 -2.25,-2.25 -4.65,-15.187 -14.69,-22.266 -22.45,-22.266 -6.05,0 -9.33,4.485 -9.33,11.563 0,3.797 0.7,6.562 3.45,17.953 l 6.05,23.5 c 2.59,10.359 8.47,17.953 16.41,17.953 0.34,0 5.18,0 8.81,-2.25" /><path
         id="path58"
         style="fill:#000000;fill-opacity:1;fill-rule:nonzero;stroke:none"
         d="m 1763.84,73.8594 c 0,0.1719 0,0.5156 -0.51,1.0469 -7.95,8.1093 -29.19,30.2187 -29.19,84.0937 0,53.875 20.89,75.813 29.36,84.453 0,0.172 0.34,0.516 0.34,1.031 0,0.516 -0.51,0.86 -1.2,0.86 -1.91,0 -16.58,-12.781 -25.05,-31.766 -8.64,-19.172 -11.04,-37.828 -11.04,-54.406 0,-12.438 1.2,-33.5 11.56,-55.781 8.3,-17.9535 22.45,-30.5629 24.53,-30.5629 0.86,0 1.2,0.3438 1.2,1.0313" /><path
         id="path60"
         style="fill:#000000;fill-opacity:1;fill-rule:nonzero;stroke:none"
         d="m 1806.72,185.422 h 15.87 c 3.29,0 5.02,0 5.02,3.109 0,1.907 -1.03,1.907 -4.48,1.907 h -15.21 l 6.39,25.203 c 0.69,2.422 0.69,2.765 0.69,3.968 0,2.766 -2.25,4.329 -4.48,4.329 -1.39,0 -5.36,-0.516 -6.74,-6.047 l -6.73,-27.453 h -16.24 c -3.45,0 -5.01,0 -5.01,-3.282 0,-1.734 1.22,-1.734 4.5,-1.734 h 15.36 l -11.39,-45.594 c -1.39,-6.047 -1.91,-7.765 -1.91,-10.015 0,-8.11 5.7,-15.547 15.37,-15.547 17.44,0 26.77,25.218 26.77,26.422 0,1.046 -0.69,1.562 -1.73,1.562 -0.35,0 -1.04,0 -1.38,-0.687 -0.17,-0.172 -0.34,-0.344 -1.55,-3.11 -3.64,-8.64 -11.57,-20.719 -21.59,-20.719 -5.19,0 -5.53,4.313 -5.53,8.11 0,0.172 0,3.453 0.51,5.531 l 13.49,54.047" /><path
         id="path62"
         style="fill:#000000;fill-opacity:1;fill-rule:nonzero;stroke:none"
         d="m 1878.42,159 c 0,12.438 -1.22,33.5 -11.58,55.781 -8.28,17.953 -22.45,30.563 -24.51,30.563 -0.52,0 -1.22,-0.172 -1.22,-1.031 0,-0.344 0.19,-0.516 0.36,-0.86 8.28,-8.64 29.34,-30.578 29.34,-84.281 0,-53.875 -20.89,-75.8126 -29.34,-84.4532 -0.17,-0.3438 -0.36,-0.5157 -0.36,-0.8594 0,-0.8594 0.7,-1.0313 1.22,-1.0313 1.89,0 16.58,12.7813 25.03,31.7809 8.64,19.157 11.06,37.813 11.06,54.391" /><path
         id="path64"
         style="fill:none;stroke:#db0651;stroke-width:17.9329;stroke-linecap:butt;stroke-linejoin:round;stroke-miterlimit:10;stroke-dasharray:none;stroke-opacity:1"
         d="m 1922.93,167.211 v 0 m 85.04,0 v 0 m 85.04,0 v 0" /><path
         id="path66"
         style="fill:#db0651;fill-opacity:1;fill-rule:nonzero;stroke:none"
         d="m 2027.9,167.211 c 0,11.004 -8.92,19.926 -19.93,19.926 -11.01,0 -19.92,-8.922 -19.92,-19.926 0,-11.004 8.91,-19.926 19.92,-19.926 11.01,0 19.93,8.922 19.93,19.926 z" /><path
         id="path68"
         style="fill:none;stroke:#db0651;stroke-width:17.9329;stroke-linecap:butt;stroke-linejoin:round;stroke-miterlimit:10;stroke-dasharray:none;stroke-opacity:1"
         d="m 2027.9,167.211 c 0,11.004 -8.92,19.926 -19.93,19.926 -11.01,0 -19.92,-8.922 -19.92,-19.926 0,-11.004 8.91,-19.926 19.92,-19.926 11.01,0 19.93,8.922 19.93,19.926 z" /><path
         id="path70"
         style="fill:#000000;fill-opacity:1;fill-rule:nonzero;stroke:none"
         d="m 2203.86,186.453 c -5.53,-1.031 -7.59,-5.172 -7.59,-8.453 0,-4.141 3.28,-5.531 5.68,-5.531 5.19,0 8.82,4.484 8.82,9.156 0,7.25 -8.3,10.531 -15.55,10.531 -10.53,0 -16.41,-10.359 -17.95,-13.64 -3.97,12.953 -14.69,13.64 -17.8,13.64 -17.61,0 -26.94,-22.625 -26.94,-26.422 0,-0.687 0.69,-1.546 1.91,-1.546 1.37,0 1.72,1.031 2.06,1.718 5.88,19.172 17.45,22.797 22.45,22.797 7.78,0 9.33,-7.25 9.33,-11.39 0,-3.813 -1.03,-7.782 -3.11,-16.063 l -5.87,-23.656 c -2.58,-10.375 -7.6,-19.86 -16.75,-19.86 -0.86,0 -5.17,0 -8.8,2.235 6.2,1.219 7.59,6.39 7.59,8.469 0,3.453 -2.59,5.515 -5.87,5.515 -4.14,0 -8.64,-3.625 -8.64,-9.14 0,-7.266 8.12,-10.547 15.55,-10.547 8.29,0 14.15,6.562 17.79,13.656 2.75,-10.188 11.39,-13.656 17.78,-13.656 17.61,0 26.94,22.625 26.94,26.422 0,0.875 -0.69,1.562 -1.72,1.562 -1.56,0 -1.73,-0.859 -2.25,-2.25 -4.65,-15.187 -14.69,-22.266 -22.45,-22.266 -6.05,0 -9.33,4.485 -9.33,11.563 0,3.797 0.7,6.562 3.45,17.953 l 6.05,23.5 c 2.59,10.359 8.47,17.953 16.41,17.953 0.34,0 5.18,0 8.81,-2.25" /><path
         id="path72"
         style="fill:#000000;fill-opacity:1;fill-rule:nonzero;stroke:none"
         d="m 2258.58,73 v 6.0469 h -16.24 V 239.297 h 16.24 v 6.047 h -22.27 V 73 h 22.27" /><path
         id="path74"
         style="fill:#000000;fill-opacity:1;fill-rule:nonzero;stroke:none"
         d="m 2309.53,231.531 c 0.17,0.688 0.52,1.735 0.52,2.594 0,1.719 -1.74,1.719 -2.08,1.719 -0.17,0 -6.39,-0.516 -9.5,-0.86 -2.94,-0.171 -5.52,-0.515 -8.63,-0.687 -4.15,-0.344 -5.36,-0.516 -5.36,-3.625 0,-1.734 1.74,-1.734 3.46,-1.734 8.81,0 8.81,-1.547 8.81,-3.282 0,-0.687 0,-1.031 -0.86,-4.14 l -24.7,-98.782 c -0.69,-2.593 -0.69,-2.937 -0.69,-3.968 0,-3.797 2.94,-4.5 4.66,-4.5 4.84,0 5.87,3.812 7.25,9.156 l 8.12,32.297 c 12.44,-1.375 19.86,-6.563 19.86,-14.844 0,-1.047 0,-1.734 -0.51,-4.328 -0.69,-2.594 -0.69,-4.656 -0.69,-5.516 0,-10.015 6.56,-16.765 15.36,-16.765 7.95,0 12.09,7.265 13.47,9.672 3.62,6.39 5.87,16.062 5.87,16.75 0,0.875 -0.69,1.562 -1.72,1.562 -1.56,0 -1.73,-0.687 -2.42,-3.453 -2.42,-8.984 -6.05,-21.063 -14.86,-21.063 -3.45,0 -5.69,1.719 -5.69,8.282 0,3.281 0.69,7.078 1.38,9.672 0.69,3.109 0.69,3.281 0.69,5.359 0,10.187 -9.14,15.875 -25.04,17.953 6.22,3.797 12.43,10.531 14.85,13.125 9.84,11.047 16.58,16.578 24.53,16.578 3.97,0 5,-1.031 6.22,-2.078 -6.39,-0.687 -8.81,-5.172 -8.81,-8.625 0,-4.141 3.28,-5.531 5.7,-5.531 4.66,0 8.8,3.969 8.8,9.5 0,5.015 -3.97,10.187 -11.74,10.187 -9.5,0 -17.28,-6.734 -29.53,-20.547 -1.73,-2.078 -8.12,-8.64 -14.52,-11.046 l 17.8,70.968" /><path
         id="path76"
         style="fill:#000000;fill-opacity:1;fill-rule:nonzero;stroke:none"
         d="m 2378.69,245.344 h -22.27 v -6.047 h 16.24 V 79.0469 h -16.24 V 73 h 22.27 v 172.344" /></g></g></svg>
