<?xml version="1.0" encoding="UTF-8" standalone="no"?>
<svg
   xmlns:dc="http://purl.org/dc/elements/1.1/"
   xmlns:cc="http://creativecommons.org/ns#"
   xmlns:rdf="http://www.w3.org/1999/02/22-rdf-syntax-ns#"
   xmlns:svg="http://www.w3.org/2000/svg"
   xmlns="http://www.w3.org/2000/svg"
   viewBox="0 0 277.85333 202.25333"
   height="202.25333"
   width="277.85333"
   xml:space="preserve"
   id="svg2"
   version="1.1"><metadata
     id="metadata8"><rdf:RDF><cc:Work
         rdf:about=""><dc:format>image/svg+xml</dc:format><dc:type
           rdf:resource="http://purl.org/dc/dcmitype/StillImage" /></cc:Work></rdf:RDF></metadata><defs
     id="defs6" /><g
     transform="matrix(1.3333333,0,0,-1.3333333,0,202.25333)"
     id="g10"><g
       transform="scale(0.1)"
       id="g12"><path
         id="path14"
         style="fill:none;stroke:#000000;stroke-width:15.9404;stroke-linecap:butt;stroke-linejoin:miter;stroke-miterlimit:10;stroke-dasharray:none;stroke-opacity:1"
         d="M 191.539,758.457 H 1854.48" /><path
         id="path16"
         style="fill:#000000;fill-opacity:1;fill-rule:nonzero;stroke:none"
         d="m 1892.34,758.457 -60.57,30.285 22.71,-30.285 -22.71,-30.289" /><path
         id="path18"
         style="fill:none;stroke:#000000;stroke-width:15.9404;stroke-linecap:butt;stroke-linejoin:miter;stroke-miterlimit:10;stroke-dasharray:none;stroke-opacity:1"
         d="M 191.539,191.543 V 1287.51" /><path
         id="path20"
         style="fill:#000000;fill-opacity:1;fill-rule:nonzero;stroke:none"
         d="m 191.539,1325.37 -30.285,-60.57 30.285,22.71 30.289,-22.71" /><path
         id="path22"
         style="fill:none;stroke:#db0651;stroke-width:15.9404;stroke-linecap:butt;stroke-linejoin:miter;stroke-miterlimit:10;stroke-dasharray:none;stroke-opacity:1"
         d="m 191.539,512.973 c 0,0 24.578,-25.766 34.016,-30.914 9.441,-5.153 24.578,-7.993 34.015,-6.207 9.442,1.781 24.578,10.503 34.02,19.066 9.437,8.562 24.574,28.066 34.015,42.637 9.438,14.574 24.575,43.113 34.016,62.394 9.438,19.285 24.574,54.317 34.016,76.582 9.437,22.266 24.578,60.637 34.015,83.891 9.438,23.258 24.578,61.558 34.016,83.73 9.441,22.168 24.578,56.957 34.016,76.059 9.441,19.098 24.578,47.277 34.015,61.598 9.442,14.32 24.578,33.351 34.016,41.611 9.441,8.26 24.578,16.46 34.019,17.92 9.438,1.46 24.575,-1.92 34.016,-7.39 9.438,-5.47 24.574,-20.11 34.016,-32.02 9.437,-11.907 24.574,-36.512 34.015,-53.797 9.438,-17.285 24.578,-49.66 34.016,-70.774 9.437,-21.113 24.578,-58.351 34.016,-81.402 9.441,-23.051 24.578,-61.812 34.015,-84.746 9.442,-22.93 24.578,-59.773 34.016,-80.535 9.441,-20.766 24.578,-52.379 34.015,-69.11 9.442,-16.73 24.579,-40.277 34.02,-51.48 9.437,-11.203 24.574,-24.598 34.016,-29.273 9.437,-4.68 24.574,-6.711 34.015,-4.446 9.438,2.266 24.574,11.774 34.02,20.781 9.43,9.012 24.57,29.207 34.01,44.157 9.44,14.949 24.58,44.035 34.02,63.586 9.44,19.55 24.58,54.914 34.01,77.316 9.44,22.398 24.58,60.887 34.02,84.133 9.44,23.25 24.58,61.41 34.02,83.43 9.44,22.019 24.57,56.453 34.01,75.269 9.44,18.82 24.58,46.43 34.02,60.363 9.44,13.934 24.57,32.258 34.01,40.058 9.44,7.81 24.58,15.21 34.02,16.19 9.44,0.98 24.58,-3.2 34.02,-9.14 9.44,-5.94 24.57,-21.33 34.01,-33.655 9.44,-12.324 24.58,-37.558 34.02,-55.164 9.44,-17.605 24.58,-50.414 34.01,-71.726 9.44,-21.313 24.58,-58.77 34.02,-81.883 9.44,-23.113 24.58,-61.852 34.02,-84.699 9.44,-22.844 24.57,-59.422 34.01,-79.961 9.44,-20.539 24.58,-51.668 34.02,-68.059 9.44,-16.39 24.58,-39.3 34.01,-50.078 9.44,-10.777 24.58,-23.406 34.02,-27.609 9.44,-4.199 24.58,-5.426 34.02,-2.676 9.44,2.75 24.57,13.039 34.01,22.492 9.44,9.457 24.58,30.344 34.02,45.664 9.44,15.317 24.58,44.93 34.02,64.739 9.43,19.808 24.57,55.503 34.01,78.027 9.44,22.527 24.58,61.098 34.02,84.328 9.44,23.23 34.01,83.102 34.01,83.102" /><path
         id="path24"
         style="fill:none;stroke:#808080;stroke-width:1.9925;stroke-linecap:butt;stroke-linejoin:miter;stroke-miterlimit:10;stroke-dasharray:none;stroke-opacity:1"
         d="M 606.855,333.273 V 1183.64" /><path
         id="path26"
         style="fill:none;stroke:#808080;stroke-width:1.9925;stroke-linecap:butt;stroke-linejoin:miter;stroke-miterlimit:10;stroke-dasharray:none;stroke-opacity:1"
         d="m 1318.83,1041.91 v 141.73" /><path
         id="path28"
         style="fill:none;stroke:#808080;stroke-width:1.9925;stroke-linecap:butt;stroke-linejoin:miter;stroke-miterlimit:10;stroke-dasharray:none;stroke-opacity:1"
         d="m 1318.83,1041.91 h 257.1" /><path
         id="path30"
         style="fill:none;stroke:#000000;stroke-width:15.9404;stroke-linecap:butt;stroke-linejoin:miter;stroke-miterlimit:10;stroke-dasharray:none;stroke-opacity:1"
         d="m 253.574,389.965 h 291.25" /><path
         id="path32"
         style="fill:#000000;fill-opacity:1;fill-rule:nonzero;stroke:none"
         d="m 214.238,389.965 53.188,-20.207 -17.84,20.207 17.84,20.203 z" /><path
         id="path34"
         style="fill:none;stroke:#000000;stroke-width:15.9404;stroke-linecap:butt;stroke-linejoin:miter;stroke-miterlimit:10;stroke-dasharray:none;stroke-opacity:1"
         d="m 214.238,389.965 53.188,-20.207 -17.84,20.207 17.84,20.203 z" /><path
         id="path36"
         style="fill:#000000;fill-opacity:1;fill-rule:nonzero;stroke:none"
         d="m 584.16,389.965 -53.187,20.203 17.836,-20.203 -17.836,-20.207 z" /><path
         id="path38"
         style="fill:none;stroke:#000000;stroke-width:15.9404;stroke-linecap:butt;stroke-linejoin:miter;stroke-miterlimit:10;stroke-dasharray:none;stroke-opacity:1"
         d="m 584.16,389.965 -53.187,20.203 17.836,-20.203 -17.836,-20.207 z" /><path
         id="path40"
         style="fill:#000000;fill-opacity:1;fill-rule:nonzero;stroke:none"
         d="m 423.266,322.297 c 0,1.547 -1.219,1.547 -1.735,1.547 -1.547,0 -1.734,-0.344 -2.422,-3.281 l -9.328,-37.125 c -0.515,-2.25 -0.687,-2.422 -0.859,-2.594 -0.172,-0.344 -1.375,-0.516 -1.719,-0.516 -28.328,-2.422 -50.094,-25.734 -50.094,-47.312 0,-18.657 14.344,-30.047 32.297,-31.094 -1.375,-5.344 -2.593,-10.875 -3.968,-16.234 -2.422,-9.141 -3.797,-14.844 -3.797,-15.532 0,-0.343 0,-1.39 1.718,-1.39 0.532,0 1.219,0 1.563,0.703 0.344,0.344 1.375,4.484 2.078,6.734 l 6.375,25.719 c 29.531,1.562 51.984,25.734 51.984,47.5 0,17.437 -13.125,29.875 -32.296,31.078 z m -11.235,-45.25 c 11.407,-0.688 22.797,-7.078 22.797,-24 0,-19.516 -13.64,-45.422 -40.578,-47.5 z m -21.75,-71.672 c -8.468,0.531 -22.625,5.016 -22.625,24.016 0,21.75 15.703,45.937 40.578,47.484 l -17.953,-71.5" /><path
         id="path42"
         style="fill:none;stroke:#000000;stroke-width:15.9404;stroke-linecap:butt;stroke-linejoin:miter;stroke-miterlimit:10;stroke-dasharray:none;stroke-opacity:1"
         d="M 668.891,1126.95 H 1256.8" /><path
         id="path44"
         style="fill:#000000;fill-opacity:1;fill-rule:nonzero;stroke:none"
         d="m 629.555,1126.95 53.187,-20.21 -17.836,20.21 17.836,20.21 z" /><path
         id="path46"
         style="fill:none;stroke:#000000;stroke-width:15.9404;stroke-linecap:butt;stroke-linejoin:miter;stroke-miterlimit:10;stroke-dasharray:none;stroke-opacity:1"
         d="m 629.555,1126.95 53.187,-20.21 -17.836,20.21 17.836,20.21 z" /><path
         id="path48"
         style="fill:#000000;fill-opacity:1;fill-rule:nonzero;stroke:none"
         d="m 1296.13,1126.95 -53.18,20.21 17.83,-20.21 -17.83,-20.21 z" /><path
         id="path50"
         style="fill:none;stroke:#000000;stroke-width:15.9404;stroke-linecap:butt;stroke-linejoin:miter;stroke-miterlimit:10;stroke-dasharray:none;stroke-opacity:1"
         d="m 1296.13,1126.95 -53.18,20.21 17.83,-20.21 -17.83,-20.21 z" /><path
         id="path52"
         style="fill:#000000;fill-opacity:1;fill-rule:nonzero;stroke:none"
         d="m 819.016,1357.34 c 1.031,4.14 1.375,5.71 3.968,6.39 1.375,0.35 7.079,0.35 10.704,0.35 17.281,0 25.39,-0.69 25.39,-14.16 0,-2.59 -0.687,-9.15 -1.734,-15.54 l -0.172,-2.08 c 0,-0.69 0.703,-1.72 1.734,-1.72 1.719,0 1.719,0.86 2.25,3.62 l 5,30.57 c 0.344,1.56 0.344,1.9 0.344,2.42 0,1.9 -1.031,1.9 -4.484,1.9 h -94.469 c -3.969,0 -4.141,-0.18 -5.172,-3.28 l -10.547,-31.09 c -0.172,-0.34 -0.687,-2.25 -0.687,-2.42 0,-0.86 0.687,-1.72 1.734,-1.72 1.375,0 1.719,0.69 2.422,2.94 7.25,20.89 10.875,30.56 33.844,30.56 h 11.562 c 4.156,0 5.875,0 5.875,-1.91 0,-0.51 0,-0.86 -0.859,-3.97 l -23.141,-92.73 c -1.734,-6.74 -2.078,-8.45 -20.375,-8.45 -4.328,0 -5.531,0 -5.531,-3.29 0,-1.73 1.906,-1.73 2.766,-1.73 4.312,0 8.796,0.34 13.125,0.34 H 799.5 c 4.313,0 8.984,-0.34 13.297,-0.34 1.906,0 3.625,0 3.625,3.28 0,1.74 -1.203,1.74 -5.703,1.74 -15.531,0 -15.531,1.54 -15.531,4.14 0,0.17 0,1.37 0.687,4.14 l 23.141,92.04" /><path
         id="path54"
         style="fill:#000000;fill-opacity:1;fill-rule:nonzero;stroke:none"
         d="m 1028.05,1307.44 c 2.58,0 5.17,0 5.17,2.94 0,3.1 -2.94,3.1 -5.88,3.1 h -96.527 c -2.938,0 -5.875,0 -5.875,-3.1 0,-2.94 2.593,-2.94 5.187,-2.94 z m -0.71,-30.75 c 2.94,0 5.88,0 5.88,3.11 0,2.93 -2.59,2.93 -5.17,2.93 h -97.925 c -2.594,0 -5.187,0 -5.187,-2.93 0,-3.11 2.937,-3.11 5.875,-3.11 h 96.527" /><path
         id="path56"
         style="fill:#000000;fill-opacity:1;fill-rule:nonzero;stroke:none"
         d="m 1138.33,1396.41 c 0,2.75 0,2.86 -2.38,2.86 -2.87,-3.22 -8.82,-7.63 -21.11,-7.63 v -3.45 c 2.75,0 8.71,0 15.27,3.09 v -62.11 c 0,-4.28 -0.36,-5.72 -10.84,-5.72 h -3.71 V 1320 c 3.22,0.23 14.78,0.23 18.72,0.23 3.94,0 15.38,0 18.6,-0.23 v 3.45 h -3.71 c -10.48,0 -10.84,1.44 -10.84,5.72 v 67.24" /><path
         id="path58"
         style="fill:none;stroke:#000000;stroke-width:3.985;stroke-linecap:butt;stroke-linejoin:miter;stroke-miterlimit:10;stroke-dasharray:none;stroke-opacity:1"
         d="m 1101.04,1295.44 h 65.38" /><path
         id="path60"
         style="fill:#000000;fill-opacity:1;fill-rule:nonzero;stroke:none"
         d="m 1127.22,1244.38 c 0,0.48 -0.34,1.18 -1.31,1.18 -0.83,0 -12.03,-1.06 -13.82,-1.18 -1.31,-0.11 -2.51,-0.24 -2.51,-2.38 0,-1.2 0.95,-1.2 2.62,-1.2 5.61,0 5.97,-0.83 5.97,-2.14 0,-0.49 -0.25,-1.91 -0.36,-2.39 l -10.5,-42.08 c 0,-0.47 0.36,-1.19 1.21,-1.19 h 2.5 c 1.67,0 19.78,4.3 33.73,18.59 15.38,15.86 17.52,30.52 17.52,31 0,1.91 -1.55,2.97 -3.1,2.97 -3.45,0 -4.29,-3.22 -4.53,-4.04 -7.03,-24.91 -23.36,-39.69 -39.22,-44.94 l 11.8,47.8" /><path
         id="path62"
         style="fill:none;stroke:#000000;stroke-width:15.9404;stroke-linecap:butt;stroke-linejoin:miter;stroke-miterlimit:10;stroke-dasharray:none;stroke-opacity:1"
         d="M 1536.38,820.488 V 979.879" /><path
         id="path64"
         style="fill:#000000;fill-opacity:1;fill-rule:nonzero;stroke:none"
         d="m 1536.38,781.156 20.2,53.184 -20.2,-17.836 -20.21,17.836 z" /><path
         id="path66"
         style="fill:none;stroke:#000000;stroke-width:15.9404;stroke-linecap:butt;stroke-linejoin:miter;stroke-miterlimit:10;stroke-dasharray:none;stroke-opacity:1"
         d="m 1536.38,781.156 20.2,53.184 -20.2,-17.836 -20.21,17.836 z" /><path
         id="path68"
         style="fill:#000000;fill-opacity:1;fill-rule:nonzero;stroke:none"
         d="m 1536.38,1019.21 -20.21,-53.183 20.21,17.836 20.2,-17.836 z" /><path
         id="path70"
         style="fill:none;stroke:#000000;stroke-width:15.9404;stroke-linecap:butt;stroke-linejoin:miter;stroke-miterlimit:10;stroke-dasharray:none;stroke-opacity:1"
         d="m 1536.38,1019.21 -20.21,-53.183 20.21,17.836 20.2,-17.836 z" /><path
         id="path72"
         style="fill:#000000;fill-opacity:1;fill-rule:nonzero;stroke:none"
         d="m 1631.36,860.172 c -6.05,-10.188 -11.92,-13.641 -20.2,-14.156 -1.91,-0.188 -3.28,-0.188 -3.28,-3.282 0,-1.046 0.85,-1.734 2.06,-1.734 3.11,0 10.89,0.344 14,0.344 5,0 10.53,-0.344 15.36,-0.344 1.04,0 3.11,0 3.11,3.281 0,1.547 -1.38,1.735 -2.41,1.735 -3.98,0.343 -7.27,1.718 -7.27,5.859 0,2.422 1.05,4.328 3.29,8.125 l 13.12,21.75 h 44.05 c 0.17,-1.547 0.17,-2.937 0.34,-4.484 0.52,-4.485 2.6,-22.453 2.6,-25.735 0,-5.172 -8.82,-5.515 -11.58,-5.515 -1.91,0 -3.8,0 -3.8,-3.11 0,-1.906 1.55,-1.906 2.59,-1.906 2.94,0 6.39,0.344 9.33,0.344 h 9.83 c 10.55,0 18.14,-0.344 18.31,-0.344 1.21,0 3.11,0 3.11,3.281 0,1.735 -1.54,1.735 -4.14,1.735 -9.5,0 -9.67,1.547 -10.19,6.734 l -10.54,107.75 c -0.35,3.453 -1.03,3.797 -2.92,3.797 -1.74,0 -2.77,-0.344 -4.33,-2.922 z m 20.72,26.594 34.72,58.015 5.87,-58.015 z" /><path
         id="path74"
         style="fill:#000000;fill-opacity:1;fill-rule:nonzero;stroke:none"
         d="m 1799.72,894.422 h 15.87 c 3.29,0 5.02,0 5.02,3.109 0,1.907 -1.03,1.907 -4.48,1.907 h -15.21 l 6.39,25.203 c 0.69,2.422 0.69,2.765 0.69,3.968 0,2.766 -2.25,4.329 -4.48,4.329 -1.39,0 -5.36,-0.516 -6.74,-6.047 l -6.73,-27.453 h -16.24 c -3.45,0 -5.01,0 -5.01,-3.282 0,-1.734 1.22,-1.734 4.5,-1.734 h 15.36 l -11.39,-45.594 c -1.39,-6.047 -1.91,-7.765 -1.91,-10.015 0,-8.11 5.7,-15.547 15.37,-15.547 17.44,0 26.77,25.218 26.77,26.422 0,1.046 -0.69,1.562 -1.73,1.562 -0.35,0 -1.04,0 -1.38,-0.687 -0.17,-0.172 -0.34,-0.344 -1.55,-3.11 -3.64,-8.64 -11.57,-20.719 -21.59,-20.719 -5.19,0 -5.53,4.313 -5.53,8.11 0,0.172 0,3.453 0.51,5.531 l 13.49,54.047" /></g></g></svg>
