<?xml version="1.0" encoding="UTF-8" standalone="no"?>
<svg
   xmlns:dc="http://purl.org/dc/elements/1.1/"
   xmlns:cc="http://creativecommons.org/ns#"
   xmlns:rdf="http://www.w3.org/1999/02/22-rdf-syntax-ns#"
   xmlns:svg="http://www.w3.org/2000/svg"
   xmlns="http://www.w3.org/2000/svg"
   id="svg30"
   version="1.2"
   viewBox="0 0 208.39 151.69"
   height="151.69pt"
   width="208.39pt">
  <metadata
     id="metadata34">
    <rdf:RDF>
      <cc:Work
         rdf:about="">
        <dc:format>image/svg+xml</dc:format>
        <dc:type
           rdf:resource="http://purl.org/dc/dcmitype/StillImage" />
      </cc:Work>
    </rdf:RDF>
  </metadata>
  <defs
     id="defs5">
    <clipPath
       id="clip1">
      <path
         id="path2"
         d="M 19.15625 26 L 189.234375 26 L 189.234375 132.535156 L 19.15625 132.535156 Z M 19.15625 26 " />
    </clipPath>
  </defs>
  <g
     id="surface1">
    <path
       id="path7"
       transform="matrix(0.1,0,0,-0.1,0,151.69)"
       d="M 191.5625 758.4625 L 1854.492188 758.4625 "
       style="fill:none;stroke-width:15.9404;stroke-linecap:butt;stroke-linejoin:miter;stroke:rgb(0%,0%,0%);stroke-opacity:1;stroke-miterlimit:10;" />
    <path
       id="path9"
       d="M 189.234375 75.84375 L 183.179688 72.816406 L 185.449219 75.84375 L 183.179688 78.871094 "
       style=" stroke:none;fill-rule:nonzero;fill:rgb(0%,0%,0%);fill-opacity:1;" />
    <path
       id="path11"
       transform="matrix(0.1,0,0,-0.1,0,151.69)"
       d="M 191.5625 191.548438 L 191.5625 1287.525 "
       style="fill:none;stroke-width:15.9404;stroke-linecap:butt;stroke-linejoin:miter;stroke:rgb(0%,0%,0%);stroke-opacity:1;stroke-miterlimit:10;" />
    <path
       id="path13"
       d="M 19.15625 19.152344 L 16.125 25.210938 L 19.15625 22.9375 L 22.183594 25.210938 "
       style=" stroke:none;fill-rule:nonzero;fill:rgb(0%,0%,0%);fill-opacity:1;" />
    <g
       id="g17"
       clip-rule="nonzero"
       clip-path="url(#clip1)">
      <path
         id="path15"
         transform="matrix(0.1,0,0,-0.1,0,151.69)"
         d="M 82.96875 439.321875 C 82.96875 439.321875 109.140625 419.790625 119.179688 419.478125 C 129.21875 419.204688 145.3125 428.4625 155.351563 437.173438 C 165.390625 445.923438 181.484375 466.665625 191.5625 482.407813 C 201.601563 498.15 217.695313 528.892188 227.734375 550.65 C 237.773438 572.407813 253.867188 613.032813 263.90625 639.24375 C 273.945313 665.454688 290.078125 712.525 300.117188 739.55625 C 310.15625 766.5875 326.25 811.470313 336.289063 834.048438 C 346.328125 856.665625 362.421875 888.61875 372.460938 902.407813 C 382.539063 916.196875 398.632813 929.048438 408.671875 933.501563 C 418.710938 937.915625 434.804688 935.18125 444.84375 934.282813 C 454.882813 933.384375 471.015625 926.9 481.054688 927.017188 C 491.09375 927.134375 507.1875 929.634375 517.226563 935.103125 C 527.265625 940.571875 543.359375 956.665625 553.4375 966.43125 C 563.476563 976.196875 579.570313 997.915625 589.609375 1005.49375 C 599.648438 1013.032813 615.742188 1023.892188 625.78125 1021.040625 C 635.820313 1018.15 651.953125 1003.071875 661.992188 984.751563 C 672.03125 966.470313 688.125 921.314063 698.164063 889.165625 C 708.203125 857.017188 724.296875 791.548438 734.335938 753.15 C 744.414063 714.7125 760.507813 647.251563 770.546875 612.2125 C 780.585938 577.173438 796.679688 524.985938 806.71875 500.571875 C 816.757813 476.196875 832.890625 447.720313 842.929688 436.509375 C 852.96875 425.259375 869.0625 419.24375 879.101563 419.634375 C 889.140625 420.064063 905.273438 430.259375 915.3125 439.517188 C 925.351563 448.775 941.445313 470.220313 951.484375 486.43125 C 961.523438 502.603125 977.617188 534.0875 987.65625 556.196875 C 997.695313 578.345313 1013.828125 619.55625 1023.867188 646.001563 C 1033.90625 672.407813 1050 719.634375 1060.039063 746.548438 C 1070.078125 773.4625 1086.171875 817.759375 1096.210938 839.86875 C 1106.289063 861.978125 1122.382813 892.68125 1132.421875 905.80625 C 1142.460938 918.892188 1158.554688 930.454688 1168.59375 934.321875 C 1178.632813 938.228125 1194.765625 934.751563 1204.804688 933.735938 C 1214.84375 932.68125 1230.9375 926.470313 1240.976563 926.860938 C 1251.015625 927.251563 1267.148438 930.689063 1277.1875 936.5875 C 1287.226563 942.446875 1303.320313 959.321875 1313.359375 969.204688 C 1323.398438 979.0875 1339.492188 1000.610938 1349.53125 1007.720313 C 1359.609375 1014.829688 1375.703125 1024.282813 1385.742188 1020.415625 C 1395.78125 1016.5875 1411.875 999.360938 1421.914063 979.946875 C 1431.953125 960.571875 1448.085938 913.540625 1458.125 880.65 C 1468.164063 847.798438 1484.257813 781.548438 1494.296875 743.032813 C 1504.335938 704.55625 1520.429688 637.68125 1530.46875 603.189063 C 1540.507813 568.696875 1556.640625 517.99375 1566.679688 494.517188 C 1576.71875 471.040625 1592.8125 444.24375 1602.851563 433.892188 C 1612.890625 423.540625 1628.984375 418.853125 1639.0625 419.985938 C 1649.101563 421.079688 1665.195313 432.173438 1675.234375 441.978125 C 1685.273438 451.782813 1701.367188 473.93125 1711.40625 490.571875 C 1721.445313 507.2125 1737.578125 539.360938 1747.617188 561.860938 C 1757.65625 584.360938 1773.75 626.196875 1783.789063 652.798438 C 1793.828125 679.4 1809.921875 726.782813 1819.960938 753.540625 C 1830.039063 780.259375 1846.132813 823.970313 1856.171875 845.532813 C 1866.210938 867.095313 1892.34375 909.009375 1892.34375 909.009375 "
         style="fill:none;stroke-width:15.9404;stroke-linecap:butt;stroke-linejoin:miter;stroke:rgb(0%,61.131287%,50.976563%);stroke-opacity:1;stroke-miterlimit:10;" />
    </g>
    <path
       id="path19"
       d="M 179.972656 62.246094 L 181.558594 62.246094 C 181.886719 62.246094 182.0625 62.246094 182.0625 61.9375 C 182.0625 61.746094 181.957031 61.746094 181.613281 61.746094 L 180.09375 61.746094 L 180.730469 59.226563 C 180.800781 58.984375 180.800781 58.949219 180.800781 58.828125 C 180.800781 58.550781 180.574219 58.394531 180.351563 58.394531 C 180.214844 58.394531 179.816406 58.449219 179.679688 59 L 179.003906 61.746094 L 177.382813 61.746094 C 177.035156 61.746094 176.878906 61.746094 176.878906 62.074219 C 176.878906 62.246094 177.003906 62.246094 177.328125 62.246094 L 178.867188 62.246094 L 177.726563 66.808594 C 177.589844 67.410156 177.535156 67.582031 177.535156 67.808594 C 177.535156 68.621094 178.105469 69.363281 179.074219 69.363281 C 180.816406 69.363281 181.75 66.839844 181.75 66.722656 C 181.75 66.617188 181.679688 66.566406 181.578125 66.566406 C 181.542969 66.566406 181.472656 66.566406 181.4375 66.632813 C 181.421875 66.652344 181.40625 66.667969 181.285156 66.945313 C 180.921875 67.808594 180.128906 69.015625 179.125 69.015625 C 178.605469 69.015625 178.570313 68.585938 178.570313 68.207031 C 178.570313 68.1875 178.570313 67.859375 178.621094 67.652344 L 179.972656 62.246094 "
       style=" stroke:none;fill-rule:nonzero;fill:rgb(0%,0%,0%);fill-opacity:1;" />
    <path
       id="path21"
       d="M 33.5 31.746094 C 33.847656 31.746094 33.984375 31.746094 33.984375 31.421875 C 33.984375 31.246094 33.847656 31.246094 33.535156 31.246094 L 32.136719 31.246094 C 32.464844 29.46875 32.707031 28.242188 32.84375 27.691406 C 32.949219 27.273438 33.3125 26.878906 33.761719 26.878906 C 34.125 26.878906 34.484375 27.035156 34.660156 27.1875 C 33.984375 27.257813 33.777344 27.757813 33.777344 28.050781 C 33.777344 28.398438 34.039063 28.605469 34.367188 28.605469 C 34.710938 28.605469 35.230469 28.3125 35.230469 27.65625 C 35.230469 26.929688 34.503906 26.53125 33.742188 26.53125 C 33 26.53125 32.277344 27.085938 31.929688 27.757813 C 31.621094 28.363281 31.445313 28.984375 31.050781 31.246094 L 29.890625 31.246094 C 29.5625 31.246094 29.390625 31.246094 29.390625 31.558594 C 29.390625 31.746094 29.496094 31.746094 29.839844 31.746094 L 30.945313 31.746094 C 30.636719 33.355469 29.929688 37.257813 29.53125 39.105469 C 29.234375 40.605469 28.976563 41.867188 28.113281 41.867188 C 28.0625 41.867188 27.5625 41.867188 27.25 41.539063 C 28.132813 41.46875 28.132813 40.710938 28.132813 40.691406 C 28.132813 40.347656 27.871094 40.140625 27.542969 40.140625 C 27.199219 40.140625 26.679688 40.433594 26.679688 41.089844 C 26.679688 41.835938 27.441406 42.214844 28.113281 42.214844 C 29.875 42.214844 30.601563 39.050781 30.789063 38.1875 C 31.101563 36.859375 31.949219 32.265625 32.035156 31.746094 L 33.5 31.746094 "
       style=" stroke:none;fill-rule:nonzero;fill:rgb(0%,0%,0%);fill-opacity:1;" />
    <path
       id="path23"
       d="M 41.183594 42.902344 C 41.183594 42.886719 41.183594 42.851563 41.132813 42.800781 C 40.335938 41.988281 38.214844 39.777344 38.214844 34.390625 C 38.214844 29.003906 40.304688 26.808594 41.148438 25.945313 C 41.148438 25.925781 41.183594 25.894531 41.183594 25.84375 C 41.183594 25.789063 41.132813 25.757813 41.0625 25.757813 C 40.875 25.757813 39.40625 27.035156 38.558594 28.933594 C 37.695313 30.847656 37.453125 32.714844 37.453125 34.371094 C 37.453125 35.617188 37.574219 37.722656 38.609375 39.949219 C 39.441406 41.746094 40.855469 43.007813 41.0625 43.007813 C 41.148438 43.007813 41.183594 42.972656 41.183594 42.902344 "
       style=" stroke:none;fill-rule:nonzero;fill:rgb(0%,0%,0%);fill-opacity:1;" />
    <path
       id="path25"
       d="M 45.472656 31.746094 L 47.058594 31.746094 C 47.386719 31.746094 47.5625 31.746094 47.5625 31.4375 C 47.5625 31.246094 47.457031 31.246094 47.113281 31.246094 L 45.59375 31.246094 L 46.230469 28.726563 C 46.300781 28.484375 46.300781 28.449219 46.300781 28.328125 C 46.300781 28.050781 46.074219 27.894531 45.851563 27.894531 C 45.710938 27.894531 45.316406 27.949219 45.179688 28.5 L 44.503906 31.246094 L 42.882813 31.246094 C 42.535156 31.246094 42.378906 31.246094 42.378906 31.574219 C 42.378906 31.746094 42.5 31.746094 42.828125 31.746094 L 44.367188 31.746094 L 43.226563 36.308594 C 43.085938 36.910156 43.035156 37.085938 43.035156 37.308594 C 43.035156 38.121094 43.605469 38.863281 44.574219 38.863281 C 46.316406 38.863281 47.25 36.34375 47.25 36.222656 C 47.25 36.117188 47.179688 36.066406 47.078125 36.066406 C 47.042969 36.066406 46.972656 36.066406 46.9375 36.132813 C 46.921875 36.152344 46.90625 36.167969 46.785156 36.445313 C 46.421875 37.308594 45.625 38.515625 44.625 38.515625 C 44.105469 38.515625 44.070313 38.085938 44.070313 37.707031 C 44.070313 37.6875 44.070313 37.359375 44.125 37.152344 L 45.472656 31.746094 "
       style=" stroke:none;fill-rule:nonzero;fill:rgb(0%,0%,0%);fill-opacity:1;" />
    <path
       id="path27"
       d="M 52.640625 34.390625 C 52.640625 33.144531 52.519531 31.039063 51.484375 28.8125 C 50.65625 27.015625 49.238281 25.757813 49.03125 25.757813 C 48.980469 25.757813 48.910156 25.773438 48.910156 25.859375 C 48.910156 25.894531 48.929688 25.910156 48.945313 25.945313 C 49.773438 26.808594 51.882813 29.003906 51.882813 34.371094 C 51.882813 39.761719 49.792969 41.953125 48.945313 42.816406 C 48.929688 42.851563 48.910156 42.871094 48.910156 42.902344 C 48.910156 42.988281 48.980469 43.007813 49.03125 43.007813 C 49.222656 43.007813 50.691406 41.730469 51.535156 39.828125 C 52.398438 37.914063 52.640625 36.046875 52.640625 34.390625 "
       style=" stroke:none;fill-rule:nonzero;fill:rgb(0%,0%,0%);fill-opacity:1;" />
  </g>
</svg>
