<?xml version="1.0" encoding="UTF-8" standalone="no"?>
<svg
   xmlns:dc="http://purl.org/dc/elements/1.1/"
   xmlns:cc="http://creativecommons.org/ns#"
   xmlns:rdf="http://www.w3.org/1999/02/22-rdf-syntax-ns#"
   xmlns:svg="http://www.w3.org/2000/svg"
   xmlns="http://www.w3.org/2000/svg"
   viewBox="0 0 277.85333 202.25333"
   height="202.25333"
   width="277.85333"
   xml:space="preserve"
   id="svg2"
   version="1.1"><metadata
     id="metadata8"><rdf:RDF><cc:Work
         rdf:about=""><dc:format>image/svg+xml</dc:format><dc:type
           rdf:resource="http://purl.org/dc/dcmitype/StillImage" /></cc:Work></rdf:RDF></metadata><defs
     id="defs6" /><g
     transform="matrix(1.3333333,0,0,-1.3333333,0,202.25333)"
     id="g10"><g
       transform="scale(0.1)"
       id="g12"><path
         id="path14"
         style="fill:none;stroke:#000000;stroke-width:15.9404;stroke-linecap:butt;stroke-linejoin:miter;stroke-miterlimit:10;stroke-dasharray:none;stroke-opacity:1"
         d="M 191.539,758.457 H 1854.48" /><path
         id="path16"
         style="fill:#000000;fill-opacity:1;fill-rule:nonzero;stroke:none"
         d="m 1892.34,758.457 -60.57,30.285 22.71,-30.285 -22.71,-30.289" /><path
         id="path18"
         style="fill:none;stroke:#000000;stroke-width:15.9404;stroke-linecap:butt;stroke-linejoin:miter;stroke-miterlimit:10;stroke-dasharray:none;stroke-opacity:1"
         d="M 191.539,191.543 V 1287.51" /><path
         id="path20"
         style="fill:#000000;fill-opacity:1;fill-rule:nonzero;stroke:none"
         d="m 191.539,1325.37 -30.285,-60.57 30.285,22.71 30.289,-22.71" /><path
         id="path22"
         style="fill:none;stroke:#85cee4;stroke-width:15.9404;stroke-linecap:butt;stroke-linejoin:miter;stroke-miterlimit:10;stroke-dasharray:none;stroke-opacity:1"
         d="m 191.539,832.102 c 0,0 24.578,-24.883 34.016,-36.907 9.441,-12.023 24.578,-36.57 34.015,-49.746 9.442,-13.172 24.578,-35.484 34.02,-45.199 9.437,-9.719 24.574,-21.98 34.015,-24.844 9.438,-2.863 24.575,-0.789 34.016,4.203 9.438,4.996 24.574,20.684 34.016,31.789 9.437,11.102 24.578,34.911 34.015,48.239 9.438,13.332 24.578,36.937 34.016,47.832 9.441,10.894 24.578,26.039 34.016,30.687 9.441,4.649 24.578,6.035 34.015,2.813 9.442,-3.227 24.578,-16.086 34.016,-26.055 9.441,-9.969 24.578,-32.57 34.019,-45.793 9.438,-13.226 24.575,-37.668 34.016,-49.527 9.438,-11.856 24.574,-29.59 34.016,-35.934 9.437,-6.34 24.574,-11.168 34.015,-9.773 9.438,1.39 24.578,11.168 34.016,19.808 9.437,8.641 24.578,29.594 34.016,42.457 9.441,12.864 24.578,37.668 34.015,50.258 9.442,12.59 24.578,32.57 34.016,40.481 9.441,7.914 24.578,16.082 34.015,16.547 9.442,0.468 24.579,-6.036 34.02,-13.18 9.437,-7.141 24.574,-26.043 34.016,-38.293 9.437,-12.254 24.574,-36.934 34.015,-50.012 9.438,-13.078 24.574,-34.91 34.02,-44.242 9.43,-9.328 24.57,-20.68 34.01,-22.996 9.44,-2.317 24.58,0.793 34.02,6.297 9.44,5.508 24.58,21.98 34.01,33.379 9.44,11.402 24.58,35.484 34.02,48.793 9.44,13.312 24.58,36.574 34.02,47.14 9.44,10.563 24.57,24.879 34.01,29 9.44,4.121 24.58,4.473 34.02,0.711 9.44,-3.762 24.57,-17.492 34.01,-27.824 9.44,-10.328 24.58,-33.336 34.02,-46.621 9.44,-13.281 24.58,-37.524 34.02,-49.117 9.44,-11.594 24.57,-28.59 34.01,-34.438 9.44,-5.847 24.58,-9.648 34.02,-7.703 9.44,1.945 24.58,12.664 34.01,21.719 9.44,9.054 24.58,30.547 34.02,43.543 9.44,13 24.58,37.746 34.02,50.14 9.44,12.399 24.57,31.75 34.01,39.207 9.44,7.457 24.58,14.637 34.02,14.547 9.44,-0.09 24.58,-7.586 34.01,-15.191 9.44,-7.606 24.58,-27.16 34.02,-39.621 9.44,-12.461 24.58,-37.231 34.02,-50.188 9.44,-12.957 24.57,-34.281 34.01,-43.207 9.44,-8.922 24.58,-19.34 34.02,-21.105 9.44,-1.77 24.58,2.363 34.02,8.367 9.43,6.008 24.57,23.242 34.01,34.922 9.44,11.68 24.58,35.988 34.02,49.258 9.44,13.269 34.01,46.371 34.01,46.371" /><path
         id="path24"
         style="fill:#000000;fill-opacity:1;fill-rule:nonzero;stroke:none"
         d="m 1799.72,894.422 h 15.87 c 3.29,0 5.02,0 5.02,3.109 0,1.907 -1.03,1.907 -4.48,1.907 h -15.21 l 6.39,25.203 c 0.69,2.422 0.69,2.765 0.69,3.968 0,2.766 -2.25,4.329 -4.48,4.329 -1.39,0 -5.36,-0.516 -6.74,-6.047 l -6.73,-27.453 h -16.24 c -3.45,0 -5.01,0 -5.01,-3.282 0,-1.734 1.22,-1.734 4.5,-1.734 h 15.36 l -11.39,-45.594 c -1.39,-6.047 -1.91,-7.765 -1.91,-10.015 0,-8.11 5.7,-15.547 15.37,-15.547 17.44,0 26.77,25.218 26.77,26.422 0,1.046 -0.69,1.562 -1.73,1.562 -0.35,0 -1.04,0 -1.38,-0.687 -0.17,-0.172 -0.34,-0.344 -1.55,-3.11 -3.64,-8.64 -11.57,-20.719 -21.59,-20.719 -5.19,0 -5.53,4.313 -5.53,8.11 0,0.172 0,3.453 0.51,5.531 l 13.49,54.047" /></g></g></svg>
