<?xml version="1.0" encoding="UTF-8" standalone="no"?>
<svg
   xmlns:dc="http://purl.org/dc/elements/1.1/"
   xmlns:cc="http://creativecommons.org/ns#"
   xmlns:rdf="http://www.w3.org/1999/02/22-rdf-syntax-ns#"
   xmlns:svg="http://www.w3.org/2000/svg"
   xmlns="http://www.w3.org/2000/svg"
   viewBox="0 0 353.44 202.25333"
   height="202.25333"
   width="353.44"
   xml:space="preserve"
   id="svg2"
   version="1.1"><metadata
     id="metadata8"><rdf:RDF><cc:Work
         rdf:about=""><dc:format>image/svg+xml</dc:format><dc:type
           rdf:resource="http://purl.org/dc/dcmitype/StillImage" /></cc:Work></rdf:RDF></metadata><defs
     id="defs6"><clipPath
       id="clipPath44"
       clipPathUnits="userSpaceOnUse"><path
         id="path42"
         d="m 49.8086,49.8086 h 2551.14 v 1417.34 H 49.8086 Z" /></clipPath></defs><g
     transform="matrix(1.3333333,0,0,-1.3333333,0,202.25333)"
     id="g10"><g
       transform="scale(0.1)"
       id="g12"><path
         id="path14"
         style="fill:none;stroke:#808080;stroke-width:1.9925;stroke-linecap:butt;stroke-linejoin:miter;stroke-miterlimit:10;stroke-dasharray:none;stroke-opacity:1"
         d="m 2282.05,264.773 v 42.516" /><path
         id="path16"
         style="fill:none;stroke:#808080;stroke-width:1.9925;stroke-linecap:butt;stroke-linejoin:miter;stroke-miterlimit:10;stroke-dasharray:none;stroke-opacity:1"
         d="m 666.336,758.477 h 42.516" /><path
         id="path18"
         style="fill:none;stroke:#000000;stroke-width:9.9628;stroke-linecap:butt;stroke-linejoin:miter;stroke-miterlimit:10;stroke-dasharray:none;stroke-opacity:1"
         d="M 49.8086,286.031 H 2572.05" /><path
         id="path20"
         style="fill:#000000;fill-opacity:1;fill-rule:nonzero;stroke:none"
         d="m 2600.95,286.031 -46.23,23.114 17.33,-23.114 -17.33,-23.113" /><path
         id="path22"
         style="fill:none;stroke:#000000;stroke-width:9.9628;stroke-linecap:butt;stroke-linejoin:miter;stroke-miterlimit:10;stroke-dasharray:none;stroke-opacity:1"
         d="M 687.594,49.8086 V 1438.25" /><path
         id="path24"
         style="fill:#000000;fill-opacity:1;fill-rule:nonzero;stroke:none"
         d="m 687.594,1467.15 -23.114,-46.23 23.114,17.33 23.113,-17.33" /><path
         id="path26"
         style="fill:#000000;fill-opacity:1;fill-rule:nonzero;stroke:none"
         d="m 2130.69,185.031 c 1.72,-0.703 8.81,-2.937 16.06,-2.937 16.06,0 24.86,8.625 29.88,13.64 0,1.375 0,2.25 -1.04,2.25 -0.17,0 -0.53,0 -1.9,-0.703 -6.05,-2.578 -13.13,-4.656 -21.77,-4.656 -5.17,0 -12.95,0.688 -21.4,4.484 -1.91,0.875 -2.25,0.875 -2.43,0.875 -0.86,0 -1.03,-0.171 -1.03,-3.64 v -50.078 c 0,-3.11 0,-3.969 1.72,-3.969 0.88,0 1.22,0.344 2.08,1.562 5.53,7.766 13.12,11.047 21.77,11.047 6.03,0 18.98,-3.797 18.98,-33.328 0,-5.531 0,-15.547 -5.17,-23.4842 -4.31,-7.0782 -11.06,-10.7188 -18.49,-10.7188 -11.39,0 -22.97,7.9531 -26.07,21.25 0.7,-0.172 2.07,-0.516 2.76,-0.516 2.25,0 6.56,1.204 6.56,6.563 0,4.656 -3.28,6.562 -6.56,6.562 -3.97,0 -6.56,-2.421 -6.56,-7.265 0,-15.0159 11.92,-30.7346 30.22,-30.7346 17.79,0 34.72,15.375 34.72,37.6566 0,20.718 -13.47,36.781 -30.22,36.781 -8.82,0 -16.24,-3.281 -22.11,-9.5 v 38.859" /><path
         id="path28"
         style="fill:#000000;fill-opacity:1;fill-rule:nonzero;stroke:none"
         d="m 2253.55,190.203 c 1.56,6.391 2.25,6.735 8.98,6.735 h 12.44 c 14.84,0 25.91,-4.485 25.91,-17.954 0,-8.812 -4.5,-34.203 -39.21,-34.203 h -19.51 z m 24.01,-47.484 c 21.41,4.656 38.16,18.469 38.16,33.328 0,13.469 -13.64,25.906 -37.64,25.906 h -46.8 c -3.47,0 -5.01,0 -5.01,-3.281 0,-1.734 1.2,-1.734 4.48,-1.734 10.38,0 10.38,-1.375 10.38,-3.282 0,-0.343 0,-1.375 -0.71,-3.968 l -23.31,-92.9067 c -1.55,-6.0469 -1.89,-7.7657 -13.81,-7.7657 -3.97,0 -5.19,0 -5.19,-3.2812 0,-1.7344 1.91,-1.7344 2.42,-1.7344 3.11,0 6.74,0.3438 10.02,0.3438 h 20.37 c 3.11,0 6.74,-0.3438 9.85,-0.3438 1.39,0 3.28,0 3.28,3.2813 0,1.7343 -1.55,1.7343 -4.14,1.7343 -10.53,0 -10.53,1.375 -10.53,3.0938 0,0.1875 0,1.3906 0.34,2.7656 l 11.58,46.453 h 20.72 c 16.4,0 19.51,-10.359 19.51,-16.047 0,-2.593 -1.73,-9.328 -2.94,-13.828 -1.9,-7.937 -2.42,-9.844 -2.42,-13.1249 0,-12.25 10.02,-17.9531 21.6,-17.9531 13.98,0 20.03,17.0938 20.03,19.5156 0,1.2034 -0.86,1.7184 -1.91,1.7184 -1.37,0 -1.72,-1.031 -2.06,-2.4059 -4.16,-12.2656 -11.24,-15.375 -15.55,-15.375 -4.31,0 -7.08,1.9063 -7.08,9.6719 0,4.1406 2.07,19.859 2.24,20.719 0.87,6.39 0.87,7.078 0.87,8.469 0,12.609 -10.18,17.953 -16.75,20.031" /><path
         id="path30"
         style="fill:#000000;fill-opacity:1;fill-rule:nonzero;stroke:none"
         d="m 2449,204.016 c 0,1.562 -1.2,1.562 -1.55,1.562 -0.34,0 -1.04,0 -2.42,-1.734 l -11.92,-14.5 c -6.05,10.359 -15.53,16.234 -28.48,16.234 -37.32,0 -75.99,-37.828 -75.99,-78.406 0,-28.8439 20.2,-46.797 45.41,-46.797 13.83,0 25.9,5.875 35.92,14.3281 15.03,12.6099 19.51,29.3599 19.51,30.7499 0,1.547 -1.37,1.547 -1.89,1.547 -1.56,0 -1.73,-1.031 -2.07,-1.719 -7.94,-26.9529 -31.25,-39.906 -48.54,-39.906 -18.29,0 -34.18,11.75 -34.18,36.266 0,5.531 1.72,35.578 21.23,58.203 9.5,11.047 25.74,20.719 42.14,20.719 19,0 27.46,-15.704 27.46,-33.329 0,-4.484 -0.52,-8.281 -0.52,-8.968 0,-1.563 1.73,-1.563 2.25,-1.563 1.91,0 2.08,0.172 2.77,3.281 l 10.87,44.032" /><path
         id="path32"
         style="fill:#000000;fill-opacity:1;fill-rule:nonzero;stroke:none"
         d="m 550.328,860.406 c 0,2.75 0,2.86 -2.375,2.86 -2.875,-3.219 -8.828,-7.625 -21.109,-7.625 v -3.453 c 2.75,0 8.703,0 15.265,3.093 v -62.109 c 0,-4.281 -0.359,-5.719 -10.843,-5.719 h -3.703 V 784 c 3.218,0.234 14.781,0.234 18.718,0.234 3.938,0 15.375,0 18.594,-0.234 v 3.453 h -3.703 c -10.484,0 -10.844,1.438 -10.844,5.719 v 67.234" /><path
         id="path34"
         style="fill:none;stroke:#000000;stroke-width:3.985;stroke-linecap:butt;stroke-linejoin:miter;stroke-miterlimit:10;stroke-dasharray:none;stroke-opacity:1"
         d="m 498.961,758.789 h 92.328" /><path
         id="path36"
         style="fill:#000000;fill-opacity:1;fill-rule:nonzero;stroke:none"
         d="m 588.047,738.844 c 0,1.078 -0.828,1.078 -1.078,1.078 -0.235,0 -0.719,0 -1.672,-1.188 l -8.219,-10.015 c -4.172,7.14 -10.734,11.203 -19.672,11.203 -25.75,0 -52.453,-26.109 -52.453,-54.125 0,-19.906 13.953,-32.297 31.36,-32.297 9.531,0 17.875,4.047 24.796,9.891 10.36,8.703 13.469,20.265 13.469,21.218 0,1.079 -0.953,1.079 -1.312,1.079 -1.078,0 -1.188,-0.719 -1.438,-1.204 -5.484,-18.593 -21.562,-27.531 -33.484,-27.531 -12.641,0 -23.61,8.11 -23.61,25.031 0,3.813 1.188,24.563 14.657,40.172 6.562,7.625 17.765,14.313 29.093,14.313 13.11,0 18.954,-10.86 18.954,-23.016 0,-3.094 -0.36,-5.719 -0.36,-6.187 0,-1.078 1.188,-1.078 1.547,-1.078 1.313,0 1.438,0.109 1.906,2.265 l 7.516,30.391" /><g
         id="g38"><g
           clip-path="url(#clipPath44)"
           id="g40"><path
             id="path46"
             style="fill:none;stroke:#db0651;stroke-width:29.8883;stroke-linecap:round;stroke-linejoin:round;stroke-miterlimit:10;stroke-dasharray:29.8883, 59.7766;stroke-dashoffset:0;stroke-opacity:1"
             d="m 49.8086,3776.92 51.0234,-516.24 51.023,-439.83 51.024,-374.77 51.019,-319.38 51.024,-272.16 51.023,-231.92 51.02,-197.62 51.023,-168.4 51.024,-143.49 51.023,-122.294 51.02,-104.207 51.023,-88.789 51.024,-75.574 51.019,-64.5 51.024,-54.961 51.023,-46.832 51.023,-39.926 51.02,-33.984 51.019,-29.008 51.03,-24.672 51.02,-21.078 51.02,-17.906 51.02,-15.313 51.03,-12.996 51.02,-11.105 51.02,-9.449 51.02,-8.055 51.03,-6.867 51.02,-5.848 51.02,-4.984 51.02,-4.25 51.03,-3.621 51.02,-3.082 51.02,-2.629 51.02,-2.242 51.02,-1.907 51.03,-1.629 51.02,-1.382 51.02,-1.184 51.02,-1.004 51.03,-0.859 51.02,-0.731 51.02,-0.621 51.02,-0.531 51.03,-0.453 51.02,-0.387 51.02,-0.328 51.02,-0.277 51.03,-0.239 51.02,-0.207" /><path
             id="path48"
             style="fill:none;stroke:#009c82;stroke-width:17.9329;stroke-linecap:round;stroke-linejoin:round;stroke-miterlimit:10;stroke-dasharray:none;stroke-opacity:1"
             d="M 49.8086,286.031 H 687.594 v 472.446" /><path
             id="path50"
             style="fill:none;stroke:#009c82;stroke-width:17.9329;stroke-linecap:round;stroke-linejoin:round;stroke-miterlimit:10;stroke-dasharray:none;stroke-opacity:1"
             d="m 687.594,758.477 38.265,-53.329 38.27,-47.402 38.266,-42.066 38.265,-37.235 38.27,-33.078 38.265,-29.34 38.27,-25.996 38.265,-23.062 38.27,-20.457 38.27,-18.149 38.26,-16.121 38.27,-14.265 38.27,-12.668 38.26,-11.243 38.27,-9.925 38.27,-8.84 38.26,-7.844 38.27,-6.941 38.27,-6.192 38.26,-5.433 38.27,-4.848 38.27,-4.301 38.26,-3.812 38.27,-3.379 38.27,-3 38.27,-2.66 38.26,-2.36 38.27,-2.09 38.27,-1.855 38.27,-1.648 38.26,-1.458 38.27,-1.296 38.27,-1.149 38.26,-1.015 38.27,-0.907 38.27,-0.8 38.26,-0.711 38.27,-0.629 38.27,-0.559 38.26,-0.496 38.27,-0.441 38.27,-0.387 38.27,-0.348 38.26,-0.304 38.27,-0.274 38.27,-0.242 38.26,-0.215 38.27,-0.187 38.27,-0.168 38.27,-0.153" /><path
             id="path52"
             style="fill:#000000;fill-opacity:1;fill-rule:nonzero;stroke:none"
             d="m 618.531,167.438 c 0,10.531 -0.172,28.484 -7.422,42.312 -6.39,12.078 -16.578,16.406 -25.562,16.406 -8.297,0 -18.828,-3.812 -25.391,-16.234 -6.906,-12.953 -7.593,-29.016 -7.593,-42.484 0,-9.844 0.171,-24.875 5.531,-38 7.422,-17.782 20.719,-20.204 27.453,-20.204 7.937,0 20.031,3.282 27.109,19.688 5.188,11.922 5.875,25.906 5.875,38.516 z M 585.547,112 c -11.047,0 -17.609,9.5 -20.031,22.625 -1.907,10.188 -1.907,25.031 -1.907,34.703 0,13.297 0,24.36 2.25,34.891 3.282,14.672 12.954,19.172 19.688,19.172 7.078,0 16.234,-4.672 19.516,-18.828 2.25,-9.844 2.421,-21.407 2.421,-35.235 0,-11.219 0,-25.031 -2.078,-35.219 C 601.781,115.281 591.594,112 585.547,112" /></g></g><path
         id="path54"
         style="fill:#000000;fill-opacity:1;fill-rule:nonzero;stroke:none"
         d="m 2511.72,418.422 h 15.87 c 3.29,0 5.02,0 5.02,3.109 0,1.907 -1.03,1.907 -4.48,1.907 h -15.21 l 6.39,25.203 c 0.69,2.422 0.69,2.765 0.69,3.968 0,2.766 -2.25,4.329 -4.48,4.329 -1.39,0 -5.36,-0.516 -6.74,-6.047 l -6.73,-27.453 h -16.24 c -3.45,0 -5.01,0 -5.01,-3.282 0,-1.734 1.22,-1.734 4.5,-1.734 h 15.36 l -11.39,-45.594 c -1.39,-6.047 -1.91,-7.765 -1.91,-10.015 0,-8.11 5.7,-15.547 15.37,-15.547 17.44,0 26.77,25.218 26.77,26.422 0,1.046 -0.69,1.562 -1.73,1.562 -0.35,0 -1.04,0 -1.38,-0.687 -0.17,-0.172 -0.34,-0.344 -1.55,-3.11 -3.64,-8.64 -11.57,-20.719 -21.59,-20.719 -5.19,0 -5.53,4.313 -5.53,8.11 0,0.172 0,3.453 0.51,5.531 l 13.49,54.047" /><path
         id="path56"
         style="fill:#000000;fill-opacity:1;fill-rule:nonzero;stroke:none"
         d="m 796.422,1255.66 c -4.672,-6.57 -11.406,-12.44 -19.859,-12.44 -2.079,0 -10.36,0.34 -12.954,8.3 0.516,-0.18 1.375,-0.18 1.719,-0.18 5.188,0 8.641,4.49 8.641,8.46 0,3.98 -3.281,5.36 -5.875,5.36 -2.766,0 -8.797,-2.08 -8.797,-10.53 0,-8.82 7.422,-14.86 17.266,-14.86 17.265,0 34.703,15.89 39.546,35.06 l 16.922,67.34 c 0.172,0.88 0.516,1.91 0.516,2.94 0,2.59 -2.078,4.33 -4.656,4.33 -1.563,0 -5.188,-0.71 -6.563,-5.88 l -12.781,-50.78 c -0.859,-3.11 -0.859,-3.45 -2.25,-5.34 -3.453,-4.85 -9.156,-10.71 -17.438,-10.71 -9.671,0 -10.531,9.49 -10.531,14.16 0,9.84 4.656,23.14 9.313,35.58 1.906,5 2.937,7.42 2.937,10.87 0,7.25 -5.172,13.82 -13.64,13.82 -15.891,0 -22.282,-25.03 -22.282,-26.43 0,-0.68 0.703,-1.54 1.907,-1.54 1.546,0 1.734,0.69 2.421,3.11 4.141,14.5 10.704,21.4 17.438,21.4 1.547,0 4.484,0 4.484,-5.7 0,-4.48 -1.89,-9.5 -4.484,-16.06 -8.469,-22.61 -8.469,-28.31 -8.469,-32.46 0,-16.4 11.75,-20.21 20.391,-20.21 5,0 11.219,1.56 17.265,7.95 l 0.172,-0.17 c -2.593,-10.19 -4.312,-16.92 -10.359,-25.39" /><path
         id="path58"
         style="fill:#000000;fill-opacity:1;fill-rule:nonzero;stroke:none"
         d="m 891.844,1232.86 c 0,0.17 0,0.52 -0.516,1.05 -7.953,8.11 -29.187,30.22 -29.187,84.09 0,53.88 20.89,75.81 29.359,84.45 0,0.18 0.344,0.52 0.344,1.03 0,0.52 -0.516,0.86 -1.203,0.86 -1.907,0 -16.578,-12.78 -25.047,-31.76 -8.641,-19.17 -11.047,-37.83 -11.047,-54.41 0,-12.44 1.203,-33.5 11.562,-55.78 8.297,-17.95 22.454,-30.56 24.532,-30.56 0.859,0 1.203,0.34 1.203,1.03" /><path
         id="path60"
         style="fill:#000000;fill-opacity:1;fill-rule:nonzero;stroke:none"
         d="m 934.719,1344.42 h 15.875 c 3.281,0 5.015,0 5.015,3.11 0,1.91 -1.031,1.91 -4.484,1.91 h -15.203 l 6.391,25.2 c 0.687,2.42 0.687,2.77 0.687,3.97 0,2.77 -2.25,4.33 -4.484,4.33 -1.391,0 -5.36,-0.52 -6.735,-6.05 l -6.734,-27.45 h -16.234 c -3.454,0 -5.016,0 -5.016,-3.28 0,-1.74 1.219,-1.74 4.5,-1.74 h 15.359 l -11.39,-45.59 c -1.391,-6.05 -1.907,-7.77 -1.907,-10.02 0,-8.11 5.704,-15.54 15.375,-15.54 17.438,0 26.766,25.21 26.766,26.42 0,1.04 -0.687,1.56 -1.734,1.56 -0.344,0 -1.032,0 -1.375,-0.69 -0.172,-0.17 -0.344,-0.34 -1.547,-3.11 -3.641,-8.64 -11.578,-20.72 -21.594,-20.72 -5.187,0 -5.531,4.32 -5.531,8.11 0,0.18 0,3.46 0.515,5.54 l 13.485,54.04" /><path
         id="path62"
         style="fill:#000000;fill-opacity:1;fill-rule:nonzero;stroke:none"
         d="m 1006.42,1318 c 0,12.44 -1.22,33.5 -11.576,55.78 -8.281,17.95 -22.453,30.56 -24.516,30.56 -0.515,0 -1.219,-0.17 -1.219,-1.03 0,-0.34 0.188,-0.51 0.36,-0.86 8.281,-8.64 29.344,-30.57 29.344,-84.28 0,-53.87 -20.891,-75.81 -29.344,-84.45 -0.172,-0.34 -0.36,-0.52 -0.36,-0.86 0,-0.86 0.704,-1.03 1.219,-1.03 1.891,0 16.578,12.78 25.031,31.78 8.641,19.16 11.061,37.81 11.061,54.39" /></g></g></svg>
