<?xml version="1.0" encoding="UTF-8" standalone="no"?>
<svg
   xmlns:dc="http://purl.org/dc/elements/1.1/"
   xmlns:cc="http://creativecommons.org/ns#"
   xmlns:rdf="http://www.w3.org/1999/02/22-rdf-syntax-ns#"
   xmlns:svg="http://www.w3.org/2000/svg"
   xmlns="http://www.w3.org/2000/svg"
   id="svg47"
   version="1.2"
   viewBox="0 0 243.97 46.67"
   height="46.67pt"
   width="243.97pt">
  <metadata
     id="metadata53">
    <rdf:RDF>
      <cc:Work
         rdf:about="">
        <dc:format>image/svg+xml</dc:format>
        <dc:type
           rdf:resource="http://purl.org/dc/dcmitype/StillImage" />
      </cc:Work>
    </rdf:RDF>
  </metadata>
  <defs
     id="defs51" />
  <g
     id="surface1">
    <path
       id="path2"
       d="M 126.128906 17.359375 C 126.128906 15.703125 126.128906 11.542969 122.054688 11.542969 C 117.960938 11.542969 117.960938 15.6875 117.960938 17.359375 C 117.960938 19.019531 117.960938 23.078125 122.035156 23.078125 C 126.109375 23.078125 126.128906 19.070313 126.128906 17.359375 Z M 122.054688 22.507813 C 121.5 22.507813 121.085938 22.28125 120.742188 21.921875 C 120.308594 21.488281 120.03125 21.210938 120.03125 17.15625 C 120.03125 15.945313 120.03125 14.839844 120.171875 13.941406 C 120.414063 12.234375 121.65625 12.109375 122.035156 12.109375 C 122.589844 12.109375 123.660156 12.371094 123.898438 13.820313 C 124.054688 14.703125 124.054688 16.101563 124.054688 17.15625 C 124.054688 21.230469 123.796875 21.472656 123.277344 21.988281 C 122.933594 22.335938 122.46875 22.507813 122.054688 22.507813 "
       style=" stroke:none;fill-rule:nonzero;fill:rgb(0%,0%,0%);fill-opacity:1;" />
    <path
       id="path4"
       d="M 137.589844 37.367188 C 137.8125 38.335938 138.640625 38.542969 139.054688 38.542969 C 139.609375 38.542969 140.023438 38.179688 140.300781 37.59375 C 140.59375 36.972656 140.820313 35.953125 140.820313 35.902344 C 140.820313 35.8125 140.746094 35.746094 140.644531 35.746094 C 140.492188 35.746094 140.472656 35.832031 140.402344 36.089844 C 140.09375 37.28125 139.78125 38.195313 139.089844 38.195313 C 138.574219 38.195313 138.574219 37.628906 138.574219 37.402344 C 138.574219 37.007813 138.625 36.832031 138.796875 36.109375 C 138.917969 35.640625 139.039063 35.175781 139.144531 34.691406 L 139.851563 31.875 C 139.972656 31.445313 139.972656 31.410156 139.972656 31.359375 C 139.972656 31.101563 139.765625 30.925781 139.507813 30.925781 C 139.003906 30.925781 138.882813 31.359375 138.78125 31.789063 C 138.609375 32.464844 137.675781 36.175781 137.554688 36.78125 C 137.539063 36.78125 136.863281 38.195313 135.601563 38.195313 C 134.703125 38.195313 134.53125 37.421875 134.53125 36.78125 C 134.53125 35.796875 135.015625 34.414063 135.464844 33.257813 C 135.671875 32.707031 135.757813 32.480469 135.757813 32.136719 C 135.757813 31.394531 135.222656 30.753906 134.394531 30.753906 C 132.804688 30.753906 132.164063 33.257813 132.164063 33.398438 C 132.164063 33.464844 132.234375 33.550781 132.355469 33.550781 C 132.511719 33.550781 132.53125 33.484375 132.597656 33.242188 C 133.011719 31.757813 133.6875 31.101563 134.34375 31.101563 C 134.515625 31.101563 134.789063 31.117188 134.789063 31.671875 C 134.789063 32.117188 134.601563 32.621094 134.34375 33.277344 C 133.582031 35.332031 133.496094 35.988281 133.496094 36.503906 C 133.496094 38.265625 134.824219 38.542969 135.535156 38.542969 C 136.640625 38.542969 137.242188 37.78125 137.589844 37.367188 "
       style=" stroke:none;fill-rule:nonzero;fill:rgb(0%,0%,100%);fill-opacity:1;" />
    <path
       id="path6"
       d="M 42.933594 11.566406 C 42.933594 11.167969 42.933594 11.117188 42.554688 11.117188 L 41.257813 12.359375 C 40.292969 11.53125 39.136719 11.117188 37.859375 11.117188 C 33.730469 11.117188 31.070313 13.621094 31.070313 17.246094 C 31.070313 20.804688 33.644531 23.378906 37.875 23.378906 C 40.949219 23.378906 42.933594 21.269531 42.933594 19.234375 C 42.933594 18.9375 42.832031 18.921875 42.570313 18.921875 C 42.398438 18.921875 42.226563 18.921875 42.210938 19.113281 C 42.054688 21.738281 39.828125 22.632813 38.273438 22.632813 C 37.148438 22.632813 35.628906 22.324219 34.664063 21.234375 C 34.058594 20.578125 33.507813 19.628906 33.507813 17.246094 C 33.507813 15.554688 33.765625 14.292969 34.578125 13.328125 C 35.679688 12.03125 37.40625 11.859375 38.238281 11.859375 C 39.53125 11.859375 41.621094 12.585938 42.140625 15.625 C 42.175781 15.78125 42.328125 15.78125 42.539063 15.78125 C 42.933594 15.78125 42.933594 15.742188 42.933594 15.328125 L 42.933594 11.566406 "
       style=" stroke:none;fill-rule:nonzero;fill:rgb(0%,0%,0%);fill-opacity:1;" />
    <path
       id="path8"
       d="M 21.199219 11.167969 C 21.199219 11.011719 21.078125 11.011719 21.046875 11.011719 C 21.011719 11.011719 20.941406 11.011719 20.804688 11.1875 L 19.609375 12.636719 C 19.007813 11.601563 18.058594 11.011719 16.761719 11.011719 C 13.03125 11.011719 9.164063 14.796875 9.164063 18.851563 C 9.164063 21.738281 11.183594 23.53125 13.703125 23.53125 C 15.085938 23.53125 16.296875 22.945313 17.296875 22.101563 C 18.800781 20.839844 19.25 19.164063 19.25 19.023438 C 19.25 18.871094 19.109375 18.871094 19.058594 18.871094 C 18.902344 18.871094 18.886719 18.972656 18.851563 19.042969 C 18.058594 21.738281 15.726563 23.03125 14 23.03125 C 12.167969 23.03125 10.578125 21.859375 10.578125 19.40625 C 10.578125 18.851563 10.75 15.847656 12.703125 13.585938 C 13.652344 12.480469 15.277344 11.515625 16.917969 11.515625 C 18.816406 11.515625 19.664063 13.085938 19.664063 14.847656 C 19.664063 15.296875 19.609375 15.675781 19.609375 15.742188 C 19.609375 15.898438 19.785156 15.898438 19.835938 15.898438 C 20.027344 15.898438 20.042969 15.882813 20.113281 15.570313 L 21.199219 11.167969 "
       style=" stroke:none;fill-rule:nonzero;fill:rgb(0%,0%,100%);fill-opacity:1;" />
    <path
       id="path10"
       d="M 26.46875 14.253906 C 26.46875 13.820313 26.121094 13.542969 25.757813 13.542969 C 25.414063 13.542969 25.050781 13.820313 25.050781 14.253906 C 25.050781 14.683594 25.394531 14.960938 25.757813 14.960938 C 26.105469 14.960938 26.46875 14.683594 26.46875 14.253906 Z M 26.46875 20.261719 C 26.46875 19.832031 26.121094 19.554688 25.757813 19.554688 C 25.414063 19.554688 25.050781 19.832031 25.050781 20.261719 C 25.050781 20.695313 25.394531 20.96875 25.757813 20.96875 C 26.105469 20.96875 26.46875 20.695313 26.46875 20.261719 "
       style=" stroke:none;fill-rule:nonzero;fill:rgb(0%,0%,100%);fill-opacity:1;" />
    <path
       id="path12"
       d="M 209.035156 17.296875 C 211.367188 16.675781 211.9375 15.433594 211.9375 14.5 C 211.9375 12.773438 210.121094 11.324219 206.929688 11.324219 L 200.554688 11.324219 L 200.554688 12.066406 L 202.386719 12.066406 L 202.386719 22.429688 L 200.554688 22.429688 L 200.554688 23.171875 C 201.058594 23.136719 202.851563 23.136719 203.476563 23.136719 C 204.097656 23.136719 205.910156 23.136719 206.410156 23.171875 L 206.410156 22.429688 L 204.578125 22.429688 L 204.578125 17.523438 L 206.632813 17.523438 C 207.328125 17.523438 207.878906 17.730469 208.257813 18.179688 C 208.777344 18.765625 208.777344 19.148438 208.777344 20.304688 C 208.777344 21.460938 208.777344 22.167969 209.65625 22.757813 C 210.554688 23.359375 211.972656 23.378906 212.351563 23.378906 C 214.113281 23.378906 214.320313 21.824219 214.320313 21.582031 C 214.320313 21.289063 214.179688 21.234375 213.957031 21.234375 C 213.628906 21.234375 213.613281 21.355469 213.59375 21.582031 C 213.507813 22.445313 212.972656 22.808594 212.488281 22.808594 C 211.382813 22.808594 211.261719 21.648438 211.125 20.0625 C 211.023438 19.148438 210.898438 17.867188 209.035156 17.296875 Z M 206.601563 16.953125 L 204.578125 16.953125 L 204.578125 12.066406 L 206.632813 12.066406 C 209.449219 12.066406 209.503906 13.484375 209.503906 14.5 C 209.503906 15.453125 209.484375 16.953125 206.601563 16.953125 "
       style=" stroke:none;fill-rule:nonzero;fill:rgb(0%,0%,0%);fill-opacity:1;" />
    <path
       id="path14"
       d="M 229.054688 12.550781 C 229.210938 11.910156 229.28125 11.875 229.953125 11.875 L 231.195313 11.875 C 232.679688 11.875 233.789063 12.324219 233.789063 13.671875 C 233.789063 14.554688 233.339844 17.09375 229.867188 17.09375 L 227.914063 17.09375 Z M 231.457031 17.296875 C 233.597656 16.832031 235.273438 15.453125 235.273438 13.964844 C 235.273438 12.617188 233.90625 11.375 231.507813 11.375 L 226.828125 11.375 C 226.480469 11.375 226.328125 11.375 226.328125 11.703125 C 226.328125 11.875 226.445313 11.875 226.773438 11.875 C 227.8125 11.875 227.8125 12.015625 227.8125 12.203125 C 227.8125 12.238281 227.8125 12.34375 227.742188 12.601563 L 225.410156 21.890625 C 225.257813 22.496094 225.222656 22.667969 224.03125 22.667969 C 223.632813 22.667969 223.511719 22.667969 223.511719 22.996094 C 223.511719 23.171875 223.703125 23.171875 223.753906 23.171875 C 224.0625 23.171875 224.425781 23.136719 224.753906 23.136719 L 226.792969 23.136719 C 227.101563 23.136719 227.464844 23.171875 227.777344 23.171875 C 227.914063 23.171875 228.105469 23.171875 228.105469 22.84375 C 228.105469 22.667969 227.949219 22.667969 227.691406 22.667969 C 226.636719 22.667969 226.636719 22.53125 226.636719 22.359375 C 226.636719 22.339844 226.636719 22.21875 226.671875 22.082031 L 227.828125 17.4375 L 229.902344 17.4375 C 231.542969 17.4375 231.851563 18.472656 231.851563 19.042969 C 231.851563 19.300781 231.679688 19.976563 231.558594 20.425781 C 231.367188 21.21875 231.316406 21.410156 231.316406 21.738281 C 231.316406 22.960938 232.320313 23.53125 233.476563 23.53125 C 234.875 23.53125 235.480469 21.824219 235.480469 21.582031 C 235.480469 21.460938 235.394531 21.410156 235.289063 21.410156 C 235.152344 21.410156 235.117188 21.511719 235.082031 21.648438 C 234.667969 22.875 233.960938 23.1875 233.527344 23.1875 C 233.097656 23.1875 232.820313 22.996094 232.820313 22.21875 C 232.820313 21.804688 233.027344 20.234375 233.042969 20.148438 C 233.132813 19.507813 233.132813 19.441406 233.132813 19.300781 C 233.132813 18.039063 232.113281 17.507813 231.457031 17.296875 "
       style=" stroke:none;fill-rule:nonzero;fill:rgb(0%,0%,100%);fill-opacity:1;" />
    <path
       id="path16"
       d="M 219.265625 14.253906 C 219.265625 13.820313 218.921875 13.542969 218.558594 13.542969 C 218.214844 13.542969 217.851563 13.820313 217.851563 14.253906 C 217.851563 14.683594 218.195313 14.960938 218.558594 14.960938 C 218.90625 14.960938 219.265625 14.683594 219.265625 14.253906 Z M 219.265625 20.261719 C 219.265625 19.832031 218.921875 19.554688 218.558594 19.554688 C 218.214844 19.554688 217.851563 19.832031 217.851563 20.261719 C 217.851563 20.695313 218.195313 20.96875 218.558594 20.96875 C 218.90625 20.96875 219.265625 20.695313 219.265625 20.261719 "
       style=" stroke:none;fill-rule:nonzero;fill:rgb(0%,0%,100%);fill-opacity:1;" />
    <path
       id="path18"
       transform="matrix(0.1,0,0,-0.1,0,46.67)"
       d="M 1107.148438 293.965625 L 530.507813 293.965625 "
       style="fill:none;stroke-width:15.9404;stroke-linecap:butt;stroke-linejoin:miter;stroke:rgb(0%,0%,0%);stroke-opacity:1;stroke-miterlimit:10;" />
    <path
       id="path20"
       transform="matrix(0.1,0,0,-0.1,0,46.67)"
       d="M 1111.132813 357.715625 L 1111.132813 230.215625 "
       style="fill:none;stroke-width:15.9404;stroke-linecap:butt;stroke-linejoin:miter;stroke:rgb(0%,0%,0%);stroke-opacity:1;stroke-miterlimit:10;" />
    <path
       id="path22"
       transform="matrix(0.1,0,0,-0.1,0,46.67)"
       d="M 530.507813 293.965625 L 514.570313 293.965625 L 583.28125 236.309375 "
       style="fill:none;stroke-width:15.9404;stroke-linecap:butt;stroke-linejoin:miter;stroke:rgb(0%,0%,0%);stroke-opacity:1;stroke-miterlimit:10;" />
    <path
       id="path24"
       d="M 79.191406 9.230469 C 79.246094 8.996094 79.351563 8.582031 79.351563 8.546875 C 79.351563 8.429688 79.273438 8.285156 79.074219 8.285156 C 78.949219 8.285156 78.8125 8.367188 78.75 8.472656 C 78.703125 8.5625 78.089844 11.007813 78.039063 11.304688 C 77.847656 11.628906 77.488281 12.042969 76.992188 12.042969 C 76.433594 12.042969 76.433594 11.476563 76.433594 11.304688 C 76.433594 10.898438 76.550781 10.457031 76.9375 9.445313 C 77.007813 9.242188 77.0625 9.113281 77.0625 8.941406 C 77.0625 8.5 76.730469 8.183594 76.289063 8.183594 C 75.421875 8.183594 75.0625 9.464844 75.0625 9.574219 C 75.0625 9.65625 75.125 9.679688 75.1875 9.679688 C 75.289063 9.679688 75.296875 9.628906 75.332031 9.511719 C 75.523438 8.859375 75.875 8.410156 76.261719 8.410156 C 76.449219 8.410156 76.476563 8.546875 76.476563 8.707031 C 76.476563 8.859375 76.441406 9.023438 76.359375 9.242188 C 75.9375 10.359375 75.820313 10.734375 75.820313 11.167969 C 75.820313 12.171875 76.628906 12.269531 76.964844 12.269531 C 77.476563 12.269531 77.847656 11.953125 78.0625 11.675781 C 78.234375 12.269531 78.832031 12.269531 78.882813 12.269531 C 79.144531 12.269531 79.371094 12.144531 79.5625 11.792969 C 79.722656 11.492188 79.859375 10.917969 79.859375 10.882813 C 79.859375 10.835938 79.832031 10.773438 79.742188 10.773438 C 79.632813 10.773438 79.625 10.816406 79.585938 10.988281 C 79.40625 11.703125 79.21875 12.042969 78.910156 12.042969 C 78.695313 12.042969 78.632813 11.855469 78.632813 11.628906 C 78.632813 11.457031 78.675781 11.277344 78.757813 10.960938 L 78.984375 10.03125 L 79.191406 9.230469 "
       style=" stroke:none;fill-rule:nonzero;fill:rgb(0%,50%,0%);fill-opacity:1;" />
    <path
       id="path26"
       d="M 85.398438 9.148438 C 85.410156 9.09375 85.417969 9.070313 85.417969 9.058594 C 85.417969 9.046875 85.410156 8.976563 85.328125 8.976563 C 85.28125 8.976563 85.273438 8.980469 85.214844 9.046875 L 84.765625 9.511719 C 84.445313 9.109375 84.007813 8.976563 83.582031 8.976563 C 82.066406 8.976563 80.605469 10.25 80.605469 11.578125 C 80.605469 12.605469 81.441406 13.296875 82.550781 13.296875 C 83.167969 13.296875 83.710938 13.039063 84.0625 12.765625 C 84.652344 12.292969 84.75 11.765625 84.75 11.734375 C 84.75 11.675781 84.695313 11.648438 84.640625 11.648438 C 84.570313 11.648438 84.546875 11.675781 84.527344 11.734375 C 84.242188 12.664063 83.304688 13.058594 82.644531 13.058594 C 82.203125 13.058594 81.234375 12.878906 81.234375 11.746094 C 81.234375 11.507813 81.285156 10.683594 81.941406 9.964844 C 82.257813 9.613281 82.894531 9.210938 83.640625 9.210938 C 84.410156 9.210938 84.808594 9.761719 84.808594 10.386719 C 84.808594 10.488281 84.789063 10.59375 84.789063 10.609375 C 84.789063 10.695313 84.878906 10.695313 84.910156 10.695313 C 84.988281 10.695313 85.015625 10.691406 85.046875 10.566406 L 85.398438 9.148438 "
       style=" stroke:none;fill-rule:nonzero;fill:rgb(0%,50%,0%);fill-opacity:1;" />
    <path
       id="path28"
       d="M 78.515625 21.644531 C 78.515625 21.445313 78.371094 21.3125 78.171875 21.3125 C 77.929688 21.3125 77.6875 21.546875 77.6875 21.789063 C 77.6875 21.96875 77.820313 22.121094 78.027344 22.121094 C 78.273438 22.121094 78.515625 21.898438 78.515625 21.644531 Z M 78.640625 25.980469 C 78.640625 25.9375 78.613281 25.875 78.523438 25.875 C 78.425781 25.875 78.414063 25.917969 78.378906 26.035156 C 78.164063 26.773438 77.792969 27.144531 77.453125 27.144531 C 77.304688 27.144531 77.234375 27.070313 77.234375 26.847656 C 77.234375 26.628906 77.304688 26.429688 77.378906 26.261719 C 77.539063 25.828125 77.539063 25.808594 77.65625 25.53125 C 77.804688 25.140625 78 24.628906 78.089844 24.375 C 78.15625 24.214844 78.15625 24.125 78.15625 24.042969 C 78.15625 23.527344 77.75 23.285156 77.386719 23.285156 C 76.511719 23.285156 76.160156 24.574219 76.160156 24.671875 C 76.160156 24.753906 76.226563 24.78125 76.289063 24.78125 C 76.386719 24.78125 76.394531 24.726563 76.429688 24.609375 C 76.621094 23.96875 76.964844 23.511719 77.359375 23.511719 C 77.453125 23.511719 77.578125 23.527344 77.578125 23.796875 C 77.578125 24.023438 77.488281 24.257813 77.40625 24.464844 L 76.765625 26.132813 C 76.703125 26.304688 76.648438 26.449219 76.648438 26.613281 C 76.648438 27.035156 76.964844 27.367188 77.421875 27.367188 C 78.296875 27.367188 78.640625 26.070313 78.640625 25.980469 "
       style=" stroke:none;fill-rule:nonzero;fill:rgb(0%,50%,0%);fill-opacity:1;" />
    <path
       id="path30"
       d="M 84.398438 24.246094 C 84.410156 24.195313 84.417969 24.171875 84.417969 24.15625 C 84.417969 24.144531 84.410156 24.074219 84.328125 24.074219 C 84.28125 24.074219 84.273438 24.078125 84.214844 24.144531 L 83.765625 24.609375 C 83.445313 24.210938 83.007813 24.074219 82.582031 24.074219 C 81.066406 24.074219 79.605469 25.351563 79.605469 26.679688 C 79.605469 27.703125 80.441406 28.394531 81.550781 28.394531 C 82.167969 28.394531 82.710938 28.140625 83.0625 27.867188 C 83.652344 27.394531 83.75 26.863281 83.75 26.835938 C 83.75 26.773438 83.695313 26.75 83.640625 26.75 C 83.570313 26.75 83.546875 26.773438 83.527344 26.835938 C 83.242188 27.765625 82.304688 28.15625 81.644531 28.15625 C 81.203125 28.15625 80.234375 27.976563 80.234375 26.84375 C 80.234375 26.609375 80.285156 25.785156 80.941406 25.0625 C 81.257813 24.710938 81.894531 24.3125 82.640625 24.3125 C 83.410156 24.3125 83.808594 24.859375 83.808594 25.488281 C 83.808594 25.585938 83.789063 25.695313 83.789063 25.707031 C 83.789063 25.796875 83.878906 25.796875 83.910156 25.796875 C 83.988281 25.796875 84.015625 25.789063 84.046875 25.664063 L 84.398438 24.246094 "
       style=" stroke:none;fill-rule:nonzero;fill:rgb(0%,50%,0%);fill-opacity:1;" />
    <path
       id="path32"
       transform="matrix(0.1,0,0,-0.1,0,46.67)"
       d="M 1321.5625 293.965625 L 1891.914063 293.965625 "
       style="fill:none;stroke-width:15.9404;stroke-linecap:butt;stroke-linejoin:miter;stroke:rgb(0%,0%,0%);stroke-opacity:1;stroke-miterlimit:10;" />
    <path
       id="path34"
       transform="matrix(0.1,0,0,-0.1,0,46.67)"
       d="M 1891.914063 293.965625 L 1907.851563 293.965625 L 1839.140625 236.309375 "
       style="fill:none;stroke-width:15.9404;stroke-linecap:butt;stroke-linejoin:miter;stroke:rgb(0%,0%,0%);stroke-opacity:1;stroke-miterlimit:10;" />
    <path
       id="path36"
       transform="matrix(0.1,0,0,-0.1,0,46.67)"
       d="M 1937.734375 357.715625 L 1937.734375 230.215625 "
       style="fill:none;stroke-width:15.9404;stroke-linecap:butt;stroke-linejoin:miter;stroke:rgb(0%,0%,0%);stroke-opacity:1;stroke-miterlimit:10;" />
    <path
       id="path38"
       d="M 162.089844 9.230469 C 162.144531 8.996094 162.253906 8.582031 162.253906 8.546875 C 162.253906 8.429688 162.171875 8.285156 161.972656 8.285156 C 161.847656 8.285156 161.714844 8.367188 161.648438 8.472656 C 161.605469 8.5625 160.992188 11.007813 160.9375 11.304688 C 160.746094 11.628906 160.386719 12.042969 159.890625 12.042969 C 159.332031 12.042969 159.332031 11.476563 159.332031 11.304688 C 159.332031 10.898438 159.449219 10.457031 159.839844 9.445313 C 159.910156 9.242188 159.964844 9.113281 159.964844 8.941406 C 159.964844 8.5 159.628906 8.183594 159.1875 8.183594 C 158.320313 8.183594 157.960938 9.464844 157.960938 9.574219 C 157.960938 9.65625 158.023438 9.679688 158.089844 9.679688 C 158.1875 9.679688 158.195313 9.628906 158.230469 9.511719 C 158.421875 8.859375 158.773438 8.410156 159.160156 8.410156 C 159.351563 8.410156 159.378906 8.546875 159.378906 8.707031 C 159.378906 8.859375 159.339844 9.023438 159.257813 9.242188 C 158.835938 10.359375 158.71875 10.734375 158.71875 11.167969 C 158.71875 12.171875 159.53125 12.269531 159.863281 12.269531 C 160.378906 12.269531 160.746094 11.953125 160.964844 11.675781 C 161.136719 12.269531 161.730469 12.269531 161.785156 12.269531 C 162.046875 12.269531 162.273438 12.144531 162.460938 11.792969 C 162.621094 11.492188 162.757813 10.917969 162.757813 10.882813 C 162.757813 10.835938 162.730469 10.773438 162.640625 10.773438 C 162.53125 10.773438 162.523438 10.816406 162.488281 10.988281 C 162.308594 11.703125 162.117188 12.042969 161.8125 12.042969 C 161.59375 12.042969 161.53125 11.855469 161.53125 11.628906 C 161.53125 11.457031 161.578125 11.277344 161.65625 10.960938 L 161.882813 10.03125 L 162.089844 9.230469 "
       style=" stroke:none;fill-rule:nonzero;fill:rgb(0%,50%,0%);fill-opacity:1;" />
    <path
       id="path40"
       d="M 165.59375 9.539063 C 165.640625 9.351563 165.648438 9.335938 165.898438 9.335938 L 166.480469 9.335938 C 167.078125 9.335938 167.511719 9.488281 167.511719 9.957031 C 167.511719 10.164063 167.421875 10.59375 167.011719 10.828125 C 166.777344 10.960938 166.457031 11.035156 166.050781 11.035156 L 165.21875 11.035156 Z M 166.8125 11.144531 C 167.390625 11.011719 168.15625 10.609375 168.15625 10.023438 C 168.15625 9.527344 167.53125 9.101563 166.601563 9.101563 L 164.675781 9.101563 C 164.5625 9.101563 164.472656 9.101563 164.472656 9.25 C 164.472656 9.335938 164.5625 9.335938 164.667969 9.335938 C 164.777344 9.335938 164.925781 9.335938 165.050781 9.378906 C 165.050781 9.4375 165.050781 9.476563 165.027344 9.570313 L 164.246094 12.675781 C 164.191406 12.890625 164.179688 12.929688 163.734375 12.929688 C 163.601563 12.929688 163.589844 12.929688 163.566406 12.949219 C 163.535156 12.972656 163.511719 13.050781 163.511719 13.085938 C 163.519531 13.109375 163.523438 13.171875 163.613281 13.171875 C 163.792969 13.171875 164.226563 13.148438 164.40625 13.148438 C 164.769531 13.148438 164.382813 13.148438 164.816406 13.152344 C 164.949219 13.152344 165.09375 13.171875 165.21875 13.171875 C 165.253906 13.171875 165.296875 13.171875 165.320313 13.128906 C 165.328125 13.109375 165.355469 13.039063 165.355469 13.015625 C 165.335938 12.929688 165.28125 12.929688 165.144531 12.929688 C 165.074219 12.929688 164.984375 12.925781 164.917969 12.921875 C 164.8125 12.90625 164.769531 12.90625 164.769531 12.84375 C 164.769531 12.820313 164.777344 12.796875 164.792969 12.734375 L 165.167969 11.234375 L 166.027344 11.234375 C 166.550781 11.234375 166.8125 11.472656 166.8125 11.757813 C 166.8125 11.828125 166.761719 12.03125 166.726563 12.167969 C 166.660156 12.445313 166.636719 12.527344 166.636719 12.632813 C 166.636719 13.074219 167.039063 13.296875 167.558594 13.296875 C 168.121094 13.296875 168.382813 12.730469 168.382813 12.59375 C 168.382813 12.554688 168.351563 12.503906 168.273438 12.503906 C 168.191406 12.503906 168.171875 12.550781 168.160156 12.59375 C 168.023438 12.996094 167.738281 13.097656 167.589844 13.097656 C 167.429688 13.097656 167.296875 13.039063 167.296875 12.6875 C 167.296875 12.550781 167.339844 12.222656 167.355469 12.066406 C 167.363281 12.007813 167.382813 11.882813 167.382813 11.835938 C 167.382813 11.441406 167.070313 11.234375 166.8125 11.144531 "
       style=" stroke:none;fill-rule:nonzero;fill:rgb(0%,50%,0%);fill-opacity:1;" />
    <path
       id="path42"
       d="M 161.414063 21.644531 C 161.414063 21.445313 161.269531 21.3125 161.070313 21.3125 C 160.828125 21.3125 160.585938 21.546875 160.585938 21.789063 C 160.585938 21.96875 160.71875 22.121094 160.929688 22.121094 C 161.171875 22.121094 161.414063 21.898438 161.414063 21.644531 Z M 161.539063 25.980469 C 161.539063 25.9375 161.515625 25.875 161.421875 25.875 C 161.324219 25.875 161.316406 25.917969 161.28125 26.035156 C 161.0625 26.773438 160.695313 27.144531 160.351563 27.144531 C 160.207031 27.144531 160.132813 27.070313 160.132813 26.847656 C 160.132813 26.628906 160.207031 26.429688 160.277344 26.261719 C 160.441406 25.828125 160.441406 25.808594 160.558594 25.53125 C 160.703125 25.140625 160.902344 24.628906 160.992188 24.375 C 161.054688 24.214844 161.054688 24.125 161.054688 24.042969 C 161.054688 23.527344 160.648438 23.285156 160.289063 23.285156 C 159.414063 23.285156 159.0625 24.574219 159.0625 24.671875 C 159.0625 24.753906 159.125 24.78125 159.1875 24.78125 C 159.289063 24.78125 159.296875 24.726563 159.332031 24.609375 C 159.523438 23.96875 159.863281 23.511719 160.261719 23.511719 C 160.351563 23.511719 160.476563 23.527344 160.476563 23.796875 C 160.476563 24.023438 160.386719 24.257813 160.304688 24.464844 L 159.664063 26.132813 C 159.601563 26.304688 159.546875 26.449219 159.546875 26.613281 C 159.546875 27.035156 159.863281 27.367188 160.324219 27.367188 C 161.199219 27.367188 161.539063 26.070313 161.539063 25.980469 "
       style=" stroke:none;fill-rule:nonzero;fill:rgb(0%,50%,0%);fill-opacity:1;" />
    <path
       id="path44"
       d="M 164.492188 24.640625 C 164.539063 24.449219 164.546875 24.4375 164.796875 24.4375 L 165.382813 24.4375 C 165.976563 24.4375 166.414063 24.585938 166.414063 25.058594 C 166.414063 25.265625 166.320313 25.695313 165.910156 25.929688 C 165.679688 26.058594 165.355469 26.136719 164.953125 26.136719 L 164.117188 26.136719 Z M 165.714844 26.242188 C 166.292969 26.113281 167.054688 25.707031 167.054688 25.125 C 167.054688 24.628906 166.429688 24.199219 165.5 24.199219 L 163.574219 24.199219 C 163.460938 24.199219 163.371094 24.199219 163.371094 24.347656 C 163.371094 24.4375 163.460938 24.4375 163.570313 24.4375 C 163.675781 24.4375 163.824219 24.4375 163.949219 24.480469 C 163.949219 24.539063 163.949219 24.574219 163.925781 24.671875 L 163.144531 27.773438 C 163.09375 27.992188 163.078125 28.03125 162.632813 28.03125 C 162.503906 28.03125 162.492188 28.03125 162.464844 28.050781 C 162.4375 28.074219 162.414063 28.152344 162.414063 28.1875 C 162.417969 28.210938 162.425781 28.269531 162.515625 28.269531 C 162.691406 28.269531 163.128906 28.246094 163.304688 28.246094 C 163.671875 28.246094 163.28125 28.246094 163.71875 28.253906 C 163.847656 28.253906 163.992188 28.269531 164.117188 28.269531 C 164.152344 28.269531 164.195313 28.269531 164.21875 28.226563 C 164.230469 28.210938 164.253906 28.140625 164.253906 28.117188 C 164.234375 28.03125 164.183594 28.03125 164.046875 28.03125 C 163.972656 28.03125 163.882813 28.027344 163.820313 28.019531 C 163.714844 28.007813 163.671875 28.007813 163.671875 27.941406 C 163.671875 27.917969 163.675781 27.894531 163.695313 27.835938 L 164.070313 26.332031 L 164.929688 26.332031 C 165.453125 26.332031 165.714844 26.570313 165.714844 26.859375 C 165.714844 26.929688 165.660156 27.132813 165.625 27.269531 C 165.558594 27.542969 165.535156 27.625 165.535156 27.734375 C 165.535156 28.175781 165.941406 28.394531 166.460938 28.394531 C 167.019531 28.394531 167.28125 27.828125 167.28125 27.691406 C 167.28125 27.65625 167.253906 27.601563 167.175781 27.601563 C 167.089844 27.601563 167.074219 27.648438 167.0625 27.691406 C 166.925781 28.097656 166.640625 28.199219 166.488281 28.199219 C 166.328125 28.199219 166.195313 28.140625 166.195313 27.789063 C 166.195313 27.648438 166.238281 27.320313 166.257813 27.167969 C 166.261719 27.109375 166.28125 26.984375 166.28125 26.9375 C 166.28125 26.542969 165.96875 26.332031 165.714844 26.242188 "
       style=" stroke:none;fill-rule:nonzero;fill:rgb(0%,50%,0%);fill-opacity:1;" />
  </g>
</svg>
