<?xml version="1.0" encoding="UTF-8" standalone="no"?>
<svg
   xmlns:dc="http://purl.org/dc/elements/1.1/"
   xmlns:cc="http://creativecommons.org/ns#"
   xmlns:rdf="http://www.w3.org/1999/02/22-rdf-syntax-ns#"
   xmlns:svg="http://www.w3.org/2000/svg"
   xmlns="http://www.w3.org/2000/svg"
   id="svg97"
   version="1.2"
   viewBox="0 0 287.69 281.14"
   height="281.14pt"
   width="287.69pt">
  <metadata
     id="metadata101">
    <rdf:RDF>
      <cc:Work
         rdf:about="">
        <dc:format>image/svg+xml</dc:format>
        <dc:type
           rdf:resource="http://purl.org/dc/dcmitype/StillImage" />
      </cc:Work>
    </rdf:RDF>
  </metadata>
  <defs
     id="defs8">
    <clipPath
       id="clip1">
      <path
         id="path2"
         d="M 106 212 L 186 212 L 186 281.140625 L 106 281.140625 Z M 106 212 " />
    </clipPath>
    <clipPath
       id="clip2">
      <path
         id="path5"
         d="M 163.988281 260 L 173.058594 260 L 173.058594 262 L 163.988281 262 Z M 163.988281 260 " />
    </clipPath>
  </defs>
  <g
     id="surface1">
    <path
       id="path10"
       transform="matrix(0.1,0,0,-0.1,0,281.14)"
       d="M 97.8125 1765.228125 L 551.367188 1765.228125 L 551.367188 2218.782813 L 97.8125 2218.782813 Z M 97.8125 1765.228125 "
       style="fill:none;stroke-width:15.9404;stroke-linecap:butt;stroke-linejoin:miter;stroke:rgb(0%,0%,0%);stroke-opacity:1;stroke-miterlimit:10;" />
    <path
       id="path12"
       d="M 28.53125 92.464844 C 28.851563 92.445313 29.019531 92.226563 29.019531 91.980469 C 29.019531 91.652344 28.773438 91.492188 28.542969 91.492188 C 28.304688 91.492188 28.054688 91.640625 28.054688 91.988281 C 28.054688 92.496094 28.554688 92.914063 29.160156 92.914063 C 30.667969 92.914063 31.234375 90.589844 31.941406 87.707031 C 32.703125 84.566406 33.351563 81.398438 33.886719 78.210938 C 34.253906 76.09375 34.621094 74.109375 34.960938 72.828125 C 35.078125 72.339844 35.417969 71.058594 35.804688 71.058594 C 36.113281 71.058594 36.359375 71.246094 36.398438 71.285156 C 36.074219 71.308594 35.90625 71.527344 35.90625 71.773438 C 35.90625 72.101563 36.152344 72.261719 36.382813 72.261719 C 36.617188 72.261719 36.867188 72.113281 36.867188 71.761719 C 36.867188 71.226563 36.332031 70.839844 35.785156 70.839844 C 35.03125 70.839844 34.472656 71.921875 33.925781 73.949219 C 33.898438 74.058594 32.546875 79.046875 31.453125 85.542969 C 31.195313 87.0625 30.90625 88.722656 30.578125 90.101563 C 30.398438 90.824219 29.945313 92.695313 29.140625 92.695313 C 28.78125 92.695313 28.542969 92.464844 28.53125 92.464844 "
       style=" stroke:none;fill-rule:nonzero;fill:rgb(0%,0%,100%);fill-opacity:1;" />
    <path
       id="path14"
       transform="matrix(0.1,0,0,-0.1,0,281.14)"
       d="M 97.8125 631.360938 L 551.367188 631.360938 L 551.367188 1084.915625 L 97.8125 1084.915625 Z M 97.8125 631.360938 "
       style="fill:none;stroke-width:15.9404;stroke-linecap:butt;stroke-linejoin:miter;stroke:rgb(0%,0%,0%);stroke-opacity:1;stroke-miterlimit:10;" />
    <path
       id="path16"
       d="M 32.933594 185.199219 C 32.933594 184.925781 32.933594 184.914063 32.695313 184.914063 C 32.40625 185.234375 31.8125 185.675781 30.585938 185.675781 L 30.585938 186.019531 C 30.859375 186.019531 31.453125 186.019531 32.109375 185.710938 L 32.109375 191.921875 C 32.109375 192.351563 32.074219 192.496094 31.027344 192.496094 L 30.65625 192.496094 L 30.65625 192.839844 C 30.976563 192.816406 32.132813 192.816406 32.527344 192.816406 C 32.921875 192.816406 34.066406 192.816406 34.386719 192.839844 L 34.386719 192.496094 L 34.015625 192.496094 C 32.96875 192.496094 32.933594 192.351563 32.933594 191.921875 L 32.933594 185.199219 "
       style=" stroke:none;fill-rule:nonzero;fill:rgb(0%,0%,100%);fill-opacity:1;" />
    <path
       id="path18"
       transform="matrix(0.1,0,0,-0.1,0,281.14)"
       d="M 278.4375 858.43125 L 370.78125 858.43125 "
       style="fill:none;stroke-width:3.985;stroke-linecap:butt;stroke-linejoin:miter;stroke:rgb(0%,0%,100%);stroke-opacity:1;stroke-miterlimit:10;" />
    <path
       id="path20"
       d="M 36.703125 197.253906 C 36.703125 197.148438 36.621094 197.148438 36.597656 197.148438 C 36.574219 197.148438 36.523438 197.148438 36.429688 197.265625 L 35.609375 198.269531 C 35.191406 197.554688 34.535156 197.148438 33.640625 197.148438 C 31.066406 197.148438 28.394531 199.757813 28.394531 202.558594 C 28.394531 204.550781 29.789063 205.789063 31.53125 205.789063 C 32.484375 205.789063 33.320313 205.386719 34.011719 204.800781 C 35.046875 203.929688 35.359375 202.773438 35.359375 202.679688 C 35.359375 202.570313 35.261719 202.570313 35.226563 202.570313 C 35.117188 202.570313 35.109375 202.644531 35.082031 202.691406 C 34.535156 204.550781 32.925781 205.445313 31.734375 205.445313 C 30.46875 205.445313 29.375 204.632813 29.375 202.941406 C 29.375 202.558594 29.492188 200.484375 30.839844 198.925781 C 31.496094 198.160156 32.617188 197.492188 33.75 197.492188 C 35.058594 197.492188 35.644531 198.578125 35.644531 199.792969 C 35.644531 200.105469 35.609375 200.367188 35.609375 200.414063 C 35.609375 200.519531 35.726563 200.519531 35.761719 200.519531 C 35.894531 200.519531 35.90625 200.511719 35.953125 200.292969 L 36.703125 197.253906 "
       style=" stroke:none;fill-rule:nonzero;fill:rgb(0%,0%,100%);fill-opacity:1;" />
    <path
       id="path22"
       d="M 35.292969 142.601563 L 29.625 142.601563 L 32.460938 135.460938 "
       style=" stroke:none;fill-rule:nonzero;fill:rgb(0%,0%,0%);fill-opacity:1;" />
    <path
       id="path24"
       transform="matrix(0.1,0,0,-0.1,0,281.14)"
       d="M 352.929688 1385.384375 L 296.25 1385.384375 L 324.609375 1456.790625 Z M 352.929688 1385.384375 "
       style="fill:none;stroke-width:15.9404;stroke-linecap:butt;stroke-linejoin:miter;stroke:rgb(0%,0%,0%);stroke-opacity:1;stroke-miterlimit:10;" />
    <path
       id="path26"
       transform="matrix(0.1,0,0,-0.1,0,281.14)"
       d="M 324.609375 1385.384375 L 324.609375 1464.759375 "
       style="fill:none;stroke-width:15.9404;stroke-linecap:butt;stroke-linejoin:miter;stroke:rgb(0%,0%,0%);stroke-opacity:1;stroke-miterlimit:10;" />
    <path
       id="path28"
       d="M 15.914063 133.195313 C 15.914063 133.109375 15.847656 133.042969 15.761719 133.042969 C 15.621094 133.042969 14.949219 133.664063 14.621094 134.269531 C 14.308594 133.488281 13.773438 133.023438 13.03125 133.023438 C 11.078125 133.023438 8.972656 135.546875 8.972656 138.101563 C 8.972656 139.808594 9.976563 140.8125 11.148438 140.8125 C 12.0625 140.8125 12.824219 140.121094 13.1875 139.722656 L 13.203125 139.742188 L 12.546875 142.332031 L 12.390625 142.953125 C 12.238281 143.472656 11.976563 143.472656 11.167969 143.488281 C 10.976563 143.488281 10.804688 143.488281 10.804688 143.816406 C 10.804688 143.9375 10.90625 143.988281 11.027344 143.988281 C 11.269531 143.988281 11.582031 143.957031 11.824219 143.957031 L 13.585938 143.957031 C 13.84375 143.957031 14.136719 143.988281 14.394531 143.988281 C 14.5 143.988281 14.707031 143.988281 14.707031 143.660156 C 14.707031 143.488281 14.570313 143.488281 14.308594 143.488281 C 13.5 143.488281 13.445313 143.367188 13.445313 143.230469 C 13.445313 143.144531 13.464844 143.128906 13.515625 142.902344 Z M 13.480469 138.585938 C 13.394531 138.878906 13.394531 138.914063 13.152344 139.242188 C 12.773438 139.722656 12.011719 140.46875 11.203125 140.46875 C 10.492188 140.46875 10.09375 139.828125 10.09375 138.808594 C 10.09375 137.859375 10.632813 135.925781 10.960938 135.199219 C 11.546875 133.992188 12.359375 133.371094 13.03125 133.371094 C 14.171875 133.371094 14.394531 134.785156 14.394531 134.925781 C 14.394531 134.941406 14.34375 135.164063 14.328125 135.199219 L 13.480469 138.585938 "
       style=" stroke:none;fill-rule:nonzero;fill:rgb(0%,0%,100%);fill-opacity:1;" />
    <path
       id="path30"
       d="M 24.703125 134.957031 C 24.703125 134.847656 24.621094 134.847656 24.597656 134.847656 C 24.574219 134.847656 24.523438 134.847656 24.429688 134.96875 L 23.609375 135.96875 C 23.191406 135.253906 22.535156 134.847656 21.640625 134.847656 C 19.066406 134.847656 16.394531 137.460938 16.394531 140.261719 C 16.394531 142.25 17.789063 143.488281 19.53125 143.488281 C 20.484375 143.488281 21.320313 143.085938 22.011719 142.5 C 23.046875 141.632813 23.359375 140.472656 23.359375 140.378906 C 23.359375 140.269531 23.261719 140.269531 23.226563 140.269531 C 23.117188 140.269531 23.109375 140.34375 23.082031 140.390625 C 22.535156 142.25 20.925781 143.144531 19.734375 143.144531 C 18.46875 143.144531 17.375 142.335938 17.375 140.640625 C 17.375 140.261719 17.492188 138.183594 18.839844 136.625 C 19.496094 135.863281 20.617188 135.191406 21.75 135.191406 C 23.058594 135.191406 23.644531 136.277344 23.644531 137.496094 C 23.644531 137.804688 23.609375 138.066406 23.609375 138.113281 C 23.609375 138.222656 23.726563 138.222656 23.761719 138.222656 C 23.894531 138.222656 23.90625 138.210938 23.953125 137.996094 L 24.703125 134.957031 "
       style=" stroke:none;fill-rule:nonzero;fill:rgb(0%,0%,100%);fill-opacity:1;" />
    <path
       id="path32"
       d="M 71.011719 28.082031 L 71.011719 22.410156 L 78.152344 25.246094 "
       style=" stroke:none;fill-rule:nonzero;fill:rgb(0%,0%,0%);fill-opacity:1;" />
    <path
       id="path34"
       transform="matrix(0.1,0,0,-0.1,0,281.14)"
       d="M 710.117188 2530.579688 L 710.117188 2587.298438 L 781.523438 2558.939063 Z M 710.117188 2530.579688 "
       style="fill:none;stroke-width:15.9404;stroke-linecap:butt;stroke-linejoin:miter;stroke:rgb(0%,0%,0%);stroke-opacity:1;stroke-miterlimit:10;" />
    <path
       id="path36"
       transform="matrix(0.1,0,0,-0.1,0,281.14)"
       d="M 710.117188 2558.939063 L 789.492188 2558.939063 "
       style="fill:none;stroke-width:15.9404;stroke-linecap:butt;stroke-linejoin:miter;stroke:rgb(0%,0%,0%);stroke-opacity:1;stroke-miterlimit:10;" />
    <path
       id="path38"
       d="M 71.1875 14.738281 C 71.414063 15.707031 72.242188 15.914063 72.65625 15.914063 C 73.210938 15.914063 73.625 15.550781 73.898438 14.964844 C 74.195313 14.34375 74.417969 13.324219 74.417969 13.269531 C 74.417969 13.183594 74.347656 13.113281 74.246094 13.113281 C 74.089844 13.113281 74.074219 13.199219 74.003906 13.460938 C 73.691406 14.652344 73.382813 15.566406 72.691406 15.566406 C 72.171875 15.566406 72.171875 14.996094 72.171875 14.773438 C 72.171875 14.375 72.226563 14.203125 72.398438 13.476563 C 72.519531 13.011719 72.640625 12.546875 72.742188 12.0625 L 73.453125 9.246094 C 73.570313 8.816406 73.570313 8.78125 73.570313 8.730469 C 73.570313 8.46875 73.363281 8.296875 73.105469 8.296875 C 72.605469 8.296875 72.484375 8.730469 72.378906 9.160156 C 72.207031 9.835938 71.273438 13.546875 71.15625 14.152344 C 71.136719 14.152344 70.464844 15.566406 69.203125 15.566406 C 68.304688 15.566406 68.132813 14.789063 68.132813 14.152344 C 68.132813 13.167969 68.617188 11.785156 69.0625 10.628906 C 69.273438 10.074219 69.359375 9.851563 69.359375 9.507813 C 69.359375 8.761719 68.824219 8.125 67.992188 8.125 C 66.40625 8.125 65.765625 10.628906 65.765625 10.765625 C 65.765625 10.835938 65.835938 10.921875 65.957031 10.921875 C 66.109375 10.921875 66.128906 10.851563 66.199219 10.609375 C 66.613281 9.125 67.285156 8.46875 67.941406 8.46875 C 68.117188 8.46875 68.390625 8.488281 68.390625 9.039063 C 68.390625 9.488281 68.203125 9.988281 67.941406 10.644531 C 67.183594 12.699219 67.09375 13.355469 67.09375 13.875 C 67.09375 15.636719 68.425781 15.914063 69.132813 15.914063 C 70.238281 15.914063 70.84375 15.152344 71.1875 14.738281 "
       style=" stroke:none;fill-rule:nonzero;fill:rgb(0%,0%,100%);fill-opacity:1;" />
    <path
       id="path40"
       d="M 83.804688 10.054688 C 83.804688 9.949219 83.722656 9.949219 83.695313 9.949219 C 83.671875 9.949219 83.625 9.949219 83.53125 10.066406 L 82.707031 11.066406 C 82.289063 10.355469 81.632813 9.949219 80.742188 9.949219 C 78.164063 9.949219 75.496094 12.558594 75.496094 15.359375 C 75.496094 17.351563 76.890625 18.589844 78.632813 18.589844 C 79.585938 18.589844 80.417969 18.183594 81.109375 17.601563 C 82.148438 16.730469 82.457031 15.574219 82.457031 15.480469 C 82.457031 15.371094 82.363281 15.371094 82.328125 15.371094 C 82.21875 15.371094 82.207031 15.441406 82.183594 15.492188 C 81.632813 17.351563 80.027344 18.246094 78.835938 18.246094 C 77.570313 18.246094 76.472656 17.433594 76.472656 15.742188 C 76.472656 15.359375 76.59375 13.285156 77.9375 11.722656 C 78.59375 10.960938 79.714844 10.292969 80.847656 10.292969 C 82.160156 10.292969 82.742188 11.378906 82.742188 12.59375 C 82.742188 12.902344 82.707031 13.167969 82.707031 13.214844 C 82.707031 13.320313 82.828125 13.320313 82.863281 13.320313 C 82.992188 13.320313 83.007813 13.308594 83.054688 13.09375 L 83.804688 10.054688 "
       style=" stroke:none;fill-rule:nonzero;fill:rgb(0%,0%,100%);fill-opacity:1;" />
    <path
       id="path42"
       d="M 78.949219 249.1875 L 78.949219 254.855469 L 71.808594 252.019531 "
       style=" stroke:none;fill-rule:nonzero;fill:rgb(0%,0%,0%);fill-opacity:1;" />
    <path
       id="path44"
       transform="matrix(0.1,0,0,-0.1,0,281.14)"
       d="M 789.492188 319.525 L 789.492188 262.845313 L 718.085938 291.204688 Z M 789.492188 319.525 "
       style="fill:none;stroke-width:15.9404;stroke-linecap:butt;stroke-linejoin:miter;stroke:rgb(0%,0%,0%);stroke-opacity:1;stroke-miterlimit:10;" />
    <path
       id="path46"
       transform="matrix(0.1,0,0,-0.1,0,281.14)"
       d="M 789.492188 291.204688 L 710.117188 291.204688 "
       style="fill:none;stroke-width:15.9404;stroke-linecap:butt;stroke-linejoin:miter;stroke:rgb(0%,0%,0%);stroke-opacity:1;stroke-miterlimit:10;" />
    <path
       id="path48"
       d="M 72.085938 267.769531 C 72.085938 267.683594 72.019531 267.613281 71.914063 267.613281 C 71.757813 267.613281 71.742188 267.667969 71.65625 267.960938 C 71.207031 269.53125 70.5 270.066406 69.929688 270.066406 C 69.722656 270.066406 69.480469 270.015625 69.480469 269.496094 C 69.480469 269.03125 69.6875 268.511719 69.875 267.996094 L 71.085938 264.78125 C 71.136719 264.644531 71.257813 264.332031 71.257813 264.003906 C 71.257813 263.28125 70.742188 262.625 69.894531 262.625 C 68.304688 262.625 67.664063 265.128906 67.664063 265.265625 C 67.664063 265.335938 67.734375 265.421875 67.855469 265.421875 C 68.011719 265.421875 68.03125 265.351563 68.097656 265.109375 C 68.511719 263.660156 69.167969 262.96875 69.84375 262.96875 C 69.996094 262.96875 70.289063 262.988281 70.289063 263.539063 C 70.289063 263.988281 70.066406 264.558594 69.929688 264.9375 L 68.71875 268.152344 C 68.617188 268.425781 68.511719 268.703125 68.511719 269.011719 C 68.511719 269.792969 69.046875 270.414063 69.875 270.414063 C 71.464844 270.414063 72.085938 267.890625 72.085938 267.769531 Z M 71.949219 259.464844 C 71.949219 259.207031 71.742188 258.894531 71.363281 258.894531 C 70.964844 258.894531 70.515625 259.273438 70.515625 259.722656 C 70.515625 260.152344 70.878906 260.292969 71.085938 260.292969 C 71.550781 260.292969 71.949219 259.84375 71.949219 259.464844 "
       style=" stroke:none;fill-rule:nonzero;fill:rgb(0%,0%,100%);fill-opacity:1;" />
    <path
       id="path50"
       d="M 81.90625 264.554688 C 81.90625 264.449219 81.820313 264.449219 81.796875 264.449219 C 81.773438 264.449219 81.726563 264.449219 81.628906 264.566406 L 80.808594 265.566406 C 80.390625 264.855469 79.734375 264.449219 78.839844 264.449219 C 76.265625 264.449219 73.59375 267.058594 73.59375 269.859375 C 73.59375 271.851563 74.992188 273.089844 76.730469 273.089844 C 77.683594 273.089844 78.519531 272.683594 79.210938 272.101563 C 80.246094 271.230469 80.558594 270.074219 80.558594 269.980469 C 80.558594 269.871094 80.460938 269.871094 80.425781 269.871094 C 80.320313 269.871094 80.308594 269.941406 80.28125 269.992188 C 79.734375 271.851563 78.125 272.746094 76.933594 272.746094 C 75.671875 272.746094 74.574219 271.933594 74.574219 270.242188 C 74.574219 269.859375 74.691406 267.785156 76.039063 266.222656 C 76.695313 265.460938 77.816406 264.792969 78.949219 264.792969 C 80.257813 264.792969 80.84375 265.878906 80.84375 267.09375 C 80.84375 267.402344 80.808594 267.667969 80.808594 267.714844 C 80.808594 267.820313 80.925781 267.820313 80.960938 267.820313 C 81.09375 267.820313 81.105469 267.808594 81.152344 267.59375 L 81.90625 264.554688 "
       style=" stroke:none;fill-rule:nonzero;fill:rgb(0%,0%,100%);fill-opacity:1;" />
    <path
       id="path52"
       transform="matrix(0.1,0,0,-0.1,0,281.14)"
       d="M 2365.585938 1198.275 L 2819.101563 1198.275 L 2819.101563 1651.829688 L 2365.585938 1651.829688 Z M 2365.585938 1198.275 "
       style="fill:none;stroke-width:15.9404;stroke-linecap:butt;stroke-linejoin:miter;stroke:rgb(0%,0%,0%);stroke-opacity:1;stroke-miterlimit:10;" />
    <path
       id="path54"
       d="M 259.734375 128.5 C 259.734375 128.222656 259.734375 128.214844 259.496094 128.214844 C 259.207031 128.535156 258.613281 128.976563 257.382813 128.976563 L 257.382813 129.320313 C 257.660156 129.320313 258.253906 129.320313 258.910156 129.011719 L 258.910156 135.222656 C 258.910156 135.652344 258.875 135.796875 257.828125 135.796875 L 257.457031 135.796875 L 257.457031 136.140625 C 257.777344 136.117188 258.933594 136.117188 259.328125 136.117188 C 259.722656 136.117188 260.867188 136.117188 261.1875 136.140625 L 261.1875 135.796875 L 260.816406 135.796875 C 259.769531 135.796875 259.734375 135.652344 259.734375 135.222656 L 259.734375 128.5 "
       style=" stroke:none;fill-rule:nonzero;fill:rgb(0%,0%,100%);fill-opacity:1;" />
    <path
       id="path56"
       transform="matrix(0.1,0,0,-0.1,0,281.14)"
       d="M 2547.304688 1425.384375 L 2637.382813 1425.384375 "
       style="fill:none;stroke-width:3.985;stroke-linecap:butt;stroke-linejoin:miter;stroke:rgb(0%,0%,100%);stroke-opacity:1;stroke-miterlimit:10;" />
    <path
       id="path58"
       d="M 259.089844 141.507813 C 259.195313 141.066406 259.242188 141.046875 259.707031 141.046875 L 260.566406 141.046875 C 261.589844 141.046875 262.351563 141.355469 262.351563 142.285156 C 262.351563 142.890625 262.042969 144.644531 259.648438 144.644531 L 258.300781 144.644531 Z M 260.742188 144.785156 C 262.222656 144.464844 263.378906 143.511719 263.378906 142.488281 C 263.378906 141.558594 262.4375 140.699219 260.78125 140.699219 L 257.546875 140.699219 C 257.3125 140.699219 257.203125 140.699219 257.203125 140.925781 C 257.203125 141.046875 257.289063 141.046875 257.511719 141.046875 C 258.226563 141.046875 258.226563 141.140625 258.226563 141.269531 C 258.226563 141.296875 258.226563 141.367188 258.179688 141.546875 L 256.570313 147.957031 C 256.464844 148.375 256.441406 148.496094 255.617188 148.496094 C 255.34375 148.496094 255.261719 148.496094 255.261719 148.722656 C 255.261719 148.839844 255.390625 148.839844 255.425781 148.839844 C 255.640625 148.839844 255.890625 148.816406 256.117188 148.816406 L 257.523438 148.816406 C 257.738281 148.816406 257.992188 148.839844 258.203125 148.839844 C 258.300781 148.839844 258.429688 148.839844 258.429688 148.613281 C 258.429688 148.496094 258.324219 148.496094 258.144531 148.496094 C 257.417969 148.496094 257.417969 148.398438 257.417969 148.277344 C 257.417969 148.269531 257.417969 148.183594 257.441406 148.089844 L 258.242188 144.882813 L 259.671875 144.882813 C 260.804688 144.882813 261.015625 145.597656 261.015625 145.992188 C 261.015625 146.171875 260.898438 146.636719 260.816406 146.945313 C 260.683594 147.492188 260.648438 147.625 260.648438 147.851563 C 260.648438 148.695313 261.339844 149.089844 262.140625 149.089844 C 263.105469 149.089844 263.523438 147.910156 263.523438 147.742188 C 263.523438 147.660156 263.460938 147.625 263.390625 147.625 C 263.296875 147.625 263.269531 147.695313 263.246094 147.792969 C 262.960938 148.636719 262.472656 148.851563 262.171875 148.851563 C 261.878906 148.851563 261.6875 148.722656 261.6875 148.183594 C 261.6875 147.898438 261.828125 146.8125 261.839844 146.753906 C 261.898438 146.3125 261.898438 146.265625 261.898438 146.171875 C 261.898438 145.300781 261.195313 144.929688 260.742188 144.785156 "
       style=" stroke:none;fill-rule:nonzero;fill:rgb(0%,0%,100%);fill-opacity:1;" />
    <path
       id="path60"
       d="M 212.746094 28.082031 L 212.746094 22.410156 L 219.886719 25.246094 "
       style=" stroke:none;fill-rule:nonzero;fill:rgb(0%,0%,0%);fill-opacity:1;" />
    <path
       id="path62"
       transform="matrix(0.1,0,0,-0.1,0,281.14)"
       d="M 2127.460938 2530.579688 L 2127.460938 2587.298438 L 2198.867188 2558.939063 Z M 2127.460938 2530.579688 "
       style="fill:none;stroke-width:15.9404;stroke-linecap:butt;stroke-linejoin:miter;stroke:rgb(0%,0%,0%);stroke-opacity:1;stroke-miterlimit:10;" />
    <path
       id="path64"
       transform="matrix(0.1,0,0,-0.1,0,281.14)"
       d="M 2127.460938 2558.939063 L 2206.835938 2558.939063 "
       style="fill:none;stroke-width:15.9404;stroke-linecap:butt;stroke-linejoin:miter;stroke:rgb(0%,0%,0%);stroke-opacity:1;stroke-miterlimit:10;" />
    <path
       id="path66"
       d="M 213.089844 14.738281 C 213.3125 15.707031 214.140625 15.914063 214.554688 15.914063 C 215.109375 15.914063 215.523438 15.550781 215.800781 14.964844 C 216.09375 14.34375 216.320313 13.324219 216.320313 13.269531 C 216.320313 13.183594 216.246094 13.113281 216.144531 13.113281 C 215.992188 13.113281 215.972656 13.199219 215.902344 13.460938 C 215.59375 14.652344 215.28125 15.566406 214.589844 15.566406 C 214.074219 15.566406 214.074219 14.996094 214.074219 14.773438 C 214.074219 14.375 214.125 14.203125 214.296875 13.476563 C 214.417969 13.011719 214.539063 12.546875 214.644531 12.0625 L 215.351563 9.246094 C 215.472656 8.816406 215.472656 8.78125 215.472656 8.730469 C 215.472656 8.46875 215.265625 8.296875 215.007813 8.296875 C 214.503906 8.296875 214.382813 8.730469 214.28125 9.160156 C 214.109375 9.835938 213.175781 13.546875 213.054688 14.152344 C 213.039063 14.152344 212.363281 15.566406 211.101563 15.566406 C 210.203125 15.566406 210.03125 14.789063 210.03125 14.152344 C 210.03125 13.167969 210.515625 11.785156 210.964844 10.628906 C 211.171875 10.074219 211.257813 9.851563 211.257813 9.507813 C 211.257813 8.761719 210.722656 8.125 209.894531 8.125 C 208.304688 8.125 207.664063 10.628906 207.664063 10.765625 C 207.664063 10.835938 207.734375 10.921875 207.855469 10.921875 C 208.011719 10.921875 208.03125 10.851563 208.097656 10.609375 C 208.511719 9.125 209.1875 8.46875 209.84375 8.46875 C 210.015625 8.46875 210.289063 8.488281 210.289063 9.039063 C 210.289063 9.488281 210.101563 9.988281 209.84375 10.644531 C 209.082031 12.699219 208.996094 13.355469 208.996094 13.875 C 208.996094 15.636719 210.324219 15.914063 211.035156 15.914063 C 212.140625 15.914063 212.742188 15.152344 213.089844 14.738281 "
       style=" stroke:none;fill-rule:nonzero;fill:rgb(0%,0%,100%);fill-opacity:1;" />
    <path
       id="path68"
       d="M 221.1875 11.007813 C 221.292969 10.566406 221.34375 10.546875 221.804688 10.546875 L 222.664063 10.546875 C 223.691406 10.546875 224.453125 10.855469 224.453125 11.785156 C 224.453125 12.390625 224.144531 14.144531 221.746094 14.144531 L 220.398438 14.144531 Z M 222.84375 14.285156 C 224.320313 13.964844 225.476563 13.011719 225.476563 11.988281 C 225.476563 11.058594 224.535156 10.199219 222.878906 10.199219 L 219.648438 10.199219 C 219.410156 10.199219 219.304688 10.199219 219.304688 10.425781 C 219.304688 10.546875 219.386719 10.546875 219.613281 10.546875 C 220.328125 10.546875 220.328125 10.640625 220.328125 10.769531 C 220.328125 10.796875 220.328125 10.867188 220.28125 11.046875 L 218.671875 17.457031 C 218.5625 17.875 218.539063 17.996094 217.71875 17.996094 C 217.445313 17.996094 217.359375 17.996094 217.359375 18.222656 C 217.359375 18.339844 217.492188 18.339844 217.527344 18.339844 C 217.742188 18.339844 217.992188 18.316406 218.21875 18.316406 L 219.625 18.316406 C 219.839844 18.316406 220.089844 18.339844 220.304688 18.339844 C 220.398438 18.339844 220.53125 18.339844 220.53125 18.113281 C 220.53125 17.996094 220.421875 17.996094 220.246094 17.996094 C 219.515625 17.996094 219.515625 17.898438 219.515625 17.777344 C 219.515625 17.769531 219.515625 17.683594 219.542969 17.589844 L 220.339844 14.382813 L 221.769531 14.382813 C 222.902344 14.382813 223.117188 15.097656 223.117188 15.492188 C 223.117188 15.671875 222.996094 16.136719 222.914063 16.445313 C 222.785156 16.992188 222.746094 17.125 222.746094 17.351563 C 222.746094 18.195313 223.4375 18.589844 224.238281 18.589844 C 225.203125 18.589844 225.621094 17.410156 225.621094 17.242188 C 225.621094 17.160156 225.5625 17.125 225.492188 17.125 C 225.394531 17.125 225.371094 17.195313 225.347656 17.292969 C 225.0625 18.136719 224.570313 18.351563 224.273438 18.351563 C 223.976563 18.351563 223.785156 18.222656 223.785156 17.683594 C 223.785156 17.398438 223.929688 16.3125 223.941406 16.253906 C 224 15.8125 224 15.765625 224 15.671875 C 224 14.800781 223.296875 14.429688 222.84375 14.285156 "
       style=" stroke:none;fill-rule:nonzero;fill:rgb(0%,0%,100%);fill-opacity:1;" />
    <path
       id="path70"
       d="M 220.683594 249.1875 L 220.683594 254.855469 L 213.542969 252.019531 "
       style=" stroke:none;fill-rule:nonzero;fill:rgb(0%,0%,0%);fill-opacity:1;" />
    <path
       id="path72"
       transform="matrix(0.1,0,0,-0.1,0,281.14)"
       d="M 2206.835938 319.525 L 2206.835938 262.845313 L 2135.429688 291.204688 Z M 2206.835938 319.525 "
       style="fill:none;stroke-width:15.9404;stroke-linecap:butt;stroke-linejoin:miter;stroke:rgb(0%,0%,0%);stroke-opacity:1;stroke-miterlimit:10;" />
    <path
       id="path74"
       transform="matrix(0.1,0,0,-0.1,0,281.14)"
       d="M 2206.835938 291.204688 L 2127.460938 291.204688 "
       style="fill:none;stroke-width:15.9404;stroke-linecap:butt;stroke-linejoin:miter;stroke:rgb(0%,0%,0%);stroke-opacity:1;stroke-miterlimit:10;" />
    <path
       id="path76"
       d="M 213.988281 267.769531 C 213.988281 267.683594 213.917969 267.613281 213.8125 267.613281 C 213.660156 267.613281 213.640625 267.667969 213.554688 267.960938 C 213.105469 269.53125 212.398438 270.066406 211.828125 270.066406 C 211.621094 270.066406 211.378906 270.015625 211.378906 269.496094 C 211.378906 269.03125 211.589844 268.511719 211.777344 267.996094 L 212.984375 264.78125 C 213.039063 264.644531 213.15625 264.332031 213.15625 264.003906 C 213.15625 263.28125 212.640625 262.625 211.792969 262.625 C 210.203125 262.625 209.566406 265.128906 209.566406 265.265625 C 209.566406 265.335938 209.636719 265.421875 209.757813 265.421875 C 209.910156 265.421875 209.929688 265.351563 209.996094 265.109375 C 210.414063 263.660156 211.070313 262.96875 211.742188 262.96875 C 211.898438 262.96875 212.191406 262.988281 212.191406 263.539063 C 212.191406 263.988281 211.96875 264.558594 211.828125 264.9375 L 210.621094 268.152344 C 210.515625 268.425781 210.414063 268.703125 210.414063 269.011719 C 210.414063 269.792969 210.949219 270.414063 211.777344 270.414063 C 213.367188 270.414063 213.988281 267.890625 213.988281 267.769531 Z M 213.847656 259.464844 C 213.847656 259.207031 213.640625 258.894531 213.261719 258.894531 C 212.863281 258.894531 212.414063 259.273438 212.414063 259.722656 C 212.414063 260.152344 212.777344 260.292969 212.984375 260.292969 C 213.453125 260.292969 213.847656 259.84375 213.847656 259.464844 "
       style=" stroke:none;fill-rule:nonzero;fill:rgb(0%,0%,100%);fill-opacity:1;" />
    <path
       id="path78"
       d="M 219.1875 265.507813 C 219.292969 265.066406 219.34375 265.042969 219.804688 265.042969 L 220.664063 265.042969 C 221.691406 265.042969 222.453125 265.355469 222.453125 266.285156 C 222.453125 266.890625 222.144531 268.644531 219.746094 268.644531 L 218.398438 268.644531 Z M 220.84375 268.785156 C 222.320313 268.464844 223.476563 267.511719 223.476563 266.488281 C 223.476563 265.558594 222.535156 264.699219 220.878906 264.699219 L 217.648438 264.699219 C 217.410156 264.699219 217.304688 264.699219 217.304688 264.925781 C 217.304688 265.042969 217.386719 265.042969 217.613281 265.042969 C 218.328125 265.042969 218.328125 265.140625 218.328125 265.269531 C 218.328125 265.292969 218.328125 265.367188 218.28125 265.542969 L 216.671875 271.957031 C 216.5625 272.375 216.539063 272.496094 215.71875 272.496094 C 215.445313 272.496094 215.359375 272.496094 215.359375 272.722656 C 215.359375 272.839844 215.492188 272.839844 215.527344 272.839844 C 215.742188 272.839844 215.992188 272.816406 216.21875 272.816406 L 217.625 272.816406 C 217.839844 272.816406 218.089844 272.839844 218.304688 272.839844 C 218.398438 272.839844 218.53125 272.839844 218.53125 272.613281 C 218.53125 272.496094 218.421875 272.496094 218.246094 272.496094 C 217.515625 272.496094 217.515625 272.398438 217.515625 272.277344 C 217.515625 272.269531 217.515625 272.183594 217.542969 272.089844 L 218.339844 268.882813 L 219.769531 268.882813 C 220.902344 268.882813 221.117188 269.597656 221.117188 269.992188 C 221.117188 270.167969 220.996094 270.636719 220.914063 270.945313 C 220.785156 271.492188 220.746094 271.625 220.746094 271.851563 C 220.746094 272.695313 221.4375 273.089844 222.238281 273.089844 C 223.203125 273.089844 223.621094 271.910156 223.621094 271.742188 C 223.621094 271.660156 223.5625 271.625 223.492188 271.625 C 223.394531 271.625 223.371094 271.695313 223.347656 271.792969 C 223.0625 272.636719 222.570313 272.851563 222.273438 272.851563 C 221.976563 272.851563 221.785156 272.722656 221.785156 272.183594 C 221.785156 271.898438 221.929688 270.8125 221.941406 270.753906 C 222 270.3125 222 270.265625 222 270.167969 C 222 269.300781 221.296875 268.929688 220.84375 268.785156 "
       style=" stroke:none;fill-rule:nonzero;fill:rgb(0%,0%,100%);fill-opacity:1;" />
    <path
       id="path80"
       transform="matrix(0.1,0,0,-0.1,0,281.14)"
       d="M 1486.835938 2558.939063 C 1486.835938 2574.603125 1474.140625 2587.298438 1458.476563 2587.298438 C 1442.8125 2587.298438 1430.117188 2574.603125 1430.117188 2558.939063 C 1430.117188 2543.275 1442.8125 2530.579688 1458.476563 2530.579688 C 1474.140625 2530.579688 1486.835938 2543.275 1486.835938 2558.939063 Z M 1486.835938 2558.939063 "
       style="fill-rule:nonzero;fill:rgb(0%,0%,0%);fill-opacity:1;stroke-width:15.9404;stroke-linecap:butt;stroke-linejoin:miter;stroke:rgb(0%,0%,0%);stroke-opacity:1;stroke-miterlimit:10;" />
    <g
       id="g84"
       clip-rule="nonzero"
       clip-path="url(#clip1)">
      <path
         id="path82"
         transform="matrix(0.1,0,0,-0.1,0,281.14)"
         d="M 1628.554688 291.204688 C 1628.554688 385.110938 1552.421875 461.282813 1458.476563 461.282813 C 1364.53125 461.282813 1288.398438 385.110938 1288.398438 291.204688 C 1288.398438 197.259375 1364.53125 121.126563 1458.476563 121.126563 C 1552.421875 121.126563 1628.554688 197.259375 1628.554688 291.204688 Z M 1628.554688 291.204688 "
         style="fill:none;stroke-width:15.9404;stroke-linecap:butt;stroke-linejoin:miter;stroke:rgb(0%,0%,0%);stroke-opacity:1;stroke-miterlimit:10;" />
    </g>
    <path
       id="path86"
       d="M 145.679688 252.257813 C 145.796875 252.121094 145.796875 252.085938 145.796875 252.035156 C 145.796875 251.964844 145.730469 251.863281 145.714844 251.824219 L 142.3125 246.59375 L 146.488281 246.59375 C 149.355469 246.59375 150.21875 247.214844 150.515625 249.960938 L 150.824219 249.960938 L 150.410156 246.144531 L 141.273438 246.144531 C 140.910156 246.144531 140.894531 246.160156 140.894531 246.523438 L 144.882813 252.671875 L 141.03125 257.613281 C 140.910156 257.765625 140.910156 257.785156 140.910156 257.820313 C 140.910156 257.941406 141.015625 257.941406 141.273438 257.941406 L 150.410156 257.941406 L 150.824219 253.984375 L 150.515625 253.984375 C 150.238281 256.78125 149.253906 257.351563 146.453125 257.351563 L 141.6875 257.351563 L 145.679688 252.257813 "
       style=" stroke:none;fill-rule:nonzero;fill:rgb(0%,0%,100%);fill-opacity:1;" />
    <path
       id="path88"
       transform="matrix(0.1,0,0,-0.1,0,281.14)"
       d="M 1280.429688 291.204688 L 789.492188 291.204688 M 710.117188 291.204688 L 324.609375 291.204688 L 324.609375 623.392188 M 324.609375 1092.884375 L 324.609375 1385.384375 M 324.609375 1464.759375 L 324.609375 1757.259375 M 324.609375 2226.751563 L 324.609375 2558.939063 L 710.117188 2558.939063 M 789.492188 2558.939063 L 1426.132813 2558.939063 "
       style="fill:none;stroke-width:15.9404;stroke-linecap:butt;stroke-linejoin:miter;stroke:rgb(0%,0%,0%);stroke-opacity:1;stroke-miterlimit:10;" />
    <path
       id="path90"
       transform="matrix(0.1,0,0,-0.1,0,281.14)"
       d="M 1490.78125 2558.939063 L 2127.460938 2558.939063 M 2206.835938 2558.939063 L 2592.34375 2558.939063 L 2592.34375 1659.798438 M 2592.34375 1190.30625 L 2592.34375 291.204688 L 2206.835938 291.204688 M 2127.460938 291.204688 L 1636.523438 291.204688 "
       style="fill:none;stroke-width:15.9404;stroke-linecap:butt;stroke-linejoin:miter;stroke:rgb(0%,0%,0%);stroke-opacity:1;stroke-miterlimit:10;" />
    <g
       id="g94"
       clip-rule="nonzero"
       clip-path="url(#clip2)">
      <path
         id="path92"
         transform="matrix(0.1,0,0,-0.1,0,281.14)"
         d="M 1639.882813 200.501563 L 1730.585938 200.501563 "
         style="fill:none;stroke-width:15.9404;stroke-linecap:butt;stroke-linejoin:miter;stroke:rgb(0%,0%,0%);stroke-opacity:1;stroke-miterlimit:10;" />
    </g>
  </g>
</svg>
