<?xml version="1.0" encoding="UTF-8" standalone="no"?>
<svg
   xmlns:dc="http://purl.org/dc/elements/1.1/"
   xmlns:cc="http://creativecommons.org/ns#"
   xmlns:rdf="http://www.w3.org/1999/02/22-rdf-syntax-ns#"
   xmlns:svg="http://www.w3.org/2000/svg"
   xmlns="http://www.w3.org/2000/svg"
   id="svg99"
   version="1.2"
   viewBox="0 0 251.13 168.88"
   height="168.88pt"
   width="251.13pt">
  <metadata
     id="metadata103">
    <rdf:RDF>
      <cc:Work
         rdf:about="">
        <dc:format>image/svg+xml</dc:format>
        <dc:type
           rdf:resource="http://purl.org/dc/dcmitype/StillImage" />
      </cc:Work>
    </rdf:RDF>
  </metadata>
  <defs
     id="defs14">
    <clipPath
       id="clip1">
      <path
         id="path2"
         d="M 77.445313 26.507813 L 86.519531 26.507813 L 86.519531 35.578125 L 77.445313 35.578125 Z M 77.445313 26.507813 " />
    </clipPath>
    <clipPath
       id="clip2">
      <path
         id="path5"
         d="M 77.445313 115 L 86.515625 115 L 86.515625 118 L 77.445313 118 Z M 77.445313 115 " />
    </clipPath>
    <clipPath
       id="clip3">
      <path
         id="path8"
         d="M 170.605469 26.507813 L 179.675781 26.507813 L 179.675781 35.578125 L 170.605469 35.578125 Z M 170.605469 26.507813 " />
    </clipPath>
    <clipPath
       id="clip4">
      <path
         id="path11"
         d="M 170.605469 115 L 179.675781 115 L 179.675781 118 L 170.605469 118 Z M 170.605469 115 " />
    </clipPath>
  </defs>
  <g
     id="surface1">
    <path
       id="path16"
       transform="matrix(0.1,0,0,-0.1,0,168.88)"
       d="M 548.59375 922.354688 L 321.796875 922.354688 M 548.59375 979.034375 L 321.796875 979.034375 "
       style="fill:none;stroke-width:15.9404;stroke-linecap:butt;stroke-linejoin:miter;stroke:rgb(0%,0%,0%);stroke-opacity:1;stroke-miterlimit:10;" />
    <path
       id="path18"
       transform="matrix(0.1,0,0,-0.1,0,168.88)"
       d="M 276.054688 834.034375 L 276.054688 1092.432813 "
       style="fill:none;stroke-width:15.9404;stroke-linecap:butt;stroke-linejoin:miter;stroke:rgb(0%,0%,0%);stroke-opacity:1;stroke-miterlimit:10;" />
    <path
       id="path20"
       d="M 29.523438 82.96875 L 27.605469 87.984375 L 25.6875 82.96875 "
       style=" stroke:none;fill-rule:nonzero;fill:rgb(0%,0%,0%);fill-opacity:1;" />
    <path
       id="path22"
       transform="matrix(0.1,0,0,-0.1,0,168.88)"
       d="M 295.234375 859.1125 L 276.054688 808.95625 L 256.875 859.1125 Z M 295.234375 859.1125 "
       style="fill:none;stroke-width:15.9404;stroke-linecap:butt;stroke-linejoin:round;stroke:rgb(0%,0%,0%);stroke-opacity:1;stroke-miterlimit:10;" />
    <path
       id="path24"
       d="M 21.199219 67.679688 C 21.199219 67.523438 21.078125 67.523438 21.046875 67.523438 C 21.011719 67.523438 20.941406 67.523438 20.804688 67.695313 L 19.609375 69.144531 C 19.007813 68.109375 18.058594 67.523438 16.761719 67.523438 C 13.03125 67.523438 9.164063 71.304688 9.164063 75.363281 C 9.164063 78.246094 11.183594 80.042969 13.703125 80.042969 C 15.085938 80.042969 16.296875 79.453125 17.296875 78.609375 C 18.800781 77.347656 19.25 75.671875 19.25 75.535156 C 19.25 75.378906 19.109375 75.378906 19.058594 75.378906 C 18.902344 75.378906 18.886719 75.484375 18.851563 75.550781 C 18.058594 78.246094 15.726563 79.542969 14 79.542969 C 12.167969 79.542969 10.578125 78.367188 10.578125 75.914063 C 10.578125 75.363281 10.75 72.359375 12.703125 70.09375 C 13.652344 68.992188 15.277344 68.023438 16.917969 68.023438 C 18.816406 68.023438 19.664063 69.59375 19.664063 71.355469 C 19.664063 71.804688 19.609375 72.183594 19.609375 72.253906 C 19.609375 72.410156 19.785156 72.410156 19.835938 72.410156 C 20.027344 72.410156 20.042969 72.390625 20.113281 72.082031 L 21.199219 67.679688 "
       style=" stroke:none;fill-rule:nonzero;fill:rgb(0%,0%,100%);fill-opacity:1;" />
    <path
       id="path26"
       transform="matrix(0.1,0,0,-0.1,0,168.88)"
       d="M 747.03125 1517.628125 C 747.03125 1533.292188 734.335938 1545.9875 718.671875 1545.9875 C 703.007813 1545.9875 690.3125 1533.292188 690.3125 1517.628125 C 690.3125 1501.964063 703.007813 1489.26875 718.671875 1489.26875 C 734.335938 1489.26875 747.03125 1501.964063 747.03125 1517.628125 Z M 747.03125 1517.628125 "
       style="fill-rule:nonzero;fill:rgb(0%,0%,0%);fill-opacity:1;stroke-width:15.9404;stroke-linecap:butt;stroke-linejoin:miter;stroke:rgb(0%,0%,0%);stroke-opacity:1;stroke-miterlimit:10;" />
    <path
       id="path28"
       transform="matrix(0.1,0,0,-0.1,0,168.88)"
       d="M 1172.226563 1517.628125 L 1398.984375 1631.026563 "
       style="fill:none;stroke-width:15.9404;stroke-linecap:round;stroke-linejoin:miter;stroke:rgb(0%,0%,0%);stroke-opacity:1;stroke-miterlimit:10;" />
    <path
       id="path30"
       transform="matrix(0.1,0,0,-0.1,0,168.88)"
       d="M 1880.898438 1517.628125 C 1880.898438 1533.292188 1868.203125 1545.9875 1852.539063 1545.9875 C 1836.875 1545.9875 1824.21875 1533.292188 1824.21875 1517.628125 C 1824.21875 1501.964063 1836.875 1489.26875 1852.539063 1489.26875 C 1868.203125 1489.26875 1880.898438 1501.964063 1880.898438 1517.628125 Z M 1880.898438 1517.628125 "
       style="fill-rule:nonzero;fill:rgb(0%,0%,0%);fill-opacity:1;stroke-width:15.9404;stroke-linecap:butt;stroke-linejoin:miter;stroke:rgb(0%,0%,0%);stroke-opacity:1;stroke-miterlimit:10;" />
    <path
       id="path32"
       transform="matrix(0.1,0,0,-0.1,0,168.88)"
       d="M 2079.335938 723.917188 L 2192.695313 723.917188 L 2192.695313 1177.471875 L 2079.335938 1177.471875 Z M 2079.335938 723.917188 "
       style="fill:none;stroke-width:15.9404;stroke-linecap:butt;stroke-linejoin:miter;stroke:rgb(0%,0%,0%);stroke-opacity:1;stroke-miterlimit:10;" />
    <path
       id="path34"
       transform="matrix(0.1,0,0,-0.1,0,168.88)"
       d="M 2238.476563 1092.432813 L 2238.476563 834.034375 "
       style="fill:none;stroke-width:15.9404;stroke-linecap:butt;stroke-linejoin:miter;stroke:rgb(0%,0%,0%);stroke-opacity:1;stroke-miterlimit:10;" />
    <path
       id="path36"
       d="M 225.765625 82.972656 L 223.847656 87.984375 L 221.929688 82.972656 "
       style=" stroke:none;fill-rule:nonzero;fill:rgb(0%,0%,0%);fill-opacity:1;" />
    <path
       id="path38"
       transform="matrix(0.1,0,0,-0.1,0,168.88)"
       d="M 2257.65625 859.073438 L 2238.476563 808.95625 L 2219.296875 859.073438 Z M 2257.65625 859.073438 "
       style="fill:none;stroke-width:15.9404;stroke-linecap:butt;stroke-linejoin:round;stroke:rgb(0%,0%,0%);stroke-opacity:1;stroke-miterlimit:10;" />
    <path
       id="path40"
       d="M 236.253906 69.058594 C 236.410156 68.421875 236.480469 68.386719 237.152344 68.386719 L 238.398438 68.386719 C 239.882813 68.386719 240.988281 68.835938 240.988281 70.179688 C 240.988281 71.0625 240.539063 73.601563 237.066406 73.601563 L 235.117188 73.601563 Z M 238.65625 73.808594 C 240.796875 73.34375 242.472656 71.960938 242.472656 70.476563 C 242.472656 69.128906 241.109375 67.886719 238.707031 67.886719 L 234.027344 67.886719 C 233.679688 67.886719 233.527344 67.886719 233.527344 68.214844 C 233.527344 68.386719 233.648438 68.386719 233.976563 68.386719 C 235.011719 68.386719 235.011719 68.523438 235.011719 68.714844 C 235.011719 68.75 235.011719 68.851563 234.941406 69.109375 L 232.609375 78.402344 C 232.457031 79.007813 232.421875 79.179688 231.230469 79.179688 C 230.832031 79.179688 230.710938 79.179688 230.710938 79.507813 C 230.710938 79.679688 230.902344 79.679688 230.953125 79.679688 C 231.265625 79.679688 231.628906 79.644531 231.953125 79.644531 L 233.992188 79.644531 C 234.304688 79.644531 234.664063 79.679688 234.976563 79.679688 C 235.117188 79.679688 235.304688 79.679688 235.304688 79.351563 C 235.304688 79.179688 235.148438 79.179688 234.890625 79.179688 C 233.839844 79.179688 233.839844 79.039063 233.839844 78.867188 C 233.839844 78.851563 233.839844 78.730469 233.871094 78.59375 L 235.03125 73.945313 L 237.101563 73.945313 C 238.742188 73.945313 239.054688 74.984375 239.054688 75.550781 C 239.054688 75.8125 238.878906 76.484375 238.757813 76.933594 C 238.570313 77.726563 238.515625 77.917969 238.515625 78.246094 C 238.515625 79.472656 239.519531 80.042969 240.675781 80.042969 C 242.074219 80.042969 242.679688 78.332031 242.679688 78.089844 C 242.679688 77.96875 242.59375 77.917969 242.488281 77.917969 C 242.351563 77.917969 242.316406 78.023438 242.28125 78.160156 C 241.867188 79.386719 241.160156 79.695313 240.726563 79.695313 C 240.296875 79.695313 240.019531 79.507813 240.019531 78.730469 C 240.019531 78.316406 240.226563 76.742188 240.242188 76.65625 C 240.332031 76.019531 240.332031 75.949219 240.332031 75.8125 C 240.332031 74.550781 239.3125 74.015625 238.65625 73.808594 "
       style=" stroke:none;fill-rule:nonzero;fill:rgb(0%,0%,100%);fill-opacity:1;" />
    <path
       id="path42"
       transform="matrix(0.1,0,0,-0.1,0,168.88)"
       d="M 1880.898438 383.760938 C 1880.898438 399.425 1868.203125 412.120313 1852.539063 412.120313 C 1836.875 412.120313 1824.21875 399.425 1824.21875 383.760938 C 1824.21875 368.096875 1836.875 355.401563 1852.539063 355.401563 C 1868.203125 355.401563 1880.898438 368.096875 1880.898438 383.760938 Z M 1880.898438 383.760938 "
       style="fill-rule:nonzero;fill:rgb(0%,0%,0%);fill-opacity:1;stroke-width:15.9404;stroke-linecap:butt;stroke-linejoin:miter;stroke:rgb(0%,0%,0%);stroke-opacity:1;stroke-miterlimit:10;" />
    <path
       id="path44"
       transform="matrix(0.1,0,0,-0.1,0,168.88)"
       d="M 1313.945313 383.760938 C 1313.945313 399.425 1301.289063 412.120313 1285.625 412.120313 C 1269.960938 412.120313 1257.265625 399.425 1257.265625 383.760938 C 1257.265625 368.096875 1269.960938 355.401563 1285.625 355.401563 C 1301.289063 355.401563 1313.945313 368.096875 1313.945313 383.760938 Z M 1313.945313 383.760938 "
       style="fill-rule:nonzero;fill:rgb(0%,0%,0%);fill-opacity:1;stroke-width:15.9404;stroke-linecap:butt;stroke-linejoin:miter;stroke:rgb(0%,0%,0%);stroke-opacity:1;stroke-miterlimit:10;" />
    <path
       id="path46"
       transform="matrix(0.1,0,0,-0.1,0,168.88)"
       d="M 747.03125 383.760938 C 747.03125 399.425 734.335938 412.120313 718.671875 412.120313 C 703.007813 412.120313 690.3125 399.425 690.3125 383.760938 C 690.3125 368.096875 703.007813 355.401563 718.671875 355.401563 C 734.335938 355.401563 747.03125 368.096875 747.03125 383.760938 Z M 747.03125 383.760938 "
       style="fill-rule:nonzero;fill:rgb(0%,0%,0%);fill-opacity:1;stroke-width:15.9404;stroke-linecap:butt;stroke-linejoin:miter;stroke:rgb(0%,0%,0%);stroke-opacity:1;stroke-miterlimit:10;" />
    <path
       id="path48"
       transform="matrix(0.1,0,0,-0.1,0,168.88)"
       d="M 435.195313 383.760938 L 435.195313 914.385938 M 435.195313 987.003125 L 435.195313 1517.628125 L 686.328125 1517.628125 M 751.015625 1517.628125 L 1172.226563 1517.628125 M 1398.984375 1517.628125 L 1820.195313 1517.628125 M 1884.882813 1517.628125 L 2136.015625 1517.628125 L 2136.015625 1185.440625 M 2136.015625 715.948438 L 2136.015625 383.760938 L 1884.882813 383.760938 M 1820.195313 383.760938 L 1317.929688 383.760938 M 1253.28125 383.760938 L 751.015625 383.760938 M 686.328125 383.760938 L 435.195313 383.760938 "
       style="fill:none;stroke-width:15.9404;stroke-linecap:round;stroke-linejoin:miter;stroke:rgb(0%,0%,0%);stroke-opacity:1;stroke-miterlimit:10;" />
    <path
       id="path50"
       transform="matrix(0.1,0,0,-0.1,0,168.88)"
       d="M 1285.625 351.417188 L 1285.625 150.792188 "
       style="fill:none;stroke-width:15.9404;stroke-linecap:round;stroke-linejoin:miter;stroke:rgb(0%,0%,0%);stroke-opacity:1;stroke-miterlimit:10;" />
    <path
       id="path52"
       transform="matrix(0.1,0,0,-0.1,0,168.88)"
       d="M 1172.226563 142.823438 L 1398.984375 142.823438 M 1210.039063 100.284375 L 1361.210938 100.284375 M 1247.8125 57.784375 L 1323.398438 57.784375 "
       style="fill:none;stroke-width:15.9404;stroke-linecap:round;stroke-linejoin:miter;stroke:rgb(0%,0%,0%);stroke-opacity:1;stroke-miterlimit:10;" />
    <path
       id="path54"
       transform="matrix(0.1,0,0,-0.1,0,168.88)"
       d="M 718.671875 1379.229688 L 718.671875 522.159375 "
       style="fill:none;stroke-width:11.9553;stroke-linecap:butt;stroke-linejoin:miter;stroke:rgb(0%,0%,0%);stroke-opacity:1;stroke-miterlimit:10;" />
    <path
       id="path56"
       d="M 71.867188 25.648438 C 71.703125 26.300781 70.777344 29.164063 69.769531 30.957031 L 73.964844 30.957031 C 72.957031 29.164063 72.03125 26.300781 71.867188 25.648438 "
       style=" stroke:none;fill-rule:nonzero;fill:rgb(0%,0%,0%);fill-opacity:1;" />
    <path
       id="path58"
       transform="matrix(0.1,0,0,-0.1,0,168.88)"
       d="M 718.671875 1432.315625 C 717.03125 1425.792188 707.773438 1397.159375 697.695313 1379.229688 L 739.648438 1379.229688 C 729.570313 1397.159375 720.3125 1425.792188 718.671875 1432.315625 Z M 718.671875 1432.315625 "
       style="fill:none;stroke-width:11.9553;stroke-linecap:butt;stroke-linejoin:miter;stroke:rgb(0%,0%,0%);stroke-opacity:1;stroke-miterlimit:10;" />
    <path
       id="path60"
       d="M 71.867188 121.972656 C 72.03125 121.320313 72.957031 118.457031 73.964844 116.664063 L 69.769531 116.664063 C 70.777344 118.457031 71.703125 121.320313 71.867188 121.972656 "
       style=" stroke:none;fill-rule:nonzero;fill:rgb(0%,0%,0%);fill-opacity:1;" />
    <path
       id="path62"
       transform="matrix(0.1,0,0,-0.1,0,168.88)"
       d="M 718.671875 469.073438 C 720.3125 475.596875 729.570313 504.229688 739.648438 522.159375 L 697.695313 522.159375 C 707.773438 504.229688 717.03125 475.596875 718.671875 469.073438 Z M 718.671875 469.073438 "
       style="fill:none;stroke-width:11.9553;stroke-linecap:butt;stroke-linejoin:miter;stroke:rgb(0%,0%,0%);stroke-opacity:1;stroke-miterlimit:10;" />
    <path
       id="path64"
       d="M 81.6875 75.179688 C 81.914063 76.144531 82.742188 76.351563 83.15625 76.351563 C 83.710938 76.351563 84.125 75.988281 84.398438 75.402344 C 84.695313 74.78125 84.917969 73.761719 84.917969 73.710938 C 84.917969 73.625 84.847656 73.554688 84.746094 73.554688 C 84.589844 73.554688 84.574219 73.640625 84.503906 73.898438 C 84.191406 75.09375 83.882813 76.007813 83.191406 76.007813 C 82.671875 76.007813 82.671875 75.4375 82.671875 75.210938 C 82.671875 74.816406 82.726563 74.640625 82.898438 73.917969 C 83.019531 73.453125 83.140625 72.984375 83.242188 72.5 L 83.953125 69.6875 C 84.070313 69.253906 84.070313 69.21875 84.070313 69.167969 C 84.070313 68.910156 83.863281 68.734375 83.605469 68.734375 C 83.105469 68.734375 82.984375 69.167969 82.878906 69.601563 C 82.707031 70.273438 81.773438 73.984375 81.65625 74.589844 C 81.636719 74.589844 80.964844 76.007813 79.703125 76.007813 C 78.804688 76.007813 78.632813 75.230469 78.632813 74.589844 C 78.632813 73.605469 79.117188 72.226563 79.5625 71.066406 C 79.773438 70.515625 79.859375 70.289063 79.859375 69.945313 C 79.859375 69.203125 79.324219 68.5625 78.492188 68.5625 C 76.90625 68.5625 76.265625 71.066406 76.265625 71.207031 C 76.265625 71.273438 76.335938 71.359375 76.457031 71.359375 C 76.609375 71.359375 76.628906 71.292969 76.699219 71.050781 C 77.113281 69.566406 77.785156 68.910156 78.441406 68.910156 C 78.617188 68.910156 78.890625 68.925781 78.890625 69.480469 C 78.890625 69.929688 78.703125 70.429688 78.441406 71.085938 C 77.683594 73.140625 77.59375 73.796875 77.59375 74.3125 C 77.59375 76.078125 78.925781 76.351563 79.632813 76.351563 C 80.738281 76.351563 81.34375 75.59375 81.6875 75.179688 "
       style=" stroke:none;fill-rule:nonzero;fill:rgb(0%,0%,100%);fill-opacity:1;" />
    <path
       id="path66"
       d="M 94.304688 70.496094 C 94.304688 70.386719 94.222656 70.386719 94.195313 70.386719 C 94.171875 70.386719 94.125 70.386719 94.03125 70.507813 L 93.207031 71.507813 C 92.789063 70.792969 92.132813 70.386719 91.242188 70.386719 C 88.664063 70.386719 85.996094 73 85.996094 75.800781 C 85.996094 77.789063 87.390625 79.03125 89.132813 79.03125 C 90.085938 79.03125 90.917969 78.625 91.609375 78.039063 C 92.648438 77.171875 92.957031 76.015625 92.957031 75.917969 C 92.957031 75.8125 92.863281 75.8125 92.828125 75.8125 C 92.71875 75.8125 92.707031 75.882813 92.683594 75.929688 C 92.132813 77.789063 90.527344 78.683594 89.335938 78.683594 C 88.070313 78.683594 86.972656 77.875 86.972656 76.179688 C 86.972656 75.800781 87.09375 73.726563 88.4375 72.164063 C 89.09375 71.402344 90.214844 70.734375 91.347656 70.734375 C 92.660156 70.734375 93.242188 71.820313 93.242188 73.035156 C 93.242188 73.34375 93.207031 73.605469 93.207031 73.652344 C 93.207031 73.761719 93.328125 73.761719 93.363281 73.761719 C 93.492188 73.761719 93.507813 73.75 93.554688 73.535156 L 94.304688 70.496094 "
       style=" stroke:none;fill-rule:nonzero;fill:rgb(0%,0%,100%);fill-opacity:1;" />
    <g
       id="g70"
       clip-rule="nonzero"
       clip-path="url(#clip1)">
      <path
         id="path68"
         transform="matrix(0.1,0,0,-0.1,0,168.88)"
         d="M 774.453125 1378.370313 L 865.195313 1378.370313 M 819.804688 1423.721875 L 819.804688 1333.01875 "
         style="fill:none;stroke-width:11.9553;stroke-linecap:butt;stroke-linejoin:miter;stroke:rgb(0%,0%,0%);stroke-opacity:1;stroke-miterlimit:10;" />
    </g>
    <g
       id="g74"
       clip-rule="nonzero"
       clip-path="url(#clip2)">
      <path
         id="path72"
         transform="matrix(0.1,0,0,-0.1,0,168.88)"
         d="M 774.453125 523.01875 L 865.15625 523.01875 "
         style="fill:none;stroke-width:11.9553;stroke-linecap:butt;stroke-linejoin:miter;stroke:rgb(0%,0%,0%);stroke-opacity:1;stroke-miterlimit:10;" />
    </g>
    <path
       id="path76"
       transform="matrix(0.1,0,0,-0.1,0,168.88)"
       d="M 1852.539063 1379.229688 L 1852.539063 522.159375 "
       style="fill:none;stroke-width:11.9553;stroke-linecap:butt;stroke-linejoin:miter;stroke:rgb(0%,0%,0%);stroke-opacity:1;stroke-miterlimit:10;" />
    <path
       id="path78"
       d="M 185.253906 25.648438 C 185.089844 26.300781 184.164063 29.164063 183.15625 30.957031 L 187.351563 30.957031 C 186.34375 29.164063 185.417969 26.300781 185.253906 25.648438 "
       style=" stroke:none;fill-rule:nonzero;fill:rgb(0%,0%,0%);fill-opacity:1;" />
    <path
       id="path80"
       transform="matrix(0.1,0,0,-0.1,0,168.88)"
       d="M 1852.539063 1432.315625 C 1850.898438 1425.792188 1841.640625 1397.159375 1831.5625 1379.229688 L 1873.515625 1379.229688 C 1863.4375 1397.159375 1854.179688 1425.792188 1852.539063 1432.315625 Z M 1852.539063 1432.315625 "
       style="fill:none;stroke-width:11.9553;stroke-linecap:butt;stroke-linejoin:miter;stroke:rgb(0%,0%,0%);stroke-opacity:1;stroke-miterlimit:10;" />
    <path
       id="path82"
       d="M 185.253906 121.972656 C 185.417969 121.320313 186.34375 118.457031 187.351563 116.664063 L 183.15625 116.664063 C 184.164063 118.457031 185.089844 121.320313 185.253906 121.972656 "
       style=" stroke:none;fill-rule:nonzero;fill:rgb(0%,0%,0%);fill-opacity:1;" />
    <path
       id="path84"
       transform="matrix(0.1,0,0,-0.1,0,168.88)"
       d="M 1852.539063 469.073438 C 1854.179688 475.596875 1863.4375 504.229688 1873.515625 522.159375 L 1831.5625 522.159375 C 1841.640625 504.229688 1850.898438 475.596875 1852.539063 469.073438 Z M 1852.539063 469.073438 "
       style="fill:none;stroke-width:11.9553;stroke-linecap:butt;stroke-linejoin:miter;stroke:rgb(0%,0%,0%);stroke-opacity:1;stroke-miterlimit:10;" />
    <path
       id="path86"
       d="M 168.089844 75.179688 C 168.3125 76.144531 169.140625 76.351563 169.554688 76.351563 C 170.109375 76.351563 170.523438 75.988281 170.800781 75.402344 C 171.09375 74.78125 171.320313 73.761719 171.320313 73.710938 C 171.320313 73.625 171.246094 73.554688 171.144531 73.554688 C 170.992188 73.554688 170.972656 73.640625 170.902344 73.898438 C 170.59375 75.09375 170.28125 76.007813 169.589844 76.007813 C 169.074219 76.007813 169.074219 75.4375 169.074219 75.210938 C 169.074219 74.816406 169.125 74.640625 169.296875 73.917969 C 169.417969 73.453125 169.539063 72.984375 169.644531 72.5 L 170.351563 69.6875 C 170.472656 69.253906 170.472656 69.21875 170.472656 69.167969 C 170.472656 68.910156 170.265625 68.734375 170.007813 68.734375 C 169.503906 68.734375 169.382813 69.167969 169.28125 69.601563 C 169.109375 70.273438 168.175781 73.984375 168.054688 74.589844 C 168.039063 74.589844 167.363281 76.007813 166.101563 76.007813 C 165.203125 76.007813 165.03125 75.230469 165.03125 74.589844 C 165.03125 73.605469 165.515625 72.226563 165.964844 71.066406 C 166.171875 70.515625 166.257813 70.289063 166.257813 69.945313 C 166.257813 69.203125 165.722656 68.5625 164.894531 68.5625 C 163.304688 68.5625 162.664063 71.066406 162.664063 71.207031 C 162.664063 71.273438 162.734375 71.359375 162.855469 71.359375 C 163.011719 71.359375 163.03125 71.292969 163.097656 71.050781 C 163.511719 69.566406 164.1875 68.910156 164.84375 68.910156 C 165.015625 68.910156 165.289063 68.925781 165.289063 69.480469 C 165.289063 69.929688 165.101563 70.429688 164.84375 71.085938 C 164.082031 73.140625 163.996094 73.796875 163.996094 74.3125 C 163.996094 76.078125 165.324219 76.351563 166.035156 76.351563 C 167.140625 76.351563 167.742188 75.59375 168.089844 75.179688 "
       style=" stroke:none;fill-rule:nonzero;fill:rgb(0%,0%,100%);fill-opacity:1;" />
    <path
       id="path88"
       d="M 176.1875 71.449219 C 176.292969 71.007813 176.34375 70.984375 176.804688 70.984375 L 177.664063 70.984375 C 178.691406 70.984375 179.453125 71.292969 179.453125 72.222656 C 179.453125 72.832031 179.144531 74.585938 176.746094 74.585938 L 175.398438 74.585938 Z M 177.84375 74.726563 C 179.320313 74.40625 180.476563 73.453125 180.476563 72.425781 C 180.476563 71.496094 179.535156 70.636719 177.878906 70.636719 L 174.648438 70.636719 C 174.410156 70.636719 174.304688 70.636719 174.304688 70.863281 C 174.304688 70.984375 174.386719 70.984375 174.613281 70.984375 C 175.328125 70.984375 175.328125 71.078125 175.328125 71.210938 C 175.328125 71.234375 175.328125 71.304688 175.28125 71.484375 L 173.671875 77.898438 C 173.5625 78.3125 173.539063 78.433594 172.71875 78.433594 C 172.445313 78.433594 172.359375 78.433594 172.359375 78.660156 C 172.359375 78.78125 172.492188 78.78125 172.527344 78.78125 C 172.742188 78.78125 172.992188 78.757813 173.21875 78.757813 L 174.625 78.757813 C 174.839844 78.757813 175.089844 78.78125 175.304688 78.78125 C 175.398438 78.78125 175.53125 78.78125 175.53125 78.554688 C 175.53125 78.433594 175.421875 78.433594 175.246094 78.433594 C 174.515625 78.433594 174.515625 78.339844 174.515625 78.21875 C 174.515625 78.207031 174.515625 78.125 174.542969 78.027344 L 175.339844 74.820313 L 176.769531 74.820313 C 177.902344 74.820313 178.117188 75.539063 178.117188 75.929688 C 178.117188 76.109375 177.996094 76.574219 177.914063 76.882813 C 177.785156 77.433594 177.746094 77.5625 177.746094 77.789063 C 177.746094 78.636719 178.4375 79.03125 179.238281 79.03125 C 180.203125 79.03125 180.621094 77.851563 180.621094 77.683594 C 180.621094 77.601563 180.5625 77.5625 180.492188 77.5625 C 180.394531 77.5625 180.371094 77.636719 180.347656 77.730469 C 180.0625 78.578125 179.570313 78.792969 179.273438 78.792969 C 178.976563 78.792969 178.785156 78.660156 178.785156 78.125 C 178.785156 77.835938 178.929688 76.753906 178.941406 76.695313 C 179 76.253906 179 76.203125 179 76.109375 C 179 75.238281 178.296875 74.871094 177.84375 74.726563 "
       style=" stroke:none;fill-rule:nonzero;fill:rgb(0%,0%,100%);fill-opacity:1;" />
    <g
       id="g92"
       clip-rule="nonzero"
       clip-path="url(#clip3)">
      <path
         id="path90"
         transform="matrix(0.1,0,0,-0.1,0,168.88)"
         d="M 1706.054688 1378.370313 L 1796.757813 1378.370313 M 1751.40625 1423.721875 L 1751.40625 1333.01875 "
         style="fill:none;stroke-width:11.9553;stroke-linecap:butt;stroke-linejoin:miter;stroke:rgb(0%,0%,0%);stroke-opacity:1;stroke-miterlimit:10;" />
    </g>
    <g
       id="g96"
       clip-rule="nonzero"
       clip-path="url(#clip4)">
      <path
         id="path94"
         transform="matrix(0.1,0,0,-0.1,0,168.88)"
         d="M 1706.054688 523.01875 L 1796.757813 523.01875 "
         style="fill:none;stroke-width:11.9553;stroke-linecap:butt;stroke-linejoin:miter;stroke:rgb(0%,0%,0%);stroke-opacity:1;stroke-miterlimit:10;" />
    </g>
  </g>
</svg>
