<?xml version="1.0" encoding="UTF-8" standalone="no"?>
<svg
   xmlns:dc="http://purl.org/dc/elements/1.1/"
   xmlns:cc="http://creativecommons.org/ns#"
   xmlns:rdf="http://www.w3.org/1999/02/22-rdf-syntax-ns#"
   xmlns:svg="http://www.w3.org/2000/svg"
   xmlns="http://www.w3.org/2000/svg"
   id="svg53"
   version="1.2"
   viewBox="0 0 231.01 147.58"
   height="147.58pt"
   width="231.01pt">
  <metadata
     id="metadata57">
    <rdf:RDF>
      <cc:Work
         rdf:about="">
        <dc:format>image/svg+xml</dc:format>
        <dc:type
           rdf:resource="http://purl.org/dc/dcmitype/StillImage" />
      </cc:Work>
    </rdf:RDF>
  </metadata>
  <defs
     id="defs8">
    <clipPath
       id="clip1">
      <path
         id="path2"
         d="M 206 28 L 231.011719 28 L 231.011719 87 L 206 87 Z M 206 28 " />
    </clipPath>
    <clipPath
       id="clip2">
      <path
         id="path5"
         d="M 75 137 L 100 137 L 100 147.578125 L 75 147.578125 Z M 75 137 " />
    </clipPath>
  </defs>
  <g
     id="surface1">
    <path
       id="path10"
       transform="matrix(0.1,0,0,-0.1,0,147.58)"
       d="M 309.921875 1014.276563 C 247.304688 1014.276563 196.5625 963.495313 196.5625 900.878125 C 196.5625 838.260938 247.304688 787.51875 309.921875 787.51875 C 372.539063 787.51875 423.320313 838.260938 423.320313 900.878125 C 423.320313 963.495313 372.539063 1014.276563 309.921875 1014.276563 Z M 309.921875 1014.276563 "
       style="fill:none;stroke-width:15.9404;stroke-linecap:butt;stroke-linejoin:miter;stroke:rgb(0%,0%,0%);stroke-opacity:1;stroke-miterlimit:10;" />
    <path
       id="path12"
       transform="matrix(0.1,0,0,-0.1,0,147.58)"
       d="M 423.320313 900.878125 L 196.5625 900.878125 "
       style="fill:none;stroke-width:15.9404;stroke-linecap:butt;stroke-linejoin:miter;stroke:rgb(0%,0%,0%);stroke-opacity:1;stroke-miterlimit:10;" />
    <path
       id="path14"
       transform="matrix(0.1,0,0,-0.1,0,147.58)"
       d="M 150.78125 759.159375 L 150.78125 1017.557813 "
       style="fill:none;stroke-width:15.9404;stroke-linecap:butt;stroke-linejoin:miter;stroke:rgb(0%,0%,0%);stroke-opacity:1;stroke-miterlimit:10;" />
    <path
       id="path16"
       d="M 13.160156 48.332031 L 15.078125 43.316406 L 16.996094 48.332031 "
       style=" stroke:none;fill-rule:nonzero;fill:rgb(0%,0%,0%);fill-opacity:1;" />
    <path
       id="path18"
       transform="matrix(0.1,0,0,-0.1,0,147.58)"
       d="M 131.601563 992.479688 L 150.78125 1042.635938 L 169.960938 992.479688 Z M 131.601563 992.479688 "
       style="fill:none;stroke-width:15.9404;stroke-linecap:butt;stroke-linejoin:round;stroke:rgb(0%,0%,0%);stroke-opacity:1;stroke-miterlimit:10;" />
    <path
       id="path20"
       d="M 8.1875 60.710938 C 8.1875 60.625 8.117188 60.554688 8.015625 60.554688 C 7.859375 60.554688 7.84375 60.605469 7.757813 60.898438 C 7.304688 62.472656 6.597656 63.007813 6.027344 63.007813 C 5.820313 63.007813 5.578125 62.953125 5.578125 62.4375 C 5.578125 61.96875 5.789063 61.453125 5.976563 60.933594 L 7.1875 57.722656 C 7.238281 57.585938 7.359375 57.273438 7.359375 56.945313 C 7.359375 56.21875 6.839844 55.5625 5.992188 55.5625 C 4.40625 55.5625 3.765625 58.066406 3.765625 58.207031 C 3.765625 58.273438 3.835938 58.359375 3.957031 58.359375 C 4.109375 58.359375 4.128906 58.292969 4.199219 58.050781 C 4.613281 56.601563 5.269531 55.910156 5.941406 55.910156 C 6.097656 55.910156 6.390625 55.925781 6.390625 56.480469 C 6.390625 56.929688 6.167969 57.5 6.027344 57.878906 L 4.820313 61.089844 C 4.714844 61.367188 4.613281 61.640625 4.613281 61.953125 C 4.613281 62.730469 5.148438 63.351563 5.976563 63.351563 C 7.566406 63.351563 8.1875 60.832031 8.1875 60.710938 Z M 8.046875 52.402344 C 8.046875 52.144531 7.84375 51.835938 7.460938 51.835938 C 7.0625 51.835938 6.617188 52.214844 6.617188 52.664063 C 6.617188 53.09375 6.976563 53.234375 7.1875 53.234375 C 7.652344 53.234375 8.046875 52.78125 8.046875 52.402344 "
       style=" stroke:none;fill-rule:nonzero;fill:rgb(0%,0%,100%);fill-opacity:1;" />
    <path
       id="path22"
       transform="matrix(0.1,0,0,-0.1,0,147.58)"
       d="M 1443.789063 730.8 C 1537.734375 730.8 1613.867188 806.971875 1613.867188 900.878125 C 1613.867188 994.823438 1537.734375 1070.95625 1443.789063 1070.95625 C 1349.882813 1070.95625 1273.710938 994.823438 1273.710938 900.878125 C 1273.710938 806.971875 1349.882813 730.8 1443.789063 730.8 Z M 1443.789063 730.8 "
       style="fill:none;stroke-width:15.9404;stroke-linecap:butt;stroke-linejoin:miter;stroke:rgb(0%,0%,0%);stroke-opacity:1;stroke-miterlimit:10;" />
    <path
       id="path24"
       transform="matrix(0.1,0,0,-0.1,0,147.58)"
       d="M 1564.0625 1021.151563 L 1564.0625 1070.95625 L 1323.554688 1070.95625 L 1323.554688 1021.151563 C 1389.960938 1087.557813 1497.65625 1087.557813 1564.0625 1021.151563 "
       style="fill-rule:nonzero;fill:rgb(0%,0%,0%);fill-opacity:1;stroke-width:15.9404;stroke-linecap:butt;stroke-linejoin:miter;stroke:rgb(0%,0%,0%);stroke-opacity:1;stroke-miterlimit:10;" />
    <path
       id="path26"
       transform="matrix(0.1,0,0,-0.1,0,147.58)"
       d="M 1323.554688 780.604688 L 1323.554688 730.8 L 1564.0625 730.8 L 1564.0625 780.604688 C 1497.65625 714.198438 1389.960938 714.198438 1323.554688 780.604688 "
       style="fill-rule:nonzero;fill:rgb(0%,0%,0%);fill-opacity:1;stroke-width:15.9404;stroke-linecap:butt;stroke-linejoin:miter;stroke:rgb(0%,0%,0%);stroke-opacity:1;stroke-miterlimit:10;" />
    <path
       id="path28"
       d="M 113.851563 50.625 C 113.871094 50.558594 113.90625 50.453125 113.90625 50.367188 C 113.90625 50.195313 113.730469 50.195313 113.695313 50.195313 C 113.679688 50.195313 113.058594 50.246094 112.746094 50.28125 C 112.453125 50.296875 112.195313 50.332031 111.882813 50.351563 C 111.46875 50.382813 111.347656 50.402344 111.347656 50.710938 C 111.347656 50.886719 111.523438 50.886719 111.695313 50.886719 C 112.574219 50.886719 112.574219 51.039063 112.574219 51.214844 C 112.574219 51.28125 112.574219 51.316406 112.488281 51.628906 L 110.019531 61.507813 C 109.949219 61.765625 109.949219 61.800781 109.949219 61.902344 C 109.949219 62.28125 110.242188 62.351563 110.414063 62.351563 C 110.898438 62.351563 111.003906 61.972656 111.140625 61.4375 L 111.953125 58.207031 C 113.195313 58.34375 113.9375 58.863281 113.9375 59.691406 C 113.9375 59.796875 113.9375 59.867188 113.886719 60.125 C 113.820313 60.382813 113.820313 60.589844 113.820313 60.675781 C 113.820313 61.679688 114.476563 62.351563 115.355469 62.351563 C 116.148438 62.351563 116.5625 61.625 116.703125 61.386719 C 117.0625 60.746094 117.289063 59.78125 117.289063 59.710938 C 117.289063 59.625 117.21875 59.554688 117.117188 59.554688 C 116.960938 59.554688 116.945313 59.625 116.875 59.898438 C 116.632813 60.796875 116.269531 62.007813 115.390625 62.007813 C 115.042969 62.007813 114.820313 61.835938 114.820313 61.179688 C 114.820313 60.851563 114.890625 60.46875 114.957031 60.210938 C 115.027344 59.898438 115.027344 59.882813 115.027344 59.675781 C 115.027344 58.65625 114.113281 58.085938 112.523438 57.878906 C 113.144531 57.5 113.765625 56.828125 114.007813 56.566406 C 114.992188 55.460938 115.664063 54.910156 116.460938 54.910156 C 116.859375 54.910156 116.960938 55.011719 117.082031 55.117188 C 116.445313 55.1875 116.203125 55.632813 116.203125 55.980469 C 116.203125 56.394531 116.53125 56.53125 116.773438 56.53125 C 117.238281 56.53125 117.652344 56.136719 117.652344 55.582031 C 117.652344 55.082031 117.253906 54.5625 116.476563 54.5625 C 115.527344 54.5625 114.75 55.238281 113.523438 56.617188 C 113.351563 56.828125 112.714844 57.484375 112.074219 57.722656 L 113.851563 50.625 "
       style=" stroke:none;fill-rule:nonzero;fill:rgb(0%,0%,100%);fill-opacity:1;" />
    <path
       id="path30"
       d="M 120.09375 59.988281 L 121.191406 59.988281 C 121.417969 59.988281 121.539063 59.988281 121.539063 59.773438 C 121.539063 59.640625 121.46875 59.640625 121.226563 59.640625 L 120.179688 59.640625 L 120.621094 57.902344 C 120.667969 57.734375 120.667969 57.710938 120.667969 57.628906 C 120.667969 57.4375 120.511719 57.328125 120.359375 57.328125 C 120.261719 57.328125 119.988281 57.367188 119.894531 57.746094 L 119.429688 59.640625 L 118.308594 59.640625 C 118.070313 59.640625 117.964844 59.640625 117.964844 59.867188 C 117.964844 59.988281 118.046875 59.988281 118.273438 59.988281 L 119.332031 59.988281 L 118.546875 63.132813 C 118.453125 63.550781 118.414063 63.671875 118.414063 63.828125 C 118.414063 64.386719 118.808594 64.898438 119.476563 64.898438 C 120.679688 64.898438 121.324219 63.15625 121.324219 63.074219 C 121.324219 63.003906 121.277344 62.96875 121.203125 62.96875 C 121.179688 62.96875 121.132813 62.96875 121.109375 63.015625 C 121.097656 63.027344 121.085938 63.039063 121.003906 63.230469 C 120.753906 63.828125 120.203125 64.660156 119.511719 64.660156 C 119.15625 64.660156 119.128906 64.363281 119.128906 64.101563 C 119.128906 64.089844 119.128906 63.863281 119.164063 63.71875 L 120.09375 59.988281 "
       style=" stroke:none;fill-rule:nonzero;fill:rgb(0%,0%,100%);fill-opacity:1;" />
    <path
       id="path32"
       transform="matrix(0.1,0,0,-0.1,0,147.58)"
       d="M 905.234375 333.964063 C 905.234375 349.589063 892.539063 362.284375 876.875 362.284375 C 861.210938 362.284375 848.515625 349.589063 848.515625 333.964063 C 848.515625 318.3 861.210938 305.604688 876.875 305.604688 C 892.539063 305.604688 905.234375 318.3 905.234375 333.964063 Z M 905.234375 333.964063 "
       style="fill-rule:nonzero;fill:rgb(0%,0%,0%);fill-opacity:1;stroke-width:15.9404;stroke-linecap:butt;stroke-linejoin:miter;stroke:rgb(0%,0%,0%);stroke-opacity:1;stroke-miterlimit:10;" />
    <path
       id="path34"
       transform="matrix(0.1,0,0,-0.1,0,147.58)"
       d="M 309.921875 333.964063 L 309.921875 779.510938 M 309.921875 1022.245313 L 309.921875 1467.83125 L 1443.789063 1467.83125 L 1443.789063 1078.925 M 1443.789063 722.83125 L 1443.789063 333.964063 L 909.179688 333.964063 M 844.53125 333.964063 L 309.921875 333.964063 "
       style="fill:none;stroke-width:15.9404;stroke-linecap:round;stroke-linejoin:miter;stroke:rgb(0%,0%,0%);stroke-opacity:1;stroke-miterlimit:10;" />
    <path
       id="path36"
       transform="matrix(0.1,0,0,-0.1,0,147.58)"
       d="M 1443.789063 900.878125 L 2067.421875 900.878125 "
       style="fill:none;stroke-width:15.9404;stroke-linecap:round;stroke-linejoin:miter;stroke:rgb(0%,0%,0%);stroke-opacity:1;stroke-miterlimit:10;" />
    <g
       id="g40"
       clip-rule="nonzero"
       clip-path="url(#clip1)">
      <path
         id="path38"
         transform="matrix(0.1,0,0,-0.1,0,147.58)"
         d="M 2075.390625 617.401563 L 2302.1875 617.401563 L 2302.1875 1184.354688 L 2075.390625 1184.354688 Z M 2075.390625 617.401563 "
         style="fill:none;stroke-width:15.9404;stroke-linecap:round;stroke-linejoin:miter;stroke:rgb(0%,0%,0%);stroke-opacity:1;stroke-miterlimit:10;" />
    </g>
    <path
       id="path42"
       d="M 220.855469 52.863281 C 221.011719 52.257813 221.046875 52.085938 222.304688 52.085938 C 222.6875 52.085938 222.824219 52.085938 222.824219 51.757813 C 222.824219 51.585938 222.632813 51.585938 222.582031 51.585938 C 222.273438 51.585938 221.890625 51.617188 221.578125 51.617188 L 219.457031 51.617188 C 219.109375 51.617188 218.714844 51.585938 218.367188 51.585938 C 218.230469 51.585938 218.039063 51.585938 218.039063 51.914063 C 218.039063 52.085938 218.179688 52.085938 218.523438 52.085938 C 219.59375 52.085938 219.59375 52.222656 219.59375 52.414063 C 219.59375 52.535156 219.558594 52.636719 219.523438 52.792969 L 217.195313 62.101563 C 217.039063 62.707031 217.003906 62.878906 215.742188 62.878906 C 215.363281 62.878906 215.207031 62.878906 215.207031 63.207031 C 215.207031 63.378906 215.382813 63.378906 215.46875 63.378906 C 215.777344 63.378906 216.15625 63.34375 216.46875 63.34375 L 218.59375 63.34375 C 218.9375 63.34375 219.320313 63.378906 219.664063 63.378906 C 219.800781 63.378906 220.007813 63.378906 220.007813 63.070313 C 220.007813 62.878906 219.90625 62.878906 219.523438 62.878906 C 218.453125 62.878906 218.453125 62.742188 218.453125 62.53125 C 218.453125 62.5 218.453125 62.414063 218.523438 62.136719 L 220.855469 52.863281 "
       style=" stroke:none;fill-rule:nonzero;fill:rgb(0%,0%,0%);fill-opacity:1;" />
    <path
       id="path44"
       d="M 220.855469 13.664063 C 221.011719 13.058594 221.046875 12.886719 222.304688 12.886719 C 222.6875 12.886719 222.824219 12.886719 222.824219 12.558594 C 222.824219 12.386719 222.632813 12.386719 222.582031 12.386719 C 222.273438 12.386719 221.890625 12.417969 221.578125 12.417969 L 219.457031 12.417969 C 219.109375 12.417969 218.714844 12.386719 218.367188 12.386719 C 218.230469 12.386719 218.039063 12.386719 218.039063 12.714844 C 218.039063 12.886719 218.179688 12.886719 218.523438 12.886719 C 219.59375 12.886719 219.59375 13.023438 219.59375 13.214844 C 219.59375 13.335938 219.558594 13.4375 219.523438 13.59375 L 217.195313 22.902344 C 217.039063 23.507813 217.003906 23.679688 215.742188 23.679688 C 215.363281 23.679688 215.207031 23.679688 215.207031 24.007813 C 215.207031 24.179688 215.382813 24.179688 215.46875 24.179688 C 215.777344 24.179688 216.15625 24.144531 216.46875 24.144531 L 218.59375 24.144531 C 218.9375 24.144531 219.320313 24.179688 219.664063 24.179688 C 219.800781 24.179688 220.007813 24.179688 220.007813 23.867188 C 220.007813 23.679688 219.90625 23.679688 219.523438 23.679688 C 218.453125 23.679688 218.453125 23.539063 218.453125 23.332031 C 218.453125 23.300781 218.453125 23.214844 218.523438 22.9375 L 220.855469 13.664063 "
       style=" stroke:none;fill-rule:nonzero;fill:rgb(0%,0%,100%);fill-opacity:1;" />
    <path
       id="path46"
       transform="matrix(0.1,0,0,-0.1,0,147.58)"
       d="M 876.875 301.620313 L 876.875 100.95625 "
       style="fill:none;stroke-width:15.9404;stroke-linecap:round;stroke-linejoin:miter;stroke:rgb(0%,0%,0%);stroke-opacity:1;stroke-miterlimit:10;" />
    <g
       id="g50"
       clip-rule="nonzero"
       clip-path="url(#clip2)">
      <path
         id="path48"
         transform="matrix(0.1,0,0,-0.1,0,147.58)"
         d="M 763.476563 92.9875 L 990.273438 92.9875 M 801.289063 50.4875 L 952.460938 50.4875 M 839.0625 7.948438 L 914.6875 7.948438 "
         style="fill:none;stroke-width:15.9404;stroke-linecap:round;stroke-linejoin:miter;stroke:rgb(0%,0%,0%);stroke-opacity:1;stroke-miterlimit:10;" />
    </g>
  </g>
</svg>
