<?xml version="1.0" encoding="UTF-8" standalone="no"?>
<svg
   xmlns:dc="http://purl.org/dc/elements/1.1/"
   xmlns:cc="http://creativecommons.org/ns#"
   xmlns:rdf="http://www.w3.org/1999/02/22-rdf-syntax-ns#"
   xmlns:svg="http://www.w3.org/2000/svg"
   xmlns="http://www.w3.org/2000/svg"
   viewBox="0 0 236.33333 196.77333"
   height="196.77333"
   width="236.33333"
   xml:space="preserve"
   id="svg2"
   version="1.1"><metadata
     id="metadata8"><rdf:RDF><cc:Work
         rdf:about=""><dc:format>image/svg+xml</dc:format><dc:type
           rdf:resource="http://purl.org/dc/dcmitype/StillImage" /></cc:Work></rdf:RDF></metadata><defs
     id="defs6" /><g
     transform="matrix(1.3333333,0,0,-1.3333333,0,196.77333)"
     id="g10"><g
       transform="scale(0.1)"
       id="g12"><path
         id="path14"
         style="fill:none;stroke:#000000;stroke-width:15.9404;stroke-linecap:butt;stroke-linejoin:miter;stroke-miterlimit:10;stroke-dasharray:none;stroke-opacity:1"
         d="m 309.93,1014.27 c -62.621,0 -113.387,-50.762 -113.387,-113.383 0,-62.621 50.766,-113.387 113.387,-113.387 62.621,0 113.386,50.766 113.386,113.387 0,62.621 -50.765,113.383 -113.386,113.383 z" /><path
         id="path16"
         style="fill:none;stroke:#000000;stroke-width:15.9404;stroke-linecap:butt;stroke-linejoin:miter;stroke-miterlimit:10;stroke-dasharray:none;stroke-opacity:1"
         d="M 423.316,900.887 H 196.543" /><path
         id="path18"
         style="fill:none;stroke:#000000;stroke-width:15.9404;stroke-linecap:butt;stroke-linejoin:miter;stroke-miterlimit:10;stroke-dasharray:none;stroke-opacity:1"
         d="M 150.781,759.152 V 1017.55" /><path
         id="path20"
         style="fill:#000000;fill-opacity:1;fill-rule:nonzero;stroke:none"
         d="m 131.594,992.484 19.187,50.136 19.188,-50.136" /><path
         id="path22"
         style="fill:none;stroke:#000000;stroke-width:15.9404;stroke-linecap:butt;stroke-linejoin:round;stroke-miterlimit:10;stroke-dasharray:none;stroke-opacity:1"
         d="m 131.594,992.484 19.187,50.136 19.188,-50.136 z" /><path
         id="path24"
         style="fill:#0000ff;fill-opacity:1;fill-rule:nonzero;stroke:none"
         d="m 81.875,868.688 c 0,0.875 -0.6875,1.562 -1.7344,1.562 -1.5468,0 -1.7187,-0.516 -2.5781,-3.453 -4.5,-15.719 -11.5781,-21.063 -17.2812,-21.063 -2.0625,0 -4.4844,0.516 -4.4844,5.688 0,4.672 2.0781,9.844 3.9687,15.031 l 12.0938,32.125 c 0.5156,1.375 1.7187,4.485 1.7187,7.766 0,7.25 -5.1718,13.812 -13.6406,13.812 -15.8906,0 -22.2812,-25.031 -22.2812,-26.422 0,-0.687 0.7031,-1.546 1.9062,-1.546 1.5469,0 1.7344,0.687 2.4219,3.109 4.1406,14.5 10.7031,21.406 17.4375,21.406 1.5469,0 4.4844,-0.172 4.4844,-5.703 0,-4.484 -2.2344,-10.187 -3.625,-13.984 L 48.2031,864.891 c -1.0468,-2.75 -2.0781,-5.516 -2.0781,-8.625 0,-7.782 5.3594,-14 13.6406,-14 15.8907,0 22.1094,25.218 22.1094,26.422 z m -1.3906,83.078 c 0,2.578 -2.0625,5.687 -5.8594,5.687 -3.9844,0 -8.4687,-3.797 -8.4687,-8.281 0,-4.313 3.625,-5.703 5.7031,-5.703 4.6562,0 8.625,4.5 8.625,8.297" /><path
         id="path26"
         style="fill:none;stroke:#000000;stroke-width:15.9404;stroke-linecap:butt;stroke-linejoin:miter;stroke-miterlimit:10;stroke-dasharray:none;stroke-opacity:1"
         d="m 1330.41,929.234 h 226.78 m -226.78,-56.695 h 226.78" /><path
         id="path28"
         style="fill:#0000ff;fill-opacity:1;fill-rule:nonzero;stroke:none"
         d="m 1735,962.016 c 0,1.562 -1.2,1.562 -1.55,1.562 -0.34,0 -1.04,0 -2.42,-1.734 l -11.92,-14.5 c -6.05,10.359 -15.53,16.234 -28.48,16.234 -37.32,0 -75.99,-37.828 -75.99,-78.406 0,-28.844 20.2,-46.797 45.41,-46.797 13.83,0 25.9,5.875 35.92,14.328 15.03,12.61 19.51,29.36 19.51,30.75 0,1.547 -1.37,1.547 -1.89,1.547 -1.56,0 -1.73,-1.031 -2.07,-1.719 -7.94,-26.953 -31.25,-39.906 -48.54,-39.906 -18.29,0 -34.18,11.75 -34.18,36.266 0,5.531 1.72,35.578 21.23,58.203 9.5,11.047 25.74,20.719 42.14,20.719 19,0 27.46,-15.704 27.46,-33.329 0,-4.484 -0.52,-8.281 -0.52,-8.968 0,-1.563 1.73,-1.563 2.25,-1.563 1.91,0 2.08,0.172 2.77,3.281 l 10.87,44.032" /><path
         id="path30"
         style="fill:#000000;fill-opacity:1;fill-rule:nonzero;stroke:none"
         d="m 905.215,333.949 c 0,15.656 -12.692,28.348 -28.348,28.348 -15.656,0 -28.347,-12.692 -28.347,-28.348 0,-15.656 12.691,-28.347 28.347,-28.347 15.656,0 28.348,12.691 28.348,28.347 z" /><path
         id="path32"
         style="fill:none;stroke:#000000;stroke-width:15.9404;stroke-linecap:butt;stroke-linejoin:miter;stroke-miterlimit:10;stroke-dasharray:none;stroke-opacity:1"
         d="m 905.215,333.949 c 0,15.656 -12.692,28.348 -28.348,28.348 -15.656,0 -28.347,-12.692 -28.347,-28.348 0,-15.656 12.691,-28.347 28.347,-28.347 15.656,0 28.348,12.691 28.348,28.347 z" /><path
         id="path34"
         style="fill:none;stroke:#000000;stroke-width:15.9404;stroke-linecap:round;stroke-linejoin:miter;stroke-miterlimit:10;stroke-dasharray:none;stroke-opacity:1"
         d="m 309.93,333.949 v 445.578 m 0,242.713 v 445.58 H 1443.8 V 937.203 m 0,-72.633 v -530.621 0 H 909.199 m -64.664,0 H 309.93 v 0" /><path
         id="path36"
         style="fill:none;stroke:#000000;stroke-width:15.9404;stroke-linecap:round;stroke-linejoin:miter;stroke-miterlimit:10;stroke-dasharray:none;stroke-opacity:1"
         d="M 876.867,301.617 V 100.973" /><path
         id="path38"
         style="fill:none;stroke:#000000;stroke-width:15.9404;stroke-linecap:round;stroke-linejoin:miter;stroke-miterlimit:10;stroke-dasharray:none;stroke-opacity:1"
         d="M 763.48,93.0039 H 990.254 M 801.273,50.4805 H 952.461 M 839.066,7.96094 h 75.602" /></g></g></svg>
