<?xml version="1.0" encoding="UTF-8" standalone="no"?>
<svg
   xmlns:dc="http://purl.org/dc/elements/1.1/"
   xmlns:cc="http://creativecommons.org/ns#"
   xmlns:rdf="http://www.w3.org/1999/02/22-rdf-syntax-ns#"
   xmlns:svg="http://www.w3.org/2000/svg"
   xmlns="http://www.w3.org/2000/svg"
   viewBox="0 0 510.04001 182.73334"
   height="182.73334"
   width="510.04001"
   xml:space="preserve"
   id="svg2"
   version="1.1"><metadata
     id="metadata8"><rdf:RDF><cc:Work
         rdf:about=""><dc:format>image/svg+xml</dc:format><dc:type
           rdf:resource="http://purl.org/dc/dcmitype/StillImage" /></cc:Work></rdf:RDF></metadata><defs
     id="defs6" /><g
     transform="matrix(1.3333333,0,0,-1.3333333,0,182.73333)"
     id="g10"><g
       transform="scale(0.1)"
       id="g12"><path
         id="path14"
         style="fill:none;stroke:#000000;stroke-width:15.9404;stroke-linecap:butt;stroke-linejoin:miter;stroke-miterlimit:10;stroke-dasharray:none;stroke-opacity:1"
         d="m 97.8477,932.43 h 340.164 v 340.16 H 97.8477 Z" /><path
         id="path16"
         style="fill:none;stroke:#000000;stroke-width:15.9404;stroke-linecap:butt;stroke-linejoin:miter;stroke-miterlimit:10;stroke-dasharray:none;stroke-opacity:1"
         d="M 438.012,1102.51 H 154.484 M 381.375,989.066 H 154.484 v 226.884 h 226.891" /><path
         id="path18"
         style="fill:#000000;fill-opacity:1;fill-rule:nonzero;stroke:none"
         d="m 861.457,1130.86 v -56.7 l -71.402,28.35" /><path
         id="path20"
         style="fill:none;stroke:#000000;stroke-width:15.9404;stroke-linecap:butt;stroke-linejoin:miter;stroke-miterlimit:10;stroke-dasharray:none;stroke-opacity:1"
         d="m 861.457,1130.86 v -56.7 l -71.402,28.35 z" /><path
         id="path22"
         style="fill:none;stroke:#000000;stroke-width:15.9404;stroke-linecap:butt;stroke-linejoin:miter;stroke-miterlimit:10;stroke-dasharray:none;stroke-opacity:1"
         d="M 861.457,1102.51 H 782.086" /><path
         id="path24"
         style="fill:#0000ff;fill-opacity:1;fill-rule:nonzero;stroke:none"
         d="m 781.906,1238.06 c 4.672,0 16.407,0.35 24.703,3.46 13.125,5.01 14.329,15.03 14.329,18.14 0,7.59 -6.563,14.5 -17.954,14.5 -18.14,0 -44.218,-16.41 -44.218,-47.14 0,-18.14 10.375,-30.75 26.078,-30.75 23.484,0 38.344,18.31 38.344,20.56 0,1.03 -1.032,1.89 -1.735,1.89 -0.515,0 -0.687,-0.17 -2.234,-1.72 -11.063,-14.69 -27.469,-17.27 -34.031,-17.27 -9.844,0 -15.016,7.77 -15.016,20.55 0,2.41 0,6.74 2.594,17.78 z m -8.281,3.46 c 7.422,26.59 23.828,29.18 29.359,29.18 7.594,0 12.782,-4.48 12.782,-11.04 0,-18.14 -27.641,-18.14 -34.891,-18.14 h -7.25" /><path
         id="path26"
         style="fill:#0000ff;fill-opacity:1;fill-rule:nonzero;stroke:none"
         d="m 863.328,1248.41 c 0,2.75 0,2.86 -2.375,2.86 -2.875,-3.22 -8.828,-7.63 -21.109,-7.63 v -3.45 c 2.75,0 8.703,0 15.265,3.09 v -62.11 c 0,-4.28 -0.359,-5.72 -10.843,-5.72 h -3.703 V 1172 c 3.218,0.23 14.781,0.23 18.718,0.23 3.938,0 15.375,0 18.594,-0.23 v 3.45 h -3.703 c -10.484,0 -10.844,1.44 -10.844,5.72 v 67.24" /><path
         id="path28"
         style="fill:none;stroke:#000000;stroke-width:15.9404;stroke-linecap:butt;stroke-linejoin:miter;stroke-miterlimit:10;stroke-dasharray:none;stroke-opacity:1"
         d="m 1148.85,875.734 h 453.547 v 453.551 H 1148.85 Z" /><path
         id="path30"
         style="fill:#0000ff;fill-opacity:1;fill-rule:nonzero;stroke:none"
         d="m 1402.17,1135.63 c -5.34,-1.04 -8.11,-4.83 -8.11,-8.63 0,-4.14 3.28,-5.53 5.71,-5.53 4.82,0 8.79,4.14 8.79,9.33 0,5.53 -5.34,10.36 -13.98,10.36 -6.91,0 -14.85,-3.11 -22.11,-13.64 -1.2,9.15 -8.11,13.64 -15.02,13.64 -6.73,0 -10.18,-5.18 -12.26,-8.99 -2.94,-6.22 -5.53,-16.58 -5.53,-17.44 0,-0.68 0.7,-1.54 1.9,-1.54 1.38,0 1.55,0.17 2.6,4.14 2.59,10.36 5.87,20.37 12.78,20.37 4.14,0 5.34,-2.93 5.34,-7.93 0,-3.82 -1.72,-10.55 -2.94,-15.89 l -4.82,-18.66 c -0.69,-3.28 -2.6,-11.05 -3.46,-14.16 -1.2,-4.48 -3.11,-12.61 -3.11,-13.47 0,-2.42 1.91,-4.32 4.49,-4.32 1.9,0 5.19,1.21 6.22,4.67 0.51,1.37 6.9,27.45 7.95,31.42 0.86,3.81 1.89,7.44 2.75,11.23 0.7,2.43 1.39,5.18 1.91,7.43 0.51,1.56 5.18,10.01 9.5,13.81 2.07,1.9 6.56,5.87 13.64,5.87 2.76,0 5.53,-0.51 7.76,-2.07" /><path
         id="path32"
         style="fill:#000000;fill-opacity:1;fill-rule:nonzero;stroke:none"
         d="m 2527.57,1074.16 v 56.7 l 71.41,-28.35" /><path
         id="path34"
         style="fill:none;stroke:#000000;stroke-width:15.9404;stroke-linecap:butt;stroke-linejoin:miter;stroke-miterlimit:10;stroke-dasharray:none;stroke-opacity:1"
         d="m 2527.57,1074.16 v 56.7 l 71.41,-28.35 z" /><path
         id="path36"
         style="fill:none;stroke:#000000;stroke-width:15.9404;stroke-linecap:butt;stroke-linejoin:miter;stroke-miterlimit:10;stroke-dasharray:none;stroke-opacity:1"
         d="m 2527.57,1102.51 h 79.38" /><path
         id="path38"
         style="fill:#0000ff;fill-opacity:1;fill-rule:nonzero;stroke:none"
         d="m 2526.91,1238.06 c 4.67,0 16.4,0.35 24.7,3.46 13.12,5.01 14.33,15.03 14.33,18.14 0,7.59 -6.56,14.5 -17.96,14.5 -18.14,0 -44.21,-16.41 -44.21,-47.14 0,-18.14 10.37,-30.75 26.07,-30.75 23.49,0 38.35,18.31 38.35,20.56 0,1.03 -1.03,1.89 -1.74,1.89 -0.51,0 -0.68,-0.17 -2.23,-1.72 -11.06,-14.69 -27.47,-17.27 -34.03,-17.27 -9.85,0 -15.02,7.77 -15.02,20.55 0,2.41 0,6.74 2.6,17.78 z m -8.28,3.46 c 7.42,26.59 23.82,29.18 29.35,29.18 7.6,0 12.79,-4.48 12.79,-11.04 0,-18.14 -27.64,-18.14 -34.89,-18.14 h -7.25" /><path
         id="path40"
         style="fill:#0000ff;fill-opacity:1;fill-rule:nonzero;stroke:none"
         d="m 2627.45,1192.03 h -2.62 c -0.36,-2.03 -1.31,-8.59 -2.5,-10.5 -0.85,-1.06 -7.64,-1.06 -11.2,-1.06 h -22.07 c 3.22,2.73 10.5,10.36 13.6,13.22 18.12,16.7 24.79,22.89 24.79,34.7 0,13.7 -10.84,22.88 -24.67,22.88 -13.83,0 -21.94,-11.8 -21.94,-22.05 0,-6.08 5.25,-6.08 5.6,-6.08 2.51,0 5.61,1.78 5.61,5.59 0,3.35 -2.27,5.61 -5.61,5.61 -1.06,0 -1.31,0 -1.66,-0.12 2.27,8.11 8.7,13.59 16.44,13.59 10.14,0 16.34,-8.47 16.34,-19.42 0,-10.14 -5.84,-18.95 -12.64,-26.59 l -24.08,-26.94 V 1172 h 43.5 l 3.11,20.03" /><path
         id="path42"
         style="fill:none;stroke:#000000;stroke-width:15.9404;stroke-linecap:butt;stroke-linejoin:miter;stroke-miterlimit:10;stroke-dasharray:none;stroke-opacity:1"
         d="m 2894.32,875.734 h 453.551 v 453.551 H 2894.32 Z" /><path
         id="path44"
         style="fill:#0000ff;fill-opacity:1;fill-rule:nonzero;stroke:none"
         d="m 3081.33,996.75 c 3.19,0.188 4.87,2.375 4.87,4.86 0,3.28 -2.48,4.87 -4.76,4.87 -2.39,0 -4.88,-1.5 -4.88,-4.96 0,-5.082 4.97,-9.254 11.03,-9.254 15.1,0 20.75,23.254 27.82,52.064 7.64,31.39 14.11,63.08 19.47,94.97 3.67,21.15 7.34,41.01 10.73,53.83 1.19,4.87 4.56,17.68 8.44,17.68 3.08,0 5.56,-1.89 5.95,-2.28 -3.27,-0.2 -4.95,-2.39 -4.95,-4.87 0,-3.27 2.47,-4.86 4.76,-4.86 2.38,0 4.86,1.48 4.86,4.97 0,5.36 -5.36,9.23 -10.83,9.23 -7.54,0 -13.11,-10.83 -18.57,-31.09 -0.3,-1.1 -13.8,-50.96 -24.74,-115.93 -2.58,-15.2 -5.45,-31.79 -8.73,-45.59 -1.8,-7.25 -6.36,-25.937 -14.41,-25.937 -3.58,0 -5.95,2.297 -6.06,2.297" /><path
         id="path46"
         style="fill:#000000;fill-opacity:1;fill-rule:nonzero;stroke:none"
         d="m 3576.41,735.414 h 56.7 l -28.35,-71.398" /><path
         id="path48"
         style="fill:none;stroke:#000000;stroke-width:15.9404;stroke-linecap:butt;stroke-linejoin:miter;stroke-miterlimit:10;stroke-dasharray:none;stroke-opacity:1"
         d="m 3576.41,735.414 h 56.7 l -28.35,-71.398 z" /><path
         id="path50"
         style="fill:none;stroke:#000000;stroke-width:15.9404;stroke-linecap:butt;stroke-linejoin:miter;stroke-miterlimit:10;stroke-dasharray:none;stroke-opacity:1"
         d="M 3604.76,735.414 V 656.043" /><path
         id="path52"
         style="fill:#0000ff;fill-opacity:1;fill-rule:nonzero;stroke:none"
         d="m 3681.42,653.063 c -1.2,-5.172 -1.89,-6.563 -8.97,-6.563 -2.07,0 -3.81,0 -3.81,-3.281 0,-0.344 0.17,-1.719 2.08,-1.719 2.25,0 4.66,0.344 6.91,0.344 h 7.42 c 3.62,0 12.43,-0.344 16.06,-0.344 1.05,0 3.11,0 3.11,3.109 0,1.891 -1.2,1.891 -4.14,1.891 -7.94,0 -8.47,1.219 -8.47,2.594 0,2.078 7.78,31.781 8.81,35.75 1.91,-4.828 6.56,-11.578 15.55,-11.578 19.51,0 40.58,25.39 40.58,50.781 0,15.891 -8.99,27.109 -21.94,27.109 -11.05,0 -20.38,-10.703 -22.27,-13.125 -1.39,8.641 -8.12,13.125 -15.03,13.125 -5,0 -8.98,-2.422 -12.26,-8.984 -3.11,-6.219 -5.52,-16.75 -5.52,-17.438 0,-0.687 0.69,-1.546 1.89,-1.546 1.39,0 1.56,0.171 2.6,4.14 2.59,10.188 5.87,20.375 12.78,20.375 3.97,0 5.36,-2.765 5.36,-7.937 0,-4.157 -0.53,-5.875 -1.22,-8.985 z m 29.88,75.812 c 1.22,4.844 6.04,9.844 8.81,12.266 1.91,1.734 7.59,6.562 14.16,6.562 7.61,0 11.06,-7.594 11.06,-16.578 0,-8.281 -4.85,-27.797 -9.16,-36.781 -4.31,-9.328 -12.26,-17.61 -20.2,-17.61 -11.75,0 -13.64,14.844 -13.64,15.532 0,0.515 0.34,1.906 0.51,2.765 l 8.46,33.844" /><path
         id="path54"
         style="fill:none;stroke:#000000;stroke-width:15.9404;stroke-linecap:butt;stroke-linejoin:miter;stroke-miterlimit:10;stroke-dasharray:none;stroke-opacity:1"
         d="m 41.1563,41.1563 h 453.547 v 453.547 H 41.1563 Z" /><path
         id="path56"
         style="fill:#0000ff;fill-opacity:1;fill-rule:nonzero;stroke:none"
         d="m 273.016,294.422 c 3.453,0 4.843,0 4.843,3.281 0,1.735 -1.39,1.735 -4.5,1.735 h -13.984 c 3.281,17.781 5.703,30.046 7.078,35.562 1.047,4.156 4.672,8.125 9.156,8.125 3.625,0 7.25,-1.562 8.985,-3.109 -6.735,-0.688 -8.813,-5.703 -8.813,-8.641 0,-3.453 2.594,-5.516 5.875,-5.516 3.453,0 8.641,2.922 8.641,9.485 0,7.265 -7.266,11.234 -14.859,11.234 -7.422,0 -14.672,-5.531 -18.125,-12.265 -3.11,-6.047 -4.844,-12.266 -8.813,-34.875 h -11.578 c -3.281,0 -5,0 -5,-3.11 0,-1.906 1.031,-1.906 4.484,-1.906 h 11.063 c -3.11,-16.063 -10.188,-55.094 -14.172,-73.563 -2.938,-15.031 -5.516,-27.64 -14.156,-27.64 -0.516,0 -5.532,0 -8.641,3.281 8.813,0.703 8.813,8.297 8.813,8.469 0,3.453 -2.594,5.531 -5.875,5.531 -3.454,0 -8.625,-2.937 -8.625,-9.5 0,-7.437 7.593,-11.234 14.328,-11.234 17.609,0 24.875,31.609 26.765,40.25 3.11,13.297 11.578,59.218 12.438,64.406 h 14.672" /><path
         id="path58"
         style="fill:#0000ff;fill-opacity:1;fill-rule:nonzero;stroke:none"
         d="m 306.172,222.844 c 2.031,-0.36 5.25,-1.078 5.969,-1.188 1.547,-0.484 6.906,-2.39 6.906,-8.109 0,-3.703 -3.328,-13.359 -17.156,-13.359 -2.5,0 -11.453,0.359 -13.828,6.921 4.765,-0.593 7.156,3.094 7.156,5.719 0,2.5 -1.672,3.813 -4.063,3.813 -2.625,0 -6.078,-2.032 -6.078,-7.391 0,-7.031 7.156,-11.437 16.688,-11.437 18.125,0 23.484,13.343 23.484,19.546 0,1.782 0,5.125 -3.812,8.938 -2.985,2.859 -5.844,3.453 -12.282,4.766 -3.218,0.718 -8.343,1.796 -8.343,7.156 0,2.39 2.14,10.969 13.468,10.969 5.016,0 9.891,-1.907 11.094,-6.204 -5.25,0 -5.484,-4.531 -5.484,-4.64 0,-2.516 2.265,-3.219 3.328,-3.219 1.672,0 5.015,1.313 5.015,6.313 0,5 -4.531,10.125 -13.828,10.125 -15.625,0 -19.797,-12.266 -19.797,-17.157 0,-9.062 8.829,-10.968 11.563,-11.562" /><path
         id="path60"
         style="fill:#000000;fill-opacity:1;fill-rule:nonzero;stroke:none"
         d="m 782.086,239.582 v 56.695 l 71.398,-28.347" /><path
         id="path62"
         style="fill:none;stroke:#000000;stroke-width:15.9404;stroke-linecap:butt;stroke-linejoin:miter;stroke-miterlimit:10;stroke-dasharray:none;stroke-opacity:1"
         d="m 782.086,239.582 v 56.695 l 71.398,-28.347 z" /><path
         id="path64"
         style="fill:none;stroke:#000000;stroke-width:15.9404;stroke-linecap:butt;stroke-linejoin:miter;stroke-miterlimit:10;stroke-dasharray:none;stroke-opacity:1"
         d="m 782.086,267.93 h 79.371" /><path
         id="path66"
         style="fill:#0000ff;fill-opacity:1;fill-rule:nonzero;stroke:none"
         d="m 825.016,440.422 c 3.453,0 4.843,0 4.843,3.281 0,1.735 -1.39,1.735 -4.5,1.735 h -13.984 c 3.281,17.781 5.703,30.046 7.078,35.562 1.047,4.156 4.672,8.125 9.156,8.125 3.625,0 7.25,-1.562 8.985,-3.109 -6.735,-0.688 -8.813,-5.703 -8.813,-8.641 0,-3.453 2.594,-5.516 5.875,-5.516 3.453,0 8.641,2.922 8.641,9.485 0,7.265 -7.266,11.234 -14.859,11.234 -7.422,0 -14.672,-5.531 -18.125,-12.265 -3.11,-6.047 -4.844,-12.266 -8.813,-34.875 h -11.578 c -3.281,0 -5,0 -5,-3.11 0,-1.906 1.031,-1.906 4.484,-1.906 h 11.063 c -3.11,-16.063 -10.188,-55.094 -14.172,-73.563 -2.938,-15.031 -5.516,-27.64 -14.156,-27.64 -0.516,0 -5.532,0 -8.641,3.281 8.813,0.703 8.813,8.297 8.813,8.469 0,3.453 -2.594,5.531 -5.875,5.531 -3.454,0 -8.625,-2.937 -8.625,-9.5 0,-7.437 7.593,-11.234 14.328,-11.234 17.609,0 24.875,31.609 26.765,40.25 3.11,13.297 11.578,59.218 12.438,64.406 h 14.672" /><path
         id="path68"
         style="fill:#0000ff;fill-opacity:1;fill-rule:nonzero;stroke:none"
         d="m 866.328,421.406 c 0,2.75 0,2.86 -2.375,2.86 -2.875,-3.219 -8.828,-7.625 -21.109,-7.625 v -3.453 c 2.75,0 8.703,0 15.265,3.093 v -62.109 c 0,-4.281 -0.359,-5.719 -10.843,-5.719 h -3.703 V 345 c 3.218,0.234 14.781,0.234 18.718,0.234 3.938,0 15.375,0 18.594,-0.234 v 3.453 h -3.703 c -10.484,0 -10.844,1.438 -10.844,5.719 v 67.234" /><path
         id="path70"
         style="fill:none;stroke:#000000;stroke-width:15.9404;stroke-linecap:butt;stroke-linejoin:miter;stroke-miterlimit:10;stroke-dasharray:none;stroke-opacity:1"
         d="m 1148.85,41.1563 h 453.547 v 453.547 H 1148.85 Z" /><path
         id="path72"
         style="fill:#0000ff;fill-opacity:1;fill-rule:nonzero;stroke:none"
         d="m 1402.17,301.625 c -5.34,-1.031 -8.11,-4.828 -8.11,-8.625 0,-4.141 3.28,-5.531 5.71,-5.531 4.82,0 8.79,4.14 8.79,9.328 0,5.531 -5.34,10.359 -13.98,10.359 -6.91,0 -14.85,-3.109 -22.11,-13.64 -1.2,9.156 -8.11,13.64 -15.02,13.64 -6.73,0 -10.18,-5.172 -12.26,-8.984 -2.94,-6.219 -5.53,-16.578 -5.53,-17.438 0,-0.687 0.7,-1.546 1.9,-1.546 1.38,0 1.55,0.171 2.6,4.14 2.59,10.36 5.87,20.375 12.78,20.375 4.14,0 5.34,-2.937 5.34,-7.937 0,-3.813 -1.72,-10.547 -2.94,-15.891 l -4.82,-18.656 c -0.69,-3.281 -2.6,-11.047 -3.46,-14.156 -1.2,-4.485 -3.11,-12.61 -3.11,-13.469 0,-2.422 1.91,-4.328 4.49,-4.328 1.9,0 5.19,1.218 6.22,4.672 0.51,1.375 6.9,27.453 7.95,31.421 0.86,3.813 1.89,7.438 2.75,11.235 0.7,2.422 1.39,5.172 1.91,7.422 0.51,1.562 5.18,10.015 9.5,13.812 2.07,1.906 6.56,5.875 13.64,5.875 2.76,0 5.53,-0.515 7.76,-2.078" /><path
         id="path74"
         style="fill:#000000;fill-opacity:1;fill-rule:nonzero;stroke:none"
         d="m 2606.95,296.277 v -56.695 l -71.4,28.348" /><path
         id="path76"
         style="fill:none;stroke:#000000;stroke-width:15.9404;stroke-linecap:butt;stroke-linejoin:miter;stroke-miterlimit:10;stroke-dasharray:none;stroke-opacity:1"
         d="m 2606.95,296.277 v -56.695 l -71.4,28.348 z" /><path
         id="path78"
         style="fill:none;stroke:#000000;stroke-width:15.9404;stroke-linecap:butt;stroke-linejoin:miter;stroke-miterlimit:10;stroke-dasharray:none;stroke-opacity:1"
         d="m 2606.95,267.93 h -79.38" /><path
         id="path80"
         style="fill:#0000ff;fill-opacity:1;fill-rule:nonzero;stroke:none"
         d="m 2571.02,440.422 c 3.45,0 4.84,0 4.84,3.281 0,1.735 -1.39,1.735 -4.5,1.735 h -13.98 c 3.28,17.781 5.7,30.046 7.07,35.562 1.05,4.156 4.68,8.125 9.16,8.125 3.62,0 7.25,-1.562 8.98,-3.109 -6.73,-0.688 -8.81,-5.703 -8.81,-8.641 0,-3.453 2.6,-5.516 5.88,-5.516 3.45,0 8.64,2.922 8.64,9.485 0,7.265 -7.27,11.234 -14.86,11.234 -7.42,0 -14.67,-5.531 -18.13,-12.265 -3.11,-6.047 -4.84,-12.266 -8.81,-34.875 h -11.58 c -3.28,0 -5,0 -5,-3.11 0,-1.906 1.03,-1.906 4.49,-1.906 h 11.06 c -3.11,-16.063 -10.19,-55.094 -14.17,-73.563 -2.94,-15.031 -5.52,-27.64 -14.16,-27.64 -0.51,0 -5.53,0 -8.64,3.281 8.81,0.703 8.81,8.297 8.81,8.469 0,3.453 -2.59,5.531 -5.87,5.531 -3.46,0 -8.63,-2.937 -8.63,-9.5 0,-7.437 7.6,-11.234 14.33,-11.234 17.61,0 24.88,31.609 26.77,40.25 3.11,13.297 11.57,59.218 12.43,64.406 h 14.68" /><path
         id="path82"
         style="fill:#0000ff;fill-opacity:1;fill-rule:nonzero;stroke:none"
         d="m 2629.45,365.031 h -2.62 c -0.36,-2.031 -1.31,-8.593 -2.5,-10.5 -0.85,-1.062 -7.64,-1.062 -11.2,-1.062 h -22.07 c 3.22,2.734 10.5,10.359 13.6,13.219 18.12,16.703 24.79,22.89 24.79,34.703 0,13.703 -10.84,22.875 -24.67,22.875 -13.83,0 -21.94,-11.797 -21.94,-22.047 0,-6.078 5.25,-6.078 5.6,-6.078 2.51,0 5.61,1.781 5.61,5.593 0,3.344 -2.27,5.61 -5.61,5.61 -1.06,0 -1.31,0 -1.66,-0.125 2.27,8.109 8.7,13.594 16.44,13.594 10.14,0 16.34,-8.469 16.34,-19.422 0,-10.141 -5.84,-18.953 -12.64,-26.594 l -24.08,-26.938 V 345 h 43.5 l 3.11,20.031" /><path
         id="path84"
         style="fill:none;stroke:#000000;stroke-width:15.9404;stroke-linecap:butt;stroke-linejoin:miter;stroke-miterlimit:10;stroke-dasharray:none;stroke-opacity:1"
         d="m 2894.32,41.1563 h 453.551 v 453.547 H 2894.32 Z" /><path
         id="path86"
         style="fill:#0000ff;fill-opacity:1;fill-rule:nonzero;stroke:none"
         d="m 3126.33,369.406 c 0,2.75 0,2.86 -2.38,2.86 -2.87,-3.219 -8.82,-7.625 -21.11,-7.625 v -3.453 c 2.75,0 8.71,0 15.27,3.093 v -62.109 c 0,-4.281 -0.36,-5.719 -10.84,-5.719 h -3.71 V 293 c 3.22,0.234 14.78,0.234 18.72,0.234 3.94,0 15.38,0 18.6,-0.234 v 3.453 h -3.71 c -10.48,0 -10.84,1.438 -10.84,5.719 v 67.234" /><path
         id="path88"
         style="fill:none;stroke:#0000ff;stroke-width:3.985;stroke-linecap:butt;stroke-linejoin:miter;stroke-miterlimit:10;stroke-dasharray:none;stroke-opacity:1"
         d="m 3090.59,268.238 h 61.02" /><path
         id="path90"
         style="fill:#0000ff;fill-opacity:1;fill-rule:nonzero;stroke:none"
         d="m 3134.88,238.594 c 1.06,4.172 1.29,5.359 10,5.359 2.62,0 3.57,0 3.57,2.266 0,1.203 -1.31,1.203 -1.67,1.203 -2.14,0 -4.76,-0.25 -6.9,-0.25 h -14.66 c -2.39,0 -5.14,0.25 -7.52,0.25 -0.95,0 -2.26,0 -2.26,-2.266 0,-1.203 0.95,-1.203 3.34,-1.203 7.39,0 7.39,-0.953 7.39,-2.265 0,-0.829 -0.25,-1.547 -0.48,-2.61 l -16.1,-64.25 c -1.07,-4.172 -1.31,-5.375 -10.01,-5.375 -2.63,0 -3.69,0 -3.69,-2.265 0,-1.188 1.19,-1.188 1.78,-1.188 2.16,0 4.77,0.234 6.92,0.234 h 14.66 c 2.39,0 5.02,-0.234 7.39,-0.234 0.95,0 2.39,0 2.39,2.141 0,1.312 -0.72,1.312 -3.34,1.312 -7.39,0 -7.39,0.953 -7.39,2.391 0,0.234 0,0.828 0.48,2.734 l 16.1,64.016" /><path
         id="path92"
         style="fill:none;stroke:#000000;stroke-width:15.9404;stroke-linecap:round;stroke-linejoin:miter;stroke-miterlimit:10;stroke-dasharray:none;stroke-opacity:1"
         d="m 2009.71,634.449 c -27.9,14.215 -38.99,48.352 -24.78,76.25 14.22,27.899 48.36,38.992 76.25,24.781 v 0" /><path
         id="path94"
         style="fill:none;stroke:#000000;stroke-width:15.9404;stroke-linecap:butt;stroke-linejoin:miter;stroke-miterlimit:10;stroke-dasharray:none;stroke-opacity:1"
         d="m 502.676,267.934 h 279.422 m 79.371,0 h 279.421 m 469.49,0 h 212.6 l 186.73,366.519 m 51.47,101.024 186.99,367.013 0.01,0.03 h 279.43 m 79.36,0 h 279.42 m 469.5,0 H 3604.8 V 735.422 m 0,-79.371 V 267.934 h -248.91 m -469.5,0 h -279.42 m -79.36,0 h -279.43 l -425.2,834.586 h -212.6 m -469.49,0 H 861.469 m -79.371,0 H 445.98" /></g></g></svg>
