<?xml version="1.0" encoding="UTF-8" standalone="no"?>
<svg
   xmlns:dc="http://purl.org/dc/elements/1.1/"
   xmlns:cc="http://creativecommons.org/ns#"
   xmlns:rdf="http://www.w3.org/1999/02/22-rdf-syntax-ns#"
   xmlns:svg="http://www.w3.org/2000/svg"
   xmlns="http://www.w3.org/2000/svg"
   viewBox="0 0 276.81332 182.73334"
   height="182.73334"
   width="276.81332"
   xml:space="preserve"
   id="svg2"
   version="1.1"><metadata
     id="metadata8"><rdf:RDF><cc:Work
         rdf:about=""><dc:format>image/svg+xml</dc:format><dc:type
           rdf:resource="http://purl.org/dc/dcmitype/StillImage" /></cc:Work></rdf:RDF></metadata><defs
     id="defs6" /><g
     transform="matrix(1.3333333,0,0,-1.3333333,0,182.73333)"
     id="g10"><g
       transform="scale(0.1)"
       id="g12"><path
         id="path14"
         style="fill:none;stroke:#000000;stroke-width:15.9404;stroke-linecap:butt;stroke-linejoin:miter;stroke-miterlimit:10;stroke-dasharray:none;stroke-opacity:1"
         d="m 97.8477,932.43 h 340.164 v 340.16 H 97.8477 Z" /><path
         id="path16"
         style="fill:none;stroke:#000000;stroke-width:15.9404;stroke-linecap:butt;stroke-linejoin:miter;stroke-miterlimit:10;stroke-dasharray:none;stroke-opacity:1"
         d="M 438.012,1102.51 H 154.484 M 381.375,989.066 H 154.484 v 226.884 h 226.891" /><path
         id="path18"
         style="fill:#000000;fill-opacity:1;fill-rule:nonzero;stroke:none"
         d="m 861.465,1130.86 v -56.7 l -71.399,28.35" /><path
         id="path20"
         style="fill:none;stroke:#000000;stroke-width:15.9404;stroke-linecap:butt;stroke-linejoin:miter;stroke-miterlimit:10;stroke-dasharray:none;stroke-opacity:1"
         d="m 861.465,1130.86 v -56.7 l -71.399,28.35 z" /><path
         id="path22"
         style="fill:none;stroke:#000000;stroke-width:15.9404;stroke-linecap:butt;stroke-linejoin:miter;stroke-miterlimit:10;stroke-dasharray:none;stroke-opacity:1"
         d="M 861.465,1102.51 H 782.094" /><path
         id="path24"
         style="fill:#0000ff;fill-opacity:1;fill-rule:nonzero;stroke:none"
         d="m 781.906,1238.06 c 4.672,0 16.407,0.35 24.703,3.46 13.125,5.01 14.329,15.03 14.329,18.14 0,7.59 -6.563,14.5 -17.954,14.5 -18.14,0 -44.218,-16.41 -44.218,-47.14 0,-18.14 10.375,-30.75 26.078,-30.75 23.484,0 38.344,18.31 38.344,20.56 0,1.03 -1.032,1.89 -1.735,1.89 -0.515,0 -0.687,-0.17 -2.234,-1.72 -11.063,-14.69 -27.469,-17.27 -34.031,-17.27 -9.844,0 -15.016,7.77 -15.016,20.55 0,2.41 0,6.74 2.594,17.78 z m -8.281,3.46 c 7.422,26.59 23.828,29.18 29.359,29.18 7.594,0 12.782,-4.48 12.782,-11.04 0,-18.14 -27.641,-18.14 -34.891,-18.14 h -7.25" /><path
         id="path26"
         style="fill:#0000ff;fill-opacity:1;fill-rule:nonzero;stroke:none"
         d="m 863.328,1248.41 c 0,2.75 0,2.86 -2.375,2.86 -2.875,-3.22 -8.828,-7.63 -21.109,-7.63 v -3.45 c 2.75,0 8.703,0 15.265,3.09 v -62.11 c 0,-4.28 -0.359,-5.72 -10.843,-5.72 h -3.703 V 1172 c 3.218,0.23 14.781,0.23 18.718,0.23 3.938,0 15.375,0 18.594,-0.23 v 3.45 h -3.703 c -10.484,0 -10.844,1.44 -10.844,5.72 v 67.24" /><path
         id="path28"
         style="fill:none;stroke:#000000;stroke-width:15.9404;stroke-linecap:butt;stroke-linejoin:miter;stroke-miterlimit:10;stroke-dasharray:none;stroke-opacity:1"
         d="m 1148.85,875.734 h 453.547 v 453.551 H 1148.85 Z" /><path
         id="path30"
         style="fill:#0000ff;fill-opacity:1;fill-rule:nonzero;stroke:none"
         d="m 1380.33,1204.41 c 0,2.75 0,2.86 -2.38,2.86 -2.87,-3.22 -8.82,-7.63 -21.11,-7.63 v -3.45 c 2.75,0 8.71,0 15.27,3.09 v -62.11 c 0,-4.28 -0.36,-5.72 -10.84,-5.72 h -3.71 V 1128 c 3.22,0.23 14.78,0.23 18.72,0.23 3.94,0 15.38,0 18.6,-0.23 v 3.45 h -3.71 c -10.48,0 -10.84,1.44 -10.84,5.72 v 67.24" /><path
         id="path32"
         style="fill:none;stroke:#0000ff;stroke-width:3.985;stroke-linecap:butt;stroke-linejoin:miter;stroke-miterlimit:10;stroke-dasharray:none;stroke-opacity:1"
         d="m 1329.46,1102.82 h 92.33" /><path
         id="path34"
         style="fill:#0000ff;fill-opacity:1;fill-rule:nonzero;stroke:none"
         d="m 1418.05,1082.84 c 0,1.08 -0.83,1.08 -1.08,1.08 -0.24,0 -0.72,0 -1.67,-1.19 l -8.22,-10.01 c -4.17,7.14 -10.74,11.2 -19.67,11.2 -25.75,0 -52.46,-26.11 -52.46,-54.12 0,-19.91 13.96,-32.3 31.36,-32.3 9.53,0 17.88,4.05 24.8,9.89 10.36,8.7 13.47,20.27 13.47,21.22 0,1.08 -0.95,1.08 -1.31,1.08 -1.08,0 -1.19,-0.72 -1.44,-1.21 -5.49,-18.59 -21.56,-27.53 -33.49,-27.53 -12.64,0 -23.61,8.11 -23.61,25.03 0,3.82 1.19,24.57 14.66,40.18 6.56,7.62 17.77,14.31 29.09,14.31 13.11,0 18.96,-10.86 18.96,-23.02 0,-3.09 -0.36,-5.72 -0.36,-6.18 0,-1.08 1.19,-1.08 1.55,-1.08 1.31,0 1.43,0.11 1.9,2.26 l 7.52,30.39" /><path
         id="path36"
         style="fill:#000000;fill-opacity:1;fill-rule:nonzero;stroke:none"
         d="m 1887.63,656.043 h -56.7 l 28.35,71.402" /><path
         id="path38"
         style="fill:none;stroke:#000000;stroke-width:15.9404;stroke-linecap:butt;stroke-linejoin:miter;stroke-miterlimit:10;stroke-dasharray:none;stroke-opacity:1"
         d="m 1887.63,656.043 h -56.7 l 28.35,71.402 z" /><path
         id="path40"
         style="fill:none;stroke:#000000;stroke-width:15.9404;stroke-linecap:butt;stroke-linejoin:miter;stroke-miterlimit:10;stroke-dasharray:none;stroke-opacity:1"
         d="m 1859.28,656.043 v 79.371" /><path
         id="path42"
         style="fill:#0000ff;fill-opacity:1;fill-rule:nonzero;stroke:none"
         d="m 2005.16,749.438 c 0,0.859 -0.69,1.546 -1.55,1.546 -1.39,0 -8.13,-6.218 -11.41,-12.265 -3.11,7.781 -8.45,12.437 -15.89,12.437 -19.51,0 -40.58,-25.218 -40.58,-50.765 0,-17.094 10.02,-27.125 21.77,-27.125 9.14,0 16.75,6.922 20.38,10.89 l 0.17,-0.172 -6.57,-25.906 -1.56,-6.219 c -1.54,-5.187 -4.14,-5.187 -12.25,-5.359 -1.9,0 -3.62,0 -3.62,-3.281 0,-1.203 1.03,-1.719 2.23,-1.719 2.42,0 5.53,0.344 7.95,0.344 h 17.61 c 2.6,0 5.54,-0.344 8.11,-0.344 1.05,0 3.11,0 3.11,3.281 0,1.719 -1.37,1.719 -3.97,1.719 -8.11,0 -8.62,1.219 -8.62,2.594 0,0.859 0.17,1.031 0.69,3.281 z m -24.35,-53.891 c -0.87,-2.938 -0.87,-3.281 -3.28,-6.563 -3.8,-4.828 -11.4,-12.25 -19.51,-12.25 -7.08,0 -11.07,6.375 -11.07,16.579 0,9.484 5.36,28.828 8.64,36.093 5.88,12.078 13.99,18.297 20.72,18.297 11.41,0 13.64,-14.156 13.64,-15.547 0,-0.172 -0.51,-2.406 -0.68,-2.75 l -8.46,-33.859" /><path
         id="path44"
         style="fill:none;stroke:#000000;stroke-width:15.9404;stroke-linecap:butt;stroke-linejoin:miter;stroke-miterlimit:10;stroke-dasharray:none;stroke-opacity:1"
         d="m 41.1563,41.1563 h 453.547 v 453.547 H 41.1563 Z" /><path
         id="path46"
         style="fill:#0000ff;fill-opacity:1;fill-rule:nonzero;stroke:none"
         d="m 273.016,294.422 c 3.453,0 4.843,0 4.843,3.281 0,1.735 -1.39,1.735 -4.5,1.735 h -13.984 c 3.281,17.781 5.703,30.046 7.078,35.562 1.047,4.156 4.672,8.125 9.156,8.125 3.625,0 7.25,-1.562 8.985,-3.109 -6.735,-0.688 -8.813,-5.703 -8.813,-8.641 0,-3.453 2.594,-5.516 5.875,-5.516 3.453,0 8.641,2.922 8.641,9.485 0,7.265 -7.266,11.234 -14.859,11.234 -7.422,0 -14.672,-5.531 -18.125,-12.265 -3.11,-6.047 -4.844,-12.266 -8.813,-34.875 h -11.578 c -3.281,0 -5,0 -5,-3.11 0,-1.906 1.031,-1.906 4.484,-1.906 h 11.063 c -3.11,-16.063 -10.188,-55.094 -14.172,-73.563 -2.938,-15.031 -5.516,-27.64 -14.156,-27.64 -0.516,0 -5.532,0 -8.641,3.281 8.813,0.703 8.813,8.297 8.813,8.469 0,3.453 -2.594,5.531 -5.875,5.531 -3.454,0 -8.625,-2.937 -8.625,-9.5 0,-7.437 7.593,-11.234 14.328,-11.234 17.609,0 24.875,31.609 26.765,40.25 3.11,13.297 11.578,59.218 12.438,64.406 h 14.672" /><path
         id="path48"
         style="fill:#0000ff;fill-opacity:1;fill-rule:nonzero;stroke:none"
         d="m 306.172,222.844 c 2.031,-0.36 5.25,-1.078 5.969,-1.188 1.547,-0.484 6.906,-2.39 6.906,-8.109 0,-3.703 -3.328,-13.359 -17.156,-13.359 -2.5,0 -11.453,0.359 -13.828,6.921 4.765,-0.593 7.156,3.094 7.156,5.719 0,2.5 -1.672,3.813 -4.063,3.813 -2.625,0 -6.078,-2.032 -6.078,-7.391 0,-7.031 7.156,-11.437 16.688,-11.437 18.125,0 23.484,13.343 23.484,19.546 0,1.782 0,5.125 -3.812,8.938 -2.985,2.859 -5.844,3.453 -12.282,4.766 -3.218,0.718 -8.343,1.796 -8.343,7.156 0,2.39 2.14,10.969 13.468,10.969 5.016,0 9.891,-1.907 11.094,-6.204 -5.25,0 -5.484,-4.531 -5.484,-4.64 0,-2.516 2.265,-3.219 3.328,-3.219 1.672,0 5.015,1.313 5.015,6.313 0,5 -4.531,10.125 -13.828,10.125 -15.625,0 -19.797,-12.266 -19.797,-17.157 0,-9.062 8.829,-10.968 11.563,-11.562" /><path
         id="path50"
         style="fill:#000000;fill-opacity:1;fill-rule:nonzero;stroke:none"
         d="m 782.094,239.582 v 56.695 l 71.402,-28.347" /><path
         id="path52"
         style="fill:none;stroke:#000000;stroke-width:15.9404;stroke-linecap:butt;stroke-linejoin:miter;stroke-miterlimit:10;stroke-dasharray:none;stroke-opacity:1"
         d="m 782.094,239.582 v 56.695 l 71.402,-28.347 z" /><path
         id="path54"
         style="fill:none;stroke:#000000;stroke-width:15.9404;stroke-linecap:butt;stroke-linejoin:miter;stroke-miterlimit:10;stroke-dasharray:none;stroke-opacity:1"
         d="m 782.094,267.93 h 79.371" /><path
         id="path56"
         style="fill:#0000ff;fill-opacity:1;fill-rule:nonzero;stroke:none"
         d="m 825.016,440.422 c 3.453,0 4.843,0 4.843,3.281 0,1.735 -1.39,1.735 -4.5,1.735 h -13.984 c 3.281,17.781 5.703,30.046 7.078,35.562 1.047,4.156 4.672,8.125 9.156,8.125 3.625,0 7.25,-1.562 8.985,-3.109 -6.735,-0.688 -8.813,-5.703 -8.813,-8.641 0,-3.453 2.594,-5.516 5.875,-5.516 3.453,0 8.641,2.922 8.641,9.485 0,7.265 -7.266,11.234 -14.859,11.234 -7.422,0 -14.672,-5.531 -18.125,-12.265 -3.11,-6.047 -4.844,-12.266 -8.813,-34.875 h -11.578 c -3.281,0 -5,0 -5,-3.11 0,-1.906 1.031,-1.906 4.484,-1.906 h 11.063 c -3.11,-16.063 -10.188,-55.094 -14.172,-73.563 -2.938,-15.031 -5.516,-27.64 -14.156,-27.64 -0.516,0 -5.532,0 -8.641,3.281 8.813,0.703 8.813,8.297 8.813,8.469 0,3.453 -2.594,5.531 -5.875,5.531 -3.454,0 -8.625,-2.937 -8.625,-9.5 0,-7.437 7.593,-11.234 14.328,-11.234 17.609,0 24.875,31.609 26.765,40.25 3.11,13.297 11.578,59.218 12.438,64.406 h 14.672" /><path
         id="path58"
         style="fill:#0000ff;fill-opacity:1;fill-rule:nonzero;stroke:none"
         d="m 866.328,421.406 c 0,2.75 0,2.86 -2.375,2.86 -2.875,-3.219 -8.828,-7.625 -21.109,-7.625 v -3.453 c 2.75,0 8.703,0 15.265,3.093 v -62.109 c 0,-4.281 -0.359,-5.719 -10.843,-5.719 h -3.703 V 345 c 3.218,0.234 14.781,0.234 18.718,0.234 3.938,0 15.375,0 18.594,-0.234 v 3.453 h -3.703 c -10.484,0 -10.844,1.438 -10.844,5.719 v 67.234" /><path
         id="path60"
         style="fill:none;stroke:#000000;stroke-width:15.9404;stroke-linecap:butt;stroke-linejoin:miter;stroke-miterlimit:10;stroke-dasharray:none;stroke-opacity:1"
         d="m 1148.85,41.1563 h 453.547 v 453.547 H 1148.85 Z" /><path
         id="path62"
         style="fill:#0000ff;fill-opacity:1;fill-rule:nonzero;stroke:none"
         d="m 1336.33,162.75 c 3.19,0.188 4.87,2.375 4.87,4.859 0,3.282 -2.48,4.875 -4.76,4.875 -2.39,0 -4.88,-1.5 -4.88,-4.968 0,-5.078 4.97,-9.25 11.03,-9.25 15.1,0 20.75,23.25 27.82,52.062 7.64,31.391 14.11,63.078 19.47,94.969 3.67,21.156 7.34,41.016 10.73,53.828 1.19,4.875 4.56,17.688 8.44,17.688 3.08,0 5.56,-1.891 5.95,-2.282 -3.27,-0.203 -4.95,-2.39 -4.95,-4.875 0,-3.265 2.47,-4.859 4.76,-4.859 2.38,0 4.86,1.484 4.86,4.969 0,5.359 -5.36,9.234 -10.83,9.234 -7.54,0 -13.11,-10.828 -18.57,-31.094 -0.3,-1.093 -13.8,-50.953 -24.74,-115.922 -2.58,-15.203 -5.45,-31.796 -8.73,-45.593 -1.8,-7.25 -6.36,-25.938 -14.41,-25.938 -3.58,0 -5.95,2.297 -6.06,2.297" /><path
         id="path64"
         style="fill:none;stroke:#000000;stroke-width:15.9404;stroke-linecap:butt;stroke-linejoin:miter;stroke-miterlimit:10;stroke-dasharray:none;stroke-opacity:1"
         d="m 502.68,267.934 h 279.422 m 79.371,0 h 279.417 m 469.5,0 h 248.91 v 388.117 m 0,79.371 v 367.098 h -248.91 m -469.5,0 H 861.473 m -79.371,0 H 445.988" /></g></g></svg>
