<?xml version="1.0" encoding="UTF-8" standalone="no"?>
<svg
   xmlns:dc="http://purl.org/dc/elements/1.1/"
   xmlns:cc="http://creativecommons.org/ns#"
   xmlns:rdf="http://www.w3.org/1999/02/22-rdf-syntax-ns#"
   xmlns:svg="http://www.w3.org/2000/svg"
   xmlns="http://www.w3.org/2000/svg"
   id="svg139"
   version="1.2"
   viewBox="0 0 511.96 198.96"
   height="198.96pt"
   width="511.96pt">
  <metadata
     id="metadata143">
    <rdf:RDF>
      <cc:Work
         rdf:about="">
        <dc:format>image/svg+xml</dc:format>
        <dc:type
           rdf:resource="http://purl.org/dc/dcmitype/StillImage" />
      </cc:Work>
    </rdf:RDF>
  </metadata>
  <defs
     id="defs8">
    <clipPath
       id="clip1">
      <path
         id="path2"
         d="M 99.214844 34.054688 L 108.285156 34.054688 L 108.285156 43.125 L 99.214844 43.125 Z M 99.214844 34.054688 " />
    </clipPath>
    <clipPath
       id="clip2">
      <path
         id="path5"
         d="M 112.820313 69 L 121.890625 69 L 121.890625 72 L 112.820313 72 Z M 112.820313 69 " />
    </clipPath>
  </defs>
  <g
     id="surface1">
    <path
       id="path10"
       transform="matrix(0.1,0,0,-0.1,0,198.96)"
       d="M 57.773438 1286.201563 L 511.328125 1286.201563 L 511.328125 1739.75625 L 57.773438 1739.75625 Z M 57.773438 1286.201563 "
       style="fill:none;stroke-width:15.9404;stroke-linecap:butt;stroke-linejoin:miter;stroke:rgb(0%,0%,0%);stroke-opacity:1;stroke-miterlimit:10;" />
    <path
       id="path12"
       d="M 29 45.019531 C 29.347656 45.019531 29.484375 45.019531 29.484375 44.691406 C 29.484375 44.515625 29.347656 44.515625 29.035156 44.515625 L 27.636719 44.515625 C 27.964844 42.738281 28.207031 41.511719 28.34375 40.960938 C 28.449219 40.542969 28.8125 40.148438 29.261719 40.148438 C 29.625 40.148438 29.984375 40.304688 30.160156 40.457031 C 29.484375 40.527344 29.277344 41.027344 29.277344 41.320313 C 29.277344 41.667969 29.539063 41.875 29.867188 41.875 C 30.210938 41.875 30.730469 41.582031 30.730469 40.925781 C 30.730469 40.199219 30.003906 39.800781 29.242188 39.800781 C 28.5 39.800781 27.777344 40.355469 27.429688 41.027344 C 27.121094 41.632813 26.945313 42.253906 26.550781 44.515625 L 25.390625 44.515625 C 25.0625 44.515625 24.890625 44.515625 24.890625 44.828125 C 24.890625 45.019531 24.996094 45.019531 25.339844 45.019531 L 26.445313 45.019531 C 26.136719 46.625 25.429688 50.527344 25.03125 52.375 C 24.734375 53.878906 24.476563 55.136719 23.613281 55.136719 C 23.5625 55.136719 23.0625 55.136719 22.75 54.808594 C 23.632813 54.738281 23.632813 53.980469 23.632813 53.964844 C 23.632813 53.617188 23.371094 53.410156 23.042969 53.410156 C 22.699219 53.410156 22.179688 53.703125 22.179688 54.359375 C 22.179688 55.105469 22.941406 55.484375 23.613281 55.484375 C 25.375 55.484375 26.101563 52.320313 26.289063 51.457031 C 26.601563 50.128906 27.449219 45.535156 27.535156 45.019531 L 29 45.019531 "
       style=" stroke:none;fill-rule:nonzero;fill:rgb(0%,0%,100%);fill-opacity:1;" />
    <path
       id="path14"
       d="M 32.316406 52.175781 C 32.519531 52.210938 32.84375 52.28125 32.914063 52.292969 C 33.070313 52.34375 33.605469 52.53125 33.605469 53.105469 C 33.605469 53.476563 33.273438 54.441406 31.890625 54.441406 C 31.640625 54.441406 30.742188 54.40625 30.507813 53.75 C 30.984375 53.808594 31.222656 53.441406 31.222656 53.175781 C 31.222656 52.925781 31.054688 52.796875 30.816406 52.796875 C 30.554688 52.796875 30.207031 53 30.207031 53.535156 C 30.207031 54.238281 30.921875 54.679688 31.875 54.679688 C 33.6875 54.679688 34.226563 53.34375 34.226563 52.722656 C 34.226563 52.546875 34.226563 52.210938 33.84375 51.828125 C 33.546875 51.542969 33.257813 51.484375 32.617188 51.355469 C 32.292969 51.28125 31.78125 51.175781 31.78125 50.636719 C 31.78125 50.398438 31.996094 49.539063 33.128906 49.539063 C 33.628906 49.539063 34.117188 49.730469 34.238281 50.160156 C 33.710938 50.160156 33.6875 50.613281 33.6875 50.625 C 33.6875 50.878906 33.914063 50.945313 34.023438 50.945313 C 34.1875 50.945313 34.523438 50.816406 34.523438 50.316406 C 34.523438 49.816406 34.070313 49.304688 33.140625 49.304688 C 31.578125 49.304688 31.160156 50.53125 31.160156 51.019531 C 31.160156 51.925781 32.042969 52.117188 32.316406 52.175781 "
       style=" stroke:none;fill-rule:nonzero;fill:rgb(0%,0%,100%);fill-opacity:1;" />
    <path
       id="path16"
       transform="matrix(0.1,0,0,-0.1,0,198.96)"
       d="M 1434.375 1512.998438 C 1434.375 1606.94375 1358.203125 1683.076563 1264.296875 1683.076563 C 1170.351563 1683.076563 1094.21875 1606.94375 1094.21875 1512.998438 C 1094.21875 1419.053125 1170.351563 1342.920313 1264.296875 1342.920313 C 1358.203125 1342.920313 1434.375 1419.053125 1434.375 1512.998438 Z M 1434.375 1512.998438 "
       style="fill:none;stroke-width:15.9404;stroke-linecap:butt;stroke-linejoin:miter;stroke:rgb(0%,0%,0%);stroke-opacity:1;stroke-miterlimit:10;" />
    <path
       id="path18"
       d="M 126.277344 47.878906 C 126.398438 47.738281 126.398438 47.703125 126.398438 47.652344 C 126.398438 47.585938 126.328125 47.480469 126.3125 47.445313 L 122.910156 42.214844 L 127.089844 42.214844 C 129.957031 42.214844 130.820313 42.835938 131.113281 45.582031 L 131.425781 45.582031 L 131.007813 41.765625 L 121.875 41.765625 C 121.511719 41.765625 121.492188 41.78125 121.492188 42.144531 L 125.484375 48.292969 L 121.632813 53.230469 C 121.511719 53.386719 121.511719 53.40625 121.511719 53.441406 C 121.511719 53.558594 121.617188 53.558594 121.875 53.558594 L 131.007813 53.558594 L 131.425781 49.605469 L 131.113281 49.605469 C 130.839844 52.402344 129.851563 52.972656 127.054688 52.972656 L 122.289063 52.972656 L 126.277344 47.878906 "
       style=" stroke:none;fill-rule:nonzero;fill:rgb(0%,0%,100%);fill-opacity:1;" />
    <path
       id="path20"
       transform="matrix(0.1,0,0,-0.1,0,198.96)"
       d="M 2017.226563 1286.201563 L 2470.78125 1286.201563 L 2470.78125 1739.75625 L 2017.226563 1739.75625 Z M 2017.226563 1286.201563 "
       style="fill:none;stroke-width:15.9404;stroke-linecap:butt;stroke-linejoin:miter;stroke:rgb(0%,0%,0%);stroke-opacity:1;stroke-miterlimit:10;" />
    <path
       id="path22"
       d="M 220.433594 58.183594 C 220.753906 58.164063 220.921875 57.945313 220.921875 57.699219 C 220.921875 57.371094 220.671875 57.210938 220.445313 57.210938 C 220.203125 57.210938 219.957031 57.363281 219.957031 57.707031 C 219.957031 58.214844 220.453125 58.632813 221.058594 58.632813 C 222.570313 58.632813 223.132813 56.308594 223.839844 53.425781 C 224.605469 50.289063 225.253906 47.117188 225.789063 43.929688 C 226.15625 41.816406 226.523438 39.828125 226.859375 38.546875 C 226.980469 38.058594 227.316406 36.777344 227.703125 36.777344 C 228.011719 36.777344 228.261719 36.96875 228.300781 37.007813 C 227.972656 37.027344 227.804688 37.246094 227.804688 37.492188 C 227.804688 37.820313 228.050781 37.980469 228.28125 37.980469 C 228.519531 37.980469 228.765625 37.832031 228.765625 37.484375 C 228.765625 36.945313 228.230469 36.558594 227.683594 36.558594 C 226.929688 36.558594 226.371094 37.644531 225.828125 39.667969 C 225.796875 39.777344 224.445313 44.765625 223.351563 51.261719 C 223.09375 52.78125 222.808594 54.441406 222.480469 55.820313 C 222.300781 56.546875 221.84375 58.414063 221.039063 58.414063 C 220.679688 58.414063 220.445313 58.183594 220.433594 58.183594 "
       style=" stroke:none;fill-rule:nonzero;fill:rgb(0%,0%,100%);fill-opacity:1;" />
    <path
       id="path24"
       transform="matrix(0.1,0,0,-0.1,0,198.96)"
       d="M 3053.671875 1286.201563 L 3507.226563 1286.201563 L 3507.226563 1739.75625 L 3053.671875 1739.75625 Z M 3053.671875 1286.201563 "
       style="fill:none;stroke-width:15.9404;stroke-linecap:butt;stroke-linejoin:miter;stroke:rgb(0%,0%,0%);stroke-opacity:1;stroke-miterlimit:10;" />
    <path
       id="path26"
       d="M 328.53125 37.519531 C 328.53125 37.242188 328.53125 37.234375 328.296875 37.234375 C 328.007813 37.554688 327.414063 37.996094 326.183594 37.996094 L 326.183594 38.339844 C 326.460938 38.339844 327.054688 38.339844 327.710938 38.03125 L 327.710938 44.242188 C 327.710938 44.671875 327.675781 44.816406 326.628906 44.816406 L 326.257813 44.816406 L 326.257813 45.160156 C 326.578125 45.136719 327.734375 45.136719 328.128906 45.136719 C 328.523438 45.136719 329.664063 45.136719 329.988281 45.160156 L 329.988281 44.816406 L 329.617188 44.816406 C 328.570313 44.816406 328.53125 44.671875 328.53125 44.242188 L 328.53125 37.519531 "
       style=" stroke:none;fill-rule:nonzero;fill:rgb(0%,0%,100%);fill-opacity:1;" />
    <path
       id="path28"
       transform="matrix(0.1,0,0,-0.1,0,198.96)"
       d="M 3234.257813 1513.271875 L 3326.601563 1513.271875 "
       style="fill:none;stroke-width:3.985;stroke-linecap:butt;stroke-linejoin:miter;stroke:rgb(0%,0%,100%);stroke-opacity:1;stroke-miterlimit:10;" />
    <path
       id="path30"
       d="M 332.304688 49.574219 C 332.304688 49.46875 332.222656 49.46875 332.195313 49.46875 C 332.171875 49.46875 332.125 49.46875 332.03125 49.585938 L 331.207031 50.589844 C 330.789063 49.875 330.132813 49.46875 329.242188 49.46875 C 326.664063 49.46875 323.996094 52.078125 323.996094 54.878906 C 323.996094 56.871094 325.390625 58.109375 327.132813 58.109375 C 328.085938 58.109375 328.917969 57.703125 329.609375 57.121094 C 330.648438 56.25 330.957031 55.09375 330.957031 55 C 330.957031 54.890625 330.863281 54.890625 330.828125 54.890625 C 330.71875 54.890625 330.707031 54.964844 330.683594 55.011719 C 330.132813 56.871094 328.527344 57.765625 327.335938 57.765625 C 326.070313 57.765625 324.972656 56.953125 324.972656 55.261719 C 324.972656 54.878906 325.09375 52.804688 326.4375 51.242188 C 327.09375 50.480469 328.214844 49.8125 329.347656 49.8125 C 330.660156 49.8125 331.242188 50.898438 331.242188 52.113281 C 331.242188 52.425781 331.207031 52.6875 331.207031 52.734375 C 331.207031 52.839844 331.328125 52.839844 331.363281 52.839844 C 331.492188 52.839844 331.507813 52.828125 331.554688 52.613281 L 332.304688 49.574219 "
       style=" stroke:none;fill-rule:nonzero;fill:rgb(0%,0%,100%);fill-opacity:1;" />
    <path
       id="path32"
       d="M 334.300781 8.058594 C 334.300781 7.902344 334.179688 7.902344 334.144531 7.902344 C 334.109375 7.902344 334.039063 7.902344 333.902344 8.074219 L 332.710938 9.527344 C 332.105469 8.488281 331.15625 7.902344 329.863281 7.902344 C 326.132813 7.902344 322.265625 11.683594 322.265625 15.742188 C 322.265625 18.628906 324.285156 20.421875 326.804688 20.421875 C 328.1875 20.421875 329.394531 19.835938 330.398438 18.988281 C 331.898438 17.730469 332.347656 16.054688 332.347656 15.914063 C 332.347656 15.761719 332.210938 15.761719 332.160156 15.761719 C 332.003906 15.761719 331.984375 15.863281 331.953125 15.933594 C 331.15625 18.628906 328.828125 19.921875 327.097656 19.921875 C 325.269531 19.921875 323.679688 18.746094 323.679688 16.296875 C 323.679688 15.742188 323.851563 12.738281 325.804688 10.476563 C 326.753906 9.371094 328.378906 8.402344 330.015625 8.402344 C 331.917969 8.402344 332.761719 9.972656 332.761719 11.738281 C 332.761719 12.183594 332.710938 12.566406 332.710938 12.632813 C 332.710938 12.789063 332.882813 12.789063 332.9375 12.789063 C 333.128906 12.789063 333.144531 12.773438 333.214844 12.460938 L 334.300781 8.058594 "
       style=" stroke:none;fill-rule:nonzero;fill:rgb(0%,0%,100%);fill-opacity:1;" />
    <path
       id="path34"
       transform="matrix(0.1,0,0,-0.1,0,198.96)"
       d="M 4142.8125 1512.998438 C 4142.8125 1528.623438 4130.117188 1541.357813 4114.453125 1541.357813 C 4098.789063 1541.357813 4086.09375 1528.623438 4086.09375 1512.998438 C 4086.09375 1497.334375 4098.789063 1484.639063 4114.453125 1484.639063 C 4130.117188 1484.639063 4142.8125 1497.334375 4142.8125 1512.998438 Z M 4142.8125 1512.998438 "
       style="fill-rule:nonzero;fill:rgb(0%,0%,0%);fill-opacity:1;stroke-width:15.9404;stroke-linecap:butt;stroke-linejoin:miter;stroke:rgb(0%,0%,0%);stroke-opacity:1;stroke-miterlimit:10;" />
    <path
       id="path36"
       transform="matrix(0.1,0,0,-0.1,0,198.96)"
       d="M 4721.679688 1342.920313 L 5061.835938 1342.920313 L 5061.835938 1683.076563 L 4721.679688 1683.076563 Z M 4721.679688 1342.920313 "
       style="fill:none;stroke-width:15.9404;stroke-linecap:butt;stroke-linejoin:miter;stroke:rgb(0%,0%,0%);stroke-opacity:1;stroke-miterlimit:10;" />
    <path
       id="path38"
       transform="matrix(0.1,0,0,-0.1,0,198.96)"
       d="M 4721.679688 1512.998438 L 5005.195313 1512.998438 M 4778.320313 1626.435938 L 5005.195313 1626.435938 L 5005.195313 1399.560938 L 4778.320313 1399.560938 "
       style="fill:none;stroke-width:15.9404;stroke-linecap:butt;stroke-linejoin:miter;stroke:rgb(0%,0%,0%);stroke-opacity:1;stroke-miterlimit:10;" />
    <path
       id="path40"
       transform="matrix(0.1,0,0,-0.1,0,198.96)"
       d="M 2017.226563 249.795313 L 2470.78125 249.795313 L 2470.78125 703.35 L 2017.226563 703.35 Z M 2017.226563 249.795313 "
       style="fill:none;stroke-width:15.9404;stroke-linecap:butt;stroke-linejoin:miter;stroke:rgb(0%,0%,0%);stroke-opacity:1;stroke-miterlimit:10;" />
    <path
       id="path42"
       d="M 224.933594 141.121094 C 224.933594 140.84375 224.933594 140.832031 224.695313 140.832031 C 224.40625 141.15625 223.8125 141.597656 222.585938 141.597656 L 222.585938 141.941406 C 222.859375 141.941406 223.453125 141.941406 224.109375 141.632813 L 224.109375 147.84375 C 224.109375 148.269531 224.074219 148.414063 223.027344 148.414063 L 222.65625 148.414063 L 222.65625 148.761719 C 222.976563 148.738281 224.132813 148.738281 224.527344 148.738281 C 224.921875 148.738281 226.066406 148.738281 226.386719 148.761719 L 226.386719 148.414063 L 226.015625 148.414063 C 224.96875 148.414063 224.933594 148.269531 224.933594 147.84375 L 224.933594 141.121094 "
       style=" stroke:none;fill-rule:nonzero;fill:rgb(0%,0%,100%);fill-opacity:1;" />
    <path
       id="path44"
       transform="matrix(0.1,0,0,-0.1,0,198.96)"
       d="M 2198.984375 476.865625 L 2289.0625 476.865625 "
       style="fill:none;stroke-width:3.985;stroke-linecap:butt;stroke-linejoin:miter;stroke:rgb(0%,0%,100%);stroke-opacity:1;stroke-miterlimit:10;" />
    <path
       id="path46"
       d="M 224.289063 154.230469 C 224.394531 153.789063 224.441406 153.765625 224.90625 153.765625 L 225.765625 153.765625 C 226.789063 153.765625 227.554688 154.074219 227.554688 155.003906 C 227.554688 155.613281 227.242188 157.363281 224.847656 157.363281 L 223.5 157.363281 Z M 225.945313 157.507813 C 227.421875 157.183594 228.578125 156.230469 228.578125 155.207031 C 228.578125 154.277344 227.636719 153.417969 225.980469 153.417969 L 222.746094 153.417969 C 222.511719 153.417969 222.402344 153.417969 222.402344 153.644531 C 222.402344 153.765625 222.488281 153.765625 222.714844 153.765625 C 223.429688 153.765625 223.429688 153.859375 223.429688 153.992188 C 223.429688 154.015625 223.429688 154.085938 223.382813 154.265625 L 221.773438 160.675781 C 221.664063 161.09375 221.640625 161.214844 220.816406 161.214844 C 220.542969 161.214844 220.460938 161.214844 220.460938 161.441406 C 220.460938 161.558594 220.589844 161.558594 220.628906 161.558594 C 220.84375 161.558594 221.09375 161.535156 221.320313 161.535156 L 222.726563 161.535156 C 222.9375 161.535156 223.191406 161.558594 223.40625 161.558594 C 223.5 161.558594 223.632813 161.558594 223.632813 161.332031 C 223.632813 161.214844 223.523438 161.214844 223.34375 161.214844 C 222.617188 161.214844 222.617188 161.121094 222.617188 161 C 222.617188 160.988281 222.617188 160.902344 222.640625 160.808594 L 223.441406 157.601563 L 224.871094 157.601563 C 226.003906 157.601563 226.21875 158.316406 226.21875 158.710938 C 226.21875 158.890625 226.097656 159.355469 226.015625 159.664063 C 225.882813 160.214844 225.847656 160.34375 225.847656 160.570313 C 225.847656 161.417969 226.539063 161.808594 227.339844 161.808594 C 228.304688 161.808594 228.722656 160.628906 228.722656 160.464844 C 228.722656 160.378906 228.660156 160.34375 228.589844 160.34375 C 228.496094 160.34375 228.46875 160.417969 228.445313 160.511719 C 228.160156 161.355469 227.671875 161.574219 227.371094 161.574219 C 227.078125 161.574219 226.886719 161.441406 226.886719 160.902344 C 226.886719 160.617188 227.027344 159.535156 227.039063 159.472656 C 227.101563 159.035156 227.101563 158.984375 227.101563 158.890625 C 227.101563 158.019531 226.398438 157.652344 225.945313 157.507813 "
       style=" stroke:none;fill-rule:nonzero;fill:rgb(0%,0%,100%);fill-opacity:1;" />
    <path
       id="path48"
       d="M 224.253906 180.039063 C 224.410156 179.402344 224.480469 179.367188 225.152344 179.367188 L 226.398438 179.367188 C 227.882813 179.367188 228.988281 179.816406 228.988281 181.160156 C 228.988281 182.042969 228.539063 184.582031 225.066406 184.582031 L 223.117188 184.582031 Z M 226.65625 184.789063 C 228.796875 184.324219 230.472656 182.941406 230.472656 181.457031 C 230.472656 180.109375 229.109375 178.863281 226.707031 178.863281 L 222.027344 178.863281 C 221.679688 178.863281 221.527344 178.863281 221.527344 179.191406 C 221.527344 179.367188 221.648438 179.367188 221.976563 179.367188 C 223.011719 179.367188 223.011719 179.503906 223.011719 179.695313 C 223.011719 179.730469 223.011719 179.832031 222.941406 180.089844 L 220.609375 189.382813 C 220.457031 189.988281 220.421875 190.160156 219.230469 190.160156 C 218.832031 190.160156 218.710938 190.160156 218.710938 190.488281 C 218.710938 190.660156 218.902344 190.660156 218.953125 190.660156 C 219.265625 190.660156 219.628906 190.625 219.953125 190.625 L 221.992188 190.625 C 222.304688 190.625 222.664063 190.660156 222.976563 190.660156 C 223.117188 190.660156 223.304688 190.660156 223.304688 190.332031 C 223.304688 190.160156 223.148438 190.160156 222.890625 190.160156 C 221.839844 190.160156 221.839844 190.019531 221.839844 189.847656 C 221.839844 189.832031 221.839844 189.710938 221.871094 189.574219 L 223.03125 184.925781 L 225.101563 184.925781 C 226.742188 184.925781 227.054688 185.964844 227.054688 186.53125 C 227.054688 186.792969 226.878906 187.464844 226.757813 187.914063 C 226.570313 188.707031 226.515625 188.898438 226.515625 189.226563 C 226.515625 190.453125 227.519531 191.023438 228.675781 191.023438 C 230.074219 191.023438 230.679688 189.3125 230.679688 189.070313 C 230.679688 188.949219 230.59375 188.898438 230.488281 188.898438 C 230.351563 188.898438 230.316406 189.003906 230.28125 189.140625 C 229.867188 190.367188 229.160156 190.675781 228.726563 190.675781 C 228.296875 190.675781 228.019531 190.488281 228.019531 189.710938 C 228.019531 189.296875 228.226563 187.722656 228.242188 187.636719 C 228.332031 187 228.332031 186.929688 228.332031 186.792969 C 228.332031 185.53125 227.3125 184.996094 226.65625 184.789063 "
       style=" stroke:none;fill-rule:nonzero;fill:rgb(0%,0%,100%);fill-opacity:1;" />
    <path
       id="path50"
       d="M 76.308594 50.496094 L 76.308594 44.824219 L 83.449219 47.660156 "
       style=" stroke:none;fill-rule:nonzero;fill:rgb(0%,0%,0%);fill-opacity:1;" />
    <path
       id="path52"
       transform="matrix(0.1,0,0,-0.1,0,198.96)"
       d="M 763.085938 1484.639063 L 763.085938 1541.357813 L 834.492188 1512.998438 Z M 763.085938 1484.639063 "
       style="fill:none;stroke-width:15.9404;stroke-linecap:butt;stroke-linejoin:miter;stroke:rgb(0%,0%,0%);stroke-opacity:1;stroke-miterlimit:10;" />
    <path
       id="path54"
       transform="matrix(0.1,0,0,-0.1,0,198.96)"
       d="M 763.085938 1512.998438 L 842.460938 1512.998438 "
       style="fill:none;stroke-width:15.9404;stroke-linecap:butt;stroke-linejoin:miter;stroke:rgb(0%,0%,0%);stroke-opacity:1;stroke-miterlimit:10;" />
    <path
       id="path56"
       d="M 73.1875 33.992188 C 73.1875 33.902344 73.117188 33.835938 73.015625 33.835938 C 72.859375 33.835938 72.84375 33.886719 72.757813 34.179688 C 72.304688 35.753906 71.597656 36.285156 71.027344 36.285156 C 70.820313 36.285156 70.578125 36.234375 70.578125 35.71875 C 70.578125 35.25 70.789063 34.734375 70.976563 34.214844 L 72.1875 31.003906 C 72.238281 30.863281 72.359375 30.554688 72.359375 30.226563 C 72.359375 29.5 71.839844 28.84375 70.992188 28.84375 C 69.40625 28.84375 68.765625 31.347656 68.765625 31.488281 C 68.765625 31.554688 68.835938 31.640625 68.957031 31.640625 C 69.109375 31.640625 69.128906 31.570313 69.199219 31.328125 C 69.613281 29.878906 70.269531 29.191406 70.941406 29.191406 C 71.097656 29.191406 71.390625 29.207031 71.390625 29.761719 C 71.390625 30.207031 71.167969 30.777344 71.027344 31.15625 L 69.820313 34.371094 C 69.714844 34.644531 69.613281 34.921875 69.613281 35.234375 C 69.613281 36.011719 70.148438 36.632813 70.976563 36.632813 C 72.566406 36.632813 73.1875 34.113281 73.1875 33.992188 Z M 73.046875 25.683594 C 73.046875 25.425781 72.84375 25.113281 72.460938 25.113281 C 72.0625 25.113281 71.617188 25.492188 71.617188 25.941406 C 71.617188 26.375 71.976563 26.511719 72.1875 26.511719 C 72.652344 26.511719 73.046875 26.0625 73.046875 25.683594 "
       style=" stroke:none;fill-rule:nonzero;fill:rgb(0%,0%,100%);fill-opacity:1;" />
    <path
       id="path58"
       d="M 79.285156 40.675781 C 79.285156 40.65625 79.285156 40.621094 79.234375 40.570313 C 78.4375 39.757813 76.3125 37.546875 76.3125 32.160156 C 76.3125 26.773438 78.402344 24.578125 79.25 23.714844 C 79.25 23.695313 79.285156 23.664063 79.285156 23.613281 C 79.285156 23.558594 79.234375 23.527344 79.164063 23.527344 C 78.972656 23.527344 77.507813 24.804688 76.660156 26.703125 C 75.796875 28.617188 75.554688 30.484375 75.554688 32.144531 C 75.554688 33.386719 75.675781 35.492188 76.710938 37.722656 C 77.539063 39.515625 78.957031 40.777344 79.164063 40.777344 C 79.25 40.777344 79.285156 40.742188 79.285156 40.675781 "
       style=" stroke:none;fill-rule:nonzero;fill:rgb(0%,0%,100%);fill-opacity:1;" />
    <path
       id="path60"
       d="M 83.570313 29.519531 L 85.160156 29.519531 C 85.488281 29.519531 85.660156 29.519531 85.660156 29.207031 C 85.660156 29.015625 85.558594 29.015625 85.210938 29.015625 L 83.691406 29.015625 L 84.332031 26.496094 C 84.398438 26.253906 84.398438 26.21875 84.398438 26.097656 C 84.398438 25.820313 84.175781 25.664063 83.953125 25.664063 C 83.8125 25.664063 83.414063 25.71875 83.277344 26.269531 L 82.605469 29.015625 L 80.980469 29.015625 C 80.636719 29.015625 80.480469 29.015625 80.480469 29.34375 C 80.480469 29.519531 80.601563 29.519531 80.929688 29.519531 L 82.464844 29.519531 L 81.328125 34.078125 C 81.1875 34.683594 81.136719 34.855469 81.136719 35.078125 C 81.136719 35.890625 81.707031 36.632813 82.671875 36.632813 C 84.417969 36.632813 85.351563 34.113281 85.351563 33.992188 C 85.351563 33.886719 85.28125 33.835938 85.175781 33.835938 C 85.140625 33.835938 85.074219 33.835938 85.039063 33.902344 C 85.023438 33.921875 85.003906 33.9375 84.882813 34.214844 C 84.519531 35.078125 83.726563 36.285156 82.726563 36.285156 C 82.207031 36.285156 82.171875 35.855469 82.171875 35.476563 C 82.171875 35.457031 82.171875 35.128906 82.222656 34.921875 L 83.570313 29.519531 "
       style=" stroke:none;fill-rule:nonzero;fill:rgb(0%,0%,100%);fill-opacity:1;" />
    <path
       id="path62"
       d="M 90.742188 32.160156 C 90.742188 30.914063 90.621094 28.808594 89.585938 26.582031 C 88.757813 24.785156 87.339844 23.527344 87.132813 23.527344 C 87.082031 23.527344 87.011719 23.542969 87.011719 23.628906 C 87.011719 23.664063 87.03125 23.679688 87.046875 23.714844 C 87.875 24.578125 89.980469 26.773438 89.980469 32.144531 C 89.980469 37.53125 87.890625 39.722656 87.046875 40.589844 C 87.03125 40.621094 87.011719 40.640625 87.011719 40.675781 C 87.011719 40.761719 87.082031 40.777344 87.132813 40.777344 C 87.320313 40.777344 88.789063 39.5 89.636719 37.597656 C 90.5 35.683594 90.742188 33.816406 90.742188 32.160156 "
       style=" stroke:none;fill-rule:nonzero;fill:rgb(0%,0%,100%);fill-opacity:1;" />
    <path
       id="path64"
       d="M 168.613281 50.496094 L 168.613281 44.824219 L 175.753906 47.660156 "
       style=" stroke:none;fill-rule:nonzero;fill:rgb(0%,0%,0%);fill-opacity:1;" />
    <path
       id="path66"
       transform="matrix(0.1,0,0,-0.1,0,198.96)"
       d="M 1686.132813 1484.639063 L 1686.132813 1541.357813 L 1757.539063 1512.998438 Z M 1686.132813 1484.639063 "
       style="fill:none;stroke-width:15.9404;stroke-linecap:butt;stroke-linejoin:miter;stroke:rgb(0%,0%,0%);stroke-opacity:1;stroke-miterlimit:10;" />
    <path
       id="path68"
       transform="matrix(0.1,0,0,-0.1,0,198.96)"
       d="M 1686.132813 1512.998438 L 1765.46875 1512.998438 "
       style="fill:none;stroke-width:15.9404;stroke-linecap:butt;stroke-linejoin:miter;stroke:rgb(0%,0%,0%);stroke-opacity:1;stroke-miterlimit:10;" />
    <path
       id="path70"
       d="M 169.6875 35.691406 C 169.6875 35.605469 169.617188 35.535156 169.515625 35.535156 C 169.359375 35.535156 169.34375 35.585938 169.257813 35.878906 C 168.804688 37.453125 168.097656 37.988281 167.527344 37.988281 C 167.320313 37.988281 167.078125 37.933594 167.078125 37.417969 C 167.078125 36.949219 167.289063 36.433594 167.476563 35.914063 L 168.6875 32.703125 C 168.738281 32.566406 168.859375 32.253906 168.859375 31.925781 C 168.859375 31.199219 168.339844 30.542969 167.492188 30.542969 C 165.90625 30.542969 165.265625 33.046875 165.265625 33.1875 C 165.265625 33.253906 165.335938 33.339844 165.457031 33.339844 C 165.609375 33.339844 165.628906 33.273438 165.699219 33.03125 C 166.113281 31.578125 166.769531 30.890625 167.441406 30.890625 C 167.597656 30.890625 167.890625 30.90625 167.890625 31.460938 C 167.890625 31.90625 167.667969 32.480469 167.527344 32.859375 L 166.320313 36.070313 C 166.214844 36.347656 166.113281 36.621094 166.113281 36.933594 C 166.113281 37.710938 166.648438 38.332031 167.476563 38.332031 C 169.066406 38.332031 169.6875 35.8125 169.6875 35.691406 Z M 169.546875 27.382813 C 169.546875 27.125 169.34375 26.816406 168.964844 26.816406 C 168.5625 26.816406 168.117188 27.195313 168.117188 27.644531 C 168.117188 28.074219 168.476563 28.214844 168.6875 28.214844 C 169.152344 28.214844 169.546875 27.761719 169.546875 27.382813 "
       style=" stroke:none;fill-rule:nonzero;fill:rgb(0%,0%,100%);fill-opacity:1;" />
    <path
       id="path72"
       d="M 179.503906 32.375 C 179.503906 32.269531 179.421875 32.269531 179.398438 32.269531 C 179.371094 32.269531 179.324219 32.269531 179.230469 32.386719 L 178.40625 33.386719 C 177.992188 32.675781 177.335938 32.269531 176.441406 32.269531 C 173.867188 32.269531 171.195313 34.878906 171.195313 37.679688 C 171.195313 39.671875 172.589844 40.910156 174.332031 40.910156 C 175.285156 40.910156 176.117188 40.503906 176.8125 39.921875 C 177.847656 39.050781 178.15625 37.894531 178.15625 37.800781 C 178.15625 37.691406 178.0625 37.691406 178.027344 37.691406 C 177.917969 37.691406 177.90625 37.761719 177.882813 37.8125 C 177.335938 39.671875 175.726563 40.566406 174.535156 40.566406 C 173.269531 40.566406 172.171875 39.753906 172.171875 38.0625 C 172.171875 37.679688 172.292969 35.605469 173.640625 34.042969 C 174.296875 33.28125 175.414063 32.613281 176.546875 32.613281 C 177.859375 32.613281 178.445313 33.699219 178.445313 34.914063 C 178.445313 35.222656 178.40625 35.488281 178.40625 35.53125 C 178.40625 35.640625 178.527344 35.640625 178.5625 35.640625 C 178.695313 35.640625 178.707031 35.628906 178.753906 35.414063 L 179.503906 32.375 "
       style=" stroke:none;fill-rule:nonzero;fill:rgb(0%,0%,100%);fill-opacity:1;" />
    <path
       id="path74"
       d="M 272.253906 50.496094 L 272.253906 44.824219 L 279.394531 47.660156 "
       style=" stroke:none;fill-rule:nonzero;fill:rgb(0%,0%,0%);fill-opacity:1;" />
    <path
       id="path76"
       transform="matrix(0.1,0,0,-0.1,0,198.96)"
       d="M 2722.539063 1484.639063 L 2722.539063 1541.357813 L 2793.945313 1512.998438 Z M 2722.539063 1484.639063 "
       style="fill:none;stroke-width:15.9404;stroke-linecap:butt;stroke-linejoin:miter;stroke:rgb(0%,0%,0%);stroke-opacity:1;stroke-miterlimit:10;" />
    <path
       id="path78"
       transform="matrix(0.1,0,0,-0.1,0,198.96)"
       d="M 2722.539063 1512.998438 L 2801.914063 1512.998438 "
       style="fill:none;stroke-width:15.9404;stroke-linecap:butt;stroke-linejoin:miter;stroke:rgb(0%,0%,0%);stroke-opacity:1;stroke-miterlimit:10;" />
    <path
       id="path80"
       d="M 275.214844 29.914063 C 275.214844 29.828125 275.148438 29.761719 275.0625 29.761719 C 274.921875 29.761719 274.246094 30.382813 273.921875 30.988281 C 273.609375 30.210938 273.074219 29.742188 272.332031 29.742188 C 270.378906 29.742188 268.273438 32.265625 268.273438 34.820313 C 268.273438 36.53125 269.273438 37.53125 270.449219 37.53125 C 271.363281 37.53125 272.125 36.839844 272.488281 36.445313 L 272.503906 36.460938 L 271.847656 39.050781 L 271.691406 39.675781 C 271.539063 40.191406 271.277344 40.191406 270.46875 40.210938 C 270.277344 40.210938 270.105469 40.210938 270.105469 40.539063 C 270.105469 40.65625 270.207031 40.710938 270.328125 40.710938 C 270.570313 40.710938 270.882813 40.675781 271.121094 40.675781 L 272.882813 40.675781 C 273.144531 40.675781 273.4375 40.710938 273.695313 40.710938 C 273.800781 40.710938 274.007813 40.710938 274.007813 40.382813 C 274.007813 40.210938 273.867188 40.210938 273.609375 40.210938 C 272.796875 40.210938 272.746094 40.089844 272.746094 39.949219 C 272.746094 39.863281 272.765625 39.847656 272.816406 39.621094 Z M 272.78125 35.304688 C 272.695313 35.597656 272.695313 35.632813 272.453125 35.960938 C 272.074219 36.445313 271.3125 37.1875 270.503906 37.1875 C 269.792969 37.1875 269.394531 36.550781 269.394531 35.527344 C 269.394531 34.578125 269.929688 32.644531 270.257813 31.917969 C 270.847656 30.710938 271.65625 30.089844 272.332031 30.089844 C 273.472656 30.089844 273.695313 31.503906 273.695313 31.644531 C 273.695313 31.660156 273.644531 31.886719 273.628906 31.917969 L 272.78125 35.304688 "
       style=" stroke:none;fill-rule:nonzero;fill:rgb(0%,0%,100%);fill-opacity:1;" />
    <path
       id="path82"
       d="M 284.003906 31.675781 C 284.003906 31.566406 283.921875 31.566406 283.898438 31.566406 C 283.871094 31.566406 283.824219 31.566406 283.730469 31.6875 L 282.90625 32.6875 C 282.492188 31.972656 281.835938 31.566406 280.941406 31.566406 C 278.367188 31.566406 275.695313 34.179688 275.695313 36.980469 C 275.695313 38.972656 277.089844 40.210938 278.832031 40.210938 C 279.785156 40.210938 280.617188 39.804688 281.3125 39.222656 C 282.347656 38.351563 282.65625 37.195313 282.65625 37.097656 C 282.65625 36.992188 282.5625 36.992188 282.527344 36.992188 C 282.417969 36.992188 282.40625 37.0625 282.382813 37.113281 C 281.835938 38.972656 280.226563 39.863281 279.035156 39.863281 C 277.769531 39.863281 276.671875 39.054688 276.671875 37.363281 C 276.671875 36.980469 276.792969 34.90625 278.140625 33.34375 C 278.796875 32.582031 279.914063 31.914063 281.046875 31.914063 C 282.359375 31.914063 282.945313 33 282.945313 34.214844 C 282.945313 34.523438 282.90625 34.785156 282.90625 34.832031 C 282.90625 34.941406 283.027344 34.941406 283.0625 34.941406 C 283.195313 34.941406 283.207031 34.929688 283.253906 34.714844 L 284.003906 31.675781 "
       style=" stroke:none;fill-rule:nonzero;fill:rgb(0%,0%,100%);fill-opacity:1;" />
    <path
       id="path84"
       d="M 375.894531 50.496094 L 375.894531 44.824219 L 383.035156 47.660156 "
       style=" stroke:none;fill-rule:nonzero;fill:rgb(0%,0%,0%);fill-opacity:1;" />
    <path
       id="path86"
       transform="matrix(0.1,0,0,-0.1,0,198.96)"
       d="M 3758.945313 1484.639063 L 3758.945313 1541.357813 L 3830.351563 1512.998438 Z M 3758.945313 1484.639063 "
       style="fill:none;stroke-width:15.9404;stroke-linecap:butt;stroke-linejoin:miter;stroke:rgb(0%,0%,0%);stroke-opacity:1;stroke-miterlimit:10;" />
    <path
       id="path88"
       transform="matrix(0.1,0,0,-0.1,0,198.96)"
       d="M 3758.945313 1512.998438 L 3838.359375 1512.998438 "
       style="fill:none;stroke-width:15.9404;stroke-linecap:butt;stroke-linejoin:miter;stroke:rgb(0%,0%,0%);stroke-opacity:1;stroke-miterlimit:10;" />
    <path
       id="path90"
       d="M 376.089844 37.15625 C 376.3125 38.125 377.140625 38.332031 377.554688 38.332031 C 378.109375 38.332031 378.523438 37.96875 378.800781 37.382813 C 379.09375 36.761719 379.320313 35.742188 379.320313 35.691406 C 379.320313 35.605469 379.246094 35.535156 379.144531 35.535156 C 378.992188 35.535156 378.972656 35.621094 378.902344 35.878906 C 378.59375 37.070313 378.28125 37.988281 377.589844 37.988281 C 377.074219 37.988281 377.074219 37.417969 377.074219 37.191406 C 377.074219 36.796875 377.125 36.621094 377.296875 35.898438 C 377.417969 35.433594 377.539063 34.964844 377.644531 34.480469 L 378.351563 31.664063 C 378.472656 31.234375 378.472656 31.199219 378.472656 31.148438 C 378.472656 30.890625 378.265625 30.714844 378.007813 30.714844 C 377.503906 30.714844 377.382813 31.148438 377.28125 31.578125 C 377.109375 32.253906 376.175781 35.964844 376.054688 36.570313 C 376.039063 36.570313 375.363281 37.988281 374.101563 37.988281 C 373.203125 37.988281 373.03125 37.210938 373.03125 36.570313 C 373.03125 35.585938 373.515625 34.203125 373.964844 33.046875 C 374.171875 32.496094 374.257813 32.269531 374.257813 31.925781 C 374.257813 31.183594 373.722656 30.542969 372.894531 30.542969 C 371.304688 30.542969 370.664063 33.046875 370.664063 33.1875 C 370.664063 33.253906 370.734375 33.339844 370.855469 33.339844 C 371.011719 33.339844 371.03125 33.273438 371.097656 33.03125 C 371.511719 31.546875 372.1875 30.890625 372.84375 30.890625 C 373.015625 30.890625 373.289063 30.90625 373.289063 31.460938 C 373.289063 31.90625 373.101563 32.410156 372.84375 33.066406 C 372.082031 35.121094 371.996094 35.777344 371.996094 36.292969 C 371.996094 38.058594 373.324219 38.332031 374.035156 38.332031 C 375.140625 38.332031 375.742188 37.570313 376.089844 37.15625 "
       style=" stroke:none;fill-rule:nonzero;fill:rgb(0%,0%,100%);fill-opacity:1;" />
    <path
       id="path92"
       d="M 388.703125 32.375 C 388.703125 32.269531 388.621094 32.269531 388.597656 32.269531 C 388.574219 32.269531 388.523438 32.269531 388.429688 32.386719 L 387.609375 33.386719 C 387.191406 32.675781 386.535156 32.269531 385.640625 32.269531 C 383.066406 32.269531 380.394531 34.878906 380.394531 37.679688 C 380.394531 39.671875 381.789063 40.910156 383.53125 40.910156 C 384.484375 40.910156 385.320313 40.503906 386.011719 39.921875 C 387.046875 39.050781 387.359375 37.894531 387.359375 37.800781 C 387.359375 37.691406 387.261719 37.691406 387.226563 37.691406 C 387.117188 37.691406 387.109375 37.761719 387.082031 37.8125 C 386.535156 39.671875 384.925781 40.566406 383.734375 40.566406 C 382.46875 40.566406 381.371094 39.753906 381.371094 38.0625 C 381.371094 37.679688 381.492188 35.605469 382.839844 34.042969 C 383.496094 33.28125 384.617188 32.613281 385.746094 32.613281 C 387.058594 32.613281 387.644531 33.699219 387.644531 34.914063 C 387.644531 35.222656 387.609375 35.488281 387.609375 35.53125 C 387.609375 35.640625 387.726563 35.640625 387.761719 35.640625 C 387.894531 35.640625 387.90625 35.628906 387.953125 35.414063 L 388.703125 32.375 "
       style=" stroke:none;fill-rule:nonzero;fill:rgb(0%,0%,100%);fill-opacity:1;" />
    <path
       id="path94"
       d="M 439.058594 50.496094 L 439.058594 44.824219 L 446.195313 47.660156 "
       style=" stroke:none;fill-rule:nonzero;fill:rgb(0%,0%,0%);fill-opacity:1;" />
    <path
       id="path96"
       transform="matrix(0.1,0,0,-0.1,0,198.96)"
       d="M 4390.585938 1484.639063 L 4390.585938 1541.357813 L 4461.953125 1512.998438 Z M 4390.585938 1484.639063 "
       style="fill:none;stroke-width:15.9404;stroke-linecap:butt;stroke-linejoin:miter;stroke:rgb(0%,0%,0%);stroke-opacity:1;stroke-miterlimit:10;" />
    <path
       id="path98"
       transform="matrix(0.1,0,0,-0.1,0,198.96)"
       d="M 4390.585938 1512.998438 L 4469.921875 1512.998438 "
       style="fill:none;stroke-width:15.9404;stroke-linecap:butt;stroke-linejoin:miter;stroke:rgb(0%,0%,0%);stroke-opacity:1;stroke-miterlimit:10;" />
    <path
       id="path100"
       d="M 434.988281 35.457031 C 435.214844 36.425781 436.042969 36.632813 436.457031 36.632813 C 437.007813 36.632813 437.421875 36.269531 437.699219 35.683594 C 437.992188 35.0625 438.21875 34.042969 438.21875 33.992188 C 438.21875 33.902344 438.148438 33.835938 438.046875 33.835938 C 437.890625 33.835938 437.871094 33.921875 437.804688 34.179688 C 437.492188 35.371094 437.183594 36.285156 436.492188 36.285156 C 435.972656 36.285156 435.972656 35.71875 435.972656 35.492188 C 435.972656 35.097656 436.023438 34.921875 436.199219 34.195313 C 436.320313 33.730469 436.4375 33.265625 436.542969 32.78125 L 437.253906 29.964844 C 437.371094 29.535156 437.371094 29.5 437.371094 29.449219 C 437.371094 29.191406 437.164063 29.015625 436.90625 29.015625 C 436.40625 29.015625 436.285156 29.449219 436.179688 29.878906 C 436.007813 30.554688 435.074219 34.265625 434.953125 34.871094 C 434.9375 34.871094 434.265625 36.285156 433.003906 36.285156 C 432.105469 36.285156 431.933594 35.511719 431.933594 34.871094 C 431.933594 33.886719 432.414063 32.503906 432.863281 31.347656 C 433.070313 30.796875 433.15625 30.570313 433.15625 30.226563 C 433.15625 29.484375 432.621094 28.84375 431.792969 28.84375 C 430.203125 28.84375 429.566406 31.347656 429.566406 31.488281 C 429.566406 31.554688 429.636719 31.640625 429.757813 31.640625 C 429.910156 31.640625 429.929688 31.570313 429.996094 31.328125 C 430.414063 29.847656 431.085938 29.191406 431.742188 29.191406 C 431.914063 29.191406 432.191406 29.207031 432.191406 29.761719 C 432.191406 30.207031 432.003906 30.710938 431.742188 31.367188 C 430.984375 33.421875 430.894531 34.078125 430.894531 34.59375 C 430.894531 36.355469 432.226563 36.632813 432.933594 36.632813 C 434.039063 36.632813 434.644531 35.871094 434.988281 35.457031 "
       style=" stroke:none;fill-rule:nonzero;fill:rgb(0%,0%,100%);fill-opacity:1;" />
    <path
       id="path102"
       d="M 443.984375 40.675781 C 443.984375 40.65625 443.984375 40.621094 443.933594 40.570313 C 443.136719 39.757813 441.015625 37.546875 441.015625 32.160156 C 441.015625 26.773438 443.101563 24.578125 443.949219 23.714844 C 443.949219 23.695313 443.984375 23.664063 443.984375 23.613281 C 443.984375 23.558594 443.933594 23.527344 443.863281 23.527344 C 443.671875 23.527344 442.207031 24.804688 441.359375 26.703125 C 440.496094 28.617188 440.253906 30.484375 440.253906 32.144531 C 440.253906 33.386719 440.375 35.492188 441.410156 37.722656 C 442.242188 39.515625 443.65625 40.777344 443.863281 40.777344 C 443.949219 40.777344 443.984375 40.742188 443.984375 40.675781 "
       style=" stroke:none;fill-rule:nonzero;fill:rgb(0%,0%,100%);fill-opacity:1;" />
    <path
       id="path104"
       d="M 448.273438 29.519531 L 449.859375 29.519531 C 450.1875 29.519531 450.359375 29.519531 450.359375 29.207031 C 450.359375 29.015625 450.257813 29.015625 449.914063 29.015625 L 448.390625 29.015625 L 449.03125 26.496094 C 449.101563 26.253906 449.101563 26.21875 449.101563 26.097656 C 449.101563 25.820313 448.875 25.664063 448.652344 25.664063 C 448.511719 25.664063 448.117188 25.71875 447.976563 26.269531 L 447.304688 29.015625 L 445.679688 29.015625 C 445.335938 29.015625 445.179688 29.015625 445.179688 29.34375 C 445.179688 29.519531 445.300781 29.519531 445.628906 29.519531 L 447.164063 29.519531 L 446.027344 34.078125 C 445.886719 34.683594 445.835938 34.855469 445.835938 35.078125 C 445.835938 35.890625 446.40625 36.632813 447.371094 36.632813 C 449.117188 36.632813 450.050781 34.113281 450.050781 33.992188 C 450.050781 33.886719 449.980469 33.835938 449.878906 33.835938 C 449.84375 33.835938 449.773438 33.835938 449.738281 33.902344 C 449.722656 33.921875 449.703125 33.9375 449.585938 34.214844 C 449.21875 35.078125 448.425781 36.285156 447.425781 36.285156 C 446.90625 36.285156 446.871094 35.855469 446.871094 35.476563 C 446.871094 35.457031 446.871094 35.128906 446.921875 34.921875 L 448.273438 29.519531 "
       style=" stroke:none;fill-rule:nonzero;fill:rgb(0%,0%,100%);fill-opacity:1;" />
    <path
       id="path106"
       d="M 455.441406 32.160156 C 455.441406 30.914063 455.320313 28.808594 454.285156 26.582031 C 453.457031 24.785156 452.039063 23.527344 451.832031 23.527344 C 451.78125 23.527344 451.710938 23.542969 451.710938 23.628906 C 451.710938 23.664063 451.730469 23.679688 451.746094 23.714844 C 452.574219 24.578125 454.679688 26.773438 454.679688 32.144531 C 454.679688 37.53125 452.59375 39.722656 451.746094 40.589844 C 451.730469 40.621094 451.710938 40.640625 451.710938 40.675781 C 451.710938 40.761719 451.78125 40.777344 451.832031 40.777344 C 452.023438 40.777344 453.492188 39.5 454.335938 37.597656 C 455.199219 35.683594 455.441406 33.816406 455.441406 32.160156 "
       style=" stroke:none;fill-rule:nonzero;fill:rgb(0%,0%,100%);fill-opacity:1;" />
    <path
       id="path108"
       d="M 333.628906 148.46875 L 333.628906 154.136719 L 326.488281 151.304688 "
       style=" stroke:none;fill-rule:nonzero;fill:rgb(0%,0%,0%);fill-opacity:1;" />
    <path
       id="path110"
       transform="matrix(0.1,0,0,-0.1,0,198.96)"
       d="M 3336.289063 504.9125 L 3336.289063 448.232813 L 3264.882813 476.553125 Z M 3336.289063 504.9125 "
       style="fill:none;stroke-width:15.9404;stroke-linecap:butt;stroke-linejoin:miter;stroke:rgb(0%,0%,0%);stroke-opacity:1;stroke-miterlimit:10;" />
    <path
       id="path112"
       transform="matrix(0.1,0,0,-0.1,0,198.96)"
       d="M 3336.289063 476.553125 L 3256.914063 476.553125 "
       style="fill:none;stroke-width:15.9404;stroke-linecap:butt;stroke-linejoin:miter;stroke:rgb(0%,0%,0%);stroke-opacity:1;stroke-miterlimit:10;" />
    <path
       id="path114"
       d="M 325.988281 164.660156 C 326.214844 165.625 327.042969 165.832031 327.457031 165.832031 C 328.007813 165.832031 328.421875 165.46875 328.699219 164.882813 C 328.992188 164.261719 329.21875 163.242188 329.21875 163.191406 C 329.21875 163.105469 329.148438 163.035156 329.046875 163.035156 C 328.890625 163.035156 328.871094 163.121094 328.804688 163.378906 C 328.492188 164.574219 328.183594 165.488281 327.492188 165.488281 C 326.972656 165.488281 326.972656 164.917969 326.972656 164.691406 C 326.972656 164.296875 327.023438 164.121094 327.199219 163.398438 C 327.320313 162.933594 327.4375 162.464844 327.542969 161.980469 L 328.253906 159.167969 C 328.371094 158.734375 328.371094 158.699219 328.371094 158.648438 C 328.371094 158.390625 328.164063 158.214844 327.90625 158.214844 C 327.40625 158.214844 327.285156 158.648438 327.179688 159.082031 C 327.007813 159.753906 326.074219 163.464844 325.953125 164.070313 C 325.9375 164.070313 325.265625 165.488281 324.003906 165.488281 C 323.105469 165.488281 322.933594 164.710938 322.933594 164.070313 C 322.933594 163.085938 323.414063 161.707031 323.863281 160.546875 C 324.070313 159.996094 324.15625 159.769531 324.15625 159.425781 C 324.15625 158.683594 323.621094 158.042969 322.792969 158.042969 C 321.203125 158.042969 320.566406 160.546875 320.566406 160.6875 C 320.566406 160.753906 320.636719 160.839844 320.757813 160.839844 C 320.910156 160.839844 320.929688 160.773438 320.996094 160.53125 C 321.414063 159.046875 322.085938 158.390625 322.742188 158.390625 C 322.914063 158.390625 323.191406 158.40625 323.191406 158.960938 C 323.191406 159.410156 323.003906 159.910156 322.742188 160.566406 C 321.984375 162.621094 321.894531 163.277344 321.894531 163.792969 C 321.894531 165.558594 323.226563 165.832031 323.933594 165.832031 C 325.039063 165.832031 325.644531 165.074219 325.988281 164.660156 "
       style=" stroke:none;fill-rule:nonzero;fill:rgb(0%,0%,100%);fill-opacity:1;" />
    <path
       id="path116"
       d="M 334.089844 160.929688 C 334.195313 160.488281 334.242188 160.464844 334.707031 160.464844 L 335.566406 160.464844 C 336.589844 160.464844 337.351563 160.773438 337.351563 161.703125 C 337.351563 162.3125 337.042969 164.066406 334.648438 164.066406 L 333.300781 164.066406 Z M 335.742188 164.207031 C 337.222656 163.886719 338.378906 162.933594 338.378906 161.90625 C 338.378906 160.976563 337.4375 160.117188 335.78125 160.117188 L 332.546875 160.117188 C 332.3125 160.117188 332.203125 160.117188 332.203125 160.34375 C 332.203125 160.464844 332.289063 160.464844 332.511719 160.464844 C 333.226563 160.464844 333.226563 160.558594 333.226563 160.691406 C 333.226563 160.714844 333.226563 160.785156 333.179688 160.964844 L 331.570313 167.378906 C 331.464844 167.792969 331.441406 167.914063 330.617188 167.914063 C 330.34375 167.914063 330.261719 167.914063 330.261719 168.140625 C 330.261719 168.261719 330.390625 168.261719 330.425781 168.261719 C 330.640625 168.261719 330.890625 168.238281 331.117188 168.238281 L 332.523438 168.238281 C 332.738281 168.238281 332.992188 168.261719 333.203125 168.261719 C 333.300781 168.261719 333.429688 168.261719 333.429688 168.035156 C 333.429688 167.914063 333.324219 167.914063 333.144531 167.914063 C 332.417969 167.914063 332.417969 167.820313 332.417969 167.699219 C 332.417969 167.6875 332.417969 167.605469 332.441406 167.507813 L 333.242188 164.300781 L 334.671875 164.300781 C 335.804688 164.300781 336.015625 165.019531 336.015625 165.410156 C 336.015625 165.589844 335.898438 166.054688 335.816406 166.363281 C 335.683594 166.914063 335.648438 167.042969 335.648438 167.269531 C 335.648438 168.117188 336.339844 168.511719 337.140625 168.511719 C 338.105469 168.511719 338.523438 167.332031 338.523438 167.164063 C 338.523438 167.082031 338.460938 167.042969 338.390625 167.042969 C 338.296875 167.042969 338.269531 167.117188 338.246094 167.210938 C 337.960938 168.058594 337.472656 168.273438 337.171875 168.273438 C 336.878906 168.273438 336.6875 168.140625 336.6875 167.605469 C 336.6875 167.316406 336.828125 166.234375 336.839844 166.175781 C 336.898438 165.734375 336.898438 165.683594 336.898438 165.589844 C 336.898438 164.71875 336.195313 164.351563 335.742188 164.207031 "
       style=" stroke:none;fill-rule:nonzero;fill:rgb(0%,0%,100%);fill-opacity:1;" />
    <path
       id="path118"
       d="M 167.644531 148.46875 L 167.644531 154.136719 L 160.507813 151.304688 "
       style=" stroke:none;fill-rule:nonzero;fill:rgb(0%,0%,0%);fill-opacity:1;" />
    <path
       id="path120"
       transform="matrix(0.1,0,0,-0.1,0,198.96)"
       d="M 1676.445313 504.9125 L 1676.445313 448.232813 L 1605.078125 476.553125 Z M 1676.445313 504.9125 "
       style="fill:none;stroke-width:15.9404;stroke-linecap:butt;stroke-linejoin:miter;stroke:rgb(0%,0%,0%);stroke-opacity:1;stroke-miterlimit:10;" />
    <path
       id="path122"
       transform="matrix(0.1,0,0,-0.1,0,198.96)"
       d="M 1676.445313 476.553125 L 1597.109375 476.553125 "
       style="fill:none;stroke-width:15.9404;stroke-linecap:butt;stroke-linejoin:miter;stroke:rgb(0%,0%,0%);stroke-opacity:1;stroke-miterlimit:10;" />
    <path
       id="path124"
       d="M 160.886719 167.089844 C 160.886719 167.003906 160.820313 166.933594 160.714844 166.933594 C 160.558594 166.933594 160.542969 166.988281 160.457031 167.28125 C 160.007813 168.851563 159.296875 169.386719 158.726563 169.386719 C 158.523438 169.386719 158.28125 169.335938 158.28125 168.816406 C 158.28125 168.351563 158.488281 167.832031 158.675781 167.316406 L 159.886719 164.101563 C 159.9375 163.964844 160.058594 163.652344 160.058594 163.324219 C 160.058594 162.601563 159.539063 161.945313 158.695313 161.945313 C 157.105469 161.945313 156.464844 164.449219 156.464844 164.585938 C 156.464844 164.65625 156.535156 164.742188 156.65625 164.742188 C 156.8125 164.742188 156.828125 164.671875 156.898438 164.429688 C 157.3125 162.980469 157.96875 162.289063 158.640625 162.289063 C 158.796875 162.289063 159.089844 162.308594 159.089844 162.859375 C 159.089844 163.308594 158.867188 163.878906 158.726563 164.257813 L 157.519531 167.472656 C 157.414063 167.746094 157.3125 168.023438 157.3125 168.332031 C 157.3125 169.113281 157.847656 169.734375 158.675781 169.734375 C 160.265625 169.734375 160.886719 167.210938 160.886719 167.089844 Z M 160.746094 158.785156 C 160.746094 158.527344 160.542969 158.214844 160.164063 158.214844 C 159.765625 158.214844 159.316406 158.59375 159.316406 159.042969 C 159.316406 159.472656 159.679688 159.613281 159.886719 159.613281 C 160.351563 159.613281 160.746094 159.164063 160.746094 158.785156 "
       style=" stroke:none;fill-rule:nonzero;fill:rgb(0%,0%,100%);fill-opacity:1;" />
    <path
       id="path126"
       d="M 166.1875 164.828125 C 166.292969 164.386719 166.34375 164.363281 166.804688 164.363281 L 167.664063 164.363281 C 168.691406 164.363281 169.453125 164.675781 169.453125 165.605469 C 169.453125 166.210938 169.144531 167.964844 166.746094 167.964844 L 165.398438 167.964844 Z M 167.84375 168.105469 C 169.320313 167.785156 170.476563 166.832031 170.476563 165.808594 C 170.476563 164.878906 169.535156 164.019531 167.878906 164.019531 L 164.648438 164.019531 C 164.410156 164.019531 164.304688 164.019531 164.304688 164.246094 C 164.304688 164.363281 164.386719 164.363281 164.613281 164.363281 C 165.328125 164.363281 165.328125 164.460938 165.328125 164.589844 C 165.328125 164.613281 165.328125 164.6875 165.28125 164.863281 L 163.671875 171.277344 C 163.5625 171.695313 163.539063 171.816406 162.71875 171.816406 C 162.445313 171.816406 162.359375 171.816406 162.359375 172.042969 C 162.359375 172.160156 162.492188 172.160156 162.527344 172.160156 C 162.742188 172.160156 162.992188 172.136719 163.21875 172.136719 L 164.625 172.136719 C 164.839844 172.136719 165.089844 172.160156 165.304688 172.160156 C 165.398438 172.160156 165.53125 172.160156 165.53125 171.933594 C 165.53125 171.816406 165.421875 171.816406 165.246094 171.816406 C 164.515625 171.816406 164.515625 171.71875 164.515625 171.597656 C 164.515625 171.589844 164.515625 171.503906 164.542969 171.410156 L 165.339844 168.203125 L 166.769531 168.203125 C 167.902344 168.203125 168.117188 168.917969 168.117188 169.3125 C 168.117188 169.488281 167.996094 169.957031 167.914063 170.265625 C 167.785156 170.8125 167.746094 170.945313 167.746094 171.171875 C 167.746094 172.015625 168.4375 172.410156 169.238281 172.410156 C 170.203125 172.410156 170.621094 171.230469 170.621094 171.0625 C 170.621094 170.980469 170.5625 170.945313 170.492188 170.945313 C 170.394531 170.945313 170.371094 171.015625 170.347656 171.113281 C 170.0625 171.957031 169.570313 172.171875 169.273438 172.171875 C 168.976563 172.171875 168.785156 172.042969 168.785156 171.503906 C 168.785156 171.21875 168.929688 170.132813 168.941406 170.074219 C 169 169.632813 169 169.585938 169 169.488281 C 169 168.621094 168.296875 168.25 167.84375 168.105469 "
       style=" stroke:none;fill-rule:nonzero;fill:rgb(0%,0%,100%);fill-opacity:1;" />
    <path
       id="path128"
       transform="matrix(0.1,0,0,-0.1,0,198.96)"
       d="M 519.296875 1512.998438 L 763.085938 1512.998438 M 842.460938 1512.998438 L 1086.210938 1512.998438 M 1442.34375 1512.998438 L 1686.132813 1512.998438 M 1765.46875 1512.998438 L 2009.257813 1512.998438 M 2478.75 1512.998438 L 2722.539063 1512.998438 M 2801.914063 1512.998438 L 3045.703125 1512.998438 M 3515.195313 1512.998438 L 3758.945313 1512.998438 M 3838.359375 1512.998438 L 4082.109375 1512.998438 M 4146.796875 1512.998438 L 4390.585938 1512.998438 M 4469.921875 1512.998438 L 4713.710938 1512.998438 M 4114.453125 1480.654688 L 4114.453125 476.553125 L 3336.289063 476.553125 M 3256.914063 476.553125 L 2478.75 476.553125 M 2009.257813 476.553125 L 1676.445313 476.553125 M 1597.109375 476.553125 L 1264.296875 476.553125 L 1264.296875 1334.951563 "
       style="fill:none;stroke-width:15.9404;stroke-linecap:round;stroke-linejoin:miter;stroke:rgb(0%,0%,0%);stroke-opacity:1;stroke-miterlimit:10;" />
    <g
       id="g132"
       clip-rule="nonzero"
       clip-path="url(#clip1)">
      <path
         id="path130"
         transform="matrix(0.1,0,0,-0.1,0,198.96)"
         d="M 992.148438 1603.701563 L 1082.851563 1603.701563 M 1037.5 1649.053125 L 1037.5 1558.35 "
         style="fill:none;stroke-width:15.9404;stroke-linecap:round;stroke-linejoin:miter;stroke:rgb(0%,0%,0%);stroke-opacity:1;stroke-miterlimit:10;" />
    </g>
    <g
       id="g136"
       clip-rule="nonzero"
       clip-path="url(#clip2)">
      <path
         id="path134"
         transform="matrix(0.1,0,0,-0.1,0,198.96)"
         d="M 1128.203125 1286.201563 L 1218.945313 1286.201563 "
         style="fill:none;stroke-width:15.9404;stroke-linecap:round;stroke-linejoin:miter;stroke:rgb(0%,0%,0%);stroke-opacity:1;stroke-miterlimit:10;" />
    </g>
  </g>
</svg>
