<?xml version="1.0" encoding="UTF-8" standalone="no"?>
<svg
   xmlns:dc="http://purl.org/dc/elements/1.1/"
   xmlns:cc="http://creativecommons.org/ns#"
   xmlns:rdf="http://www.w3.org/1999/02/22-rdf-syntax-ns#"
   xmlns:svg="http://www.w3.org/2000/svg"
   xmlns="http://www.w3.org/2000/svg"
   viewBox="0 0 352.57333 180.46667"
   height="180.46667"
   width="352.57333"
   xml:space="preserve"
   id="svg2"
   version="1.1"><metadata
     id="metadata8"><rdf:RDF><cc:Work
         rdf:about=""><dc:format>image/svg+xml</dc:format><dc:type
           rdf:resource="http://purl.org/dc/dcmitype/StillImage" /></cc:Work></rdf:RDF></metadata><defs
     id="defs6" /><g
     transform="matrix(1.3333333,0,0,-1.3333333,0,180.46667)"
     id="g10"><g
       transform="scale(0.1)"
       id="g12"><path
         id="path14"
         style="fill:#000000;fill-opacity:1;fill-rule:nonzero;stroke:none"
         d="m 1137.82,1234.16 c 0,15.66 -12.69,28.35 -28.35,28.35 -15.65,0 -28.34,-12.69 -28.34,-28.35 0,-15.66 12.69,-28.35 28.34,-28.35 15.66,0 28.35,12.69 28.35,28.35 z" /><path
         id="path16"
         style="fill:none;stroke:#000000;stroke-width:15.9404;stroke-linecap:butt;stroke-linejoin:miter;stroke-miterlimit:10;stroke-dasharray:none;stroke-opacity:1"
         d="m 1137.82,1234.16 c 0,15.66 -12.69,28.35 -28.35,28.35 -15.65,0 -28.34,-12.69 -28.34,-28.35 0,-15.66 12.69,-28.35 28.34,-28.35 15.66,0 28.35,12.69 28.35,28.35 z" /><path
         id="path18"
         style="fill:#000000;fill-opacity:1;fill-rule:nonzero;stroke:none"
         d="m 1704.75,1234.16 c 0,15.66 -12.7,28.35 -28.35,28.35 -15.65,0 -28.35,-12.69 -28.35,-28.35 0,-15.66 12.7,-28.35 28.35,-28.35 15.65,0 28.35,12.69 28.35,28.35 z" /><path
         id="path20"
         style="fill:none;stroke:#000000;stroke-width:15.9404;stroke-linecap:butt;stroke-linejoin:miter;stroke-miterlimit:10;stroke-dasharray:none;stroke-opacity:1"
         d="m 1704.75,1234.16 c 0,15.66 -12.7,28.35 -28.35,28.35 -15.65,0 -28.35,-12.69 -28.35,-28.35 0,-15.66 12.7,-28.35 28.35,-28.35 15.65,0 28.35,12.69 28.35,28.35 z" /><path
         id="path22"
         style="fill:#000000;fill-opacity:1;fill-rule:nonzero;stroke:none"
         d="m 2271.68,1234.16 c 0,15.66 -12.7,28.35 -28.35,28.35 -15.65,0 -28.35,-12.69 -28.35,-28.35 0,-15.66 12.7,-28.35 28.35,-28.35 15.65,0 28.35,12.69 28.35,28.35 z" /><path
         id="path24"
         style="fill:none;stroke:#000000;stroke-width:15.9404;stroke-linecap:butt;stroke-linejoin:miter;stroke-miterlimit:10;stroke-dasharray:none;stroke-opacity:1"
         d="m 2271.68,1234.16 c 0,15.66 -12.7,28.35 -28.35,28.35 -15.65,0 -28.35,-12.69 -28.35,-28.35 0,-15.66 12.7,-28.35 28.35,-28.35 15.65,0 28.35,12.69 28.35,28.35 z" /><path
         id="path26"
         style="fill:#000000;fill-opacity:1;fill-rule:nonzero;stroke:none"
         d="m 1137.82,383.77 c 0,15.656 -12.69,28.347 -28.35,28.347 -15.65,0 -28.34,-12.691 -28.34,-28.347 0,-15.657 12.69,-28.348 28.34,-28.348 15.66,0 28.35,12.691 28.35,28.348 z" /><path
         id="path28"
         style="fill:none;stroke:#000000;stroke-width:15.9404;stroke-linecap:butt;stroke-linejoin:miter;stroke-miterlimit:10;stroke-dasharray:none;stroke-opacity:1"
         d="m 1137.82,383.77 c 0,15.656 -12.69,28.347 -28.35,28.347 -15.65,0 -28.34,-12.691 -28.34,-28.347 0,-15.657 12.69,-28.348 28.34,-28.348 15.66,0 28.35,12.691 28.35,28.348 z" /><path
         id="path30"
         style="fill:#000000;fill-opacity:1;fill-rule:nonzero;stroke:none"
         d="m 1704.75,383.77 c 0,15.656 -12.7,28.347 -28.35,28.347 -15.65,0 -28.35,-12.691 -28.35,-28.347 0,-15.657 12.7,-28.348 28.35,-28.348 15.65,0 28.35,12.691 28.35,28.348 z" /><path
         id="path32"
         style="fill:none;stroke:#000000;stroke-width:15.9404;stroke-linecap:butt;stroke-linejoin:miter;stroke-miterlimit:10;stroke-dasharray:none;stroke-opacity:1"
         d="m 1704.75,383.77 c 0,15.656 -12.7,28.347 -28.35,28.347 -15.65,0 -28.35,-12.691 -28.35,-28.347 0,-15.657 12.7,-28.348 28.35,-28.348 15.65,0 28.35,12.691 28.35,28.348 z" /><path
         id="path34"
         style="fill:#000000;fill-opacity:1;fill-rule:nonzero;stroke:none"
         d="m 2271.68,383.77 c 0,15.656 -12.7,28.347 -28.35,28.347 -15.65,0 -28.35,-12.691 -28.35,-28.347 0,-15.657 12.7,-28.348 28.35,-28.348 15.65,0 28.35,12.691 28.35,28.348 z" /><path
         id="path36"
         style="fill:none;stroke:#000000;stroke-width:15.9404;stroke-linecap:butt;stroke-linejoin:miter;stroke-miterlimit:10;stroke-dasharray:none;stroke-opacity:1"
         d="m 2271.68,383.77 c 0,15.656 -12.7,28.347 -28.35,28.347 -15.65,0 -28.35,-12.691 -28.35,-28.347 0,-15.657 12.7,-28.348 28.35,-28.348 15.65,0 28.35,12.691 28.35,28.348 z" /><path
         id="path38"
         style="fill:none;stroke:#000000;stroke-width:15.9404;stroke-linecap:butt;stroke-linejoin:miter;stroke-miterlimit:10;stroke-dasharray:none;stroke-opacity:1"
         d="m 542.539,922.359 c -62.625,0 -113.391,-50.765 -113.391,-113.39 0,-62.621 50.766,-113.387 113.391,-113.387 62.621,0 113.387,50.766 113.387,113.387 0,62.625 -50.766,113.39 -113.387,113.39 z" /><path
         id="path40"
         style="fill:none;stroke:#000000;stroke-width:15.9404;stroke-linecap:butt;stroke-linejoin:miter;stroke-miterlimit:10;stroke-dasharray:none;stroke-opacity:1"
         d="M 655.926,808.969 H 429.148" /><path
         id="path42"
         style="fill:none;stroke:#000000;stroke-width:15.9404;stroke-linecap:butt;stroke-linejoin:miter;stroke-miterlimit:10;stroke-dasharray:none;stroke-opacity:1"
         d="M 383.387,692.305 V 950.703" /><path
         id="path44"
         style="fill:#000000;fill-opacity:1;fill-rule:nonzero;stroke:none"
         d="m 402.574,717.371 -19.187,-50.133 -19.184,50.133" /><path
         id="path46"
         style="fill:none;stroke:#000000;stroke-width:15.9404;stroke-linecap:butt;stroke-linejoin:round;stroke-miterlimit:10;stroke-dasharray:none;stroke-opacity:1"
         d="m 402.574,717.371 -19.187,-50.133 -19.184,50.133 z" /><path
         id="path48"
         style="fill:#0000ff;fill-opacity:1;fill-rule:nonzero;stroke:none"
         d="m 131.875,790.688 c 0,0.875 -0.687,1.562 -1.734,1.562 -1.547,0 -1.719,-0.516 -2.578,-3.453 -4.5,-15.719 -11.579,-21.063 -17.282,-21.063 -2.062,0 -4.484,0.516 -4.484,5.688 0,4.672 2.078,9.844 3.969,15.031 l 12.093,32.125 c 0.516,1.375 1.719,4.485 1.719,7.766 0,7.25 -5.172,13.812 -13.64,13.812 -15.8911,0 -22.2817,-25.031 -22.2817,-26.422 0,-0.687 0.7031,-1.546 1.9062,-1.546 1.5469,0 1.7344,0.687 2.4219,3.109 4.1406,14.5 10.7036,21.406 17.4376,21.406 1.547,0 4.484,-0.172 4.484,-5.703 0,-4.484 -2.234,-10.187 -3.625,-13.984 L 98.2031,786.891 c -1.0468,-2.75 -2.0781,-5.516 -2.0781,-8.625 0,-7.782 5.359,-14 13.641,-14 15.89,0 22.109,25.218 22.109,26.422 z m -1.391,83.078 c 0,2.578 -2.062,5.687 -5.859,5.687 -3.984,0 -8.469,-3.797 -8.469,-8.281 0,-4.313 3.625,-5.703 5.703,-5.703 4.657,0 8.625,4.5 8.625,8.297" /><path
         id="path50"
         style="fill:#0000ff;fill-opacity:1;fill-rule:nonzero;stroke:none"
         d="m 193.844,723.859 c 0,0.172 0,0.516 -0.516,1.047 -7.953,8.11 -29.187,30.219 -29.187,84.094 0,53.875 20.89,75.813 29.359,84.453 0,0.172 0.344,0.516 0.344,1.031 0,0.516 -0.516,0.86 -1.203,0.86 -1.907,0 -16.578,-12.781 -25.047,-31.766 -8.641,-19.172 -11.047,-37.828 -11.047,-54.406 0,-12.438 1.203,-33.5 11.562,-55.781 8.297,-17.953 22.454,-30.563 24.532,-30.563 0.859,0 1.203,0.344 1.203,1.031" /><path
         id="path52"
         style="fill:#0000ff;fill-opacity:1;fill-rule:nonzero;stroke:none"
         d="m 235.719,835.422 h 15.875 c 3.281,0 5.015,0 5.015,3.109 0,1.907 -1.031,1.907 -4.484,1.907 h -15.203 l 6.391,25.203 c 0.687,2.422 0.687,2.765 0.687,3.968 0,2.766 -2.25,4.329 -4.484,4.329 -1.391,0 -5.36,-0.516 -6.735,-6.047 l -6.734,-27.453 h -16.234 c -3.454,0 -5.016,0 -5.016,-3.282 0,-1.734 1.219,-1.734 4.5,-1.734 h 15.359 l -11.39,-45.594 c -1.391,-6.047 -1.907,-7.765 -1.907,-10.015 0,-8.11 5.704,-15.547 15.375,-15.547 17.438,0 26.766,25.218 26.766,26.422 0,1.046 -0.687,1.562 -1.734,1.562 -0.344,0 -1.032,0 -1.375,-0.687 -0.172,-0.172 -0.344,-0.344 -1.547,-3.11 -3.641,-8.64 -11.578,-20.719 -21.594,-20.719 -5.187,0 -5.531,4.313 -5.531,8.11 0,0.172 0,3.453 0.515,5.531 l 13.485,54.047" /><path
         id="path54"
         style="fill:#0000ff;fill-opacity:1;fill-rule:nonzero;stroke:none"
         d="m 307.422,809 c 0,12.438 -1.219,33.5 -11.578,55.781 -8.281,17.953 -22.453,30.563 -24.516,30.563 -0.515,0 -1.219,-0.172 -1.219,-1.031 0,-0.344 0.188,-0.516 0.36,-0.86 8.281,-8.64 29.344,-30.578 29.344,-84.281 0,-53.875 -20.891,-75.813 -29.344,-84.453 -0.172,-0.344 -0.36,-0.516 -0.36,-0.86 0,-0.859 0.704,-1.031 1.219,-1.031 1.891,0 16.578,12.781 25.031,31.781 8.641,19.157 11.063,37.813 11.063,54.391" /><path
         id="path56"
         style="fill:none;stroke:#000000;stroke-width:15.9404;stroke-linecap:butt;stroke-linejoin:miter;stroke-miterlimit:10;stroke-dasharray:none;stroke-opacity:1"
         d="M 996.086,837.316 H 1222.86 M 996.086,780.625 h 226.774" /><path
         id="path58"
         style="fill:none;stroke:#000000;stroke-width:15.9404;stroke-linecap:butt;stroke-linejoin:miter;stroke-miterlimit:10;stroke-dasharray:none;stroke-opacity:1"
         d="M 1268.62,950.703 V 692.305" /><path
         id="path60"
         style="fill:#000000;fill-opacity:1;fill-rule:nonzero;stroke:none"
         d="m 1287.81,717.371 -19.19,-50.133 -19.18,50.133" /><path
         id="path62"
         style="fill:none;stroke:#000000;stroke-width:15.9404;stroke-linecap:butt;stroke-linejoin:round;stroke-miterlimit:10;stroke-dasharray:none;stroke-opacity:1"
         d="m 1287.81,717.371 -19.19,-50.133 -19.18,50.133 z" /><path
         id="path64"
         style="fill:#0000ff;fill-opacity:1;fill-rule:nonzero;stroke:none"
         d="m 1458,870.016 c 0,1.562 -1.2,1.562 -1.55,1.562 -0.34,0 -1.04,0 -2.42,-1.734 l -11.92,-14.5 c -6.05,10.359 -15.53,16.234 -28.48,16.234 -37.32,0 -75.99,-37.828 -75.99,-78.406 0,-28.844 20.2,-46.797 45.41,-46.797 13.83,0 25.9,5.875 35.92,14.328 15.03,12.61 19.51,29.36 19.51,30.75 0,1.547 -1.37,1.547 -1.89,1.547 -1.56,0 -1.73,-1.031 -2.07,-1.719 -7.94,-26.953 -31.25,-39.906 -48.54,-39.906 -18.29,0 -34.18,11.75 -34.18,36.266 0,5.531 1.72,35.578 21.23,58.203 9.5,11.047 25.74,20.719 42.14,20.719 19,0 27.46,-15.704 27.46,-33.329 0,-4.484 -0.52,-8.281 -0.52,-8.968 0,-1.563 1.73,-1.563 2.25,-1.563 1.91,0 2.08,0.172 2.77,3.281 l 10.87,44.032" /><path
         id="path66"
         style="fill:none;stroke:#000000;stroke-width:15.9404;stroke-linecap:butt;stroke-linejoin:miter;stroke-miterlimit:10;stroke-dasharray:none;stroke-opacity:1"
         d="m 1619.71,582.195 h 113.387 v 453.551 H 1619.71 Z" /><path
         id="path68"
         style="fill:none;stroke:#000000;stroke-width:15.9404;stroke-linecap:butt;stroke-linejoin:miter;stroke-miterlimit:10;stroke-dasharray:none;stroke-opacity:1"
         d="M 1778.86,950.703 V 692.305" /><path
         id="path70"
         style="fill:#000000;fill-opacity:1;fill-rule:nonzero;stroke:none"
         d="m 1798.05,717.371 -19.19,-50.133 -19.18,50.133" /><path
         id="path72"
         style="fill:none;stroke:#000000;stroke-width:15.9404;stroke-linecap:butt;stroke-linejoin:round;stroke-miterlimit:10;stroke-dasharray:none;stroke-opacity:1"
         d="m 1798.05,717.371 -19.19,-50.133 -19.18,50.133 z" /><path
         id="path74"
         style="fill:#0000ff;fill-opacity:1;fill-rule:nonzero;stroke:none"
         d="m 1902.55,856.203 c 1.56,6.391 2.25,6.735 8.98,6.735 h 12.44 c 14.84,0 25.91,-4.485 25.91,-17.954 0,-8.812 -4.5,-34.203 -39.21,-34.203 h -19.51 z m 24.01,-47.484 c 21.41,4.656 38.16,18.469 38.16,33.328 0,13.469 -13.64,25.906 -37.64,25.906 h -46.8 c -3.47,0 -5.01,0 -5.01,-3.281 0,-1.734 1.2,-1.734 4.48,-1.734 10.38,0 10.38,-1.375 10.38,-3.282 0,-0.343 0,-1.375 -0.71,-3.968 l -23.31,-92.907 c -1.55,-6.047 -1.89,-7.765 -13.81,-7.765 -3.97,0 -5.19,0 -5.19,-3.282 0,-1.734 1.91,-1.734 2.42,-1.734 3.11,0 6.74,0.344 10.02,0.344 h 20.37 c 3.11,0 6.74,-0.344 9.85,-0.344 1.39,0 3.28,0 3.28,3.281 0,1.735 -1.55,1.735 -4.14,1.735 -10.53,0 -10.53,1.375 -10.53,3.093 0,0.188 0,1.391 0.34,2.766 l 11.58,46.453 h 20.72 c 16.4,0 19.51,-10.359 19.51,-16.047 0,-2.593 -1.73,-9.328 -2.94,-13.828 -1.9,-7.937 -2.42,-9.844 -2.42,-13.125 0,-12.25 10.02,-17.953 21.6,-17.953 13.98,0 20.03,17.094 20.03,19.516 0,1.203 -0.86,1.718 -1.91,1.718 -1.37,0 -1.72,-1.031 -2.06,-2.406 -4.16,-12.265 -11.24,-15.375 -15.55,-15.375 -4.31,0 -7.08,1.906 -7.08,9.672 0,4.141 2.07,19.859 2.24,20.719 0.87,6.39 0.87,7.078 0.87,8.469 0,12.609 -10.18,17.953 -16.75,20.031" /><path
         id="path76"
         style="fill:none;stroke:#000000;stroke-width:15.9404;stroke-linecap:round;stroke-linejoin:miter;stroke-miterlimit:10;stroke-dasharray:none;stroke-opacity:1"
         d="M 1077.14,383.77 H 542.539 v 303.843 m 0,242.715 v 303.842 h 534.601 m 32.33,-32.33 V 845.289 m 0,-72.637 V 416.098 m 566.94,785.742 v -158.13 m 0,-469.483 V 416.098 m 32.33,818.072 h 502.28 m 0,-850.4 h -502.28 m -566.94,850.4 h 502.28 M 1141.8,383.77 h 502.28 M 1109.47,351.438 V 150.789" /><path
         id="path78"
         style="fill:none;stroke:#000000;stroke-width:15.9404;stroke-linecap:round;stroke-linejoin:miter;stroke-miterlimit:10;stroke-dasharray:none;stroke-opacity:1"
         d="m 996.086,142.82 h 226.774 m -188.98,-42.519 h 151.19 m -113.4,-42.5197 h 75.6" /><path
         id="path80"
         style="fill:none;stroke:#000000;stroke-width:11.9553;stroke-linecap:butt;stroke-linejoin:miter;stroke-miterlimit:10;stroke-dasharray:none;stroke-opacity:1"
         d="M 2243.35,1095.79 V 522.156" /><path
         id="path82"
         style="fill:#000000;fill-opacity:1;fill-rule:nonzero;stroke:none"
         d="m 2243.35,1148.85 c -1.64,-6.52 -10.9,-35.16 -20.98,-53.06 h 41.95 c -10.08,17.9 -19.34,46.54 -20.97,53.06" /><path
         id="path84"
         style="fill:none;stroke:#000000;stroke-width:11.9553;stroke-linecap:butt;stroke-linejoin:miter;stroke-miterlimit:10;stroke-dasharray:none;stroke-opacity:1"
         d="m 2243.35,1148.85 c -1.64,-6.52 -10.9,-35.16 -20.98,-53.06 h 41.95 c -10.08,17.9 -19.34,46.54 -20.97,53.06 z" /><path
         id="path86"
         style="fill:#000000;fill-opacity:1;fill-rule:nonzero;stroke:none"
         d="m 2243.35,469.094 c 1.63,6.515 10.89,35.16 20.97,53.062 h -41.95 c 10.08,-17.902 19.34,-46.547 20.98,-53.062" /><path
         id="path88"
         style="fill:none;stroke:#000000;stroke-width:11.9553;stroke-linecap:butt;stroke-linejoin:miter;stroke-miterlimit:10;stroke-dasharray:none;stroke-opacity:1"
         d="m 2243.35,469.094 c 1.63,6.515 10.89,35.16 20.97,53.062 h -41.95 c 10.08,-17.902 19.34,-46.547 20.98,-53.062 z" /><path
         id="path90"
         style="fill:#0000ff;fill-opacity:1;fill-rule:nonzero;stroke:none"
         d="m 2341.89,776.016 c 2.25,-9.672 10.53,-11.75 14.67,-11.75 5.53,0 9.67,3.64 12.44,9.5 2.94,6.218 5.19,16.406 5.19,16.922 0,0.875 -0.71,1.562 -1.74,1.562 -1.54,0 -1.72,-0.859 -2.42,-3.453 -3.11,-11.922 -6.2,-21.063 -13.12,-21.063 -5.18,0 -5.18,5.688 -5.18,7.938 0,3.969 0.52,5.703 2.25,12.953 1.21,4.656 2.41,9.328 3.46,14.156 l 7.08,28.157 c 1.2,4.312 1.2,4.656 1.2,5.171 0,2.594 -2.08,4.329 -4.66,4.329 -5.01,0 -6.22,-4.329 -7.26,-8.641 -1.72,-6.734 -11.05,-43.859 -12.25,-49.906 -0.17,0 -6.91,-14.157 -19.52,-14.157 -8.98,0 -10.7,7.766 -10.7,14.157 0,9.843 4.83,23.656 9.31,35.234 2.08,5.516 2.94,7.766 2.94,11.219 0,7.422 -5.35,13.812 -13.64,13.812 -15.89,0 -22.28,-25.031 -22.28,-26.422 0,-0.687 0.7,-1.546 1.9,-1.546 1.55,0 1.74,0.687 2.42,3.109 4.15,14.844 10.88,21.406 17.44,21.406 1.74,0 4.49,-0.172 4.49,-5.703 0,-4.484 -1.89,-9.5 -4.49,-16.062 -7.59,-20.547 -8.47,-27.11 -8.47,-32.282 0,-17.625 13.3,-20.39 20.39,-20.39 11.05,0 17.1,7.609 20.55,11.75" /><path
         id="path92"
         style="fill:#0000ff;fill-opacity:1;fill-rule:nonzero;stroke:none"
         d="m 2430.84,723.859 c 0,0.172 0,0.516 -0.51,1.047 -7.95,8.11 -29.19,30.219 -29.19,84.094 0,53.875 20.89,75.813 29.36,84.453 0,0.172 0.34,0.516 0.34,1.031 0,0.516 -0.51,0.86 -1.2,0.86 -1.91,0 -16.58,-12.781 -25.05,-31.766 -8.64,-19.172 -11.04,-37.828 -11.04,-54.406 0,-12.438 1.2,-33.5 11.56,-55.781 8.3,-17.953 22.45,-30.563 24.53,-30.563 0.86,0 1.2,0.344 1.2,1.031" /><path
         id="path94"
         style="fill:#0000ff;fill-opacity:1;fill-rule:nonzero;stroke:none"
         d="m 2473.72,835.422 h 15.87 c 3.29,0 5.02,0 5.02,3.109 0,1.907 -1.03,1.907 -4.48,1.907 h -15.21 l 6.39,25.203 c 0.69,2.422 0.69,2.765 0.69,3.968 0,2.766 -2.25,4.329 -4.48,4.329 -1.39,0 -5.36,-0.516 -6.74,-6.047 l -6.73,-27.453 h -16.24 c -3.45,0 -5.01,0 -5.01,-3.282 0,-1.734 1.22,-1.734 4.5,-1.734 h 15.36 l -11.39,-45.594 c -1.39,-6.047 -1.91,-7.765 -1.91,-10.015 0,-8.11 5.7,-15.547 15.37,-15.547 17.44,0 26.77,25.218 26.77,26.422 0,1.046 -0.69,1.562 -1.73,1.562 -0.35,0 -1.04,0 -1.38,-0.687 -0.17,-0.172 -0.34,-0.344 -1.55,-3.11 -3.64,-8.64 -11.57,-20.719 -21.59,-20.719 -5.19,0 -5.53,4.313 -5.53,8.11 0,0.172 0,3.453 0.51,5.531 l 13.49,54.047" /><path
         id="path96"
         style="fill:#0000ff;fill-opacity:1;fill-rule:nonzero;stroke:none"
         d="m 2545.42,809 c 0,12.438 -1.22,33.5 -11.58,55.781 -8.28,17.953 -22.45,30.563 -24.51,30.563 -0.52,0 -1.22,-0.172 -1.22,-1.031 0,-0.344 0.19,-0.516 0.36,-0.86 8.28,-8.64 29.34,-30.578 29.34,-84.281 0,-53.875 -20.89,-75.813 -29.34,-84.453 -0.17,-0.344 -0.36,-0.516 -0.36,-0.86 0,-0.859 0.7,-1.031 1.22,-1.031 1.89,0 16.58,12.781 25.03,31.781 8.64,19.157 11.06,37.813 11.06,54.391" /></g></g></svg>
