<?xml version="1.0" encoding="UTF-8" standalone="no"?>
<svg
   xmlns:dc="http://purl.org/dc/elements/1.1/"
   xmlns:cc="http://creativecommons.org/ns#"
   xmlns:rdf="http://www.w3.org/1999/02/22-rdf-syntax-ns#"
   xmlns:svg="http://www.w3.org/2000/svg"
   xmlns="http://www.w3.org/2000/svg"
   viewBox="0 0 223.06667 242.84"
   height="242.84"
   width="223.06667"
   xml:space="preserve"
   id="svg2"
   version="1.1"><metadata
     id="metadata8"><rdf:RDF><cc:Work
         rdf:about=""><dc:format>image/svg+xml</dc:format><dc:type
           rdf:resource="http://purl.org/dc/dcmitype/StillImage" /></cc:Work></rdf:RDF></metadata><defs
     id="defs6" /><g
     transform="matrix(1.3333333,0,0,-1.3333333,0,242.84)"
     id="g10"><g
       transform="scale(0.1)"
       id="g12"><path
         id="path14"
         style="fill:#000000;fill-opacity:1;fill-rule:nonzero;stroke:none"
         d="m 268.859,926.984 c -17.093,3.797 -17.609,16.235 -17.609,18.657 0,8.797 5.703,18.984 22.453,18.984 16.75,0 31.766,-8.109 35.406,-30.734 0.516,-3.625 0.516,-3.797 3.797,-3.797 3.625,0 3.625,0.515 3.625,4.484 v 32.469 c 0,3.281 0,4.5 -2.593,4.5 -1.204,0 -1.735,-0.172 -3.282,-1.906 l -7.422,-8.469 c -4.328,3.641 -12.953,10.375 -29.703,10.375 -24.703,0 -37.828,-15.547 -37.828,-34.375 0,-11.563 6.219,-19.688 8.641,-22.109 8.984,-8.969 13.812,-10.016 31.781,-13.985 17.266,-3.797 19.328,-4.14 23.141,-7.765 2.234,-2.25 7.25,-7.079 7.25,-15.891 0,-7.422 -3.625,-21.063 -22.969,-21.063 -15.203,0 -39.203,5.172 -40.594,30.391 -0.172,3.109 -0.172,3.625 -3.625,3.625 -3.625,0 -3.625,-0.516 -3.625,-4.484 v -32.469 c 0,-3.281 0,-4.5 2.594,-4.5 1.203,0 1.375,0.172 3.109,1.734 1.907,1.891 3.453,4.141 7.766,8.453 10.016,-7.937 24.187,-10.187 34.547,-10.187 26.937,0 38.328,18.312 38.328,36.609 0,16.235 -10.703,31.782 -29.531,36.094 l -23.657,5.359" /><path
         id="path16"
         style="fill:#000000;fill-opacity:1;fill-rule:nonzero;stroke:none"
         d="m 369.469,920.25 h 19.687 v 7.422 h -20.547 v 17.797 c 0,17.953 11.407,20.719 17.094,20.719 1.906,0 2.25,-0.172 3.281,-0.516 -2.578,-1.734 -4.14,-4.672 -4.14,-8.297 0,-6.906 5.531,-10.016 10.015,-10.016 3.797,0 10.016,2.594 10.016,10.188 0,7.078 -6.219,14.344 -18.469,14.344 -15.718,0 -34.89,-6.563 -34.89,-26.594 v -17.625 h -12.782 v -7.422 h 12.782 V 858.422 H 339.594 V 851 c 3.984,0.344 16.922,0.344 21.765,0.344 5,0 19,0 23.141,-0.344 v 7.422 h -15.031 v 61.828" /><path
         id="path18"
         style="fill:#0000ff;fill-opacity:1;fill-rule:nonzero;stroke:none"
         d="m 131.875,878.688 c 0,0.875 -0.687,1.562 -1.734,1.562 -1.547,0 -1.719,-0.516 -2.578,-3.453 -4.5,-15.719 -11.579,-21.063 -17.282,-21.063 -2.062,0 -4.484,0.516 -4.484,5.688 0,4.672 2.078,9.844 3.969,15.031 l 12.093,32.125 c 0.516,1.375 1.719,4.485 1.719,7.766 0,7.25 -5.172,13.812 -13.64,13.812 -15.8911,0 -22.2817,-25.031 -22.2817,-26.422 0,-0.687 0.7031,-1.546 1.9062,-1.546 1.5469,0 1.7344,0.687 2.4219,3.109 4.1406,14.5 10.7036,21.406 17.4376,21.406 1.547,0 4.484,-0.172 4.484,-5.703 0,-4.484 -2.234,-10.187 -3.625,-13.984 L 98.2031,874.891 c -1.0468,-2.75 -2.0781,-5.516 -2.0781,-8.625 0,-7.782 5.359,-14 13.641,-14 15.89,0 22.109,25.218 22.109,26.422 z m -1.391,83.078 c 0,2.578 -2.062,5.687 -5.859,5.687 -3.984,0 -8.469,-3.797 -8.469,-8.281 0,-4.313 3.625,-5.703 5.703,-5.703 4.657,0 8.625,4.5 8.625,8.297" /><path
         id="path20"
         style="fill:#0000ff;fill-opacity:1;fill-rule:nonzero;stroke:none"
         d="m 188.672,941.172 c 0,4.328 -3.453,7.094 -7.078,7.094 -3.453,0 -7.094,-2.766 -7.094,-7.094 0,-4.313 3.453,-7.078 7.094,-7.078 3.453,0 7.078,2.765 7.078,7.078 z m 0,-60.094 c 0,4.313 -3.453,7.078 -7.078,7.078 -3.453,0 -7.094,-2.765 -7.094,-7.078 0,-4.312 3.453,-7.078 7.094,-7.078 3.453,0 7.078,2.766 7.078,7.078" /><path
         id="path22"
         style="fill:#000000;fill-opacity:1;fill-rule:nonzero;stroke:none"
         d="m 924.281,910.094 c 0,16.578 0,58.187 -40.75,58.187 -40.937,0 -40.937,-41.437 -40.937,-58.187 0,-16.578 0,-57.172 40.765,-57.172 40.75,0 40.922,40.078 40.922,57.172 z m -40.75,-51.469 c -5.531,0 -9.672,2.25 -13.125,5.875 -4.328,4.313 -7.078,7.078 -7.078,47.656 0,12.094 0,23.141 1.375,32.125 2.422,17.094 14.86,18.313 18.656,18.313 5.516,0 16.235,-2.594 18.641,-17.11 1.563,-8.796 1.563,-22.781 1.563,-33.328 0,-40.75 -2.594,-43.172 -7.782,-48.343 -3.453,-3.454 -8.109,-5.188 -12.25,-5.188" /><path
         id="path24"
         style="fill:#0000ff;fill-opacity:1;fill-rule:nonzero;stroke:none"
         d="m 749.891,710.016 c 2.25,-9.672 10.531,-11.75 14.672,-11.75 5.531,0 9.671,3.64 12.437,9.5 2.938,6.218 5.188,16.406 5.188,16.922 0,0.875 -0.704,1.562 -1.735,1.562 -1.547,0 -1.719,-0.859 -2.422,-3.453 -3.109,-11.922 -6.203,-21.063 -13.125,-21.063 -5.172,0 -5.172,5.688 -5.172,7.938 0,3.969 0.516,5.703 2.25,12.953 1.204,4.656 2.407,9.328 3.454,14.156 l 7.078,28.157 c 1.203,4.312 1.203,4.656 1.203,5.171 0,2.594 -2.078,4.329 -4.656,4.329 -5.016,0 -6.219,-4.329 -7.266,-8.641 -1.719,-6.734 -11.047,-43.859 -12.25,-49.906 -0.172,0 -6.906,-14.157 -19.516,-14.157 -8.984,0 -10.703,7.766 -10.703,14.157 0,9.843 4.828,23.656 9.313,35.234 2.078,5.516 2.937,7.766 2.937,11.219 0,7.422 -5.344,13.812 -13.64,13.812 -15.891,0 -22.282,-25.031 -22.282,-26.422 0,-0.687 0.703,-1.546 1.907,-1.546 1.546,0 1.734,0.687 2.421,3.109 4.141,14.844 10.875,21.406 17.438,21.406 1.734,0 4.484,-0.172 4.484,-5.703 0,-4.484 -1.89,-9.5 -4.484,-16.062 -7.594,-20.547 -8.469,-27.11 -8.469,-32.282 0,-17.625 13.297,-20.39 20.391,-20.39 11.047,0 17.094,7.609 20.547,11.75" /><path
         id="path26"
         style="fill:#000000;fill-opacity:1;fill-rule:nonzero;stroke:none"
         d="m 943.344,401.047 c 0,3.969 0,4.5 -3.797,4.5 l -12.953,-12.438 c -9.672,8.282 -21.235,12.438 -34.016,12.438 -41.281,0 -67.875,-25.047 -67.875,-61.313 0,-35.578 25.735,-61.312 68.047,-61.312 30.734,0 50.594,21.078 50.594,41.453 0,2.938 -1.031,3.109 -3.625,3.109 -1.719,0 -3.453,0 -3.625,-1.906 -1.547,-26.25 -23.828,-35.219 -39.375,-35.219 -11.219,0 -26.422,3.11 -36.094,13.985 -6.047,6.562 -11.562,16.062 -11.562,39.89 0,16.922 2.578,29.532 10.703,39.204 11.047,12.953 28.312,14.671 36.609,14.671 12.953,0 33.844,-7.25 39.031,-37.64 0.344,-1.563 1.891,-1.563 3.969,-1.563 3.969,0 3.969,0.36 3.969,4.5 v 37.641" /><path
         id="path28"
         style="fill:#0000ff;fill-opacity:1;fill-rule:nonzero;stroke:none"
         d="m 946,203.016 c 0,1.562 -1.203,1.562 -1.547,1.562 -0.344,0 -1.047,0 -2.422,-1.734 l -11.922,-14.5 c -6.046,10.359 -15.531,16.234 -28.484,16.234 -37.312,0 -75.984,-37.828 -75.984,-78.406 0,-28.8439 20.203,-46.797 45.406,-46.797 13.828,0 25.906,5.875 35.922,14.3281 15.031,12.6099 19.515,29.3599 19.515,30.7499 0,1.547 -1.375,1.547 -1.89,1.547 -1.563,0 -1.735,-1.031 -2.078,-1.719 -7.938,-26.9529 -31.25,-39.906 -48.532,-39.906 -18.296,0 -34.187,11.75 -34.187,36.266 0,5.531 1.719,35.578 21.234,58.203 9.5,11.047 25.735,20.719 42.141,20.719 19,0 27.453,-15.704 27.453,-33.329 0,-4.484 -0.516,-8.281 -0.516,-8.968 0,-1.563 1.735,-1.563 2.25,-1.563 1.907,0 2.079,0.172 2.766,3.281 L 946,203.016" /><path
         id="path30"
         style="fill:#0000ff;fill-opacity:1;fill-rule:nonzero;stroke:none"
         d="m 914.172,234.328 c 4.328,0 7.094,3.453 7.094,7.078 0,3.453 -2.766,7.094 -7.094,7.094 -4.313,0 -7.078,-3.453 -7.078,-7.094 0,-3.453 2.765,-7.078 7.078,-7.078 z m -60.094,0 c 4.313,0 7.078,3.453 7.078,7.078 0,3.453 -2.765,7.094 -7.078,7.094 -4.312,0 -7.078,-3.453 -7.078,-7.094 0,-3.453 2.766,-7.078 7.078,-7.078" /><path
         id="path32"
         style="fill:#000000;fill-opacity:1;fill-rule:nonzero;stroke:none"
         d="m 902.359,1477.72 c 23.313,6.22 29.016,18.64 29.016,27.97 0,17.28 -18.141,31.78 -50.094,31.78 h -63.718 v -7.42 h 18.312 V 1426.42 H 817.563 V 1419 c 5.015,0.34 22.968,0.34 29.187,0.34 6.219,0 24.344,0 29.359,-0.34 v 7.42 h -18.312 v 49.05 h 20.547 c 6.922,0 12.437,-2.06 16.234,-6.56 5.188,-5.88 5.188,-9.68 5.188,-21.24 0,-11.58 0,-18.65 8.812,-24.53 8.969,-6.05 23.141,-6.22 26.938,-6.22 17.609,0 19.687,15.55 19.687,17.97 0,2.94 -1.39,3.45 -3.625,3.45 -3.281,0 -3.453,-1.2 -3.625,-3.45 -0.875,-8.64 -6.219,-12.26 -11.062,-12.26 -11.047,0 -12.266,11.57 -13.641,27.45 -1.031,9.15 -2.25,21.94 -20.891,27.64 z M 878,1481.17 h -20.203 v 48.88 h 20.547 c 28.156,0 28.672,-14.17 28.672,-24.36 0,-9.5 -0.172,-24.52 -29.016,-24.52" /><path
         id="path34"
         style="fill:#0000ff;fill-opacity:1;fill-rule:nonzero;stroke:none"
         d="m 882.547,1727.2 c 1.562,6.39 2.25,6.74 8.984,6.74 h 12.438 c 14.844,0 25.906,-4.49 25.906,-17.96 0,-8.81 -4.5,-34.2 -39.203,-34.2 h -19.516 z m 24.016,-47.48 c 21.406,4.66 38.156,18.47 38.156,33.33 0,13.47 -13.641,25.9 -37.641,25.9 h -46.797 c -3.468,0 -5.015,0 -5.015,-3.28 0,-1.73 1.203,-1.73 4.484,-1.73 10.375,0 10.375,-1.38 10.375,-3.28 0,-0.35 0,-1.38 -0.703,-3.97 l -23.313,-92.91 c -1.546,-6.05 -1.89,-7.76 -13.812,-7.76 -3.969,0 -5.188,0 -5.188,-3.29 0,-1.73 1.907,-1.73 2.422,-1.73 3.11,0 6.735,0.34 10.016,0.34 h 20.375 c 3.109,0 6.734,-0.34 9.844,-0.34 1.39,0 3.281,0 3.281,3.28 0,1.74 -1.547,1.74 -4.141,1.74 -10.531,0 -10.531,1.37 -10.531,3.09 0,0.19 0,1.39 0.344,2.77 l 11.578,46.45 h 20.719 c 16.406,0 19.515,-10.36 19.515,-16.05 0,-2.59 -1.734,-9.33 -2.937,-13.83 -1.906,-7.93 -2.422,-9.84 -2.422,-13.12 0,-12.25 10.016,-17.95 21.594,-17.95 13.984,0 20.031,17.09 20.031,19.51 0,1.2 -0.859,1.72 -1.906,1.72 -1.375,0 -1.719,-1.03 -2.063,-2.41 -4.156,-12.26 -11.234,-15.37 -15.547,-15.37 -4.312,0 -7.078,1.9 -7.078,9.67 0,4.14 2.063,19.86 2.235,20.72 0.875,6.39 0.875,7.08 0.875,8.47 0,12.61 -10.188,17.95 -16.75,20.03" /><path
         id="path36"
         style="fill:#0000ff;fill-opacity:1;fill-rule:nonzero;stroke:none"
         d="m 853.828,1586.67 c -4.328,0 -7.094,-3.45 -7.094,-7.08 0,-3.45 2.766,-7.09 7.094,-7.09 4.313,0 7.078,3.45 7.078,7.09 0,3.46 -2.765,7.08 -7.078,7.08 z m 60.094,0 c -4.313,0 -7.078,-3.45 -7.078,-7.08 0,-3.45 2.765,-7.09 7.078,-7.09 4.312,0 7.078,3.45 7.078,7.09 0,3.46 -2.766,7.08 -7.078,7.08" /><path
         id="path38"
         style="fill:none;stroke:#000000;stroke-width:15.9404;stroke-linecap:butt;stroke-linejoin:miter;stroke-miterlimit:10;stroke-dasharray:none;stroke-opacity:1"
         d="m 473.695,910.66 h 270.91" /><path
         id="path40"
         style="fill:none;stroke:#000000;stroke-width:15.9404;stroke-linecap:butt;stroke-linejoin:miter;stroke-miterlimit:10;stroke-dasharray:none;stroke-opacity:1"
         d="M 469.711,846.898 V 974.422" /><path
         id="path42"
         style="fill:none;stroke:#000000;stroke-width:15.9404;stroke-linecap:butt;stroke-linejoin:miter;stroke-miterlimit:10;stroke-dasharray:none;stroke-opacity:1"
         d="m 744.605,910.66 h 15.942 l -68.703,-57.656" /><path
         id="path44"
         style="fill:none;stroke:#000000;stroke-width:15.9404;stroke-linecap:butt;stroke-linejoin:miter;stroke-miterlimit:10;stroke-dasharray:none;stroke-opacity:1"
         d="M 883.672,790.43 V 493.426" /><path
         id="path46"
         style="fill:none;stroke:#000000;stroke-width:15.9404;stroke-linecap:butt;stroke-linejoin:miter;stroke-miterlimit:10;stroke-dasharray:none;stroke-opacity:1"
         d="M 819.91,794.414 H 947.43" /><path
         id="path48"
         style="fill:none;stroke:#000000;stroke-width:15.9404;stroke-linecap:butt;stroke-linejoin:miter;stroke-miterlimit:10;stroke-dasharray:none;stroke-opacity:1"
         d="m 883.672,493.426 v -15.938 l 57.656,68.703" /><path
         id="path50"
         style="fill:none;stroke:#000000;stroke-width:15.9404;stroke-linecap:butt;stroke-linejoin:miter;stroke-miterlimit:10;stroke-dasharray:none;stroke-opacity:1"
         d="m 883.672,1018.93 v 293.02" /><path
         id="path52"
         style="fill:none;stroke:#000000;stroke-width:15.9404;stroke-linecap:butt;stroke-linejoin:miter;stroke-miterlimit:10;stroke-dasharray:none;stroke-opacity:1"
         d="m 883.672,1311.95 v 15.94 l 57.656,-68.7" /><path
         id="path54"
         style="fill:none;stroke:#000000;stroke-width:15.9404;stroke-linecap:butt;stroke-linejoin:miter;stroke-miterlimit:10;stroke-dasharray:none;stroke-opacity:1"
         d="M 819.91,1357.77 H 947.43" /><path
         id="path56"
         style="fill:none;stroke:#000000;stroke-width:15.9404;stroke-linecap:round;stroke-linejoin:miter;stroke-miterlimit:10;stroke-dasharray:none;stroke-opacity:1"
         d="M 955.004,910.66 H 1388.57" /><path
         id="path58"
         style="fill:#000000;fill-opacity:1;fill-rule:nonzero;stroke:none"
         d="m 1427.91,910.66 -53.19,20.207 17.84,-20.207 -17.84,-20.207 z" /><path
         id="path60"
         style="fill:none;stroke:#000000;stroke-width:15.9404;stroke-linecap:round;stroke-linejoin:miter;stroke-miterlimit:10;stroke-dasharray:none;stroke-opacity:1"
         d="m 1427.91,910.66 -53.19,20.207 17.84,-20.207 -17.84,-20.207 z" /><path
         id="path62"
         style="fill:#000000;fill-opacity:1;fill-rule:nonzero;stroke:none"
         d="m 1369.89,1005.02 c 2.25,-9.676 10.53,-11.754 14.67,-11.754 5.53,0 9.67,3.64 12.44,9.504 2.94,6.21 5.19,16.4 5.19,16.92 0,0.87 -0.71,1.56 -1.74,1.56 -1.54,0 -1.72,-0.86 -2.42,-3.45 -3.11,-11.92 -6.2,-21.066 -13.12,-21.066 -5.18,0 -5.18,5.686 -5.18,7.936 0,3.97 0.52,5.71 2.25,12.96 1.21,4.65 2.41,9.32 3.46,14.15 l 7.08,28.16 c 1.2,4.31 1.2,4.65 1.2,5.17 0,2.59 -2.08,4.33 -4.66,4.33 -5.01,0 -6.22,-4.33 -7.26,-8.64 -1.72,-6.74 -11.05,-43.86 -12.25,-49.91 -0.17,0 -6.91,-14.156 -19.52,-14.156 -8.98,0 -10.7,7.766 -10.7,14.156 0,9.84 4.83,23.66 9.31,35.24 2.08,5.51 2.94,7.76 2.94,11.21 0,7.43 -5.35,13.82 -13.64,13.82 -15.89,0 -22.28,-25.03 -22.28,-26.43 0,-0.68 0.7,-1.54 1.9,-1.54 1.55,0 1.74,0.69 2.42,3.11 4.15,14.84 10.88,21.4 17.44,21.4 1.74,0 4.49,-0.17 4.49,-5.7 0,-4.48 -1.89,-9.5 -4.49,-16.06 -7.59,-20.55 -8.47,-27.11 -8.47,-32.28 0,-17.629 13.3,-20.394 20.39,-20.394 11.05,0 17.1,7.614 20.55,11.754" /><path
         id="path64"
         style="fill:#000000;fill-opacity:1;fill-rule:nonzero;stroke:none"
         d="m 1459.84,952.859 c 0,0.172 0,0.516 -0.51,1.047 -7.95,8.11 -29.19,30.219 -29.19,84.094 0,53.88 20.89,75.81 29.36,84.45 0,0.18 0.34,0.52 0.34,1.03 0,0.52 -0.51,0.86 -1.2,0.86 -1.91,0 -16.58,-12.78 -25.05,-31.76 -8.64,-19.17 -11.04,-37.83 -11.04,-54.41 0,-12.44 1.2,-33.5 11.56,-55.779 8.3,-17.953 22.45,-30.563 24.53,-30.563 0.86,0 1.2,0.344 1.2,1.031" /><path
         id="path66"
         style="fill:#000000;fill-opacity:1;fill-rule:nonzero;stroke:none"
         d="m 1502.72,1064.42 h 15.87 c 3.29,0 5.02,0 5.02,3.11 0,1.91 -1.03,1.91 -4.48,1.91 h -15.21 l 6.39,25.2 c 0.69,2.42 0.69,2.77 0.69,3.97 0,2.77 -2.25,4.33 -4.48,4.33 -1.39,0 -5.36,-0.52 -6.74,-6.05 l -6.73,-27.45 h -16.24 c -3.45,0 -5.01,0 -5.01,-3.28 0,-1.74 1.22,-1.74 4.5,-1.74 h 15.36 l -11.39,-45.59 c -1.39,-6.05 -1.91,-7.77 -1.91,-10.02 0,-8.11 5.7,-15.544 15.37,-15.544 17.44,0 26.77,25.214 26.77,26.424 0,1.04 -0.69,1.56 -1.73,1.56 -0.35,0 -1.04,0 -1.38,-0.69 -0.17,-0.17 -0.34,-0.34 -1.55,-3.11 -3.64,-8.64 -11.57,-20.716 -21.59,-20.716 -5.19,0 -5.53,4.316 -5.53,8.106 0,0.18 0,3.46 0.51,5.54 l 13.49,54.04" /><path
         id="path68"
         style="fill:#000000;fill-opacity:1;fill-rule:nonzero;stroke:none"
         d="m 1574.42,1038 c 0,12.44 -1.22,33.5 -11.58,55.78 -8.28,17.95 -22.45,30.56 -24.51,30.56 -0.52,0 -1.22,-0.17 -1.22,-1.03 0,-0.34 0.19,-0.51 0.36,-0.86 8.28,-8.64 29.34,-30.57 29.34,-84.28 0,-53.873 -20.89,-75.811 -29.34,-84.451 -0.17,-0.344 -0.36,-0.516 -0.36,-0.86 0,-0.859 0.7,-1.031 1.22,-1.031 1.89,0 16.58,12.781 25.03,31.781 8.64,19.161 11.06,37.811 11.06,54.391" /></g></g></svg>
