<?xml version="1.0" encoding="UTF-8" standalone="no"?>
<svg
   xmlns:dc="http://purl.org/dc/elements/1.1/"
   xmlns:cc="http://creativecommons.org/ns#"
   xmlns:rdf="http://www.w3.org/1999/02/22-rdf-syntax-ns#"
   xmlns:svg="http://www.w3.org/2000/svg"
   xmlns="http://www.w3.org/2000/svg"
   viewBox="0 0 405.45334 650.89331"
   height="650.89331"
   width="405.45334"
   xml:space="preserve"
   id="svg2"
   version="1.1"><metadata
     id="metadata8"><rdf:RDF><cc:Work
         rdf:about=""><dc:format>image/svg+xml</dc:format><dc:type
           rdf:resource="http://purl.org/dc/dcmitype/StillImage" /></cc:Work></rdf:RDF></metadata><defs
     id="defs6"><clipPath
       id="clipPath150"
       clipPathUnits="userSpaceOnUse"><path
         id="path148"
         d="m 2597.67,2142.31 h 90.707 v 90.7109 h -90.707 z" /></clipPath><clipPath
       id="clipPath166"
       clipPathUnits="userSpaceOnUse"><path
         id="path164"
         d="m 2280.18,2006.25 h 90.707 v 90.707 h -90.707 z" /></clipPath></defs><g
     transform="matrix(1.3333333,0,0,-1.3333333,0,650.89333)"
     id="g10"><g
       transform="scale(0.1)"
       id="g12"><path
         id="path14"
         style="fill:#000000;fill-opacity:1;fill-rule:nonzero;stroke:none"
         d="m 1945.69,4767.22 v 56.7 l 71.4,-28.35" /><path
         id="path16"
         style="fill:none;stroke:#000000;stroke-width:15.9404;stroke-linecap:butt;stroke-linejoin:miter;stroke-miterlimit:10;stroke-dasharray:none;stroke-opacity:1"
         d="m 1945.69,4767.22 v 56.7 l 71.4,-28.35 z" /><path
         id="path18"
         style="fill:none;stroke:#000000;stroke-width:15.9404;stroke-linecap:butt;stroke-linejoin:miter;stroke-miterlimit:10;stroke-dasharray:none;stroke-opacity:1"
         d="m 1945.69,4795.57 h 79.37" /><path
         id="path20"
         style="fill:none;stroke:#000000;stroke-width:15.9404;stroke-linecap:butt;stroke-linejoin:miter;stroke-miterlimit:10;stroke-dasharray:none;stroke-opacity:1"
         d="m 2325.54,4001.86 h 453.551 v 453.551 H 2325.54 Z" /><path
         id="path22"
         style="fill:#0000ff;fill-opacity:1;fill-rule:nonzero;stroke:none"
         d="m 2557.33,4330.41 c 0,2.75 0,2.86 -2.38,2.86 -2.87,-3.22 -8.82,-7.63 -21.11,-7.63 v -3.45 c 2.75,0 8.71,0 15.27,3.09 v -62.11 c 0,-4.28 -0.36,-5.72 -10.84,-5.72 h -3.71 V 4254 c 3.22,0.23 14.78,0.23 18.72,0.23 3.94,0 15.38,0 18.6,-0.23 v 3.45 h -3.71 c -10.48,0 -10.84,1.44 -10.84,5.72 v 67.24" /><path
         id="path24"
         style="fill:none;stroke:#0000ff;stroke-width:3.985;stroke-linecap:butt;stroke-linejoin:miter;stroke-miterlimit:10;stroke-dasharray:none;stroke-opacity:1"
         d="m 2507.26,4228.94 h 90.09" /><path
         id="path26"
         style="fill:#0000ff;fill-opacity:1;fill-rule:nonzero;stroke:none"
         d="m 2550.88,4200.31 c 1.06,4.41 1.54,4.64 6.18,4.64 h 8.6 c 10.25,0 17.87,-3.09 17.87,-12.39 0,-6.08 -3.09,-23.61 -27.06,-23.61 H 2543 Z m 16.56,-32.78 c 14.78,3.22 26.34,12.75 26.34,23 0,9.3 -9.42,17.89 -25.98,17.89 h -32.32 c -2.37,0 -3.45,0 -3.45,-2.26 0,-1.21 0.85,-1.21 3.1,-1.21 7.15,0 7.15,-0.95 7.15,-2.26 0,-0.24 0,-0.96 -0.47,-2.74 l -16.09,-64.12 c -1.08,-4.17 -1.31,-5.38 -9.55,-5.38 -2.73,0 -3.56,0 -3.56,-2.26 0,-1.19 1.3,-1.19 1.66,-1.19 2.15,0 4.65,0.23 6.92,0.23 h 14.06 c 2.14,0 4.66,-0.23 6.8,-0.23 0.95,0 2.26,0 2.26,2.27 0,1.18 -1.08,1.18 -2.86,1.18 -7.28,0 -7.28,0.96 -7.28,2.16 0,0.11 0,0.95 0.25,1.91 l 7.99,32.06 h 14.29 c 11.33,0 13.47,-7.16 13.47,-11.1 0,-1.78 -1.19,-6.43 -2.01,-9.53 -1.32,-5.48 -1.68,-6.79 -1.68,-9.06 0,-8.45 6.91,-12.39 14.91,-12.39 9.66,0 13.83,11.8 13.83,13.47 0,0.83 -0.61,1.19 -1.31,1.19 -0.96,0 -1.21,-0.72 -1.44,-1.68 -2.86,-8.45 -7.75,-10.6 -10.74,-10.6 -2.96,0 -4.87,1.31 -4.87,6.68 0,2.86 1.42,13.71 1.55,14.3 0.59,4.41 0.59,4.89 0.59,5.84 0,8.71 -7.03,12.39 -11.56,13.83" /><path
         id="path28"
         style="fill:#0000ff;fill-opacity:1;fill-rule:nonzero;stroke:none"
         d="m 2891.55,4276.2 c 1.56,6.39 2.25,6.74 8.98,6.74 h 12.44 c 14.84,0 25.91,-4.49 25.91,-17.96 0,-8.81 -4.5,-34.2 -39.21,-34.2 h -19.51 z m 24.01,-47.48 c 21.41,4.66 38.16,18.47 38.16,33.33 0,13.47 -13.64,25.9 -37.64,25.9 h -46.8 c -3.47,0 -5.01,0 -5.01,-3.28 0,-1.73 1.2,-1.73 4.48,-1.73 10.38,0 10.38,-1.38 10.38,-3.28 0,-0.35 0,-1.38 -0.71,-3.97 l -23.31,-92.91 c -1.55,-6.05 -1.89,-7.76 -13.81,-7.76 -3.97,0 -5.19,0 -5.19,-3.29 0,-1.73 1.91,-1.73 2.42,-1.73 3.11,0 6.74,0.34 10.02,0.34 h 20.37 c 3.11,0 6.74,-0.34 9.85,-0.34 1.39,0 3.28,0 3.28,3.28 0,1.74 -1.55,1.74 -4.14,1.74 -10.53,0 -10.53,1.37 -10.53,3.09 0,0.19 0,1.39 0.34,2.77 l 11.58,46.45 h 20.72 c 16.4,0 19.51,-10.36 19.51,-16.05 0,-2.59 -1.73,-9.33 -2.94,-13.83 -1.9,-7.93 -2.42,-9.84 -2.42,-13.12 0,-12.25 10.02,-17.95 21.6,-17.95 13.98,0 20.03,17.09 20.03,19.51 0,1.2 -0.86,1.72 -1.91,1.72 -1.37,0 -1.72,-1.03 -2.06,-2.41 -4.16,-12.26 -11.24,-15.37 -15.55,-15.37 -4.31,0 -7.08,1.9 -7.08,9.67 0,4.14 2.07,19.86 2.24,20.72 0.87,6.39 0.87,7.08 0.87,8.47 0,12.61 -10.18,17.95 -16.75,20.03" /><path
         id="path30"
         style="fill:none;stroke:#000000;stroke-width:15.9404;stroke-linecap:butt;stroke-linejoin:miter;stroke-miterlimit:10;stroke-dasharray:none;stroke-opacity:1"
         d="m 2325.54,600.242 h 453.551 v 453.551 H 2325.54 Z" /><path
         id="path32"
         style="fill:#0000ff;fill-opacity:1;fill-rule:nonzero;stroke:none"
         d="m 2513.33,721.75 c 3.19,0.188 4.87,2.375 4.87,4.859 0,3.282 -2.48,4.875 -4.76,4.875 -2.39,0 -4.88,-1.5 -4.88,-4.968 0,-5.078 4.97,-9.25 11.03,-9.25 15.1,0 20.75,23.25 27.82,52.062 7.64,31.391 14.11,63.078 19.47,94.969 3.67,21.156 7.34,41.016 10.73,53.828 1.19,4.875 4.56,17.688 8.44,17.688 3.08,0 5.56,-1.891 5.95,-2.282 -3.27,-0.203 -4.95,-2.39 -4.95,-4.875 0,-3.265 2.47,-4.859 4.76,-4.859 2.38,0 4.86,1.484 4.86,4.969 0,5.359 -5.36,9.234 -10.83,9.234 -7.54,0 -13.11,-10.828 -18.57,-31.094 -0.3,-1.093 -13.8,-50.953 -24.74,-115.922 -2.58,-15.203 -5.45,-31.796 -8.73,-45.593 -1.8,-7.25 -6.36,-25.938 -14.41,-25.938 -3.58,0 -5.95,2.297 -6.06,2.297" /><path
         id="path34"
         style="fill:none;stroke:#000000;stroke-width:15.9404;stroke-linecap:butt;stroke-linejoin:miter;stroke-miterlimit:10;stroke-dasharray:none;stroke-opacity:1"
         d="m 1191.66,600.242 h 453.551 v 453.551 H 1191.66 Z" /><path
         id="path36"
         style="fill:#0000ff;fill-opacity:1;fill-rule:nonzero;stroke:none"
         d="m 1423.33,928.406 c 0,2.75 0,2.86 -2.38,2.86 -2.87,-3.219 -8.82,-7.625 -21.11,-7.625 v -3.453 c 2.75,0 8.71,0 15.27,3.093 v -62.109 c 0,-4.281 -0.36,-5.719 -10.84,-5.719 h -3.71 V 852 c 3.22,0.234 14.78,0.234 18.72,0.234 3.94,0 15.38,0 18.6,-0.234 v 3.453 h -3.71 c -10.48,0 -10.84,1.438 -10.84,5.719 v 67.234" /><path
         id="path38"
         style="fill:none;stroke:#0000ff;stroke-width:3.985;stroke-linecap:butt;stroke-linejoin:miter;stroke-miterlimit:10;stroke-dasharray:none;stroke-opacity:1"
         d="m 1372.26,827.332 h 92.34" /><path
         id="path40"
         style="fill:#0000ff;fill-opacity:1;fill-rule:nonzero;stroke:none"
         d="m 1461.05,807.844 c 0,1.078 -0.83,1.078 -1.08,1.078 -0.24,0 -0.72,0 -1.67,-1.188 l -8.22,-10.015 c -4.17,7.14 -10.74,11.203 -19.67,11.203 -25.75,0 -52.46,-26.109 -52.46,-54.125 0,-19.906 13.96,-32.297 31.36,-32.297 9.53,0 17.88,4.047 24.8,9.891 10.36,8.703 13.47,20.265 13.47,21.218 0,1.079 -0.95,1.079 -1.31,1.079 -1.08,0 -1.19,-0.719 -1.44,-1.204 -5.49,-18.593 -21.56,-27.531 -33.49,-27.531 -12.64,0 -23.61,8.11 -23.61,25.031 0,3.813 1.19,24.563 14.66,40.172 6.56,7.625 17.77,14.313 29.09,14.313 13.11,0 18.96,-10.86 18.96,-23.016 0,-3.094 -0.36,-5.719 -0.36,-6.187 0,-1.078 1.19,-1.078 1.55,-1.078 1.31,0 1.43,0.109 1.9,2.265 l 7.52,30.391" /><path
         id="path42"
         style="fill:#0000ff;fill-opacity:1;fill-rule:nonzero;stroke:none"
         d="m 1139,888.016 c 0,1.562 -1.2,1.562 -1.55,1.562 -0.34,0 -1.04,0 -2.42,-1.734 l -11.92,-14.5 c -6.05,10.359 -15.53,16.234 -28.48,16.234 -37.32,0 -75.99,-37.828 -75.99,-78.406 0,-28.844 20.2,-46.797 45.41,-46.797 13.83,0 25.9,5.875 35.92,14.328 15.03,12.61 19.51,29.36 19.51,30.75 0,1.547 -1.37,1.547 -1.89,1.547 -1.56,0 -1.73,-1.031 -2.07,-1.719 -7.94,-26.953 -31.25,-39.906 -48.54,-39.906 -18.29,0 -34.18,11.75 -34.18,36.266 0,5.531 1.72,35.578 21.23,58.203 9.5,11.047 25.74,20.719 42.14,20.719 19,0 27.46,-15.704 27.46,-33.329 0,-4.484 -0.52,-8.281 -0.52,-8.968 0,-1.563 1.73,-1.563 2.25,-1.563 1.91,0 2.08,0.172 2.77,3.281 l 10.87,44.032" /><path
         id="path44"
         style="fill:#000000;fill-opacity:1;fill-rule:nonzero;stroke:none"
         d="m 2025.06,288.426 v -56.692 l -71.4,28.348" /><path
         id="path46"
         style="fill:none;stroke:#000000;stroke-width:15.9404;stroke-linecap:butt;stroke-linejoin:miter;stroke-miterlimit:10;stroke-dasharray:none;stroke-opacity:1"
         d="m 2025.06,288.426 v -56.692 l -71.4,28.348 z" /><path
         id="path48"
         style="fill:none;stroke:#000000;stroke-width:15.9404;stroke-linecap:butt;stroke-linejoin:miter;stroke-miterlimit:10;stroke-dasharray:none;stroke-opacity:1"
         d="m 2025.06,260.082 h -79.37" /><path
         id="path50"
         style="fill:#0000ff;fill-opacity:1;fill-rule:nonzero;stroke:none"
         d="m 1975.16,190.438 c 0,0.859 -0.69,1.546 -1.55,1.546 -1.39,0 -8.13,-6.218 -11.41,-12.265 -3.11,7.781 -8.45,12.437 -15.89,12.437 -19.51,0 -40.58,-25.218 -40.58,-50.765 0,-17.094 10.02,-27.125 21.77,-27.125 9.14,0 16.75,6.922 20.38,10.89 l 0.17,-0.172 -6.57,-25.9059 -1.56,-6.2187 c -1.54,-5.1875 -4.14,-5.1875 -12.25,-5.3594 -1.9,0 -3.62,0 -3.62,-3.2812 0,-1.2032 1.03,-1.7188 2.23,-1.7188 2.42,0 5.53,0.3438 7.95,0.3438 h 17.61 c 2.6,0 5.54,-0.3438 8.11,-0.3438 1.05,0 3.11,0 3.11,3.2813 0,1.7187 -1.37,1.7187 -3.97,1.7187 -8.11,0 -8.62,1.2188 -8.62,2.5938 0,0.8593 0.17,1.0312 0.69,3.2812 z m -24.35,-53.891 c -0.87,-2.938 -0.87,-3.281 -3.28,-6.563 -3.8,-4.828 -11.4,-12.25 -19.51,-12.25 -7.08,0 -11.07,6.375 -11.07,16.579 0,9.484 5.36,28.828 8.64,36.093 5.88,12.078 13.99,18.297 20.72,18.297 11.41,0 13.64,-14.156 13.64,-15.547 0,-0.172 -0.51,-2.406 -0.68,-2.75 l -8.46,-33.859" /><path
         id="path52"
         style="fill:#0000ff;fill-opacity:1;fill-rule:nonzero;stroke:none"
         d="m 2063.05,173.844 c 0,1.078 -0.83,1.078 -1.08,1.078 -0.24,0 -0.72,0 -1.67,-1.188 l -8.22,-10.015 c -4.17,7.14 -10.74,11.203 -19.67,11.203 -25.75,0 -52.46,-26.109 -52.46,-54.125 0,-19.906 13.96,-32.297 31.36,-32.297 9.53,0 17.88,4.0469 24.8,9.8906 10.36,8.7034 13.47,20.2654 13.47,21.2184 0,1.079 -0.95,1.079 -1.31,1.079 -1.08,0 -1.19,-0.719 -1.44,-1.204 -5.49,-18.593 -21.56,-27.5309 -33.49,-27.5309 -12.64,0 -23.61,8.1099 -23.61,25.0309 0,3.813 1.19,24.563 14.66,40.172 6.56,7.625 17.77,14.313 29.09,14.313 13.11,0 18.96,-10.86 18.96,-23.016 0,-3.094 -0.36,-5.719 -0.36,-6.187 0,-1.078 1.19,-1.078 1.55,-1.078 1.31,0 1.43,0.109 1.9,2.265 l 7.52,30.391" /><path
         id="path54"
         style="fill:none;stroke:#000000;stroke-width:15.9404;stroke-linecap:butt;stroke-linejoin:miter;stroke-miterlimit:10;stroke-dasharray:none;stroke-opacity:1"
         d="m 2722.39,1960.89 c 0,93.93 -76.14,170.08 -170.08,170.08 -93.93,0 -170.08,-76.15 -170.08,-170.08 0,-93.93 76.15,-170.08 170.08,-170.08 93.94,0 170.08,76.15 170.08,170.08 z" /><path
         id="path56"
         style="fill:#0000ff;fill-opacity:1;fill-rule:nonzero;stroke:none"
         d="m 2550.78,1958.81 c 1.2,1.39 1.2,1.74 1.2,2.25 0,0.69 -0.68,1.72 -0.85,2.08 l -34.02,52.31 h 41.78 c 28.67,0 37.31,-6.2 40.25,-33.67 h 3.11 l -4.16,38.17 h -91.34 c -3.64,0 -3.81,-0.17 -3.81,-3.79 l 39.9,-61.49 -38.51,-49.39 c -1.22,-1.55 -1.22,-1.73 -1.22,-2.08 0,-1.2 1.05,-1.2 3.64,-1.2 h 91.34 l 4.16,39.55 h -3.11 c -2.76,-27.97 -12.61,-33.67 -40.59,-33.67 h -47.66 l 39.89,50.93" /><path
         id="path58"
         style="fill:#000000;fill-opacity:1;fill-rule:nonzero;stroke:none"
         d="m 1446.79,3094.76 c 0,15.66 -12.7,28.35 -28.35,28.35 -15.66,0 -28.35,-12.69 -28.35,-28.35 0,-15.65 12.69,-28.35 28.35,-28.35 15.65,0 28.35,12.7 28.35,28.35 z" /><path
         id="path60"
         style="fill:none;stroke:#000000;stroke-width:15.9404;stroke-linecap:butt;stroke-linejoin:miter;stroke-miterlimit:10;stroke-dasharray:none;stroke-opacity:1"
         d="m 1446.79,3094.76 c 0,15.66 -12.7,28.35 -28.35,28.35 -15.66,0 -28.35,-12.69 -28.35,-28.35 0,-15.65 12.69,-28.35 28.35,-28.35 15.65,0 28.35,12.7 28.35,28.35 z" /><path
         id="path62"
         style="fill:none;stroke:#000000;stroke-width:15.9404;stroke-linecap:round;stroke-linejoin:miter;stroke-miterlimit:10;stroke-dasharray:none;stroke-opacity:1"
         d="m 1418.44,2017.58 c 31.31,0 56.69,-25.38 56.69,-56.69 0,-31.31 -25.38,-56.69 -56.69,-56.69 v 0" /><path
         id="path64"
         style="fill:none;stroke:#000000;stroke-width:15.9404;stroke-linecap:butt;stroke-linejoin:miter;stroke-miterlimit:10;stroke-dasharray:none;stroke-opacity:1"
         d="m 114.484,2924.68 h 340.164 v 340.164 H 114.484 Z" /><path
         id="path66"
         style="fill:none;stroke:#000000;stroke-width:15.9404;stroke-linecap:butt;stroke-linejoin:miter;stroke-miterlimit:10;stroke-dasharray:none;stroke-opacity:1"
         d="M 454.648,3094.76 H 171.121 M 398.012,2981.32 H 171.121 v 226.89 h 226.891" /><path
         id="path68"
         style="fill:none;stroke:#000000;stroke-width:15.9404;stroke-linecap:butt;stroke-linejoin:miter;stroke-miterlimit:10;stroke-dasharray:none;stroke-opacity:1"
         d="M 57.793,1734.12 H 511.34 v 453.547 H 57.793 Z" /><path
         id="path70"
         style="fill:#0000ff;fill-opacity:1;fill-rule:nonzero;stroke:none"
         d="m 290.016,1987.42 c 3.453,0 4.843,0 4.843,3.28 0,1.74 -1.39,1.74 -4.5,1.74 h -13.984 c 3.281,17.78 5.703,30.04 7.078,35.56 1.047,4.16 4.672,8.13 9.156,8.13 3.625,0 7.25,-1.57 8.985,-3.11 -6.735,-0.69 -8.813,-5.71 -8.813,-8.64 0,-3.46 2.594,-5.52 5.875,-5.52 3.453,0 8.641,2.92 8.641,9.48 0,7.27 -7.266,11.24 -14.859,11.24 -7.422,0 -14.672,-5.53 -18.125,-12.27 -3.11,-6.04 -4.844,-12.26 -8.813,-34.87 h -11.578 c -3.281,0 -5,0 -5,-3.11 0,-1.91 1.031,-1.91 4.484,-1.91 h 11.063 c -3.11,-16.06 -10.188,-55.09 -14.172,-73.56 -2.938,-15.03 -5.516,-27.64 -14.156,-27.64 -0.516,0 -5.532,0 -8.641,3.28 8.813,0.7 8.813,8.3 8.813,8.47 0,3.45 -2.594,5.53 -5.875,5.53 -3.454,0 -8.625,-2.94 -8.625,-9.5 0,-7.44 7.593,-11.23 14.328,-11.23 17.609,0 24.875,31.61 26.765,40.25 3.11,13.29 11.578,59.21 12.438,64.4 h 14.672" /><path
         id="path72"
         style="fill:#0000ff;fill-opacity:1;fill-rule:nonzero;stroke:none"
         d="m 323.172,1915.84 c 2.031,-0.36 5.25,-1.07 5.969,-1.18 1.547,-0.49 6.906,-2.39 6.906,-8.11 0,-3.71 -3.328,-13.36 -17.156,-13.36 -2.5,0 -11.453,0.36 -13.828,6.92 4.765,-0.59 7.156,3.09 7.156,5.72 0,2.5 -1.672,3.81 -4.063,3.81 -2.625,0 -6.078,-2.03 -6.078,-7.39 0,-7.03 7.156,-11.44 16.688,-11.44 18.125,0 23.484,13.35 23.484,19.55 0,1.78 0,5.12 -3.812,8.94 -2.985,2.86 -5.844,3.45 -12.282,4.76 -3.218,0.72 -8.343,1.8 -8.343,7.16 0,2.39 2.14,10.97 13.468,10.97 5.016,0 9.891,-1.91 11.094,-6.21 -5.25,0 -5.484,-4.53 -5.484,-4.64 0,-2.51 2.265,-3.21 3.328,-3.21 1.672,0 5.015,1.31 5.015,6.31 0,5 -4.531,10.12 -13.828,10.12 -15.625,0 -19.797,-12.26 -19.797,-17.15 0,-9.07 8.829,-10.97 11.563,-11.57" /><path
         id="path74"
         style="fill:#000000;fill-opacity:1;fill-rule:nonzero;stroke:none"
         d="m 1446.79,3622.01 h -56.7 l 28.35,71.4" /><path
         id="path76"
         style="fill:none;stroke:#000000;stroke-width:15.9404;stroke-linecap:butt;stroke-linejoin:miter;stroke-miterlimit:10;stroke-dasharray:none;stroke-opacity:1"
         d="m 1446.79,3622.01 h -56.7 l 28.35,71.4 z" /><path
         id="path78"
         style="fill:none;stroke:#000000;stroke-width:15.9404;stroke-linecap:butt;stroke-linejoin:miter;stroke-miterlimit:10;stroke-dasharray:none;stroke-opacity:1"
         d="m 1418.44,3622.01 v 79.37" /><path
         id="path80"
         style="fill:#0000ff;fill-opacity:1;fill-rule:nonzero;stroke:none"
         d="m 1216.89,3648.02 c 2.25,-9.68 10.53,-11.75 14.67,-11.75 5.53,0 9.67,3.64 12.44,9.5 2.94,6.21 5.19,16.4 5.19,16.92 0,0.87 -0.71,1.56 -1.74,1.56 -1.54,0 -1.72,-0.86 -2.42,-3.45 -3.11,-11.92 -6.2,-21.07 -13.12,-21.07 -5.18,0 -5.18,5.69 -5.18,7.94 0,3.97 0.52,5.71 2.25,12.96 1.21,4.65 2.41,9.32 3.46,14.15 l 7.08,28.16 c 1.2,4.31 1.2,4.65 1.2,5.17 0,2.59 -2.08,4.33 -4.66,4.33 -5.01,0 -6.22,-4.33 -7.26,-8.64 -1.72,-6.74 -11.05,-43.86 -12.25,-49.91 -0.17,0 -6.91,-14.16 -19.52,-14.16 -8.98,0 -10.7,7.77 -10.7,14.16 0,9.84 4.83,23.66 9.31,35.24 2.08,5.51 2.94,7.76 2.94,11.21 0,7.43 -5.35,13.82 -13.64,13.82 -15.89,0 -22.28,-25.03 -22.28,-26.43 0,-0.68 0.7,-1.54 1.9,-1.54 1.55,0 1.74,0.69 2.42,3.11 4.15,14.84 10.88,21.4 17.44,21.4 1.74,0 4.49,-0.17 4.49,-5.7 0,-4.48 -1.89,-9.5 -4.49,-16.06 -7.59,-20.55 -8.47,-27.11 -8.47,-32.28 0,-17.63 13.3,-20.39 20.39,-20.39 11.05,0 17.1,7.61 20.55,11.75" /><path
         id="path82"
         style="fill:#0000ff;fill-opacity:1;fill-rule:nonzero;stroke:none"
         d="m 1297.88,3685.31 c 1.06,4.41 1.54,4.64 6.18,4.64 h 8.6 c 10.25,0 17.87,-3.09 17.87,-12.39 0,-6.08 -3.09,-23.61 -27.06,-23.61 H 1290 Z m 16.56,-32.78 c 14.78,3.22 26.34,12.75 26.34,23 0,9.3 -9.42,17.89 -25.98,17.89 h -32.32 c -2.37,0 -3.45,0 -3.45,-2.26 0,-1.21 0.85,-1.21 3.1,-1.21 7.15,0 7.15,-0.95 7.15,-2.26 0,-0.24 0,-0.96 -0.47,-2.74 l -16.09,-64.12 c -1.08,-4.17 -1.31,-5.38 -9.55,-5.38 -2.73,0 -3.56,0 -3.56,-2.26 0,-1.19 1.3,-1.19 1.66,-1.19 2.15,0 4.65,0.23 6.92,0.23 h 14.06 c 2.14,0 4.66,-0.23 6.8,-0.23 0.95,0 2.26,0 2.26,2.27 0,1.18 -1.08,1.18 -2.86,1.18 -7.28,0 -7.28,0.96 -7.28,2.16 0,0.11 0,0.95 0.25,1.91 l 7.99,32.06 h 14.29 c 11.33,0 13.47,-7.16 13.47,-11.1 0,-1.78 -1.19,-6.43 -2.01,-9.53 -1.32,-5.48 -1.68,-6.79 -1.68,-9.06 0,-8.45 6.91,-12.39 14.91,-12.39 9.66,0 13.83,11.8 13.83,13.47 0,0.83 -0.61,1.19 -1.31,1.19 -0.96,0 -1.21,-0.72 -1.44,-1.68 -2.86,-8.45 -7.75,-10.6 -10.74,-10.6 -2.96,0 -4.87,1.31 -4.87,6.68 0,2.86 1.42,13.71 1.55,14.3 0.59,4.41 0.59,4.89 0.59,5.84 0,8.71 -7.03,12.39 -11.56,13.83" /><path
         id="path84"
         style="fill:#000000;fill-opacity:1;fill-rule:nonzero;stroke:none"
         d="m 2523.96,3701.38 h 56.7 l -28.35,-71.4" /><path
         id="path86"
         style="fill:none;stroke:#000000;stroke-width:15.9404;stroke-linecap:butt;stroke-linejoin:miter;stroke-miterlimit:10;stroke-dasharray:none;stroke-opacity:1"
         d="m 2523.96,3701.38 h 56.7 l -28.35,-71.4 z" /><path
         id="path88"
         style="fill:none;stroke:#000000;stroke-width:15.9404;stroke-linecap:butt;stroke-linejoin:miter;stroke-miterlimit:10;stroke-dasharray:none;stroke-opacity:1"
         d="m 2552.31,3701.38 v -79.37" /><path
         id="path90"
         style="fill:#0000ff;fill-opacity:1;fill-rule:nonzero;stroke:none"
         d="m 2670.88,3642.69 c 0,0.87 -0.69,1.56 -1.74,1.56 -1.55,0 -1.72,-0.52 -2.58,-3.45 -4.5,-15.72 -11.58,-21.07 -17.28,-21.07 -2.06,0 -4.48,0.52 -4.48,5.69 0,4.67 2.08,9.85 3.97,15.03 l 12.09,32.13 c 0.52,1.37 1.72,4.48 1.72,7.76 0,7.25 -5.17,13.82 -13.64,13.82 -15.89,0 -22.28,-25.03 -22.28,-26.43 0,-0.68 0.7,-1.54 1.9,-1.54 1.55,0 1.74,0.69 2.42,3.11 4.15,14.5 10.71,21.4 17.44,21.4 1.55,0 4.49,-0.17 4.49,-5.7 0,-4.48 -2.24,-10.19 -3.63,-13.98 l -12.08,-32.13 c -1.04,-2.75 -2.07,-5.51 -2.07,-8.62 0,-7.79 5.35,-14 13.64,-14 15.89,0 22.11,25.21 22.11,26.42 z m -1.4,83.08 c 0,2.57 -2.06,5.68 -5.85,5.68 -3.99,0 -8.47,-3.79 -8.47,-8.28 0,-4.31 3.62,-5.7 5.7,-5.7 4.66,0 8.62,4.5 8.62,8.3" /><path
         id="path92"
         style="fill:#0000ff;fill-opacity:1;fill-rule:nonzero;stroke:none"
         d="m 2722.88,3665.31 c 1.06,4.41 1.54,4.64 6.18,4.64 h 8.6 c 10.25,0 17.87,-3.09 17.87,-12.39 0,-6.08 -3.09,-23.61 -27.06,-23.61 H 2715 Z m 16.56,-32.78 c 14.78,3.22 26.34,12.75 26.34,23 0,9.3 -9.42,17.89 -25.98,17.89 h -32.32 c -2.37,0 -3.45,0 -3.45,-2.26 0,-1.21 0.85,-1.21 3.1,-1.21 7.15,0 7.15,-0.95 7.15,-2.26 0,-0.24 0,-0.96 -0.47,-2.74 l -16.09,-64.12 c -1.08,-4.17 -1.31,-5.38 -9.55,-5.38 -2.73,0 -3.56,0 -3.56,-2.26 0,-1.19 1.3,-1.19 1.66,-1.19 2.15,0 4.65,0.23 6.92,0.23 h 14.06 c 2.14,0 4.66,-0.23 6.8,-0.23 0.95,0 2.26,0 2.26,2.27 0,1.18 -1.08,1.18 -2.86,1.18 -7.28,0 -7.28,0.96 -7.28,2.16 0,0.11 0,0.95 0.25,1.91 l 7.99,32.06 h 14.29 c 11.33,0 13.47,-7.16 13.47,-11.1 0,-1.78 -1.19,-6.43 -2.01,-9.53 -1.32,-5.48 -1.68,-6.79 -1.68,-9.06 0,-8.45 6.91,-12.39 14.91,-12.39 9.66,0 13.83,11.8 13.83,13.47 0,0.83 -0.61,1.19 -1.31,1.19 -0.96,0 -1.21,-0.72 -1.44,-1.68 -2.86,-8.45 -7.75,-10.6 -10.74,-10.6 -2.96,0 -4.87,1.31 -4.87,6.68 0,2.86 1.42,13.71 1.55,14.3 0.59,4.41 0.59,4.89 0.59,5.84 0,8.71 -7.03,12.39 -11.56,13.83" /><path
         id="path94"
         style="fill:#000000;fill-opacity:1;fill-rule:nonzero;stroke:none"
         d="m 2523.96,1433.64 h 56.7 l -28.35,-71.4" /><path
         id="path96"
         style="fill:none;stroke:#000000;stroke-width:15.9404;stroke-linecap:butt;stroke-linejoin:miter;stroke-miterlimit:10;stroke-dasharray:none;stroke-opacity:1"
         d="m 2523.96,1433.64 h 56.7 l -28.35,-71.4 z" /><path
         id="path98"
         style="fill:none;stroke:#000000;stroke-width:15.9404;stroke-linecap:butt;stroke-linejoin:miter;stroke-miterlimit:10;stroke-dasharray:none;stroke-opacity:1"
         d="m 2552.31,1433.64 v -79.37" /><path
         id="path100"
         style="fill:#0000ff;fill-opacity:1;fill-rule:nonzero;stroke:none"
         d="m 2670.88,1374.69 c 0,0.87 -0.69,1.56 -1.74,1.56 -1.55,0 -1.72,-0.52 -2.58,-3.45 -4.5,-15.72 -11.58,-21.07 -17.28,-21.07 -2.06,0 -4.48,0.52 -4.48,5.69 0,4.67 2.08,9.85 3.97,15.03 l 12.09,32.13 c 0.52,1.37 1.72,4.48 1.72,7.76 0,7.25 -5.17,13.82 -13.64,13.82 -15.89,0 -22.28,-25.03 -22.28,-26.43 0,-0.68 0.7,-1.54 1.9,-1.54 1.55,0 1.74,0.69 2.42,3.11 4.15,14.5 10.71,21.4 17.44,21.4 1.55,0 4.49,-0.17 4.49,-5.7 0,-4.48 -2.24,-10.19 -3.63,-13.98 l -12.08,-32.13 c -1.04,-2.75 -2.07,-5.51 -2.07,-8.62 0,-7.79 5.35,-14 13.64,-14 15.89,0 22.11,25.21 22.11,26.42 z m -1.4,83.08 c 0,2.57 -2.06,5.68 -5.85,5.68 -3.99,0 -8.47,-3.79 -8.47,-8.28 0,-4.31 3.62,-5.7 5.7,-5.7 4.66,0 8.62,4.5 8.62,8.3" /><path
         id="path102"
         style="fill:#0000ff;fill-opacity:1;fill-rule:nonzero;stroke:none"
         d="m 2768.05,1407.84 c 0,1.08 -0.83,1.08 -1.08,1.08 -0.24,0 -0.72,0 -1.67,-1.19 l -8.22,-10.01 c -4.17,7.14 -10.74,11.2 -19.67,11.2 -25.75,0 -52.46,-26.11 -52.46,-54.12 0,-19.91 13.96,-32.3 31.36,-32.3 9.53,0 17.88,4.05 24.8,9.89 10.36,8.7 13.47,20.27 13.47,21.22 0,1.08 -0.95,1.08 -1.31,1.08 -1.08,0 -1.19,-0.72 -1.44,-1.21 -5.49,-18.59 -21.56,-27.53 -33.49,-27.53 -12.64,0 -23.61,8.11 -23.61,25.03 0,3.82 1.19,24.57 14.66,40.18 6.56,7.62 17.77,14.31 29.09,14.31 13.11,0 18.96,-10.86 18.96,-23.02 0,-3.09 -0.36,-5.72 -0.36,-6.18 0,-1.08 1.19,-1.08 1.55,-1.08 1.31,0 1.43,0.11 1.9,2.26 l 7.52,30.39" /><path
         id="path104"
         style="fill:#000000;fill-opacity:1;fill-rule:nonzero;stroke:none"
         d="m 1446.79,1354.27 h -56.7 l 28.35,71.4" /><path
         id="path106"
         style="fill:none;stroke:#000000;stroke-width:15.9404;stroke-linecap:butt;stroke-linejoin:miter;stroke-miterlimit:10;stroke-dasharray:none;stroke-opacity:1"
         d="m 1446.79,1354.27 h -56.7 l 28.35,71.4 z" /><path
         id="path108"
         style="fill:none;stroke:#000000;stroke-width:15.9404;stroke-linecap:butt;stroke-linejoin:miter;stroke-miterlimit:10;stroke-dasharray:none;stroke-opacity:1"
         d="m 1418.44,1354.27 v 79.37" /><path
         id="path110"
         style="fill:#0000ff;fill-opacity:1;fill-rule:nonzero;stroke:none"
         d="m 1214.89,1380.02 c 2.25,-9.68 10.53,-11.75 14.67,-11.75 5.53,0 9.67,3.64 12.44,9.5 2.94,6.21 5.19,16.4 5.19,16.92 0,0.87 -0.71,1.56 -1.74,1.56 -1.54,0 -1.72,-0.86 -2.42,-3.45 -3.11,-11.92 -6.2,-21.07 -13.12,-21.07 -5.18,0 -5.18,5.69 -5.18,7.94 0,3.97 0.52,5.71 2.25,12.96 1.21,4.65 2.41,9.32 3.46,14.15 l 7.08,28.16 c 1.2,4.31 1.2,4.65 1.2,5.17 0,2.59 -2.08,4.33 -4.66,4.33 -5.01,0 -6.22,-4.33 -7.26,-8.64 -1.72,-6.74 -11.05,-43.86 -12.25,-49.91 -0.17,0 -6.91,-14.16 -19.52,-14.16 -8.98,0 -10.7,7.77 -10.7,14.16 0,9.84 4.83,23.66 9.31,35.24 2.08,5.51 2.94,7.76 2.94,11.21 0,7.43 -5.35,13.82 -13.64,13.82 -15.89,0 -22.28,-25.03 -22.28,-26.43 0,-0.68 0.7,-1.54 1.9,-1.54 1.55,0 1.74,0.69 2.42,3.11 4.15,14.84 10.88,21.4 17.44,21.4 1.74,0 4.49,-0.17 4.49,-5.7 0,-4.48 -1.89,-9.5 -4.49,-16.06 -7.59,-20.55 -8.47,-27.11 -8.47,-32.28 0,-17.63 13.3,-20.39 20.39,-20.39 11.05,0 17.1,7.61 20.55,11.75" /><path
         id="path112"
         style="fill:#0000ff;fill-opacity:1;fill-rule:nonzero;stroke:none"
         d="m 1341.05,1426.84 c 0,1.08 -0.83,1.08 -1.08,1.08 -0.24,0 -0.72,0 -1.67,-1.19 l -8.22,-10.01 c -4.17,7.14 -10.74,11.2 -19.67,11.2 -25.75,0 -52.46,-26.11 -52.46,-54.12 0,-19.91 13.96,-32.3 31.36,-32.3 9.53,0 17.88,4.05 24.8,9.89 10.36,8.7 13.47,20.27 13.47,21.22 0,1.08 -0.95,1.08 -1.31,1.08 -1.08,0 -1.19,-0.72 -1.44,-1.21 -5.49,-18.59 -21.56,-27.53 -33.49,-27.53 -12.64,0 -23.61,8.11 -23.61,25.03 0,3.82 1.19,24.57 14.66,40.18 6.56,7.62 17.77,14.31 29.09,14.31 13.11,0 18.96,-10.86 18.96,-23.02 0,-3.09 -0.36,-5.72 -0.36,-6.18 0,-1.08 1.19,-1.08 1.55,-1.08 1.31,0 1.43,0.11 1.9,2.26 l 7.52,30.39" /><path
         id="path114"
         style="fill:#000000;fill-opacity:1;fill-rule:nonzero;stroke:none"
         d="m 891.188,3123.11 v -56.7 l -71.399,28.35" /><path
         id="path116"
         style="fill:none;stroke:#000000;stroke-width:15.9404;stroke-linecap:butt;stroke-linejoin:miter;stroke-miterlimit:10;stroke-dasharray:none;stroke-opacity:1"
         d="m 891.188,3123.11 v -56.7 l -71.399,28.35 z" /><path
         id="path118"
         style="fill:none;stroke:#000000;stroke-width:15.9404;stroke-linecap:butt;stroke-linejoin:miter;stroke-miterlimit:10;stroke-dasharray:none;stroke-opacity:1"
         d="M 891.188,3094.76 H 811.816" /><path
         id="path120"
         style="fill:#0000ff;fill-opacity:1;fill-rule:nonzero;stroke:none"
         d="m 770.891,3217.02 c 2.25,-9.68 10.531,-11.75 14.672,-11.75 5.531,0 9.671,3.64 12.437,9.5 2.938,6.21 5.188,16.4 5.188,16.92 0,0.87 -0.704,1.56 -1.735,1.56 -1.547,0 -1.719,-0.86 -2.422,-3.45 -3.109,-11.92 -6.203,-21.07 -13.125,-21.07 -5.172,0 -5.172,5.69 -5.172,7.94 0,3.97 0.516,5.71 2.25,12.96 1.204,4.65 2.407,9.32 3.454,14.15 l 7.078,28.16 c 1.203,4.31 1.203,4.65 1.203,5.17 0,2.59 -2.078,4.33 -4.656,4.33 -5.016,0 -6.219,-4.33 -7.266,-8.64 -1.719,-6.74 -11.047,-43.86 -12.25,-49.91 -0.172,0 -6.906,-14.16 -19.516,-14.16 -8.984,0 -10.703,7.77 -10.703,14.16 0,9.84 4.828,23.66 9.313,35.24 2.078,5.51 2.937,7.76 2.937,11.21 0,7.43 -5.344,13.82 -13.64,13.82 -15.891,0 -22.282,-25.03 -22.282,-26.43 0,-0.68 0.703,-1.54 1.907,-1.54 1.546,0 1.734,0.69 2.421,3.11 4.141,14.84 10.875,21.4 17.438,21.4 1.734,0 4.484,-0.17 4.484,-5.7 0,-4.48 -1.89,-9.5 -4.484,-16.06 -7.594,-20.55 -8.469,-27.11 -8.469,-32.28 0,-17.63 13.297,-20.39 20.391,-20.39 11.047,0 17.094,7.61 20.547,11.75" /><path
         id="path122"
         style="fill:#0000ff;fill-opacity:1;fill-rule:nonzero;stroke:none"
         d="m 860.844,3164.86 c 0,0.17 0,0.52 -0.516,1.05 -7.953,8.11 -29.187,30.22 -29.187,84.09 0,53.88 20.89,75.81 29.359,84.45 0,0.18 0.344,0.52 0.344,1.03 0,0.52 -0.516,0.86 -1.203,0.86 -1.907,0 -16.578,-12.78 -25.047,-31.76 -8.641,-19.17 -11.047,-37.83 -11.047,-54.41 0,-12.44 1.203,-33.5 11.562,-55.78 8.297,-17.95 22.454,-30.56 24.532,-30.56 0.859,0 1.203,0.34 1.203,1.03" /><path
         id="path124"
         style="fill:#0000ff;fill-opacity:1;fill-rule:nonzero;stroke:none"
         d="m 903.719,3276.42 h 15.875 c 3.281,0 5.015,0 5.015,3.11 0,1.91 -1.031,1.91 -4.484,1.91 h -15.203 l 6.391,25.2 c 0.687,2.42 0.687,2.77 0.687,3.97 0,2.77 -2.25,4.33 -4.484,4.33 -1.391,0 -5.36,-0.52 -6.735,-6.05 l -6.734,-27.45 h -16.234 c -3.454,0 -5.016,0 -5.016,-3.28 0,-1.74 1.219,-1.74 4.5,-1.74 h 15.359 l -11.39,-45.59 c -1.391,-6.05 -1.907,-7.77 -1.907,-10.02 0,-8.11 5.704,-15.54 15.375,-15.54 17.438,0 26.766,25.21 26.766,26.42 0,1.04 -0.687,1.56 -1.734,1.56 -0.344,0 -1.032,0 -1.375,-0.69 -0.172,-0.17 -0.344,-0.34 -1.547,-3.11 -3.641,-8.64 -11.578,-20.72 -21.594,-20.72 -5.187,0 -5.531,4.32 -5.531,8.11 0,0.18 0,3.46 0.515,5.54 l 13.485,54.04" /><path
         id="path126"
         style="fill:#0000ff;fill-opacity:1;fill-rule:nonzero;stroke:none"
         d="m 975.422,3250 c 0,12.44 -1.219,33.5 -11.578,55.78 -8.281,17.95 -22.453,30.56 -24.516,30.56 -0.515,0 -1.219,-0.17 -1.219,-1.03 0,-0.34 0.188,-0.51 0.36,-0.86 8.281,-8.64 29.344,-30.57 29.344,-84.28 0,-53.87 -20.891,-75.81 -29.344,-84.45 -0.172,-0.34 -0.36,-0.52 -0.36,-0.86 0,-0.86 0.704,-1.03 1.219,-1.03 1.891,0 16.578,12.78 25.031,31.78 8.641,19.16 11.063,37.81 11.063,54.39" /><path
         id="path128"
         style="fill:#000000;fill-opacity:1;fill-rule:nonzero;stroke:none"
         d="m 811.816,1932.54 v 56.69 l 71.403,-28.34" /><path
         id="path130"
         style="fill:none;stroke:#000000;stroke-width:15.9404;stroke-linecap:butt;stroke-linejoin:miter;stroke-miterlimit:10;stroke-dasharray:none;stroke-opacity:1"
         d="m 811.816,1932.54 v 56.69 l 71.403,-28.34 z" /><path
         id="path132"
         style="fill:none;stroke:#000000;stroke-width:15.9404;stroke-linecap:butt;stroke-linejoin:miter;stroke-miterlimit:10;stroke-dasharray:none;stroke-opacity:1"
         d="m 811.816,1960.89 h 79.372" /><path
         id="path134"
         style="fill:#0000ff;fill-opacity:1;fill-rule:nonzero;stroke:none"
         d="m 779.875,1786.69 c 0,0.87 -0.687,1.56 -1.734,1.56 -1.547,0 -1.719,-0.52 -2.578,-3.45 -4.5,-15.72 -11.579,-21.07 -17.282,-21.07 -2.062,0 -4.484,0.52 -4.484,5.69 0,4.67 2.078,9.85 3.969,15.03 l 12.093,32.13 c 0.516,1.37 1.719,4.48 1.719,7.76 0,7.25 -5.172,13.82 -13.64,13.82 -15.891,0 -22.282,-25.03 -22.282,-26.43 0,-0.68 0.703,-1.54 1.907,-1.54 1.546,0 1.734,0.69 2.421,3.11 4.141,14.5 10.704,21.4 17.438,21.4 1.547,0 4.484,-0.17 4.484,-5.7 0,-4.48 -2.234,-10.19 -3.625,-13.98 l -12.078,-32.13 c -1.047,-2.75 -2.078,-5.51 -2.078,-8.62 0,-7.79 5.359,-14 13.641,-14 15.89,0 22.109,25.21 22.109,26.42 z m -1.391,83.08 c 0,2.57 -2.062,5.68 -5.859,5.68 -3.984,0 -8.469,-3.79 -8.469,-8.28 0,-4.31 3.625,-5.7 5.703,-5.7 4.657,0 8.625,4.5 8.625,8.3" /><path
         id="path136"
         style="fill:#0000ff;fill-opacity:1;fill-rule:nonzero;stroke:none"
         d="m 841.844,1719.86 c 0,0.17 0,0.52 -0.516,1.05 -7.953,8.11 -29.187,30.22 -29.187,84.09 0,53.88 20.89,75.81 29.359,84.45 0,0.18 0.344,0.52 0.344,1.03 0,0.52 -0.516,0.86 -1.203,0.86 -1.907,0 -16.578,-12.78 -25.047,-31.76 -8.641,-19.17 -11.047,-37.83 -11.047,-54.41 0,-12.44 1.203,-33.5 11.562,-55.78 8.297,-17.95 22.454,-30.56 24.532,-30.56 0.859,0 1.203,0.34 1.203,1.03" /><path
         id="path138"
         style="fill:#0000ff;fill-opacity:1;fill-rule:nonzero;stroke:none"
         d="m 884.719,1831.42 h 15.875 c 3.281,0 5.015,0 5.015,3.11 0,1.91 -1.031,1.91 -4.484,1.91 h -15.203 l 6.391,25.2 c 0.687,2.42 0.687,2.77 0.687,3.97 0,2.77 -2.25,4.33 -4.484,4.33 -1.391,0 -5.36,-0.52 -6.735,-6.05 l -6.734,-27.45 h -16.234 c -3.454,0 -5.016,0 -5.016,-3.28 0,-1.74 1.219,-1.74 4.5,-1.74 h 15.359 l -11.39,-45.59 c -1.391,-6.05 -1.907,-7.77 -1.907,-10.02 0,-8.11 5.704,-15.54 15.375,-15.54 17.438,0 26.766,25.21 26.766,26.42 0,1.04 -0.687,1.56 -1.734,1.56 -0.344,0 -1.032,0 -1.375,-0.69 -0.172,-0.17 -0.344,-0.34 -1.547,-3.11 -3.641,-8.64 -11.578,-20.72 -21.594,-20.72 -5.187,0 -5.531,4.32 -5.531,8.11 0,0.18 0,3.46 0.515,5.54 l 13.485,54.04" /><path
         id="path140"
         style="fill:#0000ff;fill-opacity:1;fill-rule:nonzero;stroke:none"
         d="m 956.422,1805 c 0,12.44 -1.219,33.5 -11.578,55.78 -8.281,17.95 -22.453,30.56 -24.516,30.56 -0.515,0 -1.219,-0.17 -1.219,-1.03 0,-0.34 0.188,-0.51 0.36,-0.86 8.281,-8.64 29.344,-30.57 29.344,-84.28 0,-53.87 -20.891,-75.81 -29.344,-84.45 -0.172,-0.34 -0.36,-0.52 -0.36,-0.86 0,-0.86 0.704,-1.03 1.219,-1.03 1.891,0 16.578,12.78 25.031,31.78 8.641,19.16 11.063,37.81 11.063,54.39" /><path
         id="path142"
         style="fill:none;stroke:#000000;stroke-width:15.9404;stroke-linecap:butt;stroke-linejoin:miter;stroke-miterlimit:10;stroke-dasharray:none;stroke-opacity:1"
         d="m 1418.44,3127.09 v 494.92 m 0,79.37 v 1094.19 h 527.25 m 79.37,0 h 527.25 v -332.19 m 0,-469.49 v -292.51 m 0,-79.37 V 2138.94" /><g
         id="g144"><g
           clip-path="url(#clipPath150)"
           id="g146"><path
             id="path152"
             style="fill:none;stroke:#000000;stroke-width:15.9404;stroke-linecap:butt;stroke-linejoin:miter;stroke-miterlimit:10;stroke-dasharray:none;stroke-opacity:1"
             d="m 2597.67,2187.66 h 90.71" /></g></g><path
         id="path154"
         style="fill:none;stroke:#000000;stroke-width:15.9404;stroke-linecap:butt;stroke-linejoin:miter;stroke-miterlimit:10;stroke-dasharray:none;stroke-opacity:1"
         d="m 2552.31,1782.84 v -349.2 m 0,-79.37 v -292.51 m 0,-469.487 V 260.082 h -527.25 m -79.37,0 h -527.25 v 332.191 m 0,469.487 v 292.51 m 0,79.37 v 470.56 m 0,113.38 v 1044.85" /><path
         id="path156"
         style="fill:none;stroke:#000000;stroke-width:15.9404;stroke-linecap:butt;stroke-linejoin:miter;stroke-miterlimit:10;stroke-dasharray:none;stroke-opacity:1"
         d="m 462.617,3094.76 h 349.199 m 79.372,0 h 494.922" /><path
         id="path158"
         style="fill:none;stroke:#000000;stroke-width:15.9404;stroke-linecap:butt;stroke-linejoin:miter;stroke-miterlimit:10;stroke-dasharray:none;stroke-opacity:1"
         d="m 519.313,1960.89 h 292.503 m 79.372,0 H 2374.26" /><g
         id="g160"><g
           clip-path="url(#clipPath166)"
           id="g162"><path
             id="path168"
             style="fill:none;stroke:#000000;stroke-width:15.9404;stroke-linecap:butt;stroke-linejoin:miter;stroke-miterlimit:10;stroke-dasharray:none;stroke-opacity:1"
             d="m 2280.18,2051.6 h 90.71 m -45.35,45.35 v -90.7" /></g></g></g></g></svg>
